<?xml version="1.0" encoding="UTF-8" standalone="no"?>
<!DOCTYPE svg PUBLIC "-//W3C//DTD SVG 1.1//EN"
 "http://www.w3.org/Graphics/SVG/1.1/DTD/svg11.dtd">
<!-- Generated by graphviz version 2.43.0 (0)
 -->
<!-- Title: include/nmbuflowtorch/autoencoder.hpp Pages: 1 -->
<svg width="1367pt" height="319pt"
 viewBox="0.00 0.00 1367.00 319.00" xmlns="http://www.w3.org/2000/svg" xmlns:xlink="http://www.w3.org/1999/xlink">
<g id="graph0" class="graph" transform="scale(1 1) rotate(0) translate(4 315)">
<title>include/nmbuflowtorch/autoencoder.hpp</title>
<!-- Node1 -->
<g id="node1" class="node">
<title>Node1</title>
<g id="a_node1"><a xlink:title=" ">
<polygon fill="#bfbfbf" stroke="black" points="602.5,-280.5 602.5,-310.5 730.5,-310.5 730.5,-280.5 602.5,-280.5"/>
<text text-anchor="start" x="610.5" y="-298.5" font-family="Helvetica,sans-Serif" font-size="10.00">include/nmbuflowtorch</text>
<text text-anchor="middle" x="666.5" y="-287.5" font-family="Helvetica,sans-Serif" font-size="10.00">/autoencoder.hpp</text>
</a>
</g>
</g>
<!-- Node2 -->
<g id="node2" class="node">
<title>Node2</title>
<g id="a_node2"><a xlink:title=" ">
<polygon fill="none" stroke="#bfbfbf" points="0,-224.5 0,-243.5 47,-243.5 47,-224.5 0,-224.5"/>
<text text-anchor="middle" x="23.5" y="-231.5" font-family="Helvetica,sans-Serif" font-size="10.00">omp.h</text>
</a>
</g>
</g>
<!-- Node1&#45;&gt;Node2 -->
<g id="edge1" class="edge">
<title>Node1&#45;&gt;Node2</title>
<path fill="none" stroke="midnightblue" d="M602.1,-292.28C491.12,-287.76 256.93,-275.12 61.5,-244 60.04,-243.77 58.54,-243.51 57.04,-243.23"/>
<polygon fill="midnightblue" stroke="midnightblue" points="57.61,-239.77 47.11,-241.17 56.19,-246.63 57.61,-239.77"/>
</g>
<!-- Node3 -->
<g id="node3" class="node">
<title>Node3</title>
<g id="a_node3"><a xlink:title=" ">
<polygon fill="none" stroke="#bfbfbf" points="268,-0.5 268,-19.5 315,-19.5 315,-0.5 268,-0.5"/>
<text text-anchor="middle" x="291.5" y="-7.5" font-family="Helvetica,sans-Serif" font-size="10.00">cmath</text>
</a>
</g>
</g>
<!-- Node1&#45;&gt;Node3 -->
<g id="edge2" class="edge">
<title>Node1&#45;&gt;Node3</title>
<path fill="none" stroke="midnightblue" d="M602.41,-295.34C449.41,-295.63 75.5,-285.44 75.5,-179 75.5,-179 75.5,-179 75.5,-121 75.5,-40.21 196.97,-18.73 257.72,-13.04"/>
<polygon fill="midnightblue" stroke="midnightblue" points="258.3,-16.5 267.97,-12.18 257.71,-9.53 258.3,-16.5"/>
</g>
<!-- Node4 -->
<g id="node4" class="node">
<title>Node4</title>
<g id="a_node4"><a xlink:title=" ">
<polygon fill="none" stroke="#bfbfbf" points="1094.5,-224.5 1094.5,-243.5 1150.5,-243.5 1150.5,-224.5 1094.5,-224.5"/>
<text text-anchor="middle" x="1122.5" y="-231.5" font-family="Helvetica,sans-Serif" font-size="10.00">iomanip</text>
</a>
</g>
</g>
<!-- Node1&#45;&gt;Node4 -->
<g id="edge3" class="edge">
<title>Node1&#45;&gt;Node4</title>
<path fill="none" stroke="midnightblue" d="M730.59,-288.48C812.17,-280.41 957.32,-264.67 1080.5,-244 1081.74,-243.79 1083,-243.57 1084.27,-243.34"/>
<polygon fill="midnightblue" stroke="midnightblue" points="1084.94,-246.78 1094.1,-241.45 1083.62,-239.9 1084.94,-246.78"/>
</g>
<!-- Node5 -->
<g id="node5" class="node">
<title>Node5</title>
<g id="a_node5"><a xlink:title=" ">
<polygon fill="none" stroke="#bfbfbf" points="973.5,-0.5 973.5,-19.5 1033.5,-19.5 1033.5,-0.5 973.5,-0.5"/>
<text text-anchor="middle" x="1003.5" y="-7.5" font-family="Helvetica,sans-Serif" font-size="10.00">iostream</text>
</a>
</g>
</g>
<!-- Node1&#45;&gt;Node5 -->
<g id="edge4" class="edge">
<title>Node1&#45;&gt;Node5</title>
<path fill="none" stroke="midnightblue" d="M730.8,-292.4C821.99,-288.29 983.09,-276.53 1030.5,-244 1057.73,-225.31 1066.5,-212.02 1066.5,-179 1066.5,-179 1066.5,-179 1066.5,-121 1066.5,-83.48 1038.55,-47.14 1019.89,-27.05"/>
<polygon fill="midnightblue" stroke="midnightblue" points="1022.26,-24.48 1012.8,-19.72 1017.23,-29.34 1022.26,-24.48"/>
</g>
<!-- Node6 -->
<g id="node6" class="node">
<title>Node6</title>
<g id="a_node6"><a xlink:title=" ">
<polygon fill="none" stroke="#bfbfbf" points="1169,-224.5 1169,-243.5 1226,-243.5 1226,-224.5 1169,-224.5"/>
<text text-anchor="middle" x="1197.5" y="-231.5" font-family="Helvetica,sans-Serif" font-size="10.00">ostream</text>
</a>
</g>
</g>
<!-- Node1&#45;&gt;Node6 -->
<g id="edge5" class="edge">
<title>Node1&#45;&gt;Node6</title>
<path fill="none" stroke="midnightblue" d="M730.68,-290.61C823.16,-284.41 999.38,-270.38 1158.95,-243.87"/>
<polygon fill="midnightblue" stroke="midnightblue" points="1159.67,-247.29 1168.95,-242.18 1158.51,-240.39 1159.67,-247.29"/>
</g>
<!-- Node7 -->
<g id="node7" class="node">
<title>Node7</title>
<g id="a_node7"><a xlink:title=" ">
<polygon fill="none" stroke="#bfbfbf" points="846,-0.5 846,-19.5 893,-19.5 893,-0.5 846,-0.5"/>
<text text-anchor="middle" x="869.5" y="-7.5" font-family="Helvetica,sans-Serif" font-size="10.00">vector</text>
</a>
</g>
</g>
<!-- Node1&#45;&gt;Node7 -->
<g id="edge6" class="edge">
<title>Node1&#45;&gt;Node7</title>
<path fill="none" stroke="midnightblue" d="M730.63,-293.12C818.21,-289.91 968.98,-279.27 1009.5,-244 1032.2,-224.24 1028.5,-209.1 1028.5,-179 1028.5,-179 1028.5,-179 1028.5,-121 1028.5,-60.49 949.65,-30.65 903.01,-18.3"/>
<polygon fill="midnightblue" stroke="midnightblue" points="903.86,-14.9 893.3,-15.85 902.15,-21.69 903.86,-14.9"/>
</g>
<!-- Node8 -->
<g id="node8" class="node">
<title>Node8</title>
<g id="a_node8"><a xlink:title=" ">
<polygon fill="none" stroke="#bfbfbf" points="1244,-224.5 1244,-243.5 1359,-243.5 1359,-224.5 1244,-224.5"/>
<text text-anchor="middle" x="1301.5" y="-231.5" font-family="Helvetica,sans-Serif" font-size="10.00">./csv_parser/csv.hpp</text>
</a>
</g>
</g>
<!-- Node1&#45;&gt;Node8 -->
<g id="edge7" class="edge">
<title>Node1&#45;&gt;Node8</title>
<path fill="none" stroke="midnightblue" d="M730.6,-289.8C834.2,-281.98 1045.11,-265.17 1233.82,-244.15"/>
<polygon fill="midnightblue" stroke="midnightblue" points="1234.38,-247.6 1243.93,-243.01 1233.6,-240.65 1234.38,-247.6"/>
</g>
<!-- Node9 -->
<g id="node9" class="node">
<title>Node9</title>
<g id="a_node9"><a xlink:href="definitions_8hpp.html" target="_top" xlink:title=" ">
<polygon fill="none" stroke="black" points="619,-56.5 619,-75.5 714,-75.5 714,-56.5 619,-56.5"/>
<text text-anchor="middle" x="666.5" y="-63.5" font-family="Helvetica,sans-Serif" font-size="10.00">./definitions.hpp</text>
</a>
</g>
</g>
<!-- Node1&#45;&gt;Node9 -->
<g id="edge8" class="edge">
<title>Node1&#45;&gt;Node9</title>
<path fill="none" stroke="midnightblue" d="M666.5,-280.27C666.5,-240.89 666.5,-130.49 666.5,-85.97"/>
<polygon fill="midnightblue" stroke="midnightblue" points="670,-85.93 666.5,-75.93 663,-85.93 670,-85.93"/>
</g>
<!-- Node14 -->
<g id="node14" class="node">
<title>Node14</title>
<g id="a_node14"><a xlink:href="layer_8hpp.html" target="_top" xlink:title=" ">
<polygon fill="none" stroke="black" points="740.5,-168.5 740.5,-187.5 808.5,-187.5 808.5,-168.5 740.5,-168.5"/>
<text text-anchor="middle" x="774.5" y="-175.5" font-family="Helvetica,sans-Serif" font-size="10.00">./layer.hpp</text>
</a>
</g>
</g>
<!-- Node1&#45;&gt;Node14 -->
<g id="edge16" class="edge">
<title>Node1&#45;&gt;Node14</title>
<path fill="none" stroke="midnightblue" d="M730.57,-289.28C760.93,-283.21 794.61,-270.47 813.5,-244 825.11,-227.73 809.22,-207.89 794.37,-194.44"/>
<polygon fill="midnightblue" stroke="midnightblue" points="796.3,-191.49 786.41,-187.69 791.77,-196.82 796.3,-191.49"/>
</g>
<!-- Node15 -->
<g id="node15" class="node">
<title>Node15</title>
<g id="a_node15"><a xlink:href="optimizer_8hpp.html" target="_top" xlink:title=" ">
<polygon fill="none" stroke="black" points="372,-112.5 372,-131.5 461,-131.5 461,-112.5 372,-112.5"/>
<text text-anchor="middle" x="416.5" y="-119.5" font-family="Helvetica,sans-Serif" font-size="10.00">./optimizer.hpp</text>
</a>
</g>
</g>
<!-- Node1&#45;&gt;Node15 -->
<g id="edge45" class="edge">
<title>Node1&#45;&gt;Node15</title>
<path fill="none" stroke="midnightblue" d="M602.2,-290.63C498.13,-283.72 302.29,-267.69 281.5,-244 240.79,-197.6 301.07,-240.72 368.5,-188 385.02,-175.08 398.62,-155.09 407.07,-140.68"/>
<polygon fill="midnightblue" stroke="midnightblue" points="410.23,-142.19 412.07,-131.76 404.13,-138.77 410.23,-142.19"/>
</g>
<!-- Node17 -->
<g id="node17" class="node">
<title>Node17</title>
<g id="a_node17"><a xlink:href="dense_8hpp.html" target="_top" xlink:title=" ">
<polygon fill="none" stroke="black" points="899,-224.5 899,-243.5 1000,-243.5 1000,-224.5 899,-224.5"/>
<text text-anchor="middle" x="949.5" y="-231.5" font-family="Helvetica,sans-Serif" font-size="10.00">./layer/dense.hpp</text>
</a>
</g>
</g>
<!-- Node1&#45;&gt;Node17 -->
<g id="edge22" class="edge">
<title>Node1&#45;&gt;Node17</title>
<path fill="none" stroke="midnightblue" d="M730.72,-281C781.61,-270.3 851.75,-255.55 898.77,-245.67"/>
<polygon fill="midnightblue" stroke="midnightblue" points="899.66,-249.06 908.72,-243.57 898.22,-242.21 899.66,-249.06"/>
</g>
<!-- Node18 -->
<g id="node18" class="node">
<title>Node18</title>
<g id="a_node18"><a xlink:href="math__m_8hpp.html" target="_top" xlink:title=" ">
<polygon fill="none" stroke="black" points="827,-168.5 827,-187.5 914,-187.5 914,-168.5 827,-168.5"/>
<text text-anchor="middle" x="870.5" y="-175.5" font-family="Helvetica,sans-Serif" font-size="10.00">../math_m.hpp</text>
</a>
</g>
</g>
<!-- Node1&#45;&gt;Node18 -->
<g id="edge37" class="edge">
<title>Node1&#45;&gt;Node18</title>
<path fill="none" stroke="midnightblue" d="M730.55,-285.47C762.77,-278.39 800.94,-265.91 829.5,-244 845.35,-231.85 856.68,-211.69 863.36,-197.04"/>
<polygon fill="midnightblue" stroke="midnightblue" points="866.71,-198.11 867.4,-187.53 860.26,-195.37 866.71,-198.11"/>
</g>
<!-- Node20 -->
<g id="node20" class="node">
<title>Node20</title>
<g id="a_node20"><a xlink:href="sigmoid_8hpp.html" target="_top" xlink:title=" ">
<polygon fill="none" stroke="black" points="694.5,-224.5 694.5,-243.5 804.5,-243.5 804.5,-224.5 694.5,-224.5"/>
<text text-anchor="middle" x="749.5" y="-231.5" font-family="Helvetica,sans-Serif" font-size="10.00">./layer/sigmoid.hpp</text>
</a>
</g>
</g>
<!-- Node1&#45;&gt;Node20 -->
<g id="edge29" class="edge">
<title>Node1&#45;&gt;Node20</title>
<path fill="none" stroke="midnightblue" d="M686.17,-280.4C699.1,-271.13 715.99,-259.03 729.07,-249.65"/>
<polygon fill="midnightblue" stroke="midnightblue" points="731.33,-252.33 737.42,-243.66 727.26,-246.64 731.33,-252.33"/>
</g>
<!-- Node21 -->
<g id="node21" class="node">
<title>Node21</title>
<g id="a_node21"><a xlink:href="loss_8hpp.html" target="_top" xlink:title=" ">
<polygon fill="none" stroke="black" points="427,-168.5 427,-187.5 490,-187.5 490,-168.5 427,-168.5"/>
<text text-anchor="middle" x="458.5" y="-175.5" font-family="Helvetica,sans-Serif" font-size="10.00">./loss.hpp</text>
</a>
</g>
</g>
<!-- Node1&#45;&gt;Node21 -->
<g id="edge31" class="edge">
<title>Node1&#45;&gt;Node21</title>
<path fill="none" stroke="midnightblue" d="M602.3,-290.45C500.08,-283.34 309.75,-267.14 289.5,-244 283.65,-237.31 284.08,-231.05 289.5,-224 297.36,-213.77 369.33,-197.28 416.78,-187.35"/>
<polygon fill="midnightblue" stroke="midnightblue" points="417.71,-190.74 426.79,-185.28 416.29,-183.88 417.71,-190.74"/>
</g>
<!-- Node22 -->
<g id="node22" class="node">
<title>Node22</title>
<g id="a_node22"><a xlink:href="cross__entropy_8hpp.html" target="_top" xlink:title=" ">
<polygon fill="none" stroke="black" points="299,-224.5 299,-243.5 432,-243.5 432,-224.5 299,-224.5"/>
<text text-anchor="middle" x="365.5" y="-231.5" font-family="Helvetica,sans-Serif" font-size="10.00">./loss/cross_entropy.hpp</text>
</a>
</g>
</g>
<!-- Node1&#45;&gt;Node22 -->
<g id="edge33" class="edge">
<title>Node1&#45;&gt;Node22</title>
<path fill="none" stroke="midnightblue" d="M602.3,-281.81C547.59,-270.99 469.9,-255.64 418.62,-245.5"/>
<polygon fill="midnightblue" stroke="midnightblue" points="419.23,-242.05 408.74,-243.55 417.87,-248.92 419.23,-242.05"/>
</g>
<!-- Node23 -->
<g id="node23" class="node">
<title>Node23</title>
<g id="a_node23"><a xlink:href="mse_8hpp.html" target="_top" xlink:title=" ">
<polygon fill="none" stroke="black" points="450,-224.5 450,-243.5 537,-243.5 537,-224.5 450,-224.5"/>
<text text-anchor="middle" x="493.5" y="-231.5" font-family="Helvetica,sans-Serif" font-size="10.00">./loss/mse.hpp</text>
</a>
</g>
</g>
<!-- Node1&#45;&gt;Node23 -->
<g id="edge35" class="edge">
<title>Node1&#45;&gt;Node23</title>
<path fill="none" stroke="midnightblue" d="M625.5,-280.4C595.87,-270.21 556.27,-256.59 528.2,-246.93"/>
<polygon fill="midnightblue" stroke="midnightblue" points="529.02,-243.51 518.42,-243.57 526.74,-250.13 529.02,-243.51"/>
</g>
<!-- Node24 -->
<g id="node24" class="node">
<title>Node24</title>
<g id="a_node24"><a xlink:href="network_8hpp.html" target="_top" xlink:title="Network class representing a sequence of layers. This class implements a network consisting of a sequ...">
<polygon fill="none" stroke="black" points="555,-224.5 555,-243.5 638,-243.5 638,-224.5 555,-224.5"/>
<text text-anchor="middle" x="596.5" y="-231.5" font-family="Helvetica,sans-Serif" font-size="10.00">./network.hpp</text>
</a>
</g>
</g>
<!-- Node1&#45;&gt;Node24 -->
<g id="edge38" class="edge">
<title>Node1&#45;&gt;Node24</title>
<path fill="none" stroke="midnightblue" d="M649.91,-280.4C639.21,-271.31 625.31,-259.49 614.37,-250.19"/>
<polygon fill="midnightblue" stroke="midnightblue" points="616.57,-247.47 606.69,-243.66 612.04,-252.8 616.57,-247.47"/>
</g>
<!-- Node26 -->
<g id="node26" class="node">
<title>Node26</title>
<g id="a_node26"><a xlink:href="nadam_8hpp.html" target="_top" xlink:title=" ">
<polygon fill="none" stroke="black" points="104,-168.5 104,-187.5 231,-187.5 231,-168.5 104,-168.5"/>
<text text-anchor="middle" x="167.5" y="-175.5" font-family="Helvetica,sans-Serif" font-size="10.00">./optimizer/nadam.hpp</text>
</a>
</g>
</g>
<!-- Node1&#45;&gt;Node26 -->
<g id="edge46" class="edge">
<title>Node1&#45;&gt;Node26</title>
<path fill="none" stroke="midnightblue" d="M602.16,-294.08C492.18,-292.28 273.67,-283.66 209.5,-244 192.04,-233.21 180.46,-212.15 173.97,-196.93"/>
<polygon fill="midnightblue" stroke="midnightblue" points="177.18,-195.54 170.27,-187.51 170.67,-198.1 177.18,-195.54"/>
</g>
<!-- Node27 -->
<g id="node27" class="node">
<title>Node27</title>
<g id="a_node27"><a xlink:href="sgd_8hpp.html" target="_top" xlink:title=" ">
<polygon fill="none" stroke="black" points="249.5,-168.5 249.5,-187.5 359.5,-187.5 359.5,-168.5 249.5,-168.5"/>
<text text-anchor="middle" x="304.5" y="-175.5" font-family="Helvetica,sans-Serif" font-size="10.00">./optimizer/sgd.hpp</text>
</a>
</g>
</g>
<!-- Node1&#45;&gt;Node27 -->
<g id="edge48" class="edge">
<title>Node1&#45;&gt;Node27</title>
<path fill="none" stroke="midnightblue" d="M602.11,-291.9C484.27,-286.49 243.6,-272.09 218.5,-244 199,-222.18 235.39,-202.77 266.68,-190.97"/>
<polygon fill="midnightblue" stroke="midnightblue" points="267.93,-194.23 276.15,-187.55 265.56,-187.65 267.93,-194.23"/>
</g>
<!-- Node9&#45;&gt;Node3 -->
<g id="edge11" class="edge">
<title>Node9&#45;&gt;Node3</title>
<path fill="none" stroke="midnightblue" d="M618.63,-58.11C541.59,-47.01 392.02,-25.48 325.19,-15.85"/>
<polygon fill="midnightblue" stroke="midnightblue" points="325.59,-12.37 315.19,-14.41 324.59,-19.3 325.59,-12.37"/>
</g>
<!-- Node9&#45;&gt;Node5 -->
<g id="edge13" class="edge">
<title>Node9&#45;&gt;Node5</title>
<path fill="none" stroke="midnightblue" d="M714.07,-57.38C780.75,-46.69 900.85,-27.45 963.3,-17.44"/>
<polygon fill="midnightblue" stroke="midnightblue" points="963.86,-20.9 973.18,-15.86 962.75,-13.98 963.86,-20.9"/>
</g>
<!-- Node9&#45;&gt;Node7 -->
<g id="edge15" class="edge">
<title>Node9&#45;&gt;Node7</title>
<path fill="none" stroke="midnightblue" d="M699.11,-56.45C731.41,-47.96 782.53,-34.47 836.05,-20.11"/>
<polygon fill="midnightblue" stroke="midnightblue" points="836.96,-23.49 845.71,-17.51 835.15,-16.72 836.96,-23.49"/>
</g>
<!-- Node10 -->
<g id="node10" class="node">
<title>Node10</title>
<g id="a_node10"><a xlink:title=" ">
<polygon fill="none" stroke="#bfbfbf" points="549.5,-0.5 549.5,-19.5 605.5,-19.5 605.5,-0.5 549.5,-0.5"/>
<text text-anchor="middle" x="577.5" y="-7.5" font-family="Helvetica,sans-Serif" font-size="10.00">unistd.h</text>
</a>
</g>
</g>
<!-- Node9&#45;&gt;Node10 -->
<g id="edge9" class="edge">
<title>Node9&#45;&gt;Node10</title>
<path fill="none" stroke="midnightblue" d="M652.2,-56.32C638.32,-47.9 617.01,-34.97 600.7,-25.07"/>
<polygon fill="midnightblue" stroke="midnightblue" points="602.13,-21.85 591.76,-19.65 598.5,-27.83 602.13,-21.85"/>
</g>
<!-- Node11 -->
<g id="node11" class="node">
<title>Node11</title>
<g id="a_node11"><a xlink:title=" ">
<polygon fill="none" stroke="#bfbfbf" points="624,-0.5 624,-19.5 701,-19.5 701,-0.5 624,-0.5"/>
<text text-anchor="middle" x="662.5" y="-7.5" font-family="Helvetica,sans-Serif" font-size="10.00">Eigen/Dense</text>
</a>
</g>
</g>
<!-- Node9&#45;&gt;Node11 -->
<g id="edge10" class="edge">
<title>Node9&#45;&gt;Node11</title>
<path fill="none" stroke="midnightblue" d="M665.84,-56.08C665.32,-49.01 664.56,-38.86 663.91,-29.99"/>
<polygon fill="midnightblue" stroke="midnightblue" points="667.38,-29.47 663.15,-19.75 660.4,-29.98 667.38,-29.47"/>
</g>
<!-- Node12 -->
<g id="node12" class="node">
<title>Node12</title>
<g id="a_node12"><a xlink:title=" ">
<polygon fill="none" stroke="#bfbfbf" points="719.5,-0.5 719.5,-19.5 765.5,-19.5 765.5,-0.5 719.5,-0.5"/>
<text text-anchor="middle" x="742.5" y="-7.5" font-family="Helvetica,sans-Serif" font-size="10.00">cstdio</text>
</a>
</g>
</g>
<!-- Node9&#45;&gt;Node12 -->
<g id="edge12" class="edge">
<title>Node9&#45;&gt;Node12</title>
<path fill="none" stroke="midnightblue" d="M678.71,-56.32C690.28,-48.11 707.88,-35.6 721.66,-25.81"/>
<polygon fill="midnightblue" stroke="midnightblue" points="723.94,-28.48 730.07,-19.83 719.89,-22.77 723.94,-28.48"/>
</g>
<!-- Node13 -->
<g id="node13" class="node">
<title>Node13</title>
<g id="a_node13"><a xlink:title=" ">
<polygon fill="none" stroke="#bfbfbf" points="783.5,-0.5 783.5,-19.5 827.5,-19.5 827.5,-0.5 783.5,-0.5"/>
<text text-anchor="middle" x="805.5" y="-7.5" font-family="Helvetica,sans-Serif" font-size="10.00">string</text>
</a>
</g>
</g>
<!-- Node9&#45;&gt;Node13 -->
<g id="edge14" class="edge">
<title>Node9&#45;&gt;Node13</title>
<path fill="none" stroke="midnightblue" d="M688.52,-56.44C711.6,-47.48 748.06,-33.31 774.14,-23.18"/>
<polygon fill="midnightblue" stroke="midnightblue" points="775.52,-26.4 783.58,-19.52 772.99,-19.88 775.52,-26.4"/>
</g>
<!-- Node14&#45;&gt;Node7 -->
<g id="edge17" class="edge">
<title>Node14&#45;&gt;Node7</title>
<path fill="none" stroke="midnightblue" d="M779.61,-168.08C794.69,-141.72 839.24,-63.88 859.39,-28.66"/>
<polygon fill="midnightblue" stroke="midnightblue" points="862.67,-29.99 864.6,-19.57 856.59,-26.51 862.67,-29.99"/>
</g>
<!-- Node14&#45;&gt;Node9 -->
<g id="edge18" class="edge">
<title>Node14&#45;&gt;Node9</title>
<path fill="none" stroke="midnightblue" d="M765.59,-168.46C756.26,-159.48 741.22,-144.88 728.5,-132 712.17,-115.46 693.83,-96.14 681.37,-82.89"/>
<polygon fill="midnightblue" stroke="midnightblue" points="683.83,-80.4 674.43,-75.5 678.72,-85.19 683.83,-80.4"/>
</g>
<!-- Node14&#45;&gt;Node15 -->
<g id="edge19" class="edge">
<title>Node14&#45;&gt;Node15</title>
<path fill="none" stroke="midnightblue" d="M740.5,-171.87C678.4,-162.5 546.17,-142.56 471.25,-131.26"/>
<polygon fill="midnightblue" stroke="midnightblue" points="471.48,-127.75 461.07,-129.72 470.44,-134.68 471.48,-127.75"/>
</g>
<!-- Node15&#45;&gt;Node9 -->
<g id="edge21" class="edge">
<title>Node15&#45;&gt;Node9</title>
<path fill="none" stroke="midnightblue" d="M456.11,-112.44C499.73,-103.02 569.9,-87.87 617.08,-77.68"/>
<polygon fill="midnightblue" stroke="midnightblue" points="618.04,-81.05 627.07,-75.52 616.56,-74.21 618.04,-81.05"/>
</g>
<!-- Node16 -->
<g id="node16" class="node">
<title>Node16</title>
<g id="a_node16"><a xlink:title=" ">
<polygon fill="none" stroke="#bfbfbf" points="370,-56.5 370,-75.5 463,-75.5 463,-56.5 370,-56.5"/>
<text text-anchor="middle" x="416.5" y="-63.5" font-family="Helvetica,sans-Serif" font-size="10.00">unordered_map</text>
</a>
</g>
</g>
<!-- Node15&#45;&gt;Node16 -->
<g id="edge20" class="edge">
<title>Node15&#45;&gt;Node16</title>
<path fill="none" stroke="midnightblue" d="M416.5,-112.08C416.5,-105.01 416.5,-94.86 416.5,-85.99"/>
<polygon fill="midnightblue" stroke="midnightblue" points="420,-85.75 416.5,-75.75 413,-85.75 420,-85.75"/>
</g>
<!-- Node17&#45;&gt;Node7 -->
<g id="edge24" class="edge">
<title>Node17&#45;&gt;Node7</title>
<path fill="none" stroke="midnightblue" d="M952.28,-224.44C958.38,-204.15 971.3,-151.85 956.5,-112 943.06,-75.8 910.18,-43.88 888.91,-26.04"/>
<polygon fill="midnightblue" stroke="midnightblue" points="891.09,-23.31 881.13,-19.71 886.67,-28.74 891.09,-23.31"/>
</g>
<!-- Node17&#45;&gt;Node13 -->
<g id="edge23" class="edge">
<title>Node17&#45;&gt;Node13</title>
<path fill="none" stroke="midnightblue" d="M949.49,-224.41C949.09,-203.6 945.82,-149.47 923.5,-112 900.41,-73.25 857.12,-42.02 829.88,-25.02"/>
<polygon fill="midnightblue" stroke="midnightblue" points="831.34,-21.81 820.97,-19.62 827.7,-27.8 831.34,-21.81"/>
</g>
<!-- Node17&#45;&gt;Node14 -->
<g id="edge25" class="edge">
<title>Node17&#45;&gt;Node14</title>
<path fill="none" stroke="midnightblue" d="M921.77,-224.44C892.07,-215.28 844.78,-200.69 811.83,-190.52"/>
<polygon fill="midnightblue" stroke="midnightblue" points="812.69,-187.12 802.1,-187.52 810.62,-193.81 812.69,-187.12"/>
</g>
<!-- Node17&#45;&gt;Node18 -->
<g id="edge26" class="edge">
<title>Node17&#45;&gt;Node18</title>
<path fill="none" stroke="midnightblue" d="M936.81,-224.32C924.6,-215.98 905.92,-203.21 891.5,-193.35"/>
<polygon fill="midnightblue" stroke="midnightblue" points="893.39,-190.41 883.16,-187.65 889.44,-196.19 893.39,-190.41"/>
</g>
<!-- Node18&#45;&gt;Node9 -->
<g id="edge28" class="edge">
<title>Node18&#45;&gt;Node9</title>
<path fill="none" stroke="midnightblue" d="M854.49,-168.37C819.04,-149.25 733.69,-103.23 691.28,-80.36"/>
<polygon fill="midnightblue" stroke="midnightblue" points="692.9,-77.26 682.43,-75.59 689.57,-83.42 692.9,-77.26"/>
</g>
<!-- Node19 -->
<g id="node19" class="node">
<title>Node19</title>
<g id="a_node19"><a xlink:title=" ">
<polygon fill="none" stroke="#bfbfbf" points="863,-112.5 863,-131.5 914,-131.5 914,-112.5 863,-112.5"/>
<text text-anchor="middle" x="888.5" y="-119.5" font-family="Helvetica,sans-Serif" font-size="10.00">cblas.h</text>
</a>
</g>
</g>
<!-- Node18&#45;&gt;Node19 -->
<g id="edge27" class="edge">
<title>Node18&#45;&gt;Node19</title>
<path fill="none" stroke="midnightblue" d="M873.47,-168.08C875.88,-160.85 879.36,-150.41 882.37,-141.4"/>
<polygon fill="midnightblue" stroke="midnightblue" points="885.74,-142.34 885.58,-131.75 879.1,-140.13 885.74,-142.34"/>
</g>
<!-- Node20&#45;&gt;Node14 -->
<g id="edge30" class="edge">
<title>Node20&#45;&gt;Node14</title>
<path fill="none" stroke="midnightblue" d="M753.63,-224.08C757.01,-216.77 761.92,-206.18 766.12,-197.1"/>
<polygon fill="midnightblue" stroke="midnightblue" points="769.42,-198.3 770.45,-187.75 763.07,-195.36 769.42,-198.3"/>
</g>
<!-- Node21&#45;&gt;Node9 -->
<g id="edge32" class="edge">
<title>Node21&#45;&gt;Node9</title>
<path fill="none" stroke="midnightblue" d="M467.64,-168.35C482.39,-154.78 512.78,-128.37 542.5,-112 568.6,-97.63 600.19,-86.25 624.95,-78.52"/>
<polygon fill="midnightblue" stroke="midnightblue" points="626.22,-81.8 634.77,-75.54 624.18,-75.1 626.22,-81.8"/>
</g>
<!-- Node22&#45;&gt;Node21 -->
<g id="edge34" class="edge">
<title>Node22&#45;&gt;Node21</title>
<path fill="none" stroke="midnightblue" d="M380.44,-224.32C395.09,-215.82 417.63,-202.73 434.74,-192.8"/>
<polygon fill="midnightblue" stroke="midnightblue" points="436.7,-195.7 443.6,-187.65 433.19,-189.65 436.7,-195.7"/>
</g>
<!-- Node23&#45;&gt;Node21 -->
<g id="edge36" class="edge">
<title>Node23&#45;&gt;Node21</title>
<path fill="none" stroke="midnightblue" d="M487.72,-224.08C482.83,-216.53 475.67,-205.49 469.67,-196.23"/>
<polygon fill="midnightblue" stroke="midnightblue" points="472.55,-194.24 464.17,-187.75 466.67,-198.05 472.55,-194.24"/>
</g>
<!-- Node24&#45;&gt;Node7 -->
<g id="edge40" class="edge">
<title>Node24&#45;&gt;Node7</title>
<path fill="none" stroke="midnightblue" d="M607.2,-224.3C648.57,-190.66 798.33,-68.88 851.01,-26.03"/>
<polygon fill="midnightblue" stroke="midnightblue" points="853.32,-28.67 858.87,-19.64 848.91,-23.24 853.32,-28.67"/>
</g>
<!-- Node24&#45;&gt;Node9 -->
<g id="edge41" class="edge">
<title>Node24&#45;&gt;Node9</title>
<path fill="none" stroke="midnightblue" d="M590.26,-224.47C581.9,-211.93 568.94,-187.86 576.5,-168 590.45,-131.38 624.45,-99.59 646.43,-81.89"/>
<polygon fill="midnightblue" stroke="midnightblue" points="648.75,-84.52 654.48,-75.61 644.44,-79 648.75,-84.52"/>
</g>
<!-- Node24&#45;&gt;Node14 -->
<g id="edge42" class="edge">
<title>Node24&#45;&gt;Node14</title>
<path fill="none" stroke="midnightblue" d="M624.7,-224.44C654.91,-215.28 703.01,-200.69 736.53,-190.52"/>
<polygon fill="midnightblue" stroke="midnightblue" points="737.87,-193.77 746.43,-187.52 735.84,-187.07 737.87,-193.77"/>
</g>
<!-- Node24&#45;&gt;Node15 -->
<g id="edge44" class="edge">
<title>Node24&#45;&gt;Node15</title>
<path fill="none" stroke="midnightblue" d="M584.49,-224.42C566.39,-211.61 530.9,-186.98 499.5,-168 480.74,-156.66 458.92,-144.89 442.37,-136.23"/>
<polygon fill="midnightblue" stroke="midnightblue" points="443.78,-133.02 433.29,-131.52 440.56,-139.23 443.78,-133.02"/>
</g>
<!-- Node24&#45;&gt;Node21 -->
<g id="edge43" class="edge">
<title>Node24&#45;&gt;Node21</title>
<path fill="none" stroke="midnightblue" d="M574.63,-224.44C551.72,-215.48 515.52,-201.31 489.63,-191.18"/>
<polygon fill="midnightblue" stroke="midnightblue" points="490.85,-187.9 480.26,-187.52 488.3,-194.42 490.85,-187.9"/>
</g>
<!-- Node25 -->
<g id="node25" class="node">
<title>Node25</title>
<g id="a_node25"><a xlink:title=" ">
<polygon fill="none" stroke="#bfbfbf" points="585,-168.5 585,-187.5 638,-187.5 638,-168.5 585,-168.5"/>
<text text-anchor="middle" x="611.5" y="-175.5" font-family="Helvetica,sans-Serif" font-size="10.00">stdlib.h</text>
</a>
</g>
</g>
<!-- Node24&#45;&gt;Node25 -->
<g id="edge39" class="edge">
<title>Node24&#45;&gt;Node25</title>
<path fill="none" stroke="midnightblue" d="M598.98,-224.08C600.99,-216.85 603.89,-206.41 606.39,-197.4"/>
<polygon fill="midnightblue" stroke="midnightblue" points="609.76,-198.32 609.07,-187.75 603.02,-196.45 609.76,-198.32"/>
</g>
<!-- Node26&#45;&gt;Node15 -->
<g id="edge47" class="edge">
<title>Node26&#45;&gt;Node15</title>
<path fill="none" stroke="midnightblue" d="M206.95,-168.44C250.39,-159.02 320.29,-143.87 367.28,-133.68"/>
<polygon fill="midnightblue" stroke="midnightblue" points="368.2,-137.06 377.23,-131.52 366.72,-130.22 368.2,-137.06"/>
</g>
<!-- Node27&#45;&gt;Node15 -->
<g id="edge49" class="edge">
<title>Node27&#45;&gt;Node15</title>
<path fill="none" stroke="midnightblue" d="M322.49,-168.32C340.54,-159.62 368.55,-146.12 389.3,-136.11"/>
<polygon fill="midnightblue" stroke="midnightblue" points="391.06,-139.15 398.55,-131.65 388.02,-132.84 391.06,-139.15"/>
</g>
</g>
</svg>
