<?xml version="1.0" encoding="UTF-8" standalone="no"?>
<!DOCTYPE svg PUBLIC "-//W3C//DTD SVG 1.1//EN"
 "http://www.w3.org/Graphics/SVG/1.1/DTD/svg11.dtd">
<!-- Generated by graphviz version 2.43.0 (0)
 -->
<!-- Title: csv::CSVStat::calc_chunk Pages: 1 -->
<svg width="729pt" height="285pt"
 viewBox="0.00 0.00 729.00 284.50" xmlns="http://www.w3.org/2000/svg" xmlns:xlink="http://www.w3.org/1999/xlink">
<g id="graph0" class="graph" transform="scale(1 1) rotate(0) translate(4 280.5)">
<title>csv::CSVStat::calc_chunk</title>
<!-- Node1 -->
<g id="node1" class="node">
<title>Node1</title>
<g id="a_node1"><a xlink:title=" ">
<polygon fill="#bfbfbf" stroke="black" points="0,-101 0,-131 103,-131 103,-101 0,-101"/>
<text text-anchor="start" x="8" y="-119" font-family="Helvetica,sans-Serif" font-size="10.00">csv::CSVStat::calc</text>
<text text-anchor="middle" x="51.5" y="-108" font-family="Helvetica,sans-Serif" font-size="10.00">_chunk</text>
</a>
</g>
</g>
<!-- Node2 -->
<g id="node2" class="node">
<title>Node2</title>
<g id="a_node2"><a xlink:href="classcsv_1_1CSVStat.html#ab76cae232af667b05a3032e26f1c8df2" target="_top" xlink:title=" ">
<polygon fill="none" stroke="black" points="147,-126 147,-156 250,-156 250,-126 147,-126"/>
<text text-anchor="start" x="155" y="-144" font-family="Helvetica,sans-Serif" font-size="10.00">csv::CSVStat::calc</text>
<text text-anchor="middle" x="198.5" y="-133" font-family="Helvetica,sans-Serif" font-size="10.00">_worker</text>
</a>
</g>
</g>
<!-- Node1&#45;&gt;Node2 -->
<g id="edge1" class="edge">
<title>Node1&#45;&gt;Node2</title>
<path fill="none" stroke="midnightblue" d="M103.21,-124.74C113.97,-126.6 125.43,-128.57 136.52,-130.49"/>
<polygon fill="midnightblue" stroke="midnightblue" points="136.12,-133.97 146.57,-132.22 137.31,-127.07 136.12,-133.97"/>
</g>
<!-- Node13 -->
<g id="node13" class="node">
<title>Node13</title>
<g id="a_node13"><a xlink:href="classcsv_1_1CSVStat.html#a563a6d0a14fd21daffe7ec2b562a49aa" target="_top" xlink:title=" ">
<polygon fill="none" stroke="black" points="139,-77 139,-107 258,-107 258,-77 139,-77"/>
<text text-anchor="start" x="147" y="-95" font-family="Helvetica,sans-Serif" font-size="10.00">csv::CSVStat::get_col</text>
<text text-anchor="middle" x="198.5" y="-84" font-family="Helvetica,sans-Serif" font-size="10.00">_names</text>
</a>
</g>
</g>
<!-- Node1&#45;&gt;Node13 -->
<g id="edge12" class="edge">
<title>Node1&#45;&gt;Node13</title>
<path fill="none" stroke="midnightblue" d="M103.21,-107.61C111.49,-106.24 120.18,-104.8 128.81,-103.37"/>
<polygon fill="midnightblue" stroke="midnightblue" points="129.57,-106.79 138.87,-101.7 128.43,-99.88 129.57,-106.79"/>
</g>
<!-- Node3 -->
<g id="node3" class="node">
<title>Node3</title>
<g id="a_node3"><a xlink:href="classcsv_1_1CSVStat.html#a6c79ba172dcfd88767ca04837a4b9199" target="_top" xlink:title=" ">
<polygon fill="none" stroke="black" points="310.5,-251.5 310.5,-270.5 420.5,-270.5 420.5,-251.5 310.5,-251.5"/>
<text text-anchor="middle" x="365.5" y="-258.5" font-family="Helvetica,sans-Serif" font-size="10.00">csv::CSVStat::count</text>
</a>
</g>
</g>
<!-- Node2&#45;&gt;Node3 -->
<g id="edge2" class="edge">
<title>Node2&#45;&gt;Node3</title>
<path fill="none" stroke="midnightblue" d="M209.49,-156.16C224.93,-178.4 256.74,-219.62 294,-242 297.61,-244.17 301.46,-246.09 305.44,-247.8"/>
<polygon fill="midnightblue" stroke="midnightblue" points="304.31,-251.11 314.9,-251.4 306.8,-244.57 304.31,-251.11"/>
</g>
<!-- Node6 -->
<g id="node6" class="node">
<title>Node6</title>
<g id="a_node6"><a xlink:href="classcsv_1_1CSVStat.html#a816a7d2ccff1a8e7a7b19cf4aa2c391b" target="_top" xlink:title=" ">
<polygon fill="none" stroke="black" points="310,-213.5 310,-232.5 421,-232.5 421,-213.5 310,-213.5"/>
<text text-anchor="middle" x="365.5" y="-220.5" font-family="Helvetica,sans-Serif" font-size="10.00">csv::CSVStat::dtype</text>
</a>
</g>
</g>
<!-- Node2&#45;&gt;Node6 -->
<g id="edge5" class="edge">
<title>Node2&#45;&gt;Node6</title>
<path fill="none" stroke="midnightblue" d="M218.32,-156.24C236.65,-170.42 265.8,-191.22 294,-204 299.25,-206.38 304.86,-208.52 310.54,-210.42"/>
<polygon fill="midnightblue" stroke="midnightblue" points="309.51,-213.76 320.1,-213.4 311.6,-207.08 309.51,-213.76"/>
</g>
<!-- Node8 -->
<g id="node8" class="node">
<title>Node8</title>
<g id="a_node8"><a xlink:href="namespacecsv_1_1internals.html#a7a29f891eb1f9ffc81445b02e57b1e12" target="_top" xlink:title=" ">
<polygon fill="none" stroke="black" points="294,-175.5 294,-194.5 437,-194.5 437,-175.5 294,-175.5"/>
<text text-anchor="middle" x="365.5" y="-182.5" font-family="Helvetica,sans-Serif" font-size="10.00">csv::internals::format_row</text>
</a>
</g>
</g>
<!-- Node2&#45;&gt;Node8 -->
<g id="edge7" class="edge">
<title>Node2&#45;&gt;Node8</title>
<path fill="none" stroke="midnightblue" d="M250.35,-154.56C272.26,-160.4 297.68,-167.18 318.96,-172.86"/>
<polygon fill="midnightblue" stroke="midnightblue" points="318.16,-176.27 328.73,-175.46 319.97,-169.5 318.16,-176.27"/>
</g>
<!-- Node9 -->
<g id="node9" class="node">
<title>Node9</title>
<g id="a_node9"><a xlink:href="classcsv_1_1CSVReader.html#a6faa83a2169dc1ad10715f94410f47da" target="_top" xlink:title=" ">
<polygon fill="none" stroke="black" points="308.5,-126 308.5,-156 422.5,-156 422.5,-126 308.5,-126"/>
<text text-anchor="start" x="316.5" y="-144" font-family="Helvetica,sans-Serif" font-size="10.00">csv::CSVReader::get</text>
<text text-anchor="middle" x="365.5" y="-133" font-family="Helvetica,sans-Serif" font-size="10.00">_format</text>
</a>
</g>
</g>
<!-- Node2&#45;&gt;Node9 -->
<g id="edge8" class="edge">
<title>Node2&#45;&gt;Node9</title>
<path fill="none" stroke="midnightblue" d="M250.35,-141C265.42,-141 282.15,-141 298.05,-141"/>
<polygon fill="midnightblue" stroke="midnightblue" points="298.36,-144.5 308.36,-141 298.36,-137.5 298.36,-144.5"/>
</g>
<!-- Node10 -->
<g id="node10" class="node">
<title>Node10</title>
<g id="a_node10"><a xlink:href="classcsv_1_1CSVFormat.html#a60406363f83a897025f39b3437857202" target="_top" xlink:title=" ">
<polygon fill="none" stroke="black" points="297,-77 297,-107 434,-107 434,-77 297,-77"/>
<text text-anchor="start" x="305" y="-95" font-family="Helvetica,sans-Serif" font-size="10.00">csv::CSVFormat::get</text>
<text text-anchor="middle" x="365.5" y="-84" font-family="Helvetica,sans-Serif" font-size="10.00">_variable_column_policy</text>
</a>
</g>
</g>
<!-- Node2&#45;&gt;Node10 -->
<g id="edge9" class="edge">
<title>Node2&#45;&gt;Node10</title>
<path fill="none" stroke="midnightblue" d="M250.35,-125.9C267.37,-120.84 286.5,-115.16 304.17,-109.92"/>
<polygon fill="midnightblue" stroke="midnightblue" points="305.23,-113.25 313.82,-107.05 303.23,-106.54 305.23,-113.25"/>
</g>
<!-- Node11 -->
<g id="node11" class="node">
<title>Node11</title>
<g id="a_node11"><a xlink:href="classcsv_1_1CSVStat.html#a946764003492839cfec92a1ee2f7fdb0" target="_top" xlink:title=" ">
<polygon fill="none" stroke="black" points="301,-38.5 301,-57.5 430,-57.5 430,-38.5 301,-38.5"/>
<text text-anchor="middle" x="365.5" y="-45.5" font-family="Helvetica,sans-Serif" font-size="10.00">csv::CSVStat::min_max</text>
</a>
</g>
</g>
<!-- Node2&#45;&gt;Node11 -->
<g id="edge10" class="edge">
<title>Node2&#45;&gt;Node11</title>
<path fill="none" stroke="midnightblue" d="M243.77,-125.95C248.81,-123.35 253.67,-120.38 258,-117 279.29,-100.36 271.8,-83.41 294,-68 297.53,-65.55 301.35,-63.4 305.33,-61.51"/>
<polygon fill="midnightblue" stroke="midnightblue" points="306.94,-64.63 314.83,-57.56 304.25,-58.17 306.94,-64.63"/>
</g>
<!-- Node12 -->
<g id="node12" class="node">
<title>Node12</title>
<g id="a_node12"><a xlink:href="classcsv_1_1CSVStat.html#a053fe0a59f65c30dff7ce5f522c19684" target="_top" xlink:title=" ">
<polygon fill="none" stroke="black" points="303,-0.5 303,-19.5 428,-19.5 428,-0.5 303,-0.5"/>
<text text-anchor="middle" x="365.5" y="-7.5" font-family="Helvetica,sans-Serif" font-size="10.00">csv::CSVStat::variance</text>
</a>
</g>
</g>
<!-- Node2&#45;&gt;Node12 -->
<g id="edge11" class="edge">
<title>Node2&#45;&gt;Node12</title>
<path fill="none" stroke="midnightblue" d="M246.39,-125.91C250.62,-123.37 254.59,-120.42 258,-117 287.87,-87.1 262.31,-56.95 294,-29 295.78,-27.43 297.67,-25.99 299.65,-24.67"/>
<polygon fill="midnightblue" stroke="midnightblue" points="301.78,-27.49 308.84,-19.59 298.39,-21.37 301.78,-27.49"/>
</g>
<!-- Node4 -->
<g id="node4" class="node">
<title>Node4</title>
<g id="a_node4"><a xlink:href="classcsv_1_1CSVField.html#a67ff24172c5ac52417bbc36697511644" target="_top" xlink:title=" ">
<polygon fill="none" stroke="black" points="476,-251.5 476,-270.5 579,-270.5 579,-251.5 476,-251.5"/>
<text text-anchor="middle" x="527.5" y="-258.5" font-family="Helvetica,sans-Serif" font-size="10.00">csv::CSVField::get</text>
</a>
</g>
</g>
<!-- Node3&#45;&gt;Node4 -->
<g id="edge3" class="edge">
<title>Node3&#45;&gt;Node4</title>
<path fill="none" stroke="midnightblue" d="M420.67,-261C435.18,-261 450.96,-261 465.8,-261"/>
<polygon fill="midnightblue" stroke="midnightblue" points="465.9,-264.5 475.9,-261 465.9,-257.5 465.9,-264.5"/>
</g>
<!-- Node5 -->
<g id="node5" class="node">
<title>Node5</title>
<g id="a_node5"><a xlink:href="namespacecsv_1_1internals.html#aea0130dd0f026d5617e08025e6298864" target="_top" xlink:title=" ">
<polygon fill="none" stroke="black" points="618,-246 618,-276 721,-276 721,-246 618,-246"/>
<text text-anchor="start" x="626" y="-264" font-family="Helvetica,sans-Serif" font-size="10.00">csv::internals::get</text>
<text text-anchor="middle" x="669.5" y="-253" font-family="Helvetica,sans-Serif" font-size="10.00">_uint_max</text>
</a>
</g>
</g>
<!-- Node4&#45;&gt;Node5 -->
<g id="edge4" class="edge">
<title>Node4&#45;&gt;Node5</title>
<path fill="none" stroke="midnightblue" d="M579.04,-261C588.25,-261 597.94,-261 607.41,-261"/>
<polygon fill="midnightblue" stroke="midnightblue" points="607.56,-264.5 617.56,-261 607.56,-257.5 607.56,-264.5"/>
</g>
<!-- Node7 -->
<g id="node7" class="node">
<title>Node7</title>
<g id="a_node7"><a xlink:href="classcsv_1_1CSVField.html#a60a6452ff1ddea2d8be46a04fc646166" target="_top" xlink:title=" ">
<polygon fill="none" stroke="black" points="473,-213.5 473,-232.5 582,-232.5 582,-213.5 473,-213.5"/>
<text text-anchor="middle" x="527.5" y="-220.5" font-family="Helvetica,sans-Serif" font-size="10.00">csv::CSVField::type</text>
</a>
</g>
</g>
<!-- Node6&#45;&gt;Node7 -->
<g id="edge6" class="edge">
<title>Node6&#45;&gt;Node7</title>
<path fill="none" stroke="midnightblue" d="M421.12,-223C434.46,-223 448.86,-223 462.6,-223"/>
<polygon fill="midnightblue" stroke="midnightblue" points="462.94,-226.5 472.94,-223 462.94,-219.5 462.94,-226.5"/>
</g>
</g>
</svg>
