<?xml version="1.0" encoding="UTF-8" standalone="no"?>
<!DOCTYPE svg PUBLIC "-//W3C//DTD SVG 1.1//EN"
 "http://www.w3.org/Graphics/SVG/1.1/DTD/svg11.dtd">
<!-- Generated by graphviz version 2.43.0 (0)
 -->
<!-- Title: csv::CSVRow::to_json Pages: 1 -->
<svg width="598pt" height="127pt"
 viewBox="0.00 0.00 598.00 126.50" xmlns="http://www.w3.org/2000/svg" xmlns:xlink="http://www.w3.org/1999/xlink">
<g id="graph0" class="graph" transform="scale(1 1) rotate(0) translate(4 122.5)">
<title>csv::CSVRow::to_json</title>
<!-- Node1 -->
<g id="node1" class="node">
<title>Node1</title>
<g id="a_node1"><a xlink:title=" ">
<polygon fill="#bfbfbf" stroke="black" points="0,-44.5 0,-63.5 119,-63.5 119,-44.5 0,-44.5"/>
<text text-anchor="middle" x="59.5" y="-51.5" font-family="Helvetica,sans-Serif" font-size="10.00">csv::CSVRow::to_json</text>
</a>
</g>
</g>
<!-- Node2 -->
<g id="node2" class="node">
<title>Node2</title>
<g id="a_node2"><a xlink:href="classcsv_1_1CSVRow.html#ac667be98f23213d91a2f05f343553cab" target="_top" xlink:title=" ">
<polygon fill="none" stroke="black" points="162,-88 162,-118 281,-118 281,-88 162,-88"/>
<text text-anchor="start" x="170" y="-106" font-family="Helvetica,sans-Serif" font-size="10.00">csv::CSVRow::get_col</text>
<text text-anchor="middle" x="221.5" y="-95" font-family="Helvetica,sans-Serif" font-size="10.00">_names</text>
</a>
</g>
</g>
<!-- Node1&#45;&gt;Node2 -->
<g id="edge1" class="edge">
<title>Node1&#45;&gt;Node2</title>
<path fill="none" stroke="midnightblue" d="M91.73,-63.56C111.63,-69.66 138.05,-77.75 161.77,-85.01"/>
<polygon fill="midnightblue" stroke="midnightblue" points="160.81,-88.38 171.4,-87.96 162.86,-81.69 160.81,-88.38"/>
</g>
<!-- Node3 -->
<g id="node3" class="node">
<title>Node3</title>
<g id="a_node3"><a xlink:href="namespacecsv_1_1internals.html#a99264752bea785f95b9f8a69d1c71356" target="_top" xlink:title=" ">
<polygon fill="none" stroke="black" points="168,-39 168,-69 275,-69 275,-39 168,-39"/>
<text text-anchor="start" x="176" y="-57" font-family="Helvetica,sans-Serif" font-size="10.00">csv::internals::json</text>
<text text-anchor="middle" x="221.5" y="-46" font-family="Helvetica,sans-Serif" font-size="10.00">_escape_string</text>
</a>
</g>
</g>
<!-- Node1&#45;&gt;Node3 -->
<g id="edge2" class="edge">
<title>Node1&#45;&gt;Node3</title>
<path fill="none" stroke="midnightblue" d="M119.17,-54C131.77,-54 145.12,-54 157.87,-54"/>
<polygon fill="midnightblue" stroke="midnightblue" points="157.92,-57.5 167.92,-54 157.92,-50.5 157.92,-57.5"/>
</g>
<!-- Node5 -->
<g id="node5" class="node">
<title>Node5</title>
<g id="a_node5"><a xlink:href="classcsv_1_1CSVRow.html#a010ec4c338ba15463d1b86352bcd272e" target="_top" xlink:title=" ">
<polygon fill="none" stroke="black" points="155,-0.5 155,-19.5 288,-19.5 288,-0.5 155,-0.5"/>
<text text-anchor="middle" x="221.5" y="-7.5" font-family="Helvetica,sans-Serif" font-size="10.00">csv::CSVRow::operator[]</text>
</a>
</g>
</g>
<!-- Node1&#45;&gt;Node5 -->
<g id="edge4" class="edge">
<title>Node1&#45;&gt;Node5</title>
<path fill="none" stroke="midnightblue" d="M95.22,-44.45C118.91,-37.94 150.5,-29.25 176.04,-22.23"/>
<polygon fill="midnightblue" stroke="midnightblue" points="177.14,-25.56 185.85,-19.53 175.28,-18.81 177.14,-25.56"/>
</g>
<!-- Node4 -->
<g id="node4" class="node">
<title>Node4</title>
<g id="a_node4"><a xlink:href="namespacecsv_1_1internals.html#a1a9bf86e03b2064b3be269cbe1c232a3" target="_top" xlink:title="calculates the extra space to escape a JSON string">
<polygon fill="none" stroke="black" points="333.5,-39 333.5,-69 440.5,-69 440.5,-39 333.5,-39"/>
<text text-anchor="start" x="341.5" y="-57" font-family="Helvetica,sans-Serif" font-size="10.00">csv::internals::json</text>
<text text-anchor="middle" x="387" y="-46" font-family="Helvetica,sans-Serif" font-size="10.00">_extra_space</text>
</a>
</g>
</g>
<!-- Node3&#45;&gt;Node4 -->
<g id="edge3" class="edge">
<title>Node3&#45;&gt;Node4</title>
<path fill="none" stroke="midnightblue" d="M275.13,-54C290.45,-54 307.33,-54 323.21,-54"/>
<polygon fill="midnightblue" stroke="midnightblue" points="323.47,-57.5 333.47,-54 323.47,-50.5 323.47,-57.5"/>
</g>
<!-- Node6 -->
<g id="node6" class="node">
<title>Node6</title>
<g id="a_node6"><a xlink:href="classcsv_1_1CSVRow.html#ad5d0e29fef19358c61b89ca5d49c6369" target="_top" xlink:title=" ">
<polygon fill="none" stroke="black" points="324,-0.5 324,-19.5 450,-19.5 450,-0.5 324,-0.5"/>
<text text-anchor="middle" x="387" y="-7.5" font-family="Helvetica,sans-Serif" font-size="10.00">csv::CSVRow::get_field</text>
</a>
</g>
</g>
<!-- Node5&#45;&gt;Node6 -->
<g id="edge5" class="edge">
<title>Node5&#45;&gt;Node6</title>
<path fill="none" stroke="midnightblue" d="M288.06,-10C296.46,-10 305.1,-10 313.6,-10"/>
<polygon fill="midnightblue" stroke="midnightblue" points="313.88,-13.5 323.88,-10 313.88,-6.5 313.88,-13.5"/>
</g>
<!-- Node7 -->
<g id="node7" class="node">
<title>Node7</title>
<g id="a_node7"><a xlink:href="classcsv_1_1CSVRow.html#ab70c127ad2afc4cf4eb9d2c7f1cea253" target="_top" xlink:title=" ">
<polygon fill="none" stroke="black" points="486,-0.5 486,-19.5 590,-19.5 590,-0.5 486,-0.5"/>
<text text-anchor="middle" x="538" y="-7.5" font-family="Helvetica,sans-Serif" font-size="10.00">csv::CSVRow::size</text>
</a>
</g>
</g>
<!-- Node6&#45;&gt;Node7 -->
<g id="edge6" class="edge">
<title>Node6&#45;&gt;Node7</title>
<path fill="none" stroke="midnightblue" d="M450.33,-10C458.72,-10 467.32,-10 475.69,-10"/>
<polygon fill="midnightblue" stroke="midnightblue" points="475.76,-13.5 485.76,-10 475.76,-6.5 475.76,-13.5"/>
</g>
</g>
</svg>
