<?xml version="1.0" encoding="UTF-8" standalone="no"?>
<!DOCTYPE svg PUBLIC "-//W3C//DTD SVG 1.1//EN"
 "http://www.w3.org/Graphics/SVG/1.1/DTD/svg11.dtd">
<!-- Generated by graphviz version 2.43.0 (0)
 -->
<!-- Title: csv::internals::IBasicCSVParser::push_row Pages: 1 -->
<svg width="353pt" height="88pt"
 viewBox="0.00 0.00 353.00 88.00" xmlns="http://www.w3.org/2000/svg" xmlns:xlink="http://www.w3.org/1999/xlink">
<g id="graph0" class="graph" transform="scale(1 1) rotate(0) translate(4 84)">
<title>csv::internals::IBasicCSVParser::push_row</title>
<!-- Node1 -->
<g id="node1" class="node">
<title>Node1</title>
<g id="a_node1"><a xlink:title=" ">
<polygon fill="#bfbfbf" stroke="black" points="0,-24.5 0,-54.5 166,-54.5 166,-24.5 0,-24.5"/>
<text text-anchor="start" x="8" y="-42.5" font-family="Helvetica,sans-Serif" font-size="10.00">csv::internals::IBasicCSVParser</text>
<text text-anchor="middle" x="83" y="-31.5" font-family="Helvetica,sans-Serif" font-size="10.00">::push_row</text>
</a>
</g>
</g>
<!-- Node2 -->
<g id="node2" class="node">
<title>Node2</title>
<g id="a_node2"><a xlink:href="classcsv_1_1internals_1_1ThreadSafeDeque.html#a8c9d238a10a196b83e74c1758c9afb3b" target="_top" xlink:title=" ">
<polygon fill="none" stroke="black" points="202,-49.5 202,-79.5 345,-79.5 345,-49.5 202,-49.5"/>
<text text-anchor="start" x="210" y="-67.5" font-family="Helvetica,sans-Serif" font-size="10.00">csv::internals::ThreadSafe</text>
<text text-anchor="middle" x="273.5" y="-56.5" font-family="Helvetica,sans-Serif" font-size="10.00">Deque::push_back</text>
</a>
</g>
</g>
<!-- Node1&#45;&gt;Node2 -->
<g id="edge1" class="edge">
<title>Node1&#45;&gt;Node2</title>
<path fill="none" stroke="midnightblue" d="M166.13,-50.39C174.69,-51.53 183.38,-52.68 191.92,-53.81"/>
<polygon fill="midnightblue" stroke="midnightblue" points="191.48,-57.29 201.86,-55.13 192.4,-50.35 191.48,-57.29"/>
</g>
<!-- Node3 -->
<g id="node3" class="node">
<title>Node3</title>
<g id="a_node3"><a xlink:href="classcsv_1_1internals_1_1CSVFieldList.html#a34412a8fe533e5b6c970f1e6834f6659" target="_top" xlink:title=" ">
<polygon fill="none" stroke="black" points="208.5,-0.5 208.5,-30.5 338.5,-30.5 338.5,-0.5 208.5,-0.5"/>
<text text-anchor="start" x="216.5" y="-18.5" font-family="Helvetica,sans-Serif" font-size="10.00">csv::internals::CSVField</text>
<text text-anchor="middle" x="273.5" y="-7.5" font-family="Helvetica,sans-Serif" font-size="10.00">List::size</text>
</a>
</g>
</g>
<!-- Node1&#45;&gt;Node3 -->
<g id="edge2" class="edge">
<title>Node1&#45;&gt;Node3</title>
<path fill="none" stroke="midnightblue" d="M166.13,-29.04C176.88,-27.67 187.85,-26.28 198.45,-24.93"/>
<polygon fill="midnightblue" stroke="midnightblue" points="199.02,-28.38 208.5,-23.65 198.13,-21.44 199.02,-28.38"/>
</g>
</g>
</svg>
