<?xml version="1.0" encoding="UTF-8" standalone="no"?>
<!DOCTYPE svg PUBLIC "-//W3C//DTD SVG 1.1//EN"
 "http://www.w3.org/Graphics/SVG/1.1/DTD/svg11.dtd">
<!-- Generated by graphviz version 2.43.0 (0)
 -->
<!-- Title: nmbuflowtorch::Network::fit Pages: 1 -->
<svg width="878pt" height="274pt"
 viewBox="0.00 0.00 878.00 274.00" xmlns="http://www.w3.org/2000/svg" xmlns:xlink="http://www.w3.org/1999/xlink">
<g id="graph0" class="graph" transform="scale(1 1) rotate(0) translate(4 270)">
<title>nmbuflowtorch::Network::fit</title>
<!-- Node1 -->
<g id="node1" class="node">
<title>Node1</title>
<g id="a_node1"><a xlink:title="Fit model to data provided.">
<polygon fill="#bfbfbf" stroke="black" points="0,-148 0,-167 154,-167 154,-148 0,-148"/>
<text text-anchor="middle" x="77" y="-155" font-family="Helvetica,sans-Serif" font-size="10.00">nmbuflowtorch::Network::fit</text>
</a>
</g>
</g>
<!-- Node2 -->
<g id="node2" class="node">
<title>Node2</title>
<g id="a_node2"><a xlink:href="math__m_8hpp.html#a00222de08fb54dc0423e29cc610d1f0c" target="_top" xlink:title="Creates a permutation matrix from a given vector of indices and shuffles both X and y accordingly.">
<polygon fill="none" stroke="black" points="220,-170 220,-189 297,-189 297,-170 220,-170"/>
<text text-anchor="middle" x="258.5" y="-177" font-family="Helvetica,sans-Serif" font-size="10.00">shuffle_data</text>
</a>
</g>
</g>
<!-- Node1&#45;&gt;Node2 -->
<g id="edge1" class="edge">
<title>Node1&#45;&gt;Node2</title>
<path fill="none" stroke="midnightblue" d="M154.12,-166.83C172.96,-169.14 192.61,-171.55 209.66,-173.64"/>
<polygon fill="midnightblue" stroke="midnightblue" points="209.56,-177.15 219.91,-174.89 210.41,-170.2 209.56,-177.15"/>
</g>
<!-- Node3 -->
<g id="node3" class="node">
<title>Node3</title>
<g id="a_node3"><a xlink:href="classnmbuflowtorch_1_1Network.html#ab4decd5644c172b3ade967496bf64f7b" target="_top" xlink:title="Forward pass of the network using input X.">
<polygon fill="none" stroke="black" points="190,-120.5 190,-150.5 327,-150.5 327,-120.5 190,-120.5"/>
<text text-anchor="start" x="198" y="-138.5" font-family="Helvetica,sans-Serif" font-size="10.00">nmbuflowtorch::Network</text>
<text text-anchor="middle" x="258.5" y="-127.5" font-family="Helvetica,sans-Serif" font-size="10.00">::train_one_epoch</text>
</a>
</g>
</g>
<!-- Node1&#45;&gt;Node3 -->
<g id="edge2" class="edge">
<title>Node1&#45;&gt;Node3</title>
<path fill="none" stroke="midnightblue" d="M154.12,-148.17C162.64,-147.13 171.32,-146.06 179.86,-145.02"/>
<polygon fill="midnightblue" stroke="midnightblue" points="180.29,-148.49 189.79,-143.8 179.44,-141.54 180.29,-148.49"/>
</g>
<!-- Node4 -->
<g id="node4" class="node">
<title>Node4</title>
<g id="a_node4"><a xlink:href="namespacenmbuflowtorch.html#a6841de6f2ac014f91c37f7f2c0e9cc1e" target="_top" xlink:title=" ">
<polygon fill="none" stroke="black" points="363,-148 363,-167 524,-167 524,-148 363,-148"/>
<text text-anchor="middle" x="443.5" y="-155" font-family="Helvetica,sans-Serif" font-size="10.00">nmbuflowtorch::printProgress</text>
</a>
</g>
</g>
<!-- Node3&#45;&gt;Node4 -->
<g id="edge3" class="edge">
<title>Node3&#45;&gt;Node4</title>
<path fill="none" stroke="midnightblue" d="M327.12,-143.63C335.7,-144.66 344.59,-145.73 353.44,-146.79"/>
<polygon fill="midnightblue" stroke="midnightblue" points="353.06,-150.27 363.4,-147.99 353.89,-143.32 353.06,-150.27"/>
</g>
<!-- Node5 -->
<g id="node5" class="node">
<title>Node5</title>
<g id="a_node5"><a xlink:href="classnmbuflowtorch_1_1Network.html#ac5f07dc09b1d352567d6cbcc3c38c010" target="_top" xlink:title=" ">
<polygon fill="none" stroke="black" points="375,-98.5 375,-128.5 512,-128.5 512,-98.5 375,-98.5"/>
<text text-anchor="start" x="383" y="-116.5" font-family="Helvetica,sans-Serif" font-size="10.00">nmbuflowtorch::Network</text>
<text text-anchor="middle" x="443.5" y="-105.5" font-family="Helvetica,sans-Serif" font-size="10.00">::train_batch</text>
</a>
</g>
</g>
<!-- Node3&#45;&gt;Node5 -->
<g id="edge4" class="edge">
<title>Node3&#45;&gt;Node5</title>
<path fill="none" stroke="midnightblue" d="M327.12,-127.37C339.41,-125.89 352.32,-124.34 364.88,-122.83"/>
<polygon fill="midnightblue" stroke="midnightblue" points="365.34,-126.3 374.85,-121.63 364.5,-119.35 365.34,-126.3"/>
</g>
<!-- Node6 -->
<g id="node6" class="node">
<title>Node6</title>
<g id="a_node6"><a xlink:href="classnmbuflowtorch_1_1Network.html#ad2626aa7216689fadfa4469273de8c90" target="_top" xlink:title="Using X input and y target, back propagates the loss gradient.">
<polygon fill="none" stroke="black" points="560,-186.5 560,-216.5 697,-216.5 697,-186.5 560,-186.5"/>
<text text-anchor="start" x="568" y="-204.5" font-family="Helvetica,sans-Serif" font-size="10.00">nmbuflowtorch::Network</text>
<text text-anchor="middle" x="628.5" y="-193.5" font-family="Helvetica,sans-Serif" font-size="10.00">::backward</text>
</a>
</g>
</g>
<!-- Node5&#45;&gt;Node6 -->
<g id="edge5" class="edge">
<title>Node5&#45;&gt;Node6</title>
<path fill="none" stroke="midnightblue" d="M503.08,-128.66C510.33,-131.48 517.48,-134.74 524,-138.5 542.8,-149.35 541.85,-159.6 560,-171.5 565.77,-175.28 572.09,-178.79 578.47,-181.99"/>
<polygon fill="midnightblue" stroke="midnightblue" points="577.29,-185.3 587.82,-186.43 580.29,-178.98 577.29,-185.3"/>
</g>
<!-- Node9 -->
<g id="node9" class="node">
<title>Node9</title>
<g id="a_node9"><a xlink:href="classnmbuflowtorch_1_1Network.html#a47b0ad164e645c60f736f60f87827900" target="_top" xlink:title="Returns the value from the last layer.">
<polygon fill="none" stroke="black" points="733,-137.5 733,-167.5 870,-167.5 870,-137.5 733,-137.5"/>
<text text-anchor="start" x="741" y="-155.5" font-family="Helvetica,sans-Serif" font-size="10.00">nmbuflowtorch::Network</text>
<text text-anchor="middle" x="801.5" y="-144.5" font-family="Helvetica,sans-Serif" font-size="10.00">::output</text>
</a>
</g>
</g>
<!-- Node5&#45;&gt;Node9 -->
<g id="edge12" class="edge">
<title>Node5&#45;&gt;Node9</title>
<path fill="none" stroke="midnightblue" d="M508.67,-128.53C525.31,-131.96 543.25,-135.25 560,-137.5 614.08,-144.77 675.48,-148.52 722.71,-150.46"/>
<polygon fill="midnightblue" stroke="midnightblue" points="722.74,-153.96 732.87,-150.86 723.01,-146.97 722.74,-153.96"/>
</g>
<!-- Node10 -->
<g id="node10" class="node">
<title>Node10</title>
<g id="a_node10"><a xlink:href="classnmbuflowtorch_1_1Network.html#ae6cd135a052cc1526b34bb4144ae58b6" target="_top" xlink:title=" ">
<polygon fill="none" stroke="black" points="560,-98.5 560,-128.5 697,-128.5 697,-98.5 560,-98.5"/>
<text text-anchor="start" x="568" y="-116.5" font-family="Helvetica,sans-Serif" font-size="10.00">nmbuflowtorch::Network</text>
<text text-anchor="middle" x="628.5" y="-105.5" font-family="Helvetica,sans-Serif" font-size="10.00">::forward</text>
</a>
</g>
</g>
<!-- Node5&#45;&gt;Node10 -->
<g id="edge9" class="edge">
<title>Node5&#45;&gt;Node10</title>
<path fill="none" stroke="midnightblue" d="M512.12,-113.5C524.29,-113.5 537.07,-113.5 549.5,-113.5"/>
<polygon fill="midnightblue" stroke="midnightblue" points="549.85,-117 559.85,-113.5 549.85,-110 549.85,-117"/>
</g>
<!-- Node11 -->
<g id="node11" class="node">
<title>Node11</title>
<g id="a_node11"><a xlink:href="classnmbuflowtorch_1_1Loss.html#a5747f962c29f0e1a6147c435da22c466" target="_top" xlink:title=" ">
<polygon fill="none" stroke="black" points="569.5,-49.5 569.5,-79.5 687.5,-79.5 687.5,-49.5 569.5,-49.5"/>
<text text-anchor="start" x="577.5" y="-67.5" font-family="Helvetica,sans-Serif" font-size="10.00">nmbuflowtorch::Loss</text>
<text text-anchor="middle" x="628.5" y="-56.5" font-family="Helvetica,sans-Serif" font-size="10.00">::output</text>
</a>
</g>
</g>
<!-- Node5&#45;&gt;Node11 -->
<g id="edge11" class="edge">
<title>Node5&#45;&gt;Node11</title>
<path fill="none" stroke="midnightblue" d="M500.9,-98.4C520.04,-93.27 541.59,-87.5 561.41,-82.2"/>
<polygon fill="midnightblue" stroke="midnightblue" points="562.53,-85.52 571.29,-79.55 560.72,-78.76 562.53,-85.52"/>
</g>
<!-- Node12 -->
<g id="node12" class="node">
<title>Node12</title>
<g id="a_node12"><a xlink:href="classnmbuflowtorch_1_1Network.html#ab4dcbf1de529e005b2eb4c31b8cbd552" target="_top" xlink:title=" ">
<polygon fill="none" stroke="black" points="560,-0.5 560,-30.5 697,-30.5 697,-0.5 560,-0.5"/>
<text text-anchor="start" x="568" y="-18.5" font-family="Helvetica,sans-Serif" font-size="10.00">nmbuflowtorch::Network</text>
<text text-anchor="middle" x="628.5" y="-7.5" font-family="Helvetica,sans-Serif" font-size="10.00">::update</text>
</a>
</g>
</g>
<!-- Node5&#45;&gt;Node12 -->
<g id="edge13" class="edge">
<title>Node5&#45;&gt;Node12</title>
<path fill="none" stroke="midnightblue" d="M464.94,-98.36C487.39,-82.22 524.93,-56.69 560,-39.5 563.71,-37.68 567.59,-35.93 571.53,-34.27"/>
<polygon fill="midnightblue" stroke="midnightblue" points="572.84,-37.51 580.81,-30.53 570.23,-31.02 572.84,-37.51"/>
</g>
<!-- Node7 -->
<g id="node7" class="node">
<title>Node7</title>
<g id="a_node7"><a xlink:href="classnmbuflowtorch_1_1Loss.html#a29688f70477ce9f630cb313cc7e4c365" target="_top" xlink:title=" ">
<polygon fill="none" stroke="black" points="742.5,-235.5 742.5,-265.5 860.5,-265.5 860.5,-235.5 742.5,-235.5"/>
<text text-anchor="start" x="750.5" y="-253.5" font-family="Helvetica,sans-Serif" font-size="10.00">nmbuflowtorch::Loss</text>
<text text-anchor="middle" x="801.5" y="-242.5" font-family="Helvetica,sans-Serif" font-size="10.00">::back_gradient</text>
</a>
</g>
</g>
<!-- Node6&#45;&gt;Node7 -->
<g id="edge6" class="edge">
<title>Node6&#45;&gt;Node7</title>
<path fill="none" stroke="midnightblue" d="M682.2,-216.6C699.92,-221.68 719.85,-227.39 738.23,-232.66"/>
<polygon fill="midnightblue" stroke="midnightblue" points="737.4,-236.06 747.97,-235.45 739.32,-229.33 737.4,-236.06"/>
</g>
<!-- Node8 -->
<g id="node8" class="node">
<title>Node8</title>
<g id="a_node8"><a xlink:href="classnmbuflowtorch_1_1Loss.html#ab739a047ffc84f44af71832ec704cedc" target="_top" xlink:title=" ">
<polygon fill="none" stroke="black" points="742.5,-186.5 742.5,-216.5 860.5,-216.5 860.5,-186.5 742.5,-186.5"/>
<text text-anchor="start" x="750.5" y="-204.5" font-family="Helvetica,sans-Serif" font-size="10.00">nmbuflowtorch::Loss</text>
<text text-anchor="middle" x="801.5" y="-193.5" font-family="Helvetica,sans-Serif" font-size="10.00">::eval</text>
</a>
</g>
</g>
<!-- Node6&#45;&gt;Node8 -->
<g id="edge7" class="edge">
<title>Node6&#45;&gt;Node8</title>
<path fill="none" stroke="midnightblue" d="M697.08,-201.5C708.64,-201.5 720.65,-201.5 732.22,-201.5"/>
<polygon fill="midnightblue" stroke="midnightblue" points="732.25,-205 742.25,-201.5 732.25,-198 732.25,-205"/>
</g>
<!-- Node6&#45;&gt;Node9 -->
<g id="edge8" class="edge">
<title>Node6&#45;&gt;Node9</title>
<path fill="none" stroke="midnightblue" d="M682.2,-186.4C699.92,-181.32 719.85,-175.61 738.23,-170.34"/>
<polygon fill="midnightblue" stroke="midnightblue" points="739.32,-173.67 747.97,-167.55 737.4,-166.94 739.32,-173.67"/>
</g>
<!-- Node10&#45;&gt;Node9 -->
<g id="edge10" class="edge">
<title>Node10&#45;&gt;Node9</title>
<path fill="none" stroke="midnightblue" d="M695.61,-128.58C705.1,-130.74 714.92,-132.98 724.58,-135.18"/>
<polygon fill="midnightblue" stroke="midnightblue" points="724.03,-138.65 734.56,-137.46 725.59,-131.83 724.03,-138.65"/>
</g>
</g>
</svg>
