<?xml version="1.0" encoding="UTF-8" standalone="no"?>
<!DOCTYPE svg PUBLIC "-//W3C//DTD SVG 1.1//EN"
 "http://www.w3.org/Graphics/SVG/1.1/DTD/svg11.dtd">
<!-- Generated by graphviz version 2.43.0 (0)
 -->
<!-- Title: csv::CSVReader::CSVReader Pages: 1 -->
<svg width="831pt" height="367pt"
 viewBox="0.00 0.00 831.00 367.00" xmlns="http://www.w3.org/2000/svg" xmlns:xlink="http://www.w3.org/1999/xlink">
<g id="graph0" class="graph" transform="scale(1 1) rotate(0) translate(4 363)">
<title>csv::CSVReader::CSVReader</title>
<!-- Node1 -->
<g id="node1" class="node">
<title>Node1</title>
<g id="a_node1"><a xlink:title=" ">
<polygon fill="#bfbfbf" stroke="black" points="0,-118 0,-137 152,-137 152,-118 0,-118"/>
<text text-anchor="middle" x="76" y="-125" font-family="Helvetica,sans-Serif" font-size="10.00">csv::CSVReader::CSVReader</text>
</a>
</g>
</g>
<!-- Node2 -->
<g id="node2" class="node">
<title>Node2</title>
<g id="a_node2"><a xlink:href="namespacecsv_1_1internals.html#a380795c981a04709f32a960eead97d1b" target="_top" xlink:title=" ">
<polygon fill="none" stroke="black" points="204,-225.5 204,-255.5 325,-255.5 325,-225.5 204,-225.5"/>
<text text-anchor="start" x="212" y="-243.5" font-family="Helvetica,sans-Serif" font-size="10.00">csv::internals::_guess</text>
<text text-anchor="middle" x="264.5" y="-232.5" font-family="Helvetica,sans-Serif" font-size="10.00">_format</text>
</a>
</g>
</g>
<!-- Node1&#45;&gt;Node2 -->
<g id="edge1" class="edge">
<title>Node1&#45;&gt;Node2</title>
<path fill="none" stroke="midnightblue" d="M87.67,-137.02C106.72,-153.64 148.31,-188.29 188,-210.5 195.09,-214.47 202.81,-218.17 210.52,-221.52"/>
<polygon fill="midnightblue" stroke="midnightblue" points="209.29,-224.8 219.87,-225.43 211.99,-218.34 209.29,-224.8"/>
</g>
<!-- Node8 -->
<g id="node8" class="node">
<title>Node8</title>
<g id="a_node8"><a xlink:href="classcsv_1_1CSVFormat.html#a9504d9b7629560dd25b0fa63bf665584" target="_top" xlink:title=" ">
<polygon fill="none" stroke="black" points="377,-187 377,-206 520,-206 520,-187 377,-187"/>
<text text-anchor="middle" x="448.5" y="-194" font-family="Helvetica,sans-Serif" font-size="10.00">csv::CSVFormat::delimiter</text>
</a>
</g>
</g>
<!-- Node1&#45;&gt;Node8 -->
<g id="edge9" class="edge">
<title>Node1&#45;&gt;Node8</title>
<path fill="none" stroke="midnightblue" d="M93.26,-137.03C114.32,-148.84 152.56,-168.52 188,-177.5 246.6,-192.35 314.85,-196.86 366.65,-197.79"/>
<polygon fill="midnightblue" stroke="midnightblue" points="366.73,-201.3 376.78,-197.93 366.83,-194.3 366.73,-201.3"/>
</g>
<!-- Node10 -->
<g id="node10" class="node">
<title>Node10</title>
<g id="a_node10"><a xlink:href="namespacecsv_1_1internals.html#a897f697f6eff2db6e9011e0fc05ec959" target="_top" xlink:title=" ">
<polygon fill="none" stroke="black" points="213,-137.5 213,-167.5 316,-167.5 316,-137.5 213,-137.5"/>
<text text-anchor="start" x="221" y="-155.5" font-family="Helvetica,sans-Serif" font-size="10.00">csv::internals::get</text>
<text text-anchor="middle" x="264.5" y="-144.5" font-family="Helvetica,sans-Serif" font-size="10.00">_csv_head</text>
</a>
</g>
</g>
<!-- Node1&#45;&gt;Node10 -->
<g id="edge10" class="edge">
<title>Node1&#45;&gt;Node10</title>
<path fill="none" stroke="midnightblue" d="M148.04,-137.02C166.11,-139.45 185.36,-142.03 202.86,-144.37"/>
<polygon fill="midnightblue" stroke="midnightblue" points="202.56,-147.86 212.94,-145.72 203.49,-140.92 202.56,-147.86"/>
</g>
<!-- Node14 -->
<g id="node14" class="node">
<title>Node14</title>
<g id="a_node14"><a xlink:href="classcsv_1_1CSVFormat.html#a7e3bfc11c438a31d24e9f4375e0267e3" target="_top" xlink:title=" ">
<polygon fill="none" stroke="black" points="201,-88.5 201,-118.5 328,-118.5 328,-88.5 201,-88.5"/>
<text text-anchor="start" x="209" y="-106.5" font-family="Helvetica,sans-Serif" font-size="10.00">csv::CSVFormat::guess</text>
<text text-anchor="middle" x="264.5" y="-95.5" font-family="Helvetica,sans-Serif" font-size="10.00">_delim</text>
</a>
</g>
</g>
<!-- Node1&#45;&gt;Node14 -->
<g id="edge14" class="edge">
<title>Node1&#45;&gt;Node14</title>
<path fill="none" stroke="midnightblue" d="M150.98,-117.98C163.98,-116.31 177.5,-114.57 190.47,-112.9"/>
<polygon fill="midnightblue" stroke="midnightblue" points="191.27,-116.32 200.74,-111.58 190.38,-109.38 191.27,-116.32"/>
</g>
<!-- Node15 -->
<g id="node15" class="node">
<title>Node15</title>
<g id="a_node15"><a xlink:href="classcsv_1_1CSVReader.html#ab6b466721bf37c6707e70c7eccede53b" target="_top" xlink:title=" ">
<polygon fill="none" stroke="black" points="188,-50 188,-69 341,-69 341,-50 188,-50"/>
<text text-anchor="middle" x="264.5" y="-57" font-family="Helvetica,sans-Serif" font-size="10.00">csv::CSVReader::initial_read</text>
</a>
</g>
</g>
<!-- Node1&#45;&gt;Node15 -->
<g id="edge15" class="edge">
<title>Node1&#45;&gt;Node15</title>
<path fill="none" stroke="midnightblue" d="M95.86,-118C117.63,-107.3 154.73,-89.94 188,-78.5 195.2,-76.03 202.88,-73.72 210.49,-71.63"/>
<polygon fill="midnightblue" stroke="midnightblue" points="211.63,-74.95 220.41,-69.01 209.84,-68.18 211.63,-74.95"/>
</g>
<!-- Node16 -->
<g id="node16" class="node">
<title>Node16</title>
<g id="a_node16"><a xlink:href="group__csv__internal.html#gadf931687a8381e502e6241ae7955512c" target="_top" xlink:title=" ">
<polygon fill="none" stroke="black" points="208,-0.5 208,-30.5 321,-30.5 321,-0.5 208,-0.5"/>
<text text-anchor="start" x="216" y="-18.5" font-family="Helvetica,sans-Serif" font-size="10.00">csv::CSVReader::set</text>
<text text-anchor="middle" x="264.5" y="-7.5" font-family="Helvetica,sans-Serif" font-size="10.00">_col_names</text>
</a>
</g>
</g>
<!-- Node1&#45;&gt;Node16 -->
<g id="edge16" class="edge">
<title>Node1&#45;&gt;Node16</title>
<path fill="none" stroke="midnightblue" d="M86.86,-117.8C105.28,-100.15 146.79,-62.6 188,-40.5 192.01,-38.35 196.24,-36.34 200.56,-34.47"/>
<polygon fill="midnightblue" stroke="midnightblue" points="202.18,-37.59 210.14,-30.59 199.55,-31.1 202.18,-37.59"/>
</g>
<!-- Node3 -->
<g id="node3" class="node">
<title>Node3</title>
<g id="a_node3"><a xlink:href="namespacecsv_1_1internals.html#aaee53ac0be352fc9e886471ef2e1e113" target="_top" xlink:title=" ">
<polygon fill="none" stroke="black" points="383,-255.5 383,-285.5 514,-285.5 514,-255.5 383,-255.5"/>
<text text-anchor="start" x="391" y="-273.5" font-family="Helvetica,sans-Serif" font-size="10.00">csv::internals::calculate</text>
<text text-anchor="middle" x="448.5" y="-262.5" font-family="Helvetica,sans-Serif" font-size="10.00">_score</text>
</a>
</g>
</g>
<!-- Node2&#45;&gt;Node3 -->
<g id="edge2" class="edge">
<title>Node2&#45;&gt;Node3</title>
<path fill="none" stroke="midnightblue" d="M325.09,-250.32C340.23,-252.82 356.69,-255.53 372.49,-258.13"/>
<polygon fill="midnightblue" stroke="midnightblue" points="372.31,-261.65 382.75,-259.83 373.45,-254.75 372.31,-261.65"/>
</g>
<!-- Node2&#45;&gt;Node8 -->
<g id="edge7" class="edge">
<title>Node2&#45;&gt;Node8</title>
<path fill="none" stroke="midnightblue" d="M325.09,-226.09C348.74,-220.38 375.61,-213.88 398.13,-208.43"/>
<polygon fill="midnightblue" stroke="midnightblue" points="399.25,-211.76 408.15,-206.01 397.61,-204.96 399.25,-211.76"/>
</g>
<!-- Node4 -->
<g id="node4" class="node">
<title>Node4</title>
<g id="a_node4"><a xlink:href="classcsv_1_1internals_1_1StreamParser.html#a2c779b41c5b3395d191b0b39cd0ec8ef" target="_top" xlink:title=" ">
<polygon fill="none" stroke="black" points="563,-328.5 563,-358.5 715,-358.5 715,-328.5 563,-328.5"/>
<text text-anchor="start" x="571" y="-346.5" font-family="Helvetica,sans-Serif" font-size="10.00">csv::internals::StreamParser</text>
<text text-anchor="middle" x="639" y="-335.5" font-family="Helvetica,sans-Serif" font-size="10.00">::next</text>
</a>
</g>
</g>
<!-- Node3&#45;&gt;Node4 -->
<g id="edge3" class="edge">
<title>Node3&#45;&gt;Node4</title>
<path fill="none" stroke="midnightblue" d="M479.3,-285.64C500.38,-295.99 529.5,-309.59 556,-319.5 561.43,-321.53 567.11,-323.5 572.84,-325.38"/>
<polygon fill="midnightblue" stroke="midnightblue" points="571.91,-328.76 582.5,-328.46 574.03,-322.09 571.91,-328.76"/>
</g>
<!-- Node6 -->
<g id="node6" class="node">
<title>Node6</title>
<g id="a_node6"><a xlink:href="classcsv_1_1internals_1_1IBasicCSVParser.html#abb68865cdf144c1ed757523157bd531c" target="_top" xlink:title=" ">
<polygon fill="none" stroke="black" points="556,-279.5 556,-309.5 722,-309.5 722,-279.5 556,-279.5"/>
<text text-anchor="start" x="564" y="-297.5" font-family="Helvetica,sans-Serif" font-size="10.00">csv::internals::IBasicCSVParser</text>
<text text-anchor="middle" x="639" y="-286.5" font-family="Helvetica,sans-Serif" font-size="10.00">::set_output</text>
</a>
</g>
</g>
<!-- Node3&#45;&gt;Node6 -->
<g id="edge5" class="edge">
<title>Node3&#45;&gt;Node6</title>
<path fill="none" stroke="midnightblue" d="M514.11,-278.73C524.28,-280.02 534.97,-281.38 545.63,-282.74"/>
<polygon fill="midnightblue" stroke="midnightblue" points="545.46,-286.25 555.82,-284.04 546.34,-279.3 545.46,-286.25"/>
</g>
<!-- Node7 -->
<g id="node7" class="node">
<title>Node7</title>
<g id="a_node7"><a xlink:href="classcsv_1_1internals_1_1ThreadSafeDeque.html#a7eae23568306e68f407a05963e8585ff" target="_top" xlink:title=" ">
<polygon fill="none" stroke="black" points="567.5,-230.5 567.5,-260.5 710.5,-260.5 710.5,-230.5 567.5,-230.5"/>
<text text-anchor="start" x="575.5" y="-248.5" font-family="Helvetica,sans-Serif" font-size="10.00">csv::internals::ThreadSafe</text>
<text text-anchor="middle" x="639" y="-237.5" font-family="Helvetica,sans-Serif" font-size="10.00">Deque::size</text>
</a>
</g>
</g>
<!-- Node3&#45;&gt;Node7 -->
<g id="edge6" class="edge">
<title>Node3&#45;&gt;Node7</title>
<path fill="none" stroke="midnightblue" d="M514.11,-261.93C528.05,-260.08 542.95,-258.11 557.42,-256.19"/>
<polygon fill="midnightblue" stroke="midnightblue" points="557.89,-259.65 567.35,-254.87 556.97,-252.72 557.89,-259.65"/>
</g>
<!-- Node5 -->
<g id="node5" class="node">
<title>Node5</title>
<g id="a_node5"><a xlink:href="namespacecsv.html#a46864187c1f0bd79fc006694aba84cc2" target="_top" xlink:title=" ">
<polygon fill="none" stroke="black" points="758,-334 758,-353 823,-353 823,-334 758,-334"/>
<text text-anchor="middle" x="790.5" y="-341" font-family="Helvetica,sans-Serif" font-size="10.00">csv::parse</text>
</a>
</g>
</g>
<!-- Node4&#45;&gt;Node5 -->
<g id="edge4" class="edge">
<title>Node4&#45;&gt;Node5</title>
<path fill="none" stroke="midnightblue" d="M715.19,-343.5C726.3,-343.5 737.41,-343.5 747.52,-343.5"/>
<polygon fill="midnightblue" stroke="midnightblue" points="747.65,-347 757.65,-343.5 747.65,-340 747.65,-347"/>
</g>
<!-- Node9 -->
<g id="node9" class="node">
<title>Node9</title>
<g id="a_node9"><a xlink:href="classcsv_1_1CSVFormat.html#a6c2b638db04f164d781df7b2a4840a20" target="_top" xlink:title=" ">
<polygon fill="none" stroke="black" points="575,-181.5 575,-211.5 703,-211.5 703,-181.5 575,-181.5"/>
<text text-anchor="start" x="583" y="-199.5" font-family="Helvetica,sans-Serif" font-size="10.00">csv::CSVFormat::assert</text>
<text text-anchor="middle" x="639" y="-188.5" font-family="Helvetica,sans-Serif" font-size="10.00">_no_char_overlap</text>
</a>
</g>
</g>
<!-- Node8&#45;&gt;Node9 -->
<g id="edge8" class="edge">
<title>Node8&#45;&gt;Node9</title>
<path fill="none" stroke="midnightblue" d="M520.23,-196.5C534.83,-196.5 550.23,-196.5 564.91,-196.5"/>
<polygon fill="midnightblue" stroke="midnightblue" points="564.94,-200 574.94,-196.5 564.94,-193 564.94,-200"/>
</g>
<!-- Node11 -->
<g id="node11" class="node">
<title>Node11</title>
<g id="a_node11"><a xlink:href="namespacecsv_1_1internals.html#a9e94234c3ac25b454cfafd4fa4b1ed8c" target="_top" xlink:title=" ">
<polygon fill="none" stroke="black" points="397,-137.5 397,-167.5 500,-167.5 500,-137.5 397,-137.5"/>
<text text-anchor="start" x="405" y="-155.5" font-family="Helvetica,sans-Serif" font-size="10.00">csv::internals::get</text>
<text text-anchor="middle" x="448.5" y="-144.5" font-family="Helvetica,sans-Serif" font-size="10.00">_csv_head</text>
</a>
</g>
</g>
<!-- Node10&#45;&gt;Node11 -->
<g id="edge11" class="edge">
<title>Node10&#45;&gt;Node11</title>
<path fill="none" stroke="midnightblue" d="M316.2,-152.5C338,-152.5 363.66,-152.5 386.49,-152.5"/>
<polygon fill="midnightblue" stroke="midnightblue" points="386.76,-156 396.76,-152.5 386.76,-149 386.76,-156"/>
</g>
<!-- Node13 -->
<g id="node13" class="node">
<title>Node13</title>
<g id="a_node13"><a xlink:href="namespacecsv_1_1internals.html#ab276fd6e6dee073f97858e46836fb2fd" target="_top" xlink:title=" ">
<polygon fill="none" stroke="black" points="397,-88.5 397,-118.5 500,-118.5 500,-88.5 397,-88.5"/>
<text text-anchor="start" x="405" y="-106.5" font-family="Helvetica,sans-Serif" font-size="10.00">csv::internals::get</text>
<text text-anchor="middle" x="448.5" y="-95.5" font-family="Helvetica,sans-Serif" font-size="10.00">_file_size</text>
</a>
</g>
</g>
<!-- Node10&#45;&gt;Node13 -->
<g id="edge13" class="edge">
<title>Node10&#45;&gt;Node13</title>
<path fill="none" stroke="midnightblue" d="M316.2,-138.85C338.09,-132.96 363.89,-126.01 386.8,-119.84"/>
<polygon fill="midnightblue" stroke="midnightblue" points="388.01,-123.14 396.76,-117.16 386.19,-116.38 388.01,-123.14"/>
</g>
<!-- Node12 -->
<g id="node12" class="node">
<title>Node12</title>
<g id="a_node12"><a xlink:href="namespacemio.html#a457598aac30b946c47c282a70d18b029" target="_top" xlink:title=" ">
<polygon fill="none" stroke="black" points="567.5,-143 567.5,-162 710.5,-162 710.5,-143 567.5,-143"/>
<text text-anchor="middle" x="639" y="-150" font-family="Helvetica,sans-Serif" font-size="10.00">mio::make_mmap_source</text>
</a>
</g>
</g>
<!-- Node11&#45;&gt;Node12 -->
<g id="edge12" class="edge">
<title>Node11&#45;&gt;Node12</title>
<path fill="none" stroke="midnightblue" d="M500.01,-152.5C517.57,-152.5 537.72,-152.5 557.1,-152.5"/>
<polygon fill="midnightblue" stroke="midnightblue" points="557.15,-156 567.15,-152.5 557.15,-149 557.15,-156"/>
</g>
</g>
</svg>
