<?xml version="1.0" encoding="UTF-8" standalone="no"?>
<!DOCTYPE svg PUBLIC "-//W3C//DTD SVG 1.1//EN"
 "http://www.w3.org/Graphics/SVG/1.1/DTD/svg11.dtd">
<!-- Generated by graphviz version 2.43.0 (0)
 -->
<!-- Title: csv::internals::MmapParser Pages: 1 -->
<svg width="415pt" height="230pt"
 viewBox="0.00 0.00 415.00 230.00" xmlns="http://www.w3.org/2000/svg" xmlns:xlink="http://www.w3.org/1999/xlink">
<g id="graph0" class="graph" transform="scale(1 1) rotate(0) translate(4 226)">
<title>csv::internals::MmapParser</title>
<!-- Node1 -->
<g id="node1" class="node">
<title>Node1</title>
<g id="a_node1"><a xlink:title=" ">
<polygon fill="#bfbfbf" stroke="black" points="164.5,-0.5 164.5,-19.5 312.5,-19.5 312.5,-0.5 164.5,-0.5"/>
<text text-anchor="middle" x="238.5" y="-7.5" font-family="Helvetica,sans-Serif" font-size="10.00">csv::internals::MmapParser</text>
</a>
</g>
</g>
<!-- Node2 -->
<g id="node2" class="node">
<title>Node2</title>
<g id="a_node2"><a xlink:href="classcsv_1_1internals_1_1IBasicCSVParser.html" target="_top" xlink:title=" ">
<polygon fill="none" stroke="black" points="155.5,-57.5 155.5,-76.5 321.5,-76.5 321.5,-57.5 155.5,-57.5"/>
<text text-anchor="middle" x="238.5" y="-64.5" font-family="Helvetica,sans-Serif" font-size="10.00">csv::internals::IBasicCSVParser</text>
</a>
</g>
</g>
<!-- Node2&#45;&gt;Node1 -->
<g id="edge1" class="edge">
<title>Node2&#45;&gt;Node1</title>
<path fill="none" stroke="midnightblue" d="M238.5,-47.12C238.5,-37.82 238.5,-27.06 238.5,-19.71"/>
<polygon fill="midnightblue" stroke="midnightblue" points="235,-47.41 238.5,-57.41 242,-47.41 235,-47.41"/>
</g>
<!-- Node3 -->
<g id="node3" class="node">
<title>Node3</title>
<g id="a_node3"><a xlink:href="classcsv_1_1internals_1_1CSVFieldList.html" target="_top" xlink:title=" ">
<polygon fill="none" stroke="black" points="2,-130 2,-149 149,-149 149,-130 2,-130"/>
<text text-anchor="middle" x="75.5" y="-137" font-family="Helvetica,sans-Serif" font-size="10.00">csv::internals::CSVFieldList</text>
</a>
</g>
</g>
<!-- Node3&#45;&gt;Node2 -->
<g id="edge2" class="edge">
<title>Node3&#45;&gt;Node2</title>
<path fill="none" stroke="#9a32cd" stroke-dasharray="5,2" d="M104.7,-125.87C137.65,-111.62 190.34,-88.83 218.77,-76.53"/>
<polygon fill="#9a32cd" stroke="#9a32cd" points="102.95,-122.81 95.16,-130 105.73,-129.24 102.95,-122.81"/>
<text text-anchor="middle" x="187.5" y="-98" font-family="Helvetica,sans-Serif" font-size="10.00"> fields</text>
</g>
<!-- Node4 -->
<g id="node4" class="node">
<title>Node4</title>
<g id="a_node4"><a xlink:href="structcsv_1_1internals_1_1RawCSVField.html" target="_top" xlink:title=" ">
<polygon fill="none" stroke="black" points="0,-202.5 0,-221.5 151,-221.5 151,-202.5 0,-202.5"/>
<text text-anchor="middle" x="75.5" y="-209.5" font-family="Helvetica,sans-Serif" font-size="10.00">csv::internals::RawCSVField</text>
</a>
</g>
</g>
<!-- Node4&#45;&gt;Node3 -->
<g id="edge3" class="edge">
<title>Node4&#45;&gt;Node3</title>
<path fill="none" stroke="#9a32cd" stroke-dasharray="5,2" d="M75.5,-191.94C75.5,-178.03 75.5,-159.82 75.5,-149.22"/>
<polygon fill="#9a32cd" stroke="#9a32cd" points="72,-192.36 75.5,-202.36 79,-192.36 72,-192.36"/>
<text text-anchor="middle" x="91.5" y="-176" font-family="Helvetica,sans-Serif" font-size="10.00"> _back</text>
</g>
<!-- Node5 -->
<g id="node5" class="node">
<title>Node5</title>
<g id="a_node5"><a xlink:href="classcsv_1_1internals_1_1ThreadSafeDeque.html" target="_top" xlink:title=" ">
<polygon fill="none" stroke="black" points="167,-124.5 167,-154.5 310,-154.5 310,-124.5 167,-124.5"/>
<text text-anchor="start" x="175" y="-142.5" font-family="Helvetica,sans-Serif" font-size="10.00">csv::internals::ThreadSafe</text>
<text text-anchor="middle" x="238.5" y="-131.5" font-family="Helvetica,sans-Serif" font-size="10.00">Deque&lt; T &gt;</text>
</a>
</g>
</g>
<!-- Node5&#45;&gt;Node2 -->
<g id="edge4" class="edge">
<title>Node5&#45;&gt;Node2</title>
<path fill="none" stroke="#9a32cd" stroke-dasharray="5,2" d="M238.5,-114.09C238.5,-101.21 238.5,-86.2 238.5,-76.89"/>
<polygon fill="#9a32cd" stroke="#9a32cd" points="235,-114.23 238.5,-124.23 242,-114.23 235,-114.23"/>
<text text-anchor="middle" x="261" y="-98" font-family="Helvetica,sans-Serif" font-size="10.00"> _records</text>
</g>
<!-- Node6 -->
<g id="node6" class="node">
<title>Node6</title>
<g id="a_node6"><a xlink:href="classcsv_1_1CSVRow.html" target="_top" xlink:title=" ">
<polygon fill="none" stroke="black" points="328,-130 328,-149 407,-149 407,-130 328,-130"/>
<text text-anchor="middle" x="367.5" y="-137" font-family="Helvetica,sans-Serif" font-size="10.00">csv::CSVRow</text>
</a>
</g>
</g>
<!-- Node6&#45;&gt;Node2 -->
<g id="edge5" class="edge">
<title>Node6&#45;&gt;Node2</title>
<path fill="none" stroke="#9a32cd" stroke-dasharray="5,2" d="M343.03,-125.12C316.88,-110.84 276.23,-88.62 254.12,-76.53"/>
<polygon fill="#9a32cd" stroke="#9a32cd" points="341.49,-128.27 351.94,-130 344.84,-122.13 341.49,-128.27"/>
<text text-anchor="middle" x="337" y="-98" font-family="Helvetica,sans-Serif" font-size="10.00"> current_row</text>
</g>
</g>
</svg>
