<?xml version="1.0" encoding="UTF-8" standalone="no"?>
<!DOCTYPE svg PUBLIC "-//W3C//DTD SVG 1.1//EN"
 "http://www.w3.org/Graphics/SVG/1.1/DTD/svg11.dtd">
<!-- Generated by graphviz version 2.43.0 (0)
 -->
<!-- Title: csv::CSVField::get_value Pages: 1 -->
<svg width="617pt" height="105pt"
 viewBox="0.00 0.00 617.00 104.50" xmlns="http://www.w3.org/2000/svg" xmlns:xlink="http://www.w3.org/1999/xlink">
<g id="graph0" class="graph" transform="scale(1 1) rotate(0) translate(4 100.5)">
<title>csv::CSVField::get_value</title>
<!-- Node1 -->
<g id="node1" class="node">
<title>Node1</title>
<g id="a_node1"><a xlink:title=" ">
<polygon fill="#bfbfbf" stroke="black" points="0,-17 0,-47 103,-47 103,-17 0,-17"/>
<text text-anchor="start" x="8" y="-35" font-family="Helvetica,sans-Serif" font-size="10.00">csv::CSVField::get</text>
<text text-anchor="middle" x="51.5" y="-24" font-family="Helvetica,sans-Serif" font-size="10.00">_value</text>
</a>
</g>
</g>
<!-- Node2 -->
<g id="node2" class="node">
<title>Node2</title>
<g id="a_node2"><a xlink:href="namespacecsv_1_1internals.html#adac40005a876a4cb847f62c79be7935d" target="_top" xlink:title=" ">
<polygon fill="none" stroke="black" points="139,-22.5 139,-41.5 275,-41.5 275,-22.5 139,-22.5"/>
<text text-anchor="middle" x="207" y="-29.5" font-family="Helvetica,sans-Serif" font-size="10.00">csv::internals::data_type</text>
</a>
</g>
</g>
<!-- Node1&#45;&gt;Node2 -->
<g id="edge1" class="edge">
<title>Node1&#45;&gt;Node2</title>
<path fill="none" stroke="midnightblue" d="M103.19,-32C111.41,-32 120.08,-32 128.77,-32"/>
<polygon fill="midnightblue" stroke="midnightblue" points="128.94,-35.5 138.94,-32 128.94,-28.5 128.94,-35.5"/>
</g>
<!-- Node3 -->
<g id="node3" class="node">
<title>Node3</title>
<g id="a_node3"><a xlink:href="namespacecsv_1_1internals.html#ae8e51ab7323dd0e66ce1157a5d230718" target="_top" xlink:title=" ">
<polygon fill="none" stroke="black" points="311,-66 311,-96 454,-96 454,-66 311,-66"/>
<text text-anchor="start" x="319" y="-84" font-family="Helvetica,sans-Serif" font-size="10.00">csv::internals::_determine</text>
<text text-anchor="middle" x="382.5" y="-73" font-family="Helvetica,sans-Serif" font-size="10.00">_integral_type</text>
</a>
</g>
</g>
<!-- Node2&#45;&gt;Node3 -->
<g id="edge2" class="edge">
<title>Node2&#45;&gt;Node3</title>
<path fill="none" stroke="midnightblue" d="M241.86,-41.56C263.64,-47.71 292.6,-55.89 318.5,-63.21"/>
<polygon fill="midnightblue" stroke="midnightblue" points="317.68,-66.61 328.26,-65.96 319.58,-59.88 317.68,-66.61"/>
</g>
<!-- Node4 -->
<g id="node4" class="node">
<title>Node4</title>
<g id="a_node4"><a xlink:href="namespacecsv_1_1internals.html#a8689734872945990256b14391b640da2" target="_top" xlink:title=" ">
<polygon fill="none" stroke="black" points="317.5,-17 317.5,-47 447.5,-47 447.5,-17 317.5,-17"/>
<text text-anchor="start" x="325.5" y="-35" font-family="Helvetica,sans-Serif" font-size="10.00">csv::internals::_process</text>
<text text-anchor="middle" x="382.5" y="-24" font-family="Helvetica,sans-Serif" font-size="10.00">_potential_exponential</text>
</a>
</g>
</g>
<!-- Node2&#45;&gt;Node4 -->
<g id="edge3" class="edge">
<title>Node2&#45;&gt;Node4</title>
<path fill="none" stroke="midnightblue" d="M275.08,-25.41C285.63,-25.24 296.59,-25.2 307.29,-25.31"/>
<polygon fill="midnightblue" stroke="midnightblue" points="307.4,-28.81 317.45,-25.46 307.5,-21.82 307.4,-28.81"/>
</g>
<!-- Node5 -->
<g id="node5" class="node">
<title>Node5</title>
<g id="a_node5"><a xlink:href="namespacecsv_1_1internals.html#a53610b31da85139a100e9773f6b9fb4f" target="_top" xlink:title=" ">
<polygon fill="none" stroke="black" points="490,-0.5 490,-19.5 609,-19.5 609,-0.5 490,-0.5"/>
<text text-anchor="middle" x="549.5" y="-7.5" font-family="Helvetica,sans-Serif" font-size="10.00">csv::internals::pow10</text>
</a>
</g>
</g>
<!-- Node2&#45;&gt;Node5 -->
<g id="edge6" class="edge">
<title>Node2&#45;&gt;Node5</title>
<path fill="none" stroke="midnightblue" d="M240.6,-22.39C260.69,-16.97 287.1,-10.75 311,-8 367.48,-1.51 432.02,-2.59 479.55,-4.97"/>
<polygon fill="midnightblue" stroke="midnightblue" points="479.55,-8.47 489.73,-5.51 479.93,-1.48 479.55,-8.47"/>
</g>
<!-- Node4&#45;&gt;Node2 -->
<g id="edge4" class="edge">
<title>Node4&#45;&gt;Node2</title>
<path fill="none" stroke="midnightblue" d="M317.45,-38.54C306.98,-38.74 296.04,-38.8 285.3,-38.71"/>
<polygon fill="midnightblue" stroke="midnightblue" points="285.12,-35.21 275.08,-38.59 285.04,-42.21 285.12,-35.21"/>
</g>
<!-- Node4&#45;&gt;Node5 -->
<g id="edge5" class="edge">
<title>Node4&#45;&gt;Node5</title>
<path fill="none" stroke="midnightblue" d="M447.77,-23.43C458.26,-22.03 469.16,-20.58 479.76,-19.17"/>
<polygon fill="midnightblue" stroke="midnightblue" points="480.35,-22.62 489.8,-17.83 479.42,-15.68 480.35,-22.62"/>
</g>
</g>
</svg>
