<?xml version="1.0" encoding="UTF-8" standalone="no"?>
<!DOCTYPE svg PUBLIC "-//W3C//DTD SVG 1.1//EN"
 "http://www.w3.org/Graphics/SVG/1.1/DTD/svg11.dtd">
<!-- Generated by graphviz version 2.43.0 (0)
 -->
<!-- Title: csv::internals::IBasicCSVParser Pages: 1 -->
<svg width="326pt" height="95pt"
 viewBox="0.00 0.00 326.00 95.00" xmlns="http://www.w3.org/2000/svg" xmlns:xlink="http://www.w3.org/1999/xlink">
<g id="graph0" class="graph" transform="scale(1 1) rotate(0) translate(4 91)">
<title>csv::internals::IBasicCSVParser</title>
<!-- Node1 -->
<g id="node1" class="node">
<title>Node1</title>
<g id="a_node1"><a xlink:title=" ">
<polygon fill="#bfbfbf" stroke="black" points="75,-67.5 75,-86.5 241,-86.5 241,-67.5 75,-67.5"/>
<text text-anchor="middle" x="158" y="-74.5" font-family="Helvetica,sans-Serif" font-size="10.00">csv::internals::IBasicCSVParser</text>
</a>
</g>
</g>
<!-- Node2 -->
<g id="node2" class="node">
<title>Node2</title>
<g id="a_node2"><a xlink:href="classcsv_1_1internals_1_1MmapParser.html" target="_top" xlink:title=" ">
<polygon fill="none" stroke="black" points="0,-6 0,-25 148,-25 148,-6 0,-6"/>
<text text-anchor="middle" x="74" y="-13" font-family="Helvetica,sans-Serif" font-size="10.00">csv::internals::MmapParser</text>
</a>
</g>
</g>
<!-- Node1&#45;&gt;Node2 -->
<g id="edge1" class="edge">
<title>Node1&#45;&gt;Node2</title>
<path fill="none" stroke="midnightblue" d="M137.69,-61.61C121.53,-50.17 99.48,-34.55 86.01,-25.01"/>
<polygon fill="midnightblue" stroke="midnightblue" points="135.78,-64.55 145.96,-67.48 139.83,-58.84 135.78,-64.55"/>
</g>
<!-- Node3 -->
<g id="node3" class="node">
<title>Node3</title>
<g id="a_node3"><a xlink:href="classcsv_1_1internals_1_1StreamParser.html" target="_top" xlink:title=" ">
<polygon fill="none" stroke="black" points="166,-0.5 166,-30.5 318,-30.5 318,-0.5 166,-0.5"/>
<text text-anchor="start" x="174" y="-18.5" font-family="Helvetica,sans-Serif" font-size="10.00">csv::internals::StreamParser</text>
<text text-anchor="middle" x="242" y="-7.5" font-family="Helvetica,sans-Serif" font-size="10.00">&lt; TStream &gt;</text>
</a>
</g>
</g>
<!-- Node1&#45;&gt;Node3 -->
<g id="edge2" class="edge">
<title>Node1&#45;&gt;Node3</title>
<path fill="none" stroke="midnightblue" d="M178.52,-61.47C191.82,-52.05 209.05,-39.84 222.2,-30.52"/>
<polygon fill="midnightblue" stroke="midnightblue" points="176.17,-58.84 170.04,-67.48 180.22,-64.55 176.17,-58.84"/>
</g>
</g>
</svg>
