<?xml version="1.0" encoding="UTF-8" standalone="no"?>
<!DOCTYPE svg PUBLIC "-//W3C//DTD SVG 1.1//EN"
 "http://www.w3.org/Graphics/SVG/1.1/DTD/svg11.dtd">
<!-- Generated by graphviz version 2.43.0 (0)
 -->
<!-- Title: csv::CSVReader::iterator::operator!= Pages: 1 -->
<svg width="620pt" height="66pt"
 viewBox="0.00 0.00 620.00 66.00" xmlns="http://www.w3.org/2000/svg" xmlns:xlink="http://www.w3.org/1999/xlink">
<g id="graph0" class="graph" transform="scale(1 1) rotate(0) translate(4 62)">
<title>csv::CSVReader::iterator::operator!=</title>
<!-- Node1 -->
<g id="node1" class="node">
<title>Node1</title>
<g id="a_node1"><a xlink:title=" ">
<polygon fill="#bfbfbf" stroke="black" points="0,-14 0,-44 134,-44 134,-14 0,-14"/>
<text text-anchor="start" x="8" y="-32" font-family="Helvetica,sans-Serif" font-size="10.00">csv::CSVReader::iterator</text>
<text text-anchor="middle" x="67" y="-21" font-family="Helvetica,sans-Serif" font-size="10.00">::operator!=</text>
</a>
</g>
</g>
<!-- Node2 -->
<g id="node2" class="node">
<title>Node2</title>
<g id="a_node2"><a xlink:href="namespacemio.html#a792b53efe44045170c43ce9d0ed38d2d" target="_top" xlink:title=" ">
<polygon fill="none" stroke="black" points="170,-19.5 170,-38.5 269,-38.5 269,-19.5 170,-19.5"/>
<text text-anchor="middle" x="219.5" y="-26.5" font-family="Helvetica,sans-Serif" font-size="10.00">mio::operator==</text>
</a>
</g>
</g>
<!-- Node1&#45;&gt;Node2 -->
<g id="edge1" class="edge">
<title>Node1&#45;&gt;Node2</title>
<path fill="none" stroke="midnightblue" d="M134.01,-29C142.55,-29 151.24,-29 159.65,-29"/>
<polygon fill="midnightblue" stroke="midnightblue" points="159.73,-32.5 169.73,-29 159.73,-25.5 159.73,-32.5"/>
</g>
<!-- Node3 -->
<g id="node3" class="node">
<title>Node3</title>
<g id="a_node3"><a xlink:href="structmio_1_1basic__mmap.html#a2d1d8693d67e97222293e98c3c6d553e" target="_top" xlink:title=" ">
<polygon fill="none" stroke="black" points="305,-38.5 305,-57.5 436,-57.5 436,-38.5 305,-38.5"/>
<text text-anchor="middle" x="370.5" y="-45.5" font-family="Helvetica,sans-Serif" font-size="10.00">mio::basic_mmap::data</text>
</a>
</g>
</g>
<!-- Node2&#45;&gt;Node3 -->
<g id="edge2" class="edge">
<title>Node2&#45;&gt;Node3</title>
<path fill="none" stroke="midnightblue" d="M269.29,-35.22C277.46,-36.26 286.11,-37.37 294.76,-38.47"/>
<polygon fill="midnightblue" stroke="midnightblue" points="294.52,-41.97 304.88,-39.76 295.41,-35.02 294.52,-41.97"/>
</g>
<!-- Node4 -->
<g id="node4" class="node">
<title>Node4</title>
<g id="a_node4"><a xlink:href="structmio_1_1basic__mmap.html#ab024ae1706066753e5163844424d3d7c" target="_top" xlink:title=" ">
<polygon fill="none" stroke="black" points="306,-0.5 306,-19.5 435,-19.5 435,-0.5 306,-0.5"/>
<text text-anchor="middle" x="370.5" y="-7.5" font-family="Helvetica,sans-Serif" font-size="10.00">mio::basic_mmap::size</text>
</a>
</g>
</g>
<!-- Node2&#45;&gt;Node4 -->
<g id="edge3" class="edge">
<title>Node2&#45;&gt;Node4</title>
<path fill="none" stroke="midnightblue" d="M269.29,-22.78C277.8,-21.69 286.82,-20.54 295.82,-19.4"/>
<polygon fill="midnightblue" stroke="midnightblue" points="296.48,-22.84 305.95,-18.1 295.59,-15.9 296.48,-22.84"/>
</g>
<!-- Node5 -->
<g id="node5" class="node">
<title>Node5</title>
<g id="a_node5"><a xlink:href="structmio_1_1basic__mmap.html#a26b3b48db65d974be3eeba9be82ed5d7" target="_top" xlink:title=" ">
<polygon fill="none" stroke="black" points="472,-0.5 472,-19.5 612,-19.5 612,-0.5 472,-0.5"/>
<text text-anchor="middle" x="542" y="-7.5" font-family="Helvetica,sans-Serif" font-size="10.00">mio::basic_mmap::length</text>
</a>
</g>
</g>
<!-- Node4&#45;&gt;Node5 -->
<g id="edge4" class="edge">
<title>Node4&#45;&gt;Node5</title>
<path fill="none" stroke="midnightblue" d="M435.1,-10C443.83,-10 452.89,-10 461.86,-10"/>
<polygon fill="midnightblue" stroke="midnightblue" points="461.94,-13.5 471.94,-10 461.94,-6.5 461.94,-13.5"/>
</g>
</g>
</svg>
