<?xml version="1.0" encoding="UTF-8" standalone="no"?>
<!DOCTYPE svg PUBLIC "-//W3C//DTD SVG 1.1//EN"
 "http://www.w3.org/Graphics/SVG/1.1/DTD/svg11.dtd">
<!-- Generated by graphviz version 2.43.0 (0)
 -->
<!-- Title: csv::internals::MmapParser::next Pages: 1 -->
<svg width="762pt" height="438pt"
 viewBox="0.00 0.00 762.00 438.36" xmlns="http://www.w3.org/2000/svg" xmlns:xlink="http://www.w3.org/1999/xlink">
<g id="graph0" class="graph" transform="scale(1 1) rotate(0) translate(4 434.36)">
<title>csv::internals::MmapParser::next</title>
<!-- Node1 -->
<g id="node1" class="node">
<title>Node1</title>
<g id="a_node1"><a xlink:title=" ">
<polygon fill="#bfbfbf" stroke="black" points="0,-153.36 0,-183.36 148,-183.36 148,-153.36 0,-153.36"/>
<text text-anchor="start" x="8" y="-171.36" font-family="Helvetica,sans-Serif" font-size="10.00">csv::internals::MmapParser</text>
<text text-anchor="middle" x="74" y="-160.36" font-family="Helvetica,sans-Serif" font-size="10.00">::next</text>
</a>
</g>
</g>
<!-- Node2 -->
<g id="node2" class="node">
<title>Node2</title>
<g id="a_node2"><a xlink:href="classcsv_1_1internals_1_1IBasicCSVParser.html#a166e2c8b138ab018ce4d9416deb2d9ec" target="_top" xlink:title=" ">
<polygon fill="none" stroke="black" points="184,-312.36 184,-342.36 350,-342.36 350,-312.36 184,-312.36"/>
<text text-anchor="start" x="192" y="-330.36" font-family="Helvetica,sans-Serif" font-size="10.00">csv::internals::IBasicCSVParser</text>
<text text-anchor="middle" x="267" y="-319.36" font-family="Helvetica,sans-Serif" font-size="10.00">::end_feed</text>
</a>
</g>
</g>
<!-- Node1&#45;&gt;Node2 -->
<g id="edge1" class="edge">
<title>Node1&#45;&gt;Node2</title>
<path fill="none" stroke="midnightblue" d="M93.31,-183.61C127.4,-211.98 200.66,-272.97 239.91,-305.64"/>
<polygon fill="midnightblue" stroke="midnightblue" points="237.82,-308.46 247.74,-312.16 242.3,-303.08 237.82,-308.46"/>
</g>
<!-- Node10 -->
<g id="node10" class="node">
<title>Node10</title>
<g id="a_node10"><a xlink:href="namespacemio.html#a457598aac30b946c47c282a70d18b029" target="_top" xlink:title=" ">
<polygon fill="none" stroke="black" points="195.5,-158.86 195.5,-177.86 338.5,-177.86 338.5,-158.86 195.5,-158.86"/>
<text text-anchor="middle" x="267" y="-165.86" font-family="Helvetica,sans-Serif" font-size="10.00">mio::make_mmap_source</text>
</a>
</g>
</g>
<!-- Node1&#45;&gt;Node10 -->
<g id="edge9" class="edge">
<title>Node1&#45;&gt;Node10</title>
<path fill="none" stroke="midnightblue" d="M148.03,-168.36C160.12,-168.36 172.73,-168.36 185,-168.36"/>
<polygon fill="midnightblue" stroke="midnightblue" points="185.22,-171.86 195.22,-168.36 185.22,-164.86 185.22,-171.86"/>
</g>
<!-- Node11 -->
<g id="node11" class="node">
<title>Node11</title>
<g id="a_node11"><a xlink:href="classcsv_1_1internals_1_1IBasicCSVParser.html#a17b985fe364d81c8fe1c1ccfd3628b09" target="_top" xlink:title=" ">
<polygon fill="none" stroke="black" points="184,-109.36 184,-139.36 350,-139.36 350,-109.36 184,-109.36"/>
<text text-anchor="start" x="192" y="-127.36" font-family="Helvetica,sans-Serif" font-size="10.00">csv::internals::IBasicCSVParser</text>
<text text-anchor="middle" x="267" y="-116.36" font-family="Helvetica,sans-Serif" font-size="10.00">::no_chunk</text>
</a>
</g>
</g>
<!-- Node1&#45;&gt;Node11 -->
<g id="edge10" class="edge">
<title>Node1&#45;&gt;Node11</title>
<path fill="none" stroke="midnightblue" d="M140.2,-153.34C156.55,-149.58 174.22,-145.51 191.01,-141.64"/>
<polygon fill="midnightblue" stroke="midnightblue" points="191.81,-145.04 200.77,-139.39 190.24,-138.22 191.81,-145.04"/>
</g>
<!-- Node12 -->
<g id="node12" class="node">
<title>Node12</title>
<g id="a_node12"><a xlink:href="classcsv_1_1internals_1_1IBasicCSVParser.html#acc825082542caf061374cfdd8deee66d" target="_top" xlink:title=" ">
<polygon fill="none" stroke="black" points="184,-197.36 184,-227.36 350,-227.36 350,-197.36 184,-197.36"/>
<text text-anchor="start" x="192" y="-215.36" font-family="Helvetica,sans-Serif" font-size="10.00">csv::internals::IBasicCSVParser</text>
<text text-anchor="middle" x="267" y="-204.36" font-family="Helvetica,sans-Serif" font-size="10.00">::parse</text>
</a>
</g>
</g>
<!-- Node1&#45;&gt;Node12 -->
<g id="edge11" class="edge">
<title>Node1&#45;&gt;Node12</title>
<path fill="none" stroke="midnightblue" d="M140.2,-183.38C156.55,-187.15 174.22,-191.22 191.01,-195.09"/>
<polygon fill="midnightblue" stroke="midnightblue" points="190.24,-198.5 200.77,-197.34 191.81,-191.68 190.24,-198.5"/>
</g>
<!-- Node18 -->
<g id="node18" class="node">
<title>Node18</title>
<g id="a_node18"><a xlink:href="classcsv_1_1internals_1_1IBasicCSVParser.html#ad28bf9ecd85373507964c90510f86f75" target="_top" xlink:title=" ">
<polygon fill="none" stroke="black" points="184,-60.36 184,-90.36 350,-90.36 350,-60.36 184,-60.36"/>
<text text-anchor="start" x="192" y="-78.36" font-family="Helvetica,sans-Serif" font-size="10.00">csv::internals::IBasicCSVParser</text>
<text text-anchor="middle" x="267" y="-67.36" font-family="Helvetica,sans-Serif" font-size="10.00">::reset_data_ptr</text>
</a>
</g>
</g>
<!-- Node1&#45;&gt;Node18 -->
<g id="edge24" class="edge">
<title>Node1&#45;&gt;Node18</title>
<path fill="none" stroke="midnightblue" d="M95.39,-153.36C116.63,-138.29 151.31,-115.23 184,-100.36 189.08,-98.05 194.43,-95.88 199.87,-93.86"/>
<polygon fill="midnightblue" stroke="midnightblue" points="201.43,-97.02 209.7,-90.39 199.1,-90.42 201.43,-97.02"/>
</g>
<!-- Node3 -->
<g id="node3" class="node">
<title>Node3</title>
<g id="a_node3"><a xlink:href="classcsv_1_1internals_1_1IBasicCSVParser.html#a889366716d48b7e4939369388a7c3d46" target="_top" xlink:title=" ">
<polygon fill="none" stroke="black" points="386,-312.36 386,-342.36 552,-342.36 552,-312.36 386,-312.36"/>
<text text-anchor="start" x="394" y="-330.36" font-family="Helvetica,sans-Serif" font-size="10.00">csv::internals::IBasicCSVParser</text>
<text text-anchor="middle" x="469" y="-319.36" font-family="Helvetica,sans-Serif" font-size="10.00">::parse_flag</text>
</a>
</g>
</g>
<!-- Node2&#45;&gt;Node3 -->
<g id="edge2" class="edge">
<title>Node2&#45;&gt;Node3</title>
<path fill="none" stroke="midnightblue" d="M350.21,-327.36C358.56,-327.36 367.08,-327.36 375.53,-327.36"/>
<polygon fill="midnightblue" stroke="midnightblue" points="375.78,-330.86 385.78,-327.36 375.78,-323.86 375.78,-330.86"/>
</g>
<!-- Node4 -->
<g id="node4" class="node">
<title>Node4</title>
<g id="a_node4"><a xlink:href="classcsv_1_1internals_1_1IBasicCSVParser.html#a0005754750cea46f78258c80f4f15886" target="_top" xlink:title=" ">
<polygon fill="none" stroke="black" points="386,-361.36 386,-391.36 552,-391.36 552,-361.36 386,-361.36"/>
<text text-anchor="start" x="394" y="-379.36" font-family="Helvetica,sans-Serif" font-size="10.00">csv::internals::IBasicCSVParser</text>
<text text-anchor="middle" x="469" y="-368.36" font-family="Helvetica,sans-Serif" font-size="10.00">::push_field</text>
</a>
</g>
</g>
<!-- Node2&#45;&gt;Node4 -->
<g id="edge3" class="edge">
<title>Node2&#45;&gt;Node4</title>
<path fill="none" stroke="midnightblue" d="M329.37,-342.4C350.67,-347.62 374.75,-353.52 396.79,-358.92"/>
<polygon fill="midnightblue" stroke="midnightblue" points="396.2,-362.38 406.75,-361.36 397.87,-355.58 396.2,-362.38"/>
</g>
<!-- Node6 -->
<g id="node6" class="node">
<title>Node6</title>
<g id="a_node6"><a xlink:href="classcsv_1_1internals_1_1IBasicCSVParser.html#af28c9b3e922779765411c25150352037" target="_top" xlink:title=" ">
<polygon fill="none" stroke="black" points="386,-263.36 386,-293.36 552,-293.36 552,-263.36 386,-263.36"/>
<text text-anchor="start" x="394" y="-281.36" font-family="Helvetica,sans-Serif" font-size="10.00">csv::internals::IBasicCSVParser</text>
<text text-anchor="middle" x="469" y="-270.36" font-family="Helvetica,sans-Serif" font-size="10.00">::push_row</text>
</a>
</g>
</g>
<!-- Node2&#45;&gt;Node6 -->
<g id="edge5" class="edge">
<title>Node2&#45;&gt;Node6</title>
<path fill="none" stroke="midnightblue" d="M329.37,-312.33C350.67,-307.11 374.75,-301.21 396.79,-295.81"/>
<polygon fill="midnightblue" stroke="midnightblue" points="397.87,-299.15 406.75,-293.37 396.2,-292.35 397.87,-299.15"/>
</g>
<!-- Node9 -->
<g id="node9" class="node">
<title>Node9</title>
<g id="a_node9"><a xlink:href="classcsv_1_1CSVRow.html#ab70c127ad2afc4cf4eb9d2c7f1cea253" target="_top" xlink:title=" ">
<polygon fill="none" stroke="black" points="417,-410.86 417,-429.86 521,-429.86 521,-410.86 417,-410.86"/>
<text text-anchor="middle" x="469" y="-417.86" font-family="Helvetica,sans-Serif" font-size="10.00">csv::CSVRow::size</text>
</a>
</g>
</g>
<!-- Node2&#45;&gt;Node9 -->
<g id="edge8" class="edge">
<title>Node2&#45;&gt;Node9</title>
<path fill="none" stroke="midnightblue" d="M287.75,-342.66C310.32,-359.42 348.93,-385.96 386,-401.36 392.68,-404.14 399.84,-406.55 407.05,-408.64"/>
<polygon fill="midnightblue" stroke="midnightblue" points="406.3,-412.06 416.87,-411.28 408.12,-405.3 406.3,-412.06"/>
</g>
<!-- Node5 -->
<g id="node5" class="node">
<title>Node5</title>
<g id="a_node5"><a xlink:href="classcsv_1_1internals_1_1CSVFieldList.html#aa18dc7e6f2b3c28fbe70547b91591166" target="_top" xlink:title=" ">
<polygon fill="none" stroke="black" points="606,-361.36 606,-391.36 736,-391.36 736,-361.36 606,-361.36"/>
<text text-anchor="start" x="614" y="-379.36" font-family="Helvetica,sans-Serif" font-size="10.00">csv::internals::CSVField</text>
<text text-anchor="middle" x="671" y="-368.36" font-family="Helvetica,sans-Serif" font-size="10.00">List::emplace_back</text>
</a>
</g>
</g>
<!-- Node4&#45;&gt;Node5 -->
<g id="edge4" class="edge">
<title>Node4&#45;&gt;Node5</title>
<path fill="none" stroke="midnightblue" d="M552.21,-376.36C566.61,-376.36 581.5,-376.36 595.67,-376.36"/>
<polygon fill="midnightblue" stroke="midnightblue" points="595.83,-379.86 605.83,-376.36 595.83,-372.86 595.83,-379.86"/>
</g>
<!-- Node7 -->
<g id="node7" class="node">
<title>Node7</title>
<g id="a_node7"><a xlink:href="classcsv_1_1internals_1_1ThreadSafeDeque.html#a8c9d238a10a196b83e74c1758c9afb3b" target="_top" xlink:title=" ">
<polygon fill="none" stroke="black" points="599.5,-268.36 599.5,-298.36 742.5,-298.36 742.5,-268.36 599.5,-268.36"/>
<text text-anchor="start" x="607.5" y="-286.36" font-family="Helvetica,sans-Serif" font-size="10.00">csv::internals::ThreadSafe</text>
<text text-anchor="middle" x="671" y="-275.36" font-family="Helvetica,sans-Serif" font-size="10.00">Deque::push_back</text>
</a>
</g>
</g>
<!-- Node6&#45;&gt;Node7 -->
<g id="edge6" class="edge">
<title>Node6&#45;&gt;Node7</title>
<path fill="none" stroke="midnightblue" d="M552.21,-280.42C564.42,-280.72 576.99,-281.04 589.16,-281.34"/>
<polygon fill="midnightblue" stroke="midnightblue" points="589.2,-284.84 599.28,-281.59 589.37,-277.85 589.2,-284.84"/>
</g>
<!-- Node8 -->
<g id="node8" class="node">
<title>Node8</title>
<g id="a_node8"><a xlink:href="classcsv_1_1internals_1_1CSVFieldList.html#a34412a8fe533e5b6c970f1e6834f6659" target="_top" xlink:title=" ">
<polygon fill="none" stroke="black" points="606,-219.36 606,-249.36 736,-249.36 736,-219.36 606,-219.36"/>
<text text-anchor="start" x="614" y="-237.36" font-family="Helvetica,sans-Serif" font-size="10.00">csv::internals::CSVField</text>
<text text-anchor="middle" x="671" y="-226.36" font-family="Helvetica,sans-Serif" font-size="10.00">List::size</text>
</a>
</g>
</g>
<!-- Node6&#45;&gt;Node8 -->
<g id="edge7" class="edge">
<title>Node6&#45;&gt;Node8</title>
<path fill="none" stroke="midnightblue" d="M538.27,-263.34C556.78,-259.27 576.91,-254.84 595.74,-250.7"/>
<polygon fill="midnightblue" stroke="midnightblue" points="596.73,-254.07 605.75,-248.5 595.23,-247.23 596.73,-254.07"/>
</g>
<!-- Node12&#45;&gt;Node3 -->
<g id="edge18" class="edge">
<title>Node12&#45;&gt;Node3</title>
<path fill="none" stroke="midnightblue" d="M283.48,-227.42C304.87,-247.44 345.42,-282.71 386,-303.36 389.72,-305.26 393.61,-307.02 397.59,-308.67"/>
<polygon fill="midnightblue" stroke="midnightblue" points="396.41,-311.96 407,-312.29 398.93,-305.43 396.41,-311.96"/>
</g>
<!-- Node12&#45;&gt;Node4 -->
<g id="edge19" class="edge">
<title>Node12&#45;&gt;Node4</title>
<path fill="none" stroke="midnightblue" d="M282.41,-227.41C299.17,-245.13 327.44,-275.66 350,-303.36 367.07,-324.32 363.86,-336.86 386,-352.36 388.13,-353.85 390.35,-355.25 392.63,-356.56"/>
<polygon fill="midnightblue" stroke="midnightblue" points="391.26,-359.79 401.76,-361.21 394.44,-353.55 391.26,-359.79"/>
</g>
<!-- Node12&#45;&gt;Node6 -->
<g id="edge20" class="edge">
<title>Node12&#45;&gt;Node6</title>
<path fill="none" stroke="midnightblue" d="M313.63,-227.42C342.97,-237.1 381.28,-249.74 412.39,-260.01"/>
<polygon fill="midnightblue" stroke="midnightblue" points="411.62,-263.44 422.22,-263.25 413.82,-256.8 411.62,-263.44"/>
</g>
<!-- Node12&#45;&gt;Node8 -->
<g id="edge21" class="edge">
<title>Node12&#45;&gt;Node8</title>
<path fill="none" stroke="midnightblue" d="M350.32,-216.87C422.46,-220.82 526.38,-226.5 595.95,-230.31"/>
<polygon fill="midnightblue" stroke="midnightblue" points="595.78,-233.81 605.96,-230.86 596.16,-226.82 595.78,-233.81"/>
</g>
<!-- Node13 -->
<g id="node13" class="node">
<title>Node13</title>
<g id="a_node13"><a xlink:href="classcsv_1_1internals_1_1IBasicCSVParser.html#ad51574362ff2ba4d87f793c03f98d834" target="_top" xlink:title=" ">
<polygon fill="none" stroke="black" points="588,-65.36 588,-95.36 754,-95.36 754,-65.36 588,-65.36"/>
<text text-anchor="start" x="596" y="-83.36" font-family="Helvetica,sans-Serif" font-size="10.00">csv::internals::IBasicCSVParser</text>
<text text-anchor="middle" x="671" y="-72.36" font-family="Helvetica,sans-Serif" font-size="10.00">::compound_parse_flag</text>
</a>
</g>
</g>
<!-- Node12&#45;&gt;Node13 -->
<g id="edge12" class="edge">
<title>Node12&#45;&gt;Node13</title>
<path fill="none" stroke="midnightblue" d="M336.71,-197.23C341.55,-194.47 346.06,-191.21 350,-187.36 386.49,-151.71 344.65,-108.25 386,-78.36 453,-29.93 554.06,-45.8 615.83,-62.51"/>
<polygon fill="midnightblue" stroke="midnightblue" points="615.19,-65.97 625.76,-65.3 617.08,-59.23 615.19,-65.97"/>
</g>
<!-- Node14 -->
<g id="node14" class="node">
<title>Node14</title>
<g id="a_node14"><a xlink:href="classcsv_1_1internals_1_1IBasicCSVParser.html#a38c1f808e76080756dc5768f02d4a7a3" target="_top" xlink:title=" ">
<polygon fill="none" stroke="black" points="588,-9.36 588,-39.36 754,-39.36 754,-9.36 588,-9.36"/>
<text text-anchor="start" x="596" y="-27.36" font-family="Helvetica,sans-Serif" font-size="10.00">csv::internals::IBasicCSVParser</text>
<text text-anchor="middle" x="671" y="-16.36" font-family="Helvetica,sans-Serif" font-size="10.00">::current_row_start</text>
</a>
</g>
</g>
<!-- Node12&#45;&gt;Node14 -->
<g id="edge13" class="edge">
<title>Node12&#45;&gt;Node14</title>
<path fill="none" stroke="midnightblue" d="M337.43,-197.33C342.05,-194.54 346.32,-191.25 350,-187.36 395.96,-138.84 334.64,-84.13 386,-41.36 445.18,7.92 537.61,3.48 600.84,-7.53"/>
<polygon fill="midnightblue" stroke="midnightblue" points="600.27,-10.98 610.73,-9.34 601.53,-4.09 600.27,-10.98"/>
</g>
<!-- Node15 -->
<g id="node15" class="node">
<title>Node15</title>
<g id="a_node15"><a xlink:href="classcsv_1_1internals_1_1IBasicCSVParser.html#ab547263c2ad94d3c50fe95f207e10aa0" target="_top" xlink:title=" ">
<polygon fill="none" stroke="black" points="386,-87.36 386,-117.36 552,-117.36 552,-87.36 386,-87.36"/>
<text text-anchor="start" x="394" y="-105.36" font-family="Helvetica,sans-Serif" font-size="10.00">csv::internals::IBasicCSVParser</text>
<text text-anchor="middle" x="469" y="-94.36" font-family="Helvetica,sans-Serif" font-size="10.00">::parse_field</text>
</a>
</g>
</g>
<!-- Node12&#45;&gt;Node15 -->
<g id="edge14" class="edge">
<title>Node12&#45;&gt;Node15</title>
<path fill="none" stroke="midnightblue" d="M333.2,-197.22C339.17,-194.46 344.88,-191.2 350,-187.36 373.37,-169.83 363.12,-150.53 386,-132.36 390.99,-128.4 396.54,-124.94 402.35,-121.91"/>
<polygon fill="midnightblue" stroke="midnightblue" points="404.1,-124.95 411.63,-117.5 401.1,-118.63 404.1,-124.95"/>
</g>
<!-- Node16 -->
<g id="node16" class="node">
<title>Node16</title>
<g id="a_node16"><a xlink:href="classcsv_1_1internals_1_1IBasicCSVParser.html#aa0043fbc17ec967a709115d2ab8debda" target="_top" xlink:title=" ">
<polygon fill="none" stroke="black" points="588,-117.36 588,-147.36 754,-147.36 754,-117.36 588,-117.36"/>
<text text-anchor="start" x="596" y="-135.36" font-family="Helvetica,sans-Serif" font-size="10.00">csv::internals::IBasicCSVParser</text>
<text text-anchor="middle" x="671" y="-124.36" font-family="Helvetica,sans-Serif" font-size="10.00">::ws_flag</text>
</a>
</g>
</g>
<!-- Node12&#45;&gt;Node16 -->
<g id="edge23" class="edge">
<title>Node12&#45;&gt;Node16</title>
<path fill="none" stroke="midnightblue" d="M323.77,-197.27C332.67,-194.32 341.68,-191 350,-187.36 366.97,-179.95 368.44,-172.25 386,-166.36 447.96,-145.58 521.26,-137.18 577.88,-133.92"/>
<polygon fill="midnightblue" stroke="midnightblue" points="578.09,-137.42 587.89,-133.39 577.72,-130.43 578.09,-137.42"/>
</g>
<!-- Node17 -->
<g id="node17" class="node">
<title>Node17</title>
<g id="a_node17"><a xlink:href="classcsv_1_1internals_1_1IBasicCSVParser.html#ab8cb98aa478715485e0a3a15e124666f" target="_top" xlink:title=" ">
<polygon fill="none" stroke="black" points="386,-175.36 386,-205.36 552,-205.36 552,-175.36 386,-175.36"/>
<text text-anchor="start" x="394" y="-193.36" font-family="Helvetica,sans-Serif" font-size="10.00">csv::internals::IBasicCSVParser</text>
<text text-anchor="middle" x="469" y="-182.36" font-family="Helvetica,sans-Serif" font-size="10.00">::trim_utf8_bom</text>
</a>
</g>
</g>
<!-- Node12&#45;&gt;Node17 -->
<g id="edge22" class="edge">
<title>Node12&#45;&gt;Node17</title>
<path fill="none" stroke="midnightblue" d="M350.21,-203.32C358.65,-202.39 367.27,-201.44 375.81,-200.5"/>
<polygon fill="midnightblue" stroke="midnightblue" points="376.23,-203.98 385.78,-199.41 375.46,-197.02 376.23,-203.98"/>
</g>
<!-- Node15&#45;&gt;Node13 -->
<g id="edge15" class="edge">
<title>Node15&#45;&gt;Node13</title>
<path fill="none" stroke="midnightblue" d="M552.21,-93.32C560.65,-92.39 569.27,-91.44 577.81,-90.5"/>
<polygon fill="midnightblue" stroke="midnightblue" points="578.23,-93.98 587.78,-89.41 577.46,-87.02 578.23,-93.98"/>
</g>
<!-- Node15&#45;&gt;Node14 -->
<g id="edge16" class="edge">
<title>Node15&#45;&gt;Node14</title>
<path fill="none" stroke="midnightblue" d="M508.56,-87.32C540.83,-74.74 587.03,-56.72 621.75,-43.18"/>
<polygon fill="midnightblue" stroke="midnightblue" points="623.17,-46.38 631.22,-39.49 620.63,-39.86 623.17,-46.38"/>
</g>
<!-- Node15&#45;&gt;Node16 -->
<g id="edge17" class="edge">
<title>Node15&#45;&gt;Node16</title>
<path fill="none" stroke="midnightblue" d="M552.21,-114.69C560.65,-115.96 569.27,-117.25 577.81,-118.53"/>
<polygon fill="midnightblue" stroke="midnightblue" points="577.37,-122.01 587.78,-120.03 578.41,-115.09 577.37,-122.01"/>
</g>
</g>
</svg>
