<?xml version="1.0" encoding="UTF-8" standalone="no"?>
<!DOCTYPE svg PUBLIC "-//W3C//DTD SVG 1.1//EN"
 "http://www.w3.org/Graphics/SVG/1.1/DTD/svg11.dtd">
<!-- Generated by graphviz version 2.43.0 (0)
 -->
<!-- Title: csv::CSVReader::begin Pages: 1 -->
<svg width="615pt" height="72pt"
 viewBox="0.00 0.00 615.00 71.50" xmlns="http://www.w3.org/2000/svg" xmlns:xlink="http://www.w3.org/1999/xlink">
<g id="graph0" class="graph" transform="scale(1 1) rotate(0) translate(4 67.5)">
<title>csv::CSVReader::begin</title>
<!-- Node1 -->
<g id="node1" class="node">
<title>Node1</title>
<g id="a_node1"><a xlink:title=" ">
<polygon fill="#bfbfbf" stroke="black" points="0,-25 0,-44 125,-44 125,-25 0,-25"/>
<text text-anchor="middle" x="62.5" y="-32" font-family="Helvetica,sans-Serif" font-size="10.00">csv::CSVReader::begin</text>
</a>
</g>
</g>
<!-- Node2 -->
<g id="node2" class="node">
<title>Node2</title>
<g id="a_node2"><a xlink:href="classcsv_1_1CSVReader.html#a6272eabf6c8fc0c8b47ae14640fecfeb" target="_top" xlink:title=" ">
<polygon fill="none" stroke="black" points="174,-44 174,-63 290,-63 290,-44 174,-44"/>
<text text-anchor="middle" x="232" y="-51" font-family="Helvetica,sans-Serif" font-size="10.00">csv::CSVReader::end</text>
</a>
</g>
</g>
<!-- Node1&#45;&gt;Node2 -->
<g id="edge1" class="edge">
<title>Node1&#45;&gt;Node2</title>
<path fill="none" stroke="midnightblue" d="M125.39,-41.52C137.9,-42.94 151.1,-44.44 163.77,-45.87"/>
<polygon fill="midnightblue" stroke="midnightblue" points="163.47,-49.36 173.8,-47.01 164.26,-42.41 163.47,-49.36"/>
</g>
<!-- Node3 -->
<g id="node3" class="node">
<title>Node3</title>
<g id="a_node3"><a xlink:href="group__csv__internal.html#ga5562feee47dfc60d04a139dceed609cc" target="_top" xlink:title=" ">
<polygon fill="none" stroke="black" points="161,-6 161,-25 303,-25 303,-6 161,-6"/>
<text text-anchor="middle" x="232" y="-13" font-family="Helvetica,sans-Serif" font-size="10.00">csv::CSVReader::read_csv</text>
</a>
</g>
</g>
<!-- Node1&#45;&gt;Node3 -->
<g id="edge2" class="edge">
<title>Node1&#45;&gt;Node3</title>
<path fill="none" stroke="midnightblue" d="M125.39,-27.48C133.7,-26.54 142.31,-25.56 150.88,-24.59"/>
<polygon fill="midnightblue" stroke="midnightblue" points="151.34,-28.06 160.89,-23.45 150.56,-21.1 151.34,-28.06"/>
</g>
<!-- Node4 -->
<g id="node4" class="node">
<title>Node4</title>
<g id="a_node4"><a xlink:href="classcsv_1_1CSVReader.html#a042171328b6578d7a61d08d025324c31" target="_top" xlink:title=" ">
<polygon fill="none" stroke="black" points="339,-0.5 339,-30.5 458,-30.5 458,-0.5 339,-0.5"/>
<text text-anchor="start" x="347" y="-18.5" font-family="Helvetica,sans-Serif" font-size="10.00">csv::CSVReader::trim</text>
<text text-anchor="middle" x="398.5" y="-7.5" font-family="Helvetica,sans-Serif" font-size="10.00">_header</text>
</a>
</g>
</g>
<!-- Node3&#45;&gt;Node4 -->
<g id="edge3" class="edge">
<title>Node3&#45;&gt;Node4</title>
<path fill="none" stroke="midnightblue" d="M303.24,-15.5C311.68,-15.5 320.3,-15.5 328.72,-15.5"/>
<polygon fill="midnightblue" stroke="midnightblue" points="328.87,-19 338.87,-15.5 328.87,-12 328.87,-19"/>
</g>
<!-- Node5 -->
<g id="node5" class="node">
<title>Node5</title>
<g id="a_node5"><a xlink:href="group__csv__internal.html#gadf931687a8381e502e6241ae7955512c" target="_top" xlink:title=" ">
<polygon fill="none" stroke="black" points="494,-0.5 494,-30.5 607,-30.5 607,-0.5 494,-0.5"/>
<text text-anchor="start" x="502" y="-18.5" font-family="Helvetica,sans-Serif" font-size="10.00">csv::CSVReader::set</text>
<text text-anchor="middle" x="550.5" y="-7.5" font-family="Helvetica,sans-Serif" font-size="10.00">_col_names</text>
</a>
</g>
</g>
<!-- Node4&#45;&gt;Node5 -->
<g id="edge4" class="edge">
<title>Node4&#45;&gt;Node5</title>
<path fill="none" stroke="midnightblue" d="M458.35,-15.5C466.64,-15.5 475.2,-15.5 483.61,-15.5"/>
<polygon fill="midnightblue" stroke="midnightblue" points="483.76,-19 493.76,-15.5 483.76,-12 483.76,-19"/>
</g>
</g>
</svg>
