<?xml version="1.0" encoding="UTF-8" standalone="no"?>
<!DOCTYPE svg PUBLIC "-//W3C//DTD SVG 1.1//EN"
 "http://www.w3.org/Graphics/SVG/1.1/DTD/svg11.dtd">
<!-- Generated by graphviz version 2.43.0 (0)
 -->
<!-- Title: mio::basic_shared_mmap::map Pages: 1 -->
<svg width="534pt" height="61pt"
 viewBox="0.00 0.00 534.00 61.00" xmlns="http://www.w3.org/2000/svg" xmlns:xlink="http://www.w3.org/1999/xlink">
<g id="graph0" class="graph" transform="scale(1 1) rotate(0) translate(4 57)">
<title>mio::basic_shared_mmap::map</title>
<!-- Node1 -->
<g id="node1" class="node">
<title>Node1</title>
<g id="a_node1"><a xlink:title=" ">
<polygon fill="#bfbfbf" stroke="black" points="0,-28 0,-47 170,-47 170,-28 0,-28"/>
<text text-anchor="middle" x="85" y="-35" font-family="Helvetica,sans-Serif" font-size="10.00">mio::basic_shared_mmap::map</text>
</a>
</g>
</g>
<!-- Node2 -->
<g id="node2" class="node">
<title>Node2</title>
<g id="a_node2"><a xlink:href="classmio_1_1basic__shared__mmap.html#a0fe605bfc8b0f382f0000d67733dafad" target="_top" xlink:title=" ">
<polygon fill="none" stroke="black" points="384,-22.5 384,-52.5 526,-52.5 526,-22.5 384,-22.5"/>
<text text-anchor="start" x="392" y="-40.5" font-family="Helvetica,sans-Serif" font-size="10.00">mio::basic_shared_mmap</text>
<text text-anchor="middle" x="455" y="-29.5" font-family="Helvetica,sans-Serif" font-size="10.00">::length</text>
</a>
</g>
</g>
<!-- Node1&#45;&gt;Node2 -->
<g id="edge1" class="edge">
<title>Node1&#45;&gt;Node2</title>
<path fill="none" stroke="midnightblue" d="M170.24,-39.87C182.24,-40.13 194.43,-40.36 206,-40.5 269.11,-41.29 284.9,-41.39 348,-40.5 356.34,-40.38 365.04,-40.21 373.72,-40.01"/>
<polygon fill="midnightblue" stroke="midnightblue" points="373.96,-43.51 383.87,-39.76 373.79,-36.51 373.96,-43.51"/>
</g>
<!-- Node3 -->
<g id="node3" class="node">
<title>Node3</title>
<g id="a_node3"><a xlink:href="classmio_1_1basic__shared__mmap.html#a7ff21ac9a9c725d7d61ddfc640da79fa" target="_top" xlink:title=" ">
<polygon fill="none" stroke="black" points="206,-0.5 206,-30.5 348,-30.5 348,-0.5 206,-0.5"/>
<text text-anchor="start" x="214" y="-18.5" font-family="Helvetica,sans-Serif" font-size="10.00">mio::basic_shared_mmap</text>
<text text-anchor="middle" x="277" y="-7.5" font-family="Helvetica,sans-Serif" font-size="10.00">::map_impl</text>
</a>
</g>
</g>
<!-- Node1&#45;&gt;Node3 -->
<g id="edge2" class="edge">
<title>Node1&#45;&gt;Node3</title>
<path fill="none" stroke="midnightblue" d="M168.23,-27.98C177.34,-26.92 186.61,-25.85 195.69,-24.8"/>
<polygon fill="midnightblue" stroke="midnightblue" points="196.32,-28.25 205.85,-23.62 195.52,-21.3 196.32,-28.25"/>
</g>
<!-- Node3&#45;&gt;Node2 -->
<g id="edge3" class="edge">
<title>Node3&#45;&gt;Node2</title>
<path fill="none" stroke="midnightblue" d="M348.07,-24.26C356.54,-25.32 365.25,-26.41 373.85,-27.48"/>
<polygon fill="midnightblue" stroke="midnightblue" points="373.53,-30.97 383.89,-28.74 374.4,-24.02 373.53,-30.97"/>
</g>
</g>
</svg>
