<?xml version="1.0" encoding="UTF-8" standalone="no"?>
<!DOCTYPE svg PUBLIC "-//W3C//DTD SVG 1.1//EN"
 "http://www.w3.org/Graphics/SVG/1.1/DTD/svg11.dtd">
<!-- Generated by graphviz version 2.43.0 (0)
 -->
<!-- Title: csv::CSVRow::operator[] Pages: 1 -->
<svg width="443pt" height="28pt"
 viewBox="0.00 0.00 443.00 28.00" xmlns="http://www.w3.org/2000/svg" xmlns:xlink="http://www.w3.org/1999/xlink">
<g id="graph0" class="graph" transform="scale(1 1) rotate(0) translate(4 24)">
<title>csv::CSVRow::operator[]</title>
<!-- Node1 -->
<g id="node1" class="node">
<title>Node1</title>
<g id="a_node1"><a xlink:title=" ">
<polygon fill="#bfbfbf" stroke="black" points="0,-0.5 0,-19.5 133,-19.5 133,-0.5 0,-0.5"/>
<text text-anchor="middle" x="66.5" y="-7.5" font-family="Helvetica,sans-Serif" font-size="10.00">csv::CSVRow::operator[]</text>
</a>
</g>
</g>
<!-- Node2 -->
<g id="node2" class="node">
<title>Node2</title>
<g id="a_node2"><a xlink:href="classcsv_1_1CSVRow.html#ad5d0e29fef19358c61b89ca5d49c6369" target="_top" xlink:title=" ">
<polygon fill="none" stroke="black" points="169,-0.5 169,-19.5 295,-19.5 295,-0.5 169,-0.5"/>
<text text-anchor="middle" x="232" y="-7.5" font-family="Helvetica,sans-Serif" font-size="10.00">csv::CSVRow::get_field</text>
</a>
</g>
</g>
<!-- Node1&#45;&gt;Node2 -->
<g id="edge1" class="edge">
<title>Node1&#45;&gt;Node2</title>
<path fill="none" stroke="midnightblue" d="M133.06,-10C141.46,-10 150.1,-10 158.6,-10"/>
<polygon fill="midnightblue" stroke="midnightblue" points="158.88,-13.5 168.88,-10 158.88,-6.5 158.88,-13.5"/>
</g>
<!-- Node3 -->
<g id="node3" class="node">
<title>Node3</title>
<g id="a_node3"><a xlink:href="classcsv_1_1CSVRow.html#ab70c127ad2afc4cf4eb9d2c7f1cea253" target="_top" xlink:title=" ">
<polygon fill="none" stroke="black" points="331,-0.5 331,-19.5 435,-19.5 435,-0.5 331,-0.5"/>
<text text-anchor="middle" x="383" y="-7.5" font-family="Helvetica,sans-Serif" font-size="10.00">csv::CSVRow::size</text>
</a>
</g>
</g>
<!-- Node2&#45;&gt;Node3 -->
<g id="edge2" class="edge">
<title>Node2&#45;&gt;Node3</title>
<path fill="none" stroke="midnightblue" d="M295.33,-10C303.72,-10 312.32,-10 320.69,-10"/>
<polygon fill="midnightblue" stroke="midnightblue" points="320.76,-13.5 330.76,-10 320.76,-6.5 320.76,-13.5"/>
</g>
</g>
</svg>
