<?xml version="1.0" encoding="UTF-8" standalone="no"?>
<!DOCTYPE svg PUBLIC "-//W3C//DTD SVG 1.1//EN"
 "http://www.w3.org/Graphics/SVG/1.1/DTD/svg11.dtd">
<!-- Generated by graphviz version 2.43.0 (0)
 -->
<!-- Title: csv::CSVStat::CSVStat Pages: 1 -->
<svg width="1026pt" height="285pt"
 viewBox="0.00 0.00 1026.00 284.50" xmlns="http://www.w3.org/2000/svg" xmlns:xlink="http://www.w3.org/1999/xlink">
<g id="graph0" class="graph" transform="scale(1 1) rotate(0) translate(4 280.5)">
<title>csv::CSVStat::CSVStat</title>
<!-- Node1 -->
<g id="node1" class="node">
<title>Node1</title>
<g id="a_node1"><a xlink:title=" ">
<polygon fill="#bfbfbf" stroke="black" points="0,-106.5 0,-125.5 122,-125.5 122,-106.5 0,-106.5"/>
<text text-anchor="middle" x="61" y="-113.5" font-family="Helvetica,sans-Serif" font-size="10.00">csv::CSVStat::CSVStat</text>
</a>
</g>
</g>
<!-- Node2 -->
<g id="node2" class="node">
<title>Node2</title>
<g id="a_node2"><a xlink:href="classcsv_1_1CSVStat.html#a8bbe9ad69ffabdc99ca7d82c5ae32b94" target="_top" xlink:title=" ">
<polygon fill="none" stroke="black" points="158,-106.5 158,-125.5 261,-125.5 261,-106.5 158,-106.5"/>
<text text-anchor="middle" x="209.5" y="-113.5" font-family="Helvetica,sans-Serif" font-size="10.00">csv::CSVStat::calc</text>
</a>
</g>
</g>
<!-- Node1&#45;&gt;Node2 -->
<g id="edge1" class="edge">
<title>Node1&#45;&gt;Node2</title>
<path fill="none" stroke="midnightblue" d="M122.01,-116C130.44,-116 139.11,-116 147.55,-116"/>
<polygon fill="midnightblue" stroke="midnightblue" points="147.71,-119.5 157.71,-116 147.71,-112.5 147.71,-119.5"/>
</g>
<!-- Node3 -->
<g id="node3" class="node">
<title>Node3</title>
<g id="a_node3"><a xlink:href="classcsv_1_1CSVStat.html#afefcfb1415757e386fada501373556c6" target="_top" xlink:title=" ">
<polygon fill="none" stroke="black" points="297,-101 297,-131 400,-131 400,-101 297,-101"/>
<text text-anchor="start" x="305" y="-119" font-family="Helvetica,sans-Serif" font-size="10.00">csv::CSVStat::calc</text>
<text text-anchor="middle" x="348.5" y="-108" font-family="Helvetica,sans-Serif" font-size="10.00">_chunk</text>
</a>
</g>
</g>
<!-- Node2&#45;&gt;Node3 -->
<g id="edge2" class="edge">
<title>Node2&#45;&gt;Node3</title>
<path fill="none" stroke="midnightblue" d="M261.12,-116C269.36,-116 277.97,-116 286.42,-116"/>
<polygon fill="midnightblue" stroke="midnightblue" points="286.63,-119.5 296.63,-116 286.63,-112.5 286.63,-119.5"/>
</g>
<!-- Node4 -->
<g id="node4" class="node">
<title>Node4</title>
<g id="a_node4"><a xlink:href="classcsv_1_1CSVStat.html#ab76cae232af667b05a3032e26f1c8df2" target="_top" xlink:title=" ">
<polygon fill="none" stroke="black" points="444,-126 444,-156 547,-156 547,-126 444,-126"/>
<text text-anchor="start" x="452" y="-144" font-family="Helvetica,sans-Serif" font-size="10.00">csv::CSVStat::calc</text>
<text text-anchor="middle" x="495.5" y="-133" font-family="Helvetica,sans-Serif" font-size="10.00">_worker</text>
</a>
</g>
</g>
<!-- Node3&#45;&gt;Node4 -->
<g id="edge3" class="edge">
<title>Node3&#45;&gt;Node4</title>
<path fill="none" stroke="midnightblue" d="M400.21,-124.74C410.97,-126.6 422.43,-128.57 433.52,-130.49"/>
<polygon fill="midnightblue" stroke="midnightblue" points="433.12,-133.97 443.57,-132.22 434.31,-127.07 433.12,-133.97"/>
</g>
<!-- Node15 -->
<g id="node15" class="node">
<title>Node15</title>
<g id="a_node15"><a xlink:href="classcsv_1_1CSVStat.html#a563a6d0a14fd21daffe7ec2b562a49aa" target="_top" xlink:title=" ">
<polygon fill="none" stroke="black" points="436,-77 436,-107 555,-107 555,-77 436,-77"/>
<text text-anchor="start" x="444" y="-95" font-family="Helvetica,sans-Serif" font-size="10.00">csv::CSVStat::get_col</text>
<text text-anchor="middle" x="495.5" y="-84" font-family="Helvetica,sans-Serif" font-size="10.00">_names</text>
</a>
</g>
</g>
<!-- Node3&#45;&gt;Node15 -->
<g id="edge14" class="edge">
<title>Node3&#45;&gt;Node15</title>
<path fill="none" stroke="midnightblue" d="M400.21,-107.61C408.49,-106.24 417.18,-104.8 425.81,-103.37"/>
<polygon fill="midnightblue" stroke="midnightblue" points="426.57,-106.79 435.87,-101.7 425.43,-99.88 426.57,-106.79"/>
</g>
<!-- Node5 -->
<g id="node5" class="node">
<title>Node5</title>
<g id="a_node5"><a xlink:href="classcsv_1_1CSVStat.html#a6c79ba172dcfd88767ca04837a4b9199" target="_top" xlink:title=" ">
<polygon fill="none" stroke="black" points="607.5,-251.5 607.5,-270.5 717.5,-270.5 717.5,-251.5 607.5,-251.5"/>
<text text-anchor="middle" x="662.5" y="-258.5" font-family="Helvetica,sans-Serif" font-size="10.00">csv::CSVStat::count</text>
</a>
</g>
</g>
<!-- Node4&#45;&gt;Node5 -->
<g id="edge4" class="edge">
<title>Node4&#45;&gt;Node5</title>
<path fill="none" stroke="midnightblue" d="M506.49,-156.16C521.93,-178.4 553.74,-219.62 591,-242 594.61,-244.17 598.46,-246.09 602.44,-247.8"/>
<polygon fill="midnightblue" stroke="midnightblue" points="601.31,-251.11 611.9,-251.4 603.8,-244.57 601.31,-251.11"/>
</g>
<!-- Node8 -->
<g id="node8" class="node">
<title>Node8</title>
<g id="a_node8"><a xlink:href="classcsv_1_1CSVStat.html#a816a7d2ccff1a8e7a7b19cf4aa2c391b" target="_top" xlink:title=" ">
<polygon fill="none" stroke="black" points="607,-213.5 607,-232.5 718,-232.5 718,-213.5 607,-213.5"/>
<text text-anchor="middle" x="662.5" y="-220.5" font-family="Helvetica,sans-Serif" font-size="10.00">csv::CSVStat::dtype</text>
</a>
</g>
</g>
<!-- Node4&#45;&gt;Node8 -->
<g id="edge7" class="edge">
<title>Node4&#45;&gt;Node8</title>
<path fill="none" stroke="midnightblue" d="M515.32,-156.24C533.65,-170.42 562.8,-191.22 591,-204 596.25,-206.38 601.86,-208.52 607.54,-210.42"/>
<polygon fill="midnightblue" stroke="midnightblue" points="606.51,-213.76 617.1,-213.4 608.6,-207.08 606.51,-213.76"/>
</g>
<!-- Node10 -->
<g id="node10" class="node">
<title>Node10</title>
<g id="a_node10"><a xlink:href="namespacecsv_1_1internals.html#a7a29f891eb1f9ffc81445b02e57b1e12" target="_top" xlink:title=" ">
<polygon fill="none" stroke="black" points="591,-175.5 591,-194.5 734,-194.5 734,-175.5 591,-175.5"/>
<text text-anchor="middle" x="662.5" y="-182.5" font-family="Helvetica,sans-Serif" font-size="10.00">csv::internals::format_row</text>
</a>
</g>
</g>
<!-- Node4&#45;&gt;Node10 -->
<g id="edge9" class="edge">
<title>Node4&#45;&gt;Node10</title>
<path fill="none" stroke="midnightblue" d="M547.35,-154.56C569.26,-160.4 594.68,-167.18 615.96,-172.86"/>
<polygon fill="midnightblue" stroke="midnightblue" points="615.16,-176.27 625.73,-175.46 616.97,-169.5 615.16,-176.27"/>
</g>
<!-- Node11 -->
<g id="node11" class="node">
<title>Node11</title>
<g id="a_node11"><a xlink:href="classcsv_1_1CSVReader.html#a6faa83a2169dc1ad10715f94410f47da" target="_top" xlink:title=" ">
<polygon fill="none" stroke="black" points="605.5,-126 605.5,-156 719.5,-156 719.5,-126 605.5,-126"/>
<text text-anchor="start" x="613.5" y="-144" font-family="Helvetica,sans-Serif" font-size="10.00">csv::CSVReader::get</text>
<text text-anchor="middle" x="662.5" y="-133" font-family="Helvetica,sans-Serif" font-size="10.00">_format</text>
</a>
</g>
</g>
<!-- Node4&#45;&gt;Node11 -->
<g id="edge10" class="edge">
<title>Node4&#45;&gt;Node11</title>
<path fill="none" stroke="midnightblue" d="M547.35,-141C562.42,-141 579.15,-141 595.05,-141"/>
<polygon fill="midnightblue" stroke="midnightblue" points="595.36,-144.5 605.36,-141 595.36,-137.5 595.36,-144.5"/>
</g>
<!-- Node12 -->
<g id="node12" class="node">
<title>Node12</title>
<g id="a_node12"><a xlink:href="classcsv_1_1CSVFormat.html#a60406363f83a897025f39b3437857202" target="_top" xlink:title=" ">
<polygon fill="none" stroke="black" points="594,-77 594,-107 731,-107 731,-77 594,-77"/>
<text text-anchor="start" x="602" y="-95" font-family="Helvetica,sans-Serif" font-size="10.00">csv::CSVFormat::get</text>
<text text-anchor="middle" x="662.5" y="-84" font-family="Helvetica,sans-Serif" font-size="10.00">_variable_column_policy</text>
</a>
</g>
</g>
<!-- Node4&#45;&gt;Node12 -->
<g id="edge11" class="edge">
<title>Node4&#45;&gt;Node12</title>
<path fill="none" stroke="midnightblue" d="M547.35,-125.9C564.37,-120.84 583.5,-115.16 601.17,-109.92"/>
<polygon fill="midnightblue" stroke="midnightblue" points="602.23,-113.25 610.82,-107.05 600.23,-106.54 602.23,-113.25"/>
</g>
<!-- Node13 -->
<g id="node13" class="node">
<title>Node13</title>
<g id="a_node13"><a xlink:href="classcsv_1_1CSVStat.html#a946764003492839cfec92a1ee2f7fdb0" target="_top" xlink:title=" ">
<polygon fill="none" stroke="black" points="598,-38.5 598,-57.5 727,-57.5 727,-38.5 598,-38.5"/>
<text text-anchor="middle" x="662.5" y="-45.5" font-family="Helvetica,sans-Serif" font-size="10.00">csv::CSVStat::min_max</text>
</a>
</g>
</g>
<!-- Node4&#45;&gt;Node13 -->
<g id="edge12" class="edge">
<title>Node4&#45;&gt;Node13</title>
<path fill="none" stroke="midnightblue" d="M540.77,-125.95C545.81,-123.35 550.67,-120.38 555,-117 576.29,-100.36 568.8,-83.41 591,-68 594.53,-65.55 598.35,-63.4 602.33,-61.51"/>
<polygon fill="midnightblue" stroke="midnightblue" points="603.94,-64.63 611.83,-57.56 601.25,-58.17 603.94,-64.63"/>
</g>
<!-- Node14 -->
<g id="node14" class="node">
<title>Node14</title>
<g id="a_node14"><a xlink:href="classcsv_1_1CSVStat.html#a053fe0a59f65c30dff7ce5f522c19684" target="_top" xlink:title=" ">
<polygon fill="none" stroke="black" points="600,-0.5 600,-19.5 725,-19.5 725,-0.5 600,-0.5"/>
<text text-anchor="middle" x="662.5" y="-7.5" font-family="Helvetica,sans-Serif" font-size="10.00">csv::CSVStat::variance</text>
</a>
</g>
</g>
<!-- Node4&#45;&gt;Node14 -->
<g id="edge13" class="edge">
<title>Node4&#45;&gt;Node14</title>
<path fill="none" stroke="midnightblue" d="M543.39,-125.91C547.62,-123.37 551.59,-120.42 555,-117 584.87,-87.1 559.31,-56.95 591,-29 592.78,-27.43 594.67,-25.99 596.65,-24.67"/>
<polygon fill="midnightblue" stroke="midnightblue" points="598.78,-27.49 605.84,-19.59 595.39,-21.37 598.78,-27.49"/>
</g>
<!-- Node6 -->
<g id="node6" class="node">
<title>Node6</title>
<g id="a_node6"><a xlink:href="classcsv_1_1CSVField.html#a67ff24172c5ac52417bbc36697511644" target="_top" xlink:title=" ">
<polygon fill="none" stroke="black" points="773,-251.5 773,-270.5 876,-270.5 876,-251.5 773,-251.5"/>
<text text-anchor="middle" x="824.5" y="-258.5" font-family="Helvetica,sans-Serif" font-size="10.00">csv::CSVField::get</text>
</a>
</g>
</g>
<!-- Node5&#45;&gt;Node6 -->
<g id="edge5" class="edge">
<title>Node5&#45;&gt;Node6</title>
<path fill="none" stroke="midnightblue" d="M717.67,-261C732.18,-261 747.96,-261 762.8,-261"/>
<polygon fill="midnightblue" stroke="midnightblue" points="762.9,-264.5 772.9,-261 762.9,-257.5 762.9,-264.5"/>
</g>
<!-- Node7 -->
<g id="node7" class="node">
<title>Node7</title>
<g id="a_node7"><a xlink:href="namespacecsv_1_1internals.html#aea0130dd0f026d5617e08025e6298864" target="_top" xlink:title=" ">
<polygon fill="none" stroke="black" points="915,-246 915,-276 1018,-276 1018,-246 915,-246"/>
<text text-anchor="start" x="923" y="-264" font-family="Helvetica,sans-Serif" font-size="10.00">csv::internals::get</text>
<text text-anchor="middle" x="966.5" y="-253" font-family="Helvetica,sans-Serif" font-size="10.00">_uint_max</text>
</a>
</g>
</g>
<!-- Node6&#45;&gt;Node7 -->
<g id="edge6" class="edge">
<title>Node6&#45;&gt;Node7</title>
<path fill="none" stroke="midnightblue" d="M876.04,-261C885.25,-261 894.94,-261 904.41,-261"/>
<polygon fill="midnightblue" stroke="midnightblue" points="904.56,-264.5 914.56,-261 904.56,-257.5 904.56,-264.5"/>
</g>
<!-- Node9 -->
<g id="node9" class="node">
<title>Node9</title>
<g id="a_node9"><a xlink:href="classcsv_1_1CSVField.html#a60a6452ff1ddea2d8be46a04fc646166" target="_top" xlink:title=" ">
<polygon fill="none" stroke="black" points="770,-213.5 770,-232.5 879,-232.5 879,-213.5 770,-213.5"/>
<text text-anchor="middle" x="824.5" y="-220.5" font-family="Helvetica,sans-Serif" font-size="10.00">csv::CSVField::type</text>
</a>
</g>
</g>
<!-- Node8&#45;&gt;Node9 -->
<g id="edge8" class="edge">
<title>Node8&#45;&gt;Node9</title>
<path fill="none" stroke="midnightblue" d="M718.12,-223C731.46,-223 745.86,-223 759.6,-223"/>
<polygon fill="midnightblue" stroke="midnightblue" points="759.94,-226.5 769.94,-223 759.94,-219.5 759.94,-226.5"/>
</g>
</g>
</svg>
