<?xml version="1.0" encoding="UTF-8" standalone="no"?>
<!DOCTYPE svg PUBLIC "-//W3C//DTD SVG 1.1//EN"
 "http://www.w3.org/Graphics/SVG/1.1/DTD/svg11.dtd">
<!-- Generated by graphviz version 2.43.0 (0)
 -->
<!-- Title: csv::CSVRow::operator[] Pages: 1 -->
<svg width="612pt" height="28pt"
 viewBox="0.00 0.00 612.00 28.00" xmlns="http://www.w3.org/2000/svg" xmlns:xlink="http://www.w3.org/1999/xlink">
<g id="graph0" class="graph" transform="scale(1 1) rotate(0) translate(4 24)">
<title>csv::CSVRow::operator[]</title>
<!-- Node1 -->
<g id="node1" class="node">
<title>Node1</title>
<g id="a_node1"><a xlink:title=" ">
<polygon fill="#bfbfbf" stroke="black" points="0,-0.5 0,-19.5 133,-19.5 133,-0.5 0,-0.5"/>
<text text-anchor="middle" x="66.5" y="-7.5" font-family="Helvetica,sans-Serif" font-size="10.00">csv::CSVRow::operator[]</text>
</a>
</g>
</g>
<!-- Node2 -->
<g id="node2" class="node">
<title>Node2</title>
<g id="a_node2"><a xlink:href="classcsv_1_1CSVRow.html#a010ec4c338ba15463d1b86352bcd272e" target="_top" xlink:title=" ">
<polygon fill="none" stroke="black" points="169,-0.5 169,-19.5 302,-19.5 302,-0.5 169,-0.5"/>
<text text-anchor="middle" x="235.5" y="-7.5" font-family="Helvetica,sans-Serif" font-size="10.00">csv::CSVRow::operator[]</text>
</a>
</g>
</g>
<!-- Node1&#45;&gt;Node2 -->
<g id="edge1" class="edge">
<title>Node1&#45;&gt;Node2</title>
<path fill="none" stroke="midnightblue" d="M133.02,-10C141.5,-10 150.23,-10 158.85,-10"/>
<polygon fill="midnightblue" stroke="midnightblue" points="158.89,-13.5 168.89,-10 158.89,-6.5 158.89,-13.5"/>
</g>
<!-- Node3 -->
<g id="node3" class="node">
<title>Node3</title>
<g id="a_node3"><a xlink:href="classcsv_1_1CSVRow.html#ad5d0e29fef19358c61b89ca5d49c6369" target="_top" xlink:title=" ">
<polygon fill="none" stroke="black" points="338,-0.5 338,-19.5 464,-19.5 464,-0.5 338,-0.5"/>
<text text-anchor="middle" x="401" y="-7.5" font-family="Helvetica,sans-Serif" font-size="10.00">csv::CSVRow::get_field</text>
</a>
</g>
</g>
<!-- Node2&#45;&gt;Node3 -->
<g id="edge2" class="edge">
<title>Node2&#45;&gt;Node3</title>
<path fill="none" stroke="midnightblue" d="M302.06,-10C310.46,-10 319.1,-10 327.6,-10"/>
<polygon fill="midnightblue" stroke="midnightblue" points="327.88,-13.5 337.88,-10 327.88,-6.5 327.88,-13.5"/>
</g>
<!-- Node4 -->
<g id="node4" class="node">
<title>Node4</title>
<g id="a_node4"><a xlink:href="classcsv_1_1CSVRow.html#ab70c127ad2afc4cf4eb9d2c7f1cea253" target="_top" xlink:title=" ">
<polygon fill="none" stroke="black" points="500,-0.5 500,-19.5 604,-19.5 604,-0.5 500,-0.5"/>
<text text-anchor="middle" x="552" y="-7.5" font-family="Helvetica,sans-Serif" font-size="10.00">csv::CSVRow::size</text>
</a>
</g>
</g>
<!-- Node3&#45;&gt;Node4 -->
<g id="edge3" class="edge">
<title>Node3&#45;&gt;Node4</title>
<path fill="none" stroke="midnightblue" d="M464.33,-10C472.72,-10 481.32,-10 489.69,-10"/>
<polygon fill="midnightblue" stroke="midnightblue" points="489.76,-13.5 499.76,-10 489.76,-6.5 489.76,-13.5"/>
</g>
</g>
</svg>
