<?xml version="1.0" encoding="UTF-8" standalone="no"?>
<!DOCTYPE svg PUBLIC "-//W3C//DTD SVG 1.1//EN"
 "http://www.w3.org/Graphics/SVG/1.1/DTD/svg11.dtd">
<!-- Generated by graphviz version 2.43.0 (0)
 -->
<!-- Title: nmbuflowtorch::Layer Pages: 1 -->
<svg width="286pt" height="235pt"
 viewBox="0.00 0.00 286.00 235.00" xmlns="http://www.w3.org/2000/svg" xmlns:xlink="http://www.w3.org/1999/xlink">
<g id="graph0" class="graph" transform="scale(1 1) rotate(0) translate(4 231)">
<title>nmbuflowtorch::Layer</title>
<!-- Node1 -->
<g id="node1" class="node">
<title>Node1</title>
<g id="a_node1"><a xlink:title="The base layer class for neural network models.">
<polygon fill="#bfbfbf" stroke="black" points="0,-104 0,-123 122,-123 122,-104 0,-104"/>
<text text-anchor="middle" x="61" y="-111" font-family="Helvetica,sans-Serif" font-size="10.00">nmbuflowtorch::Layer</text>
</a>
</g>
</g>
<!-- Node2 -->
<g id="node2" class="node">
<title>Node2</title>
<g id="a_node2"><a xlink:href="classnmbuflowtorch_1_1layer_1_1Convolutional.html" target="_top" xlink:title=" ">
<polygon fill="none" stroke="black" points="158,-196.5 158,-226.5 278,-226.5 278,-196.5 158,-196.5"/>
<text text-anchor="start" x="166" y="-214.5" font-family="Helvetica,sans-Serif" font-size="10.00">nmbuflowtorch::layer</text>
<text text-anchor="middle" x="218" y="-203.5" font-family="Helvetica,sans-Serif" font-size="10.00">::Convolutional</text>
</a>
</g>
</g>
<!-- Node1&#45;&gt;Node2 -->
<g id="edge1" class="edge">
<title>Node1&#45;&gt;Node2</title>
<path fill="none" stroke="midnightblue" d="M80.21,-129.97C98.77,-146.15 128.89,-170.77 158,-187.5 163.56,-190.7 169.63,-193.67 175.69,-196.37"/>
<polygon fill="midnightblue" stroke="midnightblue" points="82.35,-127.19 72.54,-123.19 77.72,-132.44 82.35,-127.19"/>
</g>
<!-- Node3 -->
<g id="node3" class="node">
<title>Node3</title>
<g id="a_node3"><a xlink:href="classnmbuflowtorch_1_1layer_1_1Dense.html" target="_top" xlink:title=" ">
<polygon fill="none" stroke="black" points="158,-147.5 158,-177.5 278,-177.5 278,-147.5 158,-147.5"/>
<text text-anchor="start" x="166" y="-165.5" font-family="Helvetica,sans-Serif" font-size="10.00">nmbuflowtorch::layer</text>
<text text-anchor="middle" x="218" y="-154.5" font-family="Helvetica,sans-Serif" font-size="10.00">::Dense</text>
</a>
</g>
</g>
<!-- Node1&#45;&gt;Node3 -->
<g id="edge2" class="edge">
<title>Node1&#45;&gt;Node3</title>
<path fill="none" stroke="midnightblue" d="M101.96,-126.13C122.56,-132.64 147.83,-140.63 169.43,-147.46"/>
<polygon fill="midnightblue" stroke="midnightblue" points="102.84,-122.74 92.25,-123.06 100.73,-129.42 102.84,-122.74"/>
</g>
<!-- Node4 -->
<g id="node4" class="node">
<title>Node4</title>
<g id="a_node4"><a xlink:href="classnmbuflowtorch_1_1layer_1_1ReLU.html" target="_top" xlink:title=" ">
<polygon fill="none" stroke="black" points="158,-98.5 158,-128.5 278,-128.5 278,-98.5 158,-98.5"/>
<text text-anchor="start" x="166" y="-116.5" font-family="Helvetica,sans-Serif" font-size="10.00">nmbuflowtorch::layer</text>
<text text-anchor="middle" x="218" y="-105.5" font-family="Helvetica,sans-Serif" font-size="10.00">::ReLU</text>
</a>
</g>
</g>
<!-- Node1&#45;&gt;Node4 -->
<g id="edge3" class="edge">
<title>Node1&#45;&gt;Node4</title>
<path fill="none" stroke="midnightblue" d="M132.58,-113.5C141.01,-113.5 149.56,-113.5 157.81,-113.5"/>
<polygon fill="midnightblue" stroke="midnightblue" points="132.37,-110 122.37,-113.5 132.37,-117 132.37,-110"/>
</g>
<!-- Node5 -->
<g id="node5" class="node">
<title>Node5</title>
<g id="a_node5"><a xlink:href="classnmbuflowtorch_1_1layer_1_1Sigmoid.html" target="_top" xlink:title=" ">
<polygon fill="none" stroke="black" points="158,-49.5 158,-79.5 278,-79.5 278,-49.5 158,-49.5"/>
<text text-anchor="start" x="166" y="-67.5" font-family="Helvetica,sans-Serif" font-size="10.00">nmbuflowtorch::layer</text>
<text text-anchor="middle" x="218" y="-56.5" font-family="Helvetica,sans-Serif" font-size="10.00">::Sigmoid</text>
</a>
</g>
</g>
<!-- Node1&#45;&gt;Node5 -->
<g id="edge4" class="edge">
<title>Node1&#45;&gt;Node5</title>
<path fill="none" stroke="midnightblue" d="M101.96,-100.87C122.56,-94.36 147.83,-86.37 169.43,-79.54"/>
<polygon fill="midnightblue" stroke="midnightblue" points="100.73,-97.58 92.25,-103.94 102.84,-104.26 100.73,-97.58"/>
</g>
<!-- Node6 -->
<g id="node6" class="node">
<title>Node6</title>
<g id="a_node6"><a xlink:href="classnmbuflowtorch_1_1layer_1_1Softmax.html" target="_top" xlink:title="Implements the forward and backward propagation of the softmax function.">
<polygon fill="none" stroke="black" points="158,-0.5 158,-30.5 278,-30.5 278,-0.5 158,-0.5"/>
<text text-anchor="start" x="166" y="-18.5" font-family="Helvetica,sans-Serif" font-size="10.00">nmbuflowtorch::layer</text>
<text text-anchor="middle" x="218" y="-7.5" font-family="Helvetica,sans-Serif" font-size="10.00">::Softmax</text>
</a>
</g>
</g>
<!-- Node1&#45;&gt;Node6 -->
<g id="edge5" class="edge">
<title>Node1&#45;&gt;Node6</title>
<path fill="none" stroke="midnightblue" d="M80.61,-97.1C99.26,-81.22 129.26,-57.17 158,-40.5 164.16,-36.93 170.93,-33.58 177.61,-30.57"/>
<polygon fill="midnightblue" stroke="midnightblue" points="78.17,-94.58 72.88,-103.77 82.74,-99.88 78.17,-94.58"/>
</g>
</g>
</svg>
