<?xml version="1.0" encoding="UTF-8" standalone="no"?>
<!DOCTYPE svg PUBLIC "-//W3C//DTD SVG 1.1//EN"
 "http://www.w3.org/Graphics/SVG/1.1/DTD/svg11.dtd">
<!-- Generated by graphviz version 2.43.0 (0)
 -->
<!-- Title: nmbuflowtorch::Network::train_one_epoch Pages: 1 -->
<svg width="687pt" height="274pt"
 viewBox="0.00 0.00 687.00 274.00" xmlns="http://www.w3.org/2000/svg" xmlns:xlink="http://www.w3.org/1999/xlink">
<g id="graph0" class="graph" transform="scale(1 1) rotate(0) translate(4 270)">
<title>nmbuflowtorch::Network::train_one_epoch</title>
<!-- Node1 -->
<g id="node1" class="node">
<title>Node1</title>
<g id="a_node1"><a xlink:title="Trains all batches in X and y for one epoch.">
<polygon fill="#bfbfbf" stroke="black" points="0,-120.5 0,-150.5 137,-150.5 137,-120.5 0,-120.5"/>
<text text-anchor="start" x="8" y="-138.5" font-family="Helvetica,sans-Serif" font-size="10.00">nmbuflowtorch::Network</text>
<text text-anchor="middle" x="68.5" y="-127.5" font-family="Helvetica,sans-Serif" font-size="10.00">::train_one_epoch</text>
</a>
</g>
</g>
<!-- Node2 -->
<g id="node2" class="node">
<title>Node2</title>
<g id="a_node2"><a xlink:href="namespacenmbuflowtorch.html#a6841de6f2ac014f91c37f7f2c0e9cc1e" target="_top" xlink:title="Prints a progress bar to the console.">
<polygon fill="none" stroke="black" points="173,-148 173,-167 333,-167 333,-148 173,-148"/>
<text text-anchor="middle" x="253" y="-155" font-family="Helvetica,sans-Serif" font-size="10.00">nmbuflowtorch::printProgress</text>
</a>
</g>
</g>
<!-- Node1&#45;&gt;Node2 -->
<g id="edge1" class="edge">
<title>Node1&#45;&gt;Node2</title>
<path fill="none" stroke="midnightblue" d="M137.2,-143.66C145.58,-144.67 154.25,-145.72 162.89,-146.76"/>
<polygon fill="midnightblue" stroke="midnightblue" points="162.66,-150.26 173.01,-147.98 163.5,-143.31 162.66,-150.26"/>
</g>
<!-- Node3 -->
<g id="node3" class="node">
<title>Node3</title>
<g id="a_node3"><a xlink:href="classnmbuflowtorch_1_1Network.html#ac5f07dc09b1d352567d6cbcc3c38c010" target="_top" xlink:title="Forward, backward, and update functions combined for one batch of data.">
<polygon fill="none" stroke="black" points="184.5,-98.5 184.5,-128.5 321.5,-128.5 321.5,-98.5 184.5,-98.5"/>
<text text-anchor="start" x="192.5" y="-116.5" font-family="Helvetica,sans-Serif" font-size="10.00">nmbuflowtorch::Network</text>
<text text-anchor="middle" x="253" y="-105.5" font-family="Helvetica,sans-Serif" font-size="10.00">::train_batch</text>
</a>
</g>
</g>
<!-- Node1&#45;&gt;Node3 -->
<g id="edge2" class="edge">
<title>Node1&#45;&gt;Node3</title>
<path fill="none" stroke="midnightblue" d="M137.2,-127.34C149.24,-125.89 161.88,-124.36 174.18,-122.88"/>
<polygon fill="midnightblue" stroke="midnightblue" points="174.9,-126.32 184.41,-121.65 174.07,-119.37 174.9,-126.32"/>
</g>
<!-- Node4 -->
<g id="node4" class="node">
<title>Node4</title>
<g id="a_node4"><a xlink:href="classnmbuflowtorch_1_1Network.html#ad2626aa7216689fadfa4469273de8c90" target="_top" xlink:title="Using X input and y target, back propagates the loss gradient.">
<polygon fill="none" stroke="black" points="369,-186.5 369,-216.5 506,-216.5 506,-186.5 369,-186.5"/>
<text text-anchor="start" x="377" y="-204.5" font-family="Helvetica,sans-Serif" font-size="10.00">nmbuflowtorch::Network</text>
<text text-anchor="middle" x="437.5" y="-193.5" font-family="Helvetica,sans-Serif" font-size="10.00">::backward</text>
</a>
</g>
</g>
<!-- Node3&#45;&gt;Node4 -->
<g id="edge3" class="edge">
<title>Node3&#45;&gt;Node4</title>
<path fill="none" stroke="midnightblue" d="M311.79,-128.53C319.15,-131.38 326.4,-134.68 333,-138.5 351.79,-149.36 350.85,-159.6 369,-171.5 374.77,-175.28 381.09,-178.79 387.47,-181.99"/>
<polygon fill="midnightblue" stroke="midnightblue" points="386.29,-185.3 396.82,-186.43 389.29,-178.98 386.29,-185.3"/>
</g>
<!-- Node7 -->
<g id="node7" class="node">
<title>Node7</title>
<g id="a_node7"><a xlink:href="classnmbuflowtorch_1_1Network.html#a47b0ad164e645c60f736f60f87827900" target="_top" xlink:title="Returns the value from the last layer.">
<polygon fill="none" stroke="black" points="542,-137.5 542,-167.5 679,-167.5 679,-137.5 542,-137.5"/>
<text text-anchor="start" x="550" y="-155.5" font-family="Helvetica,sans-Serif" font-size="10.00">nmbuflowtorch::Network</text>
<text text-anchor="middle" x="610.5" y="-144.5" font-family="Helvetica,sans-Serif" font-size="10.00">::output</text>
</a>
</g>
</g>
<!-- Node3&#45;&gt;Node7 -->
<g id="edge10" class="edge">
<title>Node3&#45;&gt;Node7</title>
<path fill="none" stroke="midnightblue" d="M317.89,-128.53C334.45,-131.96 352.32,-135.25 369,-137.5 423.08,-144.79 484.48,-148.55 531.7,-150.48"/>
<polygon fill="midnightblue" stroke="midnightblue" points="531.73,-153.98 541.86,-150.87 532.01,-146.98 531.73,-153.98"/>
</g>
<!-- Node8 -->
<g id="node8" class="node">
<title>Node8</title>
<g id="a_node8"><a xlink:href="classnmbuflowtorch_1_1Network.html#ae6cd135a052cc1526b34bb4144ae58b6" target="_top" xlink:title=" ">
<polygon fill="none" stroke="black" points="369,-98.5 369,-128.5 506,-128.5 506,-98.5 369,-98.5"/>
<text text-anchor="start" x="377" y="-116.5" font-family="Helvetica,sans-Serif" font-size="10.00">nmbuflowtorch::Network</text>
<text text-anchor="middle" x="437.5" y="-105.5" font-family="Helvetica,sans-Serif" font-size="10.00">::forward</text>
</a>
</g>
</g>
<!-- Node3&#45;&gt;Node8 -->
<g id="edge7" class="edge">
<title>Node3&#45;&gt;Node8</title>
<path fill="none" stroke="midnightblue" d="M321.7,-113.5C333.74,-113.5 346.38,-113.5 358.68,-113.5"/>
<polygon fill="midnightblue" stroke="midnightblue" points="358.91,-117 368.91,-113.5 358.91,-110 358.91,-117"/>
</g>
<!-- Node9 -->
<g id="node9" class="node">
<title>Node9</title>
<g id="a_node9"><a xlink:href="classnmbuflowtorch_1_1Loss.html#a5747f962c29f0e1a6147c435da22c466" target="_top" xlink:title="Returns the value of the loss.">
<polygon fill="none" stroke="black" points="379,-49.5 379,-79.5 496,-79.5 496,-49.5 379,-49.5"/>
<text text-anchor="start" x="387" y="-67.5" font-family="Helvetica,sans-Serif" font-size="10.00">nmbuflowtorch::Loss</text>
<text text-anchor="middle" x="437.5" y="-56.5" font-family="Helvetica,sans-Serif" font-size="10.00">::output</text>
</a>
</g>
</g>
<!-- Node3&#45;&gt;Node9 -->
<g id="edge9" class="edge">
<title>Node3&#45;&gt;Node9</title>
<path fill="none" stroke="midnightblue" d="M310.25,-98.4C329.33,-93.27 350.82,-87.5 370.59,-82.2"/>
<polygon fill="midnightblue" stroke="midnightblue" points="371.69,-85.53 380.44,-79.55 369.88,-78.76 371.69,-85.53"/>
</g>
<!-- Node10 -->
<g id="node10" class="node">
<title>Node10</title>
<g id="a_node10"><a xlink:href="classnmbuflowtorch_1_1Network.html#ab4dcbf1de529e005b2eb4c31b8cbd552" target="_top" xlink:title=" ">
<polygon fill="none" stroke="black" points="369,-0.5 369,-30.5 506,-30.5 506,-0.5 369,-0.5"/>
<text text-anchor="start" x="377" y="-18.5" font-family="Helvetica,sans-Serif" font-size="10.00">nmbuflowtorch::Network</text>
<text text-anchor="middle" x="437.5" y="-7.5" font-family="Helvetica,sans-Serif" font-size="10.00">::update</text>
</a>
</g>
</g>
<!-- Node3&#45;&gt;Node10 -->
<g id="edge11" class="edge">
<title>Node3&#45;&gt;Node10</title>
<path fill="none" stroke="midnightblue" d="M274.34,-98.35C296.69,-82.21 334.05,-56.67 369,-39.5 372.7,-37.68 376.58,-35.93 380.53,-34.26"/>
<polygon fill="midnightblue" stroke="midnightblue" points="381.84,-37.5 389.8,-30.51 379.22,-31.01 381.84,-37.5"/>
</g>
<!-- Node5 -->
<g id="node5" class="node">
<title>Node5</title>
<g id="a_node5"><a xlink:href="classnmbuflowtorch_1_1Loss.html#a29688f70477ce9f630cb313cc7e4c365" target="_top" xlink:title="Returns the gradient with respect to the input of the loss function.">
<polygon fill="none" stroke="black" points="552,-235.5 552,-265.5 669,-265.5 669,-235.5 552,-235.5"/>
<text text-anchor="start" x="560" y="-253.5" font-family="Helvetica,sans-Serif" font-size="10.00">nmbuflowtorch::Loss</text>
<text text-anchor="middle" x="610.5" y="-242.5" font-family="Helvetica,sans-Serif" font-size="10.00">::back_gradient</text>
</a>
</g>
</g>
<!-- Node4&#45;&gt;Node5 -->
<g id="edge4" class="edge">
<title>Node4&#45;&gt;Node5</title>
<path fill="none" stroke="midnightblue" d="M491.2,-216.6C508.92,-221.68 528.85,-227.39 547.23,-232.66"/>
<polygon fill="midnightblue" stroke="midnightblue" points="546.4,-236.06 556.97,-235.45 548.32,-229.33 546.4,-236.06"/>
</g>
<!-- Node6 -->
<g id="node6" class="node">
<title>Node6</title>
<g id="a_node6"><a xlink:href="classnmbuflowtorch_1_1Loss.html#ab739a047ffc84f44af71832ec704cedc" target="_top" xlink:title="Evaluates the loss function given the predicted and target values.">
<polygon fill="none" stroke="black" points="552,-186.5 552,-216.5 669,-216.5 669,-186.5 552,-186.5"/>
<text text-anchor="start" x="560" y="-204.5" font-family="Helvetica,sans-Serif" font-size="10.00">nmbuflowtorch::Loss</text>
<text text-anchor="middle" x="610.5" y="-193.5" font-family="Helvetica,sans-Serif" font-size="10.00">::eval</text>
</a>
</g>
</g>
<!-- Node4&#45;&gt;Node6 -->
<g id="edge5" class="edge">
<title>Node4&#45;&gt;Node6</title>
<path fill="none" stroke="midnightblue" d="M506.08,-201.5C517.78,-201.5 529.95,-201.5 541.65,-201.5"/>
<polygon fill="midnightblue" stroke="midnightblue" points="541.79,-205 551.79,-201.5 541.79,-198 541.79,-205"/>
</g>
<!-- Node4&#45;&gt;Node7 -->
<g id="edge6" class="edge">
<title>Node4&#45;&gt;Node7</title>
<path fill="none" stroke="midnightblue" d="M491.2,-186.4C508.92,-181.32 528.85,-175.61 547.23,-170.34"/>
<polygon fill="midnightblue" stroke="midnightblue" points="548.32,-173.67 556.97,-167.55 546.4,-166.94 548.32,-173.67"/>
</g>
<!-- Node8&#45;&gt;Node7 -->
<g id="edge8" class="edge">
<title>Node8&#45;&gt;Node7</title>
<path fill="none" stroke="midnightblue" d="M504.61,-128.58C514.1,-130.74 523.92,-132.98 533.58,-135.18"/>
<polygon fill="midnightblue" stroke="midnightblue" points="533.03,-138.65 543.56,-137.46 534.59,-131.83 533.03,-138.65"/>
</g>
</g>
</svg>
