<?xml version="1.0" encoding="UTF-8" standalone="no"?>
<!DOCTYPE svg PUBLIC "-//W3C//DTD SVG 1.1//EN"
 "http://www.w3.org/Graphics/SVG/1.1/DTD/svg11.dtd">
<!-- Generated by graphviz version 2.43.0 (0)
 -->
<!-- Title: nmbuflowtorch::Network::backward Pages: 1 -->
<svg width="318pt" height="137pt"
 viewBox="0.00 0.00 318.00 137.00" xmlns="http://www.w3.org/2000/svg" xmlns:xlink="http://www.w3.org/1999/xlink">
<g id="graph0" class="graph" transform="scale(1 1) rotate(0) translate(4 133)">
<title>nmbuflowtorch::Network::backward</title>
<!-- Node1 -->
<g id="node1" class="node">
<title>Node1</title>
<g id="a_node1"><a xlink:title="Using X input and y target, back propagates the loss gradient.">
<polygon fill="#bfbfbf" stroke="black" points="0,-49.5 0,-79.5 137,-79.5 137,-49.5 0,-49.5"/>
<text text-anchor="start" x="8" y="-67.5" font-family="Helvetica,sans-Serif" font-size="10.00">nmbuflowtorch::Network</text>
<text text-anchor="middle" x="68.5" y="-56.5" font-family="Helvetica,sans-Serif" font-size="10.00">::backward</text>
</a>
</g>
</g>
<!-- Node2 -->
<g id="node2" class="node">
<title>Node2</title>
<g id="a_node2"><a xlink:href="classnmbuflowtorch_1_1Loss.html#a29688f70477ce9f630cb313cc7e4c365" target="_top" xlink:title=" ">
<polygon fill="none" stroke="black" points="182.5,-98.5 182.5,-128.5 300.5,-128.5 300.5,-98.5 182.5,-98.5"/>
<text text-anchor="start" x="190.5" y="-116.5" font-family="Helvetica,sans-Serif" font-size="10.00">nmbuflowtorch::Loss</text>
<text text-anchor="middle" x="241.5" y="-105.5" font-family="Helvetica,sans-Serif" font-size="10.00">::back_gradient</text>
</a>
</g>
</g>
<!-- Node1&#45;&gt;Node2 -->
<g id="edge1" class="edge">
<title>Node1&#45;&gt;Node2</title>
<path fill="none" stroke="midnightblue" d="M122.2,-79.6C139.92,-84.68 159.85,-90.39 178.23,-95.66"/>
<polygon fill="midnightblue" stroke="midnightblue" points="177.4,-99.06 187.97,-98.45 179.32,-92.33 177.4,-99.06"/>
</g>
<!-- Node3 -->
<g id="node3" class="node">
<title>Node3</title>
<g id="a_node3"><a xlink:href="classnmbuflowtorch_1_1Loss.html#ab739a047ffc84f44af71832ec704cedc" target="_top" xlink:title=" ">
<polygon fill="none" stroke="black" points="182.5,-49.5 182.5,-79.5 300.5,-79.5 300.5,-49.5 182.5,-49.5"/>
<text text-anchor="start" x="190.5" y="-67.5" font-family="Helvetica,sans-Serif" font-size="10.00">nmbuflowtorch::Loss</text>
<text text-anchor="middle" x="241.5" y="-56.5" font-family="Helvetica,sans-Serif" font-size="10.00">::eval</text>
</a>
</g>
</g>
<!-- Node1&#45;&gt;Node3 -->
<g id="edge2" class="edge">
<title>Node1&#45;&gt;Node3</title>
<path fill="none" stroke="midnightblue" d="M137.08,-64.5C148.64,-64.5 160.65,-64.5 172.22,-64.5"/>
<polygon fill="midnightblue" stroke="midnightblue" points="172.25,-68 182.25,-64.5 172.25,-61 172.25,-68"/>
</g>
<!-- Node4 -->
<g id="node4" class="node">
<title>Node4</title>
<g id="a_node4"><a xlink:href="classnmbuflowtorch_1_1Network.html#a47b0ad164e645c60f736f60f87827900" target="_top" xlink:title="Returns the value from the last layer.">
<polygon fill="none" stroke="black" points="173,-0.5 173,-30.5 310,-30.5 310,-0.5 173,-0.5"/>
<text text-anchor="start" x="181" y="-18.5" font-family="Helvetica,sans-Serif" font-size="10.00">nmbuflowtorch::Network</text>
<text text-anchor="middle" x="241.5" y="-7.5" font-family="Helvetica,sans-Serif" font-size="10.00">::output</text>
</a>
</g>
</g>
<!-- Node1&#45;&gt;Node4 -->
<g id="edge3" class="edge">
<title>Node1&#45;&gt;Node4</title>
<path fill="none" stroke="midnightblue" d="M122.2,-49.4C139.92,-44.32 159.85,-38.61 178.23,-33.34"/>
<polygon fill="midnightblue" stroke="midnightblue" points="179.32,-36.67 187.97,-30.55 177.4,-29.94 179.32,-36.67"/>
</g>
</g>
</svg>
