<?xml version="1.0" encoding="UTF-8" standalone="no"?>
<!DOCTYPE svg PUBLIC "-//W3C//DTD SVG 1.1//EN"
 "http://www.w3.org/Graphics/SVG/1.1/DTD/svg11.dtd">
<!-- Generated by graphviz version 2.43.0 (0)
 -->
<!-- Title: csv::CSVReader::read_row Pages: 1 -->
<svg width="634pt" height="72pt"
 viewBox="0.00 0.00 634.00 71.50" xmlns="http://www.w3.org/2000/svg" xmlns:xlink="http://www.w3.org/1999/xlink">
<g id="graph0" class="graph" transform="scale(1 1) rotate(0) translate(4 67.5)">
<title>csv::CSVReader::read_row</title>
<!-- Node1 -->
<g id="node1" class="node">
<title>Node1</title>
<g id="a_node1"><a xlink:title=" ">
<polygon fill="#bfbfbf" stroke="black" points="0,-25 0,-44 143,-44 143,-25 0,-25"/>
<text text-anchor="middle" x="71.5" y="-32" font-family="Helvetica,sans-Serif" font-size="10.00">csv::CSVReader::read_row</text>
</a>
</g>
</g>
<!-- Node2 -->
<g id="node2" class="node">
<title>Node2</title>
<g id="a_node2"><a xlink:href="namespacecsv_1_1internals.html#a7a29f891eb1f9ffc81445b02e57b1e12" target="_top" xlink:title=" ">
<polygon fill="none" stroke="black" points="179,-44 179,-63 322,-63 322,-44 179,-44"/>
<text text-anchor="middle" x="250.5" y="-51" font-family="Helvetica,sans-Serif" font-size="10.00">csv::internals::format_row</text>
</a>
</g>
</g>
<!-- Node1&#45;&gt;Node2 -->
<g id="edge1" class="edge">
<title>Node1&#45;&gt;Node2</title>
<path fill="none" stroke="midnightblue" d="M143.22,-42.09C151.66,-43 160.33,-43.93 168.9,-44.85"/>
<polygon fill="midnightblue" stroke="midnightblue" points="168.58,-48.33 178.89,-45.92 169.32,-41.37 168.58,-48.33"/>
</g>
<!-- Node3 -->
<g id="node3" class="node">
<title>Node3</title>
<g id="a_node3"><a xlink:href="group__csv__internal.html#ga5562feee47dfc60d04a139dceed609cc" target="_top" xlink:title=" ">
<polygon fill="none" stroke="black" points="179.5,-6 179.5,-25 321.5,-25 321.5,-6 179.5,-6"/>
<text text-anchor="middle" x="250.5" y="-13" font-family="Helvetica,sans-Serif" font-size="10.00">csv::CSVReader::read_csv</text>
</a>
</g>
</g>
<!-- Node1&#45;&gt;Node3 -->
<g id="edge2" class="edge">
<title>Node1&#45;&gt;Node3</title>
<path fill="none" stroke="midnightblue" d="M143.22,-26.91C151.8,-25.99 160.61,-25.04 169.32,-24.11"/>
<polygon fill="midnightblue" stroke="midnightblue" points="169.9,-27.56 179.47,-23.02 169.15,-20.6 169.9,-27.56"/>
</g>
<!-- Node4 -->
<g id="node4" class="node">
<title>Node4</title>
<g id="a_node4"><a xlink:href="classcsv_1_1CSVReader.html#a042171328b6578d7a61d08d025324c31" target="_top" xlink:title=" ">
<polygon fill="none" stroke="black" points="358,-0.5 358,-30.5 477,-30.5 477,-0.5 358,-0.5"/>
<text text-anchor="start" x="366" y="-18.5" font-family="Helvetica,sans-Serif" font-size="10.00">csv::CSVReader::trim</text>
<text text-anchor="middle" x="417.5" y="-7.5" font-family="Helvetica,sans-Serif" font-size="10.00">_header</text>
</a>
</g>
</g>
<!-- Node3&#45;&gt;Node4 -->
<g id="edge3" class="edge">
<title>Node3&#45;&gt;Node4</title>
<path fill="none" stroke="midnightblue" d="M321.95,-15.5C330.48,-15.5 339.19,-15.5 347.7,-15.5"/>
<polygon fill="midnightblue" stroke="midnightblue" points="347.95,-19 357.95,-15.5 347.95,-12 347.95,-19"/>
</g>
<!-- Node5 -->
<g id="node5" class="node">
<title>Node5</title>
<g id="a_node5"><a xlink:href="group__csv__internal.html#gadf931687a8381e502e6241ae7955512c" target="_top" xlink:title=" ">
<polygon fill="none" stroke="black" points="513,-0.5 513,-30.5 626,-30.5 626,-0.5 513,-0.5"/>
<text text-anchor="start" x="521" y="-18.5" font-family="Helvetica,sans-Serif" font-size="10.00">csv::CSVReader::set</text>
<text text-anchor="middle" x="569.5" y="-7.5" font-family="Helvetica,sans-Serif" font-size="10.00">_col_names</text>
</a>
</g>
</g>
<!-- Node4&#45;&gt;Node5 -->
<g id="edge4" class="edge">
<title>Node4&#45;&gt;Node5</title>
<path fill="none" stroke="midnightblue" d="M477.35,-15.5C485.64,-15.5 494.2,-15.5 502.61,-15.5"/>
<polygon fill="midnightblue" stroke="midnightblue" points="502.76,-19 512.76,-15.5 502.76,-12 502.76,-19"/>
</g>
</g>
</svg>
