<?xml version="1.0" encoding="UTF-8" standalone="no"?>
<!DOCTYPE svg PUBLIC "-//W3C//DTD SVG 1.1//EN"
 "http://www.w3.org/Graphics/SVG/1.1/DTD/svg11.dtd">
<!-- Generated by graphviz version 2.43.0 (0)
 -->
<!-- Title: csv::internals::IBasicCSVParser::end_feed Pages: 1 -->
<svg width="555pt" height="186pt"
 viewBox="0.00 0.00 555.00 186.00" xmlns="http://www.w3.org/2000/svg" xmlns:xlink="http://www.w3.org/1999/xlink">
<g id="graph0" class="graph" transform="scale(1 1) rotate(0) translate(4 182)">
<title>csv::internals::IBasicCSVParser::end_feed</title>
<!-- Node1 -->
<g id="node1" class="node">
<title>Node1</title>
<g id="a_node1"><a xlink:title=" ">
<polygon fill="#bfbfbf" stroke="black" points="0,-73.5 0,-103.5 166,-103.5 166,-73.5 0,-73.5"/>
<text text-anchor="start" x="8" y="-91.5" font-family="Helvetica,sans-Serif" font-size="10.00">csv::internals::IBasicCSVParser</text>
<text text-anchor="middle" x="83" y="-80.5" font-family="Helvetica,sans-Serif" font-size="10.00">::end_feed</text>
</a>
</g>
</g>
<!-- Node2 -->
<g id="node2" class="node">
<title>Node2</title>
<g id="a_node2"><a xlink:href="classcsv_1_1internals_1_1IBasicCSVParser.html#a889366716d48b7e4939369388a7c3d46" target="_top" xlink:title=" ">
<polygon fill="none" stroke="black" points="202,-147.5 202,-177.5 368,-177.5 368,-147.5 202,-147.5"/>
<text text-anchor="start" x="210" y="-165.5" font-family="Helvetica,sans-Serif" font-size="10.00">csv::internals::IBasicCSVParser</text>
<text text-anchor="middle" x="285" y="-154.5" font-family="Helvetica,sans-Serif" font-size="10.00">::parse_flag</text>
</a>
</g>
</g>
<!-- Node1&#45;&gt;Node2 -->
<g id="edge1" class="edge">
<title>Node1&#45;&gt;Node2</title>
<path fill="none" stroke="midnightblue" d="M116.66,-103.55C140.12,-114.06 172.66,-128.03 202,-138.5 207.55,-140.48 213.35,-142.42 219.19,-144.29"/>
<polygon fill="midnightblue" stroke="midnightblue" points="218.43,-147.72 229.02,-147.37 220.52,-141.04 218.43,-147.72"/>
</g>
<!-- Node3 -->
<g id="node3" class="node">
<title>Node3</title>
<g id="a_node3"><a xlink:href="classcsv_1_1internals_1_1IBasicCSVParser.html#a0005754750cea46f78258c80f4f15886" target="_top" xlink:title=" ">
<polygon fill="none" stroke="black" points="202,-98.5 202,-128.5 368,-128.5 368,-98.5 202,-98.5"/>
<text text-anchor="start" x="210" y="-116.5" font-family="Helvetica,sans-Serif" font-size="10.00">csv::internals::IBasicCSVParser</text>
<text text-anchor="middle" x="285" y="-105.5" font-family="Helvetica,sans-Serif" font-size="10.00">::push_field</text>
</a>
</g>
</g>
<!-- Node1&#45;&gt;Node3 -->
<g id="edge2" class="edge">
<title>Node1&#45;&gt;Node3</title>
<path fill="none" stroke="midnightblue" d="M166.21,-98.78C174.65,-99.83 183.27,-100.91 191.81,-101.98"/>
<polygon fill="midnightblue" stroke="midnightblue" points="191.43,-105.46 201.78,-103.22 192.29,-98.51 191.43,-105.46"/>
</g>
<!-- Node5 -->
<g id="node5" class="node">
<title>Node5</title>
<g id="a_node5"><a xlink:href="classcsv_1_1internals_1_1IBasicCSVParser.html#af28c9b3e922779765411c25150352037" target="_top" xlink:title=" ">
<polygon fill="none" stroke="black" points="202,-49.5 202,-79.5 368,-79.5 368,-49.5 202,-49.5"/>
<text text-anchor="start" x="210" y="-67.5" font-family="Helvetica,sans-Serif" font-size="10.00">csv::internals::IBasicCSVParser</text>
<text text-anchor="middle" x="285" y="-56.5" font-family="Helvetica,sans-Serif" font-size="10.00">::push_row</text>
</a>
</g>
</g>
<!-- Node1&#45;&gt;Node5 -->
<g id="edge4" class="edge">
<title>Node1&#45;&gt;Node5</title>
<path fill="none" stroke="midnightblue" d="M166.21,-78.63C174.65,-77.62 183.27,-76.59 191.81,-75.56"/>
<polygon fill="midnightblue" stroke="midnightblue" points="192.27,-79.03 201.78,-74.37 191.44,-72.08 192.27,-79.03"/>
</g>
<!-- Node8 -->
<g id="node8" class="node">
<title>Node8</title>
<g id="a_node8"><a xlink:href="classcsv_1_1CSVRow.html#ab70c127ad2afc4cf4eb9d2c7f1cea253" target="_top" xlink:title=" ">
<polygon fill="none" stroke="black" points="233,-11 233,-30 337,-30 337,-11 233,-11"/>
<text text-anchor="middle" x="285" y="-18" font-family="Helvetica,sans-Serif" font-size="10.00">csv::CSVRow::size</text>
</a>
</g>
</g>
<!-- Node1&#45;&gt;Node8 -->
<g id="edge7" class="edge">
<title>Node1&#45;&gt;Node8</title>
<path fill="none" stroke="midnightblue" d="M117.34,-73.4C140.71,-63.2 172.86,-49.93 202,-40.5 211,-37.59 220.68,-34.87 230.12,-32.44"/>
<polygon fill="midnightblue" stroke="midnightblue" points="230.98,-35.83 239.83,-30.01 229.28,-29.04 230.98,-35.83"/>
</g>
<!-- Node4 -->
<g id="node4" class="node">
<title>Node4</title>
<g id="a_node4"><a xlink:href="classcsv_1_1internals_1_1CSVFieldList.html#aa18dc7e6f2b3c28fbe70547b91591166" target="_top" xlink:title=" ">
<polygon fill="none" stroke="black" points="410.5,-98.5 410.5,-128.5 540.5,-128.5 540.5,-98.5 410.5,-98.5"/>
<text text-anchor="start" x="418.5" y="-116.5" font-family="Helvetica,sans-Serif" font-size="10.00">csv::internals::CSVField</text>
<text text-anchor="middle" x="475.5" y="-105.5" font-family="Helvetica,sans-Serif" font-size="10.00">List::emplace_back</text>
</a>
</g>
</g>
<!-- Node3&#45;&gt;Node4 -->
<g id="edge3" class="edge">
<title>Node3&#45;&gt;Node4</title>
<path fill="none" stroke="midnightblue" d="M368.13,-113.5C378.88,-113.5 389.85,-113.5 400.45,-113.5"/>
<polygon fill="midnightblue" stroke="midnightblue" points="400.5,-117 410.5,-113.5 400.5,-110 400.5,-117"/>
</g>
<!-- Node6 -->
<g id="node6" class="node">
<title>Node6</title>
<g id="a_node6"><a xlink:href="classcsv_1_1internals_1_1ThreadSafeDeque.html#a8c9d238a10a196b83e74c1758c9afb3b" target="_top" xlink:title=" ">
<polygon fill="none" stroke="black" points="404,-49.5 404,-79.5 547,-79.5 547,-49.5 404,-49.5"/>
<text text-anchor="start" x="412" y="-67.5" font-family="Helvetica,sans-Serif" font-size="10.00">csv::internals::ThreadSafe</text>
<text text-anchor="middle" x="475.5" y="-56.5" font-family="Helvetica,sans-Serif" font-size="10.00">Deque::push_back</text>
</a>
</g>
</g>
<!-- Node5&#45;&gt;Node6 -->
<g id="edge5" class="edge">
<title>Node5&#45;&gt;Node6</title>
<path fill="none" stroke="midnightblue" d="M368.13,-64.5C376.59,-64.5 385.19,-64.5 393.64,-64.5"/>
<polygon fill="midnightblue" stroke="midnightblue" points="393.86,-68 403.86,-64.5 393.86,-61 393.86,-68"/>
</g>
<!-- Node7 -->
<g id="node7" class="node">
<title>Node7</title>
<g id="a_node7"><a xlink:href="classcsv_1_1internals_1_1CSVFieldList.html#a34412a8fe533e5b6c970f1e6834f6659" target="_top" xlink:title=" ">
<polygon fill="none" stroke="black" points="410.5,-0.5 410.5,-30.5 540.5,-30.5 540.5,-0.5 410.5,-0.5"/>
<text text-anchor="start" x="418.5" y="-18.5" font-family="Helvetica,sans-Serif" font-size="10.00">csv::internals::CSVField</text>
<text text-anchor="middle" x="475.5" y="-7.5" font-family="Helvetica,sans-Serif" font-size="10.00">List::size</text>
</a>
</g>
</g>
<!-- Node5&#45;&gt;Node7 -->
<g id="edge6" class="edge">
<title>Node5&#45;&gt;Node7</title>
<path fill="none" stroke="midnightblue" d="M343.84,-49.47C363.74,-44.29 386.2,-38.45 406.82,-33.09"/>
<polygon fill="midnightblue" stroke="midnightblue" points="407.97,-36.41 416.77,-30.51 406.21,-29.63 407.97,-36.41"/>
</g>
</g>
</svg>
