<?xml version="1.0" encoding="UTF-8" standalone="no"?>
<!DOCTYPE svg PUBLIC "-//W3C//DTD SVG 1.1//EN"
 "http://www.w3.org/Graphics/SVG/1.1/DTD/svg11.dtd">
<!-- Generated by graphviz version 2.43.0 (0)
 -->
<!-- Title: csv::internals::IBasicCSVParser::IBasicCSVParser Pages: 1 -->
<svg width="324pt" height="137pt"
 viewBox="0.00 0.00 324.00 137.00" xmlns="http://www.w3.org/2000/svg" xmlns:xlink="http://www.w3.org/1999/xlink">
<g id="graph0" class="graph" transform="scale(1 1) rotate(0) translate(4 133)">
<title>csv::internals::IBasicCSVParser::IBasicCSVParser</title>
<!-- Node1 -->
<g id="node1" class="node">
<title>Node1</title>
<g id="a_node1"><a xlink:title=" ">
<polygon fill="#bfbfbf" stroke="black" points="0,-49.5 0,-79.5 166,-79.5 166,-49.5 0,-49.5"/>
<text text-anchor="start" x="8" y="-67.5" font-family="Helvetica,sans-Serif" font-size="10.00">csv::internals::IBasicCSVParser</text>
<text text-anchor="middle" x="83" y="-56.5" font-family="Helvetica,sans-Serif" font-size="10.00">::IBasicCSVParser</text>
</a>
</g>
</g>
<!-- Node2 -->
<g id="node2" class="node">
<title>Node2</title>
<g id="a_node2"><a xlink:href="classcsv_1_1CSVFormat.html#a6ef461c4ae32e7cfeba0abbcc1ae527c" target="_top" xlink:title=" ">
<polygon fill="none" stroke="black" points="202,-98.5 202,-128.5 316,-128.5 316,-98.5 202,-98.5"/>
<text text-anchor="start" x="210" y="-116.5" font-family="Helvetica,sans-Serif" font-size="10.00">csv::CSVFormat::get</text>
<text text-anchor="middle" x="259" y="-105.5" font-family="Helvetica,sans-Serif" font-size="10.00">_delim</text>
</a>
</g>
</g>
<!-- Node1&#45;&gt;Node2 -->
<g id="edge1" class="edge">
<title>Node1&#45;&gt;Node2</title>
<path fill="none" stroke="midnightblue" d="M137.63,-79.6C155.74,-84.7 176.12,-90.44 194.9,-95.73"/>
<polygon fill="midnightblue" stroke="midnightblue" points="193.98,-99.11 204.55,-98.45 195.87,-92.37 193.98,-99.11"/>
</g>
<!-- Node3 -->
<g id="node3" class="node">
<title>Node3</title>
<g id="a_node3"><a xlink:href="namespacecsv_1_1internals.html#a27637149be7effa2c715a89ab2f1bf0c" target="_top" xlink:title=" ">
<polygon fill="none" stroke="black" points="202,-49.5 202,-79.5 316,-79.5 316,-49.5 202,-49.5"/>
<text text-anchor="start" x="210" y="-67.5" font-family="Helvetica,sans-Serif" font-size="10.00">csv::internals::make</text>
<text text-anchor="middle" x="259" y="-56.5" font-family="Helvetica,sans-Serif" font-size="10.00">_parse_flags</text>
</a>
</g>
</g>
<!-- Node1&#45;&gt;Node3 -->
<g id="edge2" class="edge">
<title>Node1&#45;&gt;Node3</title>
<path fill="none" stroke="midnightblue" d="M166.16,-64.5C174.57,-64.5 183.05,-64.5 191.27,-64.5"/>
<polygon fill="midnightblue" stroke="midnightblue" points="191.52,-68 201.52,-64.5 191.52,-61 191.52,-68"/>
</g>
<!-- Node4 -->
<g id="node4" class="node">
<title>Node4</title>
<g id="a_node4"><a xlink:href="namespacecsv_1_1internals.html#ac593cbc202d6847668fe271feb9a303c" target="_top" xlink:title=" ">
<polygon fill="none" stroke="black" points="202,-0.5 202,-30.5 316,-30.5 316,-0.5 202,-0.5"/>
<text text-anchor="start" x="210" y="-18.5" font-family="Helvetica,sans-Serif" font-size="10.00">csv::internals::make</text>
<text text-anchor="middle" x="259" y="-7.5" font-family="Helvetica,sans-Serif" font-size="10.00">_ws_flags</text>
</a>
</g>
</g>
<!-- Node1&#45;&gt;Node4 -->
<g id="edge3" class="edge">
<title>Node1&#45;&gt;Node4</title>
<path fill="none" stroke="midnightblue" d="M137.63,-49.4C155.74,-44.3 176.12,-38.56 194.9,-33.27"/>
<polygon fill="midnightblue" stroke="midnightblue" points="195.87,-36.63 204.55,-30.55 193.98,-29.89 195.87,-36.63"/>
</g>
</g>
</svg>
