<?xml version="1.0" encoding="UTF-8" standalone="no"?>
<!DOCTYPE svg PUBLIC "-//W3C//DTD SVG 1.1//EN"
 "http://www.w3.org/Graphics/SVG/1.1/DTD/svg11.dtd">
<!-- Generated by graphviz version 2.43.0 (0)
 -->
<!-- Title: nmbuflowtorch::Network::fit Pages: 1 -->
<svg width="875pt" height="274pt"
 viewBox="0.00 0.00 875.00 274.00" xmlns="http://www.w3.org/2000/svg" xmlns:xlink="http://www.w3.org/1999/xlink">
<g id="graph0" class="graph" transform="scale(1 1) rotate(0) translate(4 270)">
<title>nmbuflowtorch::Network::fit</title>
<!-- Node1 -->
<g id="node1" class="node">
<title>Node1</title>
<g id="a_node1"><a xlink:title="Fit model to data provided.">
<polygon fill="#bfbfbf" stroke="black" points="0,-148 0,-167 152,-167 152,-148 0,-148"/>
<text text-anchor="middle" x="76" y="-155" font-family="Helvetica,sans-Serif" font-size="10.00">nmbuflowtorch::Network::fit</text>
</a>
</g>
</g>
<!-- Node2 -->
<g id="node2" class="node">
<title>Node2</title>
<g id="a_node2"><a xlink:href="math__m_8hpp.html#a00222de08fb54dc0423e29cc610d1f0c" target="_top" xlink:title="Shuffles a dataset by creating a permutation matrix from a given vector of indices and applying it to...">
<polygon fill="none" stroke="black" points="218,-170 218,-189 295,-189 295,-170 218,-170"/>
<text text-anchor="middle" x="256.5" y="-177" font-family="Helvetica,sans-Serif" font-size="10.00">shuffle_data</text>
</a>
</g>
</g>
<!-- Node1&#45;&gt;Node2 -->
<g id="edge1" class="edge">
<title>Node1&#45;&gt;Node2</title>
<path fill="none" stroke="midnightblue" d="M152.18,-166.77C170.96,-169.08 190.59,-171.5 207.64,-173.6"/>
<polygon fill="midnightblue" stroke="midnightblue" points="207.53,-177.11 217.88,-174.86 208.39,-170.17 207.53,-177.11"/>
</g>
<!-- Node3 -->
<g id="node3" class="node">
<title>Node3</title>
<g id="a_node3"><a xlink:href="classnmbuflowtorch_1_1Network.html#ab4decd5644c172b3ade967496bf64f7b" target="_top" xlink:title="Trains all batches in X and y for one epoch.">
<polygon fill="none" stroke="black" points="188,-120.5 188,-150.5 325,-150.5 325,-120.5 188,-120.5"/>
<text text-anchor="start" x="196" y="-138.5" font-family="Helvetica,sans-Serif" font-size="10.00">nmbuflowtorch::Network</text>
<text text-anchor="middle" x="256.5" y="-127.5" font-family="Helvetica,sans-Serif" font-size="10.00">::train_one_epoch</text>
</a>
</g>
</g>
<!-- Node1&#45;&gt;Node3 -->
<g id="edge2" class="edge">
<title>Node1&#45;&gt;Node3</title>
<path fill="none" stroke="midnightblue" d="M152.18,-148.23C160.58,-147.2 169.15,-146.14 177.58,-145.1"/>
<polygon fill="midnightblue" stroke="midnightblue" points="178.29,-148.54 187.78,-143.85 177.43,-141.6 178.29,-148.54"/>
</g>
<!-- Node4 -->
<g id="node4" class="node">
<title>Node4</title>
<g id="a_node4"><a xlink:href="namespacenmbuflowtorch.html#a6841de6f2ac014f91c37f7f2c0e9cc1e" target="_top" xlink:title="Prints a progress bar to the console.">
<polygon fill="none" stroke="black" points="361,-148 361,-167 521,-167 521,-148 361,-148"/>
<text text-anchor="middle" x="441" y="-155" font-family="Helvetica,sans-Serif" font-size="10.00">nmbuflowtorch::printProgress</text>
</a>
</g>
</g>
<!-- Node3&#45;&gt;Node4 -->
<g id="edge3" class="edge">
<title>Node3&#45;&gt;Node4</title>
<path fill="none" stroke="midnightblue" d="M325.2,-143.66C333.58,-144.67 342.25,-145.72 350.89,-146.76"/>
<polygon fill="midnightblue" stroke="midnightblue" points="350.66,-150.26 361.01,-147.98 351.5,-143.31 350.66,-150.26"/>
</g>
<!-- Node5 -->
<g id="node5" class="node">
<title>Node5</title>
<g id="a_node5"><a xlink:href="classnmbuflowtorch_1_1Network.html#ac5f07dc09b1d352567d6cbcc3c38c010" target="_top" xlink:title="Forward, backward, and update functions combined for one batch of data.">
<polygon fill="none" stroke="black" points="372.5,-98.5 372.5,-128.5 509.5,-128.5 509.5,-98.5 372.5,-98.5"/>
<text text-anchor="start" x="380.5" y="-116.5" font-family="Helvetica,sans-Serif" font-size="10.00">nmbuflowtorch::Network</text>
<text text-anchor="middle" x="441" y="-105.5" font-family="Helvetica,sans-Serif" font-size="10.00">::train_batch</text>
</a>
</g>
</g>
<!-- Node3&#45;&gt;Node5 -->
<g id="edge4" class="edge">
<title>Node3&#45;&gt;Node5</title>
<path fill="none" stroke="midnightblue" d="M325.2,-127.34C337.24,-125.89 349.88,-124.36 362.18,-122.88"/>
<polygon fill="midnightblue" stroke="midnightblue" points="362.9,-126.32 372.41,-121.65 362.07,-119.37 362.9,-126.32"/>
</g>
<!-- Node6 -->
<g id="node6" class="node">
<title>Node6</title>
<g id="a_node6"><a xlink:href="classnmbuflowtorch_1_1Network.html#ad2626aa7216689fadfa4469273de8c90" target="_top" xlink:title="Using X input and y target, back propagates the loss gradient.">
<polygon fill="none" stroke="black" points="557,-186.5 557,-216.5 694,-216.5 694,-186.5 557,-186.5"/>
<text text-anchor="start" x="565" y="-204.5" font-family="Helvetica,sans-Serif" font-size="10.00">nmbuflowtorch::Network</text>
<text text-anchor="middle" x="625.5" y="-193.5" font-family="Helvetica,sans-Serif" font-size="10.00">::backward</text>
</a>
</g>
</g>
<!-- Node5&#45;&gt;Node6 -->
<g id="edge5" class="edge">
<title>Node5&#45;&gt;Node6</title>
<path fill="none" stroke="midnightblue" d="M499.79,-128.53C507.15,-131.38 514.4,-134.68 521,-138.5 539.79,-149.36 538.85,-159.6 557,-171.5 562.77,-175.28 569.09,-178.79 575.47,-181.99"/>
<polygon fill="midnightblue" stroke="midnightblue" points="574.29,-185.3 584.82,-186.43 577.29,-178.98 574.29,-185.3"/>
</g>
<!-- Node9 -->
<g id="node9" class="node">
<title>Node9</title>
<g id="a_node9"><a xlink:href="classnmbuflowtorch_1_1Network.html#a47b0ad164e645c60f736f60f87827900" target="_top" xlink:title="Returns the value from the last layer.">
<polygon fill="none" stroke="black" points="730,-137.5 730,-167.5 867,-167.5 867,-137.5 730,-137.5"/>
<text text-anchor="start" x="738" y="-155.5" font-family="Helvetica,sans-Serif" font-size="10.00">nmbuflowtorch::Network</text>
<text text-anchor="middle" x="798.5" y="-144.5" font-family="Helvetica,sans-Serif" font-size="10.00">::output</text>
</a>
</g>
</g>
<!-- Node5&#45;&gt;Node9 -->
<g id="edge12" class="edge">
<title>Node5&#45;&gt;Node9</title>
<path fill="none" stroke="midnightblue" d="M505.89,-128.53C522.45,-131.96 540.32,-135.25 557,-137.5 611.08,-144.79 672.48,-148.55 719.7,-150.48"/>
<polygon fill="midnightblue" stroke="midnightblue" points="719.73,-153.98 729.86,-150.87 720.01,-146.98 719.73,-153.98"/>
</g>
<!-- Node10 -->
<g id="node10" class="node">
<title>Node10</title>
<g id="a_node10"><a xlink:href="classnmbuflowtorch_1_1Network.html#ae6cd135a052cc1526b34bb4144ae58b6" target="_top" xlink:title=" ">
<polygon fill="none" stroke="black" points="557,-98.5 557,-128.5 694,-128.5 694,-98.5 557,-98.5"/>
<text text-anchor="start" x="565" y="-116.5" font-family="Helvetica,sans-Serif" font-size="10.00">nmbuflowtorch::Network</text>
<text text-anchor="middle" x="625.5" y="-105.5" font-family="Helvetica,sans-Serif" font-size="10.00">::forward</text>
</a>
</g>
</g>
<!-- Node5&#45;&gt;Node10 -->
<g id="edge9" class="edge">
<title>Node5&#45;&gt;Node10</title>
<path fill="none" stroke="midnightblue" d="M509.7,-113.5C521.74,-113.5 534.38,-113.5 546.68,-113.5"/>
<polygon fill="midnightblue" stroke="midnightblue" points="546.91,-117 556.91,-113.5 546.91,-110 546.91,-117"/>
</g>
<!-- Node11 -->
<g id="node11" class="node">
<title>Node11</title>
<g id="a_node11"><a xlink:href="classnmbuflowtorch_1_1Loss.html#a5747f962c29f0e1a6147c435da22c466" target="_top" xlink:title="Returns the value of the loss.">
<polygon fill="none" stroke="black" points="567,-49.5 567,-79.5 684,-79.5 684,-49.5 567,-49.5"/>
<text text-anchor="start" x="575" y="-67.5" font-family="Helvetica,sans-Serif" font-size="10.00">nmbuflowtorch::Loss</text>
<text text-anchor="middle" x="625.5" y="-56.5" font-family="Helvetica,sans-Serif" font-size="10.00">::output</text>
</a>
</g>
</g>
<!-- Node5&#45;&gt;Node11 -->
<g id="edge11" class="edge">
<title>Node5&#45;&gt;Node11</title>
<path fill="none" stroke="midnightblue" d="M498.25,-98.4C517.33,-93.27 538.82,-87.5 558.59,-82.2"/>
<polygon fill="midnightblue" stroke="midnightblue" points="559.69,-85.53 568.44,-79.55 557.88,-78.76 559.69,-85.53"/>
</g>
<!-- Node12 -->
<g id="node12" class="node">
<title>Node12</title>
<g id="a_node12"><a xlink:href="classnmbuflowtorch_1_1Network.html#ab4dcbf1de529e005b2eb4c31b8cbd552" target="_top" xlink:title=" ">
<polygon fill="none" stroke="black" points="557,-0.5 557,-30.5 694,-30.5 694,-0.5 557,-0.5"/>
<text text-anchor="start" x="565" y="-18.5" font-family="Helvetica,sans-Serif" font-size="10.00">nmbuflowtorch::Network</text>
<text text-anchor="middle" x="625.5" y="-7.5" font-family="Helvetica,sans-Serif" font-size="10.00">::update</text>
</a>
</g>
</g>
<!-- Node5&#45;&gt;Node12 -->
<g id="edge13" class="edge">
<title>Node5&#45;&gt;Node12</title>
<path fill="none" stroke="midnightblue" d="M462.34,-98.35C484.69,-82.21 522.05,-56.67 557,-39.5 560.7,-37.68 564.58,-35.93 568.53,-34.26"/>
<polygon fill="midnightblue" stroke="midnightblue" points="569.84,-37.5 577.8,-30.51 567.22,-31.01 569.84,-37.5"/>
</g>
<!-- Node7 -->
<g id="node7" class="node">
<title>Node7</title>
<g id="a_node7"><a xlink:href="classnmbuflowtorch_1_1Loss.html#a29688f70477ce9f630cb313cc7e4c365" target="_top" xlink:title="Returns the gradient with respect to the input of the loss function.">
<polygon fill="none" stroke="black" points="740,-235.5 740,-265.5 857,-265.5 857,-235.5 740,-235.5"/>
<text text-anchor="start" x="748" y="-253.5" font-family="Helvetica,sans-Serif" font-size="10.00">nmbuflowtorch::Loss</text>
<text text-anchor="middle" x="798.5" y="-242.5" font-family="Helvetica,sans-Serif" font-size="10.00">::back_gradient</text>
</a>
</g>
</g>
<!-- Node6&#45;&gt;Node7 -->
<g id="edge6" class="edge">
<title>Node6&#45;&gt;Node7</title>
<path fill="none" stroke="midnightblue" d="M679.2,-216.6C696.92,-221.68 716.85,-227.39 735.23,-232.66"/>
<polygon fill="midnightblue" stroke="midnightblue" points="734.4,-236.06 744.97,-235.45 736.32,-229.33 734.4,-236.06"/>
</g>
<!-- Node8 -->
<g id="node8" class="node">
<title>Node8</title>
<g id="a_node8"><a xlink:href="classnmbuflowtorch_1_1Loss.html#ab739a047ffc84f44af71832ec704cedc" target="_top" xlink:title="Evaluates the loss function given the predicted and target values.">
<polygon fill="none" stroke="black" points="740,-186.5 740,-216.5 857,-216.5 857,-186.5 740,-186.5"/>
<text text-anchor="start" x="748" y="-204.5" font-family="Helvetica,sans-Serif" font-size="10.00">nmbuflowtorch::Loss</text>
<text text-anchor="middle" x="798.5" y="-193.5" font-family="Helvetica,sans-Serif" font-size="10.00">::eval</text>
</a>
</g>
</g>
<!-- Node6&#45;&gt;Node8 -->
<g id="edge7" class="edge">
<title>Node6&#45;&gt;Node8</title>
<path fill="none" stroke="midnightblue" d="M694.08,-201.5C705.78,-201.5 717.95,-201.5 729.65,-201.5"/>
<polygon fill="midnightblue" stroke="midnightblue" points="729.79,-205 739.79,-201.5 729.79,-198 729.79,-205"/>
</g>
<!-- Node6&#45;&gt;Node9 -->
<g id="edge8" class="edge">
<title>Node6&#45;&gt;Node9</title>
<path fill="none" stroke="midnightblue" d="M679.2,-186.4C696.92,-181.32 716.85,-175.61 735.23,-170.34"/>
<polygon fill="midnightblue" stroke="midnightblue" points="736.32,-173.67 744.97,-167.55 734.4,-166.94 736.32,-173.67"/>
</g>
<!-- Node10&#45;&gt;Node9 -->
<g id="edge10" class="edge">
<title>Node10&#45;&gt;Node9</title>
<path fill="none" stroke="midnightblue" d="M692.61,-128.58C702.1,-130.74 711.92,-132.98 721.58,-135.18"/>
<polygon fill="midnightblue" stroke="midnightblue" points="721.03,-138.65 731.56,-137.46 722.59,-131.83 721.03,-138.65"/>
</g>
</g>
</svg>
