<?xml version="1.0" encoding="UTF-8" standalone="no"?>
<!DOCTYPE svg PUBLIC "-//W3C//DTD SVG 1.1//EN"
 "http://www.w3.org/Graphics/SVG/1.1/DTD/svg11.dtd">
<!-- Generated by graphviz version 2.43.0 (0)
 -->
<!-- Title: csv::internals::IBasicCSVParser::parse Pages: 1 -->
<svg width="578pt" height="391pt"
 viewBox="0.00 0.00 578.00 391.00" xmlns="http://www.w3.org/2000/svg" xmlns:xlink="http://www.w3.org/1999/xlink">
<g id="graph0" class="graph" transform="scale(1 1) rotate(0) translate(4 387)">
<title>csv::internals::IBasicCSVParser::parse</title>
<!-- Node1 -->
<g id="node1" class="node">
<title>Node1</title>
<g id="a_node1"><a xlink:title=" ">
<polygon fill="#bfbfbf" stroke="black" points="0,-186.5 0,-216.5 166,-216.5 166,-186.5 0,-186.5"/>
<text text-anchor="start" x="8" y="-204.5" font-family="Helvetica,sans-Serif" font-size="10.00">csv::internals::IBasicCSVParser</text>
<text text-anchor="middle" x="83" y="-193.5" font-family="Helvetica,sans-Serif" font-size="10.00">::parse</text>
</a>
</g>
</g>
<!-- Node2 -->
<g id="node2" class="node">
<title>Node2</title>
<g id="a_node2"><a xlink:href="classcsv_1_1internals_1_1IBasicCSVParser.html#ad51574362ff2ba4d87f793c03f98d834" target="_top" xlink:title=" ">
<polygon fill="none" stroke="black" points="404,-352.5 404,-382.5 570,-382.5 570,-352.5 404,-352.5"/>
<text text-anchor="start" x="412" y="-370.5" font-family="Helvetica,sans-Serif" font-size="10.00">csv::internals::IBasicCSVParser</text>
<text text-anchor="middle" x="487" y="-359.5" font-family="Helvetica,sans-Serif" font-size="10.00">::compound_parse_flag</text>
</a>
</g>
</g>
<!-- Node1&#45;&gt;Node2 -->
<g id="edge1" class="edge">
<title>Node1&#45;&gt;Node2</title>
<path fill="none" stroke="midnightblue" d="M91.91,-216.76C108.08,-246.18 148,-310.34 202,-338.5 260.66,-369.1 335.36,-375.67 393.43,-374.95"/>
<polygon fill="midnightblue" stroke="midnightblue" points="393.77,-378.45 403.7,-374.75 393.63,-371.45 393.77,-378.45"/>
</g>
<!-- Node3 -->
<g id="node3" class="node">
<title>Node3</title>
<g id="a_node3"><a xlink:href="classcsv_1_1internals_1_1IBasicCSVParser.html#a38c1f808e76080756dc5768f02d4a7a3" target="_top" xlink:title=" ">
<polygon fill="none" stroke="black" points="404,-296.5 404,-326.5 570,-326.5 570,-296.5 404,-296.5"/>
<text text-anchor="start" x="412" y="-314.5" font-family="Helvetica,sans-Serif" font-size="10.00">csv::internals::IBasicCSVParser</text>
<text text-anchor="middle" x="487" y="-303.5" font-family="Helvetica,sans-Serif" font-size="10.00">::current_row_start</text>
</a>
</g>
</g>
<!-- Node1&#45;&gt;Node3 -->
<g id="edge2" class="edge">
<title>Node1&#45;&gt;Node3</title>
<path fill="none" stroke="midnightblue" d="M93.79,-216.56C111.64,-242.45 152.25,-294.52 202,-314.5 267.53,-340.82 348.62,-336.75 407.36,-328.06"/>
<polygon fill="midnightblue" stroke="midnightblue" points="407.98,-331.5 417.32,-326.51 406.9,-324.59 407.98,-331.5"/>
</g>
<!-- Node4 -->
<g id="node4" class="node">
<title>Node4</title>
<g id="a_node4"><a xlink:href="classcsv_1_1internals_1_1IBasicCSVParser.html#ab547263c2ad94d3c50fe95f207e10aa0" target="_top" xlink:title=" ">
<polygon fill="none" stroke="black" points="202,-274.5 202,-304.5 368,-304.5 368,-274.5 202,-274.5"/>
<text text-anchor="start" x="210" y="-292.5" font-family="Helvetica,sans-Serif" font-size="10.00">csv::internals::IBasicCSVParser</text>
<text text-anchor="middle" x="285" y="-281.5" font-family="Helvetica,sans-Serif" font-size="10.00">::parse_field</text>
</a>
</g>
</g>
<!-- Node1&#45;&gt;Node4 -->
<g id="edge3" class="edge">
<title>Node1&#45;&gt;Node4</title>
<path fill="none" stroke="midnightblue" d="M112.7,-216.67C136.35,-228.91 170.93,-246.23 202,-259.5 211.2,-263.43 221.11,-267.33 230.74,-270.95"/>
<polygon fill="midnightblue" stroke="midnightblue" points="229.66,-274.28 240.26,-274.47 232.09,-267.72 229.66,-274.28"/>
</g>
<!-- Node5 -->
<g id="node5" class="node">
<title>Node5</title>
<g id="a_node5"><a xlink:href="classcsv_1_1internals_1_1IBasicCSVParser.html#aa0043fbc17ec967a709115d2ab8debda" target="_top" xlink:title=" ">
<polygon fill="none" stroke="black" points="404,-233.5 404,-263.5 570,-263.5 570,-233.5 404,-233.5"/>
<text text-anchor="start" x="412" y="-251.5" font-family="Helvetica,sans-Serif" font-size="10.00">csv::internals::IBasicCSVParser</text>
<text text-anchor="middle" x="487" y="-240.5" font-family="Helvetica,sans-Serif" font-size="10.00">::ws_flag</text>
</a>
</g>
</g>
<!-- Node1&#45;&gt;Node5 -->
<g id="edge15" class="edge">
<title>Node1&#45;&gt;Node5</title>
<path fill="none" stroke="midnightblue" d="M147.42,-216.54C165.01,-220.27 184.17,-223.93 202,-226.5 265.71,-235.68 338.04,-241.21 393.76,-244.43"/>
<polygon fill="midnightblue" stroke="midnightblue" points="393.79,-247.94 403.97,-245 394.18,-240.95 393.79,-247.94"/>
</g>
<!-- Node6 -->
<g id="node6" class="node">
<title>Node6</title>
<g id="a_node6"><a xlink:href="classcsv_1_1internals_1_1IBasicCSVParser.html#a889366716d48b7e4939369388a7c3d46" target="_top" xlink:title=" ">
<polygon fill="none" stroke="black" points="202,-186.5 202,-216.5 368,-216.5 368,-186.5 202,-186.5"/>
<text text-anchor="start" x="210" y="-204.5" font-family="Helvetica,sans-Serif" font-size="10.00">csv::internals::IBasicCSVParser</text>
<text text-anchor="middle" x="285" y="-193.5" font-family="Helvetica,sans-Serif" font-size="10.00">::parse_flag</text>
</a>
</g>
</g>
<!-- Node1&#45;&gt;Node6 -->
<g id="edge7" class="edge">
<title>Node1&#45;&gt;Node6</title>
<path fill="none" stroke="midnightblue" d="M166.21,-201.5C174.56,-201.5 183.08,-201.5 191.53,-201.5"/>
<polygon fill="midnightblue" stroke="midnightblue" points="191.78,-205 201.78,-201.5 191.78,-198 191.78,-205"/>
</g>
<!-- Node7 -->
<g id="node7" class="node">
<title>Node7</title>
<g id="a_node7"><a xlink:href="classcsv_1_1internals_1_1IBasicCSVParser.html#a0005754750cea46f78258c80f4f15886" target="_top" xlink:title=" ">
<polygon fill="none" stroke="black" points="202,-137.5 202,-167.5 368,-167.5 368,-137.5 202,-137.5"/>
<text text-anchor="start" x="210" y="-155.5" font-family="Helvetica,sans-Serif" font-size="10.00">csv::internals::IBasicCSVParser</text>
<text text-anchor="middle" x="285" y="-144.5" font-family="Helvetica,sans-Serif" font-size="10.00">::push_field</text>
</a>
</g>
</g>
<!-- Node1&#45;&gt;Node7 -->
<g id="edge8" class="edge">
<title>Node1&#45;&gt;Node7</title>
<path fill="none" stroke="midnightblue" d="M145.37,-186.47C166.67,-181.24 190.75,-175.35 212.79,-169.95"/>
<polygon fill="midnightblue" stroke="midnightblue" points="213.87,-173.29 222.75,-167.51 212.2,-166.49 213.87,-173.29"/>
</g>
<!-- Node9 -->
<g id="node9" class="node">
<title>Node9</title>
<g id="a_node9"><a xlink:href="classcsv_1_1internals_1_1IBasicCSVParser.html#af28c9b3e922779765411c25150352037" target="_top" xlink:title=" ">
<polygon fill="none" stroke="black" points="202,-88.5 202,-118.5 368,-118.5 368,-88.5 202,-88.5"/>
<text text-anchor="start" x="210" y="-106.5" font-family="Helvetica,sans-Serif" font-size="10.00">csv::internals::IBasicCSVParser</text>
<text text-anchor="middle" x="285" y="-95.5" font-family="Helvetica,sans-Serif" font-size="10.00">::push_row</text>
</a>
</g>
</g>
<!-- Node1&#45;&gt;Node9 -->
<g id="edge10" class="edge">
<title>Node1&#45;&gt;Node9</title>
<path fill="none" stroke="midnightblue" d="M104.82,-186.3C127.7,-170.17 166.01,-144.79 202,-128.5 207.08,-126.2 212.44,-124.04 217.88,-122.02"/>
<polygon fill="midnightblue" stroke="midnightblue" points="219.44,-125.18 227.71,-118.55 217.11,-118.58 219.44,-125.18"/>
</g>
<!-- Node11 -->
<g id="node11" class="node">
<title>Node11</title>
<g id="a_node11"><a xlink:href="classcsv_1_1internals_1_1CSVFieldList.html#a34412a8fe533e5b6c970f1e6834f6659" target="_top" xlink:title=" ">
<polygon fill="none" stroke="black" points="422,-42.5 422,-72.5 552,-72.5 552,-42.5 422,-42.5"/>
<text text-anchor="start" x="430" y="-60.5" font-family="Helvetica,sans-Serif" font-size="10.00">csv::internals::CSVField</text>
<text text-anchor="middle" x="487" y="-49.5" font-family="Helvetica,sans-Serif" font-size="10.00">List::size</text>
</a>
</g>
</g>
<!-- Node1&#45;&gt;Node11 -->
<g id="edge13" class="edge">
<title>Node1&#45;&gt;Node11</title>
<path fill="none" stroke="midnightblue" d="M93.07,-186.39C110.35,-159.19 150.86,-102.57 202,-78.5 267.97,-47.45 352.17,-45.2 411.72,-48.88"/>
<polygon fill="midnightblue" stroke="midnightblue" points="411.58,-52.38 421.79,-49.57 412.06,-45.39 411.58,-52.38"/>
</g>
<!-- Node12 -->
<g id="node12" class="node">
<title>Node12</title>
<g id="a_node12"><a xlink:href="classcsv_1_1internals_1_1IBasicCSVParser.html#ab8cb98aa478715485e0a3a15e124666f" target="_top" xlink:title=" ">
<polygon fill="none" stroke="black" points="202,-0.5 202,-30.5 368,-30.5 368,-0.5 202,-0.5"/>
<text text-anchor="start" x="210" y="-18.5" font-family="Helvetica,sans-Serif" font-size="10.00">csv::internals::IBasicCSVParser</text>
<text text-anchor="middle" x="285" y="-7.5" font-family="Helvetica,sans-Serif" font-size="10.00">::trim_utf8_bom</text>
</a>
</g>
</g>
<!-- Node1&#45;&gt;Node12 -->
<g id="edge14" class="edge">
<title>Node1&#45;&gt;Node12</title>
<path fill="none" stroke="midnightblue" d="M91.59,-186.33C107.75,-155.5 148.49,-85.09 202,-45.5 207.49,-41.44 213.58,-37.88 219.89,-34.77"/>
<polygon fill="midnightblue" stroke="midnightblue" points="221.59,-37.85 229.26,-30.53 218.71,-31.47 221.59,-37.85"/>
</g>
<!-- Node4&#45;&gt;Node2 -->
<g id="edge4" class="edge">
<title>Node4&#45;&gt;Node2</title>
<path fill="none" stroke="midnightblue" d="M323.4,-304.59C346.57,-313.89 376.97,-326.01 404,-336.5 414.32,-340.51 425.39,-344.74 435.96,-348.74"/>
<polygon fill="midnightblue" stroke="midnightblue" points="434.9,-352.08 445.49,-352.35 437.37,-345.54 434.9,-352.08"/>
</g>
<!-- Node4&#45;&gt;Node3 -->
<g id="edge5" class="edge">
<title>Node4&#45;&gt;Node3</title>
<path fill="none" stroke="midnightblue" d="M368.21,-298.54C376.65,-299.47 385.27,-300.42 393.81,-301.36"/>
<polygon fill="midnightblue" stroke="midnightblue" points="393.46,-304.84 403.78,-302.46 394.23,-297.88 393.46,-304.84"/>
</g>
<!-- Node4&#45;&gt;Node5 -->
<g id="edge6" class="edge">
<title>Node4&#45;&gt;Node5</title>
<path fill="none" stroke="midnightblue" d="M359.34,-274.47C373.47,-271.57 388.36,-268.52 402.78,-265.56"/>
<polygon fill="midnightblue" stroke="midnightblue" points="403.58,-268.97 412.67,-263.53 402.17,-262.11 403.58,-268.97"/>
</g>
<!-- Node8 -->
<g id="node8" class="node">
<title>Node8</title>
<g id="a_node8"><a xlink:href="classcsv_1_1internals_1_1CSVFieldList.html#aa18dc7e6f2b3c28fbe70547b91591166" target="_top" xlink:title=" ">
<polygon fill="none" stroke="black" points="422,-140.5 422,-170.5 552,-170.5 552,-140.5 422,-140.5"/>
<text text-anchor="start" x="430" y="-158.5" font-family="Helvetica,sans-Serif" font-size="10.00">csv::internals::CSVField</text>
<text text-anchor="middle" x="487" y="-147.5" font-family="Helvetica,sans-Serif" font-size="10.00">List::emplace_back</text>
</a>
</g>
</g>
<!-- Node7&#45;&gt;Node8 -->
<g id="edge9" class="edge">
<title>Node7&#45;&gt;Node8</title>
<path fill="none" stroke="midnightblue" d="M368.21,-153.73C382.61,-153.95 397.5,-154.17 411.67,-154.39"/>
<polygon fill="midnightblue" stroke="midnightblue" points="411.78,-157.89 421.83,-154.54 411.89,-150.89 411.78,-157.89"/>
</g>
<!-- Node10 -->
<g id="node10" class="node">
<title>Node10</title>
<g id="a_node10"><a xlink:href="classcsv_1_1internals_1_1ThreadSafeDeque.html#a8c9d238a10a196b83e74c1758c9afb3b" target="_top" xlink:title=" ">
<polygon fill="none" stroke="black" points="415.5,-91.5 415.5,-121.5 558.5,-121.5 558.5,-91.5 415.5,-91.5"/>
<text text-anchor="start" x="423.5" y="-109.5" font-family="Helvetica,sans-Serif" font-size="10.00">csv::internals::ThreadSafe</text>
<text text-anchor="middle" x="487" y="-98.5" font-family="Helvetica,sans-Serif" font-size="10.00">Deque::push_back</text>
</a>
</g>
</g>
<!-- Node9&#45;&gt;Node10 -->
<g id="edge11" class="edge">
<title>Node9&#45;&gt;Node10</title>
<path fill="none" stroke="midnightblue" d="M368.21,-104.73C380.42,-104.92 392.99,-105.1 405.16,-105.29"/>
<polygon fill="midnightblue" stroke="midnightblue" points="405.23,-108.79 415.28,-105.44 405.34,-101.79 405.23,-108.79"/>
</g>
<!-- Node9&#45;&gt;Node11 -->
<g id="edge12" class="edge">
<title>Node9&#45;&gt;Node11</title>
<path fill="none" stroke="midnightblue" d="M351.49,-88.44C370.78,-84 392.03,-79.11 411.83,-74.56"/>
<polygon fill="midnightblue" stroke="midnightblue" points="412.77,-77.93 421.73,-72.28 411.2,-71.11 412.77,-77.93"/>
</g>
</g>
</svg>
