<?xml version="1.0" encoding="UTF-8" standalone="no"?>
<!DOCTYPE svg PUBLIC "-//W3C//DTD SVG 1.1//EN"
 "http://www.w3.org/Graphics/SVG/1.1/DTD/svg11.dtd">
<!-- Generated by graphviz version 2.43.0 (0)
 -->
<!-- Title: nmbuflowtorch::Network Pages: 1 -->
<svg width="286pt" height="95pt"
 viewBox="0.00 0.00 286.00 95.00" xmlns="http://www.w3.org/2000/svg" xmlns:xlink="http://www.w3.org/1999/xlink">
<g id="graph0" class="graph" transform="scale(1 1) rotate(0) translate(4 91)">
<title>nmbuflowtorch::Network</title>
<!-- Node1 -->
<g id="node1" class="node">
<title>Node1</title>
<g id="a_node1"><a xlink:title="The Network class is a class for creating and managing a neural network. It has functions for adding ...">
<polygon fill="#bfbfbf" stroke="black" points="64,-0.5 64,-19.5 201,-19.5 201,-0.5 64,-0.5"/>
<text text-anchor="middle" x="132.5" y="-7.5" font-family="Helvetica,sans-Serif" font-size="10.00">nmbuflowtorch::Network</text>
</a>
</g>
</g>
<!-- Node2 -->
<g id="node2" class="node">
<title>Node2</title>
<g id="a_node2"><a xlink:href="classnmbuflowtorch_1_1Loss.html" target="_top" xlink:title=" ">
<polygon fill="none" stroke="black" points="0,-67.5 0,-86.5 117,-86.5 117,-67.5 0,-67.5"/>
<text text-anchor="middle" x="58.5" y="-74.5" font-family="Helvetica,sans-Serif" font-size="10.00">nmbuflowtorch::Loss</text>
</a>
</g>
</g>
<!-- Node2&#45;&gt;Node1 -->
<g id="edge1" class="edge">
<title>Node2&#45;&gt;Node1</title>
<path fill="none" stroke="#9a32cd" stroke-dasharray="5,2" d="M76.31,-60.36C90.86,-47.58 110.88,-29.99 122.68,-19.63"/>
<polygon fill="#9a32cd" stroke="#9a32cd" points="73.68,-58 68.48,-67.23 78.3,-63.26 73.68,-58"/>
<text text-anchor="middle" x="112" y="-41" font-family="Helvetica,sans-Serif" font-size="10.00"> loss</text>
</g>
<!-- Node3 -->
<g id="node3" class="node">
<title>Node3</title>
<g id="a_node3"><a xlink:href="classnmbuflowtorch_1_1Optimizer.html" target="_top" xlink:title=" ">
<polygon fill="none" stroke="black" points="135,-67.5 135,-86.5 278,-86.5 278,-67.5 135,-67.5"/>
<text text-anchor="middle" x="206.5" y="-74.5" font-family="Helvetica,sans-Serif" font-size="10.00">nmbuflowtorch::Optimizer</text>
</a>
</g>
</g>
<!-- Node3&#45;&gt;Node1 -->
<g id="edge2" class="edge">
<title>Node3&#45;&gt;Node1</title>
<path fill="none" stroke="#9a32cd" stroke-dasharray="5,2" d="M188.69,-60.36C174.14,-47.58 154.12,-29.99 142.32,-19.63"/>
<polygon fill="#9a32cd" stroke="#9a32cd" points="186.7,-63.26 196.52,-67.23 191.32,-58 186.7,-63.26"/>
<text text-anchor="middle" x="183" y="-41" font-family="Helvetica,sans-Serif" font-size="10.00"> opt</text>
</g>
</g>
</svg>
