<?xml version="1.0" encoding="UTF-8" standalone="no"?>
<!DOCTYPE svg PUBLIC "-//W3C//DTD SVG 1.1//EN"
 "http://www.w3.org/Graphics/SVG/1.1/DTD/svg11.dtd">
<!-- Generated by graphviz version 2.43.0 (0)
 -->
<!-- Title: csv::CSVField::operator== Pages: 1 -->
<svg width="659pt" height="105pt"
 viewBox="0.00 0.00 659.00 104.50" xmlns="http://www.w3.org/2000/svg" xmlns:xlink="http://www.w3.org/1999/xlink">
<g id="graph0" class="graph" transform="scale(1 1) rotate(0) translate(4 100.5)">
<title>csv::CSVField::operator==</title>
<!-- Node1 -->
<g id="node1" class="node">
<title>Node1</title>
<g id="a_node1"><a xlink:title=" ">
<polygon fill="#bfbfbf" stroke="black" points="0,-22.5 0,-41.5 145,-41.5 145,-22.5 0,-22.5"/>
<text text-anchor="middle" x="72.5" y="-29.5" font-family="Helvetica,sans-Serif" font-size="10.00">csv::CSVField::operator==</text>
</a>
</g>
</g>
<!-- Node2 -->
<g id="node2" class="node">
<title>Node2</title>
<g id="a_node2"><a xlink:href="namespacecsv_1_1internals.html#adac40005a876a4cb847f62c79be7935d" target="_top" xlink:title=" ">
<polygon fill="none" stroke="black" points="181,-22.5 181,-41.5 317,-41.5 317,-22.5 181,-22.5"/>
<text text-anchor="middle" x="249" y="-29.5" font-family="Helvetica,sans-Serif" font-size="10.00">csv::internals::data_type</text>
</a>
</g>
</g>
<!-- Node1&#45;&gt;Node2 -->
<g id="edge1" class="edge">
<title>Node1&#45;&gt;Node2</title>
<path fill="none" stroke="midnightblue" d="M145.23,-32C153.59,-32 162.13,-32 170.56,-32"/>
<polygon fill="midnightblue" stroke="midnightblue" points="170.76,-35.5 180.76,-32 170.76,-28.5 170.76,-35.5"/>
</g>
<!-- Node3 -->
<g id="node3" class="node">
<title>Node3</title>
<g id="a_node3"><a xlink:href="namespacecsv_1_1internals.html#ae8e51ab7323dd0e66ce1157a5d230718" target="_top" xlink:title=" ">
<polygon fill="none" stroke="black" points="353,-66 353,-96 496,-96 496,-66 353,-66"/>
<text text-anchor="start" x="361" y="-84" font-family="Helvetica,sans-Serif" font-size="10.00">csv::internals::_determine</text>
<text text-anchor="middle" x="424.5" y="-73" font-family="Helvetica,sans-Serif" font-size="10.00">_integral_type</text>
</a>
</g>
</g>
<!-- Node2&#45;&gt;Node3 -->
<g id="edge2" class="edge">
<title>Node2&#45;&gt;Node3</title>
<path fill="none" stroke="midnightblue" d="M283.86,-41.56C305.64,-47.71 334.6,-55.89 360.5,-63.21"/>
<polygon fill="midnightblue" stroke="midnightblue" points="359.68,-66.61 370.26,-65.96 361.58,-59.88 359.68,-66.61"/>
</g>
<!-- Node4 -->
<g id="node4" class="node">
<title>Node4</title>
<g id="a_node4"><a xlink:href="namespacecsv_1_1internals.html#a8689734872945990256b14391b640da2" target="_top" xlink:title=" ">
<polygon fill="none" stroke="black" points="359.5,-17 359.5,-47 489.5,-47 489.5,-17 359.5,-17"/>
<text text-anchor="start" x="367.5" y="-35" font-family="Helvetica,sans-Serif" font-size="10.00">csv::internals::_process</text>
<text text-anchor="middle" x="424.5" y="-24" font-family="Helvetica,sans-Serif" font-size="10.00">_potential_exponential</text>
</a>
</g>
</g>
<!-- Node2&#45;&gt;Node4 -->
<g id="edge3" class="edge">
<title>Node2&#45;&gt;Node4</title>
<path fill="none" stroke="midnightblue" d="M317.08,-25.41C327.63,-25.24 338.59,-25.2 349.29,-25.31"/>
<polygon fill="midnightblue" stroke="midnightblue" points="349.4,-28.81 359.45,-25.46 349.5,-21.82 349.4,-28.81"/>
</g>
<!-- Node5 -->
<g id="node5" class="node">
<title>Node5</title>
<g id="a_node5"><a xlink:href="namespacecsv_1_1internals.html#a53610b31da85139a100e9773f6b9fb4f" target="_top" xlink:title=" ">
<polygon fill="none" stroke="black" points="532,-0.5 532,-19.5 651,-19.5 651,-0.5 532,-0.5"/>
<text text-anchor="middle" x="591.5" y="-7.5" font-family="Helvetica,sans-Serif" font-size="10.00">csv::internals::pow10</text>
</a>
</g>
</g>
<!-- Node2&#45;&gt;Node5 -->
<g id="edge6" class="edge">
<title>Node2&#45;&gt;Node5</title>
<path fill="none" stroke="midnightblue" d="M282.6,-22.39C302.69,-16.97 329.1,-10.75 353,-8 409.48,-1.51 474.02,-2.59 521.55,-4.97"/>
<polygon fill="midnightblue" stroke="midnightblue" points="521.55,-8.47 531.73,-5.51 521.93,-1.48 521.55,-8.47"/>
</g>
<!-- Node4&#45;&gt;Node2 -->
<g id="edge4" class="edge">
<title>Node4&#45;&gt;Node2</title>
<path fill="none" stroke="midnightblue" d="M359.45,-38.54C348.98,-38.74 338.04,-38.8 327.3,-38.71"/>
<polygon fill="midnightblue" stroke="midnightblue" points="327.12,-35.21 317.08,-38.59 327.04,-42.21 327.12,-35.21"/>
</g>
<!-- Node4&#45;&gt;Node5 -->
<g id="edge5" class="edge">
<title>Node4&#45;&gt;Node5</title>
<path fill="none" stroke="midnightblue" d="M489.77,-23.43C500.26,-22.03 511.16,-20.58 521.76,-19.17"/>
<polygon fill="midnightblue" stroke="midnightblue" points="522.35,-22.62 531.8,-17.83 521.42,-15.68 522.35,-22.62"/>
</g>
</g>
</svg>
