<?xml version="1.0" encoding="UTF-8" standalone="no"?>
<!DOCTYPE svg PUBLIC "-//W3C//DTD SVG 1.1//EN"
 "http://www.w3.org/Graphics/SVG/1.1/DTD/svg11.dtd">
<!-- Generated by graphviz version 2.43.0 (0)
 -->
<!-- Title: csv::internals::IBasicCSVParser Pages: 1 -->
<svg width="415pt" height="173pt"
 viewBox="0.00 0.00 415.00 173.00" xmlns="http://www.w3.org/2000/svg" xmlns:xlink="http://www.w3.org/1999/xlink">
<g id="graph0" class="graph" transform="scale(1 1) rotate(0) translate(4 169)">
<title>csv::internals::IBasicCSVParser</title>
<!-- Node1 -->
<g id="node1" class="node">
<title>Node1</title>
<g id="a_node1"><a xlink:title=" ">
<polygon fill="#bfbfbf" stroke="black" points="155.5,-0.5 155.5,-19.5 321.5,-19.5 321.5,-0.5 155.5,-0.5"/>
<text text-anchor="middle" x="238.5" y="-7.5" font-family="Helvetica,sans-Serif" font-size="10.00">csv::internals::IBasicCSVParser</text>
</a>
</g>
</g>
<!-- Node2 -->
<g id="node2" class="node">
<title>Node2</title>
<g id="a_node2"><a xlink:href="classcsv_1_1internals_1_1CSVFieldList.html" target="_top" xlink:title=" ">
<polygon fill="none" stroke="black" points="2,-73 2,-92 149,-92 149,-73 2,-73"/>
<text text-anchor="middle" x="75.5" y="-80" font-family="Helvetica,sans-Serif" font-size="10.00">csv::internals::CSVFieldList</text>
</a>
</g>
</g>
<!-- Node2&#45;&gt;Node1 -->
<g id="edge1" class="edge">
<title>Node2&#45;&gt;Node1</title>
<path fill="none" stroke="#9a32cd" stroke-dasharray="5,2" d="M104.7,-68.87C137.65,-54.62 190.34,-31.83 218.77,-19.53"/>
<polygon fill="#9a32cd" stroke="#9a32cd" points="102.95,-65.81 95.16,-73 105.73,-72.24 102.95,-65.81"/>
<text text-anchor="middle" x="187.5" y="-41" font-family="Helvetica,sans-Serif" font-size="10.00"> fields</text>
</g>
<!-- Node3 -->
<g id="node3" class="node">
<title>Node3</title>
<g id="a_node3"><a xlink:href="structcsv_1_1internals_1_1RawCSVField.html" target="_top" xlink:title=" ">
<polygon fill="none" stroke="black" points="0,-145.5 0,-164.5 151,-164.5 151,-145.5 0,-145.5"/>
<text text-anchor="middle" x="75.5" y="-152.5" font-family="Helvetica,sans-Serif" font-size="10.00">csv::internals::RawCSVField</text>
</a>
</g>
</g>
<!-- Node3&#45;&gt;Node2 -->
<g id="edge2" class="edge">
<title>Node3&#45;&gt;Node2</title>
<path fill="none" stroke="#9a32cd" stroke-dasharray="5,2" d="M75.5,-134.94C75.5,-121.03 75.5,-102.82 75.5,-92.22"/>
<polygon fill="#9a32cd" stroke="#9a32cd" points="72,-135.36 75.5,-145.36 79,-135.36 72,-135.36"/>
<text text-anchor="middle" x="91.5" y="-119" font-family="Helvetica,sans-Serif" font-size="10.00"> _back</text>
</g>
<!-- Node4 -->
<g id="node4" class="node">
<title>Node4</title>
<g id="a_node4"><a xlink:href="classcsv_1_1internals_1_1ThreadSafeDeque.html" target="_top" xlink:title=" ">
<polygon fill="none" stroke="black" points="167,-67.5 167,-97.5 310,-97.5 310,-67.5 167,-67.5"/>
<text text-anchor="start" x="175" y="-85.5" font-family="Helvetica,sans-Serif" font-size="10.00">csv::internals::ThreadSafe</text>
<text text-anchor="middle" x="238.5" y="-74.5" font-family="Helvetica,sans-Serif" font-size="10.00">Deque&lt; T &gt;</text>
</a>
</g>
</g>
<!-- Node4&#45;&gt;Node1 -->
<g id="edge3" class="edge">
<title>Node4&#45;&gt;Node1</title>
<path fill="none" stroke="#9a32cd" stroke-dasharray="5,2" d="M238.5,-57.09C238.5,-44.21 238.5,-29.2 238.5,-19.89"/>
<polygon fill="#9a32cd" stroke="#9a32cd" points="235,-57.23 238.5,-67.23 242,-57.23 235,-57.23"/>
<text text-anchor="middle" x="261" y="-41" font-family="Helvetica,sans-Serif" font-size="10.00"> _records</text>
</g>
<!-- Node5 -->
<g id="node5" class="node">
<title>Node5</title>
<g id="a_node5"><a xlink:href="classcsv_1_1CSVRow.html" target="_top" xlink:title=" ">
<polygon fill="none" stroke="black" points="328,-73 328,-92 407,-92 407,-73 328,-73"/>
<text text-anchor="middle" x="367.5" y="-80" font-family="Helvetica,sans-Serif" font-size="10.00">csv::CSVRow</text>
</a>
</g>
</g>
<!-- Node5&#45;&gt;Node1 -->
<g id="edge4" class="edge">
<title>Node5&#45;&gt;Node1</title>
<path fill="none" stroke="#9a32cd" stroke-dasharray="5,2" d="M343.03,-68.12C316.88,-53.84 276.23,-31.62 254.12,-19.53"/>
<polygon fill="#9a32cd" stroke="#9a32cd" points="341.49,-71.27 351.94,-73 344.84,-65.13 341.49,-71.27"/>
<text text-anchor="middle" x="337" y="-41" font-family="Helvetica,sans-Serif" font-size="10.00"> current_row</text>
</g>
</g>
</svg>
