<?xml version="1.0" encoding="UTF-8" standalone="no"?>
<!DOCTYPE svg PUBLIC "-//W3C//DTD SVG 1.1//EN"
 "http://www.w3.org/Graphics/SVG/1.1/DTD/svg11.dtd">
<!-- Generated by graphviz version 2.43.0 (0)
 -->
<!-- Title: nmbuflowtorch::Network Pages: 1 -->
<svg width="288pt" height="95pt"
 viewBox="0.00 0.00 288.00 95.00" xmlns="http://www.w3.org/2000/svg" xmlns:xlink="http://www.w3.org/1999/xlink">
<g id="graph0" class="graph" transform="scale(1 1) rotate(0) translate(4 91)">
<title>nmbuflowtorch::Network</title>
<!-- Node1 -->
<g id="node1" class="node">
<title>Node1</title>
<g id="a_node1"><a xlink:title=" ">
<polygon fill="#bfbfbf" stroke="black" points="64.5,-0.5 64.5,-19.5 201.5,-19.5 201.5,-0.5 64.5,-0.5"/>
<text text-anchor="middle" x="133" y="-7.5" font-family="Helvetica,sans-Serif" font-size="10.00">nmbuflowtorch::Network</text>
</a>
</g>
</g>
<!-- Node2 -->
<g id="node2" class="node">
<title>Node2</title>
<g id="a_node2"><a xlink:href="classnmbuflowtorch_1_1Loss.html" target="_top" xlink:title=" ">
<polygon fill="none" stroke="black" points="0,-67.5 0,-86.5 118,-86.5 118,-67.5 0,-67.5"/>
<text text-anchor="middle" x="59" y="-74.5" font-family="Helvetica,sans-Serif" font-size="10.00">nmbuflowtorch::Loss</text>
</a>
</g>
</g>
<!-- Node2&#45;&gt;Node1 -->
<g id="edge1" class="edge">
<title>Node2&#45;&gt;Node1</title>
<path fill="none" stroke="#9a32cd" stroke-dasharray="5,2" d="M76.81,-60.36C91.36,-47.58 111.38,-29.99 123.18,-19.63"/>
<polygon fill="#9a32cd" stroke="#9a32cd" points="74.18,-58 68.98,-67.23 78.8,-63.26 74.18,-58"/>
<text text-anchor="middle" x="112.5" y="-41" font-family="Helvetica,sans-Serif" font-size="10.00"> loss</text>
</g>
<!-- Node3 -->
<g id="node3" class="node">
<title>Node3</title>
<g id="a_node3"><a xlink:href="classnmbuflowtorch_1_1Optimizer.html" target="_top" xlink:title=" ">
<polygon fill="none" stroke="black" points="136,-67.5 136,-86.5 280,-86.5 280,-67.5 136,-67.5"/>
<text text-anchor="middle" x="208" y="-74.5" font-family="Helvetica,sans-Serif" font-size="10.00">nmbuflowtorch::Optimizer</text>
</a>
</g>
</g>
<!-- Node3&#45;&gt;Node1 -->
<g id="edge2" class="edge">
<title>Node3&#45;&gt;Node1</title>
<path fill="none" stroke="#9a32cd" stroke-dasharray="5,2" d="M189.95,-60.36C175.21,-47.58 154.91,-29.99 142.95,-19.63"/>
<polygon fill="#9a32cd" stroke="#9a32cd" points="188.04,-63.33 197.89,-67.23 192.62,-58.04 188.04,-63.33"/>
<text text-anchor="middle" x="183.5" y="-41" font-family="Helvetica,sans-Serif" font-size="10.00"> opt</text>
</g>
</g>
</svg>
