<?xml version="1.0" encoding="UTF-8" standalone="no"?>
<!DOCTYPE svg PUBLIC "-//W3C//DTD SVG 1.1//EN"
 "http://www.w3.org/Graphics/SVG/1.1/DTD/svg11.dtd">
<!-- Generated by graphviz version 2.43.0 (0)
 -->
<!-- Title: nmbuflowtorch::Network::train_one_epoch Pages: 1 -->
<svg width="688pt" height="274pt"
 viewBox="0.00 0.00 688.00 274.00" xmlns="http://www.w3.org/2000/svg" xmlns:xlink="http://www.w3.org/1999/xlink">
<g id="graph0" class="graph" transform="scale(1 1) rotate(0) translate(4 270)">
<title>nmbuflowtorch::Network::train_one_epoch</title>
<!-- Node1 -->
<g id="node1" class="node">
<title>Node1</title>
<g id="a_node1"><a xlink:title="Forward pass of the network using input X.">
<polygon fill="#bfbfbf" stroke="black" points="0,-120.5 0,-150.5 137,-150.5 137,-120.5 0,-120.5"/>
<text text-anchor="start" x="8" y="-138.5" font-family="Helvetica,sans-Serif" font-size="10.00">nmbuflowtorch::Network</text>
<text text-anchor="middle" x="68.5" y="-127.5" font-family="Helvetica,sans-Serif" font-size="10.00">::train_one_epoch</text>
</a>
</g>
</g>
<!-- Node2 -->
<g id="node2" class="node">
<title>Node2</title>
<g id="a_node2"><a xlink:href="namespacenmbuflowtorch.html#a6841de6f2ac014f91c37f7f2c0e9cc1e" target="_top" xlink:title=" ">
<polygon fill="none" stroke="black" points="173,-148 173,-167 334,-167 334,-148 173,-148"/>
<text text-anchor="middle" x="253.5" y="-155" font-family="Helvetica,sans-Serif" font-size="10.00">nmbuflowtorch::printProgress</text>
</a>
</g>
</g>
<!-- Node1&#45;&gt;Node2 -->
<g id="edge1" class="edge">
<title>Node1&#45;&gt;Node2</title>
<path fill="none" stroke="midnightblue" d="M137.12,-143.63C145.7,-144.66 154.59,-145.73 163.44,-146.79"/>
<polygon fill="midnightblue" stroke="midnightblue" points="163.06,-150.27 173.4,-147.99 163.89,-143.32 163.06,-150.27"/>
</g>
<!-- Node3 -->
<g id="node3" class="node">
<title>Node3</title>
<g id="a_node3"><a xlink:href="classnmbuflowtorch_1_1Network.html#ac5f07dc09b1d352567d6cbcc3c38c010" target="_top" xlink:title=" ">
<polygon fill="none" stroke="black" points="185,-98.5 185,-128.5 322,-128.5 322,-98.5 185,-98.5"/>
<text text-anchor="start" x="193" y="-116.5" font-family="Helvetica,sans-Serif" font-size="10.00">nmbuflowtorch::Network</text>
<text text-anchor="middle" x="253.5" y="-105.5" font-family="Helvetica,sans-Serif" font-size="10.00">::train_batch</text>
</a>
</g>
</g>
<!-- Node1&#45;&gt;Node3 -->
<g id="edge2" class="edge">
<title>Node1&#45;&gt;Node3</title>
<path fill="none" stroke="midnightblue" d="M137.12,-127.37C149.41,-125.89 162.32,-124.34 174.88,-122.83"/>
<polygon fill="midnightblue" stroke="midnightblue" points="175.34,-126.3 184.85,-121.63 174.5,-119.35 175.34,-126.3"/>
</g>
<!-- Node4 -->
<g id="node4" class="node">
<title>Node4</title>
<g id="a_node4"><a xlink:href="classnmbuflowtorch_1_1Network.html#ad2626aa7216689fadfa4469273de8c90" target="_top" xlink:title="Using X input and y target, back propagates the loss gradient.">
<polygon fill="none" stroke="black" points="370,-186.5 370,-216.5 507,-216.5 507,-186.5 370,-186.5"/>
<text text-anchor="start" x="378" y="-204.5" font-family="Helvetica,sans-Serif" font-size="10.00">nmbuflowtorch::Network</text>
<text text-anchor="middle" x="438.5" y="-193.5" font-family="Helvetica,sans-Serif" font-size="10.00">::backward</text>
</a>
</g>
</g>
<!-- Node3&#45;&gt;Node4 -->
<g id="edge3" class="edge">
<title>Node3&#45;&gt;Node4</title>
<path fill="none" stroke="midnightblue" d="M313.08,-128.66C320.33,-131.48 327.48,-134.74 334,-138.5 352.8,-149.35 351.85,-159.6 370,-171.5 375.77,-175.28 382.09,-178.79 388.47,-181.99"/>
<polygon fill="midnightblue" stroke="midnightblue" points="387.29,-185.3 397.82,-186.43 390.29,-178.98 387.29,-185.3"/>
</g>
<!-- Node7 -->
<g id="node7" class="node">
<title>Node7</title>
<g id="a_node7"><a xlink:href="classnmbuflowtorch_1_1Network.html#a47b0ad164e645c60f736f60f87827900" target="_top" xlink:title="Returns the value from the last layer.">
<polygon fill="none" stroke="black" points="543,-137.5 543,-167.5 680,-167.5 680,-137.5 543,-137.5"/>
<text text-anchor="start" x="551" y="-155.5" font-family="Helvetica,sans-Serif" font-size="10.00">nmbuflowtorch::Network</text>
<text text-anchor="middle" x="611.5" y="-144.5" font-family="Helvetica,sans-Serif" font-size="10.00">::output</text>
</a>
</g>
</g>
<!-- Node3&#45;&gt;Node7 -->
<g id="edge10" class="edge">
<title>Node3&#45;&gt;Node7</title>
<path fill="none" stroke="midnightblue" d="M318.67,-128.53C335.31,-131.96 353.25,-135.25 370,-137.5 424.08,-144.77 485.48,-148.52 532.71,-150.46"/>
<polygon fill="midnightblue" stroke="midnightblue" points="532.74,-153.96 542.87,-150.86 533.01,-146.97 532.74,-153.96"/>
</g>
<!-- Node8 -->
<g id="node8" class="node">
<title>Node8</title>
<g id="a_node8"><a xlink:href="classnmbuflowtorch_1_1Network.html#ae6cd135a052cc1526b34bb4144ae58b6" target="_top" xlink:title=" ">
<polygon fill="none" stroke="black" points="370,-98.5 370,-128.5 507,-128.5 507,-98.5 370,-98.5"/>
<text text-anchor="start" x="378" y="-116.5" font-family="Helvetica,sans-Serif" font-size="10.00">nmbuflowtorch::Network</text>
<text text-anchor="middle" x="438.5" y="-105.5" font-family="Helvetica,sans-Serif" font-size="10.00">::forward</text>
</a>
</g>
</g>
<!-- Node3&#45;&gt;Node8 -->
<g id="edge7" class="edge">
<title>Node3&#45;&gt;Node8</title>
<path fill="none" stroke="midnightblue" d="M322.12,-113.5C334.29,-113.5 347.07,-113.5 359.5,-113.5"/>
<polygon fill="midnightblue" stroke="midnightblue" points="359.85,-117 369.85,-113.5 359.85,-110 359.85,-117"/>
</g>
<!-- Node9 -->
<g id="node9" class="node">
<title>Node9</title>
<g id="a_node9"><a xlink:href="classnmbuflowtorch_1_1Loss.html#a5747f962c29f0e1a6147c435da22c466" target="_top" xlink:title=" ">
<polygon fill="none" stroke="black" points="379.5,-49.5 379.5,-79.5 497.5,-79.5 497.5,-49.5 379.5,-49.5"/>
<text text-anchor="start" x="387.5" y="-67.5" font-family="Helvetica,sans-Serif" font-size="10.00">nmbuflowtorch::Loss</text>
<text text-anchor="middle" x="438.5" y="-56.5" font-family="Helvetica,sans-Serif" font-size="10.00">::output</text>
</a>
</g>
</g>
<!-- Node3&#45;&gt;Node9 -->
<g id="edge9" class="edge">
<title>Node3&#45;&gt;Node9</title>
<path fill="none" stroke="midnightblue" d="M310.9,-98.4C330.04,-93.27 351.59,-87.5 371.41,-82.2"/>
<polygon fill="midnightblue" stroke="midnightblue" points="372.53,-85.52 381.29,-79.55 370.72,-78.76 372.53,-85.52"/>
</g>
<!-- Node10 -->
<g id="node10" class="node">
<title>Node10</title>
<g id="a_node10"><a xlink:href="classnmbuflowtorch_1_1Network.html#ab4dcbf1de529e005b2eb4c31b8cbd552" target="_top" xlink:title=" ">
<polygon fill="none" stroke="black" points="370,-0.5 370,-30.5 507,-30.5 507,-0.5 370,-0.5"/>
<text text-anchor="start" x="378" y="-18.5" font-family="Helvetica,sans-Serif" font-size="10.00">nmbuflowtorch::Network</text>
<text text-anchor="middle" x="438.5" y="-7.5" font-family="Helvetica,sans-Serif" font-size="10.00">::update</text>
</a>
</g>
</g>
<!-- Node3&#45;&gt;Node10 -->
<g id="edge11" class="edge">
<title>Node3&#45;&gt;Node10</title>
<path fill="none" stroke="midnightblue" d="M274.94,-98.36C297.39,-82.22 334.93,-56.69 370,-39.5 373.71,-37.68 377.59,-35.93 381.53,-34.27"/>
<polygon fill="midnightblue" stroke="midnightblue" points="382.84,-37.51 390.81,-30.53 380.23,-31.02 382.84,-37.51"/>
</g>
<!-- Node5 -->
<g id="node5" class="node">
<title>Node5</title>
<g id="a_node5"><a xlink:href="classnmbuflowtorch_1_1Loss.html#a29688f70477ce9f630cb313cc7e4c365" target="_top" xlink:title=" ">
<polygon fill="none" stroke="black" points="552.5,-235.5 552.5,-265.5 670.5,-265.5 670.5,-235.5 552.5,-235.5"/>
<text text-anchor="start" x="560.5" y="-253.5" font-family="Helvetica,sans-Serif" font-size="10.00">nmbuflowtorch::Loss</text>
<text text-anchor="middle" x="611.5" y="-242.5" font-family="Helvetica,sans-Serif" font-size="10.00">::back_gradient</text>
</a>
</g>
</g>
<!-- Node4&#45;&gt;Node5 -->
<g id="edge4" class="edge">
<title>Node4&#45;&gt;Node5</title>
<path fill="none" stroke="midnightblue" d="M492.2,-216.6C509.92,-221.68 529.85,-227.39 548.23,-232.66"/>
<polygon fill="midnightblue" stroke="midnightblue" points="547.4,-236.06 557.97,-235.45 549.32,-229.33 547.4,-236.06"/>
</g>
<!-- Node6 -->
<g id="node6" class="node">
<title>Node6</title>
<g id="a_node6"><a xlink:href="classnmbuflowtorch_1_1Loss.html#ab739a047ffc84f44af71832ec704cedc" target="_top" xlink:title=" ">
<polygon fill="none" stroke="black" points="552.5,-186.5 552.5,-216.5 670.5,-216.5 670.5,-186.5 552.5,-186.5"/>
<text text-anchor="start" x="560.5" y="-204.5" font-family="Helvetica,sans-Serif" font-size="10.00">nmbuflowtorch::Loss</text>
<text text-anchor="middle" x="611.5" y="-193.5" font-family="Helvetica,sans-Serif" font-size="10.00">::eval</text>
</a>
</g>
</g>
<!-- Node4&#45;&gt;Node6 -->
<g id="edge5" class="edge">
<title>Node4&#45;&gt;Node6</title>
<path fill="none" stroke="midnightblue" d="M507.08,-201.5C518.64,-201.5 530.65,-201.5 542.22,-201.5"/>
<polygon fill="midnightblue" stroke="midnightblue" points="542.25,-205 552.25,-201.5 542.25,-198 542.25,-205"/>
</g>
<!-- Node4&#45;&gt;Node7 -->
<g id="edge6" class="edge">
<title>Node4&#45;&gt;Node7</title>
<path fill="none" stroke="midnightblue" d="M492.2,-186.4C509.92,-181.32 529.85,-175.61 548.23,-170.34"/>
<polygon fill="midnightblue" stroke="midnightblue" points="549.32,-173.67 557.97,-167.55 547.4,-166.94 549.32,-173.67"/>
</g>
<!-- Node8&#45;&gt;Node7 -->
<g id="edge8" class="edge">
<title>Node8&#45;&gt;Node7</title>
<path fill="none" stroke="midnightblue" d="M505.61,-128.58C515.1,-130.74 524.92,-132.98 534.58,-135.18"/>
<polygon fill="midnightblue" stroke="midnightblue" points="534.03,-138.65 544.56,-137.46 535.59,-131.83 534.03,-138.65"/>
</g>
</g>
</svg>
