<?xml version="1.0" encoding="UTF-8" standalone="no"?>
<!DOCTYPE svg PUBLIC "-//W3C//DTD SVG 1.1//EN"
 "http://www.w3.org/Graphics/SVG/1.1/DTD/svg11.dtd">
<!-- Generated by graphviz version 2.43.0 (0)
 -->
<!-- Title: nmbuflowtorch::Layer Pages: 1 -->
<svg width="288pt" height="235pt"
 viewBox="0.00 0.00 288.00 235.00" xmlns="http://www.w3.org/2000/svg" xmlns:xlink="http://www.w3.org/1999/xlink">
<g id="graph0" class="graph" transform="scale(1 1) rotate(0) translate(4 231)">
<title>nmbuflowtorch::Layer</title>
<!-- Node1 -->
<g id="node1" class="node">
<title>Node1</title>
<g id="a_node1"><a xlink:title="The base layer class for neural network models.">
<polygon fill="#bfbfbf" stroke="black" points="0,-104 0,-123 123,-123 123,-104 0,-104"/>
<text text-anchor="middle" x="61.5" y="-111" font-family="Helvetica,sans-Serif" font-size="10.00">nmbuflowtorch::Layer</text>
</a>
</g>
</g>
<!-- Node2 -->
<g id="node2" class="node">
<title>Node2</title>
<g id="a_node2"><a xlink:href="classnmbuflowtorch_1_1layer_1_1Convolutional.html" target="_top" xlink:title=" ">
<polygon fill="none" stroke="black" points="159,-196.5 159,-226.5 280,-226.5 280,-196.5 159,-196.5"/>
<text text-anchor="start" x="167" y="-214.5" font-family="Helvetica,sans-Serif" font-size="10.00">nmbuflowtorch::layer</text>
<text text-anchor="middle" x="219.5" y="-203.5" font-family="Helvetica,sans-Serif" font-size="10.00">::Convolutional</text>
</a>
</g>
</g>
<!-- Node1&#45;&gt;Node2 -->
<g id="edge1" class="edge">
<title>Node1&#45;&gt;Node2</title>
<path fill="none" stroke="midnightblue" d="M80.81,-129.98C99.47,-146.17 129.75,-170.8 159,-187.5 164.61,-190.7 170.73,-193.69 176.85,-196.39"/>
<polygon fill="midnightblue" stroke="midnightblue" points="82.92,-127.18 73.1,-123.2 78.3,-132.43 82.92,-127.18"/>
</g>
<!-- Node3 -->
<g id="node3" class="node">
<title>Node3</title>
<g id="a_node3"><a xlink:href="classnmbuflowtorch_1_1layer_1_1Dense.html" target="_top" xlink:title=" ">
<polygon fill="none" stroke="black" points="159,-147.5 159,-177.5 280,-177.5 280,-147.5 159,-147.5"/>
<text text-anchor="start" x="167" y="-165.5" font-family="Helvetica,sans-Serif" font-size="10.00">nmbuflowtorch::layer</text>
<text text-anchor="middle" x="219.5" y="-154.5" font-family="Helvetica,sans-Serif" font-size="10.00">::Dense</text>
</a>
</g>
</g>
<!-- Node1&#45;&gt;Node3 -->
<g id="edge2" class="edge">
<title>Node1&#45;&gt;Node3</title>
<path fill="none" stroke="midnightblue" d="M102.71,-126.13C123.45,-132.64 148.88,-140.63 170.63,-147.46"/>
<polygon fill="midnightblue" stroke="midnightblue" points="103.54,-122.72 92.95,-123.06 101.44,-129.4 103.54,-122.72"/>
</g>
<!-- Node4 -->
<g id="node4" class="node">
<title>Node4</title>
<g id="a_node4"><a xlink:href="classnmbuflowtorch_1_1layer_1_1ReLU.html" target="_top" xlink:title=" ">
<polygon fill="none" stroke="black" points="159,-98.5 159,-128.5 280,-128.5 280,-98.5 159,-98.5"/>
<text text-anchor="start" x="167" y="-116.5" font-family="Helvetica,sans-Serif" font-size="10.00">nmbuflowtorch::layer</text>
<text text-anchor="middle" x="219.5" y="-105.5" font-family="Helvetica,sans-Serif" font-size="10.00">::ReLU</text>
</a>
</g>
</g>
<!-- Node1&#45;&gt;Node4 -->
<g id="edge3" class="edge">
<title>Node1&#45;&gt;Node4</title>
<path fill="none" stroke="midnightblue" d="M133.53,-113.5C142.02,-113.5 150.62,-113.5 158.93,-113.5"/>
<polygon fill="midnightblue" stroke="midnightblue" points="133.26,-110 123.26,-113.5 133.26,-117 133.26,-110"/>
</g>
<!-- Node5 -->
<g id="node5" class="node">
<title>Node5</title>
<g id="a_node5"><a xlink:href="classnmbuflowtorch_1_1layer_1_1Sigmoid.html" target="_top" xlink:title=" ">
<polygon fill="none" stroke="black" points="159,-49.5 159,-79.5 280,-79.5 280,-49.5 159,-49.5"/>
<text text-anchor="start" x="167" y="-67.5" font-family="Helvetica,sans-Serif" font-size="10.00">nmbuflowtorch::layer</text>
<text text-anchor="middle" x="219.5" y="-56.5" font-family="Helvetica,sans-Serif" font-size="10.00">::Sigmoid</text>
</a>
</g>
</g>
<!-- Node1&#45;&gt;Node5 -->
<g id="edge4" class="edge">
<title>Node1&#45;&gt;Node5</title>
<path fill="none" stroke="midnightblue" d="M102.71,-100.87C123.45,-94.36 148.88,-86.37 170.63,-79.54"/>
<polygon fill="midnightblue" stroke="midnightblue" points="101.44,-97.6 92.95,-103.94 103.54,-104.28 101.44,-97.6"/>
</g>
<!-- Node6 -->
<g id="node6" class="node">
<title>Node6</title>
<g id="a_node6"><a xlink:href="classnmbuflowtorch_1_1layer_1_1Softmax.html" target="_top" xlink:title="Implements the forward and backward propagation of the softmax function.">
<polygon fill="none" stroke="black" points="159,-0.5 159,-30.5 280,-30.5 280,-0.5 159,-0.5"/>
<text text-anchor="start" x="167" y="-18.5" font-family="Helvetica,sans-Serif" font-size="10.00">nmbuflowtorch::layer</text>
<text text-anchor="middle" x="219.5" y="-7.5" font-family="Helvetica,sans-Serif" font-size="10.00">::Softmax</text>
</a>
</g>
</g>
<!-- Node1&#45;&gt;Node6 -->
<g id="edge5" class="edge">
<title>Node1&#45;&gt;Node6</title>
<path fill="none" stroke="midnightblue" d="M81.21,-97.09C99.96,-81.2 130.11,-57.14 159,-40.5 165.21,-36.92 172.04,-33.57 178.78,-30.55"/>
<polygon fill="midnightblue" stroke="midnightblue" points="78.75,-94.59 73.44,-103.76 83.31,-99.9 78.75,-94.59"/>
</g>
</g>
</svg>
