<?xml version="1.0" encoding="UTF-8" standalone="no"?>
<!DOCTYPE svg PUBLIC "-//W3C//DTD SVG 1.1//EN"
 "http://www.w3.org/Graphics/SVG/1.1/DTD/svg11.dtd">
<!-- Generated by graphviz version 2.43.0 (0)
 -->
<!-- Title: csv::CSVStat::calc_worker Pages: 1 -->
<svg width="574pt" height="285pt"
 viewBox="0.00 0.00 574.00 284.50" xmlns="http://www.w3.org/2000/svg" xmlns:xlink="http://www.w3.org/1999/xlink">
<g id="graph0" class="graph" transform="scale(1 1) rotate(0) translate(4 280.5)">
<title>csv::CSVStat::calc_worker</title>
<!-- Node1 -->
<g id="node1" class="node">
<title>Node1</title>
<g id="a_node1"><a xlink:title=" ">
<polygon fill="#bfbfbf" stroke="black" points="0,-126 0,-156 103,-156 103,-126 0,-126"/>
<text text-anchor="start" x="8" y="-144" font-family="Helvetica,sans-Serif" font-size="10.00">csv::CSVStat::calc</text>
<text text-anchor="middle" x="51.5" y="-133" font-family="Helvetica,sans-Serif" font-size="10.00">_worker</text>
</a>
</g>
</g>
<!-- Node2 -->
<g id="node2" class="node">
<title>Node2</title>
<g id="a_node2"><a xlink:href="classcsv_1_1CSVStat.html#a6c79ba172dcfd88767ca04837a4b9199" target="_top" xlink:title=" ">
<polygon fill="none" stroke="black" points="155.5,-251.5 155.5,-270.5 265.5,-270.5 265.5,-251.5 155.5,-251.5"/>
<text text-anchor="middle" x="210.5" y="-258.5" font-family="Helvetica,sans-Serif" font-size="10.00">csv::CSVStat::count</text>
</a>
</g>
</g>
<!-- Node1&#45;&gt;Node2 -->
<g id="edge1" class="edge">
<title>Node1&#45;&gt;Node2</title>
<path fill="none" stroke="midnightblue" d="M61.32,-156.19C75.05,-178.44 103.66,-219.7 139,-242 142.34,-244.11 145.91,-245.99 149.61,-247.66"/>
<polygon fill="midnightblue" stroke="midnightblue" points="148.42,-250.95 159.01,-251.4 151.01,-244.44 148.42,-250.95"/>
</g>
<!-- Node5 -->
<g id="node5" class="node">
<title>Node5</title>
<g id="a_node5"><a xlink:href="classcsv_1_1CSVStat.html#a816a7d2ccff1a8e7a7b19cf4aa2c391b" target="_top" xlink:title=" ">
<polygon fill="none" stroke="black" points="155,-213.5 155,-232.5 266,-232.5 266,-213.5 155,-213.5"/>
<text text-anchor="middle" x="210.5" y="-220.5" font-family="Helvetica,sans-Serif" font-size="10.00">csv::CSVStat::dtype</text>
</a>
</g>
</g>
<!-- Node1&#45;&gt;Node5 -->
<g id="edge4" class="edge">
<title>Node1&#45;&gt;Node5</title>
<path fill="none" stroke="midnightblue" d="M69.18,-156.06C85.78,-170.3 112.52,-191.33 139,-204 143.93,-206.36 149.2,-208.46 154.56,-210.33"/>
<polygon fill="midnightblue" stroke="midnightblue" points="153.64,-213.71 164.23,-213.44 155.78,-207.05 153.64,-213.71"/>
</g>
<!-- Node7 -->
<g id="node7" class="node">
<title>Node7</title>
<g id="a_node7"><a xlink:href="namespacecsv_1_1internals.html#a7a29f891eb1f9ffc81445b02e57b1e12" target="_top" xlink:title=" ">
<polygon fill="none" stroke="black" points="139,-175.5 139,-194.5 282,-194.5 282,-175.5 139,-175.5"/>
<text text-anchor="middle" x="210.5" y="-182.5" font-family="Helvetica,sans-Serif" font-size="10.00">csv::internals::format_row</text>
</a>
</g>
</g>
<!-- Node1&#45;&gt;Node7 -->
<g id="edge6" class="edge">
<title>Node1&#45;&gt;Node7</title>
<path fill="none" stroke="midnightblue" d="M103.04,-155.16C123.19,-160.81 146.17,-167.25 165.61,-172.7"/>
<polygon fill="midnightblue" stroke="midnightblue" points="164.85,-176.12 175.42,-175.45 166.74,-169.38 164.85,-176.12"/>
</g>
<!-- Node8 -->
<g id="node8" class="node">
<title>Node8</title>
<g id="a_node8"><a xlink:href="classcsv_1_1CSVReader.html#a6faa83a2169dc1ad10715f94410f47da" target="_top" xlink:title=" ">
<polygon fill="none" stroke="black" points="153.5,-126 153.5,-156 267.5,-156 267.5,-126 153.5,-126"/>
<text text-anchor="start" x="161.5" y="-144" font-family="Helvetica,sans-Serif" font-size="10.00">csv::CSVReader::get</text>
<text text-anchor="middle" x="210.5" y="-133" font-family="Helvetica,sans-Serif" font-size="10.00">_format</text>
</a>
</g>
</g>
<!-- Node1&#45;&gt;Node8 -->
<g id="edge7" class="edge">
<title>Node1&#45;&gt;Node8</title>
<path fill="none" stroke="midnightblue" d="M103.04,-141C115.83,-141 129.75,-141 143.19,-141"/>
<polygon fill="midnightblue" stroke="midnightblue" points="143.34,-144.5 153.34,-141 143.34,-137.5 143.34,-144.5"/>
</g>
<!-- Node9 -->
<g id="node9" class="node">
<title>Node9</title>
<g id="a_node9"><a xlink:href="classcsv_1_1CSVFormat.html#a60406363f83a897025f39b3437857202" target="_top" xlink:title=" ">
<polygon fill="none" stroke="black" points="142,-77 142,-107 279,-107 279,-77 142,-77"/>
<text text-anchor="start" x="150" y="-95" font-family="Helvetica,sans-Serif" font-size="10.00">csv::CSVFormat::get</text>
<text text-anchor="middle" x="210.5" y="-84" font-family="Helvetica,sans-Serif" font-size="10.00">_variable_column_policy</text>
</a>
</g>
</g>
<!-- Node1&#45;&gt;Node9 -->
<g id="edge8" class="edge">
<title>Node1&#45;&gt;Node9</title>
<path fill="none" stroke="midnightblue" d="M100.89,-125.9C116.93,-120.89 134.95,-115.27 151.63,-110.06"/>
<polygon fill="midnightblue" stroke="midnightblue" points="152.77,-113.37 161.27,-107.05 150.68,-106.69 152.77,-113.37"/>
</g>
<!-- Node10 -->
<g id="node10" class="node">
<title>Node10</title>
<g id="a_node10"><a xlink:href="classcsv_1_1CSVStat.html#a946764003492839cfec92a1ee2f7fdb0" target="_top" xlink:title=" ">
<polygon fill="none" stroke="black" points="146,-38.5 146,-57.5 275,-57.5 275,-38.5 146,-38.5"/>
<text text-anchor="middle" x="210.5" y="-45.5" font-family="Helvetica,sans-Serif" font-size="10.00">csv::CSVStat::min_max</text>
</a>
</g>
</g>
<!-- Node1&#45;&gt;Node10 -->
<g id="edge9" class="edge">
<title>Node1&#45;&gt;Node10</title>
<path fill="none" stroke="midnightblue" d="M66.01,-125.97C81.89,-109.2 109.81,-82.4 139,-67 143.33,-64.72 147.95,-62.69 152.69,-60.9"/>
<polygon fill="midnightblue" stroke="midnightblue" points="154.18,-64.08 162.5,-57.53 151.9,-57.46 154.18,-64.08"/>
</g>
<!-- Node11 -->
<g id="node11" class="node">
<title>Node11</title>
<g id="a_node11"><a xlink:href="classcsv_1_1CSVStat.html#a053fe0a59f65c30dff7ce5f522c19684" target="_top" xlink:title=" ">
<polygon fill="none" stroke="black" points="148,-0.5 148,-19.5 273,-19.5 273,-0.5 148,-0.5"/>
<text text-anchor="middle" x="210.5" y="-7.5" font-family="Helvetica,sans-Serif" font-size="10.00">csv::CSVStat::variance</text>
</a>
</g>
</g>
<!-- Node1&#45;&gt;Node11 -->
<g id="edge10" class="edge">
<title>Node1&#45;&gt;Node11</title>
<path fill="none" stroke="midnightblue" d="M60.04,-125.75C72.85,-101.48 101.19,-54.22 139,-29 142.08,-26.94 145.38,-25.11 148.8,-23.48"/>
<polygon fill="midnightblue" stroke="midnightblue" points="150.21,-26.68 158.09,-19.59 147.51,-20.22 150.21,-26.68"/>
</g>
<!-- Node3 -->
<g id="node3" class="node">
<title>Node3</title>
<g id="a_node3"><a xlink:href="classcsv_1_1CSVField.html#a67ff24172c5ac52417bbc36697511644" target="_top" xlink:title=" ">
<polygon fill="none" stroke="black" points="321,-251.5 321,-270.5 424,-270.5 424,-251.5 321,-251.5"/>
<text text-anchor="middle" x="372.5" y="-258.5" font-family="Helvetica,sans-Serif" font-size="10.00">csv::CSVField::get</text>
</a>
</g>
</g>
<!-- Node2&#45;&gt;Node3 -->
<g id="edge2" class="edge">
<title>Node2&#45;&gt;Node3</title>
<path fill="none" stroke="midnightblue" d="M265.67,-261C280.18,-261 295.96,-261 310.8,-261"/>
<polygon fill="midnightblue" stroke="midnightblue" points="310.9,-264.5 320.9,-261 310.9,-257.5 310.9,-264.5"/>
</g>
<!-- Node4 -->
<g id="node4" class="node">
<title>Node4</title>
<g id="a_node4"><a xlink:href="namespacecsv_1_1internals.html#aea0130dd0f026d5617e08025e6298864" target="_top" xlink:title=" ">
<polygon fill="none" stroke="black" points="463,-246 463,-276 566,-276 566,-246 463,-246"/>
<text text-anchor="start" x="471" y="-264" font-family="Helvetica,sans-Serif" font-size="10.00">csv::internals::get</text>
<text text-anchor="middle" x="514.5" y="-253" font-family="Helvetica,sans-Serif" font-size="10.00">_uint_max</text>
</a>
</g>
</g>
<!-- Node3&#45;&gt;Node4 -->
<g id="edge3" class="edge">
<title>Node3&#45;&gt;Node4</title>
<path fill="none" stroke="midnightblue" d="M424.04,-261C433.25,-261 442.94,-261 452.41,-261"/>
<polygon fill="midnightblue" stroke="midnightblue" points="452.56,-264.5 462.56,-261 452.56,-257.5 452.56,-264.5"/>
</g>
<!-- Node6 -->
<g id="node6" class="node">
<title>Node6</title>
<g id="a_node6"><a xlink:href="classcsv_1_1CSVField.html#a60a6452ff1ddea2d8be46a04fc646166" target="_top" xlink:title=" ">
<polygon fill="none" stroke="black" points="318,-213.5 318,-232.5 427,-232.5 427,-213.5 318,-213.5"/>
<text text-anchor="middle" x="372.5" y="-220.5" font-family="Helvetica,sans-Serif" font-size="10.00">csv::CSVField::type</text>
</a>
</g>
</g>
<!-- Node5&#45;&gt;Node6 -->
<g id="edge5" class="edge">
<title>Node5&#45;&gt;Node6</title>
<path fill="none" stroke="midnightblue" d="M266.12,-223C279.46,-223 293.86,-223 307.6,-223"/>
<polygon fill="midnightblue" stroke="midnightblue" points="307.94,-226.5 317.94,-223 307.94,-219.5 307.94,-226.5"/>
</g>
</g>
</svg>
