<?xml version="1.0" encoding="UTF-8" standalone="no"?>
<!DOCTYPE svg PUBLIC "-//W3C//DTD SVG 1.1//EN"
 "http://www.w3.org/Graphics/SVG/1.1/DTD/svg11.dtd">
<!-- Generated by graphviz version 2.43.0 (0)
 -->
<!-- Title: csv::internals::StreamParser&lt; TStream &gt; Pages: 1 -->
<svg width="415pt" height="241pt"
 viewBox="0.00 0.00 415.00 241.00" xmlns="http://www.w3.org/2000/svg" xmlns:xlink="http://www.w3.org/1999/xlink">
<g id="graph0" class="graph" transform="scale(1 1) rotate(0) translate(4 237)">
<title>csv::internals::StreamParser&lt; TStream &gt;</title>
<!-- Node1 -->
<g id="node1" class="node">
<title>Node1</title>
<g id="a_node1"><a xlink:title=" ">
<polygon fill="#bfbfbf" stroke="black" points="162.5,-0.5 162.5,-30.5 314.5,-30.5 314.5,-0.5 162.5,-0.5"/>
<text text-anchor="start" x="170.5" y="-18.5" font-family="Helvetica,sans-Serif" font-size="10.00">csv::internals::StreamParser</text>
<text text-anchor="middle" x="238.5" y="-7.5" font-family="Helvetica,sans-Serif" font-size="10.00">&lt; TStream &gt;</text>
</a>
</g>
</g>
<!-- Node2 -->
<g id="node2" class="node">
<title>Node2</title>
<g id="a_node2"><a xlink:href="classcsv_1_1internals_1_1IBasicCSVParser.html" target="_top" xlink:title=" ">
<polygon fill="none" stroke="black" points="155.5,-68.5 155.5,-87.5 321.5,-87.5 321.5,-68.5 155.5,-68.5"/>
<text text-anchor="middle" x="238.5" y="-75.5" font-family="Helvetica,sans-Serif" font-size="10.00">csv::internals::IBasicCSVParser</text>
</a>
</g>
</g>
<!-- Node2&#45;&gt;Node1 -->
<g id="edge1" class="edge">
<title>Node2&#45;&gt;Node1</title>
<path fill="none" stroke="midnightblue" d="M238.5,-58.22C238.5,-49.36 238.5,-38.96 238.5,-30.76"/>
<polygon fill="midnightblue" stroke="midnightblue" points="235,-58.33 238.5,-68.33 242,-58.33 235,-58.33"/>
</g>
<!-- Node3 -->
<g id="node3" class="node">
<title>Node3</title>
<g id="a_node3"><a xlink:href="classcsv_1_1internals_1_1CSVFieldList.html" target="_top" xlink:title=" ">
<polygon fill="none" stroke="black" points="2,-141 2,-160 149,-160 149,-141 2,-141"/>
<text text-anchor="middle" x="75.5" y="-148" font-family="Helvetica,sans-Serif" font-size="10.00">csv::internals::CSVFieldList</text>
</a>
</g>
</g>
<!-- Node3&#45;&gt;Node2 -->
<g id="edge2" class="edge">
<title>Node3&#45;&gt;Node2</title>
<path fill="none" stroke="#9a32cd" stroke-dasharray="5,2" d="M104.7,-136.87C137.65,-122.62 190.34,-99.83 218.77,-87.53"/>
<polygon fill="#9a32cd" stroke="#9a32cd" points="102.95,-133.81 95.16,-141 105.73,-140.24 102.95,-133.81"/>
<text text-anchor="middle" x="187.5" y="-109" font-family="Helvetica,sans-Serif" font-size="10.00"> fields</text>
</g>
<!-- Node4 -->
<g id="node4" class="node">
<title>Node4</title>
<g id="a_node4"><a xlink:href="structcsv_1_1internals_1_1RawCSVField.html" target="_top" xlink:title=" ">
<polygon fill="none" stroke="black" points="0,-213.5 0,-232.5 151,-232.5 151,-213.5 0,-213.5"/>
<text text-anchor="middle" x="75.5" y="-220.5" font-family="Helvetica,sans-Serif" font-size="10.00">csv::internals::RawCSVField</text>
</a>
</g>
</g>
<!-- Node4&#45;&gt;Node3 -->
<g id="edge3" class="edge">
<title>Node4&#45;&gt;Node3</title>
<path fill="none" stroke="#9a32cd" stroke-dasharray="5,2" d="M75.5,-202.94C75.5,-189.03 75.5,-170.82 75.5,-160.22"/>
<polygon fill="#9a32cd" stroke="#9a32cd" points="72,-203.36 75.5,-213.36 79,-203.36 72,-203.36"/>
<text text-anchor="middle" x="91.5" y="-187" font-family="Helvetica,sans-Serif" font-size="10.00"> _back</text>
</g>
<!-- Node5 -->
<g id="node5" class="node">
<title>Node5</title>
<g id="a_node5"><a xlink:href="classcsv_1_1internals_1_1ThreadSafeDeque.html" target="_top" xlink:title=" ">
<polygon fill="none" stroke="black" points="167,-135.5 167,-165.5 310,-165.5 310,-135.5 167,-135.5"/>
<text text-anchor="start" x="175" y="-153.5" font-family="Helvetica,sans-Serif" font-size="10.00">csv::internals::ThreadSafe</text>
<text text-anchor="middle" x="238.5" y="-142.5" font-family="Helvetica,sans-Serif" font-size="10.00">Deque&lt; T &gt;</text>
</a>
</g>
</g>
<!-- Node5&#45;&gt;Node2 -->
<g id="edge4" class="edge">
<title>Node5&#45;&gt;Node2</title>
<path fill="none" stroke="#9a32cd" stroke-dasharray="5,2" d="M238.5,-125.09C238.5,-112.21 238.5,-97.2 238.5,-87.89"/>
<polygon fill="#9a32cd" stroke="#9a32cd" points="235,-125.23 238.5,-135.23 242,-125.23 235,-125.23"/>
<text text-anchor="middle" x="261" y="-109" font-family="Helvetica,sans-Serif" font-size="10.00"> _records</text>
</g>
<!-- Node6 -->
<g id="node6" class="node">
<title>Node6</title>
<g id="a_node6"><a xlink:href="classcsv_1_1CSVRow.html" target="_top" xlink:title=" ">
<polygon fill="none" stroke="black" points="328,-141 328,-160 407,-160 407,-141 328,-141"/>
<text text-anchor="middle" x="367.5" y="-148" font-family="Helvetica,sans-Serif" font-size="10.00">csv::CSVRow</text>
</a>
</g>
</g>
<!-- Node6&#45;&gt;Node2 -->
<g id="edge5" class="edge">
<title>Node6&#45;&gt;Node2</title>
<path fill="none" stroke="#9a32cd" stroke-dasharray="5,2" d="M343.03,-136.12C316.88,-121.84 276.23,-99.62 254.12,-87.53"/>
<polygon fill="#9a32cd" stroke="#9a32cd" points="341.49,-139.27 351.94,-141 344.84,-133.13 341.49,-139.27"/>
<text text-anchor="middle" x="337" y="-109" font-family="Helvetica,sans-Serif" font-size="10.00"> current_row</text>
</g>
</g>
</svg>
