<?xml version="1.0" encoding="UTF-8" standalone="no"?>
<!DOCTYPE svg PUBLIC "-//W3C//DTD SVG 1.1//EN"
 "http://www.w3.org/Graphics/SVG/1.1/DTD/svg11.dtd">
<!-- Generated by graphviz version 2.43.0 (0)
 -->
<!-- Title: nmbuflowtorch::Layer Pages: 1 -->
<svg width="288pt" height="186pt"
 viewBox="0.00 0.00 288.00 186.00" xmlns="http://www.w3.org/2000/svg" xmlns:xlink="http://www.w3.org/1999/xlink">
<g id="graph0" class="graph" transform="scale(1 1) rotate(0) translate(4 182)">
<title>nmbuflowtorch::Layer</title>
<!-- Node1 -->
<g id="node1" class="node">
<title>Node1</title>
<g id="a_node1"><a xlink:title=" ">
<polygon fill="#bfbfbf" stroke="black" points="0,-79 0,-98 123,-98 123,-79 0,-79"/>
<text text-anchor="middle" x="61.5" y="-86" font-family="Helvetica,sans-Serif" font-size="10.00">nmbuflowtorch::Layer</text>
</a>
</g>
</g>
<!-- Node2 -->
<g id="node2" class="node">
<title>Node2</title>
<g id="a_node2"><a xlink:href="classnmbuflowtorch_1_1layer_1_1Dense.html" target="_top" xlink:title=" ">
<polygon fill="none" stroke="black" points="159,-147.5 159,-177.5 280,-177.5 280,-147.5 159,-147.5"/>
<text text-anchor="start" x="167" y="-165.5" font-family="Helvetica,sans-Serif" font-size="10.00">nmbuflowtorch::layer</text>
<text text-anchor="middle" x="219.5" y="-154.5" font-family="Helvetica,sans-Serif" font-size="10.00">::Dense</text>
</a>
</g>
</g>
<!-- Node1&#45;&gt;Node2 -->
<g id="edge1" class="edge">
<title>Node1&#45;&gt;Node2</title>
<path fill="none" stroke="midnightblue" d="M88.73,-102.95C107.95,-113.32 134.8,-127.38 159,-138.5 165.58,-141.52 172.65,-144.56 179.55,-147.4"/>
<polygon fill="midnightblue" stroke="midnightblue" points="90.15,-99.73 79.69,-98.03 86.8,-105.88 90.15,-99.73"/>
</g>
<!-- Node3 -->
<g id="node3" class="node">
<title>Node3</title>
<g id="a_node3"><a xlink:href="classnmbuflowtorch_1_1layer_1_1ReLU.html" target="_top" xlink:title=" ">
<polygon fill="none" stroke="black" points="159,-98.5 159,-128.5 280,-128.5 280,-98.5 159,-98.5"/>
<text text-anchor="start" x="167" y="-116.5" font-family="Helvetica,sans-Serif" font-size="10.00">nmbuflowtorch::layer</text>
<text text-anchor="middle" x="219.5" y="-105.5" font-family="Helvetica,sans-Serif" font-size="10.00">::ReLU</text>
</a>
</g>
</g>
<!-- Node1&#45;&gt;Node3 -->
<g id="edge2" class="edge">
<title>Node1&#45;&gt;Node3</title>
<path fill="none" stroke="midnightblue" d="M132,-99.64C141,-101.08 150.16,-102.55 158.98,-103.96"/>
<polygon fill="midnightblue" stroke="midnightblue" points="132.35,-96.15 121.92,-98.02 131.24,-103.06 132.35,-96.15"/>
</g>
<!-- Node4 -->
<g id="node4" class="node">
<title>Node4</title>
<g id="a_node4"><a xlink:href="classnmbuflowtorch_1_1layer_1_1Sigmoid.html" target="_top" xlink:title=" ">
<polygon fill="none" stroke="black" points="159,-49.5 159,-79.5 280,-79.5 280,-49.5 159,-49.5"/>
<text text-anchor="start" x="167" y="-67.5" font-family="Helvetica,sans-Serif" font-size="10.00">nmbuflowtorch::layer</text>
<text text-anchor="middle" x="219.5" y="-56.5" font-family="Helvetica,sans-Serif" font-size="10.00">::Sigmoid</text>
</a>
</g>
</g>
<!-- Node1&#45;&gt;Node4 -->
<g id="edge3" class="edge">
<title>Node1&#45;&gt;Node4</title>
<path fill="none" stroke="midnightblue" d="M133.25,-77.61C141.83,-76.29 150.53,-74.96 158.93,-73.66"/>
<polygon fill="midnightblue" stroke="midnightblue" points="132.61,-74.17 123.26,-79.15 133.68,-81.09 132.61,-74.17"/>
</g>
<!-- Node5 -->
<g id="node5" class="node">
<title>Node5</title>
<g id="a_node5"><a xlink:href="classnmbuflowtorch_1_1layer_1_1Softmax.html" target="_top" xlink:title=" ">
<polygon fill="none" stroke="black" points="159,-0.5 159,-30.5 280,-30.5 280,-0.5 159,-0.5"/>
<text text-anchor="start" x="167" y="-18.5" font-family="Helvetica,sans-Serif" font-size="10.00">nmbuflowtorch::layer</text>
<text text-anchor="middle" x="219.5" y="-7.5" font-family="Helvetica,sans-Serif" font-size="10.00">::Softmax</text>
</a>
</g>
</g>
<!-- Node1&#45;&gt;Node5 -->
<g id="edge4" class="edge">
<title>Node1&#45;&gt;Node5</title>
<path fill="none" stroke="midnightblue" d="M89.9,-74.29C109.09,-64.48 135.43,-51.3 159,-40.5 166.23,-37.19 174.03,-33.79 181.52,-30.61"/>
<polygon fill="midnightblue" stroke="midnightblue" points="88.13,-71.26 80.83,-78.95 91.33,-77.49 88.13,-71.26"/>
</g>
</g>
</svg>
