<?xml version="1.0" encoding="UTF-8" standalone="no"?>
<!DOCTYPE svg PUBLIC "-//W3C//DTD SVG 1.1//EN"
 "http://www.w3.org/Graphics/SVG/1.1/DTD/svg11.dtd">
<!-- Generated by graphviz version 2.43.0 (0)
 -->
<!-- Title: csv::CSVStat::calc Pages: 1 -->
<svg width="868pt" height="285pt"
 viewBox="0.00 0.00 868.00 284.50" xmlns="http://www.w3.org/2000/svg" xmlns:xlink="http://www.w3.org/1999/xlink">
<g id="graph0" class="graph" transform="scale(1 1) rotate(0) translate(4 280.5)">
<title>csv::CSVStat::calc</title>
<!-- Node1 -->
<g id="node1" class="node">
<title>Node1</title>
<g id="a_node1"><a xlink:title=" ">
<polygon fill="#bfbfbf" stroke="black" points="0,-106.5 0,-125.5 103,-125.5 103,-106.5 0,-106.5"/>
<text text-anchor="middle" x="51.5" y="-113.5" font-family="Helvetica,sans-Serif" font-size="10.00">csv::CSVStat::calc</text>
</a>
</g>
</g>
<!-- Node2 -->
<g id="node2" class="node">
<title>Node2</title>
<g id="a_node2"><a xlink:href="classcsv_1_1CSVStat.html#afefcfb1415757e386fada501373556c6" target="_top" xlink:title=" ">
<polygon fill="none" stroke="black" points="139,-101 139,-131 242,-131 242,-101 139,-101"/>
<text text-anchor="start" x="147" y="-119" font-family="Helvetica,sans-Serif" font-size="10.00">csv::CSVStat::calc</text>
<text text-anchor="middle" x="190.5" y="-108" font-family="Helvetica,sans-Serif" font-size="10.00">_chunk</text>
</a>
</g>
</g>
<!-- Node1&#45;&gt;Node2 -->
<g id="edge1" class="edge">
<title>Node1&#45;&gt;Node2</title>
<path fill="none" stroke="midnightblue" d="M103.12,-116C111.36,-116 119.97,-116 128.42,-116"/>
<polygon fill="midnightblue" stroke="midnightblue" points="128.63,-119.5 138.63,-116 128.63,-112.5 128.63,-119.5"/>
</g>
<!-- Node3 -->
<g id="node3" class="node">
<title>Node3</title>
<g id="a_node3"><a xlink:href="classcsv_1_1CSVStat.html#ab76cae232af667b05a3032e26f1c8df2" target="_top" xlink:title=" ">
<polygon fill="none" stroke="black" points="286,-126 286,-156 389,-156 389,-126 286,-126"/>
<text text-anchor="start" x="294" y="-144" font-family="Helvetica,sans-Serif" font-size="10.00">csv::CSVStat::calc</text>
<text text-anchor="middle" x="337.5" y="-133" font-family="Helvetica,sans-Serif" font-size="10.00">_worker</text>
</a>
</g>
</g>
<!-- Node2&#45;&gt;Node3 -->
<g id="edge2" class="edge">
<title>Node2&#45;&gt;Node3</title>
<path fill="none" stroke="midnightblue" d="M242.21,-124.74C252.97,-126.6 264.43,-128.57 275.52,-130.49"/>
<polygon fill="midnightblue" stroke="midnightblue" points="275.12,-133.97 285.57,-132.22 276.31,-127.07 275.12,-133.97"/>
</g>
<!-- Node14 -->
<g id="node14" class="node">
<title>Node14</title>
<g id="a_node14"><a xlink:href="classcsv_1_1CSVStat.html#a563a6d0a14fd21daffe7ec2b562a49aa" target="_top" xlink:title=" ">
<polygon fill="none" stroke="black" points="278,-77 278,-107 397,-107 397,-77 278,-77"/>
<text text-anchor="start" x="286" y="-95" font-family="Helvetica,sans-Serif" font-size="10.00">csv::CSVStat::get_col</text>
<text text-anchor="middle" x="337.5" y="-84" font-family="Helvetica,sans-Serif" font-size="10.00">_names</text>
</a>
</g>
</g>
<!-- Node2&#45;&gt;Node14 -->
<g id="edge13" class="edge">
<title>Node2&#45;&gt;Node14</title>
<path fill="none" stroke="midnightblue" d="M242.21,-107.61C250.49,-106.24 259.18,-104.8 267.81,-103.37"/>
<polygon fill="midnightblue" stroke="midnightblue" points="268.57,-106.79 277.87,-101.7 267.43,-99.88 268.57,-106.79"/>
</g>
<!-- Node4 -->
<g id="node4" class="node">
<title>Node4</title>
<g id="a_node4"><a xlink:href="classcsv_1_1CSVStat.html#a6c79ba172dcfd88767ca04837a4b9199" target="_top" xlink:title=" ">
<polygon fill="none" stroke="black" points="449.5,-251.5 449.5,-270.5 559.5,-270.5 559.5,-251.5 449.5,-251.5"/>
<text text-anchor="middle" x="504.5" y="-258.5" font-family="Helvetica,sans-Serif" font-size="10.00">csv::CSVStat::count</text>
</a>
</g>
</g>
<!-- Node3&#45;&gt;Node4 -->
<g id="edge3" class="edge">
<title>Node3&#45;&gt;Node4</title>
<path fill="none" stroke="midnightblue" d="M348.49,-156.16C363.93,-178.4 395.74,-219.62 433,-242 436.61,-244.17 440.46,-246.09 444.44,-247.8"/>
<polygon fill="midnightblue" stroke="midnightblue" points="443.31,-251.11 453.9,-251.4 445.8,-244.57 443.31,-251.11"/>
</g>
<!-- Node7 -->
<g id="node7" class="node">
<title>Node7</title>
<g id="a_node7"><a xlink:href="classcsv_1_1CSVStat.html#a816a7d2ccff1a8e7a7b19cf4aa2c391b" target="_top" xlink:title=" ">
<polygon fill="none" stroke="black" points="449,-213.5 449,-232.5 560,-232.5 560,-213.5 449,-213.5"/>
<text text-anchor="middle" x="504.5" y="-220.5" font-family="Helvetica,sans-Serif" font-size="10.00">csv::CSVStat::dtype</text>
</a>
</g>
</g>
<!-- Node3&#45;&gt;Node7 -->
<g id="edge6" class="edge">
<title>Node3&#45;&gt;Node7</title>
<path fill="none" stroke="midnightblue" d="M357.32,-156.24C375.65,-170.42 404.8,-191.22 433,-204 438.25,-206.38 443.86,-208.52 449.54,-210.42"/>
<polygon fill="midnightblue" stroke="midnightblue" points="448.51,-213.76 459.1,-213.4 450.6,-207.08 448.51,-213.76"/>
</g>
<!-- Node9 -->
<g id="node9" class="node">
<title>Node9</title>
<g id="a_node9"><a xlink:href="namespacecsv_1_1internals.html#a7a29f891eb1f9ffc81445b02e57b1e12" target="_top" xlink:title=" ">
<polygon fill="none" stroke="black" points="433,-175.5 433,-194.5 576,-194.5 576,-175.5 433,-175.5"/>
<text text-anchor="middle" x="504.5" y="-182.5" font-family="Helvetica,sans-Serif" font-size="10.00">csv::internals::format_row</text>
</a>
</g>
</g>
<!-- Node3&#45;&gt;Node9 -->
<g id="edge8" class="edge">
<title>Node3&#45;&gt;Node9</title>
<path fill="none" stroke="midnightblue" d="M389.35,-154.56C411.26,-160.4 436.68,-167.18 457.96,-172.86"/>
<polygon fill="midnightblue" stroke="midnightblue" points="457.16,-176.27 467.73,-175.46 458.97,-169.5 457.16,-176.27"/>
</g>
<!-- Node10 -->
<g id="node10" class="node">
<title>Node10</title>
<g id="a_node10"><a xlink:href="classcsv_1_1CSVReader.html#a6faa83a2169dc1ad10715f94410f47da" target="_top" xlink:title=" ">
<polygon fill="none" stroke="black" points="447.5,-126 447.5,-156 561.5,-156 561.5,-126 447.5,-126"/>
<text text-anchor="start" x="455.5" y="-144" font-family="Helvetica,sans-Serif" font-size="10.00">csv::CSVReader::get</text>
<text text-anchor="middle" x="504.5" y="-133" font-family="Helvetica,sans-Serif" font-size="10.00">_format</text>
</a>
</g>
</g>
<!-- Node3&#45;&gt;Node10 -->
<g id="edge9" class="edge">
<title>Node3&#45;&gt;Node10</title>
<path fill="none" stroke="midnightblue" d="M389.35,-141C404.42,-141 421.15,-141 437.05,-141"/>
<polygon fill="midnightblue" stroke="midnightblue" points="437.36,-144.5 447.36,-141 437.36,-137.5 437.36,-144.5"/>
</g>
<!-- Node11 -->
<g id="node11" class="node">
<title>Node11</title>
<g id="a_node11"><a xlink:href="classcsv_1_1CSVFormat.html#a60406363f83a897025f39b3437857202" target="_top" xlink:title=" ">
<polygon fill="none" stroke="black" points="436,-77 436,-107 573,-107 573,-77 436,-77"/>
<text text-anchor="start" x="444" y="-95" font-family="Helvetica,sans-Serif" font-size="10.00">csv::CSVFormat::get</text>
<text text-anchor="middle" x="504.5" y="-84" font-family="Helvetica,sans-Serif" font-size="10.00">_variable_column_policy</text>
</a>
</g>
</g>
<!-- Node3&#45;&gt;Node11 -->
<g id="edge10" class="edge">
<title>Node3&#45;&gt;Node11</title>
<path fill="none" stroke="midnightblue" d="M389.35,-125.9C406.37,-120.84 425.5,-115.16 443.17,-109.92"/>
<polygon fill="midnightblue" stroke="midnightblue" points="444.23,-113.25 452.82,-107.05 442.23,-106.54 444.23,-113.25"/>
</g>
<!-- Node12 -->
<g id="node12" class="node">
<title>Node12</title>
<g id="a_node12"><a xlink:href="classcsv_1_1CSVStat.html#a946764003492839cfec92a1ee2f7fdb0" target="_top" xlink:title=" ">
<polygon fill="none" stroke="black" points="440,-38.5 440,-57.5 569,-57.5 569,-38.5 440,-38.5"/>
<text text-anchor="middle" x="504.5" y="-45.5" font-family="Helvetica,sans-Serif" font-size="10.00">csv::CSVStat::min_max</text>
</a>
</g>
</g>
<!-- Node3&#45;&gt;Node12 -->
<g id="edge11" class="edge">
<title>Node3&#45;&gt;Node12</title>
<path fill="none" stroke="midnightblue" d="M382.77,-125.95C387.81,-123.35 392.67,-120.38 397,-117 418.29,-100.36 410.8,-83.41 433,-68 436.53,-65.55 440.35,-63.4 444.33,-61.51"/>
<polygon fill="midnightblue" stroke="midnightblue" points="445.94,-64.63 453.83,-57.56 443.25,-58.17 445.94,-64.63"/>
</g>
<!-- Node13 -->
<g id="node13" class="node">
<title>Node13</title>
<g id="a_node13"><a xlink:href="classcsv_1_1CSVStat.html#a053fe0a59f65c30dff7ce5f522c19684" target="_top" xlink:title=" ">
<polygon fill="none" stroke="black" points="442,-0.5 442,-19.5 567,-19.5 567,-0.5 442,-0.5"/>
<text text-anchor="middle" x="504.5" y="-7.5" font-family="Helvetica,sans-Serif" font-size="10.00">csv::CSVStat::variance</text>
</a>
</g>
</g>
<!-- Node3&#45;&gt;Node13 -->
<g id="edge12" class="edge">
<title>Node3&#45;&gt;Node13</title>
<path fill="none" stroke="midnightblue" d="M385.39,-125.91C389.62,-123.37 393.59,-120.42 397,-117 426.87,-87.1 401.31,-56.95 433,-29 434.78,-27.43 436.67,-25.99 438.65,-24.67"/>
<polygon fill="midnightblue" stroke="midnightblue" points="440.78,-27.49 447.84,-19.59 437.39,-21.37 440.78,-27.49"/>
</g>
<!-- Node5 -->
<g id="node5" class="node">
<title>Node5</title>
<g id="a_node5"><a xlink:href="classcsv_1_1CSVField.html#a67ff24172c5ac52417bbc36697511644" target="_top" xlink:title=" ">
<polygon fill="none" stroke="black" points="615,-251.5 615,-270.5 718,-270.5 718,-251.5 615,-251.5"/>
<text text-anchor="middle" x="666.5" y="-258.5" font-family="Helvetica,sans-Serif" font-size="10.00">csv::CSVField::get</text>
</a>
</g>
</g>
<!-- Node4&#45;&gt;Node5 -->
<g id="edge4" class="edge">
<title>Node4&#45;&gt;Node5</title>
<path fill="none" stroke="midnightblue" d="M559.67,-261C574.18,-261 589.96,-261 604.8,-261"/>
<polygon fill="midnightblue" stroke="midnightblue" points="604.9,-264.5 614.9,-261 604.9,-257.5 604.9,-264.5"/>
</g>
<!-- Node6 -->
<g id="node6" class="node">
<title>Node6</title>
<g id="a_node6"><a xlink:href="namespacecsv_1_1internals.html#aea0130dd0f026d5617e08025e6298864" target="_top" xlink:title=" ">
<polygon fill="none" stroke="black" points="757,-246 757,-276 860,-276 860,-246 757,-246"/>
<text text-anchor="start" x="765" y="-264" font-family="Helvetica,sans-Serif" font-size="10.00">csv::internals::get</text>
<text text-anchor="middle" x="808.5" y="-253" font-family="Helvetica,sans-Serif" font-size="10.00">_uint_max</text>
</a>
</g>
</g>
<!-- Node5&#45;&gt;Node6 -->
<g id="edge5" class="edge">
<title>Node5&#45;&gt;Node6</title>
<path fill="none" stroke="midnightblue" d="M718.04,-261C727.25,-261 736.94,-261 746.41,-261"/>
<polygon fill="midnightblue" stroke="midnightblue" points="746.56,-264.5 756.56,-261 746.56,-257.5 746.56,-264.5"/>
</g>
<!-- Node8 -->
<g id="node8" class="node">
<title>Node8</title>
<g id="a_node8"><a xlink:href="classcsv_1_1CSVField.html#a60a6452ff1ddea2d8be46a04fc646166" target="_top" xlink:title=" ">
<polygon fill="none" stroke="black" points="612,-213.5 612,-232.5 721,-232.5 721,-213.5 612,-213.5"/>
<text text-anchor="middle" x="666.5" y="-220.5" font-family="Helvetica,sans-Serif" font-size="10.00">csv::CSVField::type</text>
</a>
</g>
</g>
<!-- Node7&#45;&gt;Node8 -->
<g id="edge7" class="edge">
<title>Node7&#45;&gt;Node8</title>
<path fill="none" stroke="midnightblue" d="M560.12,-223C573.46,-223 587.86,-223 601.6,-223"/>
<polygon fill="midnightblue" stroke="midnightblue" points="601.94,-226.5 611.94,-223 601.94,-219.5 601.94,-226.5"/>
</g>
</g>
</svg>
