<?xml version="1.0" encoding="UTF-8" standalone="no"?>
<!DOCTYPE svg PUBLIC "-//W3C//DTD SVG 1.1//EN"
 "http://www.w3.org/Graphics/SVG/1.1/DTD/svg11.dtd">
<!-- Generated by graphviz version 2.43.0 (0)
 -->
<!-- Title: nmbuflowtorch::Loss Pages: 1 -->
<svg width="284pt" height="95pt"
 viewBox="0.00 0.00 283.50 95.00" xmlns="http://www.w3.org/2000/svg" xmlns:xlink="http://www.w3.org/1999/xlink">
<g id="graph0" class="graph" transform="scale(1 1) rotate(0) translate(4 91)">
<title>nmbuflowtorch::Loss</title>
<!-- Node1 -->
<g id="node1" class="node">
<title>Node1</title>
<g id="a_node1"><a xlink:title=" ">
<polygon fill="#bfbfbf" stroke="black" points="72,-67.5 72,-86.5 189,-86.5 189,-67.5 72,-67.5"/>
<text text-anchor="middle" x="130.5" y="-74.5" font-family="Helvetica,sans-Serif" font-size="10.00">nmbuflowtorch::Loss</text>
</a>
</g>
</g>
<!-- Node2 -->
<g id="node2" class="node">
<title>Node2</title>
<g id="a_node2"><a xlink:href="classnmbuflowtorch_1_1loss_1_1CrossEntropy.html" target="_top" xlink:title=" ">
<polygon fill="none" stroke="black" points="0,-0.5 0,-30.5 115,-30.5 115,-0.5 0,-0.5"/>
<text text-anchor="start" x="8" y="-18.5" font-family="Helvetica,sans-Serif" font-size="10.00">nmbuflowtorch::loss</text>
<text text-anchor="middle" x="57.5" y="-7.5" font-family="Helvetica,sans-Serif" font-size="10.00">::CrossEntropy</text>
</a>
</g>
</g>
<!-- Node1&#45;&gt;Node2 -->
<g id="edge1" class="edge">
<title>Node1&#45;&gt;Node2</title>
<path fill="none" stroke="midnightblue" d="M112,-60.92C100.54,-51.58 85.92,-39.66 74.7,-30.52"/>
<polygon fill="midnightblue" stroke="midnightblue" points="110.08,-63.87 120.04,-67.48 114.5,-58.44 110.08,-63.87"/>
</g>
<!-- Node3 -->
<g id="node3" class="node">
<title>Node3</title>
<g id="a_node3"><a xlink:href="classnmbuflowtorch_1_1loss_1_1MSE.html" target="_top" xlink:title=" ">
<polygon fill="none" stroke="black" points="133.5,-6 133.5,-25 275.5,-25 275.5,-6 133.5,-6"/>
<text text-anchor="middle" x="204.5" y="-13" font-family="Helvetica,sans-Serif" font-size="10.00">nmbuflowtorch::loss::MSE</text>
</a>
</g>
</g>
<!-- Node1&#45;&gt;Node3 -->
<g id="edge2" class="edge">
<title>Node1&#45;&gt;Node3</title>
<path fill="none" stroke="midnightblue" d="M149.19,-60.97C163.34,-49.59 182.28,-34.37 193.92,-25.01"/>
<polygon fill="midnightblue" stroke="midnightblue" points="146.7,-58.48 141.1,-67.48 151.09,-63.94 146.7,-58.48"/>
</g>
</g>
</svg>
