<?xml version="1.0" encoding="UTF-8" standalone="no"?>
<!DOCTYPE svg PUBLIC "-//W3C//DTD SVG 1.1//EN"
 "http://www.w3.org/Graphics/SVG/1.1/DTD/svg11.dtd">
<!-- Generated by graphviz version 2.43.0 (0)
 -->
<!-- Title: csv::CSVFormat::guess_csv Pages: 1 -->
<svg width="512pt" height="72pt"
 viewBox="0.00 0.00 512.00 71.50" xmlns="http://www.w3.org/2000/svg" xmlns:xlink="http://www.w3.org/1999/xlink">
<g id="graph0" class="graph" transform="scale(1 1) rotate(0) translate(4 67.5)">
<title>csv::CSVFormat::guess_csv</title>
<!-- Node1 -->
<g id="node1" class="node">
<title>Node1</title>
<g id="a_node1"><a xlink:title=" ">
<polygon fill="#bfbfbf" stroke="black" points="0,-19.5 0,-38.5 149,-38.5 149,-19.5 0,-19.5"/>
<text text-anchor="middle" x="74.5" y="-26.5" font-family="Helvetica,sans-Serif" font-size="10.00">csv::CSVFormat::guess_csv</text>
</a>
</g>
</g>
<!-- Node2 -->
<g id="node2" class="node">
<title>Node2</title>
<g id="a_node2"><a xlink:href="classcsv_1_1CSVFormat.html#a9504d9b7629560dd25b0fa63bf665584" target="_top" xlink:title=" ">
<polygon fill="none" stroke="black" points="191,-38.5 191,-57.5 334,-57.5 334,-38.5 191,-38.5"/>
<text text-anchor="middle" x="262.5" y="-45.5" font-family="Helvetica,sans-Serif" font-size="10.00">csv::CSVFormat::delimiter</text>
</a>
</g>
</g>
<!-- Node1&#45;&gt;Node2 -->
<g id="edge1" class="edge">
<title>Node1&#45;&gt;Node2</title>
<path fill="none" stroke="midnightblue" d="M149.01,-36.51C159.48,-37.58 170.29,-38.68 180.88,-39.76"/>
<polygon fill="midnightblue" stroke="midnightblue" points="180.65,-43.26 190.95,-40.79 181.36,-36.3 180.65,-43.26"/>
</g>
<!-- Node4 -->
<g id="node4" class="node">
<title>Node4</title>
<g id="a_node4"><a xlink:href="classcsv_1_1CSVFormat.html#a6134f19fbcee2e0437903706f818bd24" target="_top" xlink:title=" ">
<polygon fill="none" stroke="black" points="185,-0.5 185,-19.5 340,-19.5 340,-0.5 185,-0.5"/>
<text text-anchor="middle" x="262.5" y="-7.5" font-family="Helvetica,sans-Serif" font-size="10.00">csv::CSVFormat::header_row</text>
</a>
</g>
</g>
<!-- Node1&#45;&gt;Node4 -->
<g id="edge3" class="edge">
<title>Node1&#45;&gt;Node4</title>
<path fill="none" stroke="midnightblue" d="M149.01,-21.49C157.48,-20.63 166.17,-19.74 174.79,-18.86"/>
<polygon fill="midnightblue" stroke="midnightblue" points="175.26,-22.33 184.86,-17.83 174.55,-15.36 175.26,-22.33"/>
</g>
<!-- Node3 -->
<g id="node3" class="node">
<title>Node3</title>
<g id="a_node3"><a xlink:href="classcsv_1_1CSVFormat.html#a6c2b638db04f164d781df7b2a4840a20" target="_top" xlink:title=" ">
<polygon fill="none" stroke="black" points="376,-33 376,-63 504,-63 504,-33 376,-33"/>
<text text-anchor="start" x="384" y="-51" font-family="Helvetica,sans-Serif" font-size="10.00">csv::CSVFormat::assert</text>
<text text-anchor="middle" x="440" y="-40" font-family="Helvetica,sans-Serif" font-size="10.00">_no_char_overlap</text>
</a>
</g>
</g>
<!-- Node2&#45;&gt;Node3 -->
<g id="edge2" class="edge">
<title>Node2&#45;&gt;Node3</title>
<path fill="none" stroke="midnightblue" d="M334.12,-48C344.48,-48 355.17,-48 365.58,-48"/>
<polygon fill="midnightblue" stroke="midnightblue" points="365.88,-51.5 375.88,-48 365.88,-44.5 365.88,-51.5"/>
</g>
</g>
</svg>
