<?xml version="1.0" encoding="UTF-8" standalone="no"?>
<!DOCTYPE svg PUBLIC "-//W3C//DTD SVG 1.1//EN"
 "http://www.w3.org/Graphics/SVG/1.1/DTD/svg11.dtd">
<!-- Generated by graphviz version 2.43.0 (0)
 -->
<!-- Title: src/nmbuflowtorch/layer/conv.cpp Pages: 1 -->
<svg width="495pt" height="330pt"
 viewBox="0.00 0.00 494.50 330.00" xmlns="http://www.w3.org/2000/svg" xmlns:xlink="http://www.w3.org/1999/xlink">
<g id="graph0" class="graph" transform="scale(1 1) rotate(0) translate(4 326)">
<title>src/nmbuflowtorch/layer/conv.cpp</title>
<!-- Node1 -->
<g id="node1" class="node">
<title>Node1</title>
<g id="a_node1"><a xlink:title=" ">
<polygon fill="#bfbfbf" stroke="black" points="105.5,-291.5 105.5,-321.5 239.5,-321.5 239.5,-291.5 105.5,-291.5"/>
<text text-anchor="start" x="113.5" y="-309.5" font-family="Helvetica,sans-Serif" font-size="10.00">src/nmbuflowtorch/layer</text>
<text text-anchor="middle" x="172.5" y="-298.5" font-family="Helvetica,sans-Serif" font-size="10.00">/conv.cpp</text>
</a>
</g>
</g>
<!-- Node2 -->
<g id="node2" class="node">
<title>Node2</title>
<g id="a_node2"><a xlink:href="conv_8hpp.html" target="_top" xlink:title=" ">
<polygon fill="none" stroke="black" points="114,-224.5 114,-254.5 231,-254.5 231,-224.5 114,-224.5"/>
<text text-anchor="start" x="122" y="-242.5" font-family="Helvetica,sans-Serif" font-size="10.00">nmbuflowtorch/layer</text>
<text text-anchor="middle" x="172.5" y="-231.5" font-family="Helvetica,sans-Serif" font-size="10.00">/conv.hpp</text>
</a>
</g>
</g>
<!-- Node1&#45;&gt;Node2 -->
<g id="edge1" class="edge">
<title>Node1&#45;&gt;Node2</title>
<path fill="none" stroke="midnightblue" d="M172.5,-291.4C172.5,-283.64 172.5,-273.81 172.5,-264.86"/>
<polygon fill="midnightblue" stroke="midnightblue" points="176,-264.58 172.5,-254.58 169,-264.58 176,-264.58"/>
</g>
<!-- Node3 -->
<g id="node3" class="node">
<title>Node3</title>
<g id="a_node3"><a xlink:href="layer_8hpp.html" target="_top" xlink:title=" ">
<polygon fill="none" stroke="black" points="137,-168.5 137,-187.5 208,-187.5 208,-168.5 137,-168.5"/>
<text text-anchor="middle" x="172.5" y="-175.5" font-family="Helvetica,sans-Serif" font-size="10.00">../layer.hpp</text>
</a>
</g>
</g>
<!-- Node2&#45;&gt;Node3 -->
<g id="edge2" class="edge">
<title>Node2&#45;&gt;Node3</title>
<path fill="none" stroke="midnightblue" d="M172.5,-224.4C172.5,-216.47 172.5,-206.46 172.5,-197.86"/>
<polygon fill="midnightblue" stroke="midnightblue" points="176,-197.66 172.5,-187.66 169,-197.66 176,-197.66"/>
</g>
<!-- Node4 -->
<g id="node4" class="node">
<title>Node4</title>
<g id="a_node4"><a xlink:title=" ">
<polygon fill="none" stroke="#bfbfbf" points="0,-0.5 0,-19.5 47,-19.5 47,-0.5 0,-0.5"/>
<text text-anchor="middle" x="23.5" y="-7.5" font-family="Helvetica,sans-Serif" font-size="10.00">vector</text>
</a>
</g>
</g>
<!-- Node3&#45;&gt;Node4 -->
<g id="edge3" class="edge">
<title>Node3&#45;&gt;Node4</title>
<path fill="none" stroke="midnightblue" d="M164.49,-168.08C140.53,-141.38 69.16,-61.87 38.15,-27.32"/>
<polygon fill="midnightblue" stroke="midnightblue" points="40.48,-24.67 31.19,-19.57 35.27,-29.35 40.48,-24.67"/>
</g>
<!-- Node5 -->
<g id="node5" class="node">
<title>Node5</title>
<g id="a_node5"><a xlink:href="definitions_8hpp.html" target="_top" xlink:title=" ">
<polygon fill="none" stroke="black" points="171,-56.5 171,-75.5 266,-75.5 266,-56.5 171,-56.5"/>
<text text-anchor="middle" x="218.5" y="-63.5" font-family="Helvetica,sans-Serif" font-size="10.00">./definitions.hpp</text>
</a>
</g>
</g>
<!-- Node3&#45;&gt;Node5 -->
<g id="edge4" class="edge">
<title>Node3&#45;&gt;Node5</title>
<path fill="none" stroke="midnightblue" d="M174.5,-168.37C177.57,-155.7 184.01,-131.48 192.5,-112 196.65,-102.49 202.32,-92.44 207.3,-84.26"/>
<polygon fill="midnightblue" stroke="midnightblue" points="210.35,-85.98 212.71,-75.66 204.42,-82.26 210.35,-85.98"/>
</g>
<!-- Node12 -->
<g id="node12" class="node">
<title>Node12</title>
<g id="a_node12"><a xlink:href="optimizer_8hpp.html" target="_top" xlink:title=" ">
<polygon fill="none" stroke="black" points="201,-112.5 201,-131.5 290,-131.5 290,-112.5 201,-112.5"/>
<text text-anchor="middle" x="245.5" y="-119.5" font-family="Helvetica,sans-Serif" font-size="10.00">./optimizer.hpp</text>
</a>
</g>
</g>
<!-- Node3&#45;&gt;Node12 -->
<g id="edge12" class="edge">
<title>Node3&#45;&gt;Node12</title>
<path fill="none" stroke="midnightblue" d="M184.23,-168.32C195.34,-160.11 212.24,-147.6 225.48,-137.81"/>
<polygon fill="midnightblue" stroke="midnightblue" points="227.6,-140.59 233.56,-131.83 223.44,-134.97 227.6,-140.59"/>
</g>
<!-- Node5&#45;&gt;Node4 -->
<g id="edge11" class="edge">
<title>Node5&#45;&gt;Node4</title>
<path fill="none" stroke="midnightblue" d="M187.6,-56.44C151.97,-46.58 93.6,-30.41 56.93,-20.26"/>
<polygon fill="midnightblue" stroke="midnightblue" points="57.77,-16.86 47.2,-17.56 55.9,-23.6 57.77,-16.86"/>
</g>
<!-- Node6 -->
<g id="node6" class="node">
<title>Node6</title>
<g id="a_node6"><a xlink:title=" ">
<polygon fill="none" stroke="#bfbfbf" points="65.5,-0.5 65.5,-19.5 121.5,-19.5 121.5,-0.5 65.5,-0.5"/>
<text text-anchor="middle" x="93.5" y="-7.5" font-family="Helvetica,sans-Serif" font-size="10.00">unistd.h</text>
</a>
</g>
</g>
<!-- Node5&#45;&gt;Node6 -->
<g id="edge5" class="edge">
<title>Node5&#45;&gt;Node6</title>
<path fill="none" stroke="midnightblue" d="M198.69,-56.44C178.21,-47.6 146.02,-33.69 122.64,-23.59"/>
<polygon fill="midnightblue" stroke="midnightblue" points="123.78,-20.27 113.21,-19.52 121.01,-26.7 123.78,-20.27"/>
</g>
<!-- Node7 -->
<g id="node7" class="node">
<title>Node7</title>
<g id="a_node7"><a xlink:title=" ">
<polygon fill="none" stroke="#bfbfbf" points="140,-0.5 140,-19.5 217,-19.5 217,-0.5 140,-0.5"/>
<text text-anchor="middle" x="178.5" y="-7.5" font-family="Helvetica,sans-Serif" font-size="10.00">Eigen/Dense</text>
</a>
</g>
</g>
<!-- Node5&#45;&gt;Node7 -->
<g id="edge6" class="edge">
<title>Node5&#45;&gt;Node7</title>
<path fill="none" stroke="midnightblue" d="M211.89,-56.08C206.24,-48.46 197.96,-37.26 191.05,-27.94"/>
<polygon fill="midnightblue" stroke="midnightblue" points="193.75,-25.7 184.98,-19.75 188.12,-29.87 193.75,-25.7"/>
</g>
<!-- Node8 -->
<g id="node8" class="node">
<title>Node8</title>
<g id="a_node8"><a xlink:title=" ">
<polygon fill="none" stroke="#bfbfbf" points="235,-0.5 235,-19.5 282,-19.5 282,-0.5 235,-0.5"/>
<text text-anchor="middle" x="258.5" y="-7.5" font-family="Helvetica,sans-Serif" font-size="10.00">cmath</text>
</a>
</g>
</g>
<!-- Node5&#45;&gt;Node8 -->
<g id="edge7" class="edge">
<title>Node5&#45;&gt;Node8</title>
<path fill="none" stroke="midnightblue" d="M225.11,-56.08C230.76,-48.46 239.04,-37.26 245.95,-27.94"/>
<polygon fill="midnightblue" stroke="midnightblue" points="248.88,-29.87 252.02,-19.75 243.25,-25.7 248.88,-29.87"/>
</g>
<!-- Node9 -->
<g id="node9" class="node">
<title>Node9</title>
<g id="a_node9"><a xlink:title=" ">
<polygon fill="none" stroke="#bfbfbf" points="300.5,-0.5 300.5,-19.5 346.5,-19.5 346.5,-0.5 300.5,-0.5"/>
<text text-anchor="middle" x="323.5" y="-7.5" font-family="Helvetica,sans-Serif" font-size="10.00">cstdio</text>
</a>
</g>
</g>
<!-- Node5&#45;&gt;Node9 -->
<g id="edge8" class="edge">
<title>Node5&#45;&gt;Node9</title>
<path fill="none" stroke="midnightblue" d="M235.37,-56.32C252.21,-47.66 278.31,-34.24 297.74,-24.25"/>
<polygon fill="midnightblue" stroke="midnightblue" points="299.38,-27.34 306.67,-19.65 296.18,-21.12 299.38,-27.34"/>
</g>
<!-- Node10 -->
<g id="node10" class="node">
<title>Node10</title>
<g id="a_node10"><a xlink:title=" ">
<polygon fill="none" stroke="#bfbfbf" points="364.5,-0.5 364.5,-19.5 424.5,-19.5 424.5,-0.5 364.5,-0.5"/>
<text text-anchor="middle" x="394.5" y="-7.5" font-family="Helvetica,sans-Serif" font-size="10.00">iostream</text>
</a>
</g>
</g>
<!-- Node5&#45;&gt;Node10 -->
<g id="edge9" class="edge">
<title>Node5&#45;&gt;Node10</title>
<path fill="none" stroke="midnightblue" d="M246.39,-56.44C276.25,-47.28 323.81,-32.69 356.96,-22.52"/>
<polygon fill="midnightblue" stroke="midnightblue" points="358.21,-25.8 366.74,-19.52 356.16,-19.1 358.21,-25.8"/>
</g>
<!-- Node11 -->
<g id="node11" class="node">
<title>Node11</title>
<g id="a_node11"><a xlink:title=" ">
<polygon fill="none" stroke="#bfbfbf" points="442.5,-0.5 442.5,-19.5 486.5,-19.5 486.5,-0.5 442.5,-0.5"/>
<text text-anchor="middle" x="464.5" y="-7.5" font-family="Helvetica,sans-Serif" font-size="10.00">string</text>
</a>
</g>
</g>
<!-- Node5&#45;&gt;Node11 -->
<g id="edge10" class="edge">
<title>Node5&#45;&gt;Node11</title>
<path fill="none" stroke="midnightblue" d="M264.45,-56.44C306,-48.45 369.06,-35.76 432.44,-20.12"/>
<polygon fill="midnightblue" stroke="midnightblue" points="433.35,-23.51 442.2,-17.69 431.65,-16.71 433.35,-23.51"/>
</g>
<!-- Node12&#45;&gt;Node5 -->
<g id="edge14" class="edge">
<title>Node12&#45;&gt;Node5</title>
<path fill="none" stroke="midnightblue" d="M241.04,-112.08C237.35,-104.69 231.98,-93.95 227.41,-84.81"/>
<polygon fill="midnightblue" stroke="midnightblue" points="230.48,-83.13 222.88,-75.75 224.22,-86.26 230.48,-83.13"/>
</g>
<!-- Node13 -->
<g id="node13" class="node">
<title>Node13</title>
<g id="a_node13"><a xlink:title=" ">
<polygon fill="none" stroke="#bfbfbf" points="284,-56.5 284,-75.5 377,-75.5 377,-56.5 284,-56.5"/>
<text text-anchor="middle" x="330.5" y="-63.5" font-family="Helvetica,sans-Serif" font-size="10.00">unordered_map</text>
</a>
</g>
</g>
<!-- Node12&#45;&gt;Node13 -->
<g id="edge13" class="edge">
<title>Node12&#45;&gt;Node13</title>
<path fill="none" stroke="midnightblue" d="M259.16,-112.32C272.42,-103.9 292.77,-90.97 308.35,-81.07"/>
<polygon fill="midnightblue" stroke="midnightblue" points="310.31,-83.97 316.88,-75.65 306.56,-78.06 310.31,-83.97"/>
</g>
</g>
</svg>
