<?xml version="1.0" encoding="UTF-8" standalone="no"?>
<!DOCTYPE svg PUBLIC "-//W3C//DTD SVG 1.1//EN"
 "http://www.w3.org/Graphics/SVG/1.1/DTD/svg11.dtd">
<!-- Generated by graphviz version 2.43.0 (0)
 -->
<!-- Title: include/nmbuflowtorch/loss/cross_entropy.hpp Pages: 1 -->
<svg width="983pt" height="162pt"
 viewBox="0.00 0.00 982.50 162.00" xmlns="http://www.w3.org/2000/svg" xmlns:xlink="http://www.w3.org/1999/xlink">
<g id="graph0" class="graph" transform="scale(1 1) rotate(0) translate(4 158)">
<title>include/nmbuflowtorch/loss/cross_entropy.hpp</title>
<!-- Node1 -->
<g id="node1" class="node">
<title>Node1</title>
<g id="a_node1"><a xlink:title=" ">
<polygon fill="#bfbfbf" stroke="black" points="452,-123.5 452,-153.5 582,-153.5 582,-123.5 452,-123.5"/>
<text text-anchor="start" x="460" y="-141.5" font-family="Helvetica,sans-Serif" font-size="10.00">include/nmbuflowtorch</text>
<text text-anchor="middle" x="517" y="-130.5" font-family="Helvetica,sans-Serif" font-size="10.00">/loss/cross_entropy.hpp</text>
</a>
</g>
</g>
<!-- Node2 -->
<g id="node2" class="node">
<title>Node2</title>
<g id="a_node2"><a xlink:href="autoencoder_8hpp.html" target="_top" xlink:title=" ">
<polygon fill="none" stroke="black" points="103,-56.5 103,-86.5 231,-86.5 231,-56.5 103,-56.5"/>
<text text-anchor="start" x="111" y="-74.5" font-family="Helvetica,sans-Serif" font-size="10.00">include/nmbuflowtorch</text>
<text text-anchor="middle" x="167" y="-63.5" font-family="Helvetica,sans-Serif" font-size="10.00">/autoencoder.hpp</text>
</a>
</g>
</g>
<!-- Node1&#45;&gt;Node2 -->
<g id="edge1" class="edge">
<title>Node1&#45;&gt;Node2</title>
<path fill="none" stroke="midnightblue" d="M441.6,-124.08C385.87,-114.09 308.15,-99.98 240,-87 237.08,-86.44 234.1,-85.87 231.08,-85.29"/>
<polygon fill="midnightblue" stroke="midnightblue" points="441.28,-127.58 451.74,-125.9 442.52,-120.69 441.28,-127.58"/>
</g>
<!-- Node5 -->
<g id="node5" class="node">
<title>Node5</title>
<g id="a_node5"><a xlink:href="xor_8hpp.html" target="_top" xlink:title=" ">
<polygon fill="none" stroke="black" points="249,-56.5 249,-86.5 377,-86.5 377,-56.5 249,-56.5"/>
<text text-anchor="start" x="257" y="-74.5" font-family="Helvetica,sans-Serif" font-size="10.00">include/nmbuflowtorch</text>
<text text-anchor="middle" x="313" y="-63.5" font-family="Helvetica,sans-Serif" font-size="10.00">/xor.hpp</text>
</a>
</g>
</g>
<!-- Node1&#45;&gt;Node5 -->
<g id="edge4" class="edge">
<title>Node1&#45;&gt;Node5</title>
<path fill="none" stroke="midnightblue" d="M463.04,-120.31C430.04,-109.79 388.34,-96.51 357.29,-86.61"/>
<polygon fill="midnightblue" stroke="midnightblue" points="462.4,-123.77 472.99,-123.48 464.52,-117.11 462.4,-123.77"/>
</g>
<!-- Node7 -->
<g id="node7" class="node">
<title>Node7</title>
<g id="a_node7"><a xlink:href="main_01copy_8cpp.html" target="_top" xlink:title=" ">
<polygon fill="none" stroke="black" points="395,-62 395,-81 499,-81 499,-62 395,-62"/>
<text text-anchor="middle" x="447" y="-69" font-family="Helvetica,sans-Serif" font-size="10.00">src/main copy.cpp</text>
</a>
</g>
</g>
<!-- Node1&#45;&gt;Node7 -->
<g id="edge7" class="edge">
<title>Node1&#45;&gt;Node7</title>
<path fill="none" stroke="midnightblue" d="M494.21,-116.34C481.35,-104.4 465.99,-90.14 456.36,-81.19"/>
<polygon fill="midnightblue" stroke="midnightblue" points="492.1,-119.16 501.81,-123.4 496.86,-114.03 492.1,-119.16"/>
</g>
<!-- Node8 -->
<g id="node8" class="node">
<title>Node8</title>
<g id="a_node8"><a xlink:href="main__multithread_8cpp.html" target="_top" xlink:title=" ">
<polygon fill="none" stroke="black" points="517.5,-62 517.5,-81 658.5,-81 658.5,-62 517.5,-62"/>
<text text-anchor="middle" x="588" y="-69" font-family="Helvetica,sans-Serif" font-size="10.00">src/main_multithread.cpp</text>
</a>
</g>
</g>
<!-- Node1&#45;&gt;Node8 -->
<g id="edge8" class="edge">
<title>Node1&#45;&gt;Node8</title>
<path fill="none" stroke="midnightblue" d="M540.12,-116.34C553.15,-104.4 568.74,-90.14 578.5,-81.19"/>
<polygon fill="midnightblue" stroke="midnightblue" points="537.42,-114.06 532.41,-123.4 542.15,-119.22 537.42,-114.06"/>
</g>
<!-- Node9 -->
<g id="node9" class="node">
<title>Node9</title>
<g id="a_node9"><a xlink:href="main__single__thread_8cpp.html" target="_top" xlink:title=" ">
<polygon fill="none" stroke="black" points="677,-62 677,-81 827,-81 827,-62 677,-62"/>
<text text-anchor="middle" x="752" y="-69" font-family="Helvetica,sans-Serif" font-size="10.00">src/main_single_thread.cpp</text>
</a>
</g>
</g>
<!-- Node1&#45;&gt;Node9 -->
<g id="edge9" class="edge">
<title>Node1&#45;&gt;Node9</title>
<path fill="none" stroke="midnightblue" d="M577.56,-120.75C623.52,-108.04 684.81,-91.09 721.17,-81.03"/>
<polygon fill="midnightblue" stroke="midnightblue" points="576.41,-117.44 567.7,-123.48 578.27,-124.18 576.41,-117.44"/>
</g>
<!-- Node10 -->
<g id="node10" class="node">
<title>Node10</title>
<g id="a_node10"><a xlink:href="cross__entropy_8cpp.html" target="_top" xlink:title=" ">
<polygon fill="none" stroke="black" points="845.5,-56.5 845.5,-86.5 974.5,-86.5 974.5,-56.5 845.5,-56.5"/>
<text text-anchor="start" x="853.5" y="-74.5" font-family="Helvetica,sans-Serif" font-size="10.00">src/nmbuflowtorch/loss</text>
<text text-anchor="middle" x="910" y="-63.5" font-family="Helvetica,sans-Serif" font-size="10.00">/cross_entropy.cpp</text>
</a>
</g>
</g>
<!-- Node1&#45;&gt;Node10 -->
<g id="edge10" class="edge">
<title>Node1&#45;&gt;Node10</title>
<path fill="none" stroke="midnightblue" d="M592.3,-126.37C657.02,-116.62 752.8,-101.73 836,-87 839.09,-86.45 842.26,-85.88 845.45,-85.29"/>
<polygon fill="midnightblue" stroke="midnightblue" points="591.55,-122.94 582.18,-127.89 592.59,-129.87 591.55,-122.94"/>
</g>
<!-- Node3 -->
<g id="node3" class="node">
<title>Node3</title>
<g id="a_node3"><a xlink:href="main_8cpp.html" target="_top" xlink:title=" ">
<polygon fill="none" stroke="black" points="208.5,-0.5 208.5,-19.5 287.5,-19.5 287.5,-0.5 208.5,-0.5"/>
<text text-anchor="middle" x="248" y="-7.5" font-family="Helvetica,sans-Serif" font-size="10.00">src/main.cpp</text>
</a>
</g>
</g>
<!-- Node2&#45;&gt;Node3 -->
<g id="edge2" class="edge">
<title>Node2&#45;&gt;Node3</title>
<path fill="none" stroke="midnightblue" d="M194.65,-50.19C208.83,-39.77 225.36,-27.63 236.21,-19.66"/>
<polygon fill="midnightblue" stroke="midnightblue" points="192.18,-47.66 186.2,-56.4 196.33,-53.3 192.18,-47.66"/>
</g>
<!-- Node4 -->
<g id="node4" class="node">
<title>Node4</title>
<g id="a_node4"><a xlink:href="autoencoder_8cpp.html" target="_top" xlink:title=" ">
<polygon fill="none" stroke="black" points="0,-0.5 0,-19.5 190,-19.5 190,-0.5 0,-0.5"/>
<text text-anchor="middle" x="95" y="-7.5" font-family="Helvetica,sans-Serif" font-size="10.00">src/nmbuflowtorch/autoencoder.cpp</text>
</a>
</g>
</g>
<!-- Node2&#45;&gt;Node4 -->
<g id="edge3" class="edge">
<title>Node2&#45;&gt;Node4</title>
<path fill="none" stroke="midnightblue" d="M142.06,-49.89C129.54,-39.54 115.04,-27.56 105.48,-19.66"/>
<polygon fill="midnightblue" stroke="midnightblue" points="140,-52.73 149.94,-56.4 144.46,-47.33 140,-52.73"/>
</g>
<!-- Node5&#45;&gt;Node3 -->
<g id="edge5" class="edge">
<title>Node5&#45;&gt;Node3</title>
<path fill="none" stroke="midnightblue" d="M290.17,-49.6C278.93,-39.32 266.01,-27.48 257.46,-19.66"/>
<polygon fill="midnightblue" stroke="midnightblue" points="287.86,-52.23 297.6,-56.4 292.58,-47.07 287.86,-52.23"/>
</g>
<!-- Node6 -->
<g id="node6" class="node">
<title>Node6</title>
<g id="a_node6"><a xlink:href="xor_8cpp.html" target="_top" xlink:title=" ">
<polygon fill="none" stroke="black" points="306,-0.5 306,-19.5 450,-19.5 450,-0.5 306,-0.5"/>
<text text-anchor="middle" x="378" y="-7.5" font-family="Helvetica,sans-Serif" font-size="10.00">src/nmbuflowtorch/xor.cpp</text>
</a>
</g>
</g>
<!-- Node5&#45;&gt;Node6 -->
<g id="edge6" class="edge">
<title>Node5&#45;&gt;Node6</title>
<path fill="none" stroke="midnightblue" d="M335.83,-49.6C347.07,-39.32 359.99,-27.48 368.54,-19.66"/>
<polygon fill="midnightblue" stroke="midnightblue" points="333.42,-47.07 328.4,-56.4 338.14,-52.23 333.42,-47.07"/>
</g>
</g>
</svg>
