<?xml version="1.0" encoding="UTF-8" standalone="no"?>
<!DOCTYPE svg PUBLIC "-//W3C//DTD SVG 1.1//EN"
 "http://www.w3.org/Graphics/SVG/1.1/DTD/svg11.dtd">
<!-- Generated by graphviz version 2.43.0 (0)
 -->
<!-- Title: nssv_DISABLE_MSVC_WARNINGS Pages: 1 -->
<svg width="673pt" height="344pt"
 viewBox="0.00 0.00 673.00 343.50" xmlns="http://www.w3.org/2000/svg" xmlns:xlink="http://www.w3.org/1999/xlink">
<g id="graph0" class="graph" transform="scale(1 1) rotate(0) translate(4 339.5)">
<title>nssv_DISABLE_MSVC_WARNINGS</title>
<!-- Node1 -->
<g id="node1" class="node">
<title>Node1</title>
<g id="a_node1"><a xlink:title=" ">
<polygon fill="#bfbfbf" stroke="black" points="0,-164 0,-183 179,-183 179,-164 0,-164"/>
<text text-anchor="middle" x="89.5" y="-171" font-family="Helvetica,sans-Serif" font-size="10.00">nssv_DISABLE_MSVC_WARNINGS</text>
</a>
</g>
</g>
<!-- Node2 -->
<g id="node2" class="node">
<title>Node2</title>
<g id="a_node2"><a xlink:href="namespacemio_1_1detail.html#a2a025db1629ffdfc7187ac1fad8bd29b" target="_top" xlink:title=" ">
<polygon fill="none" stroke="black" points="215,-316 215,-335 322,-335 322,-316 215,-316"/>
<text text-anchor="middle" x="268.5" y="-323" font-family="Helvetica,sans-Serif" font-size="10.00">mio::detail::empty</text>
</a>
</g>
</g>
<!-- Node1&#45;&gt;Node2 -->
<g id="edge1" class="edge">
<title>Node1&#45;&gt;Node2</title>
<path fill="none" stroke="midnightblue" d="M97.16,-183.34C114.06,-207.62 161.13,-270.99 215,-306.5 217.92,-308.43 221.06,-310.19 224.3,-311.79"/>
<polygon fill="midnightblue" stroke="midnightblue" points="223.04,-315.06 233.6,-315.9 225.87,-308.65 223.04,-315.06"/>
</g>
<!-- Node3 -->
<g id="node3" class="node">
<title>Node3</title>
<g id="a_node3"><a xlink:href="namespacemio.html#a4a85c684ad267a93cd59818325e13f15" target="_top" xlink:title=" ">
<polygon fill="none" stroke="black" points="221,-278 221,-297 316,-297 316,-278 221,-278"/>
<text text-anchor="middle" x="268.5" y="-285" font-family="Helvetica,sans-Serif" font-size="10.00">mio::operator!=</text>
</a>
</g>
</g>
<!-- Node1&#45;&gt;Node3 -->
<g id="edge2" class="edge">
<title>Node1&#45;&gt;Node3</title>
<path fill="none" stroke="midnightblue" d="M100.72,-183.07C121.08,-201.71 168.7,-243.23 215,-268.5 218.73,-270.54 222.73,-272.43 226.79,-274.18"/>
<polygon fill="midnightblue" stroke="midnightblue" points="225.69,-277.51 236.28,-277.97 228.29,-271.01 225.69,-277.51"/>
</g>
<!-- Node4 -->
<g id="node4" class="node">
<title>Node4</title>
<g id="a_node4"><a xlink:href="namespacemio.html#a4e4d900a5ff48da82280ddfb66a19f64" target="_top" xlink:title=" ">
<polygon fill="none" stroke="black" points="223,-240 223,-259 314,-259 314,-240 223,-240"/>
<text text-anchor="middle" x="268.5" y="-247" font-family="Helvetica,sans-Serif" font-size="10.00">mio::operator&lt;</text>
</a>
</g>
</g>
<!-- Node1&#45;&gt;Node4 -->
<g id="edge3" class="edge">
<title>Node1&#45;&gt;Node4</title>
<path fill="none" stroke="midnightblue" d="M110.12,-183.09C134.47,-194.85 177.38,-215.11 215,-230.5 219.87,-232.49 225.03,-234.49 230.14,-236.41"/>
<polygon fill="midnightblue" stroke="midnightblue" points="229.22,-239.8 239.82,-239.96 231.64,-233.23 229.22,-239.8"/>
</g>
<!-- Node8 -->
<g id="node8" class="node">
<title>Node8</title>
<g id="a_node8"><a xlink:href="csv_8hpp.html#ac2143ca0a5efdd9c61b65331e0b479d7" target="_top" xlink:title=" ">
<polygon fill="none" stroke="black" points="231.5,-126 231.5,-145 305.5,-145 305.5,-126 231.5,-126"/>
<text text-anchor="middle" x="268.5" y="-133" font-family="Helvetica,sans-Serif" font-size="10.00">operator&lt;&lt;</text>
</a>
</g>
</g>
<!-- Node1&#45;&gt;Node8 -->
<g id="edge7" class="edge">
<title>Node1&#45;&gt;Node8</title>
<path fill="none" stroke="midnightblue" d="M135.16,-163.91C161.59,-158.24 194.99,-151.07 221.63,-145.35"/>
<polygon fill="midnightblue" stroke="midnightblue" points="222.43,-148.76 231.47,-143.23 220.96,-141.91 222.43,-148.76"/>
</g>
<!-- Node9 -->
<g id="node9" class="node">
<title>Node9</title>
<g id="a_node9"><a xlink:href="namespacemio.html#a7439bd00e3f54a49c3ed1a7e55c28407" target="_top" xlink:title=" ">
<polygon fill="none" stroke="black" points="219,-88 219,-107 318,-107 318,-88 219,-88"/>
<text text-anchor="middle" x="268.5" y="-95" font-family="Helvetica,sans-Serif" font-size="10.00">mio::operator&lt;=</text>
</a>
</g>
</g>
<!-- Node1&#45;&gt;Node9 -->
<g id="edge8" class="edge">
<title>Node1&#45;&gt;Node9</title>
<path fill="none" stroke="midnightblue" d="M110.12,-163.91C134.47,-152.15 177.38,-131.89 215,-116.5 219.87,-114.51 225.03,-112.51 230.14,-110.59"/>
<polygon fill="midnightblue" stroke="midnightblue" points="231.64,-113.77 239.82,-107.04 229.22,-107.2 231.64,-113.77"/>
</g>
<!-- Node10 -->
<g id="node10" class="node">
<title>Node10</title>
<g id="a_node10"><a xlink:href="namespacemio.html#a792b53efe44045170c43ce9d0ed38d2d" target="_top" xlink:title=" ">
<polygon fill="none" stroke="black" points="219,-202 219,-221 318,-221 318,-202 219,-202"/>
<text text-anchor="middle" x="268.5" y="-209" font-family="Helvetica,sans-Serif" font-size="10.00">mio::operator==</text>
</a>
</g>
</g>
<!-- Node1&#45;&gt;Node10 -->
<g id="edge9" class="edge">
<title>Node1&#45;&gt;Node10</title>
<path fill="none" stroke="midnightblue" d="M135.16,-183.09C158.84,-188.17 188.11,-194.46 213.1,-199.82"/>
<polygon fill="midnightblue" stroke="midnightblue" points="212.64,-203.3 223.16,-201.98 214.11,-196.46 212.64,-203.3"/>
</g>
<!-- Node11 -->
<g id="node11" class="node">
<title>Node11</title>
<g id="a_node11"><a xlink:href="namespacemio.html#a61a5f31547c8a8850b325470e76b0bac" target="_top" xlink:title=" ">
<polygon fill="none" stroke="black" points="223,-164 223,-183 314,-183 314,-164 223,-164"/>
<text text-anchor="middle" x="268.5" y="-171" font-family="Helvetica,sans-Serif" font-size="10.00">mio::operator&gt;</text>
</a>
</g>
</g>
<!-- Node1&#45;&gt;Node11 -->
<g id="edge12" class="edge">
<title>Node1&#45;&gt;Node11</title>
<path fill="none" stroke="midnightblue" d="M179.26,-173.5C190.76,-173.5 202.26,-173.5 212.98,-173.5"/>
<polygon fill="midnightblue" stroke="midnightblue" points="212.99,-177 222.99,-173.5 212.99,-170 212.99,-177"/>
</g>
<!-- Node12 -->
<g id="node12" class="node">
<title>Node12</title>
<g id="a_node12"><a xlink:href="namespacemio.html#af7f368cc620694bab74161469a2da094" target="_top" xlink:title=" ">
<polygon fill="none" stroke="black" points="219,-50 219,-69 318,-69 318,-50 219,-50"/>
<text text-anchor="middle" x="268.5" y="-57" font-family="Helvetica,sans-Serif" font-size="10.00">mio::operator&gt;=</text>
</a>
</g>
</g>
<!-- Node1&#45;&gt;Node12 -->
<g id="edge15" class="edge">
<title>Node1&#45;&gt;Node12</title>
<path fill="none" stroke="midnightblue" d="M100.72,-163.93C121.08,-145.29 168.7,-103.77 215,-78.5 218.73,-76.46 222.73,-74.57 226.79,-72.82"/>
<polygon fill="midnightblue" stroke="midnightblue" points="228.29,-75.99 236.28,-69.03 225.69,-69.49 228.29,-75.99"/>
</g>
<!-- Node13 -->
<g id="node13" class="node">
<title>Node13</title>
<g id="a_node13"><a xlink:href="namespacenonstd_1_1sv__lite.html#aa1a8fa7aa1bb6ceb89cc2fdd69570433" target="_top" xlink:title=" ">
<polygon fill="none" stroke="black" points="216.5,-0.5 216.5,-30.5 320.5,-30.5 320.5,-0.5 216.5,-0.5"/>
<text text-anchor="start" x="224.5" y="-18.5" font-family="Helvetica,sans-Serif" font-size="10.00">nonstd::sv_lite::to</text>
<text text-anchor="middle" x="268.5" y="-7.5" font-family="Helvetica,sans-Serif" font-size="10.00">_string</text>
</a>
</g>
</g>
<!-- Node1&#45;&gt;Node13 -->
<g id="edge16" class="edge">
<title>Node1&#45;&gt;Node13</title>
<path fill="none" stroke="midnightblue" d="M97.38,-163.98C114.78,-140.43 162.92,-78.59 215,-40.5 217.33,-38.8 219.79,-37.16 222.33,-35.6"/>
<polygon fill="midnightblue" stroke="midnightblue" points="224.2,-38.57 231.17,-30.59 220.75,-32.48 224.2,-38.57"/>
</g>
<!-- Node5 -->
<g id="node5" class="node">
<title>Node5</title>
<g id="a_node5"><a xlink:href="structmio_1_1basic__mmap.html#a2d1d8693d67e97222293e98c3c6d553e" target="_top" xlink:title=" ">
<polygon fill="none" stroke="black" points="358,-221 358,-240 489,-240 489,-221 358,-221"/>
<text text-anchor="middle" x="423.5" y="-228" font-family="Helvetica,sans-Serif" font-size="10.00">mio::basic_mmap::data</text>
</a>
</g>
</g>
<!-- Node4&#45;&gt;Node5 -->
<g id="edge4" class="edge">
<title>Node4&#45;&gt;Node5</title>
<path fill="none" stroke="midnightblue" d="M314.17,-243.95C324.74,-242.64 336.3,-241.2 347.81,-239.78"/>
<polygon fill="midnightblue" stroke="midnightblue" points="348.39,-243.23 357.88,-238.52 347.53,-236.28 348.39,-243.23"/>
</g>
<!-- Node6 -->
<g id="node6" class="node">
<title>Node6</title>
<g id="a_node6"><a xlink:href="structmio_1_1basic__mmap.html#ab024ae1706066753e5163844424d3d7c" target="_top" xlink:title=" ">
<polygon fill="none" stroke="black" points="359,-183 359,-202 488,-202 488,-183 359,-183"/>
<text text-anchor="middle" x="423.5" y="-190" font-family="Helvetica,sans-Serif" font-size="10.00">mio::basic_mmap::size</text>
</a>
</g>
</g>
<!-- Node4&#45;&gt;Node6 -->
<g id="edge5" class="edge">
<title>Node4&#45;&gt;Node6</title>
<path fill="none" stroke="midnightblue" d="M298.12,-239.95C305.95,-237.12 314.38,-233.87 322,-230.5 338.55,-223.18 341.24,-218.31 358,-211.5 363.75,-209.16 369.89,-206.98 376.02,-204.98"/>
<polygon fill="midnightblue" stroke="midnightblue" points="377.06,-208.32 385.57,-202.01 374.98,-201.64 377.06,-208.32"/>
</g>
<!-- Node7 -->
<g id="node7" class="node">
<title>Node7</title>
<g id="a_node7"><a xlink:href="structmio_1_1basic__mmap.html#a26b3b48db65d974be3eeba9be82ed5d7" target="_top" xlink:title=" ">
<polygon fill="none" stroke="black" points="525,-183 525,-202 665,-202 665,-183 525,-183"/>
<text text-anchor="middle" x="595" y="-190" font-family="Helvetica,sans-Serif" font-size="10.00">mio::basic_mmap::length</text>
</a>
</g>
</g>
<!-- Node6&#45;&gt;Node7 -->
<g id="edge6" class="edge">
<title>Node6&#45;&gt;Node7</title>
<path fill="none" stroke="midnightblue" d="M488.1,-192.5C496.83,-192.5 505.89,-192.5 514.86,-192.5"/>
<polygon fill="midnightblue" stroke="midnightblue" points="514.94,-196 524.94,-192.5 514.94,-189 514.94,-196"/>
</g>
<!-- Node10&#45;&gt;Node5 -->
<g id="edge10" class="edge">
<title>Node10&#45;&gt;Node5</title>
<path fill="none" stroke="midnightblue" d="M318.33,-217.56C327.78,-218.74 337.87,-219.99 347.92,-221.24"/>
<polygon fill="midnightblue" stroke="midnightblue" points="347.58,-224.72 357.93,-222.48 348.44,-217.78 347.58,-224.72"/>
</g>
<!-- Node10&#45;&gt;Node6 -->
<g id="edge11" class="edge">
<title>Node10&#45;&gt;Node6</title>
<path fill="none" stroke="midnightblue" d="M318.33,-205.44C327.97,-204.24 338.29,-202.96 348.55,-201.68"/>
<polygon fill="midnightblue" stroke="midnightblue" points="349.27,-205.12 358.76,-200.42 348.41,-198.17 349.27,-205.12"/>
</g>
<!-- Node11&#45;&gt;Node5 -->
<g id="edge13" class="edge">
<title>Node11&#45;&gt;Node5</title>
<path fill="none" stroke="midnightblue" d="M298.12,-183.05C305.95,-185.88 314.38,-189.13 322,-192.5 338.55,-199.82 341.24,-204.69 358,-211.5 363.75,-213.84 369.89,-216.02 376.02,-218.02"/>
<polygon fill="midnightblue" stroke="midnightblue" points="374.98,-221.36 385.57,-220.99 377.06,-214.68 374.98,-221.36"/>
</g>
<!-- Node11&#45;&gt;Node6 -->
<g id="edge14" class="edge">
<title>Node11&#45;&gt;Node6</title>
<path fill="none" stroke="midnightblue" d="M314.17,-179.05C324.94,-180.39 336.75,-181.85 348.48,-183.31"/>
<polygon fill="midnightblue" stroke="midnightblue" points="348.38,-186.82 358.73,-184.58 349.24,-179.88 348.38,-186.82"/>
</g>
</g>
</svg>
