<?xml version="1.0" encoding="UTF-8" standalone="no"?>
<!DOCTYPE svg PUBLIC "-//W3C//DTD SVG 1.1//EN"
 "http://www.w3.org/Graphics/SVG/1.1/DTD/svg11.dtd">
<!-- Generated by graphviz version 2.43.0 (0)
 -->
<!-- Title: include/csv_parser/csv.hpp Pages: 1 -->
<svg width="2428pt" height="95pt"
 viewBox="0.00 0.00 2427.50 95.00" xmlns="http://www.w3.org/2000/svg" xmlns:xlink="http://www.w3.org/1999/xlink">
<g id="graph0" class="graph" transform="scale(1 1) rotate(0) translate(4 91)">
<title>include/csv_parser/csv.hpp</title>
<!-- Node1 -->
<g id="node1" class="node">
<title>Node1</title>
<g id="a_node1"><a xlink:title="Defines functionality needed for basic CSV parsing.">
<polygon fill="#bfbfbf" stroke="black" points="1125.5,-56.5 1125.5,-86.5 1232.5,-86.5 1232.5,-56.5 1125.5,-56.5"/>
<text text-anchor="start" x="1133.5" y="-74.5" font-family="Helvetica,sans-Serif" font-size="10.00">include/csv_parser</text>
<text text-anchor="middle" x="1179" y="-63.5" font-family="Helvetica,sans-Serif" font-size="10.00">/csv.hpp</text>
</a>
</g>
</g>
<!-- Node2 -->
<g id="node2" class="node">
<title>Node2</title>
<g id="a_node2"><a xlink:title=" ">
<polygon fill="none" stroke="#bfbfbf" points="0,-0.5 0,-19.5 64,-19.5 64,-0.5 0,-0.5"/>
<text text-anchor="middle" x="32" y="-7.5" font-family="Helvetica,sans-Serif" font-size="10.00">algorithm</text>
</a>
</g>
</g>
<!-- Node1&#45;&gt;Node2 -->
<g id="edge1" class="edge">
<title>Node1&#45;&gt;Node2</title>
<path fill="none" stroke="midnightblue" d="M1125.21,-69.26C935.85,-64.71 299.78,-47.78 74.24,-19.89"/>
<polygon fill="midnightblue" stroke="midnightblue" points="74.5,-16.4 64.14,-18.6 73.61,-23.34 74.5,-16.4"/>
</g>
<!-- Node3 -->
<g id="node3" class="node">
<title>Node3</title>
<g id="a_node3"><a xlink:title=" ">
<polygon fill="none" stroke="#bfbfbf" points="82.5,-0.5 82.5,-19.5 129.5,-19.5 129.5,-0.5 82.5,-0.5"/>
<text text-anchor="middle" x="106" y="-7.5" font-family="Helvetica,sans-Serif" font-size="10.00">deque</text>
</a>
</g>
</g>
<!-- Node1&#45;&gt;Node3 -->
<g id="edge2" class="edge">
<title>Node1&#45;&gt;Node3</title>
<path fill="none" stroke="midnightblue" d="M1125.47,-69.5C943.76,-65.85 350.64,-51.88 139.69,-19.88"/>
<polygon fill="midnightblue" stroke="midnightblue" points="140.06,-16.39 129.63,-18.29 138.96,-23.3 140.06,-16.39"/>
</g>
<!-- Node4 -->
<g id="node4" class="node">
<title>Node4</title>
<g id="a_node4"><a xlink:title=" ">
<polygon fill="none" stroke="#bfbfbf" points="147.5,-0.5 147.5,-19.5 202.5,-19.5 202.5,-0.5 147.5,-0.5"/>
<text text-anchor="middle" x="175" y="-7.5" font-family="Helvetica,sans-Serif" font-size="10.00">fstream</text>
</a>
</g>
</g>
<!-- Node1&#45;&gt;Node4 -->
<g id="edge3" class="edge">
<title>Node1&#45;&gt;Node4</title>
<path fill="none" stroke="midnightblue" d="M1125.31,-69.06C952.13,-64.22 408.61,-47.32 212.7,-19.95"/>
<polygon fill="midnightblue" stroke="midnightblue" points="213.2,-16.49 202.8,-18.51 212.19,-23.41 213.2,-16.49"/>
</g>
<!-- Node5 -->
<g id="node5" class="node">
<title>Node5</title>
<g id="a_node5"><a xlink:title=" ">
<polygon fill="none" stroke="#bfbfbf" points="220.5,-0.5 220.5,-19.5 273.5,-19.5 273.5,-0.5 220.5,-0.5"/>
<text text-anchor="middle" x="247" y="-7.5" font-family="Helvetica,sans-Serif" font-size="10.00">iterator</text>
</a>
</g>
</g>
<!-- Node1&#45;&gt;Node5 -->
<g id="edge4" class="edge">
<title>Node1&#45;&gt;Node5</title>
<path fill="none" stroke="midnightblue" d="M1125.37,-70.99C987.16,-71.5 607.63,-68.15 283.67,-19.77"/>
<polygon fill="midnightblue" stroke="midnightblue" points="284.03,-16.28 273.62,-18.25 282.99,-23.2 284.03,-16.28"/>
</g>
<!-- Node6 -->
<g id="node6" class="node">
<title>Node6</title>
<g id="a_node6"><a xlink:title=" ">
<polygon fill="none" stroke="#bfbfbf" points="292,-0.5 292,-19.5 350,-19.5 350,-0.5 292,-0.5"/>
<text text-anchor="middle" x="321" y="-7.5" font-family="Helvetica,sans-Serif" font-size="10.00">memory</text>
</a>
</g>
</g>
<!-- Node1&#45;&gt;Node6 -->
<g id="edge5" class="edge">
<title>Node1&#45;&gt;Node6</title>
<path fill="none" stroke="midnightblue" d="M1125.43,-70.36C995.54,-69.35 653.56,-62.62 360.33,-19.95"/>
<polygon fill="midnightblue" stroke="midnightblue" points="360.77,-16.47 350.36,-18.48 359.75,-23.4 360.77,-16.47"/>
</g>
<!-- Node7 -->
<g id="node7" class="node">
<title>Node7</title>
<g id="a_node7"><a xlink:title=" ">
<polygon fill="none" stroke="#bfbfbf" points="368,-0.5 368,-19.5 416,-19.5 416,-0.5 368,-0.5"/>
<text text-anchor="middle" x="392" y="-7.5" font-family="Helvetica,sans-Serif" font-size="10.00">mutex</text>
</a>
</g>
</g>
<!-- Node1&#45;&gt;Node7 -->
<g id="edge6" class="edge">
<title>Node1&#45;&gt;Node7</title>
<path fill="none" stroke="midnightblue" d="M1125.09,-70.56C1002.35,-69.91 692.72,-63.82 426.28,-19.86"/>
<polygon fill="midnightblue" stroke="midnightblue" points="426.47,-16.34 416.03,-18.15 425.31,-23.25 426.47,-16.34"/>
</g>
<!-- Node8 -->
<g id="node8" class="node">
<title>Node8</title>
<g id="a_node8"><a xlink:title=" ">
<polygon fill="none" stroke="#bfbfbf" points="434,-0.5 434,-19.5 482,-19.5 482,-0.5 434,-0.5"/>
<text text-anchor="middle" x="458" y="-7.5" font-family="Helvetica,sans-Serif" font-size="10.00">thread</text>
</a>
</g>
</g>
<!-- Node1&#45;&gt;Node8 -->
<g id="edge7" class="edge">
<title>Node1&#45;&gt;Node8</title>
<path fill="none" stroke="midnightblue" d="M1125.49,-70.07C1010.78,-68.41 732.76,-60.34 492.02,-19.83"/>
<polygon fill="midnightblue" stroke="midnightblue" points="492.48,-16.36 482.03,-18.13 491.3,-23.26 492.48,-16.36"/>
</g>
<!-- Node9 -->
<g id="node9" class="node">
<title>Node9</title>
<g id="a_node9"><a xlink:title=" ">
<polygon fill="none" stroke="#bfbfbf" points="500,-0.5 500,-19.5 556,-19.5 556,-0.5 500,-0.5"/>
<text text-anchor="middle" x="528" y="-7.5" font-family="Helvetica,sans-Serif" font-size="10.00">sstream</text>
</a>
</g>
</g>
<!-- Node1&#45;&gt;Node9 -->
<g id="edge8" class="edge">
<title>Node1&#45;&gt;Node9</title>
<path fill="none" stroke="midnightblue" d="M1125.28,-68.91C1019.77,-65.17 778.07,-53.58 566.25,-19.96"/>
<polygon fill="midnightblue" stroke="midnightblue" points="566.62,-16.47 556.19,-18.34 565.51,-23.38 566.62,-16.47"/>
</g>
<!-- Node10 -->
<g id="node10" class="node">
<title>Node10</title>
<g id="a_node10"><a xlink:title=" ">
<polygon fill="none" stroke="#bfbfbf" points="574,-0.5 574,-19.5 618,-19.5 618,-0.5 574,-0.5"/>
<text text-anchor="middle" x="596" y="-7.5" font-family="Helvetica,sans-Serif" font-size="10.00">string</text>
</a>
</g>
</g>
<!-- Node1&#45;&gt;Node10 -->
<g id="edge9" class="edge">
<title>Node1&#45;&gt;Node10</title>
<path fill="none" stroke="midnightblue" d="M1125.24,-68.99C1027.73,-65.52 815.25,-54.55 628.24,-19.89"/>
<polygon fill="midnightblue" stroke="midnightblue" points="628.7,-16.41 618.23,-18.01 627.41,-23.29 628.7,-16.41"/>
</g>
<!-- Node11 -->
<g id="node11" class="node">
<title>Node11</title>
<g id="a_node11"><a xlink:title=" ">
<polygon fill="none" stroke="#bfbfbf" points="636.5,-0.5 636.5,-19.5 683.5,-19.5 683.5,-0.5 636.5,-0.5"/>
<text text-anchor="middle" x="660" y="-7.5" font-family="Helvetica,sans-Serif" font-size="10.00">vector</text>
</a>
</g>
</g>
<!-- Node1&#45;&gt;Node11 -->
<g id="edge10" class="edge">
<title>Node1&#45;&gt;Node11</title>
<path fill="none" stroke="midnightblue" d="M1125.37,-67.79C1037.22,-62.7 856.13,-49.64 693.85,-19.85"/>
<polygon fill="midnightblue" stroke="midnightblue" points="694.16,-16.35 683.69,-17.96 692.88,-23.23 694.16,-16.35"/>
</g>
<!-- Node12 -->
<g id="node12" class="node">
<title>Node12</title>
<g id="a_node12"><a xlink:title=" ">
<polygon fill="none" stroke="#bfbfbf" points="702,-0.5 702,-19.5 758,-19.5 758,-0.5 702,-0.5"/>
<text text-anchor="middle" x="730" y="-7.5" font-family="Helvetica,sans-Serif" font-size="10.00">unistd.h</text>
</a>
</g>
</g>
<!-- Node1&#45;&gt;Node12 -->
<g id="edge11" class="edge">
<title>Node1&#45;&gt;Node12</title>
<path fill="none" stroke="midnightblue" d="M1125.37,-65.94C1048.38,-58.95 901.98,-44.01 768.23,-20.04"/>
<polygon fill="midnightblue" stroke="midnightblue" points="768.67,-16.56 758.21,-18.22 767.42,-23.45 768.67,-16.56"/>
</g>
<!-- Node13 -->
<g id="node13" class="node">
<title>Node13</title>
<g id="a_node13"><a xlink:title=" ">
<polygon fill="none" stroke="#bfbfbf" points="776.5,-0.5 776.5,-19.5 857.5,-19.5 857.5,-0.5 776.5,-0.5"/>
<text text-anchor="middle" x="817" y="-7.5" font-family="Helvetica,sans-Serif" font-size="10.00">system_error</text>
</a>
</g>
</g>
<!-- Node1&#45;&gt;Node13 -->
<g id="edge12" class="edge">
<title>Node1&#45;&gt;Node13</title>
<path fill="none" stroke="midnightblue" d="M1125.4,-62.12C1065.27,-52.65 964.56,-36.59 867.62,-20.08"/>
<polygon fill="midnightblue" stroke="midnightblue" points="868.1,-16.61 857.65,-18.38 866.92,-23.51 868.1,-16.61"/>
</g>
<!-- Node14 -->
<g id="node14" class="node">
<title>Node14</title>
<g id="a_node14"><a xlink:title=" ">
<polygon fill="none" stroke="#bfbfbf" points="876,-0.5 876,-19.5 926,-19.5 926,-0.5 876,-0.5"/>
<text text-anchor="middle" x="901" y="-7.5" font-family="Helvetica,sans-Serif" font-size="10.00">cstdint</text>
</a>
</g>
</g>
<!-- Node1&#45;&gt;Node14 -->
<g id="edge13" class="edge">
<title>Node1&#45;&gt;Node14</title>
<path fill="none" stroke="midnightblue" d="M1125.02,-60.21C1077.68,-50.98 1006.78,-36.69 936.17,-20.18"/>
<polygon fill="midnightblue" stroke="midnightblue" points="936.75,-16.72 926.21,-17.84 935.14,-23.54 936.75,-16.72"/>
</g>
<!-- Node15 -->
<g id="node15" class="node">
<title>Node15</title>
<g id="a_node15"><a xlink:title=" ">
<polygon fill="none" stroke="#bfbfbf" points="944.5,-0.5 944.5,-19.5 1013.5,-19.5 1013.5,-0.5 944.5,-0.5"/>
<text text-anchor="middle" x="979" y="-7.5" font-family="Helvetica,sans-Serif" font-size="10.00">type_traits</text>
</a>
</g>
</g>
<!-- Node1&#45;&gt;Node15 -->
<g id="edge14" class="edge">
<title>Node1&#45;&gt;Node15</title>
<path fill="none" stroke="midnightblue" d="M1131.86,-56.47C1096.9,-46.08 1049.85,-32.08 1017.23,-22.37"/>
<polygon fill="midnightblue" stroke="midnightblue" points="1018.18,-19 1007.59,-19.51 1016.18,-25.71 1018.18,-19"/>
</g>
<!-- Node16 -->
<g id="node16" class="node">
<title>Node16</title>
<g id="a_node16"><a xlink:title=" ">
<polygon fill="none" stroke="#bfbfbf" points="1031.5,-0.5 1031.5,-19.5 1078.5,-19.5 1078.5,-0.5 1031.5,-0.5"/>
<text text-anchor="middle" x="1055" y="-7.5" font-family="Helvetica,sans-Serif" font-size="10.00">fcntl.h</text>
</a>
</g>
</g>
<!-- Node1&#45;&gt;Node16 -->
<g id="edge15" class="edge">
<title>Node1&#45;&gt;Node16</title>
<path fill="none" stroke="midnightblue" d="M1149.61,-56.4C1129.18,-46.59 1102.14,-33.62 1082.2,-24.05"/>
<polygon fill="midnightblue" stroke="midnightblue" points="1083.57,-20.83 1073.04,-19.66 1080.54,-27.14 1083.57,-20.83"/>
</g>
<!-- Node17 -->
<g id="node17" class="node">
<title>Node17</title>
<g id="a_node17"><a xlink:title=" ">
<polygon fill="none" stroke="#bfbfbf" points="1096.5,-0.5 1096.5,-19.5 1173.5,-19.5 1173.5,-0.5 1096.5,-0.5"/>
<text text-anchor="middle" x="1135" y="-7.5" font-family="Helvetica,sans-Serif" font-size="10.00">sys/mman.h</text>
</a>
</g>
</g>
<!-- Node1&#45;&gt;Node17 -->
<g id="edge16" class="edge">
<title>Node1&#45;&gt;Node17</title>
<path fill="none" stroke="midnightblue" d="M1168.57,-56.4C1162.24,-47.84 1154.13,-36.87 1147.47,-27.86"/>
<polygon fill="midnightblue" stroke="midnightblue" points="1150.16,-25.62 1141.4,-19.66 1144.53,-29.78 1150.16,-25.62"/>
</g>
<!-- Node18 -->
<g id="node18" class="node">
<title>Node18</title>
<g id="a_node18"><a xlink:title=" ">
<polygon fill="none" stroke="#bfbfbf" points="1192,-0.5 1192,-19.5 1256,-19.5 1256,-0.5 1192,-0.5"/>
<text text-anchor="middle" x="1224" y="-7.5" font-family="Helvetica,sans-Serif" font-size="10.00">sys/stat.h</text>
</a>
</g>
</g>
<!-- Node1&#45;&gt;Node18 -->
<g id="edge17" class="edge">
<title>Node1&#45;&gt;Node18</title>
<path fill="none" stroke="midnightblue" d="M1189.66,-56.4C1196.14,-47.84 1204.43,-36.87 1211.25,-27.86"/>
<polygon fill="midnightblue" stroke="midnightblue" points="1214.21,-29.74 1217.45,-19.66 1208.63,-25.52 1214.21,-29.74"/>
</g>
<!-- Node19 -->
<g id="node19" class="node">
<title>Node19</title>
<g id="a_node19"><a xlink:title=" ">
<polygon fill="none" stroke="#bfbfbf" points="1274,-0.5 1274,-19.5 1316,-19.5 1316,-0.5 1274,-0.5"/>
<text text-anchor="middle" x="1295" y="-7.5" font-family="Helvetica,sans-Serif" font-size="10.00">array</text>
</a>
</g>
</g>
<!-- Node1&#45;&gt;Node19 -->
<g id="edge18" class="edge">
<title>Node1&#45;&gt;Node19</title>
<path fill="none" stroke="midnightblue" d="M1206.49,-56.4C1225.43,-46.68 1250.44,-33.86 1269.04,-24.31"/>
<polygon fill="midnightblue" stroke="midnightblue" points="1270.82,-27.34 1278.12,-19.66 1267.63,-21.11 1270.82,-27.34"/>
</g>
<!-- Node20 -->
<g id="node20" class="node">
<title>Node20</title>
<g id="a_node20"><a xlink:title=" ">
<polygon fill="none" stroke="#bfbfbf" points="1334.5,-0.5 1334.5,-19.5 1441.5,-19.5 1441.5,-0.5 1334.5,-0.5"/>
<text text-anchor="middle" x="1388" y="-7.5" font-family="Helvetica,sans-Serif" font-size="10.00">condition_variable</text>
</a>
</g>
</g>
<!-- Node1&#45;&gt;Node20 -->
<g id="edge19" class="edge">
<title>Node1&#45;&gt;Node20</title>
<path fill="none" stroke="midnightblue" d="M1228.27,-56.47C1264.95,-46.03 1314.38,-31.96 1348.49,-22.25"/>
<polygon fill="midnightblue" stroke="midnightblue" points="1349.46,-25.61 1358.12,-19.51 1347.54,-18.88 1349.46,-25.61"/>
</g>
<!-- Node21 -->
<g id="node21" class="node">
<title>Node21</title>
<g id="a_node21"><a xlink:title=" ">
<polygon fill="none" stroke="#bfbfbf" points="1459.5,-0.5 1459.5,-19.5 1552.5,-19.5 1552.5,-0.5 1459.5,-0.5"/>
<text text-anchor="middle" x="1506" y="-7.5" font-family="Helvetica,sans-Serif" font-size="10.00">unordered_map</text>
</a>
</g>
</g>
<!-- Node1&#45;&gt;Node21 -->
<g id="edge20" class="edge">
<title>Node1&#45;&gt;Node21</title>
<path fill="none" stroke="midnightblue" d="M1232.63,-60.74C1292.32,-49.88 1388.38,-32.4 1449.29,-21.32"/>
<polygon fill="midnightblue" stroke="midnightblue" points="1450.28,-24.7 1459.49,-19.46 1449.03,-17.81 1450.28,-24.7"/>
</g>
<!-- Node22 -->
<g id="node22" class="node">
<title>Node22</title>
<g id="a_node22"><a xlink:title=" ">
<polygon fill="none" stroke="#bfbfbf" points="1571,-0.5 1571,-19.5 1657,-19.5 1657,-0.5 1571,-0.5"/>
<text text-anchor="middle" x="1614" y="-7.5" font-family="Helvetica,sans-Serif" font-size="10.00">unordered_set</text>
</a>
</g>
</g>
<!-- Node1&#45;&gt;Node22 -->
<g id="edge21" class="edge">
<title>Node1&#45;&gt;Node22</title>
<path fill="none" stroke="midnightblue" d="M1232.7,-64.11C1304.91,-55.37 1437.58,-38.77 1560.89,-20.12"/>
<polygon fill="midnightblue" stroke="midnightblue" points="1561.53,-23.56 1570.89,-18.6 1560.48,-16.64 1561.53,-23.56"/>
</g>
<!-- Node23 -->
<g id="node23" class="node">
<title>Node23</title>
<g id="a_node23"><a xlink:title=" ">
<polygon fill="none" stroke="#bfbfbf" points="1675.5,-0.5 1675.5,-19.5 1722.5,-19.5 1722.5,-0.5 1675.5,-0.5"/>
<text text-anchor="middle" x="1699" y="-7.5" font-family="Helvetica,sans-Serif" font-size="10.00">cmath</text>
</a>
</g>
</g>
<!-- Node1&#45;&gt;Node23 -->
<g id="edge22" class="edge">
<title>Node1&#45;&gt;Node23</title>
<path fill="none" stroke="midnightblue" d="M1232.74,-67.8C1321.07,-62.72 1502.53,-49.68 1665.13,-19.85"/>
<polygon fill="midnightblue" stroke="midnightblue" points="1666.12,-23.23 1675.31,-17.96 1664.84,-16.34 1666.12,-23.23"/>
</g>
<!-- Node24 -->
<g id="node24" class="node">
<title>Node24</title>
<g id="a_node24"><a xlink:title=" ">
<polygon fill="none" stroke="#bfbfbf" points="1740.5,-0.5 1740.5,-19.5 1789.5,-19.5 1789.5,-0.5 1740.5,-0.5"/>
<text text-anchor="middle" x="1765" y="-7.5" font-family="Helvetica,sans-Serif" font-size="10.00">cstdlib</text>
</a>
</g>
</g>
<!-- Node1&#45;&gt;Node24 -->
<g id="edge23" class="edge">
<title>Node1&#45;&gt;Node24</title>
<path fill="none" stroke="midnightblue" d="M1232.8,-68.72C1330.4,-64.8 1543.14,-53.14 1730.22,-20.05"/>
<polygon fill="midnightblue" stroke="midnightblue" points="1731.02,-23.46 1740.24,-18.25 1729.78,-16.57 1731.02,-23.46"/>
</g>
<!-- Node25 -->
<g id="node25" class="node">
<title>Node25</title>
<g id="a_node25"><a xlink:title=" ">
<polygon fill="none" stroke="#bfbfbf" points="1808,-0.5 1808,-19.5 1860,-19.5 1860,-0.5 1808,-0.5"/>
<text text-anchor="middle" x="1834" y="-7.5" font-family="Helvetica,sans-Serif" font-size="10.00">cassert</text>
</a>
</g>
</g>
<!-- Node1&#45;&gt;Node25 -->
<g id="edge24" class="edge">
<title>Node1&#45;&gt;Node25</title>
<path fill="none" stroke="midnightblue" d="M1232.87,-69.2C1339.25,-65.95 1583.79,-55.2 1797.57,-19.96"/>
<polygon fill="midnightblue" stroke="midnightblue" points="1798.44,-23.37 1807.73,-18.27 1797.29,-16.46 1798.44,-23.37"/>
</g>
<!-- Node26 -->
<g id="node26" class="node">
<title>Node26</title>
<g id="a_node26"><a xlink:title=" ">
<polygon fill="none" stroke="#bfbfbf" points="1878,-0.5 1878,-19.5 1922,-19.5 1922,-0.5 1878,-0.5"/>
<text text-anchor="middle" x="1900" y="-7.5" font-family="Helvetica,sans-Serif" font-size="10.00">limits</text>
</a>
</g>
</g>
<!-- Node1&#45;&gt;Node26 -->
<g id="edge25" class="edge">
<title>Node1&#45;&gt;Node26</title>
<path fill="none" stroke="midnightblue" d="M1232.72,-70.38C1347.86,-69.3 1626.87,-62.31 1867.79,-19.84"/>
<polygon fill="midnightblue" stroke="midnightblue" points="1868.55,-23.26 1877.78,-18.05 1867.32,-16.37 1868.55,-23.26"/>
</g>
<!-- Node27 -->
<g id="node27" class="node">
<title>Node27</title>
<g id="a_node27"><a xlink:title=" ">
<polygon fill="none" stroke="#bfbfbf" points="1940.5,-0.5 1940.5,-19.5 1997.5,-19.5 1997.5,-0.5 1940.5,-0.5"/>
<text text-anchor="middle" x="1969" y="-7.5" font-family="Helvetica,sans-Serif" font-size="10.00">ostream</text>
</a>
</g>
</g>
<!-- Node1&#45;&gt;Node27 -->
<g id="edge26" class="edge">
<title>Node1&#45;&gt;Node27</title>
<path fill="none" stroke="midnightblue" d="M1232.67,-69.94C1354.88,-68 1663.3,-59.43 1930.19,-19.84"/>
<polygon fill="midnightblue" stroke="midnightblue" points="1931.1,-23.24 1940.47,-18.29 1930.06,-16.32 1931.1,-23.24"/>
</g>
<!-- Node28 -->
<g id="node28" class="node">
<title>Node28</title>
<g id="a_node28"><a xlink:title=" ">
<polygon fill="none" stroke="#bfbfbf" points="2015.5,-0.5 2015.5,-19.5 2080.5,-19.5 2080.5,-0.5 2015.5,-0.5"/>
<text text-anchor="middle" x="2048" y="-7.5" font-family="Helvetica,sans-Serif" font-size="10.00">stdexcept</text>
</a>
</g>
</g>
<!-- Node1&#45;&gt;Node28 -->
<g id="edge27" class="edge">
<title>Node1&#45;&gt;Node28</title>
<path fill="none" stroke="midnightblue" d="M1232.56,-70.1C1363.25,-68.52 1708.85,-60.64 2005.33,-20.03"/>
<polygon fill="midnightblue" stroke="midnightblue" points="2005.98,-23.47 2015.41,-18.63 2005.02,-16.54 2005.98,-23.47"/>
</g>
<!-- Node29 -->
<g id="node29" class="node">
<title>Node29</title>
<g id="a_node29"><a xlink:title=" ">
<polygon fill="none" stroke="#bfbfbf" points="2098.5,-0.5 2098.5,-19.5 2147.5,-19.5 2147.5,-0.5 2098.5,-0.5"/>
<text text-anchor="middle" x="2123" y="-7.5" font-family="Helvetica,sans-Serif" font-size="10.00">cctype</text>
</a>
</g>
</g>
<!-- Node1&#45;&gt;Node29 -->
<g id="edge28" class="edge">
<title>Node1&#45;&gt;Node29</title>
<path fill="none" stroke="midnightblue" d="M1232.78,-69.01C1399.03,-64.17 1904.07,-47.67 2088.16,-19.93"/>
<polygon fill="midnightblue" stroke="midnightblue" points="2088.92,-23.36 2098.26,-18.35 2087.83,-16.44 2088.92,-23.36"/>
</g>
<!-- Node30 -->
<g id="node30" class="node">
<title>Node30</title>
<g id="a_node30"><a xlink:title=" ">
<polygon fill="none" stroke="#bfbfbf" points="2166,-0.5 2166,-19.5 2226,-19.5 2226,-0.5 2166,-0.5"/>
<text text-anchor="middle" x="2196" y="-7.5" font-family="Helvetica,sans-Serif" font-size="10.00">iostream</text>
</a>
</g>
</g>
<!-- Node1&#45;&gt;Node30 -->
<g id="edge29" class="edge">
<title>Node1&#45;&gt;Node30</title>
<path fill="none" stroke="midnightblue" d="M1232.58,-71.02C1379.18,-71.73 1799.11,-69.09 2155.86,-19.9"/>
<polygon fill="midnightblue" stroke="midnightblue" points="2156.44,-23.35 2165.86,-18.5 2155.48,-16.42 2156.44,-23.35"/>
</g>
<!-- Node31 -->
<g id="node31" class="node">
<title>Node31</title>
<g id="a_node31"><a xlink:title=" ">
<polygon fill="none" stroke="#bfbfbf" points="2244.5,-0.5 2244.5,-19.5 2285.5,-19.5 2285.5,-0.5 2244.5,-0.5"/>
<text text-anchor="middle" x="2265" y="-7.5" font-family="Helvetica,sans-Serif" font-size="10.00">tuple</text>
</a>
</g>
</g>
<!-- Node1&#45;&gt;Node31 -->
<g id="edge30" class="edge">
<title>Node1&#45;&gt;Node31</title>
<path fill="none" stroke="midnightblue" d="M1232.68,-69.66C1416.39,-66.52 2019.9,-53.94 2234.26,-19.61"/>
<polygon fill="midnightblue" stroke="midnightblue" points="2234.89,-23.05 2244.17,-17.96 2233.73,-16.15 2234.89,-23.05"/>
</g>
<!-- Node32 -->
<g id="node32" class="node">
<title>Node32</title>
<g id="a_node32"><a xlink:title=" ">
<polygon fill="none" stroke="#bfbfbf" points="2304,-0.5 2304,-19.5 2336,-19.5 2336,-0.5 2304,-0.5"/>
<text text-anchor="middle" x="2320" y="-7.5" font-family="Helvetica,sans-Serif" font-size="10.00">set</text>
</a>
</g>
</g>
<!-- Node1&#45;&gt;Node32 -->
<g id="edge31" class="edge">
<title>Node1&#45;&gt;Node32</title>
<path fill="none" stroke="midnightblue" d="M1232.76,-70.2C1423.51,-68.8 2068.06,-61.21 2293.69,-19.57"/>
<polygon fill="midnightblue" stroke="midnightblue" points="2294.63,-22.95 2303.79,-17.63 2293.31,-16.08 2294.63,-22.95"/>
</g>
<!-- Node33 -->
<g id="node33" class="node">
<title>Node33</title>
<g id="a_node33"><a xlink:title=" ">
<polygon fill="none" stroke="#bfbfbf" points="2354.5,-0.5 2354.5,-19.5 2419.5,-19.5 2419.5,-0.5 2354.5,-0.5"/>
<text text-anchor="middle" x="2387" y="-7.5" font-family="Helvetica,sans-Serif" font-size="10.00">functional</text>
</a>
</g>
</g>
<!-- Node1&#45;&gt;Node33 -->
<g id="edge32" class="edge">
<title>Node1&#45;&gt;Node33</title>
<path fill="none" stroke="midnightblue" d="M1232.59,-69.37C1428.44,-65.08 2105.87,-48.56 2344.08,-19.85"/>
<polygon fill="midnightblue" stroke="midnightblue" points="2344.58,-23.31 2354.07,-18.6 2343.72,-16.36 2344.58,-23.31"/>
</g>
</g>
</svg>
