<?xml version="1.0" encoding="UTF-8" standalone="no"?>
<!DOCTYPE svg PUBLIC "-//W3C//DTD SVG 1.1//EN"
 "http://www.w3.org/Graphics/SVG/1.1/DTD/svg11.dtd">
<!-- Generated by graphviz version 2.43.0 (0)
 -->
<!-- Title: include/nmbuflowtorch/definitions.hpp Pages: 1 -->
<svg width="2413pt" height="307pt"
 viewBox="0.00 0.00 2413.00 307.00" xmlns="http://www.w3.org/2000/svg" xmlns:xlink="http://www.w3.org/1999/xlink">
<g id="graph0" class="graph" transform="scale(1 1) rotate(0) translate(4 303)">
<title>include/nmbuflowtorch/definitions.hpp</title>
<!-- Node1 -->
<g id="node1" class="node">
<title>Node1</title>
<g id="a_node1"><a xlink:title=" ">
<polygon fill="#bfbfbf" stroke="black" points="1489,-268.5 1489,-298.5 1617,-298.5 1617,-268.5 1489,-268.5"/>
<text text-anchor="start" x="1497" y="-286.5" font-family="Helvetica,sans-Serif" font-size="10.00">include/nmbuflowtorch</text>
<text text-anchor="middle" x="1553" y="-275.5" font-family="Helvetica,sans-Serif" font-size="10.00">/definitions.hpp</text>
</a>
</g>
</g>
<!-- Node2 -->
<g id="node2" class="node">
<title>Node2</title>
<g id="a_node2"><a xlink:href="layer_8hpp.html" target="_top" xlink:title=" ">
<polygon fill="none" stroke="black" points="1179,-134.5 1179,-164.5 1307,-164.5 1307,-134.5 1179,-134.5"/>
<text text-anchor="start" x="1187" y="-152.5" font-family="Helvetica,sans-Serif" font-size="10.00">include/nmbuflowtorch</text>
<text text-anchor="middle" x="1243" y="-141.5" font-family="Helvetica,sans-Serif" font-size="10.00">/layer.hpp</text>
</a>
</g>
</g>
<!-- Node1&#45;&gt;Node2 -->
<g id="edge1" class="edge">
<title>Node1&#45;&gt;Node2</title>
<path fill="none" stroke="midnightblue" d="M1510.56,-264.43C1448.07,-237.82 1332.6,-188.65 1276.01,-164.56"/>
<polygon fill="midnightblue" stroke="midnightblue" points="1509.55,-267.8 1520.12,-268.5 1512.29,-261.36 1509.55,-267.8"/>
</g>
<!-- Node6 -->
<g id="node6" class="node">
<title>Node6</title>
<g id="a_node6"><a xlink:href="main_01copy_8cpp.html" target="_top" xlink:title=" ">
<polygon fill="none" stroke="black" points="1075,-6 1075,-25 1179,-25 1179,-6 1075,-6"/>
<text text-anchor="middle" x="1127" y="-13" font-family="Helvetica,sans-Serif" font-size="10.00">src/main copy.cpp</text>
</a>
</g>
</g>
<!-- Node1&#45;&gt;Node6 -->
<g id="edge72" class="edge">
<title>Node1&#45;&gt;Node6</title>
<path fill="none" stroke="midnightblue" d="M1478.47,-280.52C1292.81,-275.24 813.33,-259.32 656,-232 449.14,-196.08 328.65,-266.21 203,-98 194.75,-86.96 193.46,-76.94 203,-67 236.22,-32.37 1018.47,-37.58 1066,-31 1075.92,-29.63 1086.59,-27.37 1096.19,-25.04"/>
<polygon fill="midnightblue" stroke="midnightblue" points="1478.59,-284.03 1488.68,-280.81 1478.78,-277.03 1478.59,-284.03"/>
</g>
<!-- Node7 -->
<g id="node7" class="node">
<title>Node7</title>
<g id="a_node7"><a xlink:href="main_8cpp.html" target="_top" xlink:title=" ">
<polygon fill="none" stroke="black" points="2126.5,-6 2126.5,-25 2205.5,-25 2205.5,-6 2126.5,-6"/>
<text text-anchor="middle" x="2166" y="-13" font-family="Helvetica,sans-Serif" font-size="10.00">src/main.cpp</text>
</a>
</g>
</g>
<!-- Node1&#45;&gt;Node7 -->
<g id="edge73" class="edge">
<title>Node1&#45;&gt;Node7</title>
<path fill="none" stroke="midnightblue" d="M1627.64,-280.54C1752.29,-274.81 2008.44,-252.38 2204,-165 2256.91,-141.36 2322.34,-115.09 2290,-67 2279.3,-51.09 2230.88,-34.71 2197.81,-25.07"/>
<polygon fill="midnightblue" stroke="midnightblue" points="1627.28,-277.05 1617.44,-280.99 1627.58,-284.05 1627.28,-277.05"/>
</g>
<!-- Node8 -->
<g id="node8" class="node">
<title>Node8</title>
<g id="a_node8"><a xlink:href="main__multithread_8cpp.html" target="_top" xlink:title=" ">
<polygon fill="none" stroke="black" points="1349.5,-6 1349.5,-25 1490.5,-25 1490.5,-6 1349.5,-6"/>
<text text-anchor="middle" x="1420" y="-13" font-family="Helvetica,sans-Serif" font-size="10.00">src/main_multithread.cpp</text>
</a>
</g>
</g>
<!-- Node1&#45;&gt;Node8 -->
<g id="edge74" class="edge">
<title>Node1&#45;&gt;Node8</title>
<path fill="none" stroke="midnightblue" d="M1478.67,-279.3C1258.55,-269.08 621.62,-233.75 561,-165 532.19,-132.33 530.92,-98.5 561,-67 590.92,-35.67 1296.95,-35.87 1340,-31 1352.76,-29.55 1366.56,-27.31 1379.05,-25.01"/>
<polygon fill="midnightblue" stroke="midnightblue" points="1478.68,-282.81 1488.83,-279.77 1479,-275.81 1478.68,-282.81"/>
</g>
<!-- Node9 -->
<g id="node9" class="node">
<title>Node9</title>
<g id="a_node9"><a xlink:href="main__single__thread_8cpp.html" target="_top" xlink:title=" ">
<polygon fill="none" stroke="black" points="1509,-6 1509,-25 1659,-25 1659,-6 1509,-6"/>
<text text-anchor="middle" x="1584" y="-13" font-family="Helvetica,sans-Serif" font-size="10.00">src/main_single_thread.cpp</text>
</a>
</g>
</g>
<!-- Node1&#45;&gt;Node9 -->
<g id="edge75" class="edge">
<title>Node1&#45;&gt;Node9</title>
<path fill="none" stroke="midnightblue" d="M1555.86,-257.92C1562.53,-200.76 1578.81,-61.01 1583,-25.05"/>
<polygon fill="midnightblue" stroke="midnightblue" points="1552.35,-257.86 1554.67,-268.2 1559.3,-258.67 1552.35,-257.86"/>
</g>
<!-- Node17 -->
<g id="node17" class="node">
<title>Node17</title>
<g id="a_node17"><a xlink:href="network_8hpp.html" target="_top" xlink:title="Network class representing a sequence of layers. This class implements a network consisting of a sequ...">
<polygon fill="none" stroke="black" points="1420,-67.5 1420,-97.5 1548,-97.5 1548,-67.5 1420,-67.5"/>
<text text-anchor="start" x="1428" y="-85.5" font-family="Helvetica,sans-Serif" font-size="10.00">include/nmbuflowtorch</text>
<text text-anchor="middle" x="1484" y="-74.5" font-family="Helvetica,sans-Serif" font-size="10.00">/network.hpp</text>
</a>
</g>
</g>
<!-- Node1&#45;&gt;Node17 -->
<g id="edge54" class="edge">
<title>Node1&#45;&gt;Node17</title>
<path fill="none" stroke="midnightblue" d="M1544.69,-258.53C1530.17,-216.65 1500.61,-131.4 1488.92,-97.68"/>
<polygon fill="midnightblue" stroke="midnightblue" points="1541.45,-259.89 1548.04,-268.19 1548.07,-257.59 1541.45,-259.89"/>
</g>
<!-- Node18 -->
<g id="node18" class="node">
<title>Node18</title>
<g id="a_node18"><a xlink:href="network_8cpp.html" target="_top" xlink:title=" ">
<polygon fill="none" stroke="black" points="2235,-6 2235,-25 2405,-25 2405,-6 2235,-6"/>
<text text-anchor="middle" x="2320" y="-13" font-family="Helvetica,sans-Serif" font-size="10.00">src/nmbuflowtorch/network.cpp</text>
</a>
</g>
</g>
<!-- Node1&#45;&gt;Node18 -->
<g id="edge76" class="edge">
<title>Node1&#45;&gt;Node18</title>
<path fill="none" stroke="midnightblue" d="M1627.07,-281.06C1727.65,-277.78 1912.48,-267.06 2066,-232 2150.44,-212.71 2177.51,-213.9 2249,-165 2281.75,-142.6 2291.31,-134 2308,-98 2319.43,-73.35 2320.5,-40.39 2320.3,-25.04"/>
<polygon fill="midnightblue" stroke="midnightblue" points="1626.9,-277.56 1617.01,-281.37 1627.11,-284.56 1626.9,-277.56"/>
</g>
<!-- Node19 -->
<g id="node19" class="node">
<title>Node19</title>
<g id="a_node19"><a xlink:href="loss_8hpp.html" target="_top" xlink:title=" ">
<polygon fill="none" stroke="black" points="1715,-134.5 1715,-164.5 1843,-164.5 1843,-134.5 1715,-134.5"/>
<text text-anchor="start" x="1723" y="-152.5" font-family="Helvetica,sans-Serif" font-size="10.00">include/nmbuflowtorch</text>
<text text-anchor="middle" x="1779" y="-141.5" font-family="Helvetica,sans-Serif" font-size="10.00">/loss.hpp</text>
</a>
</g>
</g>
<!-- Node1&#45;&gt;Node19 -->
<g id="edge30" class="edge">
<title>Node1&#45;&gt;Node19</title>
<path fill="none" stroke="midnightblue" d="M1585.87,-263.3C1631.87,-236.44 1714.33,-188.27 1754.99,-164.52"/>
<polygon fill="midnightblue" stroke="midnightblue" points="1584.06,-260.31 1577.19,-268.37 1587.59,-266.35 1584.06,-260.31"/>
</g>
<!-- Node24 -->
<g id="node24" class="node">
<title>Node24</title>
<g id="a_node24"><a xlink:href="math__m_8hpp.html" target="_top" xlink:title=" ">
<polygon fill="none" stroke="black" points="2002,-134.5 2002,-164.5 2130,-164.5 2130,-134.5 2002,-134.5"/>
<text text-anchor="start" x="2010" y="-152.5" font-family="Helvetica,sans-Serif" font-size="10.00">include/nmbuflowtorch</text>
<text text-anchor="middle" x="2066" y="-141.5" font-family="Helvetica,sans-Serif" font-size="10.00">/math_m.hpp</text>
</a>
</g>
</g>
<!-- Node1&#45;&gt;Node24 -->
<g id="edge48" class="edge">
<title>Node1&#45;&gt;Node24</title>
<path fill="none" stroke="midnightblue" d="M1617.27,-265.96C1719.13,-239.75 1915.89,-189.12 2011.37,-164.56"/>
<polygon fill="midnightblue" stroke="midnightblue" points="1616.23,-262.62 1607.41,-268.5 1617.97,-269.4 1616.23,-262.62"/>
</g>
<!-- Node25 -->
<g id="node25" class="node">
<title>Node25</title>
<g id="a_node25"><a xlink:href="optimizer_8hpp.html" target="_top" xlink:title=" ">
<polygon fill="none" stroke="black" points="1101,-201.5 1101,-231.5 1229,-231.5 1229,-201.5 1101,-201.5"/>
<text text-anchor="start" x="1109" y="-219.5" font-family="Helvetica,sans-Serif" font-size="10.00">include/nmbuflowtorch</text>
<text text-anchor="middle" x="1165" y="-208.5" font-family="Helvetica,sans-Serif" font-size="10.00">/optimizer.hpp</text>
</a>
</g>
</g>
<!-- Node1&#45;&gt;Node25 -->
<g id="edge55" class="edge">
<title>Node1&#45;&gt;Node25</title>
<path fill="none" stroke="midnightblue" d="M1478.98,-270.1C1406.71,-257.99 1297.86,-239.76 1229.17,-228.25"/>
<polygon fill="midnightblue" stroke="midnightblue" points="1478.49,-273.57 1488.93,-271.77 1479.65,-266.66 1478.49,-273.57"/>
</g>
<!-- Node3 -->
<g id="node3" class="node">
<title>Node3</title>
<g id="a_node3"><a xlink:href="conv_8hpp.html" target="_top" xlink:title=" ">
<polygon fill="none" stroke="black" points="386,-67.5 386,-97.5 514,-97.5 514,-67.5 386,-67.5"/>
<text text-anchor="start" x="394" y="-85.5" font-family="Helvetica,sans-Serif" font-size="10.00">include/nmbuflowtorch</text>
<text text-anchor="middle" x="450" y="-74.5" font-family="Helvetica,sans-Serif" font-size="10.00">/layer/conv.hpp</text>
</a>
</g>
</g>
<!-- Node2&#45;&gt;Node3 -->
<g id="edge2" class="edge">
<title>Node2&#45;&gt;Node3</title>
<path fill="none" stroke="midnightblue" d="M1168.71,-144.36C1043.27,-137.08 781.57,-120.56 561,-98 545.82,-96.45 529.52,-94.48 514.2,-92.51"/>
<polygon fill="midnightblue" stroke="midnightblue" points="1168.77,-147.87 1178.96,-144.96 1169.18,-140.89 1168.77,-147.87"/>
</g>
<!-- Node5 -->
<g id="node5" class="node">
<title>Node5</title>
<g id="a_node5"><a xlink:href="dense_8hpp.html" target="_top" xlink:title=" ">
<polygon fill="none" stroke="black" points="1680,-67.5 1680,-97.5 1808,-97.5 1808,-67.5 1680,-67.5"/>
<text text-anchor="start" x="1688" y="-85.5" font-family="Helvetica,sans-Serif" font-size="10.00">include/nmbuflowtorch</text>
<text text-anchor="middle" x="1744" y="-74.5" font-family="Helvetica,sans-Serif" font-size="10.00">/layer/dense.hpp</text>
</a>
</g>
</g>
<!-- Node2&#45;&gt;Node5 -->
<g id="edge4" class="edge">
<title>Node2&#45;&gt;Node5</title>
<path fill="none" stroke="midnightblue" d="M1317.36,-138.85C1415.55,-126.11 1586.83,-103.89 1679.7,-91.84"/>
<polygon fill="midnightblue" stroke="midnightblue" points="1316.68,-135.41 1307.22,-140.17 1317.58,-142.35 1316.68,-135.41"/>
</g>
<!-- Node2&#45;&gt;Node6 -->
<g id="edge26" class="edge">
<title>Node2&#45;&gt;Node6</title>
<path fill="none" stroke="midnightblue" d="M1168.44,-147.01C1086.79,-143.61 963.5,-132.71 934,-98 925.08,-87.5 925.58,-77.91 934,-67 936.46,-63.81 1037.23,-38.6 1092.15,-25.05"/>
<polygon fill="midnightblue" stroke="midnightblue" points="1168.55,-150.52 1178.67,-147.4 1168.82,-143.52 1168.55,-150.52"/>
</g>
<!-- Node2&#45;&gt;Node7 -->
<g id="edge27" class="edge">
<title>Node2&#45;&gt;Node7</title>
<path fill="none" stroke="midnightblue" d="M1317.41,-145.55C1531.26,-136.93 2133.29,-111.51 2149,-98 2170.37,-79.62 2169.05,-41.95 2167.2,-25.05"/>
<polygon fill="midnightblue" stroke="midnightblue" points="1317.08,-142.06 1307.22,-145.96 1317.36,-149.06 1317.08,-142.06"/>
</g>
<!-- Node2&#45;&gt;Node8 -->
<g id="edge28" class="edge">
<title>Node2&#45;&gt;Node8</title>
<path fill="none" stroke="midnightblue" d="M1214.35,-128.08C1194.09,-111.14 1173.12,-86.73 1189,-67 1194.83,-59.76 1308.2,-37.45 1373.91,-25.05"/>
<polygon fill="midnightblue" stroke="midnightblue" points="1212.29,-130.91 1222.3,-134.4 1216.65,-125.44 1212.29,-130.91"/>
</g>
<!-- Node2&#45;&gt;Node9 -->
<g id="edge29" class="edge">
<title>Node2&#45;&gt;Node9</title>
<path fill="none" stroke="midnightblue" d="M1279.97,-129.54C1297.01,-120.47 1317.32,-109.16 1335,-98 1354.92,-85.42 1356.61,-76.88 1378,-67 1406.67,-53.76 1489.38,-35.6 1540.85,-25.05"/>
<polygon fill="midnightblue" stroke="midnightblue" points="1278.09,-126.57 1270.88,-134.34 1281.36,-132.77 1278.09,-126.57"/>
</g>
<!-- Node11 -->
<g id="node11" class="node">
<title>Node11</title>
<g id="a_node11"><a xlink:href="relu_8hpp.html" target="_top" xlink:title=" ">
<polygon fill="none" stroke="black" points="754,-67.5 754,-97.5 882,-97.5 882,-67.5 754,-67.5"/>
<text text-anchor="start" x="762" y="-85.5" font-family="Helvetica,sans-Serif" font-size="10.00">include/nmbuflowtorch</text>
<text text-anchor="middle" x="818" y="-74.5" font-family="Helvetica,sans-Serif" font-size="10.00">/layer/relu.hpp</text>
</a>
</g>
</g>
<!-- Node2&#45;&gt;Node11 -->
<g id="edge10" class="edge">
<title>Node2&#45;&gt;Node11</title>
<path fill="none" stroke="midnightblue" d="M1168.83,-138.57C1098.49,-128.94 989.88,-113.55 896,-98 891.52,-97.26 886.89,-96.46 882.24,-95.65"/>
<polygon fill="midnightblue" stroke="midnightblue" points="1168.55,-142.06 1178.93,-139.94 1169.49,-135.12 1168.55,-142.06"/>
</g>
<!-- Node13 -->
<g id="node13" class="node">
<title>Node13</title>
<g id="a_node13"><a xlink:href="sigmoid_8hpp.html" target="_top" xlink:title=" ">
<polygon fill="none" stroke="black" points="1198,-67.5 1198,-97.5 1326,-97.5 1326,-67.5 1198,-67.5"/>
<text text-anchor="start" x="1206" y="-85.5" font-family="Helvetica,sans-Serif" font-size="10.00">include/nmbuflowtorch</text>
<text text-anchor="middle" x="1262" y="-74.5" font-family="Helvetica,sans-Serif" font-size="10.00">/layer/sigmoid.hpp</text>
</a>
</g>
</g>
<!-- Node2&#45;&gt;Node13 -->
<g id="edge12" class="edge">
<title>Node2&#45;&gt;Node13</title>
<path fill="none" stroke="midnightblue" d="M1249.96,-124.7C1252.62,-115.59 1255.57,-105.49 1257.89,-97.58"/>
<polygon fill="midnightblue" stroke="midnightblue" points="1246.57,-123.82 1247.12,-134.4 1253.29,-125.78 1246.57,-123.82"/>
</g>
<!-- Node15 -->
<g id="node15" class="node">
<title>Node15</title>
<g id="a_node15"><a xlink:href="softmax_8hpp.html" target="_top" xlink:title=" ">
<polygon fill="none" stroke="black" points="570,-67.5 570,-97.5 698,-97.5 698,-67.5 570,-67.5"/>
<text text-anchor="start" x="578" y="-85.5" font-family="Helvetica,sans-Serif" font-size="10.00">include/nmbuflowtorch</text>
<text text-anchor="middle" x="634" y="-74.5" font-family="Helvetica,sans-Serif" font-size="10.00">/layer/softmax.hpp</text>
</a>
</g>
</g>
<!-- Node2&#45;&gt;Node15 -->
<g id="edge18" class="edge">
<title>Node2&#45;&gt;Node15</title>
<path fill="none" stroke="midnightblue" d="M1168.83,-141.65C1071.47,-132.51 895.28,-115.43 745,-98 729.85,-96.24 713.55,-94.2 698.23,-92.21"/>
<polygon fill="midnightblue" stroke="midnightblue" points="1168.58,-145.14 1178.87,-142.59 1169.24,-138.17 1168.58,-145.14"/>
</g>
<!-- Node2&#45;&gt;Node17 -->
<g id="edge20" class="edge">
<title>Node2&#45;&gt;Node17</title>
<path fill="none" stroke="midnightblue" d="M1304.73,-131.85C1344.03,-121.25 1394.36,-107.68 1431.68,-97.61"/>
<polygon fill="midnightblue" stroke="midnightblue" points="1303.74,-128.49 1295,-134.48 1305.56,-135.25 1303.74,-128.49"/>
</g>
<!-- Node4 -->
<g id="node4" class="node">
<title>Node4</title>
<g id="a_node4"><a xlink:href="conv_8cpp.html" target="_top" xlink:title=" ">
<polygon fill="none" stroke="black" points="383,-0.5 383,-30.5 517,-30.5 517,-0.5 383,-0.5"/>
<text text-anchor="start" x="391" y="-18.5" font-family="Helvetica,sans-Serif" font-size="10.00">src/nmbuflowtorch/layer</text>
<text text-anchor="middle" x="450" y="-7.5" font-family="Helvetica,sans-Serif" font-size="10.00">/conv.cpp</text>
</a>
</g>
</g>
<!-- Node3&#45;&gt;Node4 -->
<g id="edge3" class="edge">
<title>Node3&#45;&gt;Node4</title>
<path fill="none" stroke="midnightblue" d="M450,-57.11C450,-48.15 450,-38.32 450,-30.58"/>
<polygon fill="midnightblue" stroke="midnightblue" points="446.5,-57.4 450,-67.4 453.5,-57.4 446.5,-57.4"/>
</g>
<!-- Node5&#45;&gt;Node6 -->
<g id="edge5" class="edge">
<title>Node5&#45;&gt;Node6</title>
<path fill="none" stroke="midnightblue" d="M1669.64,-75.34C1529.09,-63.62 1234.34,-38.57 1188,-31 1178.55,-29.46 1168.38,-27.26 1159.12,-25.04"/>
<polygon fill="midnightblue" stroke="midnightblue" points="1669.64,-78.85 1679.89,-76.2 1670.22,-71.88 1669.64,-78.85"/>
</g>
<!-- Node5&#45;&gt;Node7 -->
<g id="edge6" class="edge">
<title>Node5&#45;&gt;Node7</title>
<path fill="none" stroke="midnightblue" d="M1818.26,-66.89C1951.88,-46.46 1989.34,-57.91 2118,-31 2125.5,-29.43 2133.51,-27.23 2140.8,-25.01"/>
<polygon fill="midnightblue" stroke="midnightblue" points="1817.38,-63.49 1808.04,-68.49 1818.46,-70.4 1817.38,-63.49"/>
</g>
<!-- Node5&#45;&gt;Node8 -->
<g id="edge7" class="edge">
<title>Node5&#45;&gt;Node8</title>
<path fill="none" stroke="midnightblue" d="M1669.94,-66.64C1605.84,-53.78 1515.39,-35.64 1462.7,-25.07"/>
<polygon fill="midnightblue" stroke="midnightblue" points="1669.49,-70.12 1679.99,-68.66 1670.87,-63.26 1669.49,-70.12"/>
</g>
<!-- Node5&#45;&gt;Node9 -->
<g id="edge8" class="edge">
<title>Node5&#45;&gt;Node9</title>
<path fill="none" stroke="midnightblue" d="M1699.99,-63.62C1669.02,-51.04 1628.96,-34.77 1604.94,-25.01"/>
<polygon fill="midnightblue" stroke="midnightblue" points="1698.7,-66.87 1709.28,-67.4 1701.34,-60.39 1698.7,-66.87"/>
</g>
<!-- Node10 -->
<g id="node10" class="node">
<title>Node10</title>
<g id="a_node10"><a xlink:href="dense_8cpp.html" target="_top" xlink:title=" ">
<polygon fill="none" stroke="black" points="1677,-0.5 1677,-30.5 1811,-30.5 1811,-0.5 1677,-0.5"/>
<text text-anchor="start" x="1685" y="-18.5" font-family="Helvetica,sans-Serif" font-size="10.00">src/nmbuflowtorch/layer</text>
<text text-anchor="middle" x="1744" y="-7.5" font-family="Helvetica,sans-Serif" font-size="10.00">/dense.cpp</text>
</a>
</g>
</g>
<!-- Node5&#45;&gt;Node10 -->
<g id="edge9" class="edge">
<title>Node5&#45;&gt;Node10</title>
<path fill="none" stroke="midnightblue" d="M1744,-57.11C1744,-48.15 1744,-38.32 1744,-30.58"/>
<polygon fill="midnightblue" stroke="midnightblue" points="1740.5,-57.4 1744,-67.4 1747.5,-57.4 1740.5,-57.4"/>
</g>
<!-- Node12 -->
<g id="node12" class="node">
<title>Node12</title>
<g id="a_node12"><a xlink:href="relu_8cpp.html" target="_top" xlink:title=" ">
<polygon fill="none" stroke="black" points="749,-0.5 749,-30.5 883,-30.5 883,-0.5 749,-0.5"/>
<text text-anchor="start" x="757" y="-18.5" font-family="Helvetica,sans-Serif" font-size="10.00">src/nmbuflowtorch/layer</text>
<text text-anchor="middle" x="816" y="-7.5" font-family="Helvetica,sans-Serif" font-size="10.00">/relu.cpp</text>
</a>
</g>
</g>
<!-- Node11&#45;&gt;Node12 -->
<g id="edge11" class="edge">
<title>Node11&#45;&gt;Node12</title>
<path fill="none" stroke="midnightblue" d="M817.25,-57.11C816.97,-48.15 816.67,-38.32 816.43,-30.58"/>
<polygon fill="midnightblue" stroke="midnightblue" points="813.76,-57.51 817.57,-67.4 820.76,-57.29 813.76,-57.51"/>
</g>
<!-- Node13&#45;&gt;Node6 -->
<g id="edge13" class="edge">
<title>Node13&#45;&gt;Node6</title>
<path fill="none" stroke="midnightblue" d="M1223.51,-62.97C1197.58,-50.48 1164.59,-34.6 1144.67,-25.01"/>
<polygon fill="midnightblue" stroke="midnightblue" points="1222.18,-66.21 1232.71,-67.4 1225.22,-59.9 1222.18,-66.21"/>
</g>
<!-- Node13&#45;&gt;Node7 -->
<g id="edge14" class="edge">
<title>Node13&#45;&gt;Node7</title>
<path fill="none" stroke="midnightblue" d="M1336.17,-73.6C1360.04,-71.24 1386.62,-68.81 1411,-67 1724.77,-43.76 1808.02,-84.89 2118,-31 2125.89,-29.63 2134.31,-27.37 2141.86,-25.04"/>
<polygon fill="midnightblue" stroke="midnightblue" points="1335.72,-70.13 1326.12,-74.61 1336.42,-77.09 1335.72,-70.13"/>
</g>
<!-- Node13&#45;&gt;Node8 -->
<g id="edge15" class="edge">
<title>Node13&#45;&gt;Node8</title>
<path fill="none" stroke="midnightblue" d="M1305.85,-63.46C1336.38,-50.9 1375.7,-34.72 1399.32,-25.01"/>
<polygon fill="midnightblue" stroke="midnightblue" points="1304.2,-60.35 1296.28,-67.4 1306.86,-66.83 1304.2,-60.35"/>
</g>
<!-- Node13&#45;&gt;Node9 -->
<g id="edge16" class="edge">
<title>Node13&#45;&gt;Node9</title>
<path fill="none" stroke="midnightblue" d="M1336,-66.56C1399.72,-53.7 1489.43,-35.59 1541.67,-25.05"/>
<polygon fill="midnightblue" stroke="midnightblue" points="1335.11,-63.17 1326,-68.58 1336.5,-70.03 1335.11,-63.17"/>
</g>
<!-- Node14 -->
<g id="node14" class="node">
<title>Node14</title>
<g id="a_node14"><a xlink:href="sigmoid_8cpp.html" target="_top" xlink:title=" ">
<polygon fill="none" stroke="black" points="1197,-0.5 1197,-30.5 1331,-30.5 1331,-0.5 1197,-0.5"/>
<text text-anchor="start" x="1205" y="-18.5" font-family="Helvetica,sans-Serif" font-size="10.00">src/nmbuflowtorch/layer</text>
<text text-anchor="middle" x="1264" y="-7.5" font-family="Helvetica,sans-Serif" font-size="10.00">/sigmoid.cpp</text>
</a>
</g>
</g>
<!-- Node13&#45;&gt;Node14 -->
<g id="edge17" class="edge">
<title>Node13&#45;&gt;Node14</title>
<path fill="none" stroke="midnightblue" d="M1262.75,-57.11C1263.03,-48.15 1263.33,-38.32 1263.57,-30.58"/>
<polygon fill="midnightblue" stroke="midnightblue" points="1259.24,-57.29 1262.43,-67.4 1266.24,-57.51 1259.24,-57.29"/>
</g>
<!-- Node16 -->
<g id="node16" class="node">
<title>Node16</title>
<g id="a_node16"><a xlink:href="softmax_8cpp.html" target="_top" xlink:title=" ">
<polygon fill="none" stroke="black" points="567,-0.5 567,-30.5 701,-30.5 701,-0.5 567,-0.5"/>
<text text-anchor="start" x="575" y="-18.5" font-family="Helvetica,sans-Serif" font-size="10.00">src/nmbuflowtorch/layer</text>
<text text-anchor="middle" x="634" y="-7.5" font-family="Helvetica,sans-Serif" font-size="10.00">/softmax.cpp</text>
</a>
</g>
</g>
<!-- Node15&#45;&gt;Node16 -->
<g id="edge19" class="edge">
<title>Node15&#45;&gt;Node16</title>
<path fill="none" stroke="midnightblue" d="M634,-57.11C634,-48.15 634,-38.32 634,-30.58"/>
<polygon fill="midnightblue" stroke="midnightblue" points="630.5,-57.4 634,-67.4 637.5,-57.4 630.5,-57.4"/>
</g>
<!-- Node17&#45;&gt;Node6 -->
<g id="edge21" class="edge">
<title>Node17&#45;&gt;Node6</title>
<path fill="none" stroke="midnightblue" d="M1409.83,-70.2C1349.81,-60.74 1263.21,-46.34 1188,-31 1179.25,-29.22 1169.85,-27.09 1161.11,-25.02"/>
<polygon fill="midnightblue" stroke="midnightblue" points="1409.55,-73.7 1419.98,-71.8 1410.64,-66.79 1409.55,-73.7"/>
</g>
<!-- Node17&#45;&gt;Node7 -->
<g id="edge22" class="edge">
<title>Node17&#45;&gt;Node7</title>
<path fill="none" stroke="midnightblue" d="M1558.17,-75.69C1724.07,-62.7 2111.18,-32.29 2118,-31 2125.7,-29.55 2133.92,-27.32 2141.34,-25.05"/>
<polygon fill="midnightblue" stroke="midnightblue" points="1557.75,-72.22 1548.05,-76.49 1558.29,-79.2 1557.75,-72.22"/>
</g>
<!-- Node17&#45;&gt;Node8 -->
<g id="edge23" class="edge">
<title>Node17&#45;&gt;Node8</title>
<path fill="none" stroke="midnightblue" d="M1462.83,-60C1451.15,-48.13 1437.28,-34.05 1428.56,-25.19"/>
<polygon fill="midnightblue" stroke="midnightblue" points="1460.6,-62.73 1470.11,-67.4 1465.59,-57.81 1460.6,-62.73"/>
</g>
<!-- Node17&#45;&gt;Node9 -->
<g id="edge24" class="edge">
<title>Node17&#45;&gt;Node9</title>
<path fill="none" stroke="midnightblue" d="M1514.3,-61.81C1533.21,-49.51 1556.61,-34.3 1570.91,-25.01"/>
<polygon fill="midnightblue" stroke="midnightblue" points="1512.18,-59.01 1505.7,-67.4 1515.99,-64.88 1512.18,-59.01"/>
</g>
<!-- Node17&#45;&gt;Node18 -->
<g id="edge25" class="edge">
<title>Node17&#45;&gt;Node18</title>
<path fill="none" stroke="midnightblue" d="M1558.43,-75.53C1592.71,-72.84 1633.91,-69.66 1671,-67 1912.68,-49.63 1973.94,-55.59 2215,-31 2230.84,-29.38 2247.96,-27.21 2263.69,-25.03"/>
<polygon fill="midnightblue" stroke="midnightblue" points="1557.73,-72.08 1548.03,-76.36 1558.28,-79.06 1557.73,-72.08"/>
</g>
<!-- Node19&#45;&gt;Node6 -->
<g id="edge44" class="edge">
<title>Node19&#45;&gt;Node6</title>
<path fill="none" stroke="midnightblue" d="M1704.72,-146.61C1508.94,-141.26 992.06,-124.67 967,-98 957.56,-87.96 958.85,-78.11 967,-67 974.6,-56.63 1047.77,-36.56 1092.49,-25.09"/>
<polygon fill="midnightblue" stroke="midnightblue" points="1704.82,-150.11 1714.92,-146.88 1705.01,-143.11 1704.82,-150.11"/>
</g>
<!-- Node19&#45;&gt;Node7 -->
<g id="edge45" class="edge">
<title>Node19&#45;&gt;Node7</title>
<path fill="none" stroke="midnightblue" d="M1853.35,-144.43C1963.82,-137.61 2160.65,-122.19 2182,-98 2200.32,-77.24 2182.16,-41.78 2171.93,-25.34"/>
<polygon fill="midnightblue" stroke="midnightblue" points="1853.03,-140.94 1843.26,-145.04 1853.46,-147.93 1853.03,-140.94"/>
</g>
<!-- Node19&#45;&gt;Node8 -->
<g id="edge46" class="edge">
<title>Node19&#45;&gt;Node8</title>
<path fill="none" stroke="midnightblue" d="M1729.47,-131.06C1702.39,-121.44 1668.29,-109.22 1638,-98 1601.85,-84.61 1593.08,-80.56 1557,-67 1517.37,-52.11 1471.14,-35.16 1443.79,-25.17"/>
<polygon fill="midnightblue" stroke="midnightblue" points="1728.51,-134.43 1739.11,-134.47 1730.85,-127.83 1728.51,-134.43"/>
</g>
<!-- Node19&#45;&gt;Node9 -->
<g id="edge47" class="edge">
<title>Node19&#45;&gt;Node9</title>
<path fill="none" stroke="midnightblue" d="M1853.1,-140.33C1919.12,-130.17 2000.01,-108.8 1963,-67 1919.22,-17.55 1733.34,-40.62 1668,-31 1655.99,-29.23 1643.06,-27.11 1631.03,-25.04"/>
<polygon fill="midnightblue" stroke="midnightblue" points="1852.46,-136.89 1843.07,-141.81 1853.48,-143.81 1852.46,-136.89"/>
</g>
<!-- Node19&#45;&gt;Node17 -->
<g id="edge43" class="edge">
<title>Node19&#45;&gt;Node17</title>
<path fill="none" stroke="midnightblue" d="M1705.55,-132.32C1657.06,-121.63 1594.17,-107.77 1547.79,-97.55"/>
<polygon fill="midnightblue" stroke="midnightblue" points="1704.83,-135.74 1715.35,-134.48 1706.34,-128.91 1704.83,-135.74"/>
</g>
<!-- Node20 -->
<g id="node20" class="node">
<title>Node20</title>
<g id="a_node20"><a xlink:href="cross__entropy_8hpp.html" target="_top" xlink:title=" ">
<polygon fill="none" stroke="black" points="2010,-67.5 2010,-97.5 2140,-97.5 2140,-67.5 2010,-67.5"/>
<text text-anchor="start" x="2018" y="-85.5" font-family="Helvetica,sans-Serif" font-size="10.00">include/nmbuflowtorch</text>
<text text-anchor="middle" x="2075" y="-74.5" font-family="Helvetica,sans-Serif" font-size="10.00">/loss/cross_entropy.hpp</text>
</a>
</g>
</g>
<!-- Node19&#45;&gt;Node20 -->
<g id="edge31" class="edge">
<title>Node19&#45;&gt;Node20</title>
<path fill="none" stroke="midnightblue" d="M1852.7,-132.32C1901.35,-121.63 1964.46,-107.77 2011,-97.55"/>
<polygon fill="midnightblue" stroke="midnightblue" points="1851.88,-128.91 1842.86,-134.48 1853.38,-135.75 1851.88,-128.91"/>
</g>
<!-- Node22 -->
<g id="node22" class="node">
<title>Node22</title>
<g id="a_node22"><a xlink:href="mse_8hpp.html" target="_top" xlink:title=" ">
<polygon fill="none" stroke="black" points="1826,-67.5 1826,-97.5 1954,-97.5 1954,-67.5 1826,-67.5"/>
<text text-anchor="start" x="1834" y="-85.5" font-family="Helvetica,sans-Serif" font-size="10.00">include/nmbuflowtorch</text>
<text text-anchor="middle" x="1890" y="-74.5" font-family="Helvetica,sans-Serif" font-size="10.00">/loss/mse.hpp</text>
</a>
</g>
</g>
<!-- Node19&#45;&gt;Node22 -->
<g id="edge37" class="edge">
<title>Node19&#45;&gt;Node22</title>
<path fill="none" stroke="midnightblue" d="M1811.8,-129.3C1829.16,-119.12 1850.12,-106.85 1865.96,-97.58"/>
<polygon fill="midnightblue" stroke="midnightblue" points="1809.95,-126.32 1803.09,-134.4 1813.48,-132.36 1809.95,-126.32"/>
</g>
<!-- Node20&#45;&gt;Node6 -->
<g id="edge32" class="edge">
<title>Node20&#45;&gt;Node6</title>
<path fill="none" stroke="midnightblue" d="M1999.75,-70.89C1987.48,-69.41 1974.9,-68.05 1963,-67 1619.51,-36.84 1529.45,-79.08 1188,-31 1178.08,-29.6 1167.42,-27.34 1157.82,-25.01"/>
<polygon fill="midnightblue" stroke="midnightblue" points="1999.6,-74.4 2009.95,-72.16 2000.46,-67.46 1999.6,-74.4"/>
</g>
<!-- Node20&#45;&gt;Node7 -->
<g id="edge33" class="edge">
<title>Node20&#45;&gt;Node7</title>
<path fill="none" stroke="midnightblue" d="M2103.27,-61.31C2120.36,-49.1 2141.25,-34.18 2154.09,-25.01"/>
<polygon fill="midnightblue" stroke="midnightblue" points="2100.85,-58.74 2094.75,-67.4 2104.92,-64.43 2100.85,-58.74"/>
</g>
<!-- Node20&#45;&gt;Node8 -->
<g id="edge34" class="edge">
<title>Node20&#45;&gt;Node8</title>
<path fill="none" stroke="midnightblue" d="M1999.72,-71.22C1987.46,-69.7 1974.88,-68.23 1963,-67 1757.7,-45.74 1704.7,-57.44 1500,-31 1487.82,-29.43 1474.68,-27.25 1462.64,-25.06"/>
<polygon fill="midnightblue" stroke="midnightblue" points="1999.56,-74.72 2009.92,-72.5 2000.44,-67.78 1999.56,-74.72"/>
</g>
<!-- Node20&#45;&gt;Node9 -->
<g id="edge35" class="edge">
<title>Node20&#45;&gt;Node9</title>
<path fill="none" stroke="midnightblue" d="M1999.87,-67.58C1998.57,-67.38 1997.28,-67.19 1996,-67 1850.89,-45.75 1813.22,-51.48 1668,-31 1655.84,-29.28 1642.73,-27.16 1630.57,-25.07"/>
<polygon fill="midnightblue" stroke="midnightblue" points="1999.54,-71.07 2009.96,-69.18 2000.64,-64.16 1999.54,-71.07"/>
</g>
<!-- Node21 -->
<g id="node21" class="node">
<title>Node21</title>
<g id="a_node21"><a xlink:href="cross__entropy_8cpp.html" target="_top" xlink:title=" ">
<polygon fill="none" stroke="black" points="1979.5,-0.5 1979.5,-30.5 2108.5,-30.5 2108.5,-0.5 1979.5,-0.5"/>
<text text-anchor="start" x="1987.5" y="-18.5" font-family="Helvetica,sans-Serif" font-size="10.00">src/nmbuflowtorch/loss</text>
<text text-anchor="middle" x="2044" y="-7.5" font-family="Helvetica,sans-Serif" font-size="10.00">/cross_entropy.cpp</text>
</a>
</g>
</g>
<!-- Node20&#45;&gt;Node21 -->
<g id="edge36" class="edge">
<title>Node20&#45;&gt;Node21</title>
<path fill="none" stroke="midnightblue" d="M2063.93,-58.28C2059.51,-49.02 2054.57,-38.66 2050.71,-30.58"/>
<polygon fill="midnightblue" stroke="midnightblue" points="2060.81,-59.88 2068.27,-67.4 2067.13,-56.86 2060.81,-59.88"/>
</g>
<!-- Node22&#45;&gt;Node6 -->
<g id="edge38" class="edge">
<title>Node22&#45;&gt;Node6</title>
<path fill="none" stroke="midnightblue" d="M1815.99,-67.01C1537.46,-32.56 1461.82,-71.06 1188,-31 1178.2,-29.57 1167.66,-27.32 1158.14,-25.02"/>
<polygon fill="midnightblue" stroke="midnightblue" points="1815.63,-70.49 1825.99,-68.26 1816.5,-63.54 1815.63,-70.49"/>
</g>
<!-- Node22&#45;&gt;Node7 -->
<g id="edge39" class="edge">
<title>Node22&#45;&gt;Node7</title>
<path fill="none" stroke="midnightblue" d="M1964.11,-66.56C2008.87,-57.17 2066.95,-44.34 2118,-31 2124.82,-29.22 2132.13,-27.11 2138.94,-25.06"/>
<polygon fill="midnightblue" stroke="midnightblue" points="1963.26,-63.16 1954.19,-68.63 1964.69,-70.02 1963.26,-63.16"/>
</g>
<!-- Node22&#45;&gt;Node8 -->
<g id="edge40" class="edge">
<title>Node22&#45;&gt;Node8</title>
<path fill="none" stroke="midnightblue" d="M1815.66,-66.88C1675.12,-45.46 1636.99,-51.17 1500,-31 1488.27,-29.27 1475.62,-27.12 1463.93,-25"/>
<polygon fill="midnightblue" stroke="midnightblue" points="1815.54,-70.4 1825.96,-68.47 1816.61,-63.48 1815.54,-70.4"/>
</g>
<!-- Node22&#45;&gt;Node9 -->
<g id="edge41" class="edge">
<title>Node22&#45;&gt;Node9</title>
<path fill="none" stroke="midnightblue" d="M1816,-65.78C1755.71,-52.97 1672.86,-35.38 1624.22,-25.04"/>
<polygon fill="midnightblue" stroke="midnightblue" points="1815.34,-69.22 1825.85,-67.87 1816.8,-62.37 1815.34,-69.22"/>
</g>
<!-- Node23 -->
<g id="node23" class="node">
<title>Node23</title>
<g id="a_node23"><a xlink:href="mse_8cpp.html" target="_top" xlink:title=" ">
<polygon fill="none" stroke="black" points="1829.5,-0.5 1829.5,-30.5 1958.5,-30.5 1958.5,-0.5 1829.5,-0.5"/>
<text text-anchor="start" x="1837.5" y="-18.5" font-family="Helvetica,sans-Serif" font-size="10.00">src/nmbuflowtorch/loss</text>
<text text-anchor="middle" x="1894" y="-7.5" font-family="Helvetica,sans-Serif" font-size="10.00">/mse.cpp</text>
</a>
</g>
</g>
<!-- Node22&#45;&gt;Node23 -->
<g id="edge42" class="edge">
<title>Node22&#45;&gt;Node23</title>
<path fill="none" stroke="midnightblue" d="M1891.48,-57.4C1892.04,-48.37 1892.65,-38.41 1893.13,-30.58"/>
<polygon fill="midnightblue" stroke="midnightblue" points="1887.99,-57.2 1890.87,-67.4 1894.98,-57.63 1887.99,-57.2"/>
</g>
<!-- Node24&#45;&gt;Node5 -->
<g id="edge49" class="edge">
<title>Node24&#45;&gt;Node5</title>
<path fill="none" stroke="midnightblue" d="M1991.87,-133.54C1936.33,-122.33 1861.12,-107.14 1808.16,-96.45"/>
<polygon fill="midnightblue" stroke="midnightblue" points="1991.5,-137.03 2002,-135.58 1992.89,-130.17 1991.5,-137.03"/>
</g>
<!-- Node24&#45;&gt;Node7 -->
<g id="edge50" class="edge">
<title>Node24&#45;&gt;Node7</title>
<path fill="none" stroke="midnightblue" d="M2140.38,-138.4C2187.94,-130.25 2243.36,-116.99 2258,-98 2266.41,-87.09 2265.02,-78.86 2258,-67 2245.19,-45.36 2219.46,-32.38 2198.46,-25"/>
<polygon fill="midnightblue" stroke="midnightblue" points="2139.66,-134.97 2130.37,-140.07 2140.81,-141.88 2139.66,-134.97"/>
</g>
<!-- Node24&#45;&gt;Node8 -->
<g id="edge51" class="edge">
<title>Node24&#45;&gt;Node8</title>
<path fill="none" stroke="midnightblue" d="M1991.84,-142.13C1894.49,-133.23 1729.17,-116.12 1671,-98 1642.34,-89.07 1639.01,-77.79 1611,-67 1561.55,-47.95 1502.22,-33.5 1462.95,-25.04"/>
<polygon fill="midnightblue" stroke="midnightblue" points="1991.63,-145.62 2001.91,-143.04 1992.27,-138.65 1991.63,-145.62"/>
</g>
<!-- Node24&#45;&gt;Node9 -->
<g id="edge52" class="edge">
<title>Node24&#45;&gt;Node9</title>
<path fill="none" stroke="midnightblue" d="M2107.24,-129.72C2137.38,-113.51 2169.67,-89.27 2149,-67 2112.55,-27.71 1721.19,-37.57 1668,-31 1655.22,-29.42 1641.43,-27.24 1628.78,-25.05"/>
<polygon fill="midnightblue" stroke="midnightblue" points="2105.3,-126.78 2098.02,-134.48 2108.51,-133 2105.3,-126.78"/>
</g>
<!-- Node24&#45;&gt;Node18 -->
<g id="edge53" class="edge">
<title>Node24&#45;&gt;Node18</title>
<path fill="none" stroke="midnightblue" d="M2140.41,-144.91C2183.13,-139.54 2235.72,-126.95 2274,-98 2299.14,-78.99 2312.59,-41.99 2317.64,-25.18"/>
<polygon fill="midnightblue" stroke="midnightblue" points="2139.87,-141.45 2130.34,-146.07 2140.67,-148.41 2139.87,-141.45"/>
</g>
<!-- Node25&#45;&gt;Node2 -->
<g id="edge56" class="edge">
<title>Node25&#45;&gt;Node2</title>
<path fill="none" stroke="midnightblue" d="M1189.74,-194.88C1201.59,-185.01 1215.48,-173.43 1226.11,-164.58"/>
<polygon fill="midnightblue" stroke="midnightblue" points="1187.37,-192.31 1181.92,-201.4 1191.85,-197.68 1187.37,-192.31"/>
</g>
<!-- Node25&#45;&gt;Node6 -->
<g id="edge68" class="edge">
<title>Node25&#45;&gt;Node6</title>
<path fill="none" stroke="midnightblue" d="M1091,-205.57C982.02,-189.25 786.71,-152.99 745,-98 682.17,-15.18 632.21,-106.59 1066,-31 1075.22,-29.39 1085.13,-27.23 1094.23,-25.06"/>
<polygon fill="midnightblue" stroke="midnightblue" points="1090.54,-209.04 1100.95,-207.04 1091.57,-202.11 1090.54,-209.04"/>
</g>
<!-- Node25&#45;&gt;Node7 -->
<g id="edge69" class="edge">
<title>Node25&#45;&gt;Node7</title>
<path fill="none" stroke="midnightblue" d="M1239.28,-215.54C1436.41,-215.03 1969.33,-209.45 2139,-165 2203.8,-148.02 2238.7,-154.93 2274,-98 2281.26,-86.29 2281.4,-78.62 2274,-67 2264.64,-52.29 2220.81,-35.06 2191.95,-25.01"/>
<polygon fill="midnightblue" stroke="midnightblue" points="1239.01,-212.04 1229.02,-215.56 1239.03,-219.04 1239.01,-212.04"/>
</g>
<!-- Node25&#45;&gt;Node8 -->
<g id="edge70" class="edge">
<title>Node25&#45;&gt;Node8</title>
<path fill="none" stroke="midnightblue" d="M1159.26,-191.39C1153.05,-158.7 1147.8,-100.57 1179,-67 1182.38,-63.36 1307.73,-38.42 1376.28,-25"/>
<polygon fill="midnightblue" stroke="midnightblue" points="1155.89,-192.35 1161.35,-201.43 1162.74,-190.92 1155.89,-192.35"/>
</g>
<!-- Node25&#45;&gt;Node9 -->
<g id="edge71" class="edge">
<title>Node25&#45;&gt;Node9</title>
<path fill="none" stroke="midnightblue" d="M1238.66,-198.55C1264.34,-190.7 1292.56,-179.76 1316,-165 1367.34,-132.68 1359.05,-98.32 1411,-67 1447.17,-45.19 1493.31,-32.34 1528.83,-25.07"/>
<polygon fill="midnightblue" stroke="midnightblue" points="1237.57,-195.22 1228.97,-201.41 1239.55,-201.94 1237.57,-195.22"/>
</g>
<!-- Node25&#45;&gt;Node17 -->
<g id="edge57" class="edge">
<title>Node25&#45;&gt;Node17</title>
<path fill="none" stroke="midnightblue" d="M1239.3,-211.38C1289.1,-205.95 1354.69,-193.49 1406,-165 1435.96,-148.36 1461.41,-116.38 1474.51,-97.82"/>
<polygon fill="midnightblue" stroke="midnightblue" points="1238.84,-207.9 1229.25,-212.4 1239.55,-214.87 1238.84,-207.9"/>
</g>
<!-- Node26 -->
<g id="node26" class="node">
<title>Node26</title>
<g id="a_node26"><a xlink:href="adam_8hpp.html" target="_top" xlink:title=" ">
<polygon fill="none" stroke="black" points="570,-134.5 570,-164.5 698,-164.5 698,-134.5 570,-134.5"/>
<text text-anchor="start" x="578" y="-152.5" font-family="Helvetica,sans-Serif" font-size="10.00">include/nmbuflowtorch</text>
<text text-anchor="middle" x="634" y="-141.5" font-family="Helvetica,sans-Serif" font-size="10.00">/optimizer/adam.hpp</text>
</a>
</g>
</g>
<!-- Node25&#45;&gt;Node26 -->
<g id="edge58" class="edge">
<title>Node25&#45;&gt;Node26</title>
<path fill="none" stroke="midnightblue" d="M1090.57,-208.88C1000.63,-200.49 844.84,-184.72 712,-165 707.5,-164.33 702.87,-163.6 698.21,-162.82"/>
<polygon fill="midnightblue" stroke="midnightblue" points="1090.39,-212.38 1100.67,-209.81 1091.04,-205.41 1090.39,-212.38"/>
</g>
<!-- Node28 -->
<g id="node28" class="node">
<title>Node28</title>
<g id="a_node28"><a xlink:href="nadam_8hpp.html" target="_top" xlink:title=" ">
<polygon fill="none" stroke="black" points="21,-134.5 21,-164.5 149,-164.5 149,-134.5 21,-134.5"/>
<text text-anchor="start" x="29" y="-152.5" font-family="Helvetica,sans-Serif" font-size="10.00">include/nmbuflowtorch</text>
<text text-anchor="middle" x="85" y="-141.5" font-family="Helvetica,sans-Serif" font-size="10.00">/optimizer/nadam.hpp</text>
</a>
</g>
</g>
<!-- Node25&#45;&gt;Node28 -->
<g id="edge60" class="edge">
<title>Node25&#45;&gt;Node28</title>
<path fill="none" stroke="midnightblue" d="M1090.51,-211.02C889.42,-198.91 338.03,-165.73 149.33,-154.37"/>
<polygon fill="midnightblue" stroke="midnightblue" points="1090.48,-214.52 1100.68,-211.63 1090.9,-207.53 1090.48,-214.52"/>
</g>
<!-- Node30 -->
<g id="node30" class="node">
<title>Node30</title>
<g id="a_node30"><a xlink:href="sgd_8hpp.html" target="_top" xlink:title=" ">
<polygon fill="none" stroke="black" points="976,-67.5 976,-97.5 1104,-97.5 1104,-67.5 976,-67.5"/>
<text text-anchor="start" x="984" y="-85.5" font-family="Helvetica,sans-Serif" font-size="10.00">include/nmbuflowtorch</text>
<text text-anchor="middle" x="1040" y="-74.5" font-family="Helvetica,sans-Serif" font-size="10.00">/optimizer/sgd.hpp</text>
</a>
</g>
</g>
<!-- Node25&#45;&gt;Node30 -->
<g id="edge62" class="edge">
<title>Node25&#45;&gt;Node30</title>
<path fill="none" stroke="midnightblue" d="M1144.54,-193.9C1118.74,-166.65 1075.11,-120.58 1053.28,-97.52"/>
<polygon fill="midnightblue" stroke="midnightblue" points="1142.21,-196.52 1151.62,-201.37 1147.29,-191.71 1142.21,-196.52"/>
</g>
<!-- Node27 -->
<g id="node27" class="node">
<title>Node27</title>
<g id="a_node27"><a xlink:href="adam_8cpp.html" target="_top" xlink:title=" ">
<polygon fill="none" stroke="black" points="212,-67.5 212,-97.5 368,-97.5 368,-67.5 212,-67.5"/>
<text text-anchor="start" x="220" y="-85.5" font-family="Helvetica,sans-Serif" font-size="10.00">src/nmbuflowtorch/optimizer</text>
<text text-anchor="middle" x="290" y="-74.5" font-family="Helvetica,sans-Serif" font-size="10.00">/adam.cpp</text>
</a>
</g>
</g>
<!-- Node26&#45;&gt;Node27 -->
<g id="edge59" class="edge">
<title>Node26&#45;&gt;Node27</title>
<path fill="none" stroke="midnightblue" d="M559.53,-134.43C501.7,-123.5 421.89,-108.42 364.14,-97.51"/>
<polygon fill="midnightblue" stroke="midnightblue" points="559.22,-137.93 569.7,-136.35 560.52,-131.05 559.22,-137.93"/>
</g>
<!-- Node29 -->
<g id="node29" class="node">
<title>Node29</title>
<g id="a_node29"><a xlink:href="nadam_8cpp.html" target="_top" xlink:title=" ">
<polygon fill="none" stroke="black" points="0,-67.5 0,-97.5 156,-97.5 156,-67.5 0,-67.5"/>
<text text-anchor="start" x="8" y="-85.5" font-family="Helvetica,sans-Serif" font-size="10.00">src/nmbuflowtorch/optimizer</text>
<text text-anchor="middle" x="78" y="-74.5" font-family="Helvetica,sans-Serif" font-size="10.00">/nadam.cpp</text>
</a>
</g>
</g>
<!-- Node28&#45;&gt;Node29 -->
<g id="edge61" class="edge">
<title>Node28&#45;&gt;Node29</title>
<path fill="none" stroke="midnightblue" d="M82.4,-124.4C81.43,-115.37 80.36,-105.41 79.52,-97.58"/>
<polygon fill="midnightblue" stroke="midnightblue" points="78.93,-124.83 83.48,-134.4 85.89,-124.08 78.93,-124.83"/>
</g>
<!-- Node30&#45;&gt;Node6 -->
<g id="edge63" class="edge">
<title>Node30&#45;&gt;Node6</title>
<path fill="none" stroke="midnightblue" d="M1066.98,-61.34C1083.22,-49.21 1103.06,-34.39 1115.36,-25.19"/>
<polygon fill="midnightblue" stroke="midnightblue" points="1064.79,-58.61 1058.88,-67.4 1068.98,-64.21 1064.79,-58.61"/>
</g>
<!-- Node30&#45;&gt;Node7 -->
<g id="edge64" class="edge">
<title>Node30&#45;&gt;Node7</title>
<path fill="none" stroke="midnightblue" d="M1114.16,-73.42C1138.03,-71.06 1164.61,-68.66 1189,-67 1601.25,-38.98 1710.48,-99.3 2118,-31 2125.9,-29.68 2134.32,-27.43 2141.87,-25.1"/>
<polygon fill="midnightblue" stroke="midnightblue" points="1113.7,-69.95 1104.11,-74.44 1114.41,-76.92 1113.7,-69.95"/>
</g>
<!-- Node30&#45;&gt;Node8 -->
<g id="edge65" class="edge">
<title>Node30&#45;&gt;Node8</title>
<path fill="none" stroke="midnightblue" d="M1114.19,-67.67C1115.47,-67.44 1116.74,-67.22 1118,-67 1216.48,-49.86 1241.49,-47.91 1340,-31 1350.99,-29.11 1362.82,-27.01 1373.91,-25"/>
<polygon fill="midnightblue" stroke="midnightblue" points="1113.48,-64.24 1104.25,-69.43 1114.71,-71.13 1113.48,-64.24"/>
</g>
<!-- Node30&#45;&gt;Node9 -->
<g id="edge66" class="edge">
<title>Node30&#45;&gt;Node9</title>
<path fill="none" stroke="midnightblue" d="M1114.38,-73.9C1224.96,-62.5 1427.48,-41.23 1500,-31 1512.16,-29.28 1525.27,-27.16 1537.43,-25.07"/>
<polygon fill="midnightblue" stroke="midnightblue" points="1113.89,-70.43 1104.3,-74.94 1114.6,-77.39 1113.89,-70.43"/>
</g>
<!-- Node31 -->
<g id="node31" class="node">
<title>Node31</title>
<g id="a_node31"><a xlink:href="sgd_8cpp.html" target="_top" xlink:title=" ">
<polygon fill="none" stroke="black" points="901,-0.5 901,-30.5 1057,-30.5 1057,-0.5 901,-0.5"/>
<text text-anchor="start" x="909" y="-18.5" font-family="Helvetica,sans-Serif" font-size="10.00">src/nmbuflowtorch/optimizer</text>
<text text-anchor="middle" x="979" y="-7.5" font-family="Helvetica,sans-Serif" font-size="10.00">/sgd.cpp</text>
</a>
</g>
</g>
<!-- Node30&#45;&gt;Node31 -->
<g id="edge67" class="edge">
<title>Node30&#45;&gt;Node31</title>
<path fill="none" stroke="midnightblue" d="M1019.85,-60.02C1010.76,-50.34 1000.28,-39.17 992.21,-30.58"/>
<polygon fill="midnightblue" stroke="midnightblue" points="1017.37,-62.5 1026.76,-67.4 1022.47,-57.71 1017.37,-62.5"/>
</g>
</g>
</svg>
