<?xml version="1.0" encoding="UTF-8" standalone="no"?>
<!DOCTYPE svg PUBLIC "-//W3C//DTD SVG 1.1//EN"
 "http://www.w3.org/Graphics/SVG/1.1/DTD/svg11.dtd">
<!-- Generated by graphviz version 2.43.0 (0)
 -->
<!-- Title: include/nmbuflowtorch/definitions.hpp Pages: 1 -->
<svg width="1927pt" height="307pt"
 viewBox="0.00 0.00 1927.00 307.00" xmlns="http://www.w3.org/2000/svg" xmlns:xlink="http://www.w3.org/1999/xlink">
<g id="graph0" class="graph" transform="scale(1 1) rotate(0) translate(4 303)">
<title>include/nmbuflowtorch/definitions.hpp</title>
<!-- Node1 -->
<g id="node1" class="node">
<title>Node1</title>
<g id="a_node1"><a xlink:title=" ">
<polygon fill="#bfbfbf" stroke="black" points="979,-268.5 979,-298.5 1107,-298.5 1107,-268.5 979,-268.5"/>
<text text-anchor="start" x="987" y="-286.5" font-family="Helvetica,sans-Serif" font-size="10.00">include/nmbuflowtorch</text>
<text text-anchor="middle" x="1043" y="-275.5" font-family="Helvetica,sans-Serif" font-size="10.00">/definitions.hpp</text>
</a>
</g>
</g>
<!-- Node2 -->
<g id="node2" class="node">
<title>Node2</title>
<g id="a_node2"><a xlink:href="layer_8hpp.html" target="_top" xlink:title=" ">
<polygon fill="none" stroke="black" points="1025,-134.5 1025,-164.5 1153,-164.5 1153,-134.5 1025,-134.5"/>
<text text-anchor="start" x="1033" y="-152.5" font-family="Helvetica,sans-Serif" font-size="10.00">include/nmbuflowtorch</text>
<text text-anchor="middle" x="1089" y="-141.5" font-family="Helvetica,sans-Serif" font-size="10.00">/layer.hpp</text>
</a>
</g>
</g>
<!-- Node1&#45;&gt;Node2 -->
<g id="edge1" class="edge">
<title>Node1&#45;&gt;Node2</title>
<path fill="none" stroke="midnightblue" d="M1051.28,-258.75C1060.85,-231.29 1076.28,-186.99 1084.11,-164.52"/>
<polygon fill="midnightblue" stroke="midnightblue" points="1047.91,-257.78 1047.92,-268.37 1054.52,-260.08 1047.91,-257.78"/>
</g>
<!-- Node4 -->
<g id="node4" class="node">
<title>Node4</title>
<g id="a_node4"><a xlink:href="main_01copy_8cpp.html" target="_top" xlink:title=" ">
<polygon fill="none" stroke="black" points="148,-6 148,-25 252,-25 252,-6 148,-6"/>
<text text-anchor="middle" x="200" y="-13" font-family="Helvetica,sans-Serif" font-size="10.00">src/main copy.cpp</text>
</a>
</g>
</g>
<!-- Node1&#45;&gt;Node4 -->
<g id="edge66" class="edge">
<title>Node1&#45;&gt;Node4</title>
<path fill="none" stroke="midnightblue" d="M968.55,-282.24C766.15,-280.2 211.18,-265.37 64,-165 24.4,-138 -9.98,-105.17 19,-67 23.51,-61.06 114.06,-37.8 165.34,-25.03"/>
<polygon fill="midnightblue" stroke="midnightblue" points="968.75,-285.74 978.78,-282.33 968.82,-278.74 968.75,-285.74"/>
</g>
<!-- Node5 -->
<g id="node5" class="node">
<title>Node5</title>
<g id="a_node5"><a xlink:href="src_2main_8cpp.html" target="_top" xlink:title=" ">
<polygon fill="none" stroke="black" points="597.5,-6 597.5,-25 676.5,-25 676.5,-6 597.5,-6"/>
<text text-anchor="middle" x="637" y="-13" font-family="Helvetica,sans-Serif" font-size="10.00">src/main.cpp</text>
</a>
</g>
</g>
<!-- Node1&#45;&gt;Node5 -->
<g id="edge67" class="edge">
<title>Node1&#45;&gt;Node5</title>
<path fill="none" stroke="midnightblue" d="M968.86,-272.36C819.97,-250.13 494.3,-191.53 442,-98 388.97,-3.16 538.81,-44.33 588,-31 594.85,-29.14 602.2,-27.03 609.08,-25"/>
<polygon fill="midnightblue" stroke="midnightblue" points="968.44,-275.83 978.84,-273.83 969.46,-268.91 968.44,-275.83"/>
</g>
<!-- Node6 -->
<g id="node6" class="node">
<title>Node6</title>
<g id="a_node6"><a xlink:href="main__multithread_8cpp.html" target="_top" xlink:title=" ">
<polygon fill="none" stroke="black" points="1067.5,-6 1067.5,-25 1208.5,-25 1208.5,-6 1067.5,-6"/>
<text text-anchor="middle" x="1138" y="-13" font-family="Helvetica,sans-Serif" font-size="10.00">src/main_multithread.cpp</text>
</a>
</g>
</g>
<!-- Node1&#45;&gt;Node6 -->
<g id="edge68" class="edge">
<title>Node1&#45;&gt;Node6</title>
<path fill="none" stroke="midnightblue" d="M1117.58,-278.83C1197.31,-273.53 1326.85,-260.98 1435,-232 1584.33,-191.99 1670.29,-226.66 1756,-98 1763.64,-86.53 1765.41,-77.06 1756,-67 1715,-23.17 1276.56,-38.43 1217,-31 1204.82,-29.48 1191.68,-27.29 1179.68,-25.08"/>
<polygon fill="midnightblue" stroke="midnightblue" points="1116.91,-275.36 1107.15,-279.5 1117.36,-282.35 1116.91,-275.36"/>
</g>
<!-- Node7 -->
<g id="node7" class="node">
<title>Node7</title>
<g id="a_node7"><a xlink:href="main__single__thread_8cpp.html" target="_top" xlink:title=" ">
<polygon fill="none" stroke="black" points="855,-6 855,-25 1005,-25 1005,-6 855,-6"/>
<text text-anchor="middle" x="930" y="-13" font-family="Helvetica,sans-Serif" font-size="10.00">src/main_single_thread.cpp</text>
</a>
</g>
</g>
<!-- Node1&#45;&gt;Node7 -->
<g id="edge69" class="edge">
<title>Node1&#45;&gt;Node7</title>
<path fill="none" stroke="midnightblue" d="M1085.92,-264.21C1165.04,-228.02 1320.02,-144.11 1254,-67 1245.76,-57.38 1092.34,-36.72 999.61,-25.03"/>
<polygon fill="midnightblue" stroke="midnightblue" points="1084.34,-261.08 1076.67,-268.38 1087.22,-267.46 1084.34,-261.08"/>
</g>
<!-- Node15 -->
<g id="node15" class="node">
<title>Node15</title>
<g id="a_node15"><a xlink:href="network_8hpp.html" target="_top" xlink:title=" ">
<polygon fill="none" stroke="black" points="933,-67.5 933,-97.5 1061,-97.5 1061,-67.5 933,-67.5"/>
<text text-anchor="start" x="941" y="-85.5" font-family="Helvetica,sans-Serif" font-size="10.00">include/nmbuflowtorch</text>
<text text-anchor="middle" x="997" y="-74.5" font-family="Helvetica,sans-Serif" font-size="10.00">/network.hpp</text>
</a>
</g>
</g>
<!-- Node1&#45;&gt;Node15 -->
<g id="edge52" class="edge">
<title>Node1&#45;&gt;Node15</title>
<path fill="none" stroke="midnightblue" d="M1037.4,-258.27C1027.7,-216.29 1008.06,-131.33 1000.28,-97.68"/>
<polygon fill="midnightblue" stroke="midnightblue" points="1034.03,-259.23 1039.69,-268.19 1040.85,-257.66 1034.03,-259.23"/>
</g>
<!-- Node16 -->
<g id="node16" class="node">
<title>Node16</title>
<g id="a_node16"><a xlink:href="network_8cpp.html" target="_top" xlink:title=" ">
<polygon fill="none" stroke="black" points="1749,-6 1749,-25 1919,-25 1919,-6 1749,-6"/>
<text text-anchor="middle" x="1834" y="-13" font-family="Helvetica,sans-Serif" font-size="10.00">src/nmbuflowtorch/network.cpp</text>
</a>
</g>
</g>
<!-- Node1&#45;&gt;Node16 -->
<g id="edge70" class="edge">
<title>Node1&#45;&gt;Node16</title>
<path fill="none" stroke="midnightblue" d="M1117.32,-280.28C1214.26,-276.15 1388.61,-264.5 1534,-232 1621.79,-212.37 1649.4,-213.76 1725,-165 1781.71,-128.42 1818.98,-51.26 1830.34,-25.26"/>
<polygon fill="midnightblue" stroke="midnightblue" points="1117.18,-276.78 1107.33,-280.69 1117.46,-283.77 1117.18,-276.78"/>
</g>
<!-- Node17 -->
<g id="node17" class="node">
<title>Node17</title>
<g id="a_node17"><a xlink:href="loss_8hpp.html" target="_top" xlink:title=" ">
<polygon fill="none" stroke="black" points="267,-134.5 267,-164.5 395,-164.5 395,-134.5 267,-134.5"/>
<text text-anchor="start" x="275" y="-152.5" font-family="Helvetica,sans-Serif" font-size="10.00">include/nmbuflowtorch</text>
<text text-anchor="middle" x="331" y="-141.5" font-family="Helvetica,sans-Serif" font-size="10.00">/loss.hpp</text>
</a>
</g>
</g>
<!-- Node1&#45;&gt;Node17 -->
<g id="edge28" class="edge">
<title>Node1&#45;&gt;Node17</title>
<path fill="none" stroke="midnightblue" d="M968.61,-283.13C823.03,-283.31 506.22,-278.17 409,-232 377.69,-217.13 352.39,-183.86 339.75,-164.74"/>
<polygon fill="midnightblue" stroke="midnightblue" points="968.8,-286.63 978.79,-283.11 968.78,-279.63 968.8,-286.63"/>
</g>
<!-- Node22 -->
<g id="node22" class="node">
<title>Node22</title>
<g id="a_node22"><a xlink:href="math__m_8hpp.html" target="_top" xlink:title=" ">
<polygon fill="none" stroke="black" points="1415,-134.5 1415,-164.5 1543,-164.5 1543,-134.5 1415,-134.5"/>
<text text-anchor="start" x="1423" y="-152.5" font-family="Helvetica,sans-Serif" font-size="10.00">include/nmbuflowtorch</text>
<text text-anchor="middle" x="1479" y="-141.5" font-family="Helvetica,sans-Serif" font-size="10.00">/math_m.hpp</text>
</a>
</g>
</g>
<!-- Node1&#45;&gt;Node22 -->
<g id="edge46" class="edge">
<title>Node1&#45;&gt;Node22</title>
<path fill="none" stroke="midnightblue" d="M1117.26,-277.75C1207.27,-271.02 1352.86,-256.68 1401,-232 1431.67,-216.27 1457.04,-183.65 1469.9,-164.8"/>
<polygon fill="midnightblue" stroke="midnightblue" points="1116.83,-274.28 1107.11,-278.5 1117.34,-281.26 1116.83,-274.28"/>
</g>
<!-- Node23 -->
<g id="node23" class="node">
<title>Node23</title>
<g id="a_node23"><a xlink:href="optimizer_8hpp.html" target="_top" xlink:title=" ">
<polygon fill="none" stroke="black" points="841,-201.5 841,-231.5 969,-231.5 969,-201.5 841,-201.5"/>
<text text-anchor="start" x="849" y="-219.5" font-family="Helvetica,sans-Serif" font-size="10.00">include/nmbuflowtorch</text>
<text text-anchor="middle" x="905" y="-208.5" font-family="Helvetica,sans-Serif" font-size="10.00">/optimizer.hpp</text>
</a>
</g>
</g>
<!-- Node1&#45;&gt;Node23 -->
<g id="edge53" class="edge">
<title>Node1&#45;&gt;Node23</title>
<path fill="none" stroke="midnightblue" d="M1004,-264.13C982.07,-253.8 955.13,-241.11 934.89,-231.58"/>
<polygon fill="midnightblue" stroke="midnightblue" points="1002.52,-267.3 1013.06,-268.4 1005.5,-260.97 1002.52,-267.3"/>
</g>
<!-- Node3 -->
<g id="node3" class="node">
<title>Node3</title>
<g id="a_node3"><a xlink:href="dense_8hpp.html" target="_top" xlink:title=" ">
<polygon fill="none" stroke="black" points="1117,-67.5 1117,-97.5 1245,-97.5 1245,-67.5 1117,-67.5"/>
<text text-anchor="start" x="1125" y="-85.5" font-family="Helvetica,sans-Serif" font-size="10.00">include/nmbuflowtorch</text>
<text text-anchor="middle" x="1181" y="-74.5" font-family="Helvetica,sans-Serif" font-size="10.00">/layer/dense.hpp</text>
</a>
</g>
</g>
<!-- Node2&#45;&gt;Node3 -->
<g id="edge2" class="edge">
<title>Node2&#45;&gt;Node3</title>
<path fill="none" stroke="midnightblue" d="M1117.38,-128.45C1131.53,-118.45 1148.31,-106.6 1161.08,-97.58"/>
<polygon fill="midnightblue" stroke="midnightblue" points="1115.11,-125.77 1108.96,-134.4 1119.15,-131.48 1115.11,-125.77"/>
</g>
<!-- Node2&#45;&gt;Node4 -->
<g id="edge24" class="edge">
<title>Node2&#45;&gt;Node4</title>
<path fill="none" stroke="midnightblue" d="M1014.57,-147.43C791.37,-143.86 141.04,-130.68 110,-98 83,-69.57 142.74,-39.43 177.44,-25.07"/>
<polygon fill="midnightblue" stroke="midnightblue" points="1014.82,-150.93 1024.88,-147.59 1014.93,-143.93 1014.82,-150.93"/>
</g>
<!-- Node2&#45;&gt;Node5 -->
<g id="edge25" class="edge">
<title>Node2&#45;&gt;Node5</title>
<path fill="none" stroke="midnightblue" d="M1014.62,-148.49C908.7,-147.02 721.43,-138.54 669,-98 645.55,-79.87 639.26,-42.07 637.59,-25.09"/>
<polygon fill="midnightblue" stroke="midnightblue" points="1014.88,-152 1024.92,-148.62 1014.96,-145 1014.88,-152"/>
</g>
<!-- Node2&#45;&gt;Node6 -->
<g id="edge26" class="edge">
<title>Node2&#45;&gt;Node6</title>
<path fill="none" stroke="midnightblue" d="M1163.15,-139.12C1212.73,-131.16 1271.6,-117.82 1287,-98 1317.3,-59 1244.16,-36.15 1189.97,-25"/>
<polygon fill="midnightblue" stroke="midnightblue" points="1162.4,-135.7 1153.06,-140.7 1163.47,-142.62 1162.4,-135.7"/>
</g>
<!-- Node2&#45;&gt;Node7 -->
<g id="edge27" class="edge">
<title>Node2&#45;&gt;Node7</title>
<path fill="none" stroke="midnightblue" d="M1089.24,-124.05C1088.13,-106.22 1083.83,-82.55 1070,-67 1049.91,-44.41 1018.94,-31.92 991.23,-25.02"/>
<polygon fill="midnightblue" stroke="midnightblue" points="1085.75,-124.4 1089.57,-134.28 1092.74,-124.17 1085.75,-124.4"/>
</g>
<!-- Node9 -->
<g id="node9" class="node">
<title>Node9</title>
<g id="a_node9"><a xlink:href="relu_8hpp.html" target="_top" xlink:title=" ">
<polygon fill="none" stroke="black" points="1453,-67.5 1453,-97.5 1581,-97.5 1581,-67.5 1453,-67.5"/>
<text text-anchor="start" x="1461" y="-85.5" font-family="Helvetica,sans-Serif" font-size="10.00">include/nmbuflowtorch</text>
<text text-anchor="middle" x="1517" y="-74.5" font-family="Helvetica,sans-Serif" font-size="10.00">/layer/relu.hpp</text>
</a>
</g>
</g>
<!-- Node2&#45;&gt;Node9 -->
<g id="edge8" class="edge">
<title>Node2&#45;&gt;Node9</title>
<path fill="none" stroke="midnightblue" d="M1163.05,-137.25C1244.85,-124.83 1375.23,-105.03 1452.84,-93.24"/>
<polygon fill="midnightblue" stroke="midnightblue" points="1162.44,-133.81 1153.08,-138.77 1163.49,-140.73 1162.44,-133.81"/>
</g>
<!-- Node11 -->
<g id="node11" class="node">
<title>Node11</title>
<g id="a_node11"><a xlink:href="sigmoid_8hpp.html" target="_top" xlink:title=" ">
<polygon fill="none" stroke="black" points="711,-67.5 711,-97.5 839,-97.5 839,-67.5 711,-67.5"/>
<text text-anchor="start" x="719" y="-85.5" font-family="Helvetica,sans-Serif" font-size="10.00">include/nmbuflowtorch</text>
<text text-anchor="middle" x="775" y="-74.5" font-family="Helvetica,sans-Serif" font-size="10.00">/layer/sigmoid.hpp</text>
</a>
</g>
</g>
<!-- Node2&#45;&gt;Node11 -->
<g id="edge10" class="edge">
<title>Node2&#45;&gt;Node11</title>
<path fill="none" stroke="midnightblue" d="M1014.62,-133.1C961.26,-122.06 890.1,-107.33 839.21,-96.79"/>
<polygon fill="midnightblue" stroke="midnightblue" points="1014.2,-136.59 1024.7,-135.19 1015.62,-129.73 1014.2,-136.59"/>
</g>
<!-- Node13 -->
<g id="node13" class="node">
<title>Node13</title>
<g id="a_node13"><a xlink:href="softmax_8hpp.html" target="_top" xlink:title=" ">
<polygon fill="none" stroke="black" points="1599,-67.5 1599,-97.5 1727,-97.5 1727,-67.5 1599,-67.5"/>
<text text-anchor="start" x="1607" y="-85.5" font-family="Helvetica,sans-Serif" font-size="10.00">include/nmbuflowtorch</text>
<text text-anchor="middle" x="1663" y="-74.5" font-family="Helvetica,sans-Serif" font-size="10.00">/layer/softmax.hpp</text>
</a>
</g>
</g>
<!-- Node2&#45;&gt;Node13 -->
<g id="edge16" class="edge">
<title>Node2&#45;&gt;Node13</title>
<path fill="none" stroke="midnightblue" d="M1163.41,-143.23C1261.5,-135.78 1439.27,-120.51 1590,-98 1592.94,-97.56 1595.94,-97.08 1598.97,-96.58"/>
<polygon fill="midnightblue" stroke="midnightblue" points="1163.01,-139.75 1153.3,-144 1163.54,-146.73 1163.01,-139.75"/>
</g>
<!-- Node2&#45;&gt;Node15 -->
<g id="edge18" class="edge">
<title>Node2&#45;&gt;Node15</title>
<path fill="none" stroke="midnightblue" d="M1060.62,-128.45C1046.47,-118.45 1029.69,-106.6 1016.92,-97.58"/>
<polygon fill="midnightblue" stroke="midnightblue" points="1058.85,-131.48 1069.04,-134.4 1062.89,-125.77 1058.85,-131.48"/>
</g>
<!-- Node3&#45;&gt;Node4 -->
<g id="edge3" class="edge">
<title>Node3&#45;&gt;Node4</title>
<path fill="none" stroke="midnightblue" d="M1106.66,-70.9C1094.43,-69.41 1081.87,-68.04 1070,-67 711.46,-35.66 617.44,-80.84 261,-31 251.08,-29.61 240.41,-27.35 230.82,-25.02"/>
<polygon fill="midnightblue" stroke="midnightblue" points="1106.47,-74.4 1116.83,-72.17 1107.34,-67.46 1106.47,-74.4"/>
</g>
<!-- Node3&#45;&gt;Node5 -->
<g id="edge4" class="edge">
<title>Node3&#45;&gt;Node5</title>
<path fill="none" stroke="midnightblue" d="M1106.61,-71.42C1094.38,-69.87 1081.84,-68.34 1070,-67 902.31,-48.07 858.14,-60.61 692,-31 683.44,-29.48 674.27,-27.29 665.92,-25.07"/>
<polygon fill="midnightblue" stroke="midnightblue" points="1106.41,-74.92 1116.77,-72.72 1107.3,-67.98 1106.41,-74.92"/>
</g>
<!-- Node3&#45;&gt;Node6 -->
<g id="edge5" class="edge">
<title>Node3&#45;&gt;Node6</title>
<path fill="none" stroke="midnightblue" d="M1166.1,-58.97C1158.4,-47.33 1149.44,-33.8 1143.75,-25.19"/>
<polygon fill="midnightblue" stroke="midnightblue" points="1163.23,-60.99 1171.67,-67.4 1169.07,-57.12 1163.23,-60.99"/>
</g>
<!-- Node3&#45;&gt;Node7 -->
<g id="edge6" class="edge">
<title>Node3&#45;&gt;Node7</title>
<path fill="none" stroke="midnightblue" d="M1116.94,-64.91C1067.78,-52.18 1001.93,-35.13 962.93,-25.03"/>
<polygon fill="midnightblue" stroke="midnightblue" points="1116.29,-68.36 1126.85,-67.48 1118.04,-61.58 1116.29,-68.36"/>
</g>
<!-- Node8 -->
<g id="node8" class="node">
<title>Node8</title>
<g id="a_node8"><a xlink:href="dense_8cpp.html" target="_top" xlink:title=" ">
<polygon fill="none" stroke="black" points="1226.5,-0.5 1226.5,-30.5 1361.5,-30.5 1361.5,-0.5 1226.5,-0.5"/>
<text text-anchor="start" x="1234.5" y="-18.5" font-family="Helvetica,sans-Serif" font-size="10.00">src/nmbuflowtorch/layer</text>
<text text-anchor="middle" x="1294" y="-7.5" font-family="Helvetica,sans-Serif" font-size="10.00">/dense.cpp</text>
</a>
</g>
</g>
<!-- Node3&#45;&gt;Node8 -->
<g id="edge7" class="edge">
<title>Node3&#45;&gt;Node8</title>
<path fill="none" stroke="midnightblue" d="M1214.39,-62.3C1232.07,-52.12 1253.4,-39.85 1269.53,-30.58"/>
<polygon fill="midnightblue" stroke="midnightblue" points="1212.44,-59.38 1205.52,-67.4 1215.93,-65.44 1212.44,-59.38"/>
</g>
<!-- Node10 -->
<g id="node10" class="node">
<title>Node10</title>
<g id="a_node10"><a xlink:href="relu_8cpp.html" target="_top" xlink:title=" ">
<polygon fill="none" stroke="black" points="1442.5,-0.5 1442.5,-30.5 1577.5,-30.5 1577.5,-0.5 1442.5,-0.5"/>
<text text-anchor="start" x="1450.5" y="-18.5" font-family="Helvetica,sans-Serif" font-size="10.00">src/nmbuflowtorch/layer</text>
<text text-anchor="middle" x="1510" y="-7.5" font-family="Helvetica,sans-Serif" font-size="10.00">/relu.cpp</text>
</a>
</g>
</g>
<!-- Node9&#45;&gt;Node10 -->
<g id="edge9" class="edge">
<title>Node9&#45;&gt;Node10</title>
<path fill="none" stroke="midnightblue" d="M1514.4,-57.4C1513.43,-48.37 1512.36,-38.41 1511.52,-30.58"/>
<polygon fill="midnightblue" stroke="midnightblue" points="1510.93,-57.83 1515.48,-67.4 1517.89,-57.08 1510.93,-57.83"/>
</g>
<!-- Node11&#45;&gt;Node4 -->
<g id="edge11" class="edge">
<title>Node11&#45;&gt;Node4</title>
<path fill="none" stroke="midnightblue" d="M700.28,-75.41C578.73,-65.3 343.5,-44.79 261,-31 251.66,-29.44 241.62,-27.26 232.44,-25.07"/>
<polygon fill="midnightblue" stroke="midnightblue" points="700.35,-78.93 710.61,-76.27 700.93,-71.96 700.35,-78.93"/>
</g>
<!-- Node11&#45;&gt;Node5 -->
<g id="edge12" class="edge">
<title>Node11&#45;&gt;Node5</title>
<path fill="none" stroke="midnightblue" d="M736,-63.13C709.44,-50.62 675.51,-34.64 655.06,-25.01"/>
<polygon fill="midnightblue" stroke="midnightblue" points="734.52,-66.3 745.06,-67.4 737.5,-59.97 734.52,-66.3"/>
</g>
<!-- Node11&#45;&gt;Node6 -->
<g id="edge13" class="edge">
<title>Node11&#45;&gt;Node6</title>
<path fill="none" stroke="midnightblue" d="M849.01,-68.25C921.25,-55.31 1029,-36.02 1090.48,-25.01"/>
<polygon fill="midnightblue" stroke="midnightblue" points="848.29,-64.82 839.06,-70.03 849.52,-71.71 848.29,-64.82"/>
</g>
<!-- Node11&#45;&gt;Node7 -->
<g id="edge14" class="edge">
<title>Node11&#45;&gt;Node7</title>
<path fill="none" stroke="midnightblue" d="M818.02,-63.46C847.97,-50.9 886.54,-34.72 909.71,-25.01"/>
<polygon fill="midnightblue" stroke="midnightblue" points="816.5,-60.3 808.63,-67.4 819.21,-66.76 816.5,-60.3"/>
</g>
<!-- Node12 -->
<g id="node12" class="node">
<title>Node12</title>
<g id="a_node12"><a xlink:href="sigmoid_8cpp.html" target="_top" xlink:title=" ">
<polygon fill="none" stroke="black" points="701.5,-0.5 701.5,-30.5 836.5,-30.5 836.5,-0.5 701.5,-0.5"/>
<text text-anchor="start" x="709.5" y="-18.5" font-family="Helvetica,sans-Serif" font-size="10.00">src/nmbuflowtorch/layer</text>
<text text-anchor="middle" x="769" y="-7.5" font-family="Helvetica,sans-Serif" font-size="10.00">/sigmoid.cpp</text>
</a>
</g>
</g>
<!-- Node11&#45;&gt;Node12 -->
<g id="edge15" class="edge">
<title>Node11&#45;&gt;Node12</title>
<path fill="none" stroke="midnightblue" d="M772.78,-57.4C771.94,-48.37 771.02,-38.41 770.3,-30.58"/>
<polygon fill="midnightblue" stroke="midnightblue" points="769.29,-57.76 773.7,-67.4 776.26,-57.12 769.29,-57.76"/>
</g>
<!-- Node14 -->
<g id="node14" class="node">
<title>Node14</title>
<g id="a_node14"><a xlink:href="softmax_8cpp.html" target="_top" xlink:title=" ">
<polygon fill="none" stroke="black" points="1595.5,-0.5 1595.5,-30.5 1730.5,-30.5 1730.5,-0.5 1595.5,-0.5"/>
<text text-anchor="start" x="1603.5" y="-18.5" font-family="Helvetica,sans-Serif" font-size="10.00">src/nmbuflowtorch/layer</text>
<text text-anchor="middle" x="1663" y="-7.5" font-family="Helvetica,sans-Serif" font-size="10.00">/softmax.cpp</text>
</a>
</g>
</g>
<!-- Node13&#45;&gt;Node14 -->
<g id="edge17" class="edge">
<title>Node13&#45;&gt;Node14</title>
<path fill="none" stroke="midnightblue" d="M1663,-57.11C1663,-48.15 1663,-38.32 1663,-30.58"/>
<polygon fill="midnightblue" stroke="midnightblue" points="1659.5,-57.4 1663,-67.4 1666.5,-57.4 1659.5,-57.4"/>
</g>
<!-- Node15&#45;&gt;Node4 -->
<g id="edge19" class="edge">
<title>Node15&#45;&gt;Node4</title>
<path fill="none" stroke="midnightblue" d="M922.82,-73.75C898.95,-71.4 872.37,-68.93 848,-67 587.44,-46.34 519.55,-69.37 261,-31 251.31,-29.56 240.89,-27.34 231.46,-25.07"/>
<polygon fill="midnightblue" stroke="midnightblue" points="922.57,-77.25 932.87,-74.75 923.27,-70.28 922.57,-77.25"/>
</g>
<!-- Node15&#45;&gt;Node5 -->
<g id="edge20" class="edge">
<title>Node15&#45;&gt;Node5</title>
<path fill="none" stroke="midnightblue" d="M922.92,-71.22C860.93,-62.14 770.3,-47.77 692,-31 683.99,-29.28 675.39,-27.16 667.42,-25.06"/>
<polygon fill="midnightblue" stroke="midnightblue" points="922.6,-74.71 933,-72.69 923.61,-67.78 922.6,-74.71"/>
</g>
<!-- Node15&#45;&gt;Node6 -->
<g id="edge21" class="edge">
<title>Node15&#45;&gt;Node6</title>
<path fill="none" stroke="midnightblue" d="M1036.85,-63.13C1063.98,-50.62 1098.65,-34.64 1119.55,-25.01"/>
<polygon fill="midnightblue" stroke="midnightblue" points="1035.21,-60.03 1027.59,-67.4 1038.14,-66.39 1035.21,-60.03"/>
</g>
<!-- Node15&#45;&gt;Node7 -->
<g id="edge22" class="edge">
<title>Node15&#45;&gt;Node7</title>
<path fill="none" stroke="midnightblue" d="M975.18,-60.34C962.88,-48.4 948.18,-34.14 938.96,-25.19"/>
<polygon fill="midnightblue" stroke="midnightblue" points="972.85,-62.94 982.46,-67.4 977.72,-57.92 972.85,-62.94"/>
</g>
<!-- Node15&#45;&gt;Node16 -->
<g id="edge23" class="edge">
<title>Node15&#45;&gt;Node16</title>
<path fill="none" stroke="midnightblue" d="M1071.35,-71.03C1083.58,-69.52 1096.13,-68.11 1108,-67 1388.12,-40.76 1460.2,-60.48 1740,-31 1754.45,-29.48 1770.07,-27.29 1784.36,-25.07"/>
<polygon fill="midnightblue" stroke="midnightblue" points="1070.67,-67.58 1061.18,-72.31 1071.54,-74.53 1070.67,-67.58"/>
</g>
<!-- Node17&#45;&gt;Node4 -->
<g id="edge42" class="edge">
<title>Node17&#45;&gt;Node4</title>
<path fill="none" stroke="midnightblue" d="M256.69,-146.19C179.53,-142.04 66.31,-130.44 39,-98 30.13,-87.46 30.84,-78.1 39,-67 46.65,-56.58 120.28,-36.52 165.28,-25.07"/>
<polygon fill="midnightblue" stroke="midnightblue" points="256.69,-149.69 266.86,-146.71 257.05,-142.7 256.69,-149.69"/>
</g>
<!-- Node17&#45;&gt;Node5 -->
<g id="edge43" class="edge">
<title>Node17&#45;&gt;Node5</title>
<path fill="none" stroke="midnightblue" d="M256.56,-144.31C175.35,-137.13 62.8,-117.89 110,-67 146.22,-27.95 535.61,-40.61 588,-31 595.85,-29.56 604.24,-27.34 611.82,-25.07"/>
<polygon fill="midnightblue" stroke="midnightblue" points="256.53,-147.82 266.79,-145.17 257.12,-140.85 256.53,-147.82"/>
</g>
<!-- Node17&#45;&gt;Node6 -->
<g id="edge44" class="edge">
<title>Node17&#45;&gt;Node6</title>
<path fill="none" stroke="midnightblue" d="M405.57,-147.18C620.03,-143.03 1224.98,-128.65 1254,-98 1284.63,-65.65 1213.96,-38.3 1169.92,-25.06"/>
<polygon fill="midnightblue" stroke="midnightblue" points="405.29,-143.69 395.36,-147.38 405.42,-150.69 405.29,-143.69"/>
</g>
<!-- Node17&#45;&gt;Node7 -->
<g id="edge45" class="edge">
<title>Node17&#45;&gt;Node7</title>
<path fill="none" stroke="midnightblue" d="M405.37,-147.33C529.15,-144.38 771.41,-134.04 848,-98 883.6,-81.25 912.75,-42.37 924.46,-25.07"/>
<polygon fill="midnightblue" stroke="midnightblue" points="405.13,-143.84 395.21,-147.56 405.29,-150.83 405.13,-143.84"/>
</g>
<!-- Node17&#45;&gt;Node15 -->
<g id="edge41" class="edge">
<title>Node17&#45;&gt;Node15</title>
<path fill="none" stroke="midnightblue" d="M405.25,-142.46C510.99,-133.68 711.02,-116.42 881,-98 897.85,-96.17 916.05,-94 932.92,-91.89"/>
<polygon fill="midnightblue" stroke="midnightblue" points="404.68,-139 395,-143.31 405.26,-145.97 404.68,-139"/>
</g>
<!-- Node18 -->
<g id="node18" class="node">
<title>Node18</title>
<g id="a_node18"><a xlink:href="cross__entropy_8hpp.html" target="_top" xlink:title=" ">
<polygon fill="none" stroke="black" points="119,-67.5 119,-97.5 249,-97.5 249,-67.5 119,-67.5"/>
<text text-anchor="start" x="127" y="-85.5" font-family="Helvetica,sans-Serif" font-size="10.00">include/nmbuflowtorch</text>
<text text-anchor="middle" x="184" y="-74.5" font-family="Helvetica,sans-Serif" font-size="10.00">/loss/cross_entropy.hpp</text>
</a>
</g>
</g>
<!-- Node17&#45;&gt;Node18 -->
<g id="edge29" class="edge">
<title>Node17&#45;&gt;Node18</title>
<path fill="none" stroke="midnightblue" d="M289.77,-130.27C266.36,-119.92 237.49,-107.15 215.83,-97.58"/>
<polygon fill="midnightblue" stroke="midnightblue" points="288.54,-133.55 299.1,-134.4 291.37,-127.15 288.54,-133.55"/>
</g>
<!-- Node20 -->
<g id="node20" class="node">
<title>Node20</title>
<g id="a_node20"><a xlink:href="mse_8hpp.html" target="_top" xlink:title=" ">
<polygon fill="none" stroke="black" points="267,-67.5 267,-97.5 395,-97.5 395,-67.5 267,-67.5"/>
<text text-anchor="start" x="275" y="-85.5" font-family="Helvetica,sans-Serif" font-size="10.00">include/nmbuflowtorch</text>
<text text-anchor="middle" x="331" y="-74.5" font-family="Helvetica,sans-Serif" font-size="10.00">/loss/mse.hpp</text>
</a>
</g>
</g>
<!-- Node17&#45;&gt;Node20 -->
<g id="edge35" class="edge">
<title>Node17&#45;&gt;Node20</title>
<path fill="none" stroke="midnightblue" d="M331,-124.11C331,-115.15 331,-105.32 331,-97.58"/>
<polygon fill="midnightblue" stroke="midnightblue" points="327.5,-124.4 331,-134.4 334.5,-124.4 327.5,-124.4"/>
</g>
<!-- Node18&#45;&gt;Node4 -->
<g id="edge30" class="edge">
<title>Node18&#45;&gt;Node4</title>
<path fill="none" stroke="midnightblue" d="M189.88,-57.6C192.67,-46.28 195.82,-33.46 197.86,-25.19"/>
<polygon fill="midnightblue" stroke="midnightblue" points="186.46,-56.85 187.47,-67.4 193.26,-58.52 186.46,-56.85"/>
</g>
<!-- Node18&#45;&gt;Node5 -->
<g id="edge31" class="edge">
<title>Node18&#45;&gt;Node5</title>
<path fill="none" stroke="midnightblue" d="M259.56,-66.86C405.68,-45.46 446.6,-59.4 588,-31 595.65,-29.46 603.84,-27.27 611.28,-25.05"/>
<polygon fill="midnightblue" stroke="midnightblue" points="258.69,-63.45 249.32,-68.39 259.73,-70.37 258.69,-63.45"/>
</g>
<!-- Node18&#45;&gt;Node6 -->
<g id="edge32" class="edge">
<title>Node18&#45;&gt;Node6</title>
<path fill="none" stroke="midnightblue" d="M259.25,-66.97C593.66,-27.17 682.02,-58.28 1014,-31 1033.01,-29.44 1053.6,-27.24 1072.44,-25.02"/>
<polygon fill="midnightblue" stroke="midnightblue" points="258.8,-63.5 249.29,-68.17 259.63,-70.45 258.8,-63.5"/>
</g>
<!-- Node18&#45;&gt;Node7 -->
<g id="edge33" class="edge">
<title>Node18&#45;&gt;Node7</title>
<path fill="none" stroke="midnightblue" d="M259.4,-66.94C519.02,-34.48 588.65,-60.64 845,-31 858.24,-29.47 872.54,-27.25 885.57,-25.01"/>
<polygon fill="midnightblue" stroke="midnightblue" points="258.77,-63.49 249.29,-68.22 259.65,-70.43 258.77,-63.49"/>
</g>
<!-- Node19 -->
<g id="node19" class="node">
<title>Node19</title>
<g id="a_node19"><a xlink:href="cross__entropy_8cpp.html" target="_top" xlink:title=" ">
<polygon fill="none" stroke="black" points="0,-0.5 0,-30.5 130,-30.5 130,-0.5 0,-0.5"/>
<text text-anchor="start" x="8" y="-18.5" font-family="Helvetica,sans-Serif" font-size="10.00">src/nmbuflowtorch/loss</text>
<text text-anchor="middle" x="65" y="-7.5" font-family="Helvetica,sans-Serif" font-size="10.00">/cross_entropy.cpp</text>
</a>
</g>
</g>
<!-- Node18&#45;&gt;Node19 -->
<g id="edge34" class="edge">
<title>Node18&#45;&gt;Node19</title>
<path fill="none" stroke="midnightblue" d="M149.35,-62.57C130.63,-52.35 107.91,-39.94 90.77,-30.58"/>
<polygon fill="midnightblue" stroke="midnightblue" points="147.72,-65.67 158.18,-67.4 151.08,-59.53 147.72,-65.67"/>
</g>
<!-- Node20&#45;&gt;Node4 -->
<g id="edge36" class="edge">
<title>Node20&#45;&gt;Node4</title>
<path fill="none" stroke="midnightblue" d="M293.32,-62.8C268.2,-50.34 236.39,-34.56 217.14,-25.01"/>
<polygon fill="midnightblue" stroke="midnightblue" points="292.06,-66.09 302.57,-67.4 295.17,-59.82 292.06,-66.09"/>
</g>
<!-- Node20&#45;&gt;Node5 -->
<g id="edge37" class="edge">
<title>Node20&#45;&gt;Node5</title>
<path fill="none" stroke="midnightblue" d="M404.97,-67.76C468.16,-55.88 554.05,-39.34 588,-31 595.15,-29.24 602.82,-27.1 609.91,-25.01"/>
<polygon fill="midnightblue" stroke="midnightblue" points="404.22,-64.34 395.04,-69.63 405.51,-71.22 404.22,-64.34"/>
</g>
<!-- Node20&#45;&gt;Node6 -->
<g id="edge38" class="edge">
<title>Node20&#45;&gt;Node6</title>
<path fill="none" stroke="midnightblue" d="M405.36,-71.09C417.59,-69.58 430.14,-68.15 442,-67 695.54,-42.49 760.3,-53.8 1014,-31 1032.46,-29.34 1052.42,-27.17 1070.82,-25.02"/>
<polygon fill="midnightblue" stroke="midnightblue" points="404.67,-67.65 395.19,-72.37 405.55,-74.59 404.67,-67.65"/>
</g>
<!-- Node20&#45;&gt;Node7 -->
<g id="edge39" class="edge">
<title>Node20&#45;&gt;Node7</title>
<path fill="none" stroke="midnightblue" d="M405.39,-71.36C417.61,-69.81 430.15,-68.3 442,-67 620.75,-47.35 666.67,-54.14 845,-31 857.62,-29.36 871.23,-27.21 883.78,-25.07"/>
<polygon fill="midnightblue" stroke="midnightblue" points="404.69,-67.92 395.22,-72.66 405.58,-74.86 404.69,-67.92"/>
</g>
<!-- Node21 -->
<g id="node21" class="node">
<title>Node21</title>
<g id="a_node21"><a xlink:href="mse_8cpp.html" target="_top" xlink:title=" ">
<polygon fill="none" stroke="black" points="270,-0.5 270,-30.5 400,-30.5 400,-0.5 270,-0.5"/>
<text text-anchor="start" x="278" y="-18.5" font-family="Helvetica,sans-Serif" font-size="10.00">src/nmbuflowtorch/loss</text>
<text text-anchor="middle" x="335" y="-7.5" font-family="Helvetica,sans-Serif" font-size="10.00">/mse.cpp</text>
</a>
</g>
</g>
<!-- Node20&#45;&gt;Node21 -->
<g id="edge40" class="edge">
<title>Node20&#45;&gt;Node21</title>
<path fill="none" stroke="midnightblue" d="M332.48,-57.4C333.04,-48.37 333.65,-38.41 334.13,-30.58"/>
<polygon fill="midnightblue" stroke="midnightblue" points="328.99,-57.2 331.87,-67.4 335.98,-57.63 328.99,-57.2"/>
</g>
<!-- Node22&#45;&gt;Node3 -->
<g id="edge47" class="edge">
<title>Node22&#45;&gt;Node3</title>
<path fill="none" stroke="midnightblue" d="M1404.78,-132.31C1355.72,-121.61 1292.05,-107.72 1245.18,-97.5"/>
<polygon fill="midnightblue" stroke="midnightblue" points="1404.19,-135.76 1414.71,-134.48 1405.68,-128.93 1404.19,-135.76"/>
</g>
<!-- Node22&#45;&gt;Node5 -->
<g id="edge48" class="edge">
<title>Node22&#45;&gt;Node5</title>
<path fill="none" stroke="midnightblue" d="M1404.74,-145.3C1216.42,-136.96 732.83,-114.1 702,-98 685.88,-89.58 655,-44.14 642.48,-25"/>
<polygon fill="midnightblue" stroke="midnightblue" points="1404.69,-148.8 1414.83,-145.74 1405,-141.81 1404.69,-148.8"/>
</g>
<!-- Node22&#45;&gt;Node6 -->
<g id="edge49" class="edge">
<title>Node22&#45;&gt;Node6</title>
<path fill="none" stroke="midnightblue" d="M1553.39,-147.32C1647.95,-143.36 1792.54,-127.59 1736,-67 1696.57,-24.73 1274.35,-38.23 1217,-31 1204.83,-29.47 1191.69,-27.27 1179.68,-25.06"/>
<polygon fill="midnightblue" stroke="midnightblue" points="1553.12,-143.82 1543.26,-147.7 1553.39,-150.82 1553.12,-143.82"/>
</g>
<!-- Node22&#45;&gt;Node7 -->
<g id="edge50" class="edge">
<title>Node22&#45;&gt;Node7</title>
<path fill="none" stroke="midnightblue" d="M1464.48,-126.13C1450.66,-106.9 1427.99,-80.24 1401,-67 1332.19,-33.25 1134.19,-39.31 1058,-31 1040.66,-29.11 1022,-27.02 1004.44,-25.04"/>
<polygon fill="midnightblue" stroke="midnightblue" points="1461.62,-128.14 1470.19,-134.37 1467.37,-124.16 1461.62,-128.14"/>
</g>
<!-- Node22&#45;&gt;Node16 -->
<g id="edge51" class="edge">
<title>Node22&#45;&gt;Node16</title>
<path fill="none" stroke="midnightblue" d="M1553.41,-147.3C1611.65,-143.53 1693.06,-131.88 1756,-98 1789.63,-79.9 1817.28,-42.09 1828.55,-25.09"/>
<polygon fill="midnightblue" stroke="midnightblue" points="1552.95,-143.82 1543.17,-147.89 1553.36,-150.8 1552.95,-143.82"/>
</g>
<!-- Node23&#45;&gt;Node2 -->
<g id="edge54" class="edge">
<title>Node23&#45;&gt;Node2</title>
<path fill="none" stroke="midnightblue" d="M954.67,-197.96C984.3,-187.48 1021.44,-174.37 1049.15,-164.58"/>
<polygon fill="midnightblue" stroke="midnightblue" points="953.19,-194.76 944.93,-201.4 955.52,-201.37 953.19,-194.76"/>
</g>
<!-- Node23&#45;&gt;Node4 -->
<g id="edge62" class="edge">
<title>Node23&#45;&gt;Node4</title>
<path fill="none" stroke="midnightblue" d="M830.34,-214.67C709.24,-212.2 462.87,-202.55 258,-165 153.69,-145.88 92.59,-182.86 29,-98 20.74,-86.97 20.75,-78.04 29,-67 33.24,-61.33 118.8,-37.96 167.25,-25.09"/>
<polygon fill="midnightblue" stroke="midnightblue" points="830.54,-218.17 840.61,-214.86 830.68,-211.17 830.54,-218.17"/>
</g>
<!-- Node23&#45;&gt;Node5 -->
<g id="edge63" class="edge">
<title>Node23&#45;&gt;Node5</title>
<path fill="none" stroke="midnightblue" d="M831.02,-203.27C770.24,-189.03 687.36,-159.15 644,-98 628.23,-75.76 632.18,-41.03 635.14,-25.06"/>
<polygon fill="midnightblue" stroke="midnightblue" points="830.43,-206.72 840.95,-205.5 831.96,-199.89 830.43,-206.72"/>
</g>
<!-- Node23&#45;&gt;Node6 -->
<g id="edge64" class="edge">
<title>Node23&#45;&gt;Node6</title>
<path fill="none" stroke="midnightblue" d="M978.98,-205.36C1084.63,-189.09 1269.87,-153.25 1305,-98 1312.39,-86.37 1313.21,-78.06 1305,-67 1291.01,-48.15 1232.74,-33.61 1188.94,-25.08"/>
<polygon fill="midnightblue" stroke="midnightblue" points="978.38,-201.92 969.01,-206.88 979.43,-208.84 978.38,-201.92"/>
</g>
<!-- Node23&#45;&gt;Node7 -->
<g id="edge65" class="edge">
<title>Node23&#45;&gt;Node7</title>
<path fill="none" stroke="midnightblue" d="M908.05,-191.24C913.63,-146.82 925.25,-54.31 928.89,-25.36"/>
<polygon fill="midnightblue" stroke="midnightblue" points="904.57,-190.83 906.8,-201.19 911.52,-191.7 904.57,-190.83"/>
</g>
<!-- Node23&#45;&gt;Node15 -->
<g id="edge55" class="edge">
<title>Node23&#45;&gt;Node15</title>
<path fill="none" stroke="midnightblue" d="M920.8,-192.83C939.87,-165.47 971.36,-120.28 987.23,-97.52"/>
<polygon fill="midnightblue" stroke="midnightblue" points="917.69,-191.17 914.85,-201.37 923.43,-195.17 917.69,-191.17"/>
</g>
<!-- Node24 -->
<g id="node24" class="node">
<title>Node24</title>
<g id="a_node24"><a xlink:href="sgd_8hpp.html" target="_top" xlink:title=" ">
<polygon fill="none" stroke="black" points="451,-67.5 451,-97.5 579,-97.5 579,-67.5 451,-67.5"/>
<text text-anchor="start" x="459" y="-85.5" font-family="Helvetica,sans-Serif" font-size="10.00">include/nmbuflowtorch</text>
<text text-anchor="middle" x="515" y="-74.5" font-family="Helvetica,sans-Serif" font-size="10.00">/optimizer/sgd.hpp</text>
</a>
</g>
</g>
<!-- Node23&#45;&gt;Node24 -->
<g id="edge56" class="edge">
<title>Node23&#45;&gt;Node24</title>
<path fill="none" stroke="midnightblue" d="M830.42,-208.92C751.57,-201.01 633.15,-186.1 593,-165 562.49,-148.96 537.06,-116.46 524.15,-97.7"/>
<polygon fill="midnightblue" stroke="midnightblue" points="830.49,-212.45 840.79,-209.95 831.18,-205.48 830.49,-212.45"/>
</g>
<!-- Node24&#45;&gt;Node4 -->
<g id="edge57" class="edge">
<title>Node24&#45;&gt;Node4</title>
<path fill="none" stroke="midnightblue" d="M441.02,-67.54C390.27,-57.78 321.43,-44.19 261,-31 252.49,-29.14 243.34,-27.03 234.79,-25"/>
<polygon fill="midnightblue" stroke="midnightblue" points="440.45,-71 450.93,-69.44 441.76,-64.12 440.45,-71"/>
</g>
<!-- Node24&#45;&gt;Node5 -->
<g id="edge58" class="edge">
<title>Node24&#45;&gt;Node5</title>
<path fill="none" stroke="midnightblue" d="M550.4,-62.64C573.74,-50.2 603.19,-34.51 621.03,-25.01"/>
<polygon fill="midnightblue" stroke="midnightblue" points="548.65,-59.6 541.47,-67.4 551.94,-65.78 548.65,-59.6"/>
</g>
<!-- Node24&#45;&gt;Node6 -->
<g id="edge59" class="edge">
<title>Node24&#45;&gt;Node6</title>
<path fill="none" stroke="midnightblue" d="M589.28,-74.35C686.81,-64.87 863.31,-47.43 1014,-31 1031.24,-29.12 1049.81,-27 1067.2,-24.97"/>
<polygon fill="midnightblue" stroke="midnightblue" points="588.85,-70.87 579.23,-75.32 589.52,-77.84 588.85,-70.87"/>
</g>
<!-- Node24&#45;&gt;Node7 -->
<g id="edge60" class="edge">
<title>Node24&#45;&gt;Node7</title>
<path fill="none" stroke="midnightblue" d="M589.27,-70.51C656.19,-60.51 757.25,-45.2 845,-31 856.67,-29.11 869.24,-27.01 881.03,-25"/>
<polygon fill="midnightblue" stroke="midnightblue" points="588.61,-67.06 579.24,-72 589.65,-73.99 588.61,-67.06"/>
</g>
<!-- Node25 -->
<g id="node25" class="node">
<title>Node25</title>
<g id="a_node25"><a xlink:href="sgd_8cpp.html" target="_top" xlink:title=" ">
<polygon fill="none" stroke="black" points="422.5,-0.5 422.5,-30.5 579.5,-30.5 579.5,-0.5 422.5,-0.5"/>
<text text-anchor="start" x="430.5" y="-18.5" font-family="Helvetica,sans-Serif" font-size="10.00">src/nmbuflowtorch/optimizer</text>
<text text-anchor="middle" x="501" y="-7.5" font-family="Helvetica,sans-Serif" font-size="10.00">/sgd.cpp</text>
</a>
</g>
</g>
<!-- Node24&#45;&gt;Node25 -->
<g id="edge61" class="edge">
<title>Node24&#45;&gt;Node25</title>
<path fill="none" stroke="midnightblue" d="M509.81,-57.4C507.86,-48.37 505.72,-38.41 504.03,-30.58"/>
<polygon fill="midnightblue" stroke="midnightblue" points="506.44,-58.36 511.96,-67.4 513.28,-56.88 506.44,-58.36"/>
</g>
</g>
</svg>
