<?xml version="1.0" encoding="UTF-8" standalone="no"?>
<!DOCTYPE svg PUBLIC "-//W3C//DTD SVG 1.1//EN"
 "http://www.w3.org/Graphics/SVG/1.1/DTD/svg11.dtd">
<!-- Generated by graphviz version 2.43.0 (0)
 -->
<!-- Title: include/nmbuflowtorch/definitions.hpp Pages: 1 -->
<svg width="2518pt" height="307pt"
 viewBox="0.00 0.00 2517.91 307.00" xmlns="http://www.w3.org/2000/svg" xmlns:xlink="http://www.w3.org/1999/xlink">
<g id="graph0" class="graph" transform="scale(1 1) rotate(0) translate(4 303)">
<title>include/nmbuflowtorch/definitions.hpp</title>
<!-- Node1 -->
<g id="node1" class="node">
<title>Node1</title>
<g id="a_node1"><a xlink:title=" ">
<polygon fill="#bfbfbf" stroke="black" points="1102,-268.5 1102,-298.5 1230,-298.5 1230,-268.5 1102,-268.5"/>
<text text-anchor="start" x="1110" y="-286.5" font-family="Helvetica,sans-Serif" font-size="10.00">include/nmbuflowtorch</text>
<text text-anchor="middle" x="1166" y="-275.5" font-family="Helvetica,sans-Serif" font-size="10.00">/definitions.hpp</text>
</a>
</g>
</g>
<!-- Node2 -->
<g id="node2" class="node">
<title>Node2</title>
<g id="a_node2"><a xlink:href="layer_8hpp.html" target="_top" xlink:title=" ">
<polygon fill="none" stroke="black" points="1033,-134.5 1033,-164.5 1161,-164.5 1161,-134.5 1033,-134.5"/>
<text text-anchor="start" x="1041" y="-152.5" font-family="Helvetica,sans-Serif" font-size="10.00">include/nmbuflowtorch</text>
<text text-anchor="middle" x="1097" y="-141.5" font-family="Helvetica,sans-Serif" font-size="10.00">/layer.hpp</text>
</a>
</g>
</g>
<!-- Node1&#45;&gt;Node2 -->
<g id="edge1" class="edge">
<title>Node1&#45;&gt;Node2</title>
<path fill="none" stroke="midnightblue" d="M1153.96,-259.48C1139.64,-232.07 1116.18,-187.19 1104.33,-164.52"/>
<polygon fill="midnightblue" stroke="midnightblue" points="1150.88,-261.13 1158.62,-268.37 1157.08,-257.89 1150.88,-261.13"/>
</g>
<!-- Node6 -->
<g id="node6" class="node">
<title>Node6</title>
<g id="a_node6"><a xlink:href="main_01copy_8cpp.html" target="_top" xlink:title=" ">
<polygon fill="none" stroke="black" points="1497,-6 1497,-25 1601,-25 1601,-6 1497,-6"/>
<text text-anchor="middle" x="1549" y="-13" font-family="Helvetica,sans-Serif" font-size="10.00">src/main copy.cpp</text>
</a>
</g>
</g>
<!-- Node1&#45;&gt;Node6 -->
<g id="edge73" class="edge">
<title>Node1&#45;&gt;Node6</title>
<path fill="none" stroke="midnightblue" d="M1240.24,-278.38C1444.11,-266.28 2000.81,-227.74 2052,-165 2109.96,-93.96 2021.35,-94.65 1938,-67 1798.81,-20.82 1754.51,-56.01 1610,-31 1600.67,-29.39 1590.63,-27.19 1581.45,-25"/>
<polygon fill="midnightblue" stroke="midnightblue" points="1240,-274.89 1230.23,-278.97 1240.41,-281.87 1240,-274.89"/>
</g>
<!-- Node7 -->
<g id="node7" class="node">
<title>Node7</title>
<g id="a_node7"><a xlink:href="src_2main_8cpp.html" target="_top" xlink:title=" ">
<polygon fill="none" stroke="black" points="1942.5,-6 1942.5,-25 2021.5,-25 2021.5,-6 1942.5,-6"/>
<text text-anchor="middle" x="1982" y="-13" font-family="Helvetica,sans-Serif" font-size="10.00">src/main.cpp</text>
</a>
</g>
</g>
<!-- Node1&#45;&gt;Node7 -->
<g id="edge74" class="edge">
<title>Node1&#45;&gt;Node7</title>
<path fill="none" stroke="midnightblue" d="M1240.32,-280.11C1501.11,-271.15 2364.1,-236.31 2464,-165 2501.29,-138.38 2526.77,-100.95 2496,-67 2464.27,-32 2136.43,-20.4 2021.53,-17.39"/>
<polygon fill="midnightblue" stroke="midnightblue" points="1240.07,-276.62 1230.2,-280.46 1240.31,-283.61 1240.07,-276.62"/>
</g>
<!-- Node8 -->
<g id="node8" class="node">
<title>Node8</title>
<g id="a_node8"><a xlink:href="main__multithread_8cpp.html" target="_top" xlink:title=" ">
<polygon fill="none" stroke="black" points="858.5,-6 858.5,-25 999.5,-25 999.5,-6 858.5,-6"/>
<text text-anchor="middle" x="929" y="-13" font-family="Helvetica,sans-Serif" font-size="10.00">src/main_multithread.cpp</text>
</a>
</g>
</g>
<!-- Node1&#45;&gt;Node8 -->
<g id="edge75" class="edge">
<title>Node1&#45;&gt;Node8</title>
<path fill="none" stroke="midnightblue" d="M1091.56,-277.73C905.98,-264.09 431.12,-217.91 340,-98 331.66,-87.03 330.61,-77.08 340,-67 378.73,-25.44 793.64,-38.14 850,-31 862.17,-29.46 875.31,-27.26 887.32,-25.05"/>
<polygon fill="midnightblue" stroke="midnightblue" points="1091.55,-281.24 1101.77,-278.47 1092.05,-274.25 1091.55,-281.24"/>
</g>
<!-- Node9 -->
<g id="node9" class="node">
<title>Node9</title>
<g id="a_node9"><a xlink:href="main__single__thread_8cpp.html" target="_top" xlink:title=" ">
<polygon fill="none" stroke="black" points="1171,-6 1171,-25 1321,-25 1321,-6 1171,-6"/>
<text text-anchor="middle" x="1246" y="-13" font-family="Helvetica,sans-Serif" font-size="10.00">src/main_single_thread.cpp</text>
</a>
</g>
</g>
<!-- Node1&#45;&gt;Node9 -->
<g id="edge76" class="edge">
<title>Node1&#45;&gt;Node9</title>
<path fill="none" stroke="midnightblue" d="M1091.69,-271.07C988.98,-253.55 812.07,-216.6 775,-165 762.54,-147.65 768.17,-81.47 783,-67 843.54,-7.9 1078.14,-42.2 1162,-31 1174.47,-29.33 1187.92,-27.18 1200.32,-25.04"/>
<polygon fill="midnightblue" stroke="midnightblue" points="1091.25,-274.54 1101.69,-272.75 1092.41,-267.64 1091.25,-274.54"/>
</g>
<!-- Node17 -->
<g id="node17" class="node">
<title>Node17</title>
<g id="a_node17"><a xlink:href="network_8hpp.html" target="_top" xlink:title="Network class representing a sequence of layers. This class implements a network consisting of a sequ...">
<polygon fill="none" stroke="black" points="1171,-67.5 1171,-97.5 1299,-97.5 1299,-67.5 1171,-67.5"/>
<text text-anchor="start" x="1179" y="-85.5" font-family="Helvetica,sans-Serif" font-size="10.00">include/nmbuflowtorch</text>
<text text-anchor="middle" x="1235" y="-74.5" font-family="Helvetica,sans-Serif" font-size="10.00">/network.hpp</text>
</a>
</g>
</g>
<!-- Node1&#45;&gt;Node17 -->
<g id="edge54" class="edge">
<title>Node1&#45;&gt;Node17</title>
<path fill="none" stroke="midnightblue" d="M1174.31,-258.53C1188.83,-216.65 1218.39,-131.4 1230.08,-97.68"/>
<polygon fill="midnightblue" stroke="midnightblue" points="1170.93,-257.59 1170.96,-268.19 1177.55,-259.89 1170.93,-257.59"/>
</g>
<!-- Node18 -->
<g id="node18" class="node">
<title>Node18</title>
<g id="a_node18"><a xlink:href="network_8cpp.html" target="_top" xlink:title=" ">
<polygon fill="none" stroke="black" points="0,-6 0,-25 170,-25 170,-6 0,-6"/>
<text text-anchor="middle" x="85" y="-13" font-family="Helvetica,sans-Serif" font-size="10.00">src/nmbuflowtorch/network.cpp</text>
</a>
</g>
</g>
<!-- Node1&#45;&gt;Node18 -->
<g id="edge77" class="edge">
<title>Node1&#45;&gt;Node18</title>
<path fill="none" stroke="midnightblue" d="M1091.83,-280.94C977.74,-277.49 752.68,-266.52 565,-232 353.05,-193.01 242.79,-258.52 99,-98 80.61,-77.47 81.93,-41.89 83.74,-25.38"/>
<polygon fill="midnightblue" stroke="midnightblue" points="1091.76,-284.44 1101.85,-281.23 1091.96,-277.44 1091.76,-284.44"/>
</g>
<!-- Node19 -->
<g id="node19" class="node">
<title>Node19</title>
<g id="a_node19"><a xlink:href="loss_8hpp.html" target="_top" xlink:title=" ">
<polygon fill="none" stroke="black" points="1374,-134.5 1374,-164.5 1502,-164.5 1502,-134.5 1374,-134.5"/>
<text text-anchor="start" x="1382" y="-152.5" font-family="Helvetica,sans-Serif" font-size="10.00">include/nmbuflowtorch</text>
<text text-anchor="middle" x="1438" y="-141.5" font-family="Helvetica,sans-Serif" font-size="10.00">/loss.hpp</text>
</a>
</g>
</g>
<!-- Node1&#45;&gt;Node19 -->
<g id="edge30" class="edge">
<title>Node1&#45;&gt;Node19</title>
<path fill="none" stroke="midnightblue" d="M1203.92,-264.1C1258.9,-237.42 1359.58,-188.55 1409.04,-164.56"/>
<polygon fill="midnightblue" stroke="midnightblue" points="1202.32,-260.98 1194.85,-268.5 1205.38,-267.28 1202.32,-260.98"/>
</g>
<!-- Node24 -->
<g id="node24" class="node">
<title>Node24</title>
<g id="a_node24"><a xlink:href="math__m_8hpp.html" target="_top" xlink:title=" ">
<polygon fill="none" stroke="black" points="784,-134.5 784,-164.5 912,-164.5 912,-134.5 784,-134.5"/>
<text text-anchor="start" x="792" y="-152.5" font-family="Helvetica,sans-Serif" font-size="10.00">include/nmbuflowtorch</text>
<text text-anchor="middle" x="848" y="-141.5" font-family="Helvetica,sans-Serif" font-size="10.00">/math_m.hpp</text>
</a>
</g>
</g>
<!-- Node1&#45;&gt;Node24 -->
<g id="edge48" class="edge">
<title>Node1&#45;&gt;Node24</title>
<path fill="none" stroke="midnightblue" d="M1122.86,-264.59C1058.85,-238.02 940.04,-188.7 881.86,-164.56"/>
<polygon fill="midnightblue" stroke="midnightblue" points="1121.69,-267.9 1132.27,-268.5 1124.38,-261.43 1121.69,-267.9"/>
</g>
<!-- Node25 -->
<g id="node25" class="node">
<title>Node25</title>
<g id="a_node25"><a xlink:href="optimizer_8hpp.html" target="_top" xlink:title=" ">
<polygon fill="none" stroke="black" points="1588,-201.5 1588,-231.5 1716,-231.5 1716,-201.5 1588,-201.5"/>
<text text-anchor="start" x="1596" y="-219.5" font-family="Helvetica,sans-Serif" font-size="10.00">include/nmbuflowtorch</text>
<text text-anchor="middle" x="1652" y="-208.5" font-family="Helvetica,sans-Serif" font-size="10.00">/optimizer.hpp</text>
</a>
</g>
</g>
<!-- Node1&#45;&gt;Node25 -->
<g id="edge55" class="edge">
<title>Node1&#45;&gt;Node25</title>
<path fill="none" stroke="midnightblue" d="M1240.13,-272.58C1335.05,-259.89 1497.97,-238.1 1587.82,-226.08"/>
<polygon fill="midnightblue" stroke="midnightblue" points="1239.48,-269.14 1230.04,-273.94 1240.41,-276.08 1239.48,-269.14"/>
</g>
<!-- Node3 -->
<g id="node3" class="node">
<title>Node3</title>
<g id="a_node3"><a xlink:href="conv_8hpp.html" target="_top" xlink:title=" ">
<polygon fill="none" stroke="black" points="137,-67.5 137,-97.5 265,-97.5 265,-67.5 137,-67.5"/>
<text text-anchor="start" x="145" y="-85.5" font-family="Helvetica,sans-Serif" font-size="10.00">include/nmbuflowtorch</text>
<text text-anchor="middle" x="201" y="-74.5" font-family="Helvetica,sans-Serif" font-size="10.00">/layer/conv.hpp</text>
</a>
</g>
</g>
<!-- Node2&#45;&gt;Node3 -->
<g id="edge2" class="edge">
<title>Node2&#45;&gt;Node3</title>
<path fill="none" stroke="midnightblue" d="M1022.68,-142.06C991.31,-139.42 954.39,-136.43 921,-134 667.39,-115.56 603.47,-118.32 350,-98 322.15,-95.77 291.42,-92.85 265.13,-90.22"/>
<polygon fill="midnightblue" stroke="midnightblue" points="1022.4,-145.55 1032.66,-142.9 1022.99,-138.57 1022.4,-145.55"/>
</g>
<!-- Node5 -->
<g id="node5" class="node">
<title>Node5</title>
<g id="a_node5"><a xlink:href="dense_8hpp.html" target="_top" xlink:title=" ">
<polygon fill="none" stroke="black" points="803,-67.5 803,-97.5 931,-97.5 931,-67.5 803,-67.5"/>
<text text-anchor="start" x="811" y="-85.5" font-family="Helvetica,sans-Serif" font-size="10.00">include/nmbuflowtorch</text>
<text text-anchor="middle" x="867" y="-74.5" font-family="Helvetica,sans-Serif" font-size="10.00">/layer/dense.hpp</text>
</a>
</g>
</g>
<!-- Node2&#45;&gt;Node5 -->
<g id="edge4" class="edge">
<title>Node2&#45;&gt;Node5</title>
<path fill="none" stroke="midnightblue" d="M1037.61,-131.71C1000.18,-121.14 952.4,-107.63 916.93,-97.61"/>
<polygon fill="midnightblue" stroke="midnightblue" points="1036.8,-135.12 1047.38,-134.48 1038.71,-128.39 1036.8,-135.12"/>
</g>
<!-- Node2&#45;&gt;Node6 -->
<g id="edge26" class="edge">
<title>Node2&#45;&gt;Node6</title>
<path fill="none" stroke="midnightblue" d="M1171.65,-144.43C1288.45,-137.38 1503.83,-121.37 1530,-98 1551.02,-79.23 1551.09,-42.1 1549.9,-25.22"/>
<polygon fill="midnightblue" stroke="midnightblue" points="1171.13,-140.95 1161.36,-145.04 1171.55,-147.94 1171.13,-140.95"/>
</g>
<!-- Node2&#45;&gt;Node7 -->
<g id="edge27" class="edge">
<title>Node2&#45;&gt;Node7</title>
<path fill="none" stroke="midnightblue" d="M1171.16,-144.37C1381.88,-132.61 1969.17,-99.7 1971,-98 1991.32,-79.18 1987.16,-42.08 1983.95,-25.21"/>
<polygon fill="midnightblue" stroke="midnightblue" points="1170.9,-140.88 1161.11,-144.93 1171.29,-147.87 1170.9,-140.88"/>
</g>
<!-- Node2&#45;&gt;Node8 -->
<g id="edge28" class="edge">
<title>Node2&#45;&gt;Node8</title>
<path fill="none" stroke="midnightblue" d="M1022.84,-141.14C937.95,-131.95 808.68,-115.33 794,-98 763.21,-61.65 836.64,-37.06 886.84,-25.04"/>
<polygon fill="midnightblue" stroke="midnightblue" points="1022.64,-144.64 1032.96,-142.22 1023.39,-137.68 1022.64,-144.64"/>
</g>
<!-- Node2&#45;&gt;Node9 -->
<g id="edge29" class="edge">
<title>Node2&#45;&gt;Node9</title>
<path fill="none" stroke="midnightblue" d="M1111.78,-125.8C1123.87,-108.35 1142.18,-84.37 1162,-67 1182.35,-49.17 1209.83,-34.01 1227.72,-25.08"/>
<polygon fill="midnightblue" stroke="midnightblue" points="1108.75,-124.02 1106.04,-134.26 1114.55,-127.94 1108.75,-124.02"/>
</g>
<!-- Node11 -->
<g id="node11" class="node">
<title>Node11</title>
<g id="a_node11"><a xlink:href="relu_8hpp.html" target="_top" xlink:title=" ">
<polygon fill="none" stroke="black" points="543,-67.5 543,-97.5 671,-97.5 671,-67.5 543,-67.5"/>
<text text-anchor="start" x="551" y="-85.5" font-family="Helvetica,sans-Serif" font-size="10.00">include/nmbuflowtorch</text>
<text text-anchor="middle" x="607" y="-74.5" font-family="Helvetica,sans-Serif" font-size="10.00">/layer/relu.hpp</text>
</a>
</g>
</g>
<!-- Node2&#45;&gt;Node11 -->
<g id="edge10" class="edge">
<title>Node2&#45;&gt;Node11</title>
<path fill="none" stroke="midnightblue" d="M1022.75,-138.65C926.89,-125.94 761.69,-104.02 671.07,-92"/>
<polygon fill="midnightblue" stroke="midnightblue" points="1022.57,-142.16 1032.94,-140 1023.49,-135.22 1022.57,-142.16"/>
</g>
<!-- Node13 -->
<g id="node13" class="node">
<title>Node13</title>
<g id="a_node13"><a xlink:href="sigmoid_8hpp.html" target="_top" xlink:title=" ">
<polygon fill="none" stroke="black" points="987,-67.5 987,-97.5 1115,-97.5 1115,-67.5 987,-67.5"/>
<text text-anchor="start" x="995" y="-85.5" font-family="Helvetica,sans-Serif" font-size="10.00">include/nmbuflowtorch</text>
<text text-anchor="middle" x="1051" y="-74.5" font-family="Helvetica,sans-Serif" font-size="10.00">/layer/sigmoid.hpp</text>
</a>
</g>
</g>
<!-- Node2&#45;&gt;Node13 -->
<g id="edge12" class="edge">
<title>Node2&#45;&gt;Node13</title>
<path fill="none" stroke="midnightblue" d="M1081.19,-126.16C1074.48,-116.68 1066.87,-105.92 1060.96,-97.58"/>
<polygon fill="midnightblue" stroke="midnightblue" points="1078.38,-128.26 1087.02,-134.4 1084.1,-124.21 1078.38,-128.26"/>
</g>
<!-- Node15 -->
<g id="node15" class="node">
<title>Node15</title>
<g id="a_node15"><a xlink:href="softmax_8hpp.html" target="_top" xlink:title=" ">
<polygon fill="none" stroke="black" points="359,-67.5 359,-97.5 487,-97.5 487,-67.5 359,-67.5"/>
<text text-anchor="start" x="367" y="-85.5" font-family="Helvetica,sans-Serif" font-size="10.00">include/nmbuflowtorch</text>
<text text-anchor="middle" x="423" y="-74.5" font-family="Helvetica,sans-Serif" font-size="10.00">/layer/softmax.hpp</text>
</a>
</g>
</g>
<!-- Node2&#45;&gt;Node15 -->
<g id="edge18" class="edge">
<title>Node2&#45;&gt;Node15</title>
<path fill="none" stroke="midnightblue" d="M1022.22,-142.17C891.51,-131.05 626.6,-108.2 534,-98 518.84,-96.33 502.53,-94.32 487.22,-92.34"/>
<polygon fill="midnightblue" stroke="midnightblue" points="1022.28,-145.69 1032.54,-143.05 1022.87,-138.71 1022.28,-145.69"/>
</g>
<!-- Node2&#45;&gt;Node17 -->
<g id="edge20" class="edge">
<title>Node2&#45;&gt;Node17</title>
<path fill="none" stroke="midnightblue" d="M1136,-130.13C1157.93,-119.8 1184.87,-107.11 1205.11,-97.58"/>
<polygon fill="midnightblue" stroke="midnightblue" points="1134.5,-126.97 1126.94,-134.4 1137.48,-133.3 1134.5,-126.97"/>
</g>
<!-- Node4 -->
<g id="node4" class="node">
<title>Node4</title>
<g id="a_node4"><a xlink:href="conv_8cpp.html" target="_top" xlink:title=" ">
<polygon fill="none" stroke="black" points="188.5,-0.5 188.5,-30.5 323.5,-30.5 323.5,-0.5 188.5,-0.5"/>
<text text-anchor="start" x="196.5" y="-18.5" font-family="Helvetica,sans-Serif" font-size="10.00">src/nmbuflowtorch/layer</text>
<text text-anchor="middle" x="256" y="-7.5" font-family="Helvetica,sans-Serif" font-size="10.00">/conv.cpp</text>
</a>
</g>
</g>
<!-- Node3&#45;&gt;Node4 -->
<g id="edge3" class="edge">
<title>Node3&#45;&gt;Node4</title>
<path fill="none" stroke="midnightblue" d="M219.42,-59.74C227.55,-50.12 236.89,-39.09 244.09,-30.58"/>
<polygon fill="midnightblue" stroke="midnightblue" points="216.72,-57.5 212.93,-67.4 222.07,-62.02 216.72,-57.5"/>
</g>
<!-- Node5&#45;&gt;Node6 -->
<g id="edge5" class="edge">
<title>Node5&#45;&gt;Node6</title>
<path fill="none" stroke="midnightblue" d="M941.37,-71.17C953.59,-69.65 966.14,-68.19 978,-67 1204.09,-44.27 1263.39,-65.39 1488,-31 1497.68,-29.52 1508.1,-27.29 1517.53,-25.01"/>
<polygon fill="midnightblue" stroke="midnightblue" points="940.68,-67.73 931.2,-72.45 941.56,-74.67 940.68,-67.73"/>
</g>
<!-- Node5&#45;&gt;Node7 -->
<g id="edge6" class="edge">
<title>Node5&#45;&gt;Node7</title>
<path fill="none" stroke="midnightblue" d="M941.34,-70.83C953.57,-69.35 966.12,-68 978,-67 1401.7,-31.42 1514.62,-101.05 1934,-31 1941.9,-29.68 1950.32,-27.44 1957.87,-25.1"/>
<polygon fill="midnightblue" stroke="midnightblue" points="940.65,-67.39 931.16,-72.1 941.52,-74.33 940.65,-67.39"/>
</g>
<!-- Node5&#45;&gt;Node8 -->
<g id="edge7" class="edge">
<title>Node5&#45;&gt;Node8</title>
<path fill="none" stroke="midnightblue" d="M887.51,-60C898.83,-48.13 912.26,-34.05 920.71,-25.19"/>
<polygon fill="midnightblue" stroke="midnightblue" points="884.82,-57.74 880.45,-67.4 889.89,-62.58 884.82,-57.74"/>
</g>
<!-- Node5&#45;&gt;Node9 -->
<g id="edge8" class="edge">
<title>Node5&#45;&gt;Node9</title>
<path fill="none" stroke="midnightblue" d="M941.25,-68.82C1000.91,-58.62 1086.85,-43.92 1162,-31 1173.23,-29.07 1185.3,-26.99 1196.7,-25.02"/>
<polygon fill="midnightblue" stroke="midnightblue" points="940.44,-65.41 931.17,-70.54 941.62,-72.31 940.44,-65.41"/>
</g>
<!-- Node10 -->
<g id="node10" class="node">
<title>Node10</title>
<g id="a_node10"><a xlink:href="dense_8cpp.html" target="_top" xlink:title=" ">
<polygon fill="none" stroke="black" points="705.5,-0.5 705.5,-30.5 840.5,-30.5 840.5,-0.5 705.5,-0.5"/>
<text text-anchor="start" x="713.5" y="-18.5" font-family="Helvetica,sans-Serif" font-size="10.00">src/nmbuflowtorch/layer</text>
<text text-anchor="middle" x="773" y="-7.5" font-family="Helvetica,sans-Serif" font-size="10.00">/dense.cpp</text>
</a>
</g>
</g>
<!-- Node5&#45;&gt;Node10 -->
<g id="edge9" class="edge">
<title>Node5&#45;&gt;Node10</title>
<path fill="none" stroke="midnightblue" d="M838.01,-61.45C823.55,-51.45 806.41,-39.6 793.36,-30.58"/>
<polygon fill="midnightblue" stroke="midnightblue" points="836.39,-64.59 846.6,-67.4 840.37,-58.83 836.39,-64.59"/>
</g>
<!-- Node12 -->
<g id="node12" class="node">
<title>Node12</title>
<g id="a_node12"><a xlink:href="relu_8cpp.html" target="_top" xlink:title=" ">
<polygon fill="none" stroke="black" points="539.5,-0.5 539.5,-30.5 674.5,-30.5 674.5,-0.5 539.5,-0.5"/>
<text text-anchor="start" x="547.5" y="-18.5" font-family="Helvetica,sans-Serif" font-size="10.00">src/nmbuflowtorch/layer</text>
<text text-anchor="middle" x="607" y="-7.5" font-family="Helvetica,sans-Serif" font-size="10.00">/relu.cpp</text>
</a>
</g>
</g>
<!-- Node11&#45;&gt;Node12 -->
<g id="edge11" class="edge">
<title>Node11&#45;&gt;Node12</title>
<path fill="none" stroke="midnightblue" d="M607,-57.11C607,-48.15 607,-38.32 607,-30.58"/>
<polygon fill="midnightblue" stroke="midnightblue" points="603.5,-57.4 607,-67.4 610.5,-57.4 603.5,-57.4"/>
</g>
<!-- Node13&#45;&gt;Node6 -->
<g id="edge13" class="edge">
<title>Node13&#45;&gt;Node6</title>
<path fill="none" stroke="midnightblue" d="M1125.41,-71.57C1137.63,-70 1150.17,-68.43 1162,-67 1306.72,-49.56 1344.37,-55.9 1488,-31 1497.22,-29.4 1507.13,-27.24 1516.23,-25.07"/>
<polygon fill="midnightblue" stroke="midnightblue" points="1124.71,-68.13 1115.24,-72.89 1125.61,-75.08 1124.71,-68.13"/>
</g>
<!-- Node13&#45;&gt;Node7 -->
<g id="edge14" class="edge">
<title>Node13&#45;&gt;Node7</title>
<path fill="none" stroke="midnightblue" d="M1125.34,-70.92C1137.57,-69.43 1150.13,-68.05 1162,-67 1504.15,-36.73 1595.47,-89.11 1934,-31 1941.89,-29.65 1950.31,-27.39 1957.86,-25.06"/>
<polygon fill="midnightblue" stroke="midnightblue" points="1124.66,-67.48 1115.17,-72.19 1125.53,-74.42 1124.66,-67.48"/>
</g>
<!-- Node13&#45;&gt;Node8 -->
<g id="edge15" class="edge">
<title>Node13&#45;&gt;Node8</title>
<path fill="none" stroke="midnightblue" d="M1015.6,-62.64C992.26,-50.2 962.81,-34.51 944.97,-25.01"/>
<polygon fill="midnightblue" stroke="midnightblue" points="1014.06,-65.78 1024.53,-67.4 1017.35,-59.6 1014.06,-65.78"/>
</g>
<!-- Node13&#45;&gt;Node9 -->
<g id="edge16" class="edge">
<title>Node13&#45;&gt;Node9</title>
<path fill="none" stroke="midnightblue" d="M1103.18,-64.11C1141.11,-51.46 1190.82,-34.89 1220.48,-25.01"/>
<polygon fill="midnightblue" stroke="midnightblue" points="1101.69,-60.91 1093.31,-67.4 1103.91,-67.55 1101.69,-60.91"/>
</g>
<!-- Node14 -->
<g id="node14" class="node">
<title>Node14</title>
<g id="a_node14"><a xlink:href="sigmoid_8cpp.html" target="_top" xlink:title=" ">
<polygon fill="none" stroke="black" points="1017.5,-0.5 1017.5,-30.5 1152.5,-30.5 1152.5,-0.5 1017.5,-0.5"/>
<text text-anchor="start" x="1025.5" y="-18.5" font-family="Helvetica,sans-Serif" font-size="10.00">src/nmbuflowtorch/layer</text>
<text text-anchor="middle" x="1085" y="-7.5" font-family="Helvetica,sans-Serif" font-size="10.00">/sigmoid.cpp</text>
</a>
</g>
</g>
<!-- Node13&#45;&gt;Node14 -->
<g id="edge17" class="edge">
<title>Node13&#45;&gt;Node14</title>
<path fill="none" stroke="midnightblue" d="M1063.14,-58.28C1067.99,-49.02 1073.41,-38.66 1077.64,-30.58"/>
<polygon fill="midnightblue" stroke="midnightblue" points="1059.91,-56.91 1058.38,-67.4 1066.11,-60.16 1059.91,-56.91"/>
</g>
<!-- Node16 -->
<g id="node16" class="node">
<title>Node16</title>
<g id="a_node16"><a xlink:href="softmax_8cpp.html" target="_top" xlink:title=" ">
<polygon fill="none" stroke="black" points="355.5,-0.5 355.5,-30.5 490.5,-30.5 490.5,-0.5 355.5,-0.5"/>
<text text-anchor="start" x="363.5" y="-18.5" font-family="Helvetica,sans-Serif" font-size="10.00">src/nmbuflowtorch/layer</text>
<text text-anchor="middle" x="423" y="-7.5" font-family="Helvetica,sans-Serif" font-size="10.00">/softmax.cpp</text>
</a>
</g>
</g>
<!-- Node15&#45;&gt;Node16 -->
<g id="edge19" class="edge">
<title>Node15&#45;&gt;Node16</title>
<path fill="none" stroke="midnightblue" d="M423,-57.11C423,-48.15 423,-38.32 423,-30.58"/>
<polygon fill="midnightblue" stroke="midnightblue" points="419.5,-57.4 423,-67.4 426.5,-57.4 419.5,-57.4"/>
</g>
<!-- Node17&#45;&gt;Node6 -->
<g id="edge21" class="edge">
<title>Node17&#45;&gt;Node6</title>
<path fill="none" stroke="midnightblue" d="M1308.94,-67.48C1359.47,-57.71 1427.9,-44.14 1488,-31 1496.51,-29.14 1505.65,-27.03 1514.21,-25"/>
<polygon fill="midnightblue" stroke="midnightblue" points="1308.24,-64.05 1299.08,-69.38 1309.56,-70.92 1308.24,-64.05"/>
</g>
<!-- Node17&#45;&gt;Node7 -->
<g id="edge22" class="edge">
<title>Node17&#45;&gt;Node7</title>
<path fill="none" stroke="midnightblue" d="M1309.18,-73.81C1333.06,-71.47 1359.63,-68.98 1384,-67 1628.16,-47.13 1692.96,-74.7 1934,-31 1941.71,-29.6 1949.93,-27.4 1957.35,-25.12"/>
<polygon fill="midnightblue" stroke="midnightblue" points="1308.74,-70.34 1299.13,-74.81 1309.43,-77.31 1308.74,-70.34"/>
</g>
<!-- Node17&#45;&gt;Node8 -->
<g id="edge23" class="edge">
<title>Node17&#45;&gt;Node8</title>
<path fill="none" stroke="midnightblue" d="M1161,-65.78C1100.71,-52.97 1017.86,-35.38 969.22,-25.04"/>
<polygon fill="midnightblue" stroke="midnightblue" points="1160.34,-69.22 1170.85,-67.87 1161.8,-62.37 1160.34,-69.22"/>
</g>
<!-- Node17&#45;&gt;Node9 -->
<g id="edge24" class="edge">
<title>Node17&#45;&gt;Node9</title>
<path fill="none" stroke="midnightblue" d="M1239.1,-57.25C1241,-46.02 1243.14,-33.38 1244.53,-25.19"/>
<polygon fill="midnightblue" stroke="midnightblue" points="1235.6,-56.95 1237.39,-67.4 1242.51,-58.12 1235.6,-56.95"/>
</g>
<!-- Node17&#45;&gt;Node18 -->
<g id="edge25" class="edge">
<title>Node17&#45;&gt;Node18</title>
<path fill="none" stroke="midnightblue" d="M1160.66,-70.83C1148.43,-69.35 1135.88,-68 1124,-67 705.18,-31.74 597.39,-71.1 179,-31 164.04,-29.57 147.84,-27.32 133.17,-25.02"/>
<polygon fill="midnightblue" stroke="midnightblue" points="1160.48,-74.34 1170.84,-72.1 1161.35,-67.39 1160.48,-74.34"/>
</g>
<!-- Node19&#45;&gt;Node6 -->
<g id="edge44" class="edge">
<title>Node19&#45;&gt;Node6</title>
<path fill="none" stroke="midnightblue" d="M1511.67,-134.74C1531.64,-127.27 1551.02,-115.76 1563,-98 1578.33,-75.27 1562.99,-41.09 1554.21,-25.2"/>
<polygon fill="midnightblue" stroke="midnightblue" points="1510.49,-131.44 1502.17,-137.99 1512.76,-138.06 1510.49,-131.44"/>
</g>
<!-- Node19&#45;&gt;Node7 -->
<g id="edge45" class="edge">
<title>Node19&#45;&gt;Node7</title>
<path fill="none" stroke="midnightblue" d="M1512.42,-147.4C1659.5,-144.44 1976.11,-133.93 2009,-98 2028.32,-76.89 2003.47,-41.6 1989.84,-25.28"/>
<polygon fill="midnightblue" stroke="midnightblue" points="1512.06,-143.9 1502.13,-147.6 1512.19,-150.9 1512.06,-143.9"/>
</g>
<!-- Node19&#45;&gt;Node8 -->
<g id="edge46" class="edge">
<title>Node19&#45;&gt;Node8</title>
<path fill="none" stroke="midnightblue" d="M1363.59,-143.95C1241.69,-135.95 1009.71,-118.3 978,-98 950.89,-80.64 936.65,-42.44 931.4,-25.22"/>
<polygon fill="midnightblue" stroke="midnightblue" points="1363.4,-147.44 1373.61,-144.6 1363.85,-140.46 1363.4,-147.44"/>
</g>
<!-- Node19&#45;&gt;Node9 -->
<g id="edge47" class="edge">
<title>Node19&#45;&gt;Node9</title>
<path fill="none" stroke="midnightblue" d="M1415.8,-127.52C1396.81,-110.14 1368.28,-85.41 1341,-67 1315.92,-50.07 1284.54,-34.35 1264.87,-25.08"/>
<polygon fill="midnightblue" stroke="midnightblue" points="1413.61,-130.25 1423.33,-134.47 1418.36,-125.11 1413.61,-130.25"/>
</g>
<!-- Node19&#45;&gt;Node17 -->
<g id="edge43" class="edge">
<title>Node19&#45;&gt;Node17</title>
<path fill="none" stroke="midnightblue" d="M1384.06,-131.23C1351.22,-120.71 1309.8,-107.45 1278.96,-97.58"/>
<polygon fill="midnightblue" stroke="midnightblue" points="1383.36,-134.68 1393.95,-134.4 1385.5,-128.01 1383.36,-134.68"/>
</g>
<!-- Node20 -->
<g id="node20" class="node">
<title>Node20</title>
<g id="a_node20"><a xlink:href="cross__entropy_8hpp.html" target="_top" xlink:title=" ">
<polygon fill="none" stroke="black" points="1615,-67.5 1615,-97.5 1745,-97.5 1745,-67.5 1615,-67.5"/>
<text text-anchor="start" x="1623" y="-85.5" font-family="Helvetica,sans-Serif" font-size="10.00">include/nmbuflowtorch</text>
<text text-anchor="middle" x="1680" y="-74.5" font-family="Helvetica,sans-Serif" font-size="10.00">/loss/cross_entropy.hpp</text>
</a>
</g>
</g>
<!-- Node19&#45;&gt;Node20 -->
<g id="edge31" class="edge">
<title>Node19&#45;&gt;Node20</title>
<path fill="none" stroke="midnightblue" d="M1499.99,-131.85C1539.45,-121.25 1589.99,-107.68 1627.46,-97.61"/>
<polygon fill="midnightblue" stroke="midnightblue" points="1498.96,-128.5 1490.21,-134.48 1500.78,-135.26 1498.96,-128.5"/>
</g>
<!-- Node22 -->
<g id="node22" class="node">
<title>Node22</title>
<g id="a_node22"><a xlink:href="mse_8hpp.html" target="_top" xlink:title=" ">
<polygon fill="none" stroke="black" points="1393,-67.5 1393,-97.5 1521,-97.5 1521,-67.5 1393,-67.5"/>
<text text-anchor="start" x="1401" y="-85.5" font-family="Helvetica,sans-Serif" font-size="10.00">include/nmbuflowtorch</text>
<text text-anchor="middle" x="1457" y="-74.5" font-family="Helvetica,sans-Serif" font-size="10.00">/loss/mse.hpp</text>
</a>
</g>
</g>
<!-- Node19&#45;&gt;Node22 -->
<g id="edge37" class="edge">
<title>Node19&#45;&gt;Node22</title>
<path fill="none" stroke="midnightblue" d="M1444.96,-124.7C1447.62,-115.59 1450.57,-105.49 1452.89,-97.58"/>
<polygon fill="midnightblue" stroke="midnightblue" points="1441.57,-123.82 1442.12,-134.4 1448.29,-125.78 1441.57,-123.82"/>
</g>
<!-- Node20&#45;&gt;Node6 -->
<g id="edge32" class="edge">
<title>Node20&#45;&gt;Node6</title>
<path fill="none" stroke="midnightblue" d="M1642.32,-62.8C1617.2,-50.34 1585.39,-34.56 1566.14,-25.01"/>
<polygon fill="midnightblue" stroke="midnightblue" points="1641.06,-66.09 1651.57,-67.4 1644.17,-59.82 1641.06,-66.09"/>
</g>
<!-- Node20&#45;&gt;Node7 -->
<g id="edge33" class="edge">
<title>Node20&#45;&gt;Node7</title>
<path fill="none" stroke="midnightblue" d="M1755.03,-68.56C1805.82,-59.32 1874.3,-45.92 1934,-31 1941.01,-29.25 1948.52,-27.11 1955.47,-25.02"/>
<polygon fill="midnightblue" stroke="midnightblue" points="1754.33,-65.13 1745.11,-70.35 1755.58,-72.02 1754.33,-65.13"/>
</g>
<!-- Node20&#45;&gt;Node8 -->
<g id="edge34" class="edge">
<title>Node20&#45;&gt;Node8</title>
<path fill="none" stroke="midnightblue" d="M1604.64,-73.81C1580.78,-71.48 1554.3,-69.01 1530,-67 1298.69,-47.83 1239.32,-59.74 1009,-31 996.67,-29.46 983.37,-27.27 971.21,-25.05"/>
<polygon fill="midnightblue" stroke="midnightblue" points="1604.4,-77.3 1614.69,-74.79 1605.08,-70.33 1604.4,-77.3"/>
</g>
<!-- Node20&#45;&gt;Node9 -->
<g id="edge35" class="edge">
<title>Node20&#45;&gt;Node9</title>
<path fill="none" stroke="midnightblue" d="M1604.9,-70.47C1536,-60.32 1431.1,-44.79 1340,-31 1327.43,-29.1 1313.92,-27.03 1301.16,-25.06"/>
<polygon fill="midnightblue" stroke="midnightblue" points="1604.4,-73.93 1614.8,-71.93 1605.42,-67.01 1604.4,-73.93"/>
</g>
<!-- Node21 -->
<g id="node21" class="node">
<title>Node21</title>
<g id="a_node21"><a xlink:href="cross__entropy_8cpp.html" target="_top" xlink:title=" ">
<polygon fill="none" stroke="black" points="1619,-0.5 1619,-30.5 1749,-30.5 1749,-0.5 1619,-0.5"/>
<text text-anchor="start" x="1627" y="-18.5" font-family="Helvetica,sans-Serif" font-size="10.00">src/nmbuflowtorch/loss</text>
<text text-anchor="middle" x="1684" y="-7.5" font-family="Helvetica,sans-Serif" font-size="10.00">/cross_entropy.cpp</text>
</a>
</g>
</g>
<!-- Node20&#45;&gt;Node21 -->
<g id="edge36" class="edge">
<title>Node20&#45;&gt;Node21</title>
<path fill="none" stroke="midnightblue" d="M1681.48,-57.4C1682.04,-48.37 1682.65,-38.41 1683.13,-30.58"/>
<polygon fill="midnightblue" stroke="midnightblue" points="1677.99,-57.2 1680.87,-67.4 1684.98,-57.63 1677.99,-57.2"/>
</g>
<!-- Node22&#45;&gt;Node6 -->
<g id="edge38" class="edge">
<title>Node22&#45;&gt;Node6</title>
<path fill="none" stroke="midnightblue" d="M1485.58,-61.31C1502.86,-49.1 1523.98,-34.18 1536.96,-25.01"/>
<polygon fill="midnightblue" stroke="midnightblue" points="1483.11,-58.77 1476.96,-67.4 1487.15,-64.48 1483.11,-58.77"/>
</g>
<!-- Node22&#45;&gt;Node7 -->
<g id="edge39" class="edge">
<title>Node22&#45;&gt;Node7</title>
<path fill="none" stroke="midnightblue" d="M1531.69,-73.96C1660.98,-60.87 1914.6,-34.92 1934,-31 1941.51,-29.48 1949.53,-27.29 1956.82,-25.08"/>
<polygon fill="midnightblue" stroke="midnightblue" points="1531.07,-70.51 1521.47,-75 1531.77,-77.47 1531.07,-70.51"/>
</g>
<!-- Node22&#45;&gt;Node8 -->
<g id="edge40" class="edge">
<title>Node22&#45;&gt;Node8</title>
<path fill="none" stroke="midnightblue" d="M1382.5,-73.72C1274.35,-62.31 1079.14,-41.3 1009,-31 997.27,-29.28 984.62,-27.12 972.93,-25.01"/>
<polygon fill="midnightblue" stroke="midnightblue" points="1382.38,-77.22 1392.69,-74.79 1383.11,-70.26 1382.38,-77.22"/>
</g>
<!-- Node22&#45;&gt;Node9 -->
<g id="edge41" class="edge">
<title>Node22&#45;&gt;Node9</title>
<path fill="none" stroke="midnightblue" d="M1401.85,-64.51C1360.67,-51.83 1306.12,-35.02 1273.69,-25.03"/>
<polygon fill="midnightblue" stroke="midnightblue" points="1400.89,-67.88 1411.48,-67.48 1402.95,-61.19 1400.89,-67.88"/>
</g>
<!-- Node23 -->
<g id="node23" class="node">
<title>Node23</title>
<g id="a_node23"><a xlink:href="mse_8cpp.html" target="_top" xlink:title=" ">
<polygon fill="none" stroke="black" points="1349,-0.5 1349,-30.5 1479,-30.5 1479,-0.5 1349,-0.5"/>
<text text-anchor="start" x="1357" y="-18.5" font-family="Helvetica,sans-Serif" font-size="10.00">src/nmbuflowtorch/loss</text>
<text text-anchor="middle" x="1414" y="-7.5" font-family="Helvetica,sans-Serif" font-size="10.00">/mse.cpp</text>
</a>
</g>
</g>
<!-- Node22&#45;&gt;Node23 -->
<g id="edge42" class="edge">
<title>Node22&#45;&gt;Node23</title>
<path fill="none" stroke="midnightblue" d="M1442.03,-58.87C1435.8,-49.46 1428.77,-38.83 1423.31,-30.58"/>
<polygon fill="midnightblue" stroke="midnightblue" points="1439.23,-60.99 1447.67,-67.4 1445.07,-57.12 1439.23,-60.99"/>
</g>
<!-- Node24&#45;&gt;Node5 -->
<g id="edge49" class="edge">
<title>Node24&#45;&gt;Node5</title>
<path fill="none" stroke="midnightblue" d="M854.96,-124.7C857.62,-115.59 860.57,-105.49 862.89,-97.58"/>
<polygon fill="midnightblue" stroke="midnightblue" points="851.57,-123.82 852.12,-134.4 858.29,-125.78 851.57,-123.82"/>
</g>
<!-- Node24&#45;&gt;Node7 -->
<g id="edge50" class="edge">
<title>Node24&#45;&gt;Node7</title>
<path fill="none" stroke="midnightblue" d="M922.3,-141.67C953.66,-138.97 990.59,-136.03 1024,-134 1074.72,-130.91 1894.88,-124.89 1938,-98 1964.74,-81.32 1976.33,-42.41 1980.29,-25.08"/>
<polygon fill="midnightblue" stroke="midnightblue" points="921.98,-138.18 912.32,-142.54 922.58,-145.16 921.98,-138.18"/>
</g>
<!-- Node24&#45;&gt;Node8 -->
<g id="edge51" class="edge">
<title>Node24&#45;&gt;Node8</title>
<path fill="none" stroke="midnightblue" d="M773.92,-146.36C642.08,-141.78 377.86,-128.83 350,-98 340.76,-87.78 340.61,-77.09 350,-67 387.94,-26.22 794.75,-38.04 850,-31 862.17,-29.45 875.31,-27.25 887.31,-25.03"/>
<polygon fill="midnightblue" stroke="midnightblue" points="773.84,-149.86 783.95,-146.7 774.07,-142.86 773.84,-149.86"/>
</g>
<!-- Node24&#45;&gt;Node9 -->
<g id="edge52" class="edge">
<title>Node24&#45;&gt;Node9</title>
<path fill="none" stroke="midnightblue" d="M819.4,-128.11C798.59,-110.84 776.81,-85.95 794,-67 821.6,-36.57 1121.29,-36.5 1162,-31 1174.47,-29.32 1187.91,-27.15 1200.32,-25.01"/>
<polygon fill="midnightblue" stroke="midnightblue" points="817.24,-130.86 827.25,-134.32 821.58,-125.37 817.24,-130.86"/>
</g>
<!-- Node24&#45;&gt;Node18 -->
<g id="edge53" class="edge">
<title>Node24&#45;&gt;Node18</title>
<path fill="none" stroke="midnightblue" d="M773.68,-147.34C600.58,-144.07 181.13,-132.64 128,-98 101.73,-80.88 90.48,-42.2 86.65,-25.01"/>
<polygon fill="midnightblue" stroke="midnightblue" points="773.67,-150.84 783.73,-147.53 773.8,-143.84 773.67,-150.84"/>
</g>
<!-- Node25&#45;&gt;Node2 -->
<g id="edge56" class="edge">
<title>Node25&#45;&gt;Node2</title>
<path fill="none" stroke="midnightblue" d="M1577.8,-206.81C1468.13,-193.97 1264.59,-170.13 1161.06,-158"/>
<polygon fill="midnightblue" stroke="midnightblue" points="1577.45,-210.29 1587.79,-207.98 1578.27,-203.34 1577.45,-210.29"/>
</g>
<!-- Node25&#45;&gt;Node6 -->
<g id="edge69" class="edge">
<title>Node25&#45;&gt;Node6</title>
<path fill="none" stroke="midnightblue" d="M1683.01,-195.59C1724.39,-166.55 1788.67,-111.25 1754,-67 1752.68,-65.31 1643.32,-39 1584.89,-25.05"/>
<polygon fill="midnightblue" stroke="midnightblue" points="1680.84,-192.83 1674.57,-201.37 1684.8,-198.6 1680.84,-192.83"/>
</g>
<!-- Node25&#45;&gt;Node7 -->
<g id="edge70" class="edge">
<title>Node25&#45;&gt;Node7</title>
<path fill="none" stroke="midnightblue" d="M1709.76,-198.6C1741.77,-189.07 1782.2,-176.74 1818,-165 1857.4,-152.07 1866.57,-146.85 1906,-134 1958.94,-116.74 1992.76,-142.67 2026,-98 2044.24,-73.49 2011.17,-40.47 1992.9,-25.07"/>
<polygon fill="midnightblue" stroke="midnightblue" points="1708.71,-195.26 1700.12,-201.46 1710.7,-201.97 1708.71,-195.26"/>
</g>
<!-- Node25&#45;&gt;Node8 -->
<g id="edge71" class="edge">
<title>Node25&#45;&gt;Node8</title>
<path fill="none" stroke="midnightblue" d="M1577.85,-213.27C1395.45,-207.45 928.66,-190.48 775,-165 665.32,-146.81 601.26,-186.52 534,-98 471.13,-15.26 422.46,-94.51 850,-31 861.59,-29.28 874.07,-27.13 885.63,-25.01"/>
<polygon fill="midnightblue" stroke="midnightblue" points="1577.78,-216.77 1587.88,-213.59 1578,-209.77 1577.78,-216.77"/>
</g>
<!-- Node25&#45;&gt;Node9 -->
<g id="edge72" class="edge">
<title>Node25&#45;&gt;Node9</title>
<path fill="none" stroke="midnightblue" d="M1577.77,-209.54C1504.46,-202.42 1398.59,-188.43 1365,-165 1323.67,-136.17 1340.73,-105.31 1308,-67 1293.39,-49.9 1272.44,-34.22 1259.03,-25.01"/>
<polygon fill="midnightblue" stroke="midnightblue" points="1577.6,-213.04 1587.89,-210.5 1578.26,-206.07 1577.6,-213.04"/>
</g>
<!-- Node25&#45;&gt;Node17 -->
<g id="edge57" class="edge">
<title>Node25&#45;&gt;Node17</title>
<path fill="none" stroke="midnightblue" d="M1577.54,-210.05C1492.05,-202.82 1357.81,-188.19 1313,-165 1282.39,-149.16 1257,-116.58 1244.12,-97.76"/>
<polygon fill="midnightblue" stroke="midnightblue" points="1577.46,-213.56 1587.72,-210.9 1578.04,-206.58 1577.46,-213.56"/>
</g>
<!-- Node26 -->
<g id="node26" class="node">
<title>Node26</title>
<g id="a_node26"><a xlink:href="adam_8hpp.html" target="_top" xlink:title=" ">
<polygon fill="none" stroke="black" points="1915,-134.5 1915,-164.5 2043,-164.5 2043,-134.5 1915,-134.5"/>
<text text-anchor="start" x="1923" y="-152.5" font-family="Helvetica,sans-Serif" font-size="10.00">include/nmbuflowtorch</text>
<text text-anchor="middle" x="1979" y="-141.5" font-family="Helvetica,sans-Serif" font-size="10.00">/optimizer/adam.hpp</text>
</a>
</g>
</g>
<!-- Node25&#45;&gt;Node26 -->
<g id="edge58" class="edge">
<title>Node25&#45;&gt;Node26</title>
<path fill="none" stroke="midnightblue" d="M1726.22,-200.75C1783.1,-189.44 1860.76,-174 1914.93,-163.24"/>
<polygon fill="midnightblue" stroke="midnightblue" points="1725.34,-197.35 1716.21,-202.74 1726.71,-204.22 1725.34,-197.35"/>
</g>
<!-- Node28 -->
<g id="node28" class="node">
<title>Node28</title>
<g id="a_node28"><a xlink:href="nadam_8hpp.html" target="_top" xlink:title=" ">
<polygon fill="none" stroke="black" points="2327,-134.5 2327,-164.5 2455,-164.5 2455,-134.5 2327,-134.5"/>
<text text-anchor="start" x="2335" y="-152.5" font-family="Helvetica,sans-Serif" font-size="10.00">include/nmbuflowtorch</text>
<text text-anchor="middle" x="2391" y="-141.5" font-family="Helvetica,sans-Serif" font-size="10.00">/optimizer/nadam.hpp</text>
</a>
</g>
</g>
<!-- Node25&#45;&gt;Node28 -->
<g id="edge60" class="edge">
<title>Node25&#45;&gt;Node28</title>
<path fill="none" stroke="midnightblue" d="M1726.44,-208.95C1871.63,-196.18 2190.34,-168.15 2326.86,-156.14"/>
<polygon fill="midnightblue" stroke="midnightblue" points="1725.94,-205.48 1716.29,-209.85 1726.56,-212.46 1725.94,-205.48"/>
</g>
<!-- Node30 -->
<g id="node30" class="node">
<title>Node30</title>
<g id="a_node30"><a xlink:href="sgd_8hpp.html" target="_top" xlink:title=" ">
<polygon fill="none" stroke="black" points="1801,-67.5 1801,-97.5 1929,-97.5 1929,-67.5 1801,-67.5"/>
<text text-anchor="start" x="1809" y="-85.5" font-family="Helvetica,sans-Serif" font-size="10.00">include/nmbuflowtorch</text>
<text text-anchor="middle" x="1865" y="-74.5" font-family="Helvetica,sans-Serif" font-size="10.00">/optimizer/sgd.hpp</text>
</a>
</g>
</g>
<!-- Node25&#45;&gt;Node30 -->
<g id="edge63" class="edge">
<title>Node25&#45;&gt;Node30</title>
<path fill="none" stroke="midnightblue" d="M1715.48,-198.31C1739.06,-190.28 1765.33,-179.28 1787,-165 1815.29,-146.36 1840.97,-115.69 1854.64,-97.77"/>
<polygon fill="midnightblue" stroke="midnightblue" points="1714.3,-195.01 1705.9,-201.46 1716.49,-201.66 1714.3,-195.01"/>
</g>
<!-- Node27 -->
<g id="node27" class="node">
<title>Node27</title>
<g id="a_node27"><a xlink:href="adam_8cpp.html" target="_top" xlink:title=" ">
<polygon fill="none" stroke="black" points="2137.5,-67.5 2137.5,-97.5 2294.5,-97.5 2294.5,-67.5 2137.5,-67.5"/>
<text text-anchor="start" x="2145.5" y="-85.5" font-family="Helvetica,sans-Serif" font-size="10.00">src/nmbuflowtorch/optimizer</text>
<text text-anchor="middle" x="2216" y="-74.5" font-family="Helvetica,sans-Serif" font-size="10.00">/adam.cpp</text>
</a>
</g>
</g>
<!-- Node26&#45;&gt;Node27 -->
<g id="edge59" class="edge">
<title>Node26&#45;&gt;Node27</title>
<path fill="none" stroke="midnightblue" d="M2040.2,-131.71C2078.77,-121.14 2128,-107.63 2164.55,-97.61"/>
<polygon fill="midnightblue" stroke="midnightblue" points="2038.85,-128.46 2030.13,-134.48 2040.7,-135.21 2038.85,-128.46"/>
</g>
<!-- Node28&#45;&gt;Node7 -->
<g id="edge61" class="edge">
<title>Node28&#45;&gt;Node7</title>
<path fill="none" stroke="midnightblue" d="M2434.72,-129.98C2466.25,-114.08 2499.9,-90.13 2479,-67 2448.51,-33.26 2134.34,-20.91 2021.82,-17.55"/>
<polygon fill="midnightblue" stroke="midnightblue" points="2432.97,-126.94 2425.49,-134.45 2436.02,-133.24 2432.97,-126.94"/>
</g>
<!-- Node29 -->
<g id="node29" class="node">
<title>Node29</title>
<g id="a_node29"><a xlink:href="nadam_8cpp.html" target="_top" xlink:title=" ">
<polygon fill="none" stroke="black" points="2312.5,-67.5 2312.5,-97.5 2469.5,-97.5 2469.5,-67.5 2312.5,-67.5"/>
<text text-anchor="start" x="2320.5" y="-85.5" font-family="Helvetica,sans-Serif" font-size="10.00">src/nmbuflowtorch/optimizer</text>
<text text-anchor="middle" x="2391" y="-74.5" font-family="Helvetica,sans-Serif" font-size="10.00">/nadam.cpp</text>
</a>
</g>
</g>
<!-- Node28&#45;&gt;Node29 -->
<g id="edge62" class="edge">
<title>Node28&#45;&gt;Node29</title>
<path fill="none" stroke="midnightblue" d="M2391,-124.11C2391,-115.15 2391,-105.32 2391,-97.58"/>
<polygon fill="midnightblue" stroke="midnightblue" points="2387.5,-124.4 2391,-134.4 2394.5,-124.4 2387.5,-124.4"/>
</g>
<!-- Node30&#45;&gt;Node6 -->
<g id="edge64" class="edge">
<title>Node30&#45;&gt;Node6</title>
<path fill="none" stroke="midnightblue" d="M1790.99,-67.61C1740.01,-57.86 1670.77,-44.24 1610,-31 1601.49,-29.15 1592.34,-27.04 1583.79,-25.01"/>
<polygon fill="midnightblue" stroke="midnightblue" points="1790.46,-71.07 1800.94,-69.51 1791.77,-64.2 1790.46,-71.07"/>
</g>
<!-- Node30&#45;&gt;Node7 -->
<g id="edge65" class="edge">
<title>Node30&#45;&gt;Node7</title>
<path fill="none" stroke="midnightblue" d="M1899.25,-62.47C1921.58,-50.06 1949.65,-34.47 1966.69,-25.01"/>
<polygon fill="midnightblue" stroke="midnightblue" points="1897.43,-59.48 1890.39,-67.4 1900.83,-65.6 1897.43,-59.48"/>
</g>
<!-- Node30&#45;&gt;Node8 -->
<g id="edge66" class="edge">
<title>Node30&#45;&gt;Node8</title>
<path fill="none" stroke="midnightblue" d="M1790.65,-70.94C1778.43,-69.44 1765.87,-68.06 1754,-67 1423.82,-37.51 1338.35,-68.64 1009,-31 996.38,-29.56 982.74,-27.34 970.37,-25.06"/>
<polygon fill="midnightblue" stroke="midnightblue" points="1790.47,-74.44 1800.83,-72.21 1791.34,-67.5 1790.47,-74.44"/>
</g>
<!-- Node30&#45;&gt;Node9 -->
<g id="edge67" class="edge">
<title>Node30&#45;&gt;Node9</title>
<path fill="none" stroke="midnightblue" d="M1790.61,-71.33C1778.39,-69.79 1765.85,-68.29 1754,-67 1570.39,-47.03 1523.37,-53.09 1340,-31 1326.07,-29.32 1311.02,-27.16 1297.14,-25.02"/>
<polygon fill="midnightblue" stroke="midnightblue" points="1790.42,-74.84 1800.78,-72.63 1791.31,-67.89 1790.42,-74.84"/>
</g>
<!-- Node31 -->
<g id="node31" class="node">
<title>Node31</title>
<g id="a_node31"><a xlink:href="sgd_8cpp.html" target="_top" xlink:title=" ">
<polygon fill="none" stroke="black" points="1767.5,-0.5 1767.5,-30.5 1924.5,-30.5 1924.5,-0.5 1767.5,-0.5"/>
<text text-anchor="start" x="1775.5" y="-18.5" font-family="Helvetica,sans-Serif" font-size="10.00">src/nmbuflowtorch/optimizer</text>
<text text-anchor="middle" x="1846" y="-7.5" font-family="Helvetica,sans-Serif" font-size="10.00">/sgd.cpp</text>
</a>
</g>
</g>
<!-- Node30&#45;&gt;Node31 -->
<g id="edge68" class="edge">
<title>Node30&#45;&gt;Node31</title>
<path fill="none" stroke="midnightblue" d="M1858.04,-57.7C1855.38,-48.59 1852.43,-38.49 1850.11,-30.58"/>
<polygon fill="midnightblue" stroke="midnightblue" points="1854.71,-58.78 1860.88,-67.4 1861.43,-56.82 1854.71,-58.78"/>
</g>
</g>
</svg>
