<?xml version="1.0" encoding="UTF-8" standalone="no"?>
<!DOCTYPE svg PUBLIC "-//W3C//DTD SVG 1.1//EN"
 "http://www.w3.org/Graphics/SVG/1.1/DTD/svg11.dtd">
<!-- Generated by graphviz version 2.43.0 (0)
 -->
<!-- Title: src/nmbuflowtorch/layer/dense.cpp Pages: 1 -->
<svg width="495pt" height="330pt"
 viewBox="0.00 0.00 494.50 330.00" xmlns="http://www.w3.org/2000/svg" xmlns:xlink="http://www.w3.org/1999/xlink">
<g id="graph0" class="graph" transform="scale(1 1) rotate(0) translate(4 326)">
<title>src/nmbuflowtorch/layer/dense.cpp</title>
<!-- Node1 -->
<g id="node1" class="node">
<title>Node1</title>
<g id="a_node1"><a xlink:title=" ">
<polygon fill="#bfbfbf" stroke="black" points="120,-291.5 120,-321.5 255,-321.5 255,-291.5 120,-291.5"/>
<text text-anchor="start" x="128" y="-309.5" font-family="Helvetica,sans-Serif" font-size="10.00">src/nmbuflowtorch/layer</text>
<text text-anchor="middle" x="187.5" y="-298.5" font-family="Helvetica,sans-Serif" font-size="10.00">/dense.cpp</text>
</a>
</g>
</g>
<!-- Node2 -->
<g id="node2" class="node">
<title>Node2</title>
<g id="a_node2"><a xlink:href="dense_8hpp.html" target="_top" xlink:title=" ">
<polygon fill="none" stroke="black" points="128.5,-224.5 128.5,-254.5 246.5,-254.5 246.5,-224.5 128.5,-224.5"/>
<text text-anchor="start" x="136.5" y="-242.5" font-family="Helvetica,sans-Serif" font-size="10.00">nmbuflowtorch/layer</text>
<text text-anchor="middle" x="187.5" y="-231.5" font-family="Helvetica,sans-Serif" font-size="10.00">/dense.hpp</text>
</a>
</g>
</g>
<!-- Node1&#45;&gt;Node2 -->
<g id="edge1" class="edge">
<title>Node1&#45;&gt;Node2</title>
<path fill="none" stroke="midnightblue" d="M187.5,-291.4C187.5,-283.64 187.5,-273.81 187.5,-264.86"/>
<polygon fill="midnightblue" stroke="midnightblue" points="191,-264.58 187.5,-254.58 184,-264.58 191,-264.58"/>
</g>
<!-- Node3 -->
<g id="node3" class="node">
<title>Node3</title>
<g id="a_node3"><a xlink:title=" ">
<polygon fill="none" stroke="#bfbfbf" points="0,-0.5 0,-19.5 47,-19.5 47,-0.5 0,-0.5"/>
<text text-anchor="middle" x="23.5" y="-7.5" font-family="Helvetica,sans-Serif" font-size="10.00">vector</text>
</a>
</g>
</g>
<!-- Node2&#45;&gt;Node3 -->
<g id="edge2" class="edge">
<title>Node2&#45;&gt;Node3</title>
<path fill="none" stroke="midnightblue" d="M147.15,-224.49C127.45,-216.17 104.42,-204.07 87.5,-188 47.15,-149.67 46,-129.73 31.5,-76 27.37,-60.72 25.37,-42.83 24.4,-29.7"/>
<polygon fill="midnightblue" stroke="midnightblue" points="27.88,-29.33 23.79,-19.56 20.9,-29.75 27.88,-29.33"/>
</g>
<!-- Node4 -->
<g id="node4" class="node">
<title>Node4</title>
<g id="a_node4"><a xlink:title=" ">
<polygon fill="none" stroke="#bfbfbf" points="442.5,-0.5 442.5,-19.5 486.5,-19.5 486.5,-0.5 442.5,-0.5"/>
<text text-anchor="middle" x="464.5" y="-7.5" font-family="Helvetica,sans-Serif" font-size="10.00">string</text>
</a>
</g>
</g>
<!-- Node2&#45;&gt;Node4 -->
<g id="edge3" class="edge">
<title>Node2&#45;&gt;Node4</title>
<path fill="none" stroke="midnightblue" d="M223.12,-224.36C243.49,-215.43 268.99,-202.81 289.5,-188 358,-138.54 423.95,-61.38 451.29,-27.68"/>
<polygon fill="midnightblue" stroke="midnightblue" points="454.13,-29.73 457.66,-19.74 448.67,-25.35 454.13,-29.73"/>
</g>
<!-- Node5 -->
<g id="node5" class="node">
<title>Node5</title>
<g id="a_node5"><a xlink:href="layer_8hpp.html" target="_top" xlink:title=" ">
<polygon fill="none" stroke="black" points="97,-168.5 97,-187.5 168,-187.5 168,-168.5 97,-168.5"/>
<text text-anchor="middle" x="132.5" y="-175.5" font-family="Helvetica,sans-Serif" font-size="10.00">../layer.hpp</text>
</a>
</g>
</g>
<!-- Node2&#45;&gt;Node5 -->
<g id="edge4" class="edge">
<title>Node2&#45;&gt;Node5</title>
<path fill="none" stroke="midnightblue" d="M174.47,-224.4C166.31,-215.58 155.78,-204.18 147.31,-195.02"/>
<polygon fill="midnightblue" stroke="midnightblue" points="149.86,-192.63 140.5,-187.66 144.72,-197.38 149.86,-192.63"/>
</g>
<!-- Node14 -->
<g id="node14" class="node">
<title>Node14</title>
<g id="a_node14"><a xlink:href="math__m_8hpp.html" target="_top" xlink:title=" ">
<polygon fill="none" stroke="black" points="193,-168.5 193,-187.5 280,-187.5 280,-168.5 193,-168.5"/>
<text text-anchor="middle" x="236.5" y="-175.5" font-family="Helvetica,sans-Serif" font-size="10.00">../math_m.hpp</text>
</a>
</g>
</g>
<!-- Node2&#45;&gt;Node14 -->
<g id="edge17" class="edge">
<title>Node2&#45;&gt;Node14</title>
<path fill="none" stroke="midnightblue" d="M199.11,-224.4C206.23,-215.75 215.38,-204.64 222.85,-195.58"/>
<polygon fill="midnightblue" stroke="midnightblue" points="225.71,-197.6 229.37,-187.66 220.31,-193.15 225.71,-197.6"/>
</g>
<!-- Node5&#45;&gt;Node3 -->
<g id="edge5" class="edge">
<title>Node5&#45;&gt;Node3</title>
<path fill="none" stroke="midnightblue" d="M116.25,-168.44C102.67,-160.57 83.63,-147.74 71.5,-132 47.22,-100.48 33.63,-55.1 27.52,-29.82"/>
<polygon fill="midnightblue" stroke="midnightblue" points="30.85,-28.71 25.22,-19.74 24.03,-30.27 30.85,-28.71"/>
</g>
<!-- Node6 -->
<g id="node6" class="node">
<title>Node6</title>
<g id="a_node6"><a xlink:href="definitions_8hpp.html" target="_top" xlink:title=" ">
<polygon fill="none" stroke="black" points="189,-56.5 189,-75.5 284,-75.5 284,-56.5 189,-56.5"/>
<text text-anchor="middle" x="236.5" y="-63.5" font-family="Helvetica,sans-Serif" font-size="10.00">./definitions.hpp</text>
</a>
</g>
</g>
<!-- Node5&#45;&gt;Node6 -->
<g id="edge6" class="edge">
<title>Node5&#45;&gt;Node6</title>
<path fill="none" stroke="midnightblue" d="M142.1,-168.27C151.77,-159.37 167,-145.06 179.5,-132 194.82,-115.99 211.43,-96.82 222.75,-83.47"/>
<polygon fill="midnightblue" stroke="midnightblue" points="225.59,-85.53 229.35,-75.62 220.23,-81.02 225.59,-85.53"/>
</g>
<!-- Node12 -->
<g id="node12" class="node">
<title>Node12</title>
<g id="a_node12"><a xlink:href="optimizer_8hpp.html" target="_top" xlink:title=" ">
<polygon fill="none" stroke="black" points="80.5,-112.5 80.5,-131.5 170.5,-131.5 170.5,-112.5 80.5,-112.5"/>
<text text-anchor="middle" x="125.5" y="-119.5" font-family="Helvetica,sans-Serif" font-size="10.00">./optimizer.hpp</text>
</a>
</g>
</g>
<!-- Node5&#45;&gt;Node12 -->
<g id="edge14" class="edge">
<title>Node5&#45;&gt;Node12</title>
<path fill="none" stroke="midnightblue" d="M131.34,-168.08C130.42,-160.93 129.08,-150.64 127.92,-141.69"/>
<polygon fill="midnightblue" stroke="midnightblue" points="131.39,-141.22 126.63,-131.75 124.45,-142.12 131.39,-141.22"/>
</g>
<!-- Node6&#45;&gt;Node3 -->
<g id="edge13" class="edge">
<title>Node6&#45;&gt;Node3</title>
<path fill="none" stroke="midnightblue" d="M200.7,-56.44C166.2,-48.12 112.28,-34.91 57.18,-20.39"/>
<polygon fill="midnightblue" stroke="midnightblue" points="57.81,-16.94 47.24,-17.76 56.02,-23.71 57.81,-16.94"/>
</g>
<!-- Node6&#45;&gt;Node4 -->
<g id="edge12" class="edge">
<title>Node6&#45;&gt;Node4</title>
<path fill="none" stroke="midnightblue" d="M277.04,-56.46C314.88,-48.33 373.12,-35.4 432.3,-20.2"/>
<polygon fill="midnightblue" stroke="midnightblue" points="433.39,-23.54 442.19,-17.64 431.63,-16.76 433.39,-23.54"/>
</g>
<!-- Node7 -->
<g id="node7" class="node">
<title>Node7</title>
<g id="a_node7"><a xlink:title=" ">
<polygon fill="none" stroke="#bfbfbf" points="272.5,-0.5 272.5,-19.5 328.5,-19.5 328.5,-0.5 272.5,-0.5"/>
<text text-anchor="middle" x="300.5" y="-7.5" font-family="Helvetica,sans-Serif" font-size="10.00">unistd.h</text>
</a>
</g>
</g>
<!-- Node6&#45;&gt;Node7 -->
<g id="edge7" class="edge">
<title>Node6&#45;&gt;Node7</title>
<path fill="none" stroke="midnightblue" d="M246.78,-56.32C256.34,-48.26 270.78,-36.08 282.28,-26.37"/>
<polygon fill="midnightblue" stroke="midnightblue" points="284.64,-28.96 290.03,-19.83 280.13,-23.61 284.64,-28.96"/>
</g>
<!-- Node8 -->
<g id="node8" class="node">
<title>Node8</title>
<g id="a_node8"><a xlink:title=" ">
<polygon fill="none" stroke="#bfbfbf" points="347,-0.5 347,-19.5 424,-19.5 424,-0.5 347,-0.5"/>
<text text-anchor="middle" x="385.5" y="-7.5" font-family="Helvetica,sans-Serif" font-size="10.00">Eigen/Dense</text>
</a>
</g>
</g>
<!-- Node6&#45;&gt;Node8 -->
<g id="edge8" class="edge">
<title>Node6&#45;&gt;Node8</title>
<path fill="none" stroke="midnightblue" d="M260.11,-56.44C284.96,-47.44 324.27,-33.19 352.25,-23.05"/>
<polygon fill="midnightblue" stroke="midnightblue" points="353.79,-26.21 362,-19.52 351.41,-19.63 353.79,-26.21"/>
</g>
<!-- Node9 -->
<g id="node9" class="node">
<title>Node9</title>
<g id="a_node9"><a xlink:title=" ">
<polygon fill="none" stroke="#bfbfbf" points="65,-0.5 65,-19.5 112,-19.5 112,-0.5 65,-0.5"/>
<text text-anchor="middle" x="88.5" y="-7.5" font-family="Helvetica,sans-Serif" font-size="10.00">cmath</text>
</a>
</g>
</g>
<!-- Node6&#45;&gt;Node9 -->
<g id="edge9" class="edge">
<title>Node6&#45;&gt;Node9</title>
<path fill="none" stroke="midnightblue" d="M213.05,-56.44C188.37,-47.44 149.31,-33.19 121.52,-23.05"/>
<polygon fill="midnightblue" stroke="midnightblue" points="122.44,-19.66 111.84,-19.52 120.04,-26.23 122.44,-19.66"/>
</g>
<!-- Node10 -->
<g id="node10" class="node">
<title>Node10</title>
<g id="a_node10"><a xlink:title=" ">
<polygon fill="none" stroke="#bfbfbf" points="130.5,-0.5 130.5,-19.5 176.5,-19.5 176.5,-0.5 130.5,-0.5"/>
<text text-anchor="middle" x="153.5" y="-7.5" font-family="Helvetica,sans-Serif" font-size="10.00">cstdio</text>
</a>
</g>
</g>
<!-- Node6&#45;&gt;Node10 -->
<g id="edge10" class="edge">
<title>Node6&#45;&gt;Node10</title>
<path fill="none" stroke="midnightblue" d="M223.16,-56.32C210.34,-47.98 190.72,-35.21 175.56,-25.35"/>
<polygon fill="midnightblue" stroke="midnightblue" points="177.09,-22.17 166.8,-19.65 173.28,-28.04 177.09,-22.17"/>
</g>
<!-- Node11 -->
<g id="node11" class="node">
<title>Node11</title>
<g id="a_node11"><a xlink:title=" ">
<polygon fill="none" stroke="#bfbfbf" points="194.5,-0.5 194.5,-19.5 254.5,-19.5 254.5,-0.5 194.5,-0.5"/>
<text text-anchor="middle" x="224.5" y="-7.5" font-family="Helvetica,sans-Serif" font-size="10.00">iostream</text>
</a>
</g>
</g>
<!-- Node6&#45;&gt;Node11 -->
<g id="edge11" class="edge">
<title>Node6&#45;&gt;Node11</title>
<path fill="none" stroke="midnightblue" d="M234.52,-56.08C232.93,-48.93 230.64,-38.64 228.65,-29.69"/>
<polygon fill="midnightblue" stroke="midnightblue" points="232.03,-28.75 226.44,-19.75 225.2,-30.27 232.03,-28.75"/>
</g>
<!-- Node12&#45;&gt;Node6 -->
<g id="edge16" class="edge">
<title>Node12&#45;&gt;Node6</title>
<path fill="none" stroke="midnightblue" d="M143.33,-112.32C161.22,-103.62 188.98,-90.12 209.55,-80.11"/>
<polygon fill="midnightblue" stroke="midnightblue" points="211.25,-83.18 218.71,-75.65 208.19,-76.88 211.25,-83.18"/>
</g>
<!-- Node13 -->
<g id="node13" class="node">
<title>Node13</title>
<g id="a_node13"><a xlink:title=" ">
<polygon fill="none" stroke="#bfbfbf" points="78,-56.5 78,-75.5 171,-75.5 171,-56.5 78,-56.5"/>
<text text-anchor="middle" x="124.5" y="-63.5" font-family="Helvetica,sans-Serif" font-size="10.00">unordered_map</text>
</a>
</g>
</g>
<!-- Node12&#45;&gt;Node13 -->
<g id="edge15" class="edge">
<title>Node12&#45;&gt;Node13</title>
<path fill="none" stroke="midnightblue" d="M125.33,-112.08C125.2,-105.01 125.02,-94.86 124.85,-85.99"/>
<polygon fill="midnightblue" stroke="midnightblue" points="128.35,-85.68 124.66,-75.75 121.35,-85.81 128.35,-85.68"/>
</g>
<!-- Node14&#45;&gt;Node6 -->
<g id="edge19" class="edge">
<title>Node14&#45;&gt;Node6</title>
<path fill="none" stroke="midnightblue" d="M236.5,-168.37C236.5,-150.62 236.5,-109.67 236.5,-85.6"/>
<polygon fill="midnightblue" stroke="midnightblue" points="240,-85.59 236.5,-75.59 233,-85.59 240,-85.59"/>
</g>
<!-- Node15 -->
<g id="node15" class="node">
<title>Node15</title>
<g id="a_node15"><a xlink:title=" ">
<polygon fill="none" stroke="#bfbfbf" points="265,-112.5 265,-131.5 316,-131.5 316,-112.5 265,-112.5"/>
<text text-anchor="middle" x="290.5" y="-119.5" font-family="Helvetica,sans-Serif" font-size="10.00">cblas.h</text>
</a>
</g>
</g>
<!-- Node14&#45;&gt;Node15 -->
<g id="edge18" class="edge">
<title>Node14&#45;&gt;Node15</title>
<path fill="none" stroke="midnightblue" d="M245.42,-168.08C253.28,-160.22 264.93,-148.57 274.42,-139.08"/>
<polygon fill="midnightblue" stroke="midnightblue" points="277.15,-141.3 281.75,-131.75 272.2,-136.35 277.15,-141.3"/>
</g>
</g>
</svg>
