<?xml version="1.0" encoding="UTF-8" standalone="no"?>
<!DOCTYPE svg PUBLIC "-//W3C//DTD SVG 1.1//EN"
 "http://www.w3.org/Graphics/SVG/1.1/DTD/svg11.dtd">
<!-- Generated by graphviz version 2.43.0 (0)
 -->
<!-- Title: src/nmbuflowtorch/layer/dense.cpp Pages: 1 -->
<svg width="495pt" height="330pt"
 viewBox="0.00 0.00 494.50 330.00" xmlns="http://www.w3.org/2000/svg" xmlns:xlink="http://www.w3.org/1999/xlink">
<g id="graph0" class="graph" transform="scale(1 1) rotate(0) translate(4 326)">
<title>src/nmbuflowtorch/layer/dense.cpp</title>
<!-- Node1 -->
<g id="node1" class="node">
<title>Node1</title>
<g id="a_node1"><a xlink:title=" ">
<polygon fill="#bfbfbf" stroke="black" points="227,-291.5 227,-321.5 361,-321.5 361,-291.5 227,-291.5"/>
<text text-anchor="start" x="235" y="-309.5" font-family="Helvetica,sans-Serif" font-size="10.00">src/nmbuflowtorch/layer</text>
<text text-anchor="middle" x="294" y="-298.5" font-family="Helvetica,sans-Serif" font-size="10.00">/dense.cpp</text>
</a>
</g>
</g>
<!-- Node2 -->
<g id="node2" class="node">
<title>Node2</title>
<g id="a_node2"><a xlink:href="dense_8hpp.html" target="_top" xlink:title=" ">
<polygon fill="none" stroke="black" points="235.5,-224.5 235.5,-254.5 352.5,-254.5 352.5,-224.5 235.5,-224.5"/>
<text text-anchor="start" x="243.5" y="-242.5" font-family="Helvetica,sans-Serif" font-size="10.00">nmbuflowtorch/layer</text>
<text text-anchor="middle" x="294" y="-231.5" font-family="Helvetica,sans-Serif" font-size="10.00">/dense.hpp</text>
</a>
</g>
</g>
<!-- Node1&#45;&gt;Node2 -->
<g id="edge1" class="edge">
<title>Node1&#45;&gt;Node2</title>
<path fill="none" stroke="midnightblue" d="M294,-291.4C294,-283.64 294,-273.81 294,-264.86"/>
<polygon fill="midnightblue" stroke="midnightblue" points="297.5,-264.58 294,-254.58 290.5,-264.58 297.5,-264.58"/>
</g>
<!-- Node3 -->
<g id="node3" class="node">
<title>Node3</title>
<g id="a_node3"><a xlink:title=" ">
<polygon fill="none" stroke="#bfbfbf" points="0,-0.5 0,-19.5 44,-19.5 44,-0.5 0,-0.5"/>
<text text-anchor="middle" x="22" y="-7.5" font-family="Helvetica,sans-Serif" font-size="10.00">string</text>
</a>
</g>
</g>
<!-- Node2&#45;&gt;Node3 -->
<g id="edge2" class="edge">
<title>Node2&#45;&gt;Node3</title>
<path fill="none" stroke="midnightblue" d="M249.73,-224.44C227.02,-215.98 199.66,-203.78 178,-188 113.23,-140.83 56.36,-62.4 33.14,-28.03"/>
<polygon fill="midnightblue" stroke="midnightblue" points="35.95,-25.95 27.5,-19.56 30.13,-29.83 35.95,-25.95"/>
</g>
<!-- Node4 -->
<g id="node4" class="node">
<title>Node4</title>
<g id="a_node4"><a xlink:title=" ">
<polygon fill="none" stroke="#bfbfbf" points="439.5,-0.5 439.5,-19.5 486.5,-19.5 486.5,-0.5 439.5,-0.5"/>
<text text-anchor="middle" x="463" y="-7.5" font-family="Helvetica,sans-Serif" font-size="10.00">vector</text>
</a>
</g>
</g>
<!-- Node2&#45;&gt;Node4 -->
<g id="edge3" class="edge">
<title>Node2&#45;&gt;Node4</title>
<path fill="none" stroke="midnightblue" d="M327.83,-224.48C346.71,-215.68 369.99,-203.14 388,-188 432.76,-150.38 442.2,-132.56 457,-76 460.99,-60.74 462.42,-42.85 462.89,-29.71"/>
<polygon fill="midnightblue" stroke="midnightblue" points="466.39,-29.64 463.09,-19.57 459.39,-29.49 466.39,-29.64"/>
</g>
<!-- Node5 -->
<g id="node5" class="node">
<title>Node5</title>
<g id="a_node5"><a xlink:href="layer_8hpp.html" target="_top" xlink:title=" ">
<polygon fill="none" stroke="black" points="307.5,-168.5 307.5,-187.5 378.5,-187.5 378.5,-168.5 307.5,-168.5"/>
<text text-anchor="middle" x="343" y="-175.5" font-family="Helvetica,sans-Serif" font-size="10.00">../layer.hpp</text>
</a>
</g>
</g>
<!-- Node2&#45;&gt;Node5 -->
<g id="edge4" class="edge">
<title>Node2&#45;&gt;Node5</title>
<path fill="none" stroke="midnightblue" d="M305.61,-224.4C312.73,-215.75 321.88,-204.64 329.35,-195.58"/>
<polygon fill="midnightblue" stroke="midnightblue" points="332.21,-197.6 335.87,-187.66 326.81,-193.15 332.21,-197.6"/>
</g>
<!-- Node14 -->
<g id="node14" class="node">
<title>Node14</title>
<g id="a_node14"><a xlink:href="math__m_8hpp.html" target="_top" xlink:title=" ">
<polygon fill="none" stroke="black" points="187.5,-168.5 187.5,-187.5 274.5,-187.5 274.5,-168.5 187.5,-168.5"/>
<text text-anchor="middle" x="231" y="-175.5" font-family="Helvetica,sans-Serif" font-size="10.00">../math_m.hpp</text>
</a>
</g>
</g>
<!-- Node2&#45;&gt;Node14 -->
<g id="edge17" class="edge">
<title>Node2&#45;&gt;Node14</title>
<path fill="none" stroke="midnightblue" d="M279.07,-224.4C269.63,-215.49 257.42,-203.95 247.67,-194.74"/>
<polygon fill="midnightblue" stroke="midnightblue" points="249.84,-191.98 240.17,-187.66 245.03,-197.07 249.84,-191.98"/>
</g>
<!-- Node5&#45;&gt;Node4 -->
<g id="edge5" class="edge">
<title>Node5&#45;&gt;Node4</title>
<path fill="none" stroke="midnightblue" d="M362.23,-168.4C377.49,-160.75 398.43,-148.24 412,-132 437.97,-100.91 452.46,-54.68 458.89,-29.31"/>
<polygon fill="midnightblue" stroke="midnightblue" points="462.31,-30.07 461.23,-19.53 455.5,-28.44 462.31,-30.07"/>
</g>
<!-- Node6 -->
<g id="node6" class="node">
<title>Node6</title>
<g id="a_node6"><a xlink:href="definitions_8hpp.html" target="_top" xlink:title=" ">
<polygon fill="none" stroke="black" points="198.5,-56.5 198.5,-75.5 293.5,-75.5 293.5,-56.5 198.5,-56.5"/>
<text text-anchor="middle" x="246" y="-63.5" font-family="Helvetica,sans-Serif" font-size="10.00">./definitions.hpp</text>
</a>
</g>
</g>
<!-- Node5&#45;&gt;Node6 -->
<g id="edge6" class="edge">
<title>Node5&#45;&gt;Node6</title>
<path fill="none" stroke="midnightblue" d="M335.39,-168.37C319.24,-150.05 281.32,-107.05 260.43,-83.36"/>
<polygon fill="midnightblue" stroke="midnightblue" points="262.82,-80.78 253.58,-75.59 257.56,-85.41 262.82,-80.78"/>
</g>
<!-- Node12 -->
<g id="node12" class="node">
<title>Node12</title>
<g id="a_node12"><a xlink:href="optimizer_8hpp.html" target="_top" xlink:title=" ">
<polygon fill="none" stroke="black" points="313.5,-112.5 313.5,-131.5 402.5,-131.5 402.5,-112.5 313.5,-112.5"/>
<text text-anchor="middle" x="358" y="-119.5" font-family="Helvetica,sans-Serif" font-size="10.00">./optimizer.hpp</text>
</a>
</g>
</g>
<!-- Node5&#45;&gt;Node12 -->
<g id="edge14" class="edge">
<title>Node5&#45;&gt;Node12</title>
<path fill="none" stroke="midnightblue" d="M345.48,-168.08C347.49,-160.85 350.39,-150.41 352.89,-141.4"/>
<polygon fill="midnightblue" stroke="midnightblue" points="356.26,-142.32 355.57,-131.75 349.52,-140.45 356.26,-142.32"/>
</g>
<!-- Node6&#45;&gt;Node3 -->
<g id="edge12" class="edge">
<title>Node6&#45;&gt;Node3</title>
<path fill="none" stroke="midnightblue" d="M206.67,-56.48C169.62,-48.3 112.36,-35.3 54.06,-20.18"/>
<polygon fill="midnightblue" stroke="midnightblue" points="54.87,-16.77 44.31,-17.63 53.1,-23.55 54.87,-16.77"/>
</g>
<!-- Node6&#45;&gt;Node4 -->
<g id="edge13" class="edge">
<title>Node6&#45;&gt;Node4</title>
<path fill="none" stroke="midnightblue" d="M282.03,-56.48C317.15,-48.12 372.29,-34.81 429.32,-20.13"/>
<polygon fill="midnightblue" stroke="midnightblue" points="430.42,-23.46 439.23,-17.56 428.67,-16.68 430.42,-23.46"/>
</g>
<!-- Node7 -->
<g id="node7" class="node">
<title>Node7</title>
<g id="a_node7"><a xlink:title=" ">
<polygon fill="none" stroke="#bfbfbf" points="62,-0.5 62,-19.5 118,-19.5 118,-0.5 62,-0.5"/>
<text text-anchor="middle" x="90" y="-7.5" font-family="Helvetica,sans-Serif" font-size="10.00">unistd.h</text>
</a>
</g>
</g>
<!-- Node6&#45;&gt;Node7 -->
<g id="edge7" class="edge">
<title>Node6&#45;&gt;Node7</title>
<path fill="none" stroke="midnightblue" d="M221.28,-56.44C195.15,-47.4 153.74,-33.06 124.42,-22.92"/>
<polygon fill="midnightblue" stroke="midnightblue" points="125.2,-19.48 114.6,-19.52 122.91,-26.1 125.2,-19.48"/>
</g>
<!-- Node8 -->
<g id="node8" class="node">
<title>Node8</title>
<g id="a_node8"><a xlink:title=" ">
<polygon fill="none" stroke="#bfbfbf" points="136.5,-0.5 136.5,-19.5 213.5,-19.5 213.5,-0.5 136.5,-0.5"/>
<text text-anchor="middle" x="175" y="-7.5" font-family="Helvetica,sans-Serif" font-size="10.00">Eigen/Dense</text>
</a>
</g>
</g>
<!-- Node6&#45;&gt;Node8 -->
<g id="edge8" class="edge">
<title>Node6&#45;&gt;Node8</title>
<path fill="none" stroke="midnightblue" d="M234.59,-56.32C223.89,-48.18 207.66,-35.84 194.84,-26.09"/>
<polygon fill="midnightblue" stroke="midnightblue" points="196.69,-23.1 186.61,-19.83 192.46,-28.67 196.69,-23.1"/>
</g>
<!-- Node9 -->
<g id="node9" class="node">
<title>Node9</title>
<g id="a_node9"><a xlink:title=" ">
<polygon fill="none" stroke="#bfbfbf" points="231.5,-0.5 231.5,-19.5 278.5,-19.5 278.5,-0.5 231.5,-0.5"/>
<text text-anchor="middle" x="255" y="-7.5" font-family="Helvetica,sans-Serif" font-size="10.00">cmath</text>
</a>
</g>
</g>
<!-- Node6&#45;&gt;Node9 -->
<g id="edge9" class="edge">
<title>Node6&#45;&gt;Node9</title>
<path fill="none" stroke="midnightblue" d="M247.49,-56.08C248.68,-48.93 250.39,-38.64 251.88,-29.69"/>
<polygon fill="midnightblue" stroke="midnightblue" points="255.35,-30.19 253.54,-19.75 248.45,-29.04 255.35,-30.19"/>
</g>
<!-- Node10 -->
<g id="node10" class="node">
<title>Node10</title>
<g id="a_node10"><a xlink:title=" ">
<polygon fill="none" stroke="#bfbfbf" points="297,-0.5 297,-19.5 343,-19.5 343,-0.5 297,-0.5"/>
<text text-anchor="middle" x="320" y="-7.5" font-family="Helvetica,sans-Serif" font-size="10.00">cstdio</text>
</a>
</g>
</g>
<!-- Node6&#45;&gt;Node10 -->
<g id="edge10" class="edge">
<title>Node6&#45;&gt;Node10</title>
<path fill="none" stroke="midnightblue" d="M257.89,-56.32C269.15,-48.11 286.29,-35.6 299.71,-25.81"/>
<polygon fill="midnightblue" stroke="midnightblue" points="301.88,-28.56 307.89,-19.83 297.75,-22.9 301.88,-28.56"/>
</g>
<!-- Node11 -->
<g id="node11" class="node">
<title>Node11</title>
<g id="a_node11"><a xlink:title=" ">
<polygon fill="none" stroke="#bfbfbf" points="361,-0.5 361,-19.5 421,-19.5 421,-0.5 361,-0.5"/>
<text text-anchor="middle" x="391" y="-7.5" font-family="Helvetica,sans-Serif" font-size="10.00">iostream</text>
</a>
</g>
</g>
<!-- Node6&#45;&gt;Node11 -->
<g id="edge11" class="edge">
<title>Node6&#45;&gt;Node11</title>
<path fill="none" stroke="midnightblue" d="M268.98,-56.44C293.16,-47.44 331.42,-33.19 358.65,-23.05"/>
<polygon fill="midnightblue" stroke="midnightblue" points="359.98,-26.29 368.13,-19.52 357.54,-19.73 359.98,-26.29"/>
</g>
<!-- Node12&#45;&gt;Node6 -->
<g id="edge16" class="edge">
<title>Node12&#45;&gt;Node6</title>
<path fill="none" stroke="midnightblue" d="M340.01,-112.32C321.96,-103.62 293.95,-90.12 273.2,-80.11"/>
<polygon fill="midnightblue" stroke="midnightblue" points="274.48,-76.84 263.95,-75.65 271.44,-83.15 274.48,-76.84"/>
</g>
<!-- Node13 -->
<g id="node13" class="node">
<title>Node13</title>
<g id="a_node13"><a xlink:title=" ">
<polygon fill="none" stroke="#bfbfbf" points="311.5,-56.5 311.5,-75.5 404.5,-75.5 404.5,-56.5 311.5,-56.5"/>
<text text-anchor="middle" x="358" y="-63.5" font-family="Helvetica,sans-Serif" font-size="10.00">unordered_map</text>
</a>
</g>
</g>
<!-- Node12&#45;&gt;Node13 -->
<g id="edge15" class="edge">
<title>Node12&#45;&gt;Node13</title>
<path fill="none" stroke="midnightblue" d="M358,-112.08C358,-105.01 358,-94.86 358,-85.99"/>
<polygon fill="midnightblue" stroke="midnightblue" points="361.5,-85.75 358,-75.75 354.5,-85.75 361.5,-85.75"/>
</g>
<!-- Node14&#45;&gt;Node6 -->
<g id="edge19" class="edge">
<title>Node14&#45;&gt;Node6</title>
<path fill="none" stroke="midnightblue" d="M220.91,-168.35C207.88,-156.07 187.88,-132.75 197,-112 202.39,-99.73 212.96,-89.34 222.9,-81.65"/>
<polygon fill="midnightblue" stroke="midnightblue" points="225.25,-84.27 231.34,-75.6 221.17,-78.58 225.25,-84.27"/>
</g>
<!-- Node15 -->
<g id="node15" class="node">
<title>Node15</title>
<g id="a_node15"><a xlink:title=" ">
<polygon fill="none" stroke="#bfbfbf" points="205.5,-112.5 205.5,-131.5 256.5,-131.5 256.5,-112.5 205.5,-112.5"/>
<text text-anchor="middle" x="231" y="-119.5" font-family="Helvetica,sans-Serif" font-size="10.00">cblas.h</text>
</a>
</g>
</g>
<!-- Node14&#45;&gt;Node15 -->
<g id="edge18" class="edge">
<title>Node14&#45;&gt;Node15</title>
<path fill="none" stroke="midnightblue" d="M231,-168.08C231,-161.01 231,-150.86 231,-141.99"/>
<polygon fill="midnightblue" stroke="midnightblue" points="234.5,-141.75 231,-131.75 227.5,-141.75 234.5,-141.75"/>
</g>
</g>
</svg>
