<?xml version="1.0" encoding="UTF-8" standalone="no"?>
<!DOCTYPE svg PUBLIC "-//W3C//DTD SVG 1.1//EN"
 "http://www.w3.org/Graphics/SVG/1.1/DTD/svg11.dtd">
<!-- Generated by graphviz version 2.43.0 (0)
 -->
<!-- Title: src/nmbuflowtorch Pages: 1 -->
<svg width="372pt" height="159pt"
 viewBox="0.00 0.00 372.00 159.00" xmlns="http://www.w3.org/2000/svg" xmlns:xlink="http://www.w3.org/1999/xlink">
<g id="graph0" class="graph" transform="scale(1 1) rotate(0) translate(4 155)">
<title>src/nmbuflowtorch</title>
<g id="clust1" class="cluster">
<title>clusterdir_68267d1309a1af8e8297ef4c3efbcdba</title>
<g id="a_clust1"><a xlink:href="dir_68267d1309a1af8e8297ef4c3efbcdba.html" target="_top" xlink:title="src">
<polygon fill="#ddddee" stroke="black" points="8,-56 8,-143 356,-143 356,-56 8,-56"/>
<text text-anchor="middle" x="182" y="-131" font-family="Helvetica,sans-Serif" font-size="10.00">src</text>
</a>
</g>
</g>
<g id="clust2" class="cluster">
<title>clusterdir_d5917f22c814be5aa33575beba705760</title>
<g id="a_clust2"><a xlink:href="dir_d5917f22c814be5aa33575beba705760.html" target="_top">
<polygon fill="#eeeeff" stroke="black" points="16,-64 16,-116 348,-116 348,-64 16,-64"/>
</a>
</g>
</g>
<!-- dir_d5917f22c814be5aa33575beba705760 -->
<g id="node1" class="node">
<title>dir_d5917f22c814be5aa33575beba705760</title>
<text text-anchor="middle" x="295" y="-87.5" font-family="Helvetica,sans-Serif" font-size="10.00">nmbuflowtorch</text>
</g>
<!-- dir_9b3ceec6dc66184d0d42f925fbbff3b7 -->
<g id="node2" class="node">
<title>dir_9b3ceec6dc66184d0d42f925fbbff3b7</title>
<g id="a_node2"><a xlink:href="dir_9b3ceec6dc66184d0d42f925fbbff3b7.html" target="_top" xlink:title="layer">
<polygon fill="white" stroke="black" points="232,-108 178,-108 178,-72 232,-72 232,-108"/>
<text text-anchor="middle" x="205" y="-87.5" font-family="Helvetica,sans-Serif" font-size="10.00">layer</text>
</a>
</g>
</g>
<!-- dir_d44c64559bbebec7f509842c48db8b23 -->
<g id="node5" class="node">
<title>dir_d44c64559bbebec7f509842c48db8b23</title>
<g id="a_node5"><a xlink:href="dir_d44c64559bbebec7f509842c48db8b23.html" target="_top" xlink:title="include">
<polygon fill="none" stroke="red" points="160,-36 106,-36 106,0 160,0 160,-36"/>
<text text-anchor="middle" x="133" y="-15.5" font-family="Helvetica,sans-Serif" font-size="10.00">include</text>
</a>
</g>
</g>
<!-- dir_9b3ceec6dc66184d0d42f925fbbff3b7&#45;&gt;dir_d44c64559bbebec7f509842c48db8b23 -->
<g id="edge2" class="edge">
<title>dir_9b3ceec6dc66184d0d42f925fbbff3b7&#45;&gt;dir_d44c64559bbebec7f509842c48db8b23</title>
<path fill="none" stroke="black" d="M187.2,-71.7C178.4,-63.14 167.62,-52.66 158,-43.3"/>
<polygon fill="black" stroke="black" points="160.2,-40.57 150.59,-36.1 155.32,-45.58 160.2,-40.57"/>
<g id="a_edge2&#45;headlabel"><a xlink:href="dir_000011_000000.html" target="_top" xlink:title="4">
<text text-anchor="middle" x="164.76" y="-38.54" font-family="Helvetica,sans-Serif" font-size="10.00">4</text>
</a>
</g>
</g>
<!-- dir_36758bc030b002a313df7be075c98212 -->
<g id="node3" class="node">
<title>dir_36758bc030b002a313df7be075c98212</title>
<g id="a_node3"><a xlink:href="dir_36758bc030b002a313df7be075c98212.html" target="_top" xlink:title="loss">
<polygon fill="white" stroke="black" points="160,-108 106,-108 106,-72 160,-72 160,-108"/>
<text text-anchor="middle" x="133" y="-87.5" font-family="Helvetica,sans-Serif" font-size="10.00">loss</text>
</a>
</g>
</g>
<!-- dir_36758bc030b002a313df7be075c98212&#45;&gt;dir_d44c64559bbebec7f509842c48db8b23 -->
<g id="edge3" class="edge">
<title>dir_36758bc030b002a313df7be075c98212&#45;&gt;dir_d44c64559bbebec7f509842c48db8b23</title>
<path fill="none" stroke="black" d="M133,-71.7C133,-63.98 133,-54.71 133,-46.11"/>
<polygon fill="black" stroke="black" points="136.5,-46.1 133,-36.1 129.5,-46.1 136.5,-46.1"/>
<g id="a_edge3&#45;headlabel"><a xlink:href="dir_000012_000000.html" target="_top" xlink:title="2">
<text text-anchor="middle" x="139.34" y="-47.2" font-family="Helvetica,sans-Serif" font-size="10.00">2</text>
</a>
</g>
</g>
<!-- dir_29724800298a1b6b81d9c7cc36af2bac -->
<g id="node4" class="node">
<title>dir_29724800298a1b6b81d9c7cc36af2bac</title>
<g id="a_node4"><a xlink:href="dir_29724800298a1b6b81d9c7cc36af2bac.html" target="_top" xlink:title="optimizer">
<polygon fill="white" stroke="black" points="87.5,-108 24.5,-108 24.5,-72 87.5,-72 87.5,-108"/>
<text text-anchor="middle" x="56" y="-87.5" font-family="Helvetica,sans-Serif" font-size="10.00">optimizer</text>
</a>
</g>
</g>
<!-- dir_29724800298a1b6b81d9c7cc36af2bac&#45;&gt;dir_d44c64559bbebec7f509842c48db8b23 -->
<g id="edge1" class="edge">
<title>dir_29724800298a1b6b81d9c7cc36af2bac&#45;&gt;dir_d44c64559bbebec7f509842c48db8b23</title>
<path fill="none" stroke="black" d="M75.03,-71.7C84.54,-63.05 96.21,-52.45 106.57,-43.03"/>
<polygon fill="black" stroke="black" points="109.14,-45.42 114.19,-36.1 104.43,-40.24 109.14,-45.42"/>
<g id="a_edge1&#45;headlabel"><a xlink:href="dir_000013_000000.html" target="_top" xlink:title="1">
<text text-anchor="middle" x="108.39" y="-47.44" font-family="Helvetica,sans-Serif" font-size="10.00">1</text>
</a>
</g>
</g>
</g>
</svg>
