<?xml version="1.0" encoding="UTF-8" standalone="no"?>
<!DOCTYPE svg PUBLIC "-//W3C//DTD SVG 1.1//EN"
 "http://www.w3.org/Graphics/SVG/1.1/DTD/svg11.dtd">
<!-- Generated by graphviz version 2.43.0 (0)
 -->
<!-- Title: include/nmbuflowtorch Pages: 1 -->
<svg width="264pt" height="183pt"
 viewBox="0.00 0.00 264.00 183.00" xmlns="http://www.w3.org/2000/svg" xmlns:xlink="http://www.w3.org/1999/xlink">
<g id="graph0" class="graph" transform="scale(1 1) rotate(0) translate(4 179)">
<title>include/nmbuflowtorch</title>
<g id="clust1" class="cluster">
<title>clusterdir_d44c64559bbebec7f509842c48db8b23</title>
<g id="a_clust1"><a xlink:href="dir_d44c64559bbebec7f509842c48db8b23.html" target="_top" xlink:title="include">
<polygon fill="#ddddee" stroke="black" points="8,-8 8,-167 248,-167 248,-8 8,-8"/>
<text text-anchor="middle" x="128" y="-155" font-family="Helvetica,sans-Serif" font-size="10.00">include</text>
</a>
</g>
</g>
<g id="clust2" class="cluster">
<title>clusterdir_ba9ebe3eeb82069d811e249b2a60e7c0</title>
<g id="a_clust2"><a xlink:href="dir_ba9ebe3eeb82069d811e249b2a60e7c0.html" target="_top">
<polygon fill="#eeeeff" stroke="black" points="16,-16 16,-140 240,-140 240,-16 16,-16"/>
</a>
</g>
</g>
<!-- dir_ba9ebe3eeb82069d811e249b2a60e7c0 -->
<g id="node1" class="node">
<title>dir_ba9ebe3eeb82069d811e249b2a60e7c0</title>
<text text-anchor="middle" x="123" y="-111.5" font-family="Helvetica,sans-Serif" font-size="10.00">nmbuflowtorch</text>
</g>
<!-- dir_e4ffd9f759aa5053a313000a5169fe0d -->
<g id="node2" class="node">
<title>dir_e4ffd9f759aa5053a313000a5169fe0d</title>
<g id="a_node2"><a xlink:href="dir_e4ffd9f759aa5053a313000a5169fe0d.html" target="_top" xlink:title="layer">
<polygon fill="white" stroke="black" points="78,-60 24,-60 24,-24 78,-24 78,-60"/>
<text text-anchor="middle" x="51" y="-39.5" font-family="Helvetica,sans-Serif" font-size="10.00">layer</text>
</a>
</g>
</g>
<!-- dir_ba9ebe3eeb82069d811e249b2a60e7c0&#45;&gt;dir_e4ffd9f759aa5053a313000a5169fe0d -->
<g id="edge3" class="edge">
<title>dir_ba9ebe3eeb82069d811e249b2a60e7c0&#45;&gt;dir_e4ffd9f759aa5053a313000a5169fe0d</title>
<path fill="none" stroke="black" d="M105.2,-95.7C96.4,-87.14 85.62,-76.66 76,-67.3"/>
<polygon fill="black" stroke="black" points="78.2,-64.57 68.59,-60.1 73.32,-69.58 78.2,-64.57"/>
<g id="a_edge3&#45;headlabel"><a xlink:href="dir_000001_000002.html" target="_top" xlink:title="4">
<text text-anchor="middle" x="82.76" y="-62.54" font-family="Helvetica,sans-Serif" font-size="10.00">4</text>
</a>
</g>
</g>
<!-- dir_31fd33a5eb0a5dac5664c9d045101826 -->
<g id="node3" class="node">
<title>dir_31fd33a5eb0a5dac5664c9d045101826</title>
<g id="a_node3"><a xlink:href="dir_31fd33a5eb0a5dac5664c9d045101826.html" target="_top" xlink:title="loss">
<polygon fill="white" stroke="black" points="150,-60 96,-60 96,-24 150,-24 150,-60"/>
<text text-anchor="middle" x="123" y="-39.5" font-family="Helvetica,sans-Serif" font-size="10.00">loss</text>
</a>
</g>
</g>
<!-- dir_ba9ebe3eeb82069d811e249b2a60e7c0&#45;&gt;dir_31fd33a5eb0a5dac5664c9d045101826 -->
<g id="edge1" class="edge">
<title>dir_ba9ebe3eeb82069d811e249b2a60e7c0&#45;&gt;dir_31fd33a5eb0a5dac5664c9d045101826</title>
<path fill="none" stroke="black" d="M123,-95.7C123,-87.98 123,-78.71 123,-70.11"/>
<polygon fill="black" stroke="black" points="126.5,-70.1 123,-60.1 119.5,-70.1 126.5,-70.1"/>
<g id="a_edge1&#45;headlabel"><a xlink:href="dir_000001_000003.html" target="_top" xlink:title="4">
<text text-anchor="middle" x="129.34" y="-71.2" font-family="Helvetica,sans-Serif" font-size="10.00">4</text>
</a>
</g>
</g>
<!-- dir_51def4e3d9476fd9c8d06aab2057fb23 -->
<g id="node4" class="node">
<title>dir_51def4e3d9476fd9c8d06aab2057fb23</title>
<g id="a_node4"><a xlink:href="dir_51def4e3d9476fd9c8d06aab2057fb23.html" target="_top" xlink:title="optimizer">
<polygon fill="white" stroke="black" points="231.5,-60 168.5,-60 168.5,-24 231.5,-24 231.5,-60"/>
<text text-anchor="middle" x="200" y="-39.5" font-family="Helvetica,sans-Serif" font-size="10.00">optimizer</text>
</a>
</g>
</g>
<!-- dir_ba9ebe3eeb82069d811e249b2a60e7c0&#45;&gt;dir_51def4e3d9476fd9c8d06aab2057fb23 -->
<g id="edge2" class="edge">
<title>dir_ba9ebe3eeb82069d811e249b2a60e7c0&#45;&gt;dir_51def4e3d9476fd9c8d06aab2057fb23</title>
<path fill="none" stroke="black" d="M142.03,-95.7C151.54,-87.05 163.21,-76.45 173.57,-67.03"/>
<polygon fill="black" stroke="black" points="176.14,-69.42 181.19,-60.1 171.43,-64.24 176.14,-69.42"/>
<g id="a_edge2&#45;headlabel"><a xlink:href="dir_000001_000004.html" target="_top" xlink:title="3">
<text text-anchor="middle" x="175.39" y="-71.44" font-family="Helvetica,sans-Serif" font-size="10.00">3</text>
</a>
</g>
</g>
</g>
</svg>
