<?xml version="1.0" encoding="UTF-8" standalone="no"?>
<!DOCTYPE svg PUBLIC "-//W3C//DTD SVG 1.1//EN"
 "http://www.w3.org/Graphics/SVG/1.1/DTD/svg11.dtd">
<!-- Generated by graphviz version 2.43.0 (0)
 -->
<!-- Title: include/mnist/example/main.cpp Pages: 1 -->
<svg width="582pt" height="151pt"
 viewBox="0.00 0.00 582.00 151.00" xmlns="http://www.w3.org/2000/svg" xmlns:xlink="http://www.w3.org/1999/xlink">
<g id="graph0" class="graph" transform="scale(1 1) rotate(0) translate(4 147)">
<title>include/mnist/example/main.cpp</title>
<!-- Node1 -->
<g id="node1" class="node">
<title>Node1</title>
<g id="a_node1"><a xlink:title=" ">
<polygon fill="#bfbfbf" stroke="black" points="70,-112.5 70,-142.5 198,-142.5 198,-112.5 70,-112.5"/>
<text text-anchor="start" x="78" y="-130.5" font-family="Helvetica,sans-Serif" font-size="10.00">include/mnist/example</text>
<text text-anchor="middle" x="134" y="-119.5" font-family="Helvetica,sans-Serif" font-size="10.00">/main.cpp</text>
</a>
</g>
</g>
<!-- Node2 -->
<g id="node2" class="node">
<title>Node2</title>
<g id="a_node2"><a xlink:title=" ">
<polygon fill="none" stroke="#bfbfbf" points="0,-0.5 0,-19.5 60,-19.5 60,-0.5 0,-0.5"/>
<text text-anchor="middle" x="30" y="-7.5" font-family="Helvetica,sans-Serif" font-size="10.00">iostream</text>
</a>
</g>
</g>
<!-- Node1&#45;&gt;Node2 -->
<g id="edge1" class="edge">
<title>Node1&#45;&gt;Node2</title>
<path fill="none" stroke="midnightblue" d="M121.25,-112.34C101.83,-90.77 64.95,-49.81 44.52,-27.13"/>
<polygon fill="midnightblue" stroke="midnightblue" points="47.1,-24.76 37.81,-19.67 41.9,-29.44 47.1,-24.76"/>
</g>
<!-- Node3 -->
<g id="node3" class="node">
<title>Node3</title>
<g id="a_node3"><a xlink:href="mnist__reader_8hpp.html" target="_top" xlink:title="Contains functions to read the MNIST dataset.">
<polygon fill="none" stroke="black" points="139.5,-56.5 139.5,-75.5 272.5,-75.5 272.5,-56.5 139.5,-56.5"/>
<text text-anchor="middle" x="206" y="-63.5" font-family="Helvetica,sans-Serif" font-size="10.00">mnist/mnist_reader.hpp</text>
</a>
</g>
</g>
<!-- Node1&#45;&gt;Node3 -->
<g id="edge2" class="edge">
<title>Node1&#45;&gt;Node3</title>
<path fill="none" stroke="midnightblue" d="M151.06,-112.4C162.06,-103.31 176.37,-91.49 187.62,-82.19"/>
<polygon fill="midnightblue" stroke="midnightblue" points="190.04,-84.73 195.52,-75.66 185.59,-79.33 190.04,-84.73"/>
</g>
<!-- Node3&#45;&gt;Node2 -->
<g id="edge4" class="edge">
<title>Node3&#45;&gt;Node2</title>
<path fill="none" stroke="midnightblue" d="M178.11,-56.44C148.25,-47.28 100.69,-32.69 67.54,-22.52"/>
<polygon fill="midnightblue" stroke="midnightblue" points="68.34,-19.1 57.76,-19.52 66.29,-25.8 68.34,-19.1"/>
</g>
<!-- Node4 -->
<g id="node4" class="node">
<title>Node4</title>
<g id="a_node4"><a xlink:title=" ">
<polygon fill="none" stroke="#bfbfbf" points="78.5,-0.5 78.5,-19.5 133.5,-19.5 133.5,-0.5 78.5,-0.5"/>
<text text-anchor="middle" x="106" y="-7.5" font-family="Helvetica,sans-Serif" font-size="10.00">fstream</text>
</a>
</g>
</g>
<!-- Node3&#45;&gt;Node4 -->
<g id="edge3" class="edge">
<title>Node3&#45;&gt;Node4</title>
<path fill="none" stroke="midnightblue" d="M189.93,-56.32C174.04,-47.74 149.49,-34.49 131.04,-24.52"/>
<polygon fill="midnightblue" stroke="midnightblue" points="132.49,-21.33 122.03,-19.65 129.16,-27.49 132.49,-21.33"/>
</g>
<!-- Node5 -->
<g id="node5" class="node">
<title>Node5</title>
<g id="a_node5"><a xlink:title=" ">
<polygon fill="none" stroke="#bfbfbf" points="152,-0.5 152,-19.5 196,-19.5 196,-0.5 152,-0.5"/>
<text text-anchor="middle" x="174" y="-7.5" font-family="Helvetica,sans-Serif" font-size="10.00">string</text>
</a>
</g>
</g>
<!-- Node3&#45;&gt;Node5 -->
<g id="edge5" class="edge">
<title>Node3&#45;&gt;Node5</title>
<path fill="none" stroke="midnightblue" d="M200.72,-56.08C196.29,-48.61 189.84,-37.72 184.38,-28.52"/>
<polygon fill="midnightblue" stroke="midnightblue" points="187.29,-26.57 179.19,-19.75 181.27,-30.14 187.29,-26.57"/>
</g>
<!-- Node6 -->
<g id="node6" class="node">
<title>Node6</title>
<g id="a_node6"><a xlink:title=" ">
<polygon fill="none" stroke="#bfbfbf" points="214.5,-0.5 214.5,-19.5 261.5,-19.5 261.5,-0.5 214.5,-0.5"/>
<text text-anchor="middle" x="238" y="-7.5" font-family="Helvetica,sans-Serif" font-size="10.00">vector</text>
</a>
</g>
</g>
<!-- Node3&#45;&gt;Node6 -->
<g id="edge6" class="edge">
<title>Node3&#45;&gt;Node6</title>
<path fill="none" stroke="midnightblue" d="M211.28,-56.08C215.71,-48.61 222.16,-37.72 227.62,-28.52"/>
<polygon fill="midnightblue" stroke="midnightblue" points="230.73,-30.14 232.81,-19.75 224.71,-26.57 230.73,-30.14"/>
</g>
<!-- Node7 -->
<g id="node7" class="node">
<title>Node7</title>
<g id="a_node7"><a xlink:title=" ">
<polygon fill="none" stroke="#bfbfbf" points="280,-0.5 280,-19.5 330,-19.5 330,-0.5 280,-0.5"/>
<text text-anchor="middle" x="305" y="-7.5" font-family="Helvetica,sans-Serif" font-size="10.00">cstdint</text>
</a>
</g>
</g>
<!-- Node3&#45;&gt;Node7 -->
<g id="edge7" class="edge">
<title>Node3&#45;&gt;Node7</title>
<path fill="none" stroke="midnightblue" d="M221.91,-56.32C237.64,-47.74 261.94,-34.49 280.21,-24.52"/>
<polygon fill="midnightblue" stroke="midnightblue" points="282.03,-27.52 289.13,-19.65 278.68,-21.37 282.03,-27.52"/>
</g>
<!-- Node8 -->
<g id="node8" class="node">
<title>Node8</title>
<g id="a_node8"><a xlink:title=" ">
<polygon fill="none" stroke="#bfbfbf" points="348,-0.5 348,-19.5 406,-19.5 406,-0.5 348,-0.5"/>
<text text-anchor="middle" x="377" y="-7.5" font-family="Helvetica,sans-Serif" font-size="10.00">memory</text>
</a>
</g>
</g>
<!-- Node3&#45;&gt;Node8 -->
<g id="edge8" class="edge">
<title>Node3&#45;&gt;Node8</title>
<path fill="none" stroke="midnightblue" d="M233.1,-56.44C261.99,-47.32 307.92,-32.81 340.11,-22.65"/>
<polygon fill="midnightblue" stroke="midnightblue" points="341.55,-25.87 350.03,-19.52 339.44,-19.19 341.55,-25.87"/>
</g>
<!-- Node9 -->
<g id="node9" class="node">
<title>Node9</title>
<g id="a_node9"><a xlink:href="mnist__reader__common_8hpp.html" target="_top" xlink:title="Contains common functions to read the MNIST dataset.">
<polygon fill="none" stroke="black" points="424,-0.5 424,-19.5 574,-19.5 574,-0.5 424,-0.5"/>
<text text-anchor="middle" x="499" y="-7.5" font-family="Helvetica,sans-Serif" font-size="10.00">mnist_reader_common.hpp</text>
</a>
</g>
</g>
<!-- Node3&#45;&gt;Node9 -->
<g id="edge9" class="edge">
<title>Node3&#45;&gt;Node9</title>
<path fill="none" stroke="midnightblue" d="M252.43,-56.44C304.08,-46.92 387.51,-31.55 442.81,-21.36"/>
<polygon fill="midnightblue" stroke="midnightblue" points="443.59,-24.77 452.79,-19.52 442.32,-17.89 443.59,-24.77"/>
</g>
</g>
</svg>
