<?xml version="1.0" encoding="UTF-8" standalone="no"?>
<!DOCTYPE svg PUBLIC "-//W3C//DTD SVG 1.1//EN"
 "http://www.w3.org/Graphics/SVG/1.1/DTD/svg11.dtd">
<!-- Generated by graphviz version 2.43.0 (0)
 -->
<!-- Title: Graphical Class Hierarchy Pages: 1 -->
<svg width="358pt" height="127pt"
 viewBox="0.00 0.00 358.00 126.50" xmlns="http://www.w3.org/2000/svg" xmlns:xlink="http://www.w3.org/1999/xlink">
<g id="graph0" class="graph" transform="scale(1 1) rotate(0) translate(4 122.5)">
<title>Graphical Class Hierarchy</title>
<!-- Node0 -->
<g id="node1" class="node">
<title>Node0</title>
<g id="a_node1"><a xlink:href="classnmbuflowtorch_1_1Optimizer.html" target="_top" xlink:title=" ">
<polygon fill="none" stroke="black" points="0,-44.5 0,-63.5 144,-63.5 144,-44.5 0,-44.5"/>
<text text-anchor="middle" x="72" y="-51.5" font-family="Helvetica,sans-Serif" font-size="10.00">nmbuflowtorch::Optimizer</text>
</a>
</g>
</g>
<!-- Node1 -->
<g id="node2" class="node">
<title>Node1</title>
<g id="a_node2"><a xlink:href="classnmbuflowtorch_1_1optimizer_1_1Adam.html" target="_top" xlink:title=" ">
<polygon fill="none" stroke="black" points="193.5,-88 193.5,-118 336.5,-118 336.5,-88 193.5,-88"/>
<text text-anchor="start" x="201.5" y="-106" font-family="Helvetica,sans-Serif" font-size="10.00">nmbuflowtorch::optimizer</text>
<text text-anchor="middle" x="265" y="-95" font-family="Helvetica,sans-Serif" font-size="10.00">::Adam</text>
</a>
</g>
</g>
<!-- Node0&#45;&gt;Node1 -->
<g id="edge1" class="edge">
<title>Node0&#45;&gt;Node1</title>
<path fill="none" stroke="midnightblue" d="M120.17,-66.1C145.92,-72.71 178.04,-80.95 205.39,-87.96"/>
<polygon fill="midnightblue" stroke="midnightblue" points="120.84,-62.66 110.28,-63.56 119.1,-69.44 120.84,-62.66"/>
</g>
<!-- Node2 -->
<g id="node3" class="node">
<title>Node2</title>
<g id="a_node3"><a xlink:href="classnmbuflowtorch_1_1optimizer_1_1Nadam.html" target="_top" xlink:title="Nadam optimizer.">
<polygon fill="none" stroke="black" points="193.5,-39 193.5,-69 336.5,-69 336.5,-39 193.5,-39"/>
<text text-anchor="start" x="201.5" y="-57" font-family="Helvetica,sans-Serif" font-size="10.00">nmbuflowtorch::optimizer</text>
<text text-anchor="middle" x="265" y="-46" font-family="Helvetica,sans-Serif" font-size="10.00">::Nadam</text>
</a>
</g>
</g>
<!-- Node0&#45;&gt;Node2 -->
<g id="edge2" class="edge">
<title>Node0&#45;&gt;Node2</title>
<path fill="none" stroke="midnightblue" d="M154.44,-54C167.42,-54 180.75,-54 193.46,-54"/>
<polygon fill="midnightblue" stroke="midnightblue" points="154.12,-50.5 144.12,-54 154.12,-57.5 154.12,-50.5"/>
</g>
<!-- Node3 -->
<g id="node4" class="node">
<title>Node3</title>
<g id="a_node4"><a xlink:href="classnmbuflowtorch_1_1optimizer_1_1SGD.html" target="_top" xlink:title=" ">
<polygon fill="none" stroke="black" points="180,-0.5 180,-19.5 350,-19.5 350,-0.5 180,-0.5"/>
<text text-anchor="middle" x="265" y="-7.5" font-family="Helvetica,sans-Serif" font-size="10.00">nmbuflowtorch::optimizer::SGD</text>
</a>
</g>
</g>
<!-- Node0&#45;&gt;Node3 -->
<g id="edge3" class="edge">
<title>Node0&#45;&gt;Node3</title>
<path fill="none" stroke="midnightblue" d="M124.55,-42.12C155.32,-35.04 193.87,-26.16 222.64,-19.53"/>
<polygon fill="midnightblue" stroke="midnightblue" points="123.4,-38.8 114.44,-44.45 124.97,-45.62 123.4,-38.8"/>
</g>
</g>
</svg>
