<?xml version="1.0" encoding="UTF-8" standalone="no"?>
<!DOCTYPE svg PUBLIC "-//W3C//DTD SVG 1.1//EN"
 "http://www.w3.org/Graphics/SVG/1.1/DTD/svg11.dtd">
<!-- Generated by graphviz version 2.43.0 (0)
 -->
<!-- Title: Graphical Class Hierarchy Pages: 1 -->
<svg width="362pt" height="78pt"
 viewBox="0.00 0.00 362.00 77.50" xmlns="http://www.w3.org/2000/svg" xmlns:xlink="http://www.w3.org/1999/xlink">
<g id="graph0" class="graph" transform="scale(1 1) rotate(0) translate(4 73.5)">
<title>Graphical Class Hierarchy</title>
<!-- Node0 -->
<g id="node1" class="node">
<title>Node0</title>
<g id="a_node1"><a xlink:href="classcsv_1_1internals_1_1IBasicCSVParser.html" target="_top" xlink:title=" ">
<polygon fill="none" stroke="black" points="0,-28 0,-47 166,-47 166,-28 0,-28"/>
<text text-anchor="middle" x="83" y="-35" font-family="Helvetica,sans-Serif" font-size="10.00">csv::internals::IBasicCSVParser</text>
</a>
</g>
</g>
<!-- Node1 -->
<g id="node2" class="node">
<title>Node1</title>
<g id="a_node2"><a xlink:href="classcsv_1_1internals_1_1MmapParser.html" target="_top" xlink:title=" ">
<polygon fill="none" stroke="black" points="204,-50 204,-69 352,-69 352,-50 204,-50"/>
<text text-anchor="middle" x="278" y="-57" font-family="Helvetica,sans-Serif" font-size="10.00">csv::internals::MmapParser</text>
</a>
</g>
</g>
<!-- Node0&#45;&gt;Node1 -->
<g id="edge1" class="edge">
<title>Node0&#45;&gt;Node1</title>
<path fill="none" stroke="midnightblue" d="M176.16,-48C185.43,-49.06 194.76,-50.13 203.8,-51.16"/>
<polygon fill="midnightblue" stroke="midnightblue" points="176.46,-44.52 166.13,-46.86 175.67,-51.47 176.46,-44.52"/>
</g>
<!-- Node2 -->
<g id="node3" class="node">
<title>Node2</title>
<g id="a_node3"><a xlink:href="classcsv_1_1internals_1_1StreamParser.html" target="_top" xlink:title=" ">
<polygon fill="none" stroke="black" points="202,-0.5 202,-30.5 354,-30.5 354,-0.5 202,-0.5"/>
<text text-anchor="start" x="210" y="-18.5" font-family="Helvetica,sans-Serif" font-size="10.00">csv::internals::StreamParser</text>
<text text-anchor="middle" x="278" y="-7.5" font-family="Helvetica,sans-Serif" font-size="10.00">&lt; TStream &gt;</text>
</a>
</g>
</g>
<!-- Node0&#45;&gt;Node2 -->
<g id="edge2" class="edge">
<title>Node0&#45;&gt;Node2</title>
<path fill="none" stroke="midnightblue" d="M176.23,-26.99C184.86,-26 193.54,-25.01 201.98,-24.05"/>
<polygon fill="midnightblue" stroke="midnightblue" points="175.67,-23.53 166.13,-28.14 176.46,-30.48 175.67,-23.53"/>
</g>
</g>
</svg>
