<?xml version="1.0" encoding="UTF-8" standalone="no"?>
<!DOCTYPE svg PUBLIC "-//W3C//DTD SVG 1.1//EN"
 "http://www.w3.org/Graphics/SVG/1.1/DTD/svg11.dtd">
<!-- Generated by graphviz version 2.43.0 (0)
 -->
<!-- Title: Graphical Class Hierarchy Pages: 1 -->
<svg width="356pt" height="127pt"
 viewBox="0.00 0.00 356.00 126.50" xmlns="http://www.w3.org/2000/svg" xmlns:xlink="http://www.w3.org/1999/xlink">
<g id="graph0" class="graph" transform="scale(1 1) rotate(0) translate(4 122.5)">
<title>Graphical Class Hierarchy</title>
<!-- Node0 -->
<g id="node1" class="node">
<title>Node0</title>
<g id="a_node1"><a xlink:href="classnmbuflowtorch_1_1Optimizer.html" target="_top" xlink:title=" ">
<polygon fill="none" stroke="black" points="0,-44.5 0,-63.5 143,-63.5 143,-44.5 0,-44.5"/>
<text text-anchor="middle" x="71.5" y="-51.5" font-family="Helvetica,sans-Serif" font-size="10.00">nmbuflowtorch::Optimizer</text>
</a>
</g>
</g>
<!-- Node1 -->
<g id="node2" class="node">
<title>Node1</title>
<g id="a_node2"><a xlink:href="classnmbuflowtorch_1_1optimizer_1_1Adam.html" target="_top" xlink:title=" ">
<polygon fill="none" stroke="black" points="192.5,-88 192.5,-118 334.5,-118 334.5,-88 192.5,-88"/>
<text text-anchor="start" x="200.5" y="-106" font-family="Helvetica,sans-Serif" font-size="10.00">nmbuflowtorch::optimizer</text>
<text text-anchor="middle" x="263.5" y="-95" font-family="Helvetica,sans-Serif" font-size="10.00">::Adam</text>
</a>
</g>
</g>
<!-- Node0&#45;&gt;Node1 -->
<g id="edge1" class="edge">
<title>Node0&#45;&gt;Node1</title>
<path fill="none" stroke="midnightblue" d="M119.43,-66.1C145.04,-72.71 176.99,-80.95 204.19,-87.96"/>
<polygon fill="midnightblue" stroke="midnightblue" points="120.14,-62.67 109.58,-63.56 118.39,-69.45 120.14,-62.67"/>
</g>
<!-- Node2 -->
<g id="node3" class="node">
<title>Node2</title>
<g id="a_node3"><a xlink:href="classnmbuflowtorch_1_1optimizer_1_1Nadam.html" target="_top" xlink:title="Nadam optimizer.">
<polygon fill="none" stroke="black" points="192.5,-39 192.5,-69 334.5,-69 334.5,-39 192.5,-39"/>
<text text-anchor="start" x="200.5" y="-57" font-family="Helvetica,sans-Serif" font-size="10.00">nmbuflowtorch::optimizer</text>
<text text-anchor="middle" x="263.5" y="-46" font-family="Helvetica,sans-Serif" font-size="10.00">::Nadam</text>
</a>
</g>
</g>
<!-- Node0&#45;&gt;Node2 -->
<g id="edge2" class="edge">
<title>Node0&#45;&gt;Node2</title>
<path fill="none" stroke="midnightblue" d="M153.51,-54C166.42,-54 179.69,-54 192.32,-54"/>
<polygon fill="midnightblue" stroke="midnightblue" points="153.25,-50.5 143.25,-54 153.25,-57.5 153.25,-50.5"/>
</g>
<!-- Node3 -->
<g id="node4" class="node">
<title>Node3</title>
<g id="a_node4"><a xlink:href="classnmbuflowtorch_1_1optimizer_1_1SGD.html" target="_top" xlink:title=" ">
<polygon fill="none" stroke="black" points="179,-0.5 179,-19.5 348,-19.5 348,-0.5 179,-0.5"/>
<text text-anchor="middle" x="263.5" y="-7.5" font-family="Helvetica,sans-Serif" font-size="10.00">nmbuflowtorch::optimizer::SGD</text>
</a>
</g>
</g>
<!-- Node0&#45;&gt;Node3 -->
<g id="edge3" class="edge">
<title>Node0&#45;&gt;Node3</title>
<path fill="none" stroke="midnightblue" d="M123.78,-42.12C154.39,-35.04 192.74,-26.16 221.35,-19.53"/>
<polygon fill="midnightblue" stroke="midnightblue" points="122.68,-38.79 113.73,-44.45 124.26,-45.61 122.68,-38.79"/>
</g>
</g>
</svg>
