<?xml version="1.0" encoding="UTF-8" standalone="no"?>
<!DOCTYPE svg PUBLIC "-//W3C//DTD SVG 1.1//EN"
 "http://www.w3.org/Graphics/SVG/1.1/DTD/svg11.dtd">
<!-- Generated by graphviz version 2.43.0 (0)
 -->
<!-- Title: include/nmbuflowtorch/layer.hpp Pages: 1 -->
<svg width="1491pt" height="173pt"
 viewBox="0.00 0.00 1491.00 173.00" xmlns="http://www.w3.org/2000/svg" xmlns:xlink="http://www.w3.org/1999/xlink">
<g id="graph0" class="graph" transform="scale(1 1) rotate(0) translate(4 169)">
<title>include/nmbuflowtorch/layer.hpp</title>
<!-- Node1 -->
<g id="node1" class="node">
<title>Node1</title>
<g id="a_node1"><a xlink:title=" ">
<polygon fill="#bfbfbf" stroke="black" points="655.5,-134.5 655.5,-164.5 783.5,-164.5 783.5,-134.5 655.5,-134.5"/>
<text text-anchor="start" x="663.5" y="-152.5" font-family="Helvetica,sans-Serif" font-size="10.00">include/nmbuflowtorch</text>
<text text-anchor="middle" x="719.5" y="-141.5" font-family="Helvetica,sans-Serif" font-size="10.00">/layer.hpp</text>
</a>
</g>
</g>
<!-- Node2 -->
<g id="node2" class="node">
<title>Node2</title>
<g id="a_node2"><a xlink:href="conv_8hpp.html" target="_top" xlink:title=" ">
<polygon fill="none" stroke="black" points="113.5,-67.5 113.5,-97.5 241.5,-97.5 241.5,-67.5 113.5,-67.5"/>
<text text-anchor="start" x="121.5" y="-85.5" font-family="Helvetica,sans-Serif" font-size="10.00">include/nmbuflowtorch</text>
<text text-anchor="middle" x="177.5" y="-74.5" font-family="Helvetica,sans-Serif" font-size="10.00">/layer/conv.hpp</text>
</a>
</g>
</g>
<!-- Node1&#45;&gt;Node2 -->
<g id="edge1" class="edge">
<title>Node1&#45;&gt;Node2</title>
<path fill="none" stroke="midnightblue" d="M645.41,-139.61C538.54,-126.8 342.9,-103.34 241.79,-91.21"/>
<polygon fill="midnightblue" stroke="midnightblue" points="645.12,-143.1 655.46,-140.82 645.95,-136.15 645.12,-143.1"/>
</g>
<!-- Node4 -->
<g id="node4" class="node">
<title>Node4</title>
<g id="a_node4"><a xlink:href="dense_8hpp.html" target="_top" xlink:title=" ">
<polygon fill="none" stroke="black" points="728.5,-67.5 728.5,-97.5 856.5,-97.5 856.5,-67.5 728.5,-67.5"/>
<text text-anchor="start" x="736.5" y="-85.5" font-family="Helvetica,sans-Serif" font-size="10.00">include/nmbuflowtorch</text>
<text text-anchor="middle" x="792.5" y="-74.5" font-family="Helvetica,sans-Serif" font-size="10.00">/layer/dense.hpp</text>
</a>
</g>
</g>
<!-- Node1&#45;&gt;Node4 -->
<g id="edge3" class="edge">
<title>Node1&#45;&gt;Node4</title>
<path fill="none" stroke="midnightblue" d="M742.97,-127.6C754,-117.78 766.84,-106.34 776.69,-97.58"/>
<polygon fill="midnightblue" stroke="midnightblue" points="740.48,-125.13 735.34,-134.4 745.14,-130.36 740.48,-125.13"/>
</g>
<!-- Node5 -->
<g id="node5" class="node">
<title>Node5</title>
<g id="a_node5"><a xlink:href="main_01copy_8cpp.html" target="_top" xlink:title=" ">
<polygon fill="none" stroke="black" points="341.5,-6 341.5,-25 445.5,-25 445.5,-6 341.5,-6"/>
<text text-anchor="middle" x="393.5" y="-13" font-family="Helvetica,sans-Serif" font-size="10.00">src/main copy.cpp</text>
</a>
</g>
</g>
<!-- Node1&#45;&gt;Node5 -->
<g id="edge25" class="edge">
<title>Node1&#45;&gt;Node5</title>
<path fill="none" stroke="midnightblue" d="M645.16,-147.93C558.15,-145.5 421.78,-135.59 389.5,-98 371.78,-77.36 382.89,-41.84 389.55,-25.37"/>
<polygon fill="midnightblue" stroke="midnightblue" points="645.17,-151.43 655.26,-148.18 645.35,-144.43 645.17,-151.43"/>
</g>
<!-- Node6 -->
<g id="node6" class="node">
<title>Node6</title>
<g id="a_node6"><a xlink:href="src_2main_8cpp.html" target="_top" xlink:title=" ">
<polygon fill="none" stroke="black" points="464,-6 464,-25 543,-25 543,-6 464,-6"/>
<text text-anchor="middle" x="503.5" y="-13" font-family="Helvetica,sans-Serif" font-size="10.00">src/main.cpp</text>
</a>
</g>
</g>
<!-- Node1&#45;&gt;Node6 -->
<g id="edge26" class="edge">
<title>Node1&#45;&gt;Node6</title>
<path fill="none" stroke="midnightblue" d="M646.47,-131.53C621.96,-123.74 595.33,-112.84 573.5,-98 543.73,-77.76 519.06,-41.72 508.72,-25.2"/>
<polygon fill="midnightblue" stroke="midnightblue" points="645.52,-134.89 656.1,-134.47 647.56,-128.2 645.52,-134.89"/>
</g>
<!-- Node7 -->
<g id="node7" class="node">
<title>Node7</title>
<g id="a_node7"><a xlink:href="main__multithread_8cpp.html" target="_top" xlink:title=" ">
<polygon fill="none" stroke="black" points="714,-6 714,-25 855,-25 855,-6 714,-6"/>
<text text-anchor="middle" x="784.5" y="-13" font-family="Helvetica,sans-Serif" font-size="10.00">src/main_multithread.cpp</text>
</a>
</g>
</g>
<!-- Node1&#45;&gt;Node7 -->
<g id="edge27" class="edge">
<title>Node1&#45;&gt;Node7</title>
<path fill="none" stroke="midnightblue" d="M793.48,-140.82C820.68,-134 848.87,-121.35 865.5,-98 873.49,-86.78 872.19,-79.05 865.5,-67 853.92,-46.13 829.74,-32.76 810.8,-25.06"/>
<polygon fill="midnightblue" stroke="midnightblue" points="792.5,-137.46 783.53,-143.08 794.05,-144.28 792.5,-137.46"/>
</g>
<!-- Node8 -->
<g id="node8" class="node">
<title>Node8</title>
<g id="a_node8"><a xlink:href="main__single__thread_8cpp.html" target="_top" xlink:title=" ">
<polygon fill="none" stroke="black" points="873.5,-6 873.5,-25 1023.5,-25 1023.5,-6 873.5,-6"/>
<text text-anchor="middle" x="948.5" y="-13" font-family="Helvetica,sans-Serif" font-size="10.00">src/main_single_thread.cpp</text>
</a>
</g>
</g>
<!-- Node1&#45;&gt;Node8 -->
<g id="edge28" class="edge">
<title>Node1&#45;&gt;Node8</title>
<path fill="none" stroke="midnightblue" d="M793.54,-135.33C822.97,-127.69 856.05,-115.91 882.5,-98 911.75,-78.19 934.57,-41.6 943.91,-25.04"/>
<polygon fill="midnightblue" stroke="midnightblue" points="792.57,-131.96 783.71,-137.76 794.26,-138.76 792.57,-131.96"/>
</g>
<!-- Node10 -->
<g id="node10" class="node">
<title>Node10</title>
<g id="a_node10"><a xlink:href="relu_8hpp.html" target="_top" xlink:title=" ">
<polygon fill="none" stroke="black" points="1086.5,-67.5 1086.5,-97.5 1214.5,-97.5 1214.5,-67.5 1086.5,-67.5"/>
<text text-anchor="start" x="1094.5" y="-85.5" font-family="Helvetica,sans-Serif" font-size="10.00">include/nmbuflowtorch</text>
<text text-anchor="middle" x="1150.5" y="-74.5" font-family="Helvetica,sans-Serif" font-size="10.00">/layer/relu.hpp</text>
</a>
</g>
</g>
<!-- Node1&#45;&gt;Node10 -->
<g id="edge9" class="edge">
<title>Node1&#45;&gt;Node10</title>
<path fill="none" stroke="midnightblue" d="M793.62,-137.32C876.16,-124.87 1008.22,-104.96 1086.44,-93.16"/>
<polygon fill="midnightblue" stroke="midnightblue" points="792.93,-133.89 783.56,-138.84 793.97,-140.81 792.93,-133.89"/>
</g>
<!-- Node12 -->
<g id="node12" class="node">
<title>Node12</title>
<g id="a_node12"><a xlink:href="sigmoid_8hpp.html" target="_top" xlink:title=" ">
<polygon fill="none" stroke="black" points="582.5,-67.5 582.5,-97.5 710.5,-97.5 710.5,-67.5 582.5,-67.5"/>
<text text-anchor="start" x="590.5" y="-85.5" font-family="Helvetica,sans-Serif" font-size="10.00">include/nmbuflowtorch</text>
<text text-anchor="middle" x="646.5" y="-74.5" font-family="Helvetica,sans-Serif" font-size="10.00">/layer/sigmoid.hpp</text>
</a>
</g>
</g>
<!-- Node1&#45;&gt;Node12 -->
<g id="edge11" class="edge">
<title>Node1&#45;&gt;Node12</title>
<path fill="none" stroke="midnightblue" d="M696.03,-127.6C685,-117.78 672.16,-106.34 662.31,-97.58"/>
<polygon fill="midnightblue" stroke="midnightblue" points="693.86,-130.36 703.66,-134.4 698.52,-125.13 693.86,-130.36"/>
</g>
<!-- Node14 -->
<g id="node14" class="node">
<title>Node14</title>
<g id="a_node14"><a xlink:href="softmax_8hpp.html" target="_top" xlink:title=" ">
<polygon fill="none" stroke="black" points="1295.5,-67.5 1295.5,-97.5 1423.5,-97.5 1423.5,-67.5 1295.5,-67.5"/>
<text text-anchor="start" x="1303.5" y="-85.5" font-family="Helvetica,sans-Serif" font-size="10.00">include/nmbuflowtorch</text>
<text text-anchor="middle" x="1359.5" y="-74.5" font-family="Helvetica,sans-Serif" font-size="10.00">/layer/softmax.hpp</text>
</a>
</g>
</g>
<!-- Node1&#45;&gt;Node14 -->
<g id="edge17" class="edge">
<title>Node1&#45;&gt;Node14</title>
<path fill="none" stroke="midnightblue" d="M793.69,-141.22C891.99,-131.53 1070.8,-113.79 1223.5,-98 1246.88,-95.58 1272.52,-92.87 1295.17,-90.44"/>
<polygon fill="midnightblue" stroke="midnightblue" points="793.17,-137.75 783.56,-142.21 793.85,-144.72 793.17,-137.75"/>
</g>
<!-- Node16 -->
<g id="node16" class="node">
<title>Node16</title>
<g id="a_node16"><a xlink:href="network_8hpp.html" target="_top" xlink:title="Network class representing a sequence of layers. This class implements a network consisting of a sequ...">
<polygon fill="none" stroke="black" points="398.5,-67.5 398.5,-97.5 526.5,-97.5 526.5,-67.5 398.5,-67.5"/>
<text text-anchor="start" x="406.5" y="-85.5" font-family="Helvetica,sans-Serif" font-size="10.00">include/nmbuflowtorch</text>
<text text-anchor="middle" x="462.5" y="-74.5" font-family="Helvetica,sans-Serif" font-size="10.00">/network.hpp</text>
</a>
</g>
</g>
<!-- Node1&#45;&gt;Node16 -->
<g id="edge19" class="edge">
<title>Node1&#45;&gt;Node16</title>
<path fill="none" stroke="midnightblue" d="M654.2,-131.98C612.22,-121.37 558.26,-107.72 518.29,-97.61"/>
<polygon fill="midnightblue" stroke="midnightblue" points="653.5,-135.42 664.05,-134.48 655.21,-128.63 653.5,-135.42"/>
</g>
<!-- Node3 -->
<g id="node3" class="node">
<title>Node3</title>
<g id="a_node3"><a xlink:href="conv_8cpp.html" target="_top" xlink:title=" ">
<polygon fill="none" stroke="black" points="0,-0.5 0,-30.5 135,-30.5 135,-0.5 0,-0.5"/>
<text text-anchor="start" x="8" y="-18.5" font-family="Helvetica,sans-Serif" font-size="10.00">src/nmbuflowtorch/layer</text>
<text text-anchor="middle" x="67.5" y="-7.5" font-family="Helvetica,sans-Serif" font-size="10.00">/conv.cpp</text>
</a>
</g>
</g>
<!-- Node2&#45;&gt;Node3 -->
<g id="edge2" class="edge">
<title>Node2&#45;&gt;Node3</title>
<path fill="none" stroke="midnightblue" d="M145,-62.3C127.79,-52.12 107.02,-39.85 91.32,-30.58"/>
<polygon fill="midnightblue" stroke="midnightblue" points="143.24,-65.32 153.63,-67.4 146.8,-59.3 143.24,-65.32"/>
</g>
<!-- Node4&#45;&gt;Node5 -->
<g id="edge4" class="edge">
<title>Node4&#45;&gt;Node5</title>
<path fill="none" stroke="midnightblue" d="M718.31,-66.87C600.51,-47.69 568.15,-52.17 454.5,-31 445.51,-29.33 435.85,-27.19 426.93,-25.07"/>
<polygon fill="midnightblue" stroke="midnightblue" points="718.01,-70.37 728.45,-68.55 719.15,-63.46 718.01,-70.37"/>
</g>
<!-- Node4&#45;&gt;Node6 -->
<g id="edge5" class="edge">
<title>Node4&#45;&gt;Node6</title>
<path fill="none" stroke="midnightblue" d="M718.26,-66.68C659.55,-54.82 582.48,-38.91 551.5,-31 544.58,-29.23 537.17,-27.11 530.29,-25.04"/>
<polygon fill="midnightblue" stroke="midnightblue" points="717.76,-70.15 728.26,-68.69 719.15,-63.29 717.76,-70.15"/>
</g>
<!-- Node4&#45;&gt;Node7 -->
<g id="edge6" class="edge">
<title>Node4&#45;&gt;Node7</title>
<path fill="none" stroke="midnightblue" d="M789.52,-57.25C788.13,-46.02 786.58,-33.38 785.57,-25.19"/>
<polygon fill="midnightblue" stroke="midnightblue" points="786.07,-57.9 790.76,-67.4 793.02,-57.04 786.07,-57.9"/>
</g>
<!-- Node4&#45;&gt;Node8 -->
<g id="edge7" class="edge">
<title>Node4&#45;&gt;Node8</title>
<path fill="none" stroke="midnightblue" d="M835.8,-63.46C865.94,-50.9 904.76,-34.72 928.08,-25.01"/>
<polygon fill="midnightblue" stroke="midnightblue" points="834.23,-60.32 826.35,-67.4 836.93,-66.78 834.23,-60.32"/>
</g>
<!-- Node9 -->
<g id="node9" class="node">
<title>Node9</title>
<g id="a_node9"><a xlink:href="dense_8cpp.html" target="_top" xlink:title=" ">
<polygon fill="none" stroke="black" points="1042,-0.5 1042,-30.5 1177,-30.5 1177,-0.5 1042,-0.5"/>
<text text-anchor="start" x="1050" y="-18.5" font-family="Helvetica,sans-Serif" font-size="10.00">src/nmbuflowtorch/layer</text>
<text text-anchor="middle" x="1109.5" y="-7.5" font-family="Helvetica,sans-Serif" font-size="10.00">/dense.cpp</text>
</a>
</g>
</g>
<!-- Node4&#45;&gt;Node9 -->
<g id="edge8" class="edge">
<title>Node4&#45;&gt;Node9</title>
<path fill="none" stroke="midnightblue" d="M866.67,-66.29C919.67,-55.42 990.43,-40.91 1041.89,-30.36"/>
<polygon fill="midnightblue" stroke="midnightblue" points="865.74,-62.91 856.65,-68.35 867.15,-69.77 865.74,-62.91"/>
</g>
<!-- Node11 -->
<g id="node11" class="node">
<title>Node11</title>
<g id="a_node11"><a xlink:href="relu_8cpp.html" target="_top" xlink:title=" ">
<polygon fill="none" stroke="black" points="1195,-0.5 1195,-30.5 1330,-30.5 1330,-0.5 1195,-0.5"/>
<text text-anchor="start" x="1203" y="-18.5" font-family="Helvetica,sans-Serif" font-size="10.00">src/nmbuflowtorch/layer</text>
<text text-anchor="middle" x="1262.5" y="-7.5" font-family="Helvetica,sans-Serif" font-size="10.00">/relu.cpp</text>
</a>
</g>
</g>
<!-- Node10&#45;&gt;Node11 -->
<g id="edge10" class="edge">
<title>Node10&#45;&gt;Node11</title>
<path fill="none" stroke="midnightblue" d="M1183.59,-62.3C1201.12,-52.12 1222.26,-39.85 1238.25,-30.58"/>
<polygon fill="midnightblue" stroke="midnightblue" points="1181.69,-59.35 1174.8,-67.4 1185.21,-65.4 1181.69,-59.35"/>
</g>
<!-- Node12&#45;&gt;Node5 -->
<g id="edge12" class="edge">
<title>Node12&#45;&gt;Node5</title>
<path fill="none" stroke="midnightblue" d="M581.93,-64.91C532.38,-52.18 466,-35.13 426.7,-25.03"/>
<polygon fill="midnightblue" stroke="midnightblue" points="581.36,-68.38 591.91,-67.48 583.1,-61.6 581.36,-68.38"/>
</g>
<!-- Node12&#45;&gt;Node6 -->
<g id="edge13" class="edge">
<title>Node12&#45;&gt;Node6</title>
<path fill="none" stroke="midnightblue" d="M606.09,-63.13C578.57,-50.62 543.41,-34.64 522.22,-25.01"/>
<polygon fill="midnightblue" stroke="midnightblue" points="604.92,-66.44 615.47,-67.4 607.82,-60.07 604.92,-66.44"/>
</g>
<!-- Node12&#45;&gt;Node7 -->
<g id="edge14" class="edge">
<title>Node12&#45;&gt;Node7</title>
<path fill="none" stroke="midnightblue" d="M685.5,-63.13C712.06,-50.62 745.99,-34.64 766.44,-25.01"/>
<polygon fill="midnightblue" stroke="midnightblue" points="684,-59.97 676.44,-67.4 686.98,-66.3 684,-59.97"/>
</g>
<!-- Node12&#45;&gt;Node8 -->
<g id="edge15" class="edge">
<title>Node12&#45;&gt;Node8</title>
<path fill="none" stroke="midnightblue" d="M720.61,-65.55C779.93,-52.78 860.82,-35.37 908.57,-25.09"/>
<polygon fill="midnightblue" stroke="midnightblue" points="719.59,-62.19 710.55,-67.72 721.06,-69.03 719.59,-62.19"/>
</g>
<!-- Node13 -->
<g id="node13" class="node">
<title>Node13</title>
<g id="a_node13"><a xlink:href="sigmoid_8cpp.html" target="_top" xlink:title=" ">
<polygon fill="none" stroke="black" points="561,-0.5 561,-30.5 696,-30.5 696,-0.5 561,-0.5"/>
<text text-anchor="start" x="569" y="-18.5" font-family="Helvetica,sans-Serif" font-size="10.00">src/nmbuflowtorch/layer</text>
<text text-anchor="middle" x="628.5" y="-7.5" font-family="Helvetica,sans-Serif" font-size="10.00">/sigmoid.cpp</text>
</a>
</g>
</g>
<!-- Node12&#45;&gt;Node13 -->
<g id="edge16" class="edge">
<title>Node12&#45;&gt;Node13</title>
<path fill="none" stroke="midnightblue" d="M639.91,-57.7C637.39,-48.59 634.59,-38.49 632.4,-30.58"/>
<polygon fill="midnightblue" stroke="midnightblue" points="636.55,-58.69 642.59,-67.4 643.3,-56.82 636.55,-58.69"/>
</g>
<!-- Node15 -->
<g id="node15" class="node">
<title>Node15</title>
<g id="a_node15"><a xlink:href="softmax_8cpp.html" target="_top" xlink:title=" ">
<polygon fill="none" stroke="black" points="1348,-0.5 1348,-30.5 1483,-30.5 1483,-0.5 1348,-0.5"/>
<text text-anchor="start" x="1356" y="-18.5" font-family="Helvetica,sans-Serif" font-size="10.00">src/nmbuflowtorch/layer</text>
<text text-anchor="middle" x="1415.5" y="-7.5" font-family="Helvetica,sans-Serif" font-size="10.00">/softmax.cpp</text>
</a>
</g>
</g>
<!-- Node14&#45;&gt;Node15 -->
<g id="edge18" class="edge">
<title>Node14&#45;&gt;Node15</title>
<path fill="none" stroke="midnightblue" d="M1378.25,-59.74C1386.54,-50.12 1396.04,-39.09 1403.37,-30.58"/>
<polygon fill="midnightblue" stroke="midnightblue" points="1375.53,-57.54 1371.65,-67.4 1380.83,-62.1 1375.53,-57.54"/>
</g>
<!-- Node16&#45;&gt;Node5 -->
<g id="edge20" class="edge">
<title>Node16&#45;&gt;Node5</title>
<path fill="none" stroke="midnightblue" d="M440.03,-60.34C427.36,-48.4 412.22,-34.14 402.73,-25.19"/>
<polygon fill="midnightblue" stroke="midnightblue" points="437.85,-63.09 447.53,-67.4 442.65,-57.99 437.85,-63.09"/>
</g>
<!-- Node16&#45;&gt;Node6 -->
<g id="edge21" class="edge">
<title>Node16&#45;&gt;Node6</title>
<path fill="none" stroke="midnightblue" d="M476.92,-58.63C484.22,-47.07 492.64,-33.71 498.02,-25.19"/>
<polygon fill="midnightblue" stroke="midnightblue" points="473.77,-57.07 471.4,-67.4 479.69,-60.81 473.77,-57.07"/>
</g>
<!-- Node16&#45;&gt;Node7 -->
<g id="edge22" class="edge">
<title>Node16&#45;&gt;Node7</title>
<path fill="none" stroke="midnightblue" d="M536.5,-66.56C600.22,-53.7 689.93,-35.59 742.17,-25.05"/>
<polygon fill="midnightblue" stroke="midnightblue" points="535.61,-63.17 526.5,-68.58 537,-70.03 535.61,-63.17"/>
</g>
<!-- Node16&#45;&gt;Node8 -->
<g id="edge23" class="edge">
<title>Node16&#45;&gt;Node8</title>
<path fill="none" stroke="midnightblue" d="M536.93,-71.71C549.15,-70.12 561.68,-68.51 573.5,-67 702.34,-50.59 735.01,-49.92 863.5,-31 875.64,-29.21 888.73,-27.08 900.91,-25.01"/>
<polygon fill="midnightblue" stroke="midnightblue" points="536.23,-68.27 526.76,-73.03 537.13,-75.21 536.23,-68.27"/>
</g>
<!-- Node17 -->
<g id="node17" class="node">
<title>Node17</title>
<g id="a_node17"><a xlink:href="network_8cpp.html" target="_top" xlink:title=" ">
<polygon fill="none" stroke="black" points="153.5,-6 153.5,-25 323.5,-25 323.5,-6 153.5,-6"/>
<text text-anchor="middle" x="238.5" y="-13" font-family="Helvetica,sans-Serif" font-size="10.00">src/nmbuflowtorch/network.cpp</text>
</a>
</g>
</g>
<!-- Node16&#45;&gt;Node17 -->
<g id="edge24" class="edge">
<title>Node16&#45;&gt;Node17</title>
<path fill="none" stroke="midnightblue" d="M404.5,-64.67C360.72,-51.97 302.47,-35.06 267.89,-25.03"/>
<polygon fill="midnightblue" stroke="midnightblue" points="403.59,-68.05 414.17,-67.48 405.54,-61.33 403.59,-68.05"/>
</g>
</g>
</svg>
