<?xml version="1.0" encoding="UTF-8" standalone="no"?>
<!DOCTYPE svg PUBLIC "-//W3C//DTD SVG 1.1//EN"
 "http://www.w3.org/Graphics/SVG/1.1/DTD/svg11.dtd">
<!-- Generated by graphviz version 2.43.0 (0)
 -->
<!-- Title: include/nmbuflowtorch/layer.hpp Pages: 1 -->
<svg width="1486pt" height="173pt"
 viewBox="0.00 0.00 1486.00 173.00" xmlns="http://www.w3.org/2000/svg" xmlns:xlink="http://www.w3.org/1999/xlink">
<g id="graph0" class="graph" transform="scale(1 1) rotate(0) translate(4 169)">
<title>include/nmbuflowtorch/layer.hpp</title>
<!-- Node1 -->
<g id="node1" class="node">
<title>Node1</title>
<g id="a_node1"><a xlink:title=" ">
<polygon fill="#bfbfbf" stroke="black" points="654,-134.5 654,-164.5 782,-164.5 782,-134.5 654,-134.5"/>
<text text-anchor="start" x="662" y="-152.5" font-family="Helvetica,sans-Serif" font-size="10.00">include/nmbuflowtorch</text>
<text text-anchor="middle" x="718" y="-141.5" font-family="Helvetica,sans-Serif" font-size="10.00">/layer.hpp</text>
</a>
</g>
</g>
<!-- Node2 -->
<g id="node2" class="node">
<title>Node2</title>
<g id="a_node2"><a xlink:href="conv_8hpp.html" target="_top" xlink:title=" ">
<polygon fill="none" stroke="black" points="112,-67.5 112,-97.5 240,-97.5 240,-67.5 112,-67.5"/>
<text text-anchor="start" x="120" y="-85.5" font-family="Helvetica,sans-Serif" font-size="10.00">include/nmbuflowtorch</text>
<text text-anchor="middle" x="176" y="-74.5" font-family="Helvetica,sans-Serif" font-size="10.00">/layer/conv.hpp</text>
</a>
</g>
</g>
<!-- Node1&#45;&gt;Node2 -->
<g id="edge1" class="edge">
<title>Node1&#45;&gt;Node2</title>
<path fill="none" stroke="midnightblue" d="M643.91,-139.61C537.04,-126.8 341.4,-103.34 240.29,-91.21"/>
<polygon fill="midnightblue" stroke="midnightblue" points="643.62,-143.1 653.96,-140.82 644.45,-136.15 643.62,-143.1"/>
</g>
<!-- Node4 -->
<g id="node4" class="node">
<title>Node4</title>
<g id="a_node4"><a xlink:href="dense_8hpp.html" target="_top" xlink:title=" ">
<polygon fill="none" stroke="black" points="727,-67.5 727,-97.5 855,-97.5 855,-67.5 727,-67.5"/>
<text text-anchor="start" x="735" y="-85.5" font-family="Helvetica,sans-Serif" font-size="10.00">include/nmbuflowtorch</text>
<text text-anchor="middle" x="791" y="-74.5" font-family="Helvetica,sans-Serif" font-size="10.00">/layer/dense.hpp</text>
</a>
</g>
</g>
<!-- Node1&#45;&gt;Node4 -->
<g id="edge3" class="edge">
<title>Node1&#45;&gt;Node4</title>
<path fill="none" stroke="midnightblue" d="M741.47,-127.6C752.5,-117.78 765.34,-106.34 775.19,-97.58"/>
<polygon fill="midnightblue" stroke="midnightblue" points="738.98,-125.13 733.84,-134.4 743.64,-130.36 738.98,-125.13"/>
</g>
<!-- Node5 -->
<g id="node5" class="node">
<title>Node5</title>
<g id="a_node5"><a xlink:href="main_01copy_8cpp.html" target="_top" xlink:title=" ">
<polygon fill="none" stroke="black" points="340,-6 340,-25 444,-25 444,-6 340,-6"/>
<text text-anchor="middle" x="392" y="-13" font-family="Helvetica,sans-Serif" font-size="10.00">src/main copy.cpp</text>
</a>
</g>
</g>
<!-- Node1&#45;&gt;Node5 -->
<g id="edge25" class="edge">
<title>Node1&#45;&gt;Node5</title>
<path fill="none" stroke="midnightblue" d="M643.66,-147.93C556.65,-145.5 420.28,-135.59 388,-98 370.28,-77.36 381.39,-41.84 388.05,-25.37"/>
<polygon fill="midnightblue" stroke="midnightblue" points="643.67,-151.43 653.76,-148.18 643.85,-144.43 643.67,-151.43"/>
</g>
<!-- Node6 -->
<g id="node6" class="node">
<title>Node6</title>
<g id="a_node6"><a xlink:href="main_8cpp.html" target="_top" xlink:title=" ">
<polygon fill="none" stroke="black" points="462.5,-6 462.5,-25 541.5,-25 541.5,-6 462.5,-6"/>
<text text-anchor="middle" x="502" y="-13" font-family="Helvetica,sans-Serif" font-size="10.00">src/main.cpp</text>
</a>
</g>
</g>
<!-- Node1&#45;&gt;Node6 -->
<g id="edge26" class="edge">
<title>Node1&#45;&gt;Node6</title>
<path fill="none" stroke="midnightblue" d="M644.97,-131.53C620.46,-123.74 593.83,-112.84 572,-98 542.23,-77.76 517.56,-41.72 507.22,-25.2"/>
<polygon fill="midnightblue" stroke="midnightblue" points="644.02,-134.89 654.6,-134.47 646.06,-128.2 644.02,-134.89"/>
</g>
<!-- Node7 -->
<g id="node7" class="node">
<title>Node7</title>
<g id="a_node7"><a xlink:href="main__multithread_8cpp.html" target="_top" xlink:title=" ">
<polygon fill="none" stroke="black" points="712.5,-6 712.5,-25 853.5,-25 853.5,-6 712.5,-6"/>
<text text-anchor="middle" x="783" y="-13" font-family="Helvetica,sans-Serif" font-size="10.00">src/main_multithread.cpp</text>
</a>
</g>
</g>
<!-- Node1&#45;&gt;Node7 -->
<g id="edge27" class="edge">
<title>Node1&#45;&gt;Node7</title>
<path fill="none" stroke="midnightblue" d="M791.98,-140.82C819.18,-134 847.37,-121.35 864,-98 871.99,-86.78 870.69,-79.05 864,-67 852.42,-46.13 828.24,-32.76 809.3,-25.06"/>
<polygon fill="midnightblue" stroke="midnightblue" points="791,-137.46 782.03,-143.08 792.55,-144.28 791,-137.46"/>
</g>
<!-- Node8 -->
<g id="node8" class="node">
<title>Node8</title>
<g id="a_node8"><a xlink:href="main__single__thread_8cpp.html" target="_top" xlink:title=" ">
<polygon fill="none" stroke="black" points="872,-6 872,-25 1022,-25 1022,-6 872,-6"/>
<text text-anchor="middle" x="947" y="-13" font-family="Helvetica,sans-Serif" font-size="10.00">src/main_single_thread.cpp</text>
</a>
</g>
</g>
<!-- Node1&#45;&gt;Node8 -->
<g id="edge28" class="edge">
<title>Node1&#45;&gt;Node8</title>
<path fill="none" stroke="midnightblue" d="M792.04,-135.33C821.47,-127.69 854.55,-115.91 881,-98 910.25,-78.19 933.07,-41.6 942.41,-25.04"/>
<polygon fill="midnightblue" stroke="midnightblue" points="791.07,-131.96 782.21,-137.76 792.76,-138.76 791.07,-131.96"/>
</g>
<!-- Node10 -->
<g id="node10" class="node">
<title>Node10</title>
<g id="a_node10"><a xlink:href="relu_8hpp.html" target="_top" xlink:title=" ">
<polygon fill="none" stroke="black" points="1084,-67.5 1084,-97.5 1212,-97.5 1212,-67.5 1084,-67.5"/>
<text text-anchor="start" x="1092" y="-85.5" font-family="Helvetica,sans-Serif" font-size="10.00">include/nmbuflowtorch</text>
<text text-anchor="middle" x="1148" y="-74.5" font-family="Helvetica,sans-Serif" font-size="10.00">/layer/relu.hpp</text>
</a>
</g>
</g>
<!-- Node1&#45;&gt;Node10 -->
<g id="edge9" class="edge">
<title>Node1&#45;&gt;Node10</title>
<path fill="none" stroke="midnightblue" d="M792.41,-137.25C874.71,-124.81 1005.96,-104.97 1083.89,-93.19"/>
<polygon fill="midnightblue" stroke="midnightblue" points="791.74,-133.81 782.38,-138.77 792.79,-140.73 791.74,-133.81"/>
</g>
<!-- Node12 -->
<g id="node12" class="node">
<title>Node12</title>
<g id="a_node12"><a xlink:href="sigmoid_8hpp.html" target="_top" xlink:title=" ">
<polygon fill="none" stroke="black" points="581,-67.5 581,-97.5 709,-97.5 709,-67.5 581,-67.5"/>
<text text-anchor="start" x="589" y="-85.5" font-family="Helvetica,sans-Serif" font-size="10.00">include/nmbuflowtorch</text>
<text text-anchor="middle" x="645" y="-74.5" font-family="Helvetica,sans-Serif" font-size="10.00">/layer/sigmoid.hpp</text>
</a>
</g>
</g>
<!-- Node1&#45;&gt;Node12 -->
<g id="edge11" class="edge">
<title>Node1&#45;&gt;Node12</title>
<path fill="none" stroke="midnightblue" d="M694.53,-127.6C683.5,-117.78 670.66,-106.34 660.81,-97.58"/>
<polygon fill="midnightblue" stroke="midnightblue" points="692.36,-130.36 702.16,-134.4 697.02,-125.13 692.36,-130.36"/>
</g>
<!-- Node14 -->
<g id="node14" class="node">
<title>Node14</title>
<g id="a_node14"><a xlink:href="softmax_8hpp.html" target="_top" xlink:title=" ">
<polygon fill="none" stroke="black" points="1292,-67.5 1292,-97.5 1420,-97.5 1420,-67.5 1292,-67.5"/>
<text text-anchor="start" x="1300" y="-85.5" font-family="Helvetica,sans-Serif" font-size="10.00">include/nmbuflowtorch</text>
<text text-anchor="middle" x="1356" y="-74.5" font-family="Helvetica,sans-Serif" font-size="10.00">/layer/softmax.hpp</text>
</a>
</g>
</g>
<!-- Node1&#45;&gt;Node14 -->
<g id="edge17" class="edge">
<title>Node1&#45;&gt;Node14</title>
<path fill="none" stroke="midnightblue" d="M792.45,-141.19C890.64,-131.51 1068.82,-113.81 1221,-98 1244.09,-95.6 1269.4,-92.9 1291.8,-90.49"/>
<polygon fill="midnightblue" stroke="midnightblue" points="791.94,-137.72 782.33,-142.19 792.62,-144.69 791.94,-137.72"/>
</g>
<!-- Node16 -->
<g id="node16" class="node">
<title>Node16</title>
<g id="a_node16"><a xlink:href="network_8hpp.html" target="_top" xlink:title="Network class representing a sequence of layers. This class implements a network consisting of a sequ...">
<polygon fill="none" stroke="black" points="397,-67.5 397,-97.5 525,-97.5 525,-67.5 397,-67.5"/>
<text text-anchor="start" x="405" y="-85.5" font-family="Helvetica,sans-Serif" font-size="10.00">include/nmbuflowtorch</text>
<text text-anchor="middle" x="461" y="-74.5" font-family="Helvetica,sans-Serif" font-size="10.00">/network.hpp</text>
</a>
</g>
</g>
<!-- Node1&#45;&gt;Node16 -->
<g id="edge19" class="edge">
<title>Node1&#45;&gt;Node16</title>
<path fill="none" stroke="midnightblue" d="M652.7,-131.98C610.72,-121.37 556.76,-107.72 516.79,-97.61"/>
<polygon fill="midnightblue" stroke="midnightblue" points="652,-135.42 662.55,-134.48 653.71,-128.63 652,-135.42"/>
</g>
<!-- Node3 -->
<g id="node3" class="node">
<title>Node3</title>
<g id="a_node3"><a xlink:href="conv_8cpp.html" target="_top" xlink:title=" ">
<polygon fill="none" stroke="black" points="0,-0.5 0,-30.5 134,-30.5 134,-0.5 0,-0.5"/>
<text text-anchor="start" x="8" y="-18.5" font-family="Helvetica,sans-Serif" font-size="10.00">src/nmbuflowtorch/layer</text>
<text text-anchor="middle" x="67" y="-7.5" font-family="Helvetica,sans-Serif" font-size="10.00">/conv.cpp</text>
</a>
</g>
</g>
<!-- Node2&#45;&gt;Node3 -->
<g id="edge2" class="edge">
<title>Node2&#45;&gt;Node3</title>
<path fill="none" stroke="midnightblue" d="M143.33,-62.02C126.36,-51.9 106.02,-39.77 90.61,-30.58"/>
<polygon fill="midnightblue" stroke="midnightblue" points="141.97,-65.28 152.35,-67.4 145.55,-59.27 141.97,-65.28"/>
</g>
<!-- Node4&#45;&gt;Node5 -->
<g id="edge4" class="edge">
<title>Node4&#45;&gt;Node5</title>
<path fill="none" stroke="midnightblue" d="M716.81,-66.87C599.01,-47.69 566.65,-52.17 453,-31 444.01,-29.33 434.35,-27.19 425.43,-25.07"/>
<polygon fill="midnightblue" stroke="midnightblue" points="716.51,-70.37 726.95,-68.55 717.65,-63.46 716.51,-70.37"/>
</g>
<!-- Node4&#45;&gt;Node6 -->
<g id="edge5" class="edge">
<title>Node4&#45;&gt;Node6</title>
<path fill="none" stroke="midnightblue" d="M716.81,-66.57C658.38,-54.68 581.83,-38.79 551,-31 543.95,-29.22 536.38,-27.09 529.36,-25.02"/>
<polygon fill="midnightblue" stroke="midnightblue" points="716.26,-70.03 726.75,-68.59 717.65,-63.17 716.26,-70.03"/>
</g>
<!-- Node4&#45;&gt;Node7 -->
<g id="edge6" class="edge">
<title>Node4&#45;&gt;Node7</title>
<path fill="none" stroke="midnightblue" d="M788.02,-57.25C786.63,-46.02 785.08,-33.38 784.07,-25.19"/>
<polygon fill="midnightblue" stroke="midnightblue" points="784.57,-57.9 789.26,-67.4 791.52,-57.04 784.57,-57.9"/>
</g>
<!-- Node4&#45;&gt;Node8 -->
<g id="edge7" class="edge">
<title>Node4&#45;&gt;Node8</title>
<path fill="none" stroke="midnightblue" d="M834.3,-63.46C864.44,-50.9 903.26,-34.72 926.58,-25.01"/>
<polygon fill="midnightblue" stroke="midnightblue" points="832.73,-60.32 824.85,-67.4 835.43,-66.78 832.73,-60.32"/>
</g>
<!-- Node9 -->
<g id="node9" class="node">
<title>Node9</title>
<g id="a_node9"><a xlink:href="dense_8cpp.html" target="_top" xlink:title=" ">
<polygon fill="none" stroke="black" points="1040,-0.5 1040,-30.5 1174,-30.5 1174,-0.5 1040,-0.5"/>
<text text-anchor="start" x="1048" y="-18.5" font-family="Helvetica,sans-Serif" font-size="10.00">src/nmbuflowtorch/layer</text>
<text text-anchor="middle" x="1107" y="-7.5" font-family="Helvetica,sans-Serif" font-size="10.00">/dense.cpp</text>
</a>
</g>
</g>
<!-- Node4&#45;&gt;Node9 -->
<g id="edge8" class="edge">
<title>Node4&#45;&gt;Node9</title>
<path fill="none" stroke="midnightblue" d="M865.32,-66.21C918.17,-55.34 988.58,-40.86 1039.76,-30.33"/>
<polygon fill="midnightblue" stroke="midnightblue" points="864.42,-62.82 855.33,-68.27 865.83,-69.68 864.42,-62.82"/>
</g>
<!-- Node11 -->
<g id="node11" class="node">
<title>Node11</title>
<g id="a_node11"><a xlink:href="relu_8cpp.html" target="_top" xlink:title=" ">
<polygon fill="none" stroke="black" points="1192,-0.5 1192,-30.5 1326,-30.5 1326,-0.5 1192,-0.5"/>
<text text-anchor="start" x="1200" y="-18.5" font-family="Helvetica,sans-Serif" font-size="10.00">src/nmbuflowtorch/layer</text>
<text text-anchor="middle" x="1259" y="-7.5" font-family="Helvetica,sans-Serif" font-size="10.00">/relu.cpp</text>
</a>
</g>
</g>
<!-- Node10&#45;&gt;Node11 -->
<g id="edge10" class="edge">
<title>Node10&#45;&gt;Node11</title>
<path fill="none" stroke="midnightblue" d="M1180.8,-62.3C1198.16,-52.12 1219.12,-39.85 1234.96,-30.58"/>
<polygon fill="midnightblue" stroke="midnightblue" points="1178.95,-59.32 1172.09,-67.4 1182.48,-65.36 1178.95,-59.32"/>
</g>
<!-- Node12&#45;&gt;Node5 -->
<g id="edge12" class="edge">
<title>Node12&#45;&gt;Node5</title>
<path fill="none" stroke="midnightblue" d="M580.43,-64.91C530.88,-52.18 464.5,-35.13 425.2,-25.03"/>
<polygon fill="midnightblue" stroke="midnightblue" points="579.86,-68.38 590.41,-67.48 581.6,-61.6 579.86,-68.38"/>
</g>
<!-- Node12&#45;&gt;Node6 -->
<g id="edge13" class="edge">
<title>Node12&#45;&gt;Node6</title>
<path fill="none" stroke="midnightblue" d="M604.59,-63.13C577.07,-50.62 541.91,-34.64 520.72,-25.01"/>
<polygon fill="midnightblue" stroke="midnightblue" points="603.42,-66.44 613.97,-67.4 606.32,-60.07 603.42,-66.44"/>
</g>
<!-- Node12&#45;&gt;Node7 -->
<g id="edge14" class="edge">
<title>Node12&#45;&gt;Node7</title>
<path fill="none" stroke="midnightblue" d="M684,-63.13C710.56,-50.62 744.49,-34.64 764.94,-25.01"/>
<polygon fill="midnightblue" stroke="midnightblue" points="682.5,-59.97 674.94,-67.4 685.48,-66.3 682.5,-59.97"/>
</g>
<!-- Node12&#45;&gt;Node8 -->
<g id="edge15" class="edge">
<title>Node12&#45;&gt;Node8</title>
<path fill="none" stroke="midnightblue" d="M719.11,-65.55C778.43,-52.78 859.32,-35.37 907.07,-25.09"/>
<polygon fill="midnightblue" stroke="midnightblue" points="718.09,-62.19 709.05,-67.72 719.56,-69.03 718.09,-62.19"/>
</g>
<!-- Node13 -->
<g id="node13" class="node">
<title>Node13</title>
<g id="a_node13"><a xlink:href="sigmoid_8cpp.html" target="_top" xlink:title=" ">
<polygon fill="none" stroke="black" points="560,-0.5 560,-30.5 694,-30.5 694,-0.5 560,-0.5"/>
<text text-anchor="start" x="568" y="-18.5" font-family="Helvetica,sans-Serif" font-size="10.00">src/nmbuflowtorch/layer</text>
<text text-anchor="middle" x="627" y="-7.5" font-family="Helvetica,sans-Serif" font-size="10.00">/sigmoid.cpp</text>
</a>
</g>
</g>
<!-- Node12&#45;&gt;Node13 -->
<g id="edge16" class="edge">
<title>Node12&#45;&gt;Node13</title>
<path fill="none" stroke="midnightblue" d="M638.41,-57.7C635.89,-48.59 633.09,-38.49 630.9,-30.58"/>
<polygon fill="midnightblue" stroke="midnightblue" points="635.05,-58.69 641.09,-67.4 641.8,-56.82 635.05,-58.69"/>
</g>
<!-- Node15 -->
<g id="node15" class="node">
<title>Node15</title>
<g id="a_node15"><a xlink:href="softmax_8cpp.html" target="_top" xlink:title=" ">
<polygon fill="none" stroke="black" points="1344,-0.5 1344,-30.5 1478,-30.5 1478,-0.5 1344,-0.5"/>
<text text-anchor="start" x="1352" y="-18.5" font-family="Helvetica,sans-Serif" font-size="10.00">src/nmbuflowtorch/layer</text>
<text text-anchor="middle" x="1411" y="-7.5" font-family="Helvetica,sans-Serif" font-size="10.00">/softmax.cpp</text>
</a>
</g>
</g>
<!-- Node14&#45;&gt;Node15 -->
<g id="edge18" class="edge">
<title>Node14&#45;&gt;Node15</title>
<path fill="none" stroke="midnightblue" d="M1374.42,-59.74C1382.55,-50.12 1391.89,-39.09 1399.09,-30.58"/>
<polygon fill="midnightblue" stroke="midnightblue" points="1371.72,-57.5 1367.93,-67.4 1377.07,-62.02 1371.72,-57.5"/>
</g>
<!-- Node16&#45;&gt;Node5 -->
<g id="edge20" class="edge">
<title>Node16&#45;&gt;Node5</title>
<path fill="none" stroke="midnightblue" d="M438.53,-60.34C425.86,-48.4 410.72,-34.14 401.23,-25.19"/>
<polygon fill="midnightblue" stroke="midnightblue" points="436.35,-63.09 446.03,-67.4 441.15,-57.99 436.35,-63.09"/>
</g>
<!-- Node16&#45;&gt;Node6 -->
<g id="edge21" class="edge">
<title>Node16&#45;&gt;Node6</title>
<path fill="none" stroke="midnightblue" d="M475.42,-58.63C482.72,-47.07 491.14,-33.71 496.52,-25.19"/>
<polygon fill="midnightblue" stroke="midnightblue" points="472.27,-57.07 469.9,-67.4 478.19,-60.81 472.27,-57.07"/>
</g>
<!-- Node16&#45;&gt;Node7 -->
<g id="edge22" class="edge">
<title>Node16&#45;&gt;Node7</title>
<path fill="none" stroke="midnightblue" d="M535,-66.56C598.72,-53.7 688.43,-35.59 740.67,-25.05"/>
<polygon fill="midnightblue" stroke="midnightblue" points="534.11,-63.17 525,-68.58 535.5,-70.03 534.11,-63.17"/>
</g>
<!-- Node16&#45;&gt;Node8 -->
<g id="edge23" class="edge">
<title>Node16&#45;&gt;Node8</title>
<path fill="none" stroke="midnightblue" d="M535.43,-71.71C547.65,-70.12 560.18,-68.51 572,-67 700.84,-50.59 733.51,-49.92 862,-31 874.14,-29.21 887.23,-27.08 899.41,-25.01"/>
<polygon fill="midnightblue" stroke="midnightblue" points="534.73,-68.27 525.26,-73.03 535.63,-75.21 534.73,-68.27"/>
</g>
<!-- Node17 -->
<g id="node17" class="node">
<title>Node17</title>
<g id="a_node17"><a xlink:href="network_8cpp.html" target="_top" xlink:title=" ">
<polygon fill="none" stroke="black" points="152,-6 152,-25 322,-25 322,-6 152,-6"/>
<text text-anchor="middle" x="237" y="-13" font-family="Helvetica,sans-Serif" font-size="10.00">src/nmbuflowtorch/network.cpp</text>
</a>
</g>
</g>
<!-- Node16&#45;&gt;Node17 -->
<g id="edge24" class="edge">
<title>Node16&#45;&gt;Node17</title>
<path fill="none" stroke="midnightblue" d="M403,-64.67C359.22,-51.97 300.97,-35.06 266.39,-25.03"/>
<polygon fill="midnightblue" stroke="midnightblue" points="402.09,-68.05 412.67,-67.48 404.04,-61.33 402.09,-68.05"/>
</g>
</g>
</svg>
