<?xml version="1.0" encoding="UTF-8" standalone="no"?>
<!DOCTYPE svg PUBLIC "-//W3C//DTD SVG 1.1//EN"
 "http://www.w3.org/Graphics/SVG/1.1/DTD/svg11.dtd">
<!-- Generated by graphviz version 2.43.0 (0)
 -->
<!-- Title: include/nmbuflowtorch/layer.hpp Pages: 1 -->
<svg width="1339pt" height="173pt"
 viewBox="0.00 0.00 1338.50 173.00" xmlns="http://www.w3.org/2000/svg" xmlns:xlink="http://www.w3.org/1999/xlink">
<g id="graph0" class="graph" transform="scale(1 1) rotate(0) translate(4 169)">
<title>include/nmbuflowtorch/layer.hpp</title>
<!-- Node1 -->
<g id="node1" class="node">
<title>Node1</title>
<g id="a_node1"><a xlink:title=" ">
<polygon fill="#bfbfbf" stroke="black" points="586,-134.5 586,-164.5 714,-164.5 714,-134.5 586,-134.5"/>
<text text-anchor="start" x="594" y="-152.5" font-family="Helvetica,sans-Serif" font-size="10.00">include/nmbuflowtorch</text>
<text text-anchor="middle" x="650" y="-141.5" font-family="Helvetica,sans-Serif" font-size="10.00">/layer.hpp</text>
</a>
</g>
</g>
<!-- Node2 -->
<g id="node2" class="node">
<title>Node2</title>
<g id="a_node2"><a xlink:href="dense_8hpp.html" target="_top" xlink:title=" ">
<polygon fill="none" stroke="black" points="586,-67.5 586,-97.5 714,-97.5 714,-67.5 586,-67.5"/>
<text text-anchor="start" x="594" y="-85.5" font-family="Helvetica,sans-Serif" font-size="10.00">include/nmbuflowtorch</text>
<text text-anchor="middle" x="650" y="-74.5" font-family="Helvetica,sans-Serif" font-size="10.00">/layer/dense.hpp</text>
</a>
</g>
</g>
<!-- Node1&#45;&gt;Node2 -->
<g id="edge1" class="edge">
<title>Node1&#45;&gt;Node2</title>
<path fill="none" stroke="midnightblue" d="M650,-124.11C650,-115.15 650,-105.32 650,-97.58"/>
<polygon fill="midnightblue" stroke="midnightblue" points="646.5,-124.4 650,-134.4 653.5,-124.4 646.5,-124.4"/>
</g>
<!-- Node3 -->
<g id="node3" class="node">
<title>Node3</title>
<g id="a_node3"><a xlink:href="main_01copy_8cpp.html" target="_top" xlink:title=" ">
<polygon fill="none" stroke="black" points="286,-6 286,-25 390,-25 390,-6 286,-6"/>
<text text-anchor="middle" x="338" y="-13" font-family="Helvetica,sans-Serif" font-size="10.00">src/main copy.cpp</text>
</a>
</g>
</g>
<!-- Node1&#45;&gt;Node3 -->
<g id="edge23" class="edge">
<title>Node1&#45;&gt;Node3</title>
<path fill="none" stroke="midnightblue" d="M575.76,-140.62C531.82,-133.75 476.11,-121.09 431,-98 421.35,-93.06 369.03,-45.17 347.38,-25.19"/>
<polygon fill="midnightblue" stroke="midnightblue" points="575.4,-144.1 585.81,-142.12 576.43,-137.18 575.4,-144.1"/>
</g>
<!-- Node4 -->
<g id="node4" class="node">
<title>Node4</title>
<g id="a_node4"><a xlink:href="src_2main_8cpp.html" target="_top" xlink:title=" ">
<polygon fill="none" stroke="black" points="188.5,-6 188.5,-25 267.5,-25 267.5,-6 188.5,-6"/>
<text text-anchor="middle" x="228" y="-13" font-family="Helvetica,sans-Serif" font-size="10.00">src/main.cpp</text>
</a>
</g>
</g>
<!-- Node1&#45;&gt;Node4 -->
<g id="edge24" class="edge">
<title>Node1&#45;&gt;Node4</title>
<path fill="none" stroke="midnightblue" d="M575.76,-149.01C472.8,-148.12 293.96,-140.3 247,-98 226.06,-79.14 225.94,-42.06 227.12,-25.21"/>
<polygon fill="midnightblue" stroke="midnightblue" points="575.77,-152.51 585.79,-149.08 575.81,-145.51 575.77,-152.51"/>
</g>
<!-- Node5 -->
<g id="node5" class="node">
<title>Node5</title>
<g id="a_node5"><a xlink:href="main__multithread_8cpp.html" target="_top" xlink:title=" ">
<polygon fill="none" stroke="black" points="730.5,-6 730.5,-25 871.5,-25 871.5,-6 730.5,-6"/>
<text text-anchor="middle" x="801" y="-13" font-family="Helvetica,sans-Serif" font-size="10.00">src/main_multithread.cpp</text>
</a>
</g>
</g>
<!-- Node1&#45;&gt;Node5 -->
<g id="edge25" class="edge">
<title>Node1&#45;&gt;Node5</title>
<path fill="none" stroke="midnightblue" d="M691.7,-129.74C707.78,-121.36 725.7,-110.54 740,-98 765.52,-75.63 787.07,-40.97 796.25,-25.04"/>
<polygon fill="midnightblue" stroke="midnightblue" points="689.85,-126.75 682.49,-134.38 693,-133.01 689.85,-126.75"/>
</g>
<!-- Node6 -->
<g id="node6" class="node">
<title>Node6</title>
<g id="a_node6"><a xlink:href="main__single__thread_8cpp.html" target="_top" xlink:title=" ">
<polygon fill="none" stroke="black" points="562,-6 562,-25 712,-25 712,-6 562,-6"/>
<text text-anchor="middle" x="637" y="-13" font-family="Helvetica,sans-Serif" font-size="10.00">src/main_single_thread.cpp</text>
</a>
</g>
</g>
<!-- Node1&#45;&gt;Node6 -->
<g id="edge26" class="edge">
<title>Node1&#45;&gt;Node6</title>
<path fill="none" stroke="midnightblue" d="M692.26,-129.08C704.41,-121.25 716.21,-110.96 723,-98 729.4,-85.8 729.84,-78.96 723,-67 710.87,-45.81 686.01,-32.64 666.13,-25.09"/>
<polygon fill="midnightblue" stroke="midnightblue" points="690.21,-126.22 683.41,-134.34 693.79,-132.23 690.21,-126.22"/>
</g>
<!-- Node8 -->
<g id="node8" class="node">
<title>Node8</title>
<g id="a_node8"><a xlink:href="relu_8hpp.html" target="_top" xlink:title=" ">
<polygon fill="none" stroke="black" points="932,-67.5 932,-97.5 1060,-97.5 1060,-67.5 932,-67.5"/>
<text text-anchor="start" x="940" y="-85.5" font-family="Helvetica,sans-Serif" font-size="10.00">include/nmbuflowtorch</text>
<text text-anchor="middle" x="996" y="-74.5" font-family="Helvetica,sans-Serif" font-size="10.00">/layer/relu.hpp</text>
</a>
</g>
</g>
<!-- Node1&#45;&gt;Node8 -->
<g id="edge7" class="edge">
<title>Node1&#45;&gt;Node8</title>
<path fill="none" stroke="midnightblue" d="M724.34,-134.53C786.09,-122.93 873.02,-106.6 931.78,-95.56"/>
<polygon fill="midnightblue" stroke="midnightblue" points="723.45,-131.14 714.27,-136.43 724.74,-138.02 723.45,-131.14"/>
</g>
<!-- Node10 -->
<g id="node10" class="node">
<title>Node10</title>
<g id="a_node10"><a xlink:href="sigmoid_8hpp.html" target="_top" xlink:title=" ">
<polygon fill="none" stroke="black" points="440,-67.5 440,-97.5 568,-97.5 568,-67.5 440,-67.5"/>
<text text-anchor="start" x="448" y="-85.5" font-family="Helvetica,sans-Serif" font-size="10.00">include/nmbuflowtorch</text>
<text text-anchor="middle" x="504" y="-74.5" font-family="Helvetica,sans-Serif" font-size="10.00">/layer/sigmoid.hpp</text>
</a>
</g>
</g>
<!-- Node1&#45;&gt;Node10 -->
<g id="edge9" class="edge">
<title>Node1&#45;&gt;Node10</title>
<path fill="none" stroke="midnightblue" d="M609.05,-130.27C585.8,-119.92 557.13,-107.15 535.62,-97.58"/>
<polygon fill="midnightblue" stroke="midnightblue" points="607.76,-133.53 618.32,-134.4 610.61,-127.13 607.76,-133.53"/>
</g>
<!-- Node12 -->
<g id="node12" class="node">
<title>Node12</title>
<g id="a_node12"><a xlink:href="softmax_8hpp.html" target="_top" xlink:title=" ">
<polygon fill="none" stroke="black" points="1138,-67.5 1138,-97.5 1266,-97.5 1266,-67.5 1138,-67.5"/>
<text text-anchor="start" x="1146" y="-85.5" font-family="Helvetica,sans-Serif" font-size="10.00">include/nmbuflowtorch</text>
<text text-anchor="middle" x="1202" y="-74.5" font-family="Helvetica,sans-Serif" font-size="10.00">/layer/softmax.hpp</text>
</a>
</g>
</g>
<!-- Node1&#45;&gt;Node12 -->
<g id="edge15" class="edge">
<title>Node1&#45;&gt;Node12</title>
<path fill="none" stroke="midnightblue" d="M724.06,-139.78C833.08,-126.94 1034.94,-103.17 1137.94,-91.04"/>
<polygon fill="midnightblue" stroke="midnightblue" points="723.65,-136.3 714.13,-140.95 724.47,-143.25 723.65,-136.3"/>
</g>
<!-- Node14 -->
<g id="node14" class="node">
<title>Node14</title>
<g id="a_node14"><a xlink:href="network_8hpp.html" target="_top" xlink:title=" ">
<polygon fill="none" stroke="black" points="256,-67.5 256,-97.5 384,-97.5 384,-67.5 256,-67.5"/>
<text text-anchor="start" x="264" y="-85.5" font-family="Helvetica,sans-Serif" font-size="10.00">include/nmbuflowtorch</text>
<text text-anchor="middle" x="320" y="-74.5" font-family="Helvetica,sans-Serif" font-size="10.00">/network.hpp</text>
</a>
</g>
</g>
<!-- Node1&#45;&gt;Node14 -->
<g id="edge17" class="edge">
<title>Node1&#45;&gt;Node14</title>
<path fill="none" stroke="midnightblue" d="M575.84,-133.89C518.19,-122.54 439.05,-106.95 384.12,-96.13"/>
<polygon fill="midnightblue" stroke="midnightblue" points="575.49,-137.39 585.98,-135.89 576.85,-130.52 575.49,-137.39"/>
</g>
<!-- Node2&#45;&gt;Node3 -->
<g id="edge2" class="edge">
<title>Node2&#45;&gt;Node3</title>
<path fill="none" stroke="midnightblue" d="M575.52,-66.65C507.89,-53.15 416.16,-34.77 399,-31 390.6,-29.16 381.58,-27.07 373.11,-25.07"/>
<polygon fill="midnightblue" stroke="midnightblue" points="575.24,-70.17 585.73,-68.69 576.61,-63.3 575.24,-70.17"/>
</g>
<!-- Node2&#45;&gt;Node4 -->
<g id="edge3" class="edge">
<title>Node2&#45;&gt;Node4</title>
<path fill="none" stroke="midnightblue" d="M575.77,-66.9C442.57,-46.48 405.31,-57.49 277,-31 269.44,-29.44 261.36,-27.27 253.99,-25.07"/>
<polygon fill="midnightblue" stroke="midnightblue" points="575.53,-70.4 585.96,-68.49 576.62,-63.49 575.53,-70.4"/>
</g>
<!-- Node2&#45;&gt;Node5 -->
<g id="edge4" class="edge">
<title>Node2&#45;&gt;Node5</title>
<path fill="none" stroke="midnightblue" d="M692.29,-63.3C721.41,-50.76 758.76,-34.68 781.24,-25.01"/>
<polygon fill="midnightblue" stroke="midnightblue" points="690.57,-60.23 682.76,-67.4 693.33,-66.66 690.57,-60.23"/>
</g>
<!-- Node2&#45;&gt;Node6 -->
<g id="edge5" class="edge">
<title>Node2&#45;&gt;Node6</title>
<path fill="none" stroke="midnightblue" d="M645.15,-57.25C642.9,-46.02 640.38,-33.38 638.74,-25.19"/>
<polygon fill="midnightblue" stroke="midnightblue" points="641.79,-58.28 647.18,-67.4 648.65,-56.9 641.79,-58.28"/>
</g>
<!-- Node7 -->
<g id="node7" class="node">
<title>Node7</title>
<g id="a_node7"><a xlink:href="dense_8cpp.html" target="_top" xlink:title=" ">
<polygon fill="none" stroke="black" points="889.5,-0.5 889.5,-30.5 1024.5,-30.5 1024.5,-0.5 889.5,-0.5"/>
<text text-anchor="start" x="897.5" y="-18.5" font-family="Helvetica,sans-Serif" font-size="10.00">src/nmbuflowtorch/layer</text>
<text text-anchor="middle" x="957" y="-7.5" font-family="Helvetica,sans-Serif" font-size="10.00">/dense.cpp</text>
</a>
</g>
</g>
<!-- Node2&#45;&gt;Node7 -->
<g id="edge6" class="edge">
<title>Node2&#45;&gt;Node7</title>
<path fill="none" stroke="midnightblue" d="M724.3,-65.77C775.12,-55.01 841.89,-40.87 890.87,-30.5"/>
<polygon fill="midnightblue" stroke="midnightblue" points="723.42,-62.38 714.36,-67.87 724.87,-69.23 723.42,-62.38"/>
</g>
<!-- Node9 -->
<g id="node9" class="node">
<title>Node9</title>
<g id="a_node9"><a xlink:href="relu_8cpp.html" target="_top" xlink:title=" ">
<polygon fill="none" stroke="black" points="1042.5,-0.5 1042.5,-30.5 1177.5,-30.5 1177.5,-0.5 1042.5,-0.5"/>
<text text-anchor="start" x="1050.5" y="-18.5" font-family="Helvetica,sans-Serif" font-size="10.00">src/nmbuflowtorch/layer</text>
<text text-anchor="middle" x="1110" y="-7.5" font-family="Helvetica,sans-Serif" font-size="10.00">/relu.cpp</text>
</a>
</g>
</g>
<!-- Node8&#45;&gt;Node9 -->
<g id="edge8" class="edge">
<title>Node8&#45;&gt;Node9</title>
<path fill="none" stroke="midnightblue" d="M1029.68,-62.3C1047.52,-52.12 1069.04,-39.85 1085.31,-30.58"/>
<polygon fill="midnightblue" stroke="midnightblue" points="1027.69,-59.4 1020.74,-67.4 1031.16,-65.48 1027.69,-59.4"/>
</g>
<!-- Node10&#45;&gt;Node3 -->
<g id="edge10" class="edge">
<title>Node10&#45;&gt;Node3</title>
<path fill="none" stroke="midnightblue" d="M458.34,-63.62C426.21,-51.04 384.65,-34.77 359.73,-25.01"/>
<polygon fill="midnightblue" stroke="midnightblue" points="457.39,-67.01 467.98,-67.4 459.95,-60.49 457.39,-67.01"/>
</g>
<!-- Node10&#45;&gt;Node4 -->
<g id="edge11" class="edge">
<title>Node10&#45;&gt;Node4</title>
<path fill="none" stroke="midnightblue" d="M429.77,-66.33C385.28,-56.91 327.69,-44.12 277,-31 270.04,-29.2 262.58,-27.09 255.64,-25.04"/>
<polygon fill="midnightblue" stroke="midnightblue" points="429.12,-69.77 439.63,-68.41 430.57,-62.92 429.12,-69.77"/>
</g>
<!-- Node10&#45;&gt;Node5 -->
<g id="edge12" class="edge">
<title>Node10&#45;&gt;Node5</title>
<path fill="none" stroke="midnightblue" d="M577.99,-65.31C636.34,-52.54 715.41,-35.23 762.03,-25.03"/>
<polygon fill="midnightblue" stroke="midnightblue" points="577.1,-61.92 568.08,-67.48 578.6,-68.76 577.1,-61.92"/>
</g>
<!-- Node10&#45;&gt;Node6 -->
<g id="edge13" class="edge">
<title>Node10&#45;&gt;Node6</title>
<path fill="none" stroke="midnightblue" d="M541.92,-62.97C567.47,-50.48 599.97,-34.6 619.59,-25.01"/>
<polygon fill="midnightblue" stroke="midnightblue" points="540.31,-59.86 532.86,-67.4 543.38,-66.15 540.31,-59.86"/>
</g>
<!-- Node11 -->
<g id="node11" class="node">
<title>Node11</title>
<g id="a_node11"><a xlink:href="sigmoid_8cpp.html" target="_top" xlink:title=" ">
<polygon fill="none" stroke="black" points="408.5,-0.5 408.5,-30.5 543.5,-30.5 543.5,-0.5 408.5,-0.5"/>
<text text-anchor="start" x="416.5" y="-18.5" font-family="Helvetica,sans-Serif" font-size="10.00">src/nmbuflowtorch/layer</text>
<text text-anchor="middle" x="476" y="-7.5" font-family="Helvetica,sans-Serif" font-size="10.00">/sigmoid.cpp</text>
</a>
</g>
</g>
<!-- Node10&#45;&gt;Node11 -->
<g id="edge14" class="edge">
<title>Node10&#45;&gt;Node11</title>
<path fill="none" stroke="midnightblue" d="M493.87,-57.99C489.92,-48.8 485.51,-38.58 482.06,-30.58"/>
<polygon fill="midnightblue" stroke="midnightblue" points="490.75,-59.6 497.92,-67.4 497.18,-56.83 490.75,-59.6"/>
</g>
<!-- Node13 -->
<g id="node13" class="node">
<title>Node13</title>
<g id="a_node13"><a xlink:href="softmax_8cpp.html" target="_top" xlink:title=" ">
<polygon fill="none" stroke="black" points="1195.5,-0.5 1195.5,-30.5 1330.5,-30.5 1330.5,-0.5 1195.5,-0.5"/>
<text text-anchor="start" x="1203.5" y="-18.5" font-family="Helvetica,sans-Serif" font-size="10.00">src/nmbuflowtorch/layer</text>
<text text-anchor="middle" x="1263" y="-7.5" font-family="Helvetica,sans-Serif" font-size="10.00">/softmax.cpp</text>
</a>
</g>
</g>
<!-- Node12&#45;&gt;Node13 -->
<g id="edge16" class="edge">
<title>Node12&#45;&gt;Node13</title>
<path fill="none" stroke="midnightblue" d="M1222.15,-60.02C1231.24,-50.34 1241.72,-39.17 1249.79,-30.58"/>
<polygon fill="midnightblue" stroke="midnightblue" points="1219.53,-57.71 1215.24,-67.4 1224.63,-62.5 1219.53,-57.71"/>
</g>
<!-- Node14&#45;&gt;Node3 -->
<g id="edge18" class="edge">
<title>Node14&#45;&gt;Node3</title>
<path fill="none" stroke="midnightblue" d="M326.62,-57.6C329.75,-46.28 333.3,-33.46 335.59,-25.19"/>
<polygon fill="midnightblue" stroke="midnightblue" points="323.2,-56.82 323.91,-67.4 329.95,-58.69 323.2,-56.82"/>
</g>
<!-- Node14&#45;&gt;Node4 -->
<g id="edge19" class="edge">
<title>Node14&#45;&gt;Node4</title>
<path fill="none" stroke="midnightblue" d="M291.42,-61.31C274.14,-49.1 253.02,-34.18 240.04,-25.01"/>
<polygon fill="midnightblue" stroke="midnightblue" points="289.85,-64.48 300.04,-67.4 293.89,-58.77 289.85,-64.48"/>
</g>
<!-- Node14&#45;&gt;Node5 -->
<g id="edge20" class="edge">
<title>Node14&#45;&gt;Node5</title>
<path fill="none" stroke="midnightblue" d="M394.43,-71.71C406.65,-70.12 419.18,-68.51 431,-67 559.84,-50.59 592.61,-50.59 721,-31 732.44,-29.25 744.76,-27.14 756.22,-25.07"/>
<polygon fill="midnightblue" stroke="midnightblue" points="393.73,-68.27 384.26,-73.03 394.63,-75.21 393.73,-68.27"/>
</g>
<!-- Node14&#45;&gt;Node6 -->
<g id="edge21" class="edge">
<title>Node14&#45;&gt;Node6</title>
<path fill="none" stroke="midnightblue" d="M393.97,-66.33C456.57,-53.5 544.03,-35.56 595.17,-25.08"/>
<polygon fill="midnightblue" stroke="midnightblue" points="393.24,-62.91 384.15,-68.35 394.65,-69.77 393.24,-62.91"/>
</g>
<!-- Node15 -->
<g id="node15" class="node">
<title>Node15</title>
<g id="a_node15"><a xlink:href="network_8cpp.html" target="_top" xlink:title=" ">
<polygon fill="none" stroke="black" points="0,-6 0,-25 170,-25 170,-6 0,-6"/>
<text text-anchor="middle" x="85" y="-13" font-family="Helvetica,sans-Serif" font-size="10.00">src/nmbuflowtorch/network.cpp</text>
</a>
</g>
</g>
<!-- Node14&#45;&gt;Node15 -->
<g id="edge22" class="edge">
<title>Node14&#45;&gt;Node15</title>
<path fill="none" stroke="midnightblue" d="M259.44,-64.75C213.48,-52.04 152.19,-35.09 115.83,-25.03"/>
<polygon fill="midnightblue" stroke="midnightblue" points="258.73,-68.18 269.3,-67.48 260.59,-61.44 258.73,-68.18"/>
</g>
</g>
</svg>
