<?xml version="1.0" encoding="UTF-8" standalone="no"?>
<!DOCTYPE svg PUBLIC "-//W3C//DTD SVG 1.1//EN"
 "http://www.w3.org/Graphics/SVG/1.1/DTD/svg11.dtd">
<!-- Generated by graphviz version 2.43.0 (0)
 -->
<!-- Title: include/nmbuflowtorch/loss.hpp Pages: 1 -->
<svg width="1215pt" height="229pt"
 viewBox="0.00 0.00 1214.50 229.00" xmlns="http://www.w3.org/2000/svg" xmlns:xlink="http://www.w3.org/1999/xlink">
<g id="graph0" class="graph" transform="scale(1 1) rotate(0) translate(4 225)">
<title>include/nmbuflowtorch/loss.hpp</title>
<!-- Node1 -->
<g id="node1" class="node">
<title>Node1</title>
<g id="a_node1"><a xlink:title=" ">
<polygon fill="#bfbfbf" stroke="black" points="514,-190.5 514,-220.5 642,-220.5 642,-190.5 514,-190.5"/>
<text text-anchor="start" x="522" y="-208.5" font-family="Helvetica,sans-Serif" font-size="10.00">include/nmbuflowtorch</text>
<text text-anchor="middle" x="578" y="-197.5" font-family="Helvetica,sans-Serif" font-size="10.00">/loss.hpp</text>
</a>
</g>
</g>
<!-- Node2 -->
<g id="node2" class="node">
<title>Node2</title>
<g id="a_node2"><a xlink:href="autoencoder_8hpp.html" target="_top" xlink:title=" ">
<polygon fill="none" stroke="black" points="188,-56.5 188,-86.5 316,-86.5 316,-56.5 188,-56.5"/>
<text text-anchor="start" x="196" y="-74.5" font-family="Helvetica,sans-Serif" font-size="10.00">include/nmbuflowtorch</text>
<text text-anchor="middle" x="252" y="-63.5" font-family="Helvetica,sans-Serif" font-size="10.00">/autoencoder.hpp</text>
</a>
</g>
</g>
<!-- Node1&#45;&gt;Node2 -->
<g id="edge1" class="edge">
<title>Node1&#45;&gt;Node2</title>
<path fill="none" stroke="midnightblue" d="M503.68,-195.95C459.22,-188.83 402.52,-176.14 356,-154 319.75,-136.75 284.46,-105 265.76,-86.63"/>
<polygon fill="midnightblue" stroke="midnightblue" points="503.41,-199.45 513.83,-197.51 504.48,-192.53 503.41,-199.45"/>
</g>
<!-- Node5 -->
<g id="node5" class="node">
<title>Node5</title>
<g id="a_node5"><a xlink:href="cross__entropy_8hpp.html" target="_top" xlink:title=" ">
<polygon fill="none" stroke="black" points="706,-123.5 706,-153.5 836,-153.5 836,-123.5 706,-123.5"/>
<text text-anchor="start" x="714" y="-141.5" font-family="Helvetica,sans-Serif" font-size="10.00">include/nmbuflowtorch</text>
<text text-anchor="middle" x="771" y="-130.5" font-family="Helvetica,sans-Serif" font-size="10.00">/loss/cross_entropy.hpp</text>
</a>
</g>
</g>
<!-- Node1&#45;&gt;Node5 -->
<g id="edge4" class="edge">
<title>Node1&#45;&gt;Node5</title>
<path fill="none" stroke="midnightblue" d="M629.69,-187.09C660.84,-176.6 700.01,-163.41 729.2,-153.58"/>
<polygon fill="midnightblue" stroke="midnightblue" points="628.24,-183.89 619.88,-190.4 630.47,-190.52 628.24,-183.89"/>
</g>
<!-- Node6 -->
<g id="node6" class="node">
<title>Node6</title>
<g id="a_node6"><a xlink:href="xor_8hpp.html" target="_top" xlink:title=" ">
<polygon fill="none" stroke="black" points="334,-56.5 334,-86.5 462,-86.5 462,-56.5 334,-56.5"/>
<text text-anchor="start" x="342" y="-74.5" font-family="Helvetica,sans-Serif" font-size="10.00">include/nmbuflowtorch</text>
<text text-anchor="middle" x="398" y="-63.5" font-family="Helvetica,sans-Serif" font-size="10.00">/xor.hpp</text>
</a>
</g>
</g>
<!-- Node1&#45;&gt;Node6 -->
<g id="edge27" class="edge">
<title>Node1&#45;&gt;Node6</title>
<path fill="none" stroke="midnightblue" d="M503.61,-196.44C449.92,-188.91 383.99,-175.53 367,-154 350.97,-133.68 370.18,-104.14 384.71,-86.77"/>
<polygon fill="midnightblue" stroke="midnightblue" points="503.45,-199.95 513.83,-197.82 504.39,-193.01 503.45,-199.95"/>
</g>
<!-- Node8 -->
<g id="node8" class="node">
<title>Node8</title>
<g id="a_node8"><a xlink:href="main_01copy_8cpp.html" target="_top" xlink:title=" ">
<polygon fill="none" stroke="black" points="480,-62 480,-81 584,-81 584,-62 480,-62"/>
<text text-anchor="middle" x="532" y="-69" font-family="Helvetica,sans-Serif" font-size="10.00">src/main copy.cpp</text>
</a>
</g>
</g>
<!-- Node1&#45;&gt;Node8 -->
<g id="edge28" class="edge">
<title>Node1&#45;&gt;Node8</title>
<path fill="none" stroke="midnightblue" d="M564.08,-181.53C559.41,-173.1 554.51,-163.33 551,-154 541.38,-128.44 535.64,-96.47 533.27,-81.29"/>
<polygon fill="midnightblue" stroke="midnightblue" points="561.15,-183.45 569.16,-190.39 567.22,-179.97 561.15,-183.45"/>
</g>
<!-- Node9 -->
<g id="node9" class="node">
<title>Node9</title>
<g id="a_node9"><a xlink:href="main__multithread_8cpp.html" target="_top" xlink:title=" ">
<polygon fill="none" stroke="black" points="749.5,-62 749.5,-81 890.5,-81 890.5,-62 749.5,-62"/>
<text text-anchor="middle" x="820" y="-69" font-family="Helvetica,sans-Serif" font-size="10.00">src/main_multithread.cpp</text>
</a>
</g>
</g>
<!-- Node1&#45;&gt;Node9 -->
<g id="edge29" class="edge">
<title>Node1&#45;&gt;Node9</title>
<path fill="none" stroke="midnightblue" d="M652.47,-200.77C722.78,-195.5 820.94,-183.04 845,-154 863.13,-132.12 840,-97.22 827.31,-81.13"/>
<polygon fill="midnightblue" stroke="midnightblue" points="652.04,-197.29 642.31,-201.5 652.54,-204.27 652.04,-197.29"/>
</g>
<!-- Node10 -->
<g id="node10" class="node">
<title>Node10</title>
<g id="a_node10"><a xlink:href="main__single__thread_8cpp.html" target="_top" xlink:title=" ">
<polygon fill="none" stroke="black" points="909,-62 909,-81 1059,-81 1059,-62 909,-62"/>
<text text-anchor="middle" x="984" y="-69" font-family="Helvetica,sans-Serif" font-size="10.00">src/main_single_thread.cpp</text>
</a>
</g>
</g>
<!-- Node1&#45;&gt;Node10 -->
<g id="edge30" class="edge">
<title>Node1&#45;&gt;Node10</title>
<path fill="none" stroke="midnightblue" d="M652.41,-199.68C711.08,-193.91 794.06,-181.33 862,-154 908.08,-135.46 954.75,-97.88 974.37,-81.02"/>
<polygon fill="midnightblue" stroke="midnightblue" points="651.74,-196.23 642.11,-200.65 652.39,-203.2 651.74,-196.23"/>
</g>
<!-- Node12 -->
<g id="node12" class="node">
<title>Node12</title>
<g id="a_node12"><a xlink:href="mse_8hpp.html" target="_top" xlink:title=" ">
<polygon fill="none" stroke="black" points="560,-123.5 560,-153.5 688,-153.5 688,-123.5 560,-123.5"/>
<text text-anchor="start" x="568" y="-141.5" font-family="Helvetica,sans-Serif" font-size="10.00">include/nmbuflowtorch</text>
<text text-anchor="middle" x="624" y="-130.5" font-family="Helvetica,sans-Serif" font-size="10.00">/loss/mse.hpp</text>
</a>
</g>
</g>
<!-- Node1&#45;&gt;Node12 -->
<g id="edge13" class="edge">
<title>Node1&#45;&gt;Node12</title>
<path fill="none" stroke="midnightblue" d="M593.81,-182.16C600.52,-172.68 608.13,-161.92 614.04,-153.58"/>
<polygon fill="midnightblue" stroke="midnightblue" points="590.9,-180.21 587.98,-190.4 596.62,-184.26 590.9,-180.21"/>
</g>
<!-- Node14 -->
<g id="node14" class="node">
<title>Node14</title>
<g id="a_node14"><a xlink:href="network_8hpp.html" target="_top" xlink:title="Network class representing a sequence of layers. This class implements a network consisting of a sequ...">
<polygon fill="none" stroke="black" points="376,-123.5 376,-153.5 504,-153.5 504,-123.5 376,-123.5"/>
<text text-anchor="start" x="384" y="-141.5" font-family="Helvetica,sans-Serif" font-size="10.00">include/nmbuflowtorch</text>
<text text-anchor="middle" x="440" y="-130.5" font-family="Helvetica,sans-Serif" font-size="10.00">/network.hpp</text>
</a>
</g>
</g>
<!-- Node1&#45;&gt;Node14 -->
<g id="edge20" class="edge">
<title>Node1&#45;&gt;Node14</title>
<path fill="none" stroke="midnightblue" d="M539,-186.13C517.07,-175.8 490.13,-163.11 469.89,-153.58"/>
<polygon fill="midnightblue" stroke="midnightblue" points="537.52,-189.3 548.06,-190.4 540.5,-182.97 537.52,-189.3"/>
</g>
<!-- Node3 -->
<g id="node3" class="node">
<title>Node3</title>
<g id="a_node3"><a xlink:href="main_8cpp.html" target="_top" xlink:title=" ">
<polygon fill="none" stroke="black" points="293.5,-0.5 293.5,-19.5 372.5,-19.5 372.5,-0.5 293.5,-0.5"/>
<text text-anchor="middle" x="333" y="-7.5" font-family="Helvetica,sans-Serif" font-size="10.00">src/main.cpp</text>
</a>
</g>
</g>
<!-- Node2&#45;&gt;Node3 -->
<g id="edge2" class="edge">
<title>Node2&#45;&gt;Node3</title>
<path fill="none" stroke="midnightblue" d="M279.65,-50.19C293.83,-39.77 310.36,-27.63 321.21,-19.66"/>
<polygon fill="midnightblue" stroke="midnightblue" points="277.18,-47.66 271.2,-56.4 281.33,-53.3 277.18,-47.66"/>
</g>
<!-- Node4 -->
<g id="node4" class="node">
<title>Node4</title>
<g id="a_node4"><a xlink:href="autoencoder_8cpp.html" target="_top" xlink:title=" ">
<polygon fill="none" stroke="black" points="85,-0.5 85,-19.5 275,-19.5 275,-0.5 85,-0.5"/>
<text text-anchor="middle" x="180" y="-7.5" font-family="Helvetica,sans-Serif" font-size="10.00">src/nmbuflowtorch/autoencoder.cpp</text>
</a>
</g>
</g>
<!-- Node2&#45;&gt;Node4 -->
<g id="edge3" class="edge">
<title>Node2&#45;&gt;Node4</title>
<path fill="none" stroke="midnightblue" d="M227.06,-49.89C214.54,-39.54 200.04,-27.56 190.48,-19.66"/>
<polygon fill="midnightblue" stroke="midnightblue" points="225,-52.73 234.94,-56.4 229.46,-47.33 225,-52.73"/>
</g>
<!-- Node5&#45;&gt;Node2 -->
<g id="edge5" class="edge">
<title>Node5&#45;&gt;Node2</title>
<path fill="none" stroke="midnightblue" d="M695.7,-122.9C530.9,-99.46 486.12,-110.74 325,-87 322.06,-86.57 319.06,-86.09 316.03,-85.59"/>
<polygon fill="midnightblue" stroke="midnightblue" points="695.29,-126.38 705.69,-124.35 696.29,-119.45 695.29,-126.38"/>
</g>
<!-- Node5&#45;&gt;Node6 -->
<g id="edge6" class="edge">
<title>Node5&#45;&gt;Node6</title>
<path fill="none" stroke="midnightblue" d="M695.69,-122.81C595.17,-105.18 567.99,-104.35 471,-87 468.07,-86.48 465.09,-85.93 462.07,-85.37"/>
<polygon fill="midnightblue" stroke="midnightblue" points="695.2,-126.27 705.65,-124.56 696.41,-119.38 695.2,-126.27"/>
</g>
<!-- Node5&#45;&gt;Node8 -->
<g id="edge9" class="edge">
<title>Node5&#45;&gt;Node8</title>
<path fill="none" stroke="midnightblue" d="M709.71,-120.83C662.93,-108.11 600.41,-91.11 563.36,-81.03"/>
<polygon fill="midnightblue" stroke="midnightblue" points="708.87,-124.23 719.43,-123.48 710.7,-117.47 708.87,-124.23"/>
</g>
<!-- Node5&#45;&gt;Node9 -->
<g id="edge10" class="edge">
<title>Node5&#45;&gt;Node9</title>
<path fill="none" stroke="midnightblue" d="M787.72,-115.32C796.56,-103.6 806.9,-89.88 813.45,-81.19"/>
<polygon fill="midnightblue" stroke="midnightblue" points="784.86,-113.3 781.63,-123.4 790.45,-117.52 784.86,-113.3"/>
</g>
<!-- Node5&#45;&gt;Node10 -->
<g id="edge11" class="edge">
<title>Node5&#45;&gt;Node10</title>
<path fill="none" stroke="midnightblue" d="M826.67,-120.51C868.24,-107.83 923.31,-91.02 956.05,-81.03"/>
<polygon fill="midnightblue" stroke="midnightblue" points="825.5,-117.21 816.96,-123.48 827.54,-123.9 825.5,-117.21"/>
</g>
<!-- Node11 -->
<g id="node11" class="node">
<title>Node11</title>
<g id="a_node11"><a xlink:href="cross__entropy_8cpp.html" target="_top" xlink:title=" ">
<polygon fill="none" stroke="black" points="1077.5,-56.5 1077.5,-86.5 1206.5,-86.5 1206.5,-56.5 1077.5,-56.5"/>
<text text-anchor="start" x="1085.5" y="-74.5" font-family="Helvetica,sans-Serif" font-size="10.00">src/nmbuflowtorch/loss</text>
<text text-anchor="middle" x="1142" y="-63.5" font-family="Helvetica,sans-Serif" font-size="10.00">/cross_entropy.cpp</text>
</a>
</g>
</g>
<!-- Node5&#45;&gt;Node11 -->
<g id="edge12" class="edge">
<title>Node5&#45;&gt;Node11</title>
<path fill="none" stroke="midnightblue" d="M846.42,-125.21C906.51,-115.29 992.74,-100.77 1068,-87 1071.09,-86.43 1074.25,-85.85 1077.44,-85.25"/>
<polygon fill="midnightblue" stroke="midnightblue" points="845.56,-121.81 836.26,-126.89 846.7,-128.71 845.56,-121.81"/>
</g>
<!-- Node6&#45;&gt;Node3 -->
<g id="edge7" class="edge">
<title>Node6&#45;&gt;Node3</title>
<path fill="none" stroke="midnightblue" d="M375.17,-49.6C363.93,-39.32 351.01,-27.48 342.46,-19.66"/>
<polygon fill="midnightblue" stroke="midnightblue" points="372.86,-52.23 382.6,-56.4 377.58,-47.07 372.86,-52.23"/>
</g>
<!-- Node7 -->
<g id="node7" class="node">
<title>Node7</title>
<g id="a_node7"><a xlink:href="xor_8cpp.html" target="_top" xlink:title=" ">
<polygon fill="none" stroke="black" points="391,-0.5 391,-19.5 535,-19.5 535,-0.5 391,-0.5"/>
<text text-anchor="middle" x="463" y="-7.5" font-family="Helvetica,sans-Serif" font-size="10.00">src/nmbuflowtorch/xor.cpp</text>
</a>
</g>
</g>
<!-- Node6&#45;&gt;Node7 -->
<g id="edge8" class="edge">
<title>Node6&#45;&gt;Node7</title>
<path fill="none" stroke="midnightblue" d="M420.83,-49.6C432.07,-39.32 444.99,-27.48 453.54,-19.66"/>
<polygon fill="midnightblue" stroke="midnightblue" points="418.42,-47.07 413.4,-56.4 423.14,-52.23 418.42,-47.07"/>
</g>
<!-- Node12&#45;&gt;Node2 -->
<g id="edge14" class="edge">
<title>Node12&#45;&gt;Node2</title>
<path fill="none" stroke="midnightblue" d="M549.52,-125.53C488.96,-115.65 401.36,-101.03 325,-87 322.08,-86.46 319.09,-85.91 316.07,-85.34"/>
<polygon fill="midnightblue" stroke="midnightblue" points="549.32,-129.04 559.75,-127.2 550.44,-122.13 549.32,-129.04"/>
</g>
<!-- Node12&#45;&gt;Node6 -->
<g id="edge15" class="edge">
<title>Node12&#45;&gt;Node6</title>
<path fill="none" stroke="midnightblue" d="M565.17,-120.58C528.46,-110.02 481.77,-96.59 447.06,-86.61"/>
<polygon fill="midnightblue" stroke="midnightblue" points="564.66,-124.08 575.24,-123.48 566.6,-117.35 564.66,-124.08"/>
</g>
<!-- Node12&#45;&gt;Node8 -->
<g id="edge16" class="edge">
<title>Node12&#45;&gt;Node8</title>
<path fill="none" stroke="midnightblue" d="M595.42,-117.31C578.14,-105.1 557.02,-90.18 544.04,-81.01"/>
<polygon fill="midnightblue" stroke="midnightblue" points="593.85,-120.48 604.04,-123.4 597.89,-114.77 593.85,-120.48"/>
</g>
<!-- Node12&#45;&gt;Node9 -->
<g id="edge17" class="edge">
<title>Node12&#45;&gt;Node9</title>
<path fill="none" stroke="midnightblue" d="M676.44,-120.11C714.58,-107.46 764.54,-90.89 794.35,-81.01"/>
<polygon fill="midnightblue" stroke="midnightblue" points="674.92,-116.93 666.53,-123.4 677.12,-123.57 674.92,-116.93"/>
</g>
<!-- Node12&#45;&gt;Node10 -->
<g id="edge18" class="edge">
<title>Node12&#45;&gt;Node10</title>
<path fill="none" stroke="midnightblue" d="M698.2,-122.81C755.97,-112.14 869.19,-92.41 934.68,-81.04"/>
<polygon fill="midnightblue" stroke="midnightblue" points="697.27,-119.42 688.08,-124.69 698.55,-126.3 697.27,-119.42"/>
</g>
<!-- Node13 -->
<g id="node13" class="node">
<title>Node13</title>
<g id="a_node13"><a xlink:href="mse_8cpp.html" target="_top" xlink:title=" ">
<polygon fill="none" stroke="black" points="602.5,-56.5 602.5,-86.5 731.5,-86.5 731.5,-56.5 602.5,-56.5"/>
<text text-anchor="start" x="610.5" y="-74.5" font-family="Helvetica,sans-Serif" font-size="10.00">src/nmbuflowtorch/loss</text>
<text text-anchor="middle" x="667" y="-63.5" font-family="Helvetica,sans-Serif" font-size="10.00">/mse.cpp</text>
</a>
</g>
</g>
<!-- Node12&#45;&gt;Node13 -->
<g id="edge19" class="edge">
<title>Node12&#45;&gt;Node13</title>
<path fill="none" stroke="midnightblue" d="M638.97,-114.87C645.2,-105.46 652.23,-94.83 657.69,-86.58"/>
<polygon fill="midnightblue" stroke="midnightblue" points="635.93,-113.12 633.33,-123.4 641.77,-116.99 635.93,-113.12"/>
</g>
<!-- Node14&#45;&gt;Node2 -->
<g id="edge21" class="edge">
<title>Node14&#45;&gt;Node2</title>
<path fill="none" stroke="midnightblue" d="M389.65,-120.09C359.3,-109.6 321.15,-96.41 292.71,-86.58"/>
<polygon fill="midnightblue" stroke="midnightblue" points="388.61,-123.44 399.21,-123.4 390.9,-116.82 388.61,-123.44"/>
</g>
<!-- Node14&#45;&gt;Node6 -->
<g id="edge22" class="edge">
<title>Node14&#45;&gt;Node6</title>
<path fill="none" stroke="midnightblue" d="M425.38,-114.87C419.3,-105.46 412.43,-94.83 407.1,-86.58"/>
<polygon fill="midnightblue" stroke="midnightblue" points="422.52,-116.9 430.89,-123.4 428.4,-113.1 422.52,-116.9"/>
</g>
<!-- Node14&#45;&gt;Node8 -->
<g id="edge23" class="edge">
<title>Node14&#45;&gt;Node8</title>
<path fill="none" stroke="midnightblue" d="M468.58,-117.31C485.86,-105.1 506.98,-90.18 519.96,-81.01"/>
<polygon fill="midnightblue" stroke="midnightblue" points="466.11,-114.77 459.96,-123.4 470.15,-120.48 466.11,-114.77"/>
</g>
<!-- Node14&#45;&gt;Node9 -->
<g id="edge24" class="edge">
<title>Node14&#45;&gt;Node9</title>
<path fill="none" stroke="midnightblue" d="M513.97,-125.41C574.93,-115.37 663.63,-100.59 741,-87 751.71,-85.12 763.23,-83.04 774.07,-81.05"/>
<polygon fill="midnightblue" stroke="midnightblue" points="513.35,-121.97 504.05,-127.05 514.49,-128.88 513.35,-121.97"/>
</g>
<!-- Node14&#45;&gt;Node10 -->
<g id="edge25" class="edge">
<title>Node14&#45;&gt;Node10</title>
<path fill="none" stroke="midnightblue" d="M514.4,-127.5C526.63,-125.94 539.16,-124.38 551,-123 705.88,-104.9 745.52,-108.27 900,-87 912.31,-85.3 925.59,-83.16 937.87,-81.04"/>
<polygon fill="midnightblue" stroke="midnightblue" points="513.71,-124.06 504.24,-128.81 514.6,-131 513.71,-124.06"/>
</g>
<!-- Node15 -->
<g id="node15" class="node">
<title>Node15</title>
<g id="a_node15"><a xlink:href="network_8cpp.html" target="_top" xlink:title=" ">
<polygon fill="none" stroke="black" points="0,-62 0,-81 170,-81 170,-62 0,-62"/>
<text text-anchor="middle" x="85" y="-69" font-family="Helvetica,sans-Serif" font-size="10.00">src/nmbuflowtorch/network.cpp</text>
</a>
</g>
</g>
<!-- Node14&#45;&gt;Node15 -->
<g id="edge26" class="edge">
<title>Node14&#45;&gt;Node15</title>
<path fill="none" stroke="midnightblue" d="M365.55,-123.87C294.96,-110.94 191.1,-91.93 131.55,-81.02"/>
<polygon fill="midnightblue" stroke="midnightblue" points="365.25,-127.37 375.71,-125.73 366.51,-120.49 365.25,-127.37"/>
</g>
</g>
</svg>
