<?xml version="1.0" encoding="UTF-8" standalone="no"?>
<!DOCTYPE svg PUBLIC "-//W3C//DTD SVG 1.1//EN"
 "http://www.w3.org/Graphics/SVG/1.1/DTD/svg11.dtd">
<!-- Generated by graphviz version 2.43.0 (0)
 -->
<!-- Title: include/nmbuflowtorch/loss.hpp Pages: 1 -->
<svg width="1022pt" height="173pt"
 viewBox="0.00 0.00 1022.00 173.00" xmlns="http://www.w3.org/2000/svg" xmlns:xlink="http://www.w3.org/1999/xlink">
<g id="graph0" class="graph" transform="scale(1 1) rotate(0) translate(4 169)">
<title>include/nmbuflowtorch/loss.hpp</title>
<!-- Node1 -->
<g id="node1" class="node">
<title>Node1</title>
<g id="a_node1"><a xlink:title=" ">
<polygon fill="#bfbfbf" stroke="black" points="420,-134.5 420,-164.5 548,-164.5 548,-134.5 420,-134.5"/>
<text text-anchor="start" x="428" y="-152.5" font-family="Helvetica,sans-Serif" font-size="10.00">include/nmbuflowtorch</text>
<text text-anchor="middle" x="484" y="-141.5" font-family="Helvetica,sans-Serif" font-size="10.00">/loss.hpp</text>
</a>
</g>
</g>
<!-- Node2 -->
<g id="node2" class="node">
<title>Node2</title>
<g id="a_node2"><a xlink:href="cross__entropy_8hpp.html" target="_top" xlink:title=" ">
<polygon fill="none" stroke="black" points="566,-67.5 566,-97.5 696,-97.5 696,-67.5 566,-67.5"/>
<text text-anchor="start" x="574" y="-85.5" font-family="Helvetica,sans-Serif" font-size="10.00">include/nmbuflowtorch</text>
<text text-anchor="middle" x="631" y="-74.5" font-family="Helvetica,sans-Serif" font-size="10.00">/loss/cross_entropy.hpp</text>
</a>
</g>
</g>
<!-- Node1&#45;&gt;Node2 -->
<g id="edge1" class="edge">
<title>Node1&#45;&gt;Node2</title>
<path fill="none" stroke="midnightblue" d="M525.23,-130.27C548.64,-119.92 577.51,-107.15 599.17,-97.58"/>
<polygon fill="midnightblue" stroke="midnightblue" points="523.63,-127.15 515.9,-134.4 526.46,-133.55 523.63,-127.15"/>
</g>
<!-- Node3 -->
<g id="node3" class="node">
<title>Node3</title>
<g id="a_node3"><a xlink:href="main_01copy_8cpp.html" target="_top" xlink:title=" ">
<polygon fill="none" stroke="black" points="286,-6 286,-25 390,-25 390,-6 286,-6"/>
<text text-anchor="middle" x="338" y="-13" font-family="Helvetica,sans-Serif" font-size="10.00">src/main copy.cpp</text>
</a>
</g>
</g>
<!-- Node1&#45;&gt;Node3 -->
<g id="edge19" class="edge">
<title>Node1&#45;&gt;Node3</title>
<path fill="none" stroke="midnightblue" d="M452.23,-128.88C438.96,-120.1 423.7,-109.21 411,-98 383.93,-74.13 356.83,-40.8 344.66,-25.2"/>
<polygon fill="midnightblue" stroke="midnightblue" points="450.32,-131.82 460.62,-134.33 454.14,-125.95 450.32,-131.82"/>
</g>
<!-- Node4 -->
<g id="node4" class="node">
<title>Node4</title>
<g id="a_node4"><a xlink:href="src_2main_8cpp.html" target="_top" xlink:title=" ">
<polygon fill="none" stroke="black" points="188.5,-6 188.5,-25 267.5,-25 267.5,-6 188.5,-6"/>
<text text-anchor="middle" x="228" y="-13" font-family="Helvetica,sans-Serif" font-size="10.00">src/main.cpp</text>
</a>
</g>
</g>
<!-- Node1&#45;&gt;Node4 -->
<g id="edge20" class="edge">
<title>Node1&#45;&gt;Node4</title>
<path fill="none" stroke="midnightblue" d="M409.75,-144.15C342.25,-138.46 249.81,-125.72 227,-98 209.74,-77.02 218.93,-41.67 224.61,-25.3"/>
<polygon fill="midnightblue" stroke="midnightblue" points="409.68,-147.66 419.93,-144.97 410.25,-140.68 409.68,-147.66"/>
</g>
<!-- Node5 -->
<g id="node5" class="node">
<title>Node5</title>
<g id="a_node5"><a xlink:href="main__multithread_8cpp.html" target="_top" xlink:title=" ">
<polygon fill="none" stroke="black" points="724.5,-6 724.5,-25 865.5,-25 865.5,-6 724.5,-6"/>
<text text-anchor="middle" x="795" y="-13" font-family="Helvetica,sans-Serif" font-size="10.00">src/main_multithread.cpp</text>
</a>
</g>
</g>
<!-- Node1&#45;&gt;Node5 -->
<g id="edge21" class="edge">
<title>Node1&#45;&gt;Node5</title>
<path fill="none" stroke="midnightblue" d="M558.38,-144.45C607.32,-139.04 671.29,-126.58 721,-98 753.31,-79.43 779.33,-41.86 789.9,-25.01"/>
<polygon fill="midnightblue" stroke="midnightblue" points="557.76,-140.99 548.17,-145.5 558.48,-147.96 557.76,-140.99"/>
</g>
<!-- Node6 -->
<g id="node6" class="node">
<title>Node6</title>
<g id="a_node6"><a xlink:href="main__single__thread_8cpp.html" target="_top" xlink:title=" ">
<polygon fill="none" stroke="black" points="556,-6 556,-25 706,-25 706,-6 556,-6"/>
<text text-anchor="middle" x="631" y="-13" font-family="Helvetica,sans-Serif" font-size="10.00">src/main_single_thread.cpp</text>
</a>
</g>
</g>
<!-- Node1&#45;&gt;Node6 -->
<g id="edge22" class="edge">
<title>Node1&#45;&gt;Node6</title>
<path fill="none" stroke="midnightblue" d="M558.18,-141.4C615.03,-134.24 686.74,-120.9 705,-98 727.16,-70.2 678.05,-39.78 649.54,-25.21"/>
<polygon fill="midnightblue" stroke="midnightblue" points="557.62,-137.94 548.12,-142.62 558.47,-144.89 557.62,-137.94"/>
</g>
<!-- Node8 -->
<g id="node8" class="node">
<title>Node8</title>
<g id="a_node8"><a xlink:href="mse_8hpp.html" target="_top" xlink:title=" ">
<polygon fill="none" stroke="black" points="420,-67.5 420,-97.5 548,-97.5 548,-67.5 420,-67.5"/>
<text text-anchor="start" x="428" y="-85.5" font-family="Helvetica,sans-Serif" font-size="10.00">include/nmbuflowtorch</text>
<text text-anchor="middle" x="484" y="-74.5" font-family="Helvetica,sans-Serif" font-size="10.00">/loss/mse.hpp</text>
</a>
</g>
</g>
<!-- Node1&#45;&gt;Node8 -->
<g id="edge7" class="edge">
<title>Node1&#45;&gt;Node8</title>
<path fill="none" stroke="midnightblue" d="M484,-124.11C484,-115.15 484,-105.32 484,-97.58"/>
<polygon fill="midnightblue" stroke="midnightblue" points="480.5,-124.4 484,-134.4 487.5,-124.4 480.5,-124.4"/>
</g>
<!-- Node10 -->
<g id="node10" class="node">
<title>Node10</title>
<g id="a_node10"><a xlink:href="network_8hpp.html" target="_top" xlink:title=" ">
<polygon fill="none" stroke="black" points="236,-67.5 236,-97.5 364,-97.5 364,-67.5 236,-67.5"/>
<text text-anchor="start" x="244" y="-85.5" font-family="Helvetica,sans-Serif" font-size="10.00">include/nmbuflowtorch</text>
<text text-anchor="middle" x="300" y="-74.5" font-family="Helvetica,sans-Serif" font-size="10.00">/network.hpp</text>
</a>
</g>
</g>
<!-- Node1&#45;&gt;Node10 -->
<g id="edge13" class="edge">
<title>Node1&#45;&gt;Node10</title>
<path fill="none" stroke="midnightblue" d="M434.33,-130.96C404.7,-120.48 367.56,-107.37 339.85,-97.58"/>
<polygon fill="midnightblue" stroke="midnightblue" points="433.48,-134.37 444.07,-134.4 435.81,-127.76 433.48,-134.37"/>
</g>
<!-- Node2&#45;&gt;Node3 -->
<g id="edge2" class="edge">
<title>Node2&#45;&gt;Node3</title>
<path fill="none" stroke="midnightblue" d="M556.14,-65.58C510.65,-55.82 451.42,-42.93 399,-31 390.72,-29.12 381.82,-27.03 373.45,-25.05"/>
<polygon fill="midnightblue" stroke="midnightblue" points="555.41,-69.01 565.92,-67.68 556.88,-62.16 555.41,-69.01"/>
</g>
<!-- Node2&#45;&gt;Node4 -->
<g id="edge3" class="edge">
<title>Node2&#45;&gt;Node4</title>
<path fill="none" stroke="midnightblue" d="M555.77,-66.88C431.39,-47.41 396.65,-56.23 277,-31 269.45,-29.41 261.37,-27.22 253.99,-25.03"/>
<polygon fill="midnightblue" stroke="midnightblue" points="555.25,-70.34 565.67,-68.46 556.35,-63.43 555.25,-70.34"/>
</g>
<!-- Node2&#45;&gt;Node5 -->
<g id="edge4" class="edge">
<title>Node2&#45;&gt;Node5</title>
<path fill="none" stroke="midnightblue" d="M676.11,-63.62C707.85,-51.04 748.91,-34.77 773.54,-25.01"/>
<polygon fill="midnightblue" stroke="midnightblue" points="674.59,-60.46 666.59,-67.4 677.17,-66.97 674.59,-60.46"/>
</g>
<!-- Node2&#45;&gt;Node6 -->
<g id="edge5" class="edge">
<title>Node2&#45;&gt;Node6</title>
<path fill="none" stroke="midnightblue" d="M631,-57.25C631,-46.02 631,-33.38 631,-25.19"/>
<polygon fill="midnightblue" stroke="midnightblue" points="627.5,-57.4 631,-67.4 634.5,-57.4 627.5,-57.4"/>
</g>
<!-- Node7 -->
<g id="node7" class="node">
<title>Node7</title>
<g id="a_node7"><a xlink:href="cross__entropy_8cpp.html" target="_top" xlink:title=" ">
<polygon fill="none" stroke="black" points="884,-0.5 884,-30.5 1014,-30.5 1014,-0.5 884,-0.5"/>
<text text-anchor="start" x="892" y="-18.5" font-family="Helvetica,sans-Serif" font-size="10.00">src/nmbuflowtorch/loss</text>
<text text-anchor="middle" x="949" y="-7.5" font-family="Helvetica,sans-Serif" font-size="10.00">/cross_entropy.cpp</text>
</a>
</g>
</g>
<!-- Node2&#45;&gt;Node7 -->
<g id="edge6" class="edge">
<title>Node2&#45;&gt;Node7</title>
<path fill="none" stroke="midnightblue" d="M706,-66.17C760.07,-55.12 832.33,-40.35 883.97,-29.79"/>
<polygon fill="midnightblue" stroke="midnightblue" points="705.22,-62.76 696.12,-68.19 706.62,-69.62 705.22,-62.76"/>
</g>
<!-- Node8&#45;&gt;Node3 -->
<g id="edge8" class="edge">
<title>Node8&#45;&gt;Node3</title>
<path fill="none" stroke="midnightblue" d="M443.11,-63.3C414.95,-50.76 378.84,-34.68 357.11,-25.01"/>
<polygon fill="midnightblue" stroke="midnightblue" points="441.76,-66.53 452.32,-67.4 444.61,-60.13 441.76,-66.53"/>
</g>
<!-- Node8&#45;&gt;Node4 -->
<g id="edge9" class="edge">
<title>Node8&#45;&gt;Node4</title>
<path fill="none" stroke="midnightblue" d="M413.17,-65.12C373.09,-55.62 322.11,-43.17 277,-31 270.15,-29.15 262.79,-27.04 255.92,-25.02"/>
<polygon fill="midnightblue" stroke="midnightblue" points="412.58,-68.57 423.12,-67.47 414.19,-61.76 412.58,-68.57"/>
</g>
<!-- Node8&#45;&gt;Node5 -->
<g id="edge10" class="edge">
<title>Node8&#45;&gt;Node5</title>
<path fill="none" stroke="midnightblue" d="M558.09,-66.01C619.52,-53.18 704.55,-35.4 754.27,-25.01"/>
<polygon fill="midnightblue" stroke="midnightblue" points="557.13,-62.64 548.06,-68.11 558.57,-69.49 557.13,-62.64"/>
</g>
<!-- Node8&#45;&gt;Node6 -->
<g id="edge11" class="edge">
<title>Node8&#45;&gt;Node6</title>
<path fill="none" stroke="midnightblue" d="M525.17,-63.3C553.52,-50.76 589.88,-34.68 611.76,-25.01"/>
<polygon fill="midnightblue" stroke="midnightblue" points="523.63,-60.15 515.9,-67.4 526.46,-66.55 523.63,-60.15"/>
</g>
<!-- Node9 -->
<g id="node9" class="node">
<title>Node9</title>
<g id="a_node9"><a xlink:href="mse_8cpp.html" target="_top" xlink:title=" ">
<polygon fill="none" stroke="black" points="408,-0.5 408,-30.5 538,-30.5 538,-0.5 408,-0.5"/>
<text text-anchor="start" x="416" y="-18.5" font-family="Helvetica,sans-Serif" font-size="10.00">src/nmbuflowtorch/loss</text>
<text text-anchor="middle" x="473" y="-7.5" font-family="Helvetica,sans-Serif" font-size="10.00">/mse.cpp</text>
</a>
</g>
</g>
<!-- Node8&#45;&gt;Node9 -->
<g id="edge12" class="edge">
<title>Node8&#45;&gt;Node9</title>
<path fill="none" stroke="midnightblue" d="M479.92,-57.4C478.39,-48.37 476.71,-38.41 475.38,-30.58"/>
<polygon fill="midnightblue" stroke="midnightblue" points="476.49,-58.12 481.61,-67.4 483.4,-56.95 476.49,-58.12"/>
</g>
<!-- Node10&#45;&gt;Node3 -->
<g id="edge14" class="edge">
<title>Node10&#45;&gt;Node3</title>
<path fill="none" stroke="midnightblue" d="M313.37,-58.63C320.13,-47.07 327.94,-33.71 332.92,-25.19"/>
<polygon fill="midnightblue" stroke="midnightblue" points="310.27,-57 308.25,-67.4 316.31,-60.53 310.27,-57"/>
</g>
<!-- Node10&#45;&gt;Node4 -->
<g id="edge15" class="edge">
<title>Node10&#45;&gt;Node4</title>
<path fill="none" stroke="midnightblue" d="M276.93,-60.67C263.64,-48.67 247.63,-34.22 237.63,-25.19"/>
<polygon fill="midnightblue" stroke="midnightblue" points="274.61,-63.29 284.38,-67.4 279.3,-58.1 274.61,-63.29"/>
</g>
<!-- Node10&#45;&gt;Node5 -->
<g id="edge16" class="edge">
<title>Node10&#45;&gt;Node5</title>
<path fill="none" stroke="midnightblue" d="M374.42,-71.65C386.64,-70.07 399.17,-68.47 411,-67 546.01,-50.19 580.44,-51.14 715,-31 726.59,-29.27 739.07,-27.13 750.65,-25.04"/>
<polygon fill="midnightblue" stroke="midnightblue" points="373.72,-68.21 364.26,-72.97 374.62,-75.16 373.72,-68.21"/>
</g>
<!-- Node10&#45;&gt;Node6 -->
<g id="edge17" class="edge">
<title>Node10&#45;&gt;Node6</title>
<path fill="none" stroke="midnightblue" d="M374.09,-66.95C439.72,-54.06 533.31,-35.68 587.54,-25.03"/>
<polygon fill="midnightblue" stroke="midnightblue" points="373.35,-63.53 364.21,-68.89 374.7,-70.4 373.35,-63.53"/>
</g>
<!-- Node11 -->
<g id="node11" class="node">
<title>Node11</title>
<g id="a_node11"><a xlink:href="network_8cpp.html" target="_top" xlink:title=" ">
<polygon fill="none" stroke="black" points="0,-6 0,-25 170,-25 170,-6 0,-6"/>
<text text-anchor="middle" x="85" y="-13" font-family="Helvetica,sans-Serif" font-size="10.00">src/nmbuflowtorch/network.cpp</text>
</a>
</g>
</g>
<!-- Node10&#45;&gt;Node11 -->
<g id="edge18" class="edge">
<title>Node10&#45;&gt;Node11</title>
<path fill="none" stroke="midnightblue" d="M243.8,-64.51C201.84,-51.83 146.26,-35.02 113.21,-25.03"/>
<polygon fill="midnightblue" stroke="midnightblue" points="243.03,-67.93 253.61,-67.48 245.05,-61.23 243.03,-67.93"/>
</g>
</g>
</svg>
