<?xml version="1.0" encoding="UTF-8" standalone="no"?>
<!DOCTYPE svg PUBLIC "-//W3C//DTD SVG 1.1//EN"
 "http://www.w3.org/Graphics/SVG/1.1/DTD/svg11.dtd">
<!-- Generated by graphviz version 2.43.0 (0)
 -->
<!-- Title: src/main_single_thread.cpp Pages: 1 -->
<svg width="1269pt" height="330pt"
 viewBox="0.00 0.00 1269.28 330.00" xmlns="http://www.w3.org/2000/svg" xmlns:xlink="http://www.w3.org/1999/xlink">
<g id="graph0" class="graph" transform="scale(1 1) rotate(0) translate(4 326)">
<title>src/main_single_thread.cpp</title>
<!-- Node1 -->
<g id="node1" class="node">
<title>Node1</title>
<g id="a_node1"><a xlink:title=" ">
<polygon fill="#bfbfbf" stroke="black" points="477.28,-302.5 477.28,-321.5 627.28,-321.5 627.28,-302.5 477.28,-302.5"/>
<text text-anchor="middle" x="552.28" y="-309.5" font-family="Helvetica,sans-Serif" font-size="10.00">src/main_single_thread.cpp</text>
</a>
</g>
</g>
<!-- Node2 -->
<g id="node2" class="node">
<title>Node2</title>
<g id="a_node2"><a xlink:title=" ">
<polygon fill="none" stroke="#bfbfbf" points="55.78,-0.5 55.78,-19.5 102.78,-19.5 102.78,-0.5 55.78,-0.5"/>
<text text-anchor="middle" x="79.28" y="-7.5" font-family="Helvetica,sans-Serif" font-size="10.00">cmath</text>
</a>
</g>
</g>
<!-- Node1&#45;&gt;Node2 -->
<g id="edge1" class="edge">
<title>Node1&#45;&gt;Node2</title>
<path fill="none" stroke="midnightblue" d="M477.23,-309.46C338.97,-305.92 55,-295.17 21.28,-266 -6.85,-241.67 2.28,-221.69 2.28,-184.5 2.28,-184.5 2.28,-184.5 2.28,-121 2.28,-80.93 37,-45.08 59.81,-25.84"/>
<polygon fill="midnightblue" stroke="midnightblue" points="62.03,-28.55 67.59,-19.53 57.62,-23.11 62.03,-28.55"/>
</g>
<!-- Node3 -->
<g id="node3" class="node">
<title>Node3</title>
<g id="a_node3"><a xlink:title=" ">
<polygon fill="none" stroke="#bfbfbf" points="30.28,-241 30.28,-260 86.28,-260 86.28,-241 30.28,-241"/>
<text text-anchor="middle" x="58.28" y="-248" font-family="Helvetica,sans-Serif" font-size="10.00">iomanip</text>
</a>
</g>
</g>
<!-- Node1&#45;&gt;Node3 -->
<g id="edge2" class="edge">
<title>Node1&#45;&gt;Node3</title>
<path fill="none" stroke="midnightblue" d="M477.06,-308.86C386.67,-305.07 230.85,-294.63 100.28,-266 96.79,-265.23 93.18,-264.27 89.61,-263.2"/>
<polygon fill="midnightblue" stroke="midnightblue" points="90.4,-259.78 79.8,-260.01 88.23,-266.43 90.4,-259.78"/>
</g>
<!-- Node4 -->
<g id="node4" class="node">
<title>Node4</title>
<g id="a_node4"><a xlink:title=" ">
<polygon fill="none" stroke="#bfbfbf" points="225.28,-0.5 225.28,-19.5 285.28,-19.5 285.28,-0.5 225.28,-0.5"/>
<text text-anchor="middle" x="255.28" y="-7.5" font-family="Helvetica,sans-Serif" font-size="10.00">iostream</text>
</a>
</g>
</g>
<!-- Node1&#45;&gt;Node4 -->
<g id="edge3" class="edge">
<title>Node1&#45;&gt;Node4</title>
<path fill="none" stroke="midnightblue" d="M477.01,-307.59C363.36,-301.76 158.45,-288.27 133.28,-266 105.43,-241.35 114.28,-221.69 114.28,-184.5 114.28,-184.5 114.28,-184.5 114.28,-121 114.28,-69.26 174.03,-38.27 215.74,-22.94"/>
<polygon fill="midnightblue" stroke="midnightblue" points="217.11,-26.17 225.38,-19.55 214.79,-19.56 217.11,-26.17"/>
</g>
<!-- Node5 -->
<g id="node5" class="node">
<title>Node5</title>
<g id="a_node5"><a xlink:title=" ">
<polygon fill="none" stroke="#bfbfbf" points="142.78,-241 142.78,-260 199.78,-260 199.78,-241 142.78,-241"/>
<text text-anchor="middle" x="171.28" y="-248" font-family="Helvetica,sans-Serif" font-size="10.00">ostream</text>
</a>
</g>
</g>
<!-- Node1&#45;&gt;Node5 -->
<g id="edge4" class="edge">
<title>Node1&#45;&gt;Node5</title>
<path fill="none" stroke="midnightblue" d="M477.02,-305.17C408.03,-298.84 303.36,-286.74 214.28,-266 210.8,-265.19 207.2,-264.21 203.64,-263.15"/>
<polygon fill="midnightblue" stroke="midnightblue" points="204.4,-259.72 193.81,-260.01 202.27,-266.38 204.4,-259.72"/>
</g>
<!-- Node6 -->
<g id="node6" class="node">
<title>Node6</title>
<g id="a_node6"><a xlink:title=" ">
<polygon fill="none" stroke="#bfbfbf" points="757.78,-0.5 757.78,-19.5 804.78,-19.5 804.78,-0.5 757.78,-0.5"/>
<text text-anchor="middle" x="781.28" y="-7.5" font-family="Helvetica,sans-Serif" font-size="10.00">vector</text>
</a>
</g>
</g>
<!-- Node1&#45;&gt;Node6 -->
<g id="edge5" class="edge">
<title>Node1&#45;&gt;Node6</title>
<path fill="none" stroke="midnightblue" d="M627.31,-309.46C762.06,-305.99 1039.53,-295.42 1131.28,-266 1196.22,-245.18 1261.28,-252.69 1261.28,-184.5 1261.28,-184.5 1261.28,-184.5 1261.28,-121 1261.28,-29.37 924.73,-14.06 815.25,-11.51"/>
<polygon fill="midnightblue" stroke="midnightblue" points="815.16,-8.01 805.09,-11.3 815.01,-15.01 815.16,-8.01"/>
</g>
<!-- Node7 -->
<g id="node7" class="node">
<title>Node7</title>
<g id="a_node7"><a xlink:href="definitions_8hpp.html" target="_top" xlink:title=" ">
<polygon fill="none" stroke="black" points="465.28,-56.5 465.28,-75.5 631.28,-75.5 631.28,-56.5 465.28,-56.5"/>
<text text-anchor="middle" x="548.28" y="-63.5" font-family="Helvetica,sans-Serif" font-size="10.00">nmbuflowtorch/definitions.hpp</text>
</a>
</g>
</g>
<!-- Node1&#45;&gt;Node7 -->
<g id="edge6" class="edge">
<title>Node1&#45;&gt;Node7</title>
<path fill="none" stroke="midnightblue" d="M477.14,-309.48C403.61,-306.21 299.01,-296.21 273.28,-266 214.9,-197.45 237.16,-204.94 391.28,-112 419.1,-95.23 453.45,-84.45 482.93,-77.67"/>
<polygon fill="midnightblue" stroke="midnightblue" points="483.71,-81.08 492.72,-75.52 482.21,-74.25 483.71,-81.08"/>
</g>
<!-- Node12 -->
<g id="node12" class="node">
<title>Node12</title>
<g id="a_node12"><a xlink:href="layer_8hpp.html" target="_top" xlink:title=" ">
<polygon fill="none" stroke="black" points="711.78,-174 711.78,-193 850.78,-193 850.78,-174 711.78,-174"/>
<text text-anchor="middle" x="781.28" y="-181" font-family="Helvetica,sans-Serif" font-size="10.00">nmbuflowtorch/layer.hpp</text>
</a>
</g>
</g>
<!-- Node1&#45;&gt;Node12 -->
<g id="edge14" class="edge">
<title>Node1&#45;&gt;Node12</title>
<path fill="none" stroke="midnightblue" d="M627.62,-310.75C708.41,-308.69 829.06,-299.83 858.28,-266 879.75,-241.14 839.47,-213.65 809.51,-197.79"/>
<polygon fill="midnightblue" stroke="midnightblue" points="810.73,-194.49 800.23,-193.07 807.56,-200.72 810.73,-194.49"/>
</g>
<!-- Node13 -->
<g id="node13" class="node">
<title>Node13</title>
<g id="a_node13"><a xlink:href="optimizer_8hpp.html" target="_top" xlink:title=" ">
<polygon fill="none" stroke="black" points="872.28,-112.5 872.28,-131.5 962.28,-131.5 962.28,-112.5 872.28,-112.5"/>
<text text-anchor="middle" x="917.28" y="-119.5" font-family="Helvetica,sans-Serif" font-size="10.00">./optimizer.hpp</text>
</a>
</g>
</g>
<!-- Node1&#45;&gt;Node13 -->
<g id="edge43" class="edge">
<title>Node1&#45;&gt;Node13</title>
<path fill="none" stroke="midnightblue" d="M627.44,-309.93C763.45,-307.22 1039.12,-297.82 1068.28,-266 1115.33,-214.67 1005.81,-159.53 948.91,-135.44"/>
<polygon fill="midnightblue" stroke="midnightblue" points="950.18,-132.18 939.6,-131.58 947.5,-138.65 950.18,-132.18"/>
</g>
<!-- Node15 -->
<g id="node15" class="node">
<title>Node15</title>
<g id="a_node15"><a xlink:href="dense_8hpp.html" target="_top" xlink:title=" ">
<polygon fill="none" stroke="black" points="294.28,-235.5 294.28,-265.5 412.28,-265.5 412.28,-235.5 294.28,-235.5"/>
<text text-anchor="start" x="302.28" y="-253.5" font-family="Helvetica,sans-Serif" font-size="10.00">nmbuflowtorch/layer</text>
<text text-anchor="middle" x="353.28" y="-242.5" font-family="Helvetica,sans-Serif" font-size="10.00">/dense.hpp</text>
</a>
</g>
</g>
<!-- Node1&#45;&gt;Node15 -->
<g id="edge20" class="edge">
<title>Node1&#45;&gt;Node15</title>
<path fill="none" stroke="midnightblue" d="M523.77,-302.48C494.17,-293.63 447.09,-279.55 409.9,-268.43"/>
<polygon fill="midnightblue" stroke="midnightblue" points="410.77,-265.03 400.18,-265.52 408.76,-271.74 410.77,-265.03"/>
</g>
<!-- Node16 -->
<g id="node16" class="node">
<title>Node16</title>
<g id="a_node16"><a xlink:href="math__m_8hpp.html" target="_top" xlink:title=" ">
<polygon fill="none" stroke="black" points="381.78,-174 381.78,-193 468.78,-193 468.78,-174 381.78,-174"/>
<text text-anchor="middle" x="425.28" y="-181" font-family="Helvetica,sans-Serif" font-size="10.00">../math_m.hpp</text>
</a>
</g>
</g>
<!-- Node1&#45;&gt;Node16 -->
<g id="edge35" class="edge">
<title>Node1&#45;&gt;Node16</title>
<path fill="none" stroke="midnightblue" d="M477.06,-308.82C406.87,-305.02 309.45,-294.58 285.28,-266 255.66,-230.97 320.63,-207.49 371.68,-195.06"/>
<polygon fill="midnightblue" stroke="midnightblue" points="372.73,-198.41 381.67,-192.73 371.13,-191.6 372.73,-198.41"/>
</g>
<!-- Node18 -->
<g id="node18" class="node">
<title>Node18</title>
<g id="a_node18"><a xlink:href="sigmoid_8hpp.html" target="_top" xlink:title=" ">
<polygon fill="none" stroke="black" points="731.28,-235.5 731.28,-265.5 849.28,-265.5 849.28,-235.5 731.28,-235.5"/>
<text text-anchor="start" x="739.28" y="-253.5" font-family="Helvetica,sans-Serif" font-size="10.00">nmbuflowtorch/layer</text>
<text text-anchor="middle" x="790.28" y="-242.5" font-family="Helvetica,sans-Serif" font-size="10.00">/sigmoid.hpp</text>
</a>
</g>
</g>
<!-- Node1&#45;&gt;Node18 -->
<g id="edge27" class="edge">
<title>Node1&#45;&gt;Node18</title>
<path fill="none" stroke="midnightblue" d="M586.38,-302.48C622.23,-293.51 679.53,-279.19 724.27,-268"/>
<polygon fill="midnightblue" stroke="midnightblue" points="725.34,-271.34 734.19,-265.52 723.64,-264.55 725.34,-271.34"/>
</g>
<!-- Node19 -->
<g id="node19" class="node">
<title>Node19</title>
<g id="a_node19"><a xlink:href="loss_8hpp.html" target="_top" xlink:title=" ">
<polygon fill="none" stroke="black" points="559.28,-174 559.28,-193 693.28,-193 693.28,-174 559.28,-174"/>
<text text-anchor="middle" x="626.28" y="-181" font-family="Helvetica,sans-Serif" font-size="10.00">nmbuflowtorch/loss.hpp</text>
</a>
</g>
</g>
<!-- Node1&#45;&gt;Node19 -->
<g id="edge29" class="edge">
<title>Node1&#45;&gt;Node19</title>
<path fill="none" stroke="midnightblue" d="M626.32,-302.49C648.58,-296.07 670.69,-285 684.28,-266 701.13,-242.46 671.44,-215.02 648.68,-198.74"/>
<polygon fill="midnightblue" stroke="midnightblue" points="650.64,-195.84 640.41,-193.08 646.68,-201.61 650.64,-195.84"/>
</g>
<!-- Node20 -->
<g id="node20" class="node">
<title>Node20</title>
<g id="a_node20"><a xlink:href="cross__entropy_8hpp.html" target="_top" xlink:title=" ">
<polygon fill="none" stroke="black" points="430.78,-235.5 430.78,-265.5 543.78,-265.5 543.78,-235.5 430.78,-235.5"/>
<text text-anchor="start" x="438.78" y="-253.5" font-family="Helvetica,sans-Serif" font-size="10.00">nmbuflowtorch/loss</text>
<text text-anchor="middle" x="487.28" y="-242.5" font-family="Helvetica,sans-Serif" font-size="10.00">/cross_entropy.hpp</text>
</a>
</g>
</g>
<!-- Node1&#45;&gt;Node20 -->
<g id="edge31" class="edge">
<title>Node1&#45;&gt;Node20</title>
<path fill="none" stroke="midnightblue" d="M542.97,-302.48C534.41,-294.64 521.38,-282.71 510.08,-272.37"/>
<polygon fill="midnightblue" stroke="midnightblue" points="512.34,-269.69 502.6,-265.52 507.61,-274.86 512.34,-269.69"/>
</g>
<!-- Node21 -->
<g id="node21" class="node">
<title>Node21</title>
<g id="a_node21"><a xlink:href="mse_8hpp.html" target="_top" xlink:title=" ">
<polygon fill="none" stroke="black" points="561.78,-235.5 561.78,-265.5 674.78,-265.5 674.78,-235.5 561.78,-235.5"/>
<text text-anchor="start" x="569.78" y="-253.5" font-family="Helvetica,sans-Serif" font-size="10.00">nmbuflowtorch/loss</text>
<text text-anchor="middle" x="618.28" y="-242.5" font-family="Helvetica,sans-Serif" font-size="10.00">/mse.hpp</text>
</a>
</g>
</g>
<!-- Node1&#45;&gt;Node21 -->
<g id="edge33" class="edge">
<title>Node1&#45;&gt;Node21</title>
<path fill="none" stroke="midnightblue" d="M561.74,-302.48C570.43,-294.64 583.66,-282.71 595.14,-272.37"/>
<polygon fill="midnightblue" stroke="midnightblue" points="597.64,-274.82 602.73,-265.52 592.96,-269.62 597.64,-274.82"/>
</g>
<!-- Node22 -->
<g id="node22" class="node">
<title>Node22</title>
<g id="a_node22"><a xlink:href="network_8hpp.html" target="_top" xlink:title="Network class representing a sequence of layers. This class implements a network consisting of a sequ...">
<polygon fill="none" stroke="black" points="905.28,-241 905.28,-260 1059.28,-260 1059.28,-241 905.28,-241"/>
<text text-anchor="middle" x="982.28" y="-248" font-family="Helvetica,sans-Serif" font-size="10.00">nmbuflowtorch/network.hpp</text>
</a>
</g>
</g>
<!-- Node1&#45;&gt;Node22 -->
<g id="edge36" class="edge">
<title>Node1&#45;&gt;Node22</title>
<path fill="none" stroke="midnightblue" d="M620.53,-302.47C689.04,-293.78 797.58,-279.68 891.28,-266 900.68,-264.63 910.62,-263.11 920.33,-261.59"/>
<polygon fill="midnightblue" stroke="midnightblue" points="921.01,-265.03 930.35,-260.01 919.92,-258.11 921.01,-265.03"/>
</g>
<!-- Node24 -->
<g id="node24" class="node">
<title>Node24</title>
<g id="a_node24"><a xlink:href="sgd_8hpp.html" target="_top" xlink:title=" ">
<polygon fill="none" stroke="black" points="1093.28,-168.5 1093.28,-198.5 1233.28,-198.5 1233.28,-168.5 1093.28,-168.5"/>
<text text-anchor="start" x="1101.28" y="-186.5" font-family="Helvetica,sans-Serif" font-size="10.00">nmbuflowtorch/optimizer</text>
<text text-anchor="middle" x="1163.28" y="-175.5" font-family="Helvetica,sans-Serif" font-size="10.00">/sgd.hpp</text>
</a>
</g>
</g>
<!-- Node1&#45;&gt;Node24 -->
<g id="edge44" class="edge">
<title>Node1&#45;&gt;Node24</title>
<path fill="none" stroke="midnightblue" d="M627.49,-308.23C768.19,-302.54 1060.73,-288.21 1101.28,-266 1124.89,-253.07 1142.26,-226.92 1152.52,-207.72"/>
<polygon fill="midnightblue" stroke="midnightblue" points="1155.7,-209.18 1157.1,-198.67 1149.46,-206.01 1155.7,-209.18"/>
</g>
<!-- Node7&#45;&gt;Node2 -->
<g id="edge9" class="edge">
<title>Node7&#45;&gt;Node2</title>
<path fill="none" stroke="midnightblue" d="M474.23,-56.47C371.14,-44.6 188.59,-23.58 113.25,-14.91"/>
<polygon fill="midnightblue" stroke="midnightblue" points="113.27,-11.39 102.94,-13.72 112.47,-18.34 113.27,-11.39"/>
</g>
<!-- Node7&#45;&gt;Node4 -->
<g id="edge11" class="edge">
<title>Node7&#45;&gt;Node4</title>
<path fill="none" stroke="midnightblue" d="M501.86,-56.44C444.86,-45.94 349.14,-28.3 295.26,-18.37"/>
<polygon fill="midnightblue" stroke="midnightblue" points="295.86,-14.92 285.39,-16.55 294.59,-21.8 295.86,-14.92"/>
</g>
<!-- Node7&#45;&gt;Node6 -->
<g id="edge13" class="edge">
<title>Node7&#45;&gt;Node6</title>
<path fill="none" stroke="midnightblue" d="M585.2,-56.44C629.89,-46.09 704.51,-28.79 747.67,-18.79"/>
<polygon fill="midnightblue" stroke="midnightblue" points="748.71,-22.14 757.66,-16.47 747.13,-15.32 748.71,-22.14"/>
</g>
<!-- Node8 -->
<g id="node8" class="node">
<title>Node8</title>
<g id="a_node8"><a xlink:title=" ">
<polygon fill="none" stroke="#bfbfbf" points="435.28,-0.5 435.28,-19.5 491.28,-19.5 491.28,-0.5 435.28,-0.5"/>
<text text-anchor="middle" x="463.28" y="-7.5" font-family="Helvetica,sans-Serif" font-size="10.00">unistd.h</text>
</a>
</g>
</g>
<!-- Node7&#45;&gt;Node8 -->
<g id="edge7" class="edge">
<title>Node7&#45;&gt;Node8</title>
<path fill="none" stroke="midnightblue" d="M534.63,-56.32C521.37,-47.9 501.01,-34.97 485.44,-25.07"/>
<polygon fill="midnightblue" stroke="midnightblue" points="487.22,-22.06 476.91,-19.65 483.47,-27.97 487.22,-22.06"/>
</g>
<!-- Node9 -->
<g id="node9" class="node">
<title>Node9</title>
<g id="a_node9"><a xlink:title=" ">
<polygon fill="none" stroke="#bfbfbf" points="509.78,-0.5 509.78,-19.5 586.78,-19.5 586.78,-0.5 509.78,-0.5"/>
<text text-anchor="middle" x="548.28" y="-7.5" font-family="Helvetica,sans-Serif" font-size="10.00">Eigen/Dense</text>
</a>
</g>
</g>
<!-- Node7&#45;&gt;Node9 -->
<g id="edge8" class="edge">
<title>Node7&#45;&gt;Node9</title>
<path fill="none" stroke="midnightblue" d="M548.28,-56.08C548.28,-49.01 548.28,-38.86 548.28,-29.99"/>
<polygon fill="midnightblue" stroke="midnightblue" points="551.78,-29.75 548.28,-19.75 544.78,-29.75 551.78,-29.75"/>
</g>
<!-- Node10 -->
<g id="node10" class="node">
<title>Node10</title>
<g id="a_node10"><a xlink:title=" ">
<polygon fill="none" stroke="#bfbfbf" points="605.28,-0.5 605.28,-19.5 651.28,-19.5 651.28,-0.5 605.28,-0.5"/>
<text text-anchor="middle" x="628.28" y="-7.5" font-family="Helvetica,sans-Serif" font-size="10.00">cstdio</text>
</a>
</g>
</g>
<!-- Node7&#45;&gt;Node10 -->
<g id="edge10" class="edge">
<title>Node7&#45;&gt;Node10</title>
<path fill="none" stroke="midnightblue" d="M561.14,-56.32C573.5,-47.98 592.41,-35.21 607.02,-25.35"/>
<polygon fill="midnightblue" stroke="midnightblue" points="609.13,-28.15 615.46,-19.65 605.21,-22.35 609.13,-28.15"/>
</g>
<!-- Node11 -->
<g id="node11" class="node">
<title>Node11</title>
<g id="a_node11"><a xlink:title=" ">
<polygon fill="none" stroke="#bfbfbf" points="355.28,-0.5 355.28,-19.5 399.28,-19.5 399.28,-0.5 355.28,-0.5"/>
<text text-anchor="middle" x="377.28" y="-7.5" font-family="Helvetica,sans-Serif" font-size="10.00">string</text>
</a>
</g>
</g>
<!-- Node7&#45;&gt;Node11 -->
<g id="edge12" class="edge">
<title>Node7&#45;&gt;Node11</title>
<path fill="none" stroke="midnightblue" d="M521.19,-56.44C490.76,-46.84 441.45,-31.26 409.19,-21.07"/>
<polygon fill="midnightblue" stroke="midnightblue" points="409.95,-17.64 399.36,-17.97 407.84,-24.32 409.95,-17.64"/>
</g>
<!-- Node12&#45;&gt;Node6 -->
<g id="edge15" class="edge">
<title>Node12&#45;&gt;Node6</title>
<path fill="none" stroke="midnightblue" d="M781.28,-173.76C781.28,-147.15 781.28,-66.71 781.28,-29.84"/>
<polygon fill="midnightblue" stroke="midnightblue" points="784.78,-29.52 781.28,-19.52 777.78,-29.52 784.78,-29.52"/>
</g>
<!-- Node12&#45;&gt;Node7 -->
<g id="edge16" class="edge">
<title>Node12&#45;&gt;Node7</title>
<path fill="none" stroke="midnightblue" d="M763.77,-173.82C723.27,-153.74 622.95,-104.01 574.84,-80.17"/>
<polygon fill="midnightblue" stroke="midnightblue" points="576.19,-76.93 565.68,-75.62 573.09,-83.2 576.19,-76.93"/>
</g>
<!-- Node12&#45;&gt;Node13 -->
<g id="edge17" class="edge">
<title>Node12&#45;&gt;Node13</title>
<path fill="none" stroke="midnightblue" d="M800.77,-173.98C823.69,-163.95 861.97,-147.2 888.36,-135.65"/>
<polygon fill="midnightblue" stroke="midnightblue" points="890.07,-138.72 897.83,-131.51 887.27,-132.31 890.07,-138.72"/>
</g>
<!-- Node13&#45;&gt;Node7 -->
<g id="edge19" class="edge">
<title>Node13&#45;&gt;Node7</title>
<path fill="none" stroke="midnightblue" d="M872.04,-114.38C808.26,-105.04 691.4,-87.94 616.9,-77.04"/>
<polygon fill="midnightblue" stroke="midnightblue" points="617.08,-73.53 606.68,-75.55 616.06,-80.46 617.08,-73.53"/>
</g>
<!-- Node14 -->
<g id="node14" class="node">
<title>Node14</title>
<g id="a_node14"><a xlink:title=" ">
<polygon fill="none" stroke="#bfbfbf" points="870.78,-56.5 870.78,-75.5 963.78,-75.5 963.78,-56.5 870.78,-56.5"/>
<text text-anchor="middle" x="917.28" y="-63.5" font-family="Helvetica,sans-Serif" font-size="10.00">unordered_map</text>
</a>
</g>
</g>
<!-- Node13&#45;&gt;Node14 -->
<g id="edge18" class="edge">
<title>Node13&#45;&gt;Node14</title>
<path fill="none" stroke="midnightblue" d="M917.28,-112.08C917.28,-105.01 917.28,-94.86 917.28,-85.99"/>
<polygon fill="midnightblue" stroke="midnightblue" points="920.78,-85.75 917.28,-75.75 913.78,-85.75 920.78,-85.75"/>
</g>
<!-- Node15&#45;&gt;Node6 -->
<g id="edge22" class="edge">
<title>Node15&#45;&gt;Node6</title>
<path fill="none" stroke="midnightblue" d="M392.9,-235.49C417.87,-226.17 450.52,-213.09 478.28,-199 589.27,-142.67 712.8,-58.87 760.73,-25.48"/>
<polygon fill="midnightblue" stroke="midnightblue" points="762.84,-28.28 769.03,-19.68 758.83,-22.54 762.84,-28.28"/>
</g>
<!-- Node15&#45;&gt;Node11 -->
<g id="edge21" class="edge">
<title>Node15&#45;&gt;Node11</title>
<path fill="none" stroke="midnightblue" d="M354.71,-235.29C358.82,-194.43 370.69,-76.55 375.36,-30.12"/>
<polygon fill="midnightblue" stroke="midnightblue" points="378.86,-30.25 376.38,-19.95 371.9,-29.54 378.86,-30.25"/>
</g>
<!-- Node15&#45;&gt;Node12 -->
<g id="edge23" class="edge">
<title>Node15&#45;&gt;Node12</title>
<path fill="none" stroke="midnightblue" d="M412.32,-236.77C415.68,-236.15 419.02,-235.55 422.28,-235 546,-214.08 578.31,-218.33 702.28,-199 710.31,-197.75 718.79,-196.31 727.08,-194.85"/>
<polygon fill="midnightblue" stroke="midnightblue" points="727.84,-198.26 737.06,-193.05 726.6,-191.38 727.84,-198.26"/>
</g>
<!-- Node15&#45;&gt;Node16 -->
<g id="edge24" class="edge">
<title>Node15&#45;&gt;Node16</title>
<path fill="none" stroke="midnightblue" d="M368.91,-235.4C380.47,-224.96 396.2,-210.75 408.12,-200"/>
<polygon fill="midnightblue" stroke="midnightblue" points="410.57,-202.49 415.65,-193.19 405.88,-197.3 410.57,-202.49"/>
</g>
<!-- Node16&#45;&gt;Node7 -->
<g id="edge26" class="edge">
<title>Node16&#45;&gt;Node7</title>
<path fill="none" stroke="midnightblue" d="M434.53,-173.82C455.19,-154.42 505.33,-107.33 531.6,-82.66"/>
<polygon fill="midnightblue" stroke="midnightblue" points="534.04,-85.18 538.93,-75.78 529.24,-80.08 534.04,-85.18"/>
</g>
<!-- Node17 -->
<g id="node17" class="node">
<title>Node17</title>
<g id="a_node17"><a xlink:title=" ">
<polygon fill="none" stroke="#bfbfbf" points="399.78,-112.5 399.78,-131.5 450.78,-131.5 450.78,-112.5 399.78,-112.5"/>
<text text-anchor="middle" x="425.28" y="-119.5" font-family="Helvetica,sans-Serif" font-size="10.00">cblas.h</text>
</a>
</g>
</g>
<!-- Node16&#45;&gt;Node17 -->
<g id="edge25" class="edge">
<title>Node16&#45;&gt;Node17</title>
<path fill="none" stroke="midnightblue" d="M425.28,-173.98C425.28,-165.58 425.28,-152.48 425.28,-141.66"/>
<polygon fill="midnightblue" stroke="midnightblue" points="428.78,-141.51 425.28,-131.51 421.78,-141.51 428.78,-141.51"/>
</g>
<!-- Node18&#45;&gt;Node12 -->
<g id="edge28" class="edge">
<title>Node18&#45;&gt;Node12</title>
<path fill="none" stroke="midnightblue" d="M788.33,-235.4C787.02,-225.96 785.29,-213.45 783.87,-203.19"/>
<polygon fill="midnightblue" stroke="midnightblue" points="787.32,-202.62 782.49,-193.19 780.39,-203.58 787.32,-202.62"/>
</g>
<!-- Node19&#45;&gt;Node7 -->
<g id="edge30" class="edge">
<title>Node19&#45;&gt;Node7</title>
<path fill="none" stroke="midnightblue" d="M620.42,-173.82C607.6,-154.84 576.88,-109.35 559.96,-84.29"/>
<polygon fill="midnightblue" stroke="midnightblue" points="562.71,-82.11 554.21,-75.78 556.91,-86.03 562.71,-82.11"/>
</g>
<!-- Node20&#45;&gt;Node19 -->
<g id="edge32" class="edge">
<title>Node20&#45;&gt;Node19</title>
<path fill="none" stroke="midnightblue" d="M517.44,-235.4C541.72,-224.04 575.56,-208.22 599.03,-197.24"/>
<polygon fill="midnightblue" stroke="midnightblue" points="600.51,-200.41 608.09,-193.01 597.55,-194.07 600.51,-200.41"/>
</g>
<!-- Node21&#45;&gt;Node19 -->
<g id="edge34" class="edge">
<title>Node21&#45;&gt;Node19</title>
<path fill="none" stroke="midnightblue" d="M620.02,-235.4C621.18,-225.96 622.72,-213.45 623.98,-203.19"/>
<polygon fill="midnightblue" stroke="midnightblue" points="627.46,-203.55 625.21,-193.19 620.52,-202.69 627.46,-203.55"/>
</g>
<!-- Node22&#45;&gt;Node6 -->
<g id="edge38" class="edge">
<title>Node22&#45;&gt;Node6</title>
<path fill="none" stroke="midnightblue" d="M988.47,-240.71C994.87,-231.02 1004.47,-214.72 1008.28,-199 1023.69,-135.41 1021.2,-100.56 973.28,-56 950.57,-34.88 863.81,-21.11 815.06,-14.87"/>
<polygon fill="midnightblue" stroke="midnightblue" points="815.33,-11.38 804.98,-13.62 814.47,-18.32 815.33,-11.38"/>
</g>
<!-- Node22&#45;&gt;Node7 -->
<g id="edge39" class="edge">
<title>Node22&#45;&gt;Node7</title>
<path fill="none" stroke="midnightblue" d="M971.47,-240.76C950.92,-224.5 904.3,-189.32 860.28,-168 770.73,-124.63 658.04,-93.4 595.54,-77.95"/>
<polygon fill="midnightblue" stroke="midnightblue" points="596.12,-74.49 585.58,-75.52 594.46,-81.29 596.12,-74.49"/>
</g>
<!-- Node22&#45;&gt;Node12 -->
<g id="edge40" class="edge">
<title>Node22&#45;&gt;Node12</title>
<path fill="none" stroke="midnightblue" d="M955.59,-240.87C920.05,-229.38 857.07,-209.01 817.33,-196.16"/>
<polygon fill="midnightblue" stroke="midnightblue" points="818.36,-192.81 807.76,-193.06 816.2,-199.47 818.36,-192.81"/>
</g>
<!-- Node22&#45;&gt;Node13 -->
<g id="edge42" class="edge">
<title>Node22&#45;&gt;Node13</title>
<path fill="none" stroke="midnightblue" d="M972.18,-240.85C961.91,-231.53 946.28,-215.76 937.28,-199 927.63,-181.01 922.42,-158.08 919.77,-142.13"/>
<polygon fill="midnightblue" stroke="midnightblue" points="923.19,-141.3 918.26,-131.92 916.26,-142.33 923.19,-141.3"/>
</g>
<!-- Node22&#45;&gt;Node19 -->
<g id="edge41" class="edge">
<title>Node22&#45;&gt;Node19</title>
<path fill="none" stroke="midnightblue" d="M934.38,-240.93C878.78,-230.97 784.36,-213.97 703.28,-199 696.2,-197.69 688.76,-196.31 681.4,-194.93"/>
<polygon fill="midnightblue" stroke="midnightblue" points="681.94,-191.47 671.47,-193.06 680.65,-198.35 681.94,-191.47"/>
</g>
<!-- Node23 -->
<g id="node23" class="node">
<title>Node23</title>
<g id="a_node23"><a xlink:title=" ">
<polygon fill="none" stroke="#bfbfbf" points="945.78,-174 945.78,-193 998.78,-193 998.78,-174 945.78,-174"/>
<text text-anchor="middle" x="972.28" y="-181" font-family="Helvetica,sans-Serif" font-size="10.00">stdlib.h</text>
</a>
</g>
</g>
<!-- Node22&#45;&gt;Node23 -->
<g id="edge37" class="edge">
<title>Node22&#45;&gt;Node23</title>
<path fill="none" stroke="midnightblue" d="M980.93,-240.73C979.46,-231.18 977.07,-215.62 975.17,-203.28"/>
<polygon fill="midnightblue" stroke="midnightblue" points="978.59,-202.48 973.61,-193.13 971.67,-203.54 978.59,-202.48"/>
</g>
<!-- Node24&#45;&gt;Node13 -->
<g id="edge45" class="edge">
<title>Node24&#45;&gt;Node13</title>
<path fill="none" stroke="midnightblue" d="M1105.3,-168.47C1061.56,-157.9 1002.43,-143.59 962.24,-133.87"/>
<polygon fill="midnightblue" stroke="midnightblue" points="962.99,-130.46 952.45,-131.51 961.35,-137.26 962.99,-130.46"/>
</g>
</g>
</svg>
