<?xml version="1.0" encoding="UTF-8" standalone="no"?>
<!DOCTYPE svg PUBLIC "-//W3C//DTD SVG 1.1//EN"
 "http://www.w3.org/Graphics/SVG/1.1/DTD/svg11.dtd">
<!-- Generated by graphviz version 2.43.0 (0)
 -->
<!-- Title: main Pages: 1 -->
<svg width="952pt" height="437pt"
 viewBox="0.00 0.00 952.00 437.00" xmlns="http://www.w3.org/2000/svg" xmlns:xlink="http://www.w3.org/1999/xlink">
<g id="graph0" class="graph" transform="scale(1 1) rotate(0) translate(4 433)">
<title>main</title>
<!-- Node1 -->
<g id="node1" class="node">
<title>Node1</title>
<g id="a_node1"><a xlink:title=" ">
<polygon fill="#bfbfbf" stroke="black" points="0,-194 0,-213 41,-213 41,-194 0,-194"/>
<text text-anchor="middle" x="20.5" y="-201" font-family="Helvetica,sans-Serif" font-size="10.00">main</text>
</a>
</g>
</g>
<!-- Node2 -->
<g id="node2" class="node">
<title>Node2</title>
<g id="a_node2"><a xlink:href="classnmbuflowtorch_1_1Network.html#aa1d574b1f7daac023f4917887dd05ead" target="_top" xlink:title="Adds a layer to the network.">
<polygon fill="none" stroke="black" points="84.5,-398.5 84.5,-428.5 221.5,-428.5 221.5,-398.5 84.5,-398.5"/>
<text text-anchor="start" x="92.5" y="-416.5" font-family="Helvetica,sans-Serif" font-size="10.00">nmbuflowtorch::Network</text>
<text text-anchor="middle" x="153" y="-405.5" font-family="Helvetica,sans-Serif" font-size="10.00">::add_layer</text>
</a>
</g>
</g>
<!-- Node1&#45;&gt;Node2 -->
<g id="edge1" class="edge">
<title>Node1&#45;&gt;Node2</title>
<path fill="none" stroke="midnightblue" d="M21.42,-213.14C21.7,-243.52 26.75,-338.25 77,-389.5 77.94,-390.46 78.92,-391.38 79.94,-392.27"/>
<polygon fill="midnightblue" stroke="midnightblue" points="78.17,-395.31 88.31,-398.36 82.28,-389.65 78.17,-395.31"/>
</g>
<!-- Node3 -->
<g id="node3" class="node">
<title>Node3</title>
<g id="a_node3"><a xlink:href="classnmbuflowtorch_1_1Network.html#a7a86be4bc0c3901a48cfb70b286ec363" target="_top" xlink:title="Adds a loss function to the network.">
<polygon fill="none" stroke="black" points="84.5,-349.5 84.5,-379.5 221.5,-379.5 221.5,-349.5 84.5,-349.5"/>
<text text-anchor="start" x="92.5" y="-367.5" font-family="Helvetica,sans-Serif" font-size="10.00">nmbuflowtorch::Network</text>
<text text-anchor="middle" x="153" y="-356.5" font-family="Helvetica,sans-Serif" font-size="10.00">::add_loss</text>
</a>
</g>
</g>
<!-- Node1&#45;&gt;Node3 -->
<g id="edge2" class="edge">
<title>Node1&#45;&gt;Node3</title>
<path fill="none" stroke="midnightblue" d="M22.59,-213.02C25.92,-237.75 38.24,-304.55 77,-340.5 78.27,-341.68 79.61,-342.81 80.99,-343.88"/>
<polygon fill="midnightblue" stroke="midnightblue" points="79.11,-346.83 89.39,-349.41 82.97,-340.99 79.11,-346.83"/>
</g>
<!-- Node4 -->
<g id="node4" class="node">
<title>Node4</title>
<g id="a_node4"><a xlink:href="classnmbuflowtorch_1_1Network.html#a1120a4649f5317ab85b7fd0124f91f75" target="_top" xlink:title="Adds an optimizer to the network.">
<polygon fill="none" stroke="black" points="84.5,-300.5 84.5,-330.5 221.5,-330.5 221.5,-300.5 84.5,-300.5"/>
<text text-anchor="start" x="92.5" y="-318.5" font-family="Helvetica,sans-Serif" font-size="10.00">nmbuflowtorch::Network</text>
<text text-anchor="middle" x="153" y="-307.5" font-family="Helvetica,sans-Serif" font-size="10.00">::add_optimizer</text>
</a>
</g>
</g>
<!-- Node1&#45;&gt;Node4 -->
<g id="edge3" class="edge">
<title>Node1&#45;&gt;Node4</title>
<path fill="none" stroke="midnightblue" d="M25.03,-213.27C32.07,-231.38 49.58,-270.27 77,-291.5 78.8,-292.89 80.68,-294.21 82.63,-295.45"/>
<polygon fill="midnightblue" stroke="midnightblue" points="81.09,-298.6 91.53,-300.41 84.5,-292.48 81.09,-298.6"/>
</g>
<!-- Node5 -->
<g id="node5" class="node">
<title>Node5</title>
<g id="a_node5"><a xlink:href="classnmbuflowtorch_1_1Network.html#ae404b65188cb291b22ec494bb270bec2" target="_top" xlink:title=" ">
<polygon fill="none" stroke="black" points="84.5,-251.5 84.5,-281.5 221.5,-281.5 221.5,-251.5 84.5,-251.5"/>
<text text-anchor="start" x="92.5" y="-269.5" font-family="Helvetica,sans-Serif" font-size="10.00">nmbuflowtorch::Network</text>
<text text-anchor="middle" x="153" y="-258.5" font-family="Helvetica,sans-Serif" font-size="10.00">::delete_net</text>
</a>
</g>
</g>
<!-- Node1&#45;&gt;Node5 -->
<g id="edge4" class="edge">
<title>Node1&#45;&gt;Node5</title>
<path fill="none" stroke="midnightblue" d="M33.67,-213.31C44.52,-221.69 61.1,-233.6 77,-241.5 81.49,-243.73 86.23,-245.84 91.06,-247.81"/>
<polygon fill="midnightblue" stroke="midnightblue" points="89.81,-251.07 100.4,-251.42 92.33,-244.55 89.81,-251.07"/>
</g>
<!-- Node6 -->
<g id="node6" class="node">
<title>Node6</title>
<g id="a_node6"><a xlink:href="classcsv_1_1CSVFormat.html#a9504d9b7629560dd25b0fa63bf665584" target="_top" xlink:title=" ">
<polygon fill="none" stroke="black" points="81.5,-213 81.5,-232 224.5,-232 224.5,-213 81.5,-213"/>
<text text-anchor="middle" x="153" y="-220" font-family="Helvetica,sans-Serif" font-size="10.00">csv::CSVFormat::delimiter</text>
</a>
</g>
</g>
<!-- Node1&#45;&gt;Node6 -->
<g id="edge5" class="edge">
<title>Node1&#45;&gt;Node6</title>
<path fill="none" stroke="midnightblue" d="M41.04,-206.34C50.84,-207.77 63.41,-209.6 76.54,-211.51"/>
<polygon fill="midnightblue" stroke="midnightblue" points="76.26,-215.01 86.66,-212.99 77.27,-208.08 76.26,-215.01"/>
</g>
<!-- Node8 -->
<g id="node8" class="node">
<title>Node8</title>
<g id="a_node8"><a xlink:href="classnmbuflowtorch_1_1Network.html#a8cff72188a6f4b0d13c8b7474eec1ca3" target="_top" xlink:title="Fit model to data provided.">
<polygon fill="none" stroke="black" points="77,-175 77,-194 229,-194 229,-175 77,-175"/>
<text text-anchor="middle" x="153" y="-182" font-family="Helvetica,sans-Serif" font-size="10.00">nmbuflowtorch::Network::fit</text>
</a>
</g>
</g>
<!-- Node1&#45;&gt;Node8 -->
<g id="edge7" class="edge">
<title>Node1&#45;&gt;Node8</title>
<path fill="none" stroke="midnightblue" d="M41.04,-200.66C50.84,-199.23 63.41,-197.4 76.54,-195.49"/>
<polygon fill="midnightblue" stroke="midnightblue" points="77.27,-198.92 86.66,-194.01 76.26,-191.99 77.27,-198.92"/>
</g>
<!-- Node16 -->
<g id="node16" class="node">
<title>Node16</title>
<g id="a_node16"><a xlink:href="classnmbuflowtorch_1_1Network.html#a47b0ad164e645c60f736f60f87827900" target="_top" xlink:title="Returns the value from the last layer.">
<polygon fill="none" stroke="black" points="807,-156.5 807,-186.5 944,-186.5 944,-156.5 807,-156.5"/>
<text text-anchor="start" x="815" y="-174.5" font-family="Helvetica,sans-Serif" font-size="10.00">nmbuflowtorch::Network</text>
<text text-anchor="middle" x="875.5" y="-163.5" font-family="Helvetica,sans-Serif" font-size="10.00">::output</text>
</a>
</g>
</g>
<!-- Node1&#45;&gt;Node16 -->
<g id="edge23" class="edge">
<title>Node1&#45;&gt;Node16</title>
<path fill="none" stroke="midnightblue" d="M25.62,-193.84C33.14,-177.54 50.78,-144.94 77,-130.5 176.84,-75.53 218.52,-108.5 332.5,-108.5 332.5,-108.5 332.5,-108.5 519,-108.5 631.32,-108.5 661.86,-100.95 771,-127.5 793.66,-133.01 817.71,-142.96 836.92,-152"/>
<polygon fill="midnightblue" stroke="midnightblue" points="835.4,-155.16 845.93,-156.35 838.44,-148.85 835.4,-155.16"/>
</g>
<!-- Node17 -->
<g id="node17" class="node">
<title>Node17</title>
<g id="a_node17"><a xlink:href="classnmbuflowtorch_1_1Network.html#ae6cd135a052cc1526b34bb4144ae58b6" target="_top" xlink:title=" ">
<polygon fill="none" stroke="black" points="634,-137.5 634,-167.5 771,-167.5 771,-137.5 634,-137.5"/>
<text text-anchor="start" x="642" y="-155.5" font-family="Helvetica,sans-Serif" font-size="10.00">nmbuflowtorch::Network</text>
<text text-anchor="middle" x="702.5" y="-144.5" font-family="Helvetica,sans-Serif" font-size="10.00">::forward</text>
</a>
</g>
</g>
<!-- Node1&#45;&gt;Node17 -->
<g id="edge21" class="edge">
<title>Node1&#45;&gt;Node17</title>
<path fill="none" stroke="midnightblue" d="M31.56,-193.89C41.98,-184.63 59.21,-171.21 77,-165.5 265.62,-104.96 503.04,-124.2 623.57,-140.19"/>
<polygon fill="midnightblue" stroke="midnightblue" points="623.43,-143.7 633.81,-141.58 624.37,-136.76 623.43,-143.7"/>
</g>
<!-- Node20 -->
<g id="node20" class="node">
<title>Node20</title>
<g id="a_node20"><a xlink:href="classcsv_1_1CSVFormat.html#ac4503298da54c932da9ac0914c76892f" target="_top" xlink:title=" ">
<polygon fill="none" stroke="black" points="98,-49.5 98,-79.5 208,-79.5 208,-49.5 98,-49.5"/>
<text text-anchor="start" x="106" y="-67.5" font-family="Helvetica,sans-Serif" font-size="10.00">csv::CSVFormat::no</text>
<text text-anchor="middle" x="153" y="-56.5" font-family="Helvetica,sans-Serif" font-size="10.00">_header</text>
</a>
</g>
</g>
<!-- Node1&#45;&gt;Node20 -->
<g id="edge22" class="edge">
<title>Node1&#45;&gt;Node20</title>
<path fill="none" stroke="midnightblue" d="M23.89,-193.93C29.57,-173.06 45.8,-123 77,-94.5 81.14,-90.72 85.82,-87.38 90.77,-84.45"/>
<polygon fill="midnightblue" stroke="midnightblue" points="92.71,-87.38 99.9,-79.6 89.43,-81.2 92.71,-87.38"/>
</g>
<!-- Node21 -->
<g id="node21" class="node">
<title>Node21</title>
<g id="a_node21"><a xlink:href="classnmbuflowtorch_1_1layer_1_1Dense.html#a1b343ab594510f4ab93c9c292b5a5123" target="_top" xlink:title="Get the output dimension of the dense layer.">
<polygon fill="none" stroke="black" points="93,-0.5 93,-30.5 213,-30.5 213,-0.5 93,-0.5"/>
<text text-anchor="start" x="101" y="-18.5" font-family="Helvetica,sans-Serif" font-size="10.00">nmbuflowtorch::layer</text>
<text text-anchor="middle" x="153" y="-7.5" font-family="Helvetica,sans-Serif" font-size="10.00">::Dense::output_dim</text>
</a>
</g>
</g>
<!-- Node1&#45;&gt;Node21 -->
<g id="edge24" class="edge">
<title>Node1&#45;&gt;Node21</title>
<path fill="none" stroke="midnightblue" d="M21.87,-193.8C23.48,-165.76 32,-83.76 77,-39.5 79.15,-37.39 81.48,-35.46 83.95,-33.7"/>
<polygon fill="midnightblue" stroke="midnightblue" points="86.06,-36.52 92.82,-28.36 82.44,-30.53 86.06,-36.52"/>
</g>
<!-- Node7 -->
<g id="node7" class="node">
<title>Node7</title>
<g id="a_node7"><a xlink:href="classcsv_1_1CSVFormat.html#a6c2b638db04f164d781df7b2a4840a20" target="_top" xlink:title=" ">
<polygon fill="none" stroke="black" points="269.5,-262.5 269.5,-292.5 397.5,-292.5 397.5,-262.5 269.5,-262.5"/>
<text text-anchor="start" x="277.5" y="-280.5" font-family="Helvetica,sans-Serif" font-size="10.00">csv::CSVFormat::assert</text>
<text text-anchor="middle" x="333.5" y="-269.5" font-family="Helvetica,sans-Serif" font-size="10.00">_no_char_overlap</text>
</a>
</g>
</g>
<!-- Node6&#45;&gt;Node7 -->
<g id="edge6" class="edge">
<title>Node6&#45;&gt;Node7</title>
<path fill="none" stroke="midnightblue" d="M191.91,-232.09C203.82,-235.25 217,-238.88 229,-242.5 245.77,-247.56 263.9,-253.53 280.24,-259.09"/>
<polygon fill="midnightblue" stroke="midnightblue" points="279.56,-262.55 290.15,-262.48 281.82,-255.93 279.56,-262.55"/>
</g>
<!-- Node9 -->
<g id="node9" class="node">
<title>Node9</title>
<g id="a_node9"><a xlink:href="math__m_8hpp.html#a00222de08fb54dc0423e29cc610d1f0c" target="_top" xlink:title="Shuffles a dataset by creating a permutation matrix from a given vector of indices and applying it to...">
<polygon fill="none" stroke="black" points="295,-175 295,-194 372,-194 372,-175 295,-175"/>
<text text-anchor="middle" x="333.5" y="-182" font-family="Helvetica,sans-Serif" font-size="10.00">shuffle_data</text>
</a>
</g>
</g>
<!-- Node8&#45;&gt;Node9 -->
<g id="edge8" class="edge">
<title>Node8&#45;&gt;Node9</title>
<path fill="none" stroke="midnightblue" d="M229.18,-184.5C247.96,-184.5 267.59,-184.5 284.64,-184.5"/>
<polygon fill="midnightblue" stroke="midnightblue" points="284.89,-188 294.88,-184.5 284.88,-181 284.89,-188"/>
</g>
<!-- Node10 -->
<g id="node10" class="node">
<title>Node10</title>
<g id="a_node10"><a xlink:href="classnmbuflowtorch_1_1Network.html#ab4decd5644c172b3ade967496bf64f7b" target="_top" xlink:title="Trains all batches in X and y for one epoch.">
<polygon fill="none" stroke="black" points="265,-213.5 265,-243.5 402,-243.5 402,-213.5 265,-213.5"/>
<text text-anchor="start" x="273" y="-231.5" font-family="Helvetica,sans-Serif" font-size="10.00">nmbuflowtorch::Network</text>
<text text-anchor="middle" x="333.5" y="-220.5" font-family="Helvetica,sans-Serif" font-size="10.00">::train_one_epoch</text>
</a>
</g>
</g>
<!-- Node8&#45;&gt;Node10 -->
<g id="edge9" class="edge">
<title>Node8&#45;&gt;Node10</title>
<path fill="none" stroke="midnightblue" d="M192.73,-194.05C212.83,-199 238.02,-205.21 261.46,-210.99"/>
<polygon fill="midnightblue" stroke="midnightblue" points="260.84,-214.44 271.38,-213.43 262.51,-207.64 260.84,-214.44"/>
</g>
<!-- Node11 -->
<g id="node11" class="node">
<title>Node11</title>
<g id="a_node11"><a xlink:href="namespacenmbuflowtorch.html#a6841de6f2ac014f91c37f7f2c0e9cc1e" target="_top" xlink:title="Prints a progress bar to the console.">
<polygon fill="none" stroke="black" points="438,-263 438,-282 598,-282 598,-263 438,-263"/>
<text text-anchor="middle" x="518" y="-270" font-family="Helvetica,sans-Serif" font-size="10.00">nmbuflowtorch::printProgress</text>
</a>
</g>
</g>
<!-- Node10&#45;&gt;Node11 -->
<g id="edge10" class="edge">
<title>Node10&#45;&gt;Node11</title>
<path fill="none" stroke="midnightblue" d="M396.62,-243.51C410.25,-246.81 424.61,-250.27 438,-253.5 447.47,-255.78 457.57,-258.21 467.28,-260.55"/>
<polygon fill="midnightblue" stroke="midnightblue" points="466.67,-264 477.21,-262.94 468.31,-257.2 466.67,-264"/>
</g>
<!-- Node12 -->
<g id="node12" class="node">
<title>Node12</title>
<g id="a_node12"><a xlink:href="classnmbuflowtorch_1_1Network.html#ac5f07dc09b1d352567d6cbcc3c38c010" target="_top" xlink:title="Forward, backward, and update functions combined for one batch of data.">
<polygon fill="none" stroke="black" points="449.5,-213.5 449.5,-243.5 586.5,-243.5 586.5,-213.5 449.5,-213.5"/>
<text text-anchor="start" x="457.5" y="-231.5" font-family="Helvetica,sans-Serif" font-size="10.00">nmbuflowtorch::Network</text>
<text text-anchor="middle" x="518" y="-220.5" font-family="Helvetica,sans-Serif" font-size="10.00">::train_batch</text>
</a>
</g>
</g>
<!-- Node10&#45;&gt;Node12 -->
<g id="edge11" class="edge">
<title>Node10&#45;&gt;Node12</title>
<path fill="none" stroke="midnightblue" d="M402.2,-228.5C414.24,-228.5 426.88,-228.5 439.18,-228.5"/>
<polygon fill="midnightblue" stroke="midnightblue" points="439.41,-232 449.41,-228.5 439.41,-225 439.41,-232"/>
</g>
<!-- Node13 -->
<g id="node13" class="node">
<title>Node13</title>
<g id="a_node13"><a xlink:href="classnmbuflowtorch_1_1Network.html#ad2626aa7216689fadfa4469273de8c90" target="_top" xlink:title="Using X input and y target, back propagates the loss gradient.">
<polygon fill="none" stroke="black" points="634,-225.5 634,-255.5 771,-255.5 771,-225.5 634,-225.5"/>
<text text-anchor="start" x="642" y="-243.5" font-family="Helvetica,sans-Serif" font-size="10.00">nmbuflowtorch::Network</text>
<text text-anchor="middle" x="702.5" y="-232.5" font-family="Helvetica,sans-Serif" font-size="10.00">::backward</text>
</a>
</g>
</g>
<!-- Node12&#45;&gt;Node13 -->
<g id="edge12" class="edge">
<title>Node12&#45;&gt;Node13</title>
<path fill="none" stroke="midnightblue" d="M586.7,-232.95C598.74,-233.74 611.38,-234.57 623.68,-235.38"/>
<polygon fill="midnightblue" stroke="midnightblue" points="623.7,-238.89 633.91,-236.06 624.16,-231.91 623.7,-238.89"/>
</g>
<!-- Node12&#45;&gt;Node16 -->
<g id="edge19" class="edge">
<title>Node12&#45;&gt;Node16</title>
<path fill="none" stroke="midnightblue" d="M586.7,-217.64C646.53,-208.05 733.78,-194.06 796.51,-184.01"/>
<polygon fill="midnightblue" stroke="midnightblue" points="797.43,-187.4 806.75,-182.36 796.32,-180.49 797.43,-187.4"/>
</g>
<!-- Node12&#45;&gt;Node17 -->
<g id="edge16" class="edge">
<title>Node12&#45;&gt;Node17</title>
<path fill="none" stroke="midnightblue" d="M555.06,-213.48C583.96,-201.45 624.69,-184.49 655.86,-171.5"/>
<polygon fill="midnightblue" stroke="midnightblue" points="657.32,-174.69 665.21,-167.61 654.63,-168.23 657.32,-174.69"/>
</g>
<!-- Node18 -->
<g id="node18" class="node">
<title>Node18</title>
<g id="a_node18"><a xlink:href="classnmbuflowtorch_1_1Loss.html#a5747f962c29f0e1a6147c435da22c466" target="_top" xlink:title="Returns the value of the loss.">
<polygon fill="none" stroke="black" points="644,-323.5 644,-353.5 761,-353.5 761,-323.5 644,-323.5"/>
<text text-anchor="start" x="652" y="-341.5" font-family="Helvetica,sans-Serif" font-size="10.00">nmbuflowtorch::Loss</text>
<text text-anchor="middle" x="702.5" y="-330.5" font-family="Helvetica,sans-Serif" font-size="10.00">::output</text>
</a>
</g>
</g>
<!-- Node12&#45;&gt;Node18 -->
<g id="edge18" class="edge">
<title>Node12&#45;&gt;Node18</title>
<path fill="none" stroke="midnightblue" d="M582.01,-243.62C587.72,-246.39 593.16,-249.65 598,-253.5 622.63,-273.1 609.71,-294.47 634,-314.5 635.55,-315.78 637.17,-316.99 638.85,-318.13"/>
<polygon fill="midnightblue" stroke="midnightblue" points="637.26,-321.26 647.64,-323.37 640.84,-315.25 637.26,-321.26"/>
</g>
<!-- Node19 -->
<g id="node19" class="node">
<title>Node19</title>
<g id="a_node19"><a xlink:href="classnmbuflowtorch_1_1Network.html#ab4dcbf1de529e005b2eb4c31b8cbd552" target="_top" xlink:title=" ">
<polygon fill="none" stroke="black" points="634,-274.5 634,-304.5 771,-304.5 771,-274.5 634,-274.5"/>
<text text-anchor="start" x="642" y="-292.5" font-family="Helvetica,sans-Serif" font-size="10.00">nmbuflowtorch::Network</text>
<text text-anchor="middle" x="702.5" y="-281.5" font-family="Helvetica,sans-Serif" font-size="10.00">::update</text>
</a>
</g>
</g>
<!-- Node12&#45;&gt;Node19 -->
<g id="edge20" class="edge">
<title>Node12&#45;&gt;Node19</title>
<path fill="none" stroke="midnightblue" d="M567.53,-243.62C577.62,-246.83 588.17,-250.24 598,-253.5 614.83,-259.09 633.12,-265.38 649.59,-271.12"/>
<polygon fill="midnightblue" stroke="midnightblue" points="648.45,-274.43 659.04,-274.43 650.76,-267.82 648.45,-274.43"/>
</g>
<!-- Node14 -->
<g id="node14" class="node">
<title>Node14</title>
<g id="a_node14"><a xlink:href="classnmbuflowtorch_1_1Loss.html#a29688f70477ce9f630cb313cc7e4c365" target="_top" xlink:title="Returns the gradient with respect to the input of the loss function.">
<polygon fill="none" stroke="black" points="817,-215.5 817,-245.5 934,-245.5 934,-215.5 817,-215.5"/>
<text text-anchor="start" x="825" y="-233.5" font-family="Helvetica,sans-Serif" font-size="10.00">nmbuflowtorch::Loss</text>
<text text-anchor="middle" x="875.5" y="-222.5" font-family="Helvetica,sans-Serif" font-size="10.00">::back_gradient</text>
</a>
</g>
</g>
<!-- Node13&#45;&gt;Node14 -->
<g id="edge13" class="edge">
<title>Node13&#45;&gt;Node14</title>
<path fill="none" stroke="midnightblue" d="M771.08,-236.55C782.78,-235.86 794.95,-235.15 806.65,-234.47"/>
<polygon fill="midnightblue" stroke="midnightblue" points="807.01,-237.95 816.79,-233.87 806.61,-230.96 807.01,-237.95"/>
</g>
<!-- Node15 -->
<g id="node15" class="node">
<title>Node15</title>
<g id="a_node15"><a xlink:href="classnmbuflowtorch_1_1Loss.html#ab739a047ffc84f44af71832ec704cedc" target="_top" xlink:title="Evaluates the loss function given the predicted and target values.">
<polygon fill="none" stroke="black" points="817,-264.5 817,-294.5 934,-294.5 934,-264.5 817,-264.5"/>
<text text-anchor="start" x="825" y="-282.5" font-family="Helvetica,sans-Serif" font-size="10.00">nmbuflowtorch::Loss</text>
<text text-anchor="middle" x="875.5" y="-271.5" font-family="Helvetica,sans-Serif" font-size="10.00">::eval</text>
</a>
</g>
</g>
<!-- Node13&#45;&gt;Node15 -->
<g id="edge14" class="edge">
<title>Node13&#45;&gt;Node15</title>
<path fill="none" stroke="midnightblue" d="M769.61,-255.58C781.92,-258.39 794.8,-261.32 807.15,-264.14"/>
<polygon fill="midnightblue" stroke="midnightblue" points="806.39,-267.56 816.91,-266.37 807.94,-260.73 806.39,-267.56"/>
</g>
<!-- Node13&#45;&gt;Node16 -->
<g id="edge15" class="edge">
<title>Node13&#45;&gt;Node16</title>
<path fill="none" stroke="midnightblue" d="M741.03,-225.36C766.53,-215.07 800.45,-201.38 827.72,-190.38"/>
<polygon fill="midnightblue" stroke="midnightblue" points="829.1,-193.59 837.06,-186.61 826.48,-187.1 829.1,-193.59"/>
</g>
<!-- Node17&#45;&gt;Node16 -->
<g id="edge17" class="edge">
<title>Node17&#45;&gt;Node16</title>
<path fill="none" stroke="midnightblue" d="M771.08,-160.01C779.54,-160.95 788.24,-161.92 796.83,-162.87"/>
<polygon fill="midnightblue" stroke="midnightblue" points="796.52,-166.36 806.85,-163.98 797.29,-159.4 796.52,-166.36"/>
</g>
</g>
</svg>
