<?xml version="1.0" encoding="UTF-8" standalone="no"?>
<!DOCTYPE svg PUBLIC "-//W3C//DTD SVG 1.1//EN"
 "http://www.w3.org/Graphics/SVG/1.1/DTD/svg11.dtd">
<!-- Generated by graphviz version 2.43.0 (0)
 -->
<!-- Title: src/main.cpp Pages: 1 -->
<svg width="1545pt" height="330pt"
 viewBox="0.00 0.00 1545.00 330.00" xmlns="http://www.w3.org/2000/svg" xmlns:xlink="http://www.w3.org/1999/xlink">
<g id="graph0" class="graph" transform="scale(1 1) rotate(0) translate(4 326)">
<title>src/main.cpp</title>
<!-- Node1 -->
<g id="node1" class="node">
<title>Node1</title>
<g id="a_node1"><a xlink:title=" ">
<polygon fill="#bfbfbf" stroke="black" points="648,-302.5 648,-321.5 727,-321.5 727,-302.5 648,-302.5"/>
<text text-anchor="middle" x="687.5" y="-309.5" font-family="Helvetica,sans-Serif" font-size="10.00">src/main.cpp</text>
</a>
</g>
</g>
<!-- Node2 -->
<g id="node2" class="node">
<title>Node2</title>
<g id="a_node2"><a xlink:title=" ">
<polygon fill="none" stroke="#bfbfbf" points="0,-241 0,-260 47,-260 47,-241 0,-241"/>
<text text-anchor="middle" x="23.5" y="-248" font-family="Helvetica,sans-Serif" font-size="10.00">omp.h</text>
</a>
</g>
</g>
<!-- Node1&#45;&gt;Node2 -->
<g id="edge1" class="edge">
<title>Node1&#45;&gt;Node2</title>
<path fill="none" stroke="midnightblue" d="M647.95,-309.67C528.73,-305.42 174.13,-290.97 61.5,-266 58.49,-265.33 55.41,-264.47 52.36,-263.51"/>
<polygon fill="midnightblue" stroke="midnightblue" points="53.48,-260.19 42.89,-260.15 51.14,-266.79 53.48,-260.19"/>
</g>
<!-- Node3 -->
<g id="node3" class="node">
<title>Node3</title>
<g id="a_node3"><a xlink:title=" ">
<polygon fill="none" stroke="#bfbfbf" points="103,-0.5 103,-19.5 150,-19.5 150,-0.5 103,-0.5"/>
<text text-anchor="middle" x="126.5" y="-7.5" font-family="Helvetica,sans-Serif" font-size="10.00">cmath</text>
</a>
</g>
</g>
<!-- Node1&#45;&gt;Node3 -->
<g id="edge2" class="edge">
<title>Node1&#45;&gt;Node3</title>
<path fill="none" stroke="midnightblue" d="M647.8,-310.66C521.74,-309.23 136.39,-301.91 94.5,-266 66.26,-241.79 75.5,-221.69 75.5,-184.5 75.5,-184.5 75.5,-184.5 75.5,-121 75.5,-85.24 97.95,-48.51 113.06,-27.84"/>
<polygon fill="midnightblue" stroke="midnightblue" points="115.93,-29.85 119.19,-19.77 110.36,-25.61 115.93,-29.85"/>
</g>
<!-- Node4 -->
<g id="node4" class="node">
<title>Node4</title>
<g id="a_node4"><a xlink:title=" ">
<polygon fill="none" stroke="#bfbfbf" points="103.5,-241 103.5,-260 159.5,-260 159.5,-241 103.5,-241"/>
<text text-anchor="middle" x="131.5" y="-248" font-family="Helvetica,sans-Serif" font-size="10.00">iomanip</text>
</a>
</g>
</g>
<!-- Node1&#45;&gt;Node4 -->
<g id="edge3" class="edge">
<title>Node1&#45;&gt;Node4</title>
<path fill="none" stroke="midnightblue" d="M647.68,-310.82C560.66,-309.7 347.41,-303.04 173.5,-266 170,-265.25 166.39,-264.3 162.82,-263.24"/>
<polygon fill="midnightblue" stroke="midnightblue" points="163.6,-259.82 153.01,-260.06 161.44,-266.48 163.6,-259.82"/>
</g>
<!-- Node5 -->
<g id="node5" class="node">
<title>Node5</title>
<g id="a_node5"><a xlink:title=" ">
<polygon fill="none" stroke="#bfbfbf" points="370.5,-0.5 370.5,-19.5 430.5,-19.5 430.5,-0.5 370.5,-0.5"/>
<text text-anchor="middle" x="400.5" y="-7.5" font-family="Helvetica,sans-Serif" font-size="10.00">iostream</text>
</a>
</g>
</g>
<!-- Node1&#45;&gt;Node5 -->
<g id="edge4" class="edge">
<title>Node1&#45;&gt;Node5</title>
<path fill="none" stroke="midnightblue" d="M647.76,-309.91C538.5,-306.55 239.48,-294.78 206.5,-266 178.48,-241.54 187.5,-221.69 187.5,-184.5 187.5,-184.5 187.5,-184.5 187.5,-121 187.5,-44.08 298.51,-20.89 360.24,-13.94"/>
<polygon fill="midnightblue" stroke="midnightblue" points="360.85,-17.4 370.43,-12.89 360.13,-10.44 360.85,-17.4"/>
</g>
<!-- Node6 -->
<g id="node6" class="node">
<title>Node6</title>
<g id="a_node6"><a xlink:title=" ">
<polygon fill="none" stroke="#bfbfbf" points="216,-241 216,-260 273,-260 273,-241 216,-241"/>
<text text-anchor="middle" x="244.5" y="-248" font-family="Helvetica,sans-Serif" font-size="10.00">ostream</text>
</a>
</g>
</g>
<!-- Node1&#45;&gt;Node6 -->
<g id="edge5" class="edge">
<title>Node1&#45;&gt;Node6</title>
<path fill="none" stroke="midnightblue" d="M647.87,-309.34C575.5,-305.69 417.46,-294.87 287.5,-266 284.01,-265.22 280.41,-264.27 276.84,-263.22"/>
<polygon fill="midnightblue" stroke="midnightblue" points="277.6,-259.79 267.01,-260.1 275.48,-266.46 277.6,-259.79"/>
</g>
<!-- Node7 -->
<g id="node7" class="node">
<title>Node7</title>
<g id="a_node7"><a xlink:title=" ">
<polygon fill="none" stroke="#bfbfbf" points="947,-0.5 947,-19.5 994,-19.5 994,-0.5 947,-0.5"/>
<text text-anchor="middle" x="970.5" y="-7.5" font-family="Helvetica,sans-Serif" font-size="10.00">vector</text>
</a>
</g>
</g>
<!-- Node1&#45;&gt;Node7 -->
<g id="edge6" class="edge">
<title>Node1&#45;&gt;Node7</title>
<path fill="none" stroke="midnightblue" d="M727.37,-310.8C849.25,-309.78 1215.42,-303.57 1327.5,-266 1389.33,-245.27 1449.5,-249.71 1449.5,-184.5 1449.5,-184.5 1449.5,-184.5 1449.5,-121 1449.5,-29.55 1113.65,-14.12 1004.39,-11.53"/>
<polygon fill="midnightblue" stroke="midnightblue" points="1004.33,-8.02 994.25,-11.31 1004.18,-15.02 1004.33,-8.02"/>
</g>
<!-- Node8 -->
<g id="node8" class="node">
<title>Node8</title>
<g id="a_node8"><a xlink:title=" ">
<polygon fill="none" stroke="#bfbfbf" points="330,-241 330,-260 439,-260 439,-241 330,-241"/>
<text text-anchor="middle" x="384.5" y="-248" font-family="Helvetica,sans-Serif" font-size="10.00">csv_parser/csv.hpp</text>
</a>
</g>
</g>
<!-- Node1&#45;&gt;Node8 -->
<g id="edge7" class="edge">
<title>Node1&#45;&gt;Node8</title>
<path fill="none" stroke="midnightblue" d="M647.71,-303.56C601.12,-294.81 521.63,-279.71 453.5,-266 447.36,-264.76 440.91,-263.44 434.53,-262.12"/>
<polygon fill="midnightblue" stroke="midnightblue" points="435.11,-258.67 424.61,-260.05 433.69,-265.52 435.11,-258.67"/>
</g>
<!-- Node9 -->
<g id="node9" class="node">
<title>Node9</title>
<g id="a_node9"><a xlink:href="definitions_8hpp.html" target="_top" xlink:title=" ">
<polygon fill="none" stroke="black" points="675.5,-56.5 675.5,-75.5 839.5,-75.5 839.5,-56.5 675.5,-56.5"/>
<text text-anchor="middle" x="757.5" y="-63.5" font-family="Helvetica,sans-Serif" font-size="10.00">nmbuflowtorch/definitions.hpp</text>
</a>
</g>
</g>
<!-- Node1&#45;&gt;Node9 -->
<g id="edge8" class="edge">
<title>Node1&#45;&gt;Node9</title>
<path fill="none" stroke="midnightblue" d="M647.7,-309.03C557.35,-304.16 342.87,-290.16 321.5,-266 312.37,-255.68 314.04,-246.58 321.5,-235 395.48,-120.17 560.79,-83.72 665.26,-72.22"/>
<polygon fill="midnightblue" stroke="midnightblue" points="665.9,-75.67 675.49,-71.15 665.18,-68.7 665.9,-75.67"/>
</g>
<!-- Node14 -->
<g id="node14" class="node">
<title>Node14</title>
<g id="a_node14"><a xlink:href="layer_8hpp.html" target="_top" xlink:title=" ">
<polygon fill="none" stroke="black" points="902,-174 902,-193 1039,-193 1039,-174 902,-174"/>
<text text-anchor="middle" x="970.5" y="-181" font-family="Helvetica,sans-Serif" font-size="10.00">nmbuflowtorch/layer.hpp</text>
</a>
</g>
</g>
<!-- Node1&#45;&gt;Node14 -->
<g id="edge16" class="edge">
<title>Node1&#45;&gt;Node14</title>
<path fill="none" stroke="midnightblue" d="M727.28,-309.08C818.18,-304.28 1034.92,-290.37 1056.5,-266 1079.58,-239.93 1034.53,-212.7 1001.36,-197.24"/>
<polygon fill="midnightblue" stroke="midnightblue" points="1002.52,-193.93 991.96,-193.02 999.65,-200.31 1002.52,-193.93"/>
</g>
<!-- Node15 -->
<g id="node15" class="node">
<title>Node15</title>
<g id="a_node15"><a xlink:href="optimizer_8hpp.html" target="_top" xlink:title=" ">
<polygon fill="none" stroke="black" points="1061,-112.5 1061,-131.5 1150,-131.5 1150,-112.5 1061,-112.5"/>
<text text-anchor="middle" x="1105.5" y="-119.5" font-family="Helvetica,sans-Serif" font-size="10.00">./optimizer.hpp</text>
</a>
</g>
</g>
<!-- Node1&#45;&gt;Node15 -->
<g id="edge45" class="edge">
<title>Node1&#45;&gt;Node15</title>
<path fill="none" stroke="midnightblue" d="M727.05,-310.96C851.65,-310.41 1229.95,-305.5 1266.5,-266 1315.44,-213.1 1199.39,-158.79 1139.07,-135.18"/>
<polygon fill="midnightblue" stroke="midnightblue" points="1140.15,-131.84 1129.56,-131.53 1137.64,-138.38 1140.15,-131.84"/>
</g>
<!-- Node17 -->
<g id="node17" class="node">
<title>Node17</title>
<g id="a_node17"><a xlink:href="dense_8hpp.html" target="_top" xlink:title=" ">
<polygon fill="none" stroke="black" points="496,-235.5 496,-265.5 613,-265.5 613,-235.5 496,-235.5"/>
<text text-anchor="start" x="504" y="-253.5" font-family="Helvetica,sans-Serif" font-size="10.00">nmbuflowtorch/layer</text>
<text text-anchor="middle" x="554.5" y="-242.5" font-family="Helvetica,sans-Serif" font-size="10.00">/dense.hpp</text>
</a>
</g>
</g>
<!-- Node1&#45;&gt;Node17 -->
<g id="edge22" class="edge">
<title>Node1&#45;&gt;Node17</title>
<path fill="none" stroke="midnightblue" d="M668.44,-302.48C649.42,-293.96 619.59,-280.62 595.22,-269.72"/>
<polygon fill="midnightblue" stroke="midnightblue" points="596.4,-266.41 585.85,-265.52 593.54,-272.8 596.4,-266.41"/>
</g>
<!-- Node18 -->
<g id="node18" class="node">
<title>Node18</title>
<g id="a_node18"><a xlink:href="math__m_8hpp.html" target="_top" xlink:title=" ">
<polygon fill="none" stroke="black" points="583,-174 583,-193 670,-193 670,-174 583,-174"/>
<text text-anchor="middle" x="626.5" y="-181" font-family="Helvetica,sans-Serif" font-size="10.00">../math_m.hpp</text>
</a>
</g>
</g>
<!-- Node1&#45;&gt;Node18 -->
<g id="edge37" class="edge">
<title>Node1&#45;&gt;Node18</title>
<path fill="none" stroke="midnightblue" d="M647.74,-307.82C595.25,-302.69 507.18,-290.6 487.5,-266 459.16,-230.57 522.52,-207.32 572.76,-195.04"/>
<polygon fill="midnightblue" stroke="midnightblue" points="573.67,-198.42 582.61,-192.73 572.07,-191.61 573.67,-198.42"/>
</g>
<!-- Node20 -->
<g id="node20" class="node">
<title>Node20</title>
<g id="a_node20"><a xlink:href="sigmoid_8hpp.html" target="_top" xlink:title=" ">
<polygon fill="none" stroke="black" points="930,-235.5 930,-265.5 1047,-265.5 1047,-235.5 930,-235.5"/>
<text text-anchor="start" x="938" y="-253.5" font-family="Helvetica,sans-Serif" font-size="10.00">nmbuflowtorch/layer</text>
<text text-anchor="middle" x="988.5" y="-242.5" font-family="Helvetica,sans-Serif" font-size="10.00">/sigmoid.hpp</text>
</a>
</g>
</g>
<!-- Node1&#45;&gt;Node20 -->
<g id="edge29" class="edge">
<title>Node1&#45;&gt;Node20</title>
<path fill="none" stroke="midnightblue" d="M727.04,-303.21C772.52,-294.25 849.4,-279.09 915.5,-266 916.97,-265.71 918.45,-265.42 919.94,-265.12"/>
<polygon fill="midnightblue" stroke="midnightblue" points="920.8,-268.52 929.93,-263.14 919.44,-261.65 920.8,-268.52"/>
</g>
<!-- Node21 -->
<g id="node21" class="node">
<title>Node21</title>
<g id="a_node21"><a xlink:href="loss_8hpp.html" target="_top" xlink:title=" ">
<polygon fill="none" stroke="black" points="751,-174 751,-193 884,-193 884,-174 751,-174"/>
<text text-anchor="middle" x="817.5" y="-181" font-family="Helvetica,sans-Serif" font-size="10.00">nmbuflowtorch/loss.hpp</text>
</a>
</g>
</g>
<!-- Node1&#45;&gt;Node21 -->
<g id="edge31" class="edge">
<title>Node1&#45;&gt;Node21</title>
<path fill="none" stroke="midnightblue" d="M727.15,-307.57C778.44,-302.22 863.47,-289.93 882.5,-266 901.45,-242.18 867.45,-214.49 841.89,-198.29"/>
<polygon fill="midnightblue" stroke="midnightblue" points="843.67,-195.27 833.31,-193.06 840.03,-201.25 843.67,-195.27"/>
</g>
<!-- Node22 -->
<g id="node22" class="node">
<title>Node22</title>
<g id="a_node22"><a xlink:href="cross__entropy_8hpp.html" target="_top" xlink:title=" ">
<polygon fill="none" stroke="black" points="631.5,-235.5 631.5,-265.5 743.5,-265.5 743.5,-235.5 631.5,-235.5"/>
<text text-anchor="start" x="639.5" y="-253.5" font-family="Helvetica,sans-Serif" font-size="10.00">nmbuflowtorch/loss</text>
<text text-anchor="middle" x="687.5" y="-242.5" font-family="Helvetica,sans-Serif" font-size="10.00">/cross_entropy.hpp</text>
</a>
</g>
</g>
<!-- Node1&#45;&gt;Node22 -->
<g id="edge33" class="edge">
<title>Node1&#45;&gt;Node22</title>
<path fill="none" stroke="midnightblue" d="M687.5,-302.48C687.5,-295.47 687.5,-285.19 687.5,-275.7"/>
<polygon fill="midnightblue" stroke="midnightblue" points="691,-275.52 687.5,-265.52 684,-275.52 691,-275.52"/>
</g>
<!-- Node23 -->
<g id="node23" class="node">
<title>Node23</title>
<g id="a_node23"><a xlink:href="mse_8hpp.html" target="_top" xlink:title=" ">
<polygon fill="none" stroke="black" points="761.5,-235.5 761.5,-265.5 873.5,-265.5 873.5,-235.5 761.5,-235.5"/>
<text text-anchor="start" x="769.5" y="-253.5" font-family="Helvetica,sans-Serif" font-size="10.00">nmbuflowtorch/loss</text>
<text text-anchor="middle" x="817.5" y="-242.5" font-family="Helvetica,sans-Serif" font-size="10.00">/mse.hpp</text>
</a>
</g>
</g>
<!-- Node1&#45;&gt;Node23 -->
<g id="edge35" class="edge">
<title>Node1&#45;&gt;Node23</title>
<path fill="none" stroke="midnightblue" d="M706.13,-302.48C724.72,-293.96 753.88,-280.62 777.7,-269.72"/>
<polygon fill="midnightblue" stroke="midnightblue" points="779.23,-272.87 786.86,-265.52 776.31,-266.5 779.23,-272.87"/>
</g>
<!-- Node24 -->
<g id="node24" class="node">
<title>Node24</title>
<g id="a_node24"><a xlink:href="network_8hpp.html" target="_top" xlink:title="Network class representing a sequence of layers. This class implements a network consisting of a sequ...">
<polygon fill="none" stroke="black" points="1104,-241 1104,-260 1257,-260 1257,-241 1104,-241"/>
<text text-anchor="middle" x="1180.5" y="-248" font-family="Helvetica,sans-Serif" font-size="10.00">nmbuflowtorch/network.hpp</text>
</a>
</g>
</g>
<!-- Node1&#45;&gt;Node24 -->
<g id="edge38" class="edge">
<title>Node1&#45;&gt;Node24</title>
<path fill="none" stroke="midnightblue" d="M727.23,-307.17C799.47,-300.07 957.1,-283.95 1089.5,-266 1099.25,-264.68 1109.57,-263.15 1119.62,-261.6"/>
<polygon fill="midnightblue" stroke="midnightblue" points="1120.21,-265.05 1129.54,-260.05 1119.12,-258.14 1120.21,-265.05"/>
</g>
<!-- Node26 -->
<g id="node26" class="node">
<title>Node26</title>
<g id="a_node26"><a xlink:href="sgd_8hpp.html" target="_top" xlink:title=" ">
<polygon fill="none" stroke="black" points="1282,-168.5 1282,-198.5 1421,-198.5 1421,-168.5 1282,-168.5"/>
<text text-anchor="start" x="1290" y="-186.5" font-family="Helvetica,sans-Serif" font-size="10.00">nmbuflowtorch/optimizer</text>
<text text-anchor="middle" x="1351.5" y="-175.5" font-family="Helvetica,sans-Serif" font-size="10.00">/sgd.hpp</text>
</a>
</g>
</g>
<!-- Node1&#45;&gt;Node26 -->
<g id="edge46" class="edge">
<title>Node1&#45;&gt;Node26</title>
<path fill="none" stroke="midnightblue" d="M727.11,-310.13C854.86,-307.06 1250.5,-295.25 1299.5,-266 1321.12,-253.09 1335.26,-227.32 1343.26,-208.2"/>
<polygon fill="midnightblue" stroke="midnightblue" points="1346.61,-209.23 1346.99,-198.64 1340.09,-206.69 1346.61,-209.23"/>
</g>
<!-- Node27 -->
<g id="node27" class="node">
<title>Node27</title>
<g id="a_node27"><a xlink:title=" ">
<polygon fill="none" stroke="#bfbfbf" points="1478,-241 1478,-260 1537,-260 1537,-241 1478,-241"/>
<text text-anchor="middle" x="1507.5" y="-248" font-family="Helvetica,sans-Serif" font-size="10.00">complex</text>
</a>
</g>
</g>
<!-- Node1&#45;&gt;Node27 -->
<g id="edge48" class="edge">
<title>Node1&#45;&gt;Node27</title>
<path fill="none" stroke="midnightblue" d="M727.45,-310.06C865.26,-306.58 1320.16,-293.29 1463.5,-266 1467.48,-265.24 1471.59,-264.22 1475.63,-263.07"/>
<polygon fill="midnightblue" stroke="midnightblue" points="1476.91,-266.34 1485.41,-260.02 1474.82,-259.66 1476.91,-266.34"/>
</g>
<!-- Node9&#45;&gt;Node3 -->
<g id="edge11" class="edge">
<title>Node9&#45;&gt;Node3</title>
<path fill="none" stroke="midnightblue" d="M675.33,-57.97C535.39,-45.99 256.59,-22.13 160.21,-13.88"/>
<polygon fill="midnightblue" stroke="midnightblue" points="160.42,-10.39 150.15,-13.02 159.82,-17.36 160.42,-10.39"/>
</g>
<!-- Node9&#45;&gt;Node5 -->
<g id="edge13" class="edge">
<title>Node9&#45;&gt;Node5</title>
<path fill="none" stroke="midnightblue" d="M700.93,-56.44C628.48,-45.49 504.7,-26.76 441,-17.13"/>
<polygon fill="midnightblue" stroke="midnightblue" points="441.35,-13.64 430.94,-15.6 440.31,-20.56 441.35,-13.64"/>
</g>
<!-- Node9&#45;&gt;Node7 -->
<g id="edge15" class="edge">
<title>Node9&#45;&gt;Node7</title>
<path fill="none" stroke="midnightblue" d="M791.25,-56.44C831.18,-46.32 897.24,-29.57 937.04,-19.48"/>
<polygon fill="midnightblue" stroke="midnightblue" points="937.97,-22.86 946.8,-17.01 936.25,-16.07 937.97,-22.86"/>
</g>
<!-- Node10 -->
<g id="node10" class="node">
<title>Node10</title>
<g id="a_node10"><a xlink:title=" ">
<polygon fill="none" stroke="#bfbfbf" points="644.5,-0.5 644.5,-19.5 700.5,-19.5 700.5,-0.5 644.5,-0.5"/>
<text text-anchor="middle" x="672.5" y="-7.5" font-family="Helvetica,sans-Serif" font-size="10.00">unistd.h</text>
</a>
</g>
</g>
<!-- Node9&#45;&gt;Node10 -->
<g id="edge9" class="edge">
<title>Node9&#45;&gt;Node10</title>
<path fill="none" stroke="midnightblue" d="M743.84,-56.32C730.58,-47.9 710.23,-34.97 694.65,-25.07"/>
<polygon fill="midnightblue" stroke="midnightblue" points="696.44,-22.06 686.12,-19.65 692.69,-27.97 696.44,-22.06"/>
</g>
<!-- Node11 -->
<g id="node11" class="node">
<title>Node11</title>
<g id="a_node11"><a xlink:title=" ">
<polygon fill="none" stroke="#bfbfbf" points="719,-0.5 719,-19.5 796,-19.5 796,-0.5 719,-0.5"/>
<text text-anchor="middle" x="757.5" y="-7.5" font-family="Helvetica,sans-Serif" font-size="10.00">Eigen/Dense</text>
</a>
</g>
</g>
<!-- Node9&#45;&gt;Node11 -->
<g id="edge10" class="edge">
<title>Node9&#45;&gt;Node11</title>
<path fill="none" stroke="midnightblue" d="M757.5,-56.08C757.5,-49.01 757.5,-38.86 757.5,-29.99"/>
<polygon fill="midnightblue" stroke="midnightblue" points="761,-29.75 757.5,-19.75 754,-29.75 761,-29.75"/>
</g>
<!-- Node12 -->
<g id="node12" class="node">
<title>Node12</title>
<g id="a_node12"><a xlink:title=" ">
<polygon fill="none" stroke="#bfbfbf" points="814.5,-0.5 814.5,-19.5 860.5,-19.5 860.5,-0.5 814.5,-0.5"/>
<text text-anchor="middle" x="837.5" y="-7.5" font-family="Helvetica,sans-Serif" font-size="10.00">cstdio</text>
</a>
</g>
</g>
<!-- Node9&#45;&gt;Node12 -->
<g id="edge12" class="edge">
<title>Node9&#45;&gt;Node12</title>
<path fill="none" stroke="midnightblue" d="M770.35,-56.32C782.72,-47.98 801.63,-35.21 816.24,-25.35"/>
<polygon fill="midnightblue" stroke="midnightblue" points="818.35,-28.15 824.68,-19.65 814.43,-22.35 818.35,-28.15"/>
</g>
<!-- Node13 -->
<g id="node13" class="node">
<title>Node13</title>
<g id="a_node13"><a xlink:title=" ">
<polygon fill="none" stroke="#bfbfbf" points="549.5,-0.5 549.5,-19.5 593.5,-19.5 593.5,-0.5 549.5,-0.5"/>
<text text-anchor="middle" x="571.5" y="-7.5" font-family="Helvetica,sans-Serif" font-size="10.00">string</text>
</a>
</g>
</g>
<!-- Node9&#45;&gt;Node13 -->
<g id="edge14" class="edge">
<title>Node9&#45;&gt;Node13</title>
<path fill="none" stroke="midnightblue" d="M728.03,-56.44C694,-46.56 638.23,-30.37 603.26,-20.22"/>
<polygon fill="midnightblue" stroke="midnightblue" points="604.13,-16.83 593.55,-17.4 602.18,-23.55 604.13,-16.83"/>
</g>
<!-- Node14&#45;&gt;Node7 -->
<g id="edge17" class="edge">
<title>Node14&#45;&gt;Node7</title>
<path fill="none" stroke="midnightblue" d="M970.5,-173.76C970.5,-147.15 970.5,-66.71 970.5,-29.84"/>
<polygon fill="midnightblue" stroke="midnightblue" points="974,-29.52 970.5,-19.52 967,-29.52 974,-29.52"/>
</g>
<!-- Node14&#45;&gt;Node9 -->
<g id="edge18" class="edge">
<title>Node14&#45;&gt;Node9</title>
<path fill="none" stroke="midnightblue" d="M954.49,-173.82C917.62,-153.83 826.53,-104.43 782.33,-80.47"/>
<polygon fill="midnightblue" stroke="midnightblue" points="783.86,-77.31 773.4,-75.62 780.53,-83.47 783.86,-77.31"/>
</g>
<!-- Node14&#45;&gt;Node15 -->
<g id="edge19" class="edge">
<title>Node14&#45;&gt;Node15</title>
<path fill="none" stroke="midnightblue" d="M989.84,-173.98C1012.6,-163.95 1050.59,-147.2 1076.79,-135.65"/>
<polygon fill="midnightblue" stroke="midnightblue" points="1078.45,-138.74 1086.19,-131.51 1075.63,-132.34 1078.45,-138.74"/>
</g>
<!-- Node15&#45;&gt;Node9 -->
<g id="edge21" class="edge">
<title>Node15&#45;&gt;Node9</title>
<path fill="none" stroke="midnightblue" d="M1060.72,-114.05C1000.18,-104.66 891.83,-87.84 822.38,-77.07"/>
<polygon fill="midnightblue" stroke="midnightblue" points="822.84,-73.6 812.42,-75.52 821.77,-80.51 822.84,-73.6"/>
</g>
<!-- Node16 -->
<g id="node16" class="node">
<title>Node16</title>
<g id="a_node16"><a xlink:title=" ">
<polygon fill="none" stroke="#bfbfbf" points="1059,-56.5 1059,-75.5 1152,-75.5 1152,-56.5 1059,-56.5"/>
<text text-anchor="middle" x="1105.5" y="-63.5" font-family="Helvetica,sans-Serif" font-size="10.00">unordered_map</text>
</a>
</g>
</g>
<!-- Node15&#45;&gt;Node16 -->
<g id="edge20" class="edge">
<title>Node15&#45;&gt;Node16</title>
<path fill="none" stroke="midnightblue" d="M1105.5,-112.08C1105.5,-105.01 1105.5,-94.86 1105.5,-85.99"/>
<polygon fill="midnightblue" stroke="midnightblue" points="1109,-85.75 1105.5,-75.75 1102,-85.75 1109,-85.75"/>
</g>
<!-- Node17&#45;&gt;Node7 -->
<g id="edge24" class="edge">
<title>Node17&#45;&gt;Node7</title>
<path fill="none" stroke="midnightblue" d="M594.77,-235.45C619.7,-226.21 652.08,-213.23 679.5,-199 786.85,-143.28 905.11,-59.09 950.9,-25.55"/>
<polygon fill="midnightblue" stroke="midnightblue" points="953.09,-28.28 959.07,-19.53 948.94,-22.64 953.09,-28.28"/>
</g>
<!-- Node17&#45;&gt;Node13 -->
<g id="edge23" class="edge">
<title>Node17&#45;&gt;Node13</title>
<path fill="none" stroke="midnightblue" d="M555.51,-235.29C558.43,-194.43 566.83,-76.55 570.14,-30.12"/>
<polygon fill="midnightblue" stroke="midnightblue" points="573.64,-30.17 570.86,-19.95 566.66,-29.67 573.64,-30.17"/>
</g>
<!-- Node17&#45;&gt;Node14 -->
<g id="edge25" class="edge">
<title>Node17&#45;&gt;Node14</title>
<path fill="none" stroke="midnightblue" d="M613.05,-236.71C616.24,-236.11 619.41,-235.53 622.5,-235 742.23,-214.31 773.53,-218.25 893.5,-199 901.24,-197.76 909.41,-196.34 917.4,-194.89"/>
<polygon fill="midnightblue" stroke="midnightblue" points="918.21,-198.3 927.4,-193.04 916.93,-191.41 918.21,-198.3"/>
</g>
<!-- Node17&#45;&gt;Node18 -->
<g id="edge26" class="edge">
<title>Node17&#45;&gt;Node18</title>
<path fill="none" stroke="midnightblue" d="M570.12,-235.4C581.68,-224.96 597.42,-210.75 609.33,-200"/>
<polygon fill="midnightblue" stroke="midnightblue" points="611.79,-202.49 616.87,-193.19 607.1,-197.3 611.79,-202.49"/>
</g>
<!-- Node18&#45;&gt;Node9 -->
<g id="edge28" class="edge">
<title>Node18&#45;&gt;Node9</title>
<path fill="none" stroke="midnightblue" d="M636.35,-173.82C658.35,-154.42 711.76,-107.33 739.74,-82.66"/>
<polygon fill="midnightblue" stroke="midnightblue" points="742.35,-85.02 747.54,-75.78 737.72,-79.77 742.35,-85.02"/>
</g>
<!-- Node19 -->
<g id="node19" class="node">
<title>Node19</title>
<g id="a_node19"><a xlink:title=" ">
<polygon fill="none" stroke="#bfbfbf" points="601,-112.5 601,-131.5 652,-131.5 652,-112.5 601,-112.5"/>
<text text-anchor="middle" x="626.5" y="-119.5" font-family="Helvetica,sans-Serif" font-size="10.00">cblas.h</text>
</a>
</g>
</g>
<!-- Node18&#45;&gt;Node19 -->
<g id="edge27" class="edge">
<title>Node18&#45;&gt;Node19</title>
<path fill="none" stroke="midnightblue" d="M626.5,-173.98C626.5,-165.58 626.5,-152.48 626.5,-141.66"/>
<polygon fill="midnightblue" stroke="midnightblue" points="630,-141.51 626.5,-131.51 623,-141.51 630,-141.51"/>
</g>
<!-- Node20&#45;&gt;Node14 -->
<g id="edge30" class="edge">
<title>Node20&#45;&gt;Node14</title>
<path fill="none" stroke="midnightblue" d="M984.59,-235.4C981.95,-225.86 978.44,-213.18 975.58,-202.86"/>
<polygon fill="midnightblue" stroke="midnightblue" points="978.95,-201.9 972.91,-193.19 972.2,-203.77 978.95,-201.9"/>
</g>
<!-- Node21&#45;&gt;Node9 -->
<g id="edge32" class="edge">
<title>Node21&#45;&gt;Node9</title>
<path fill="none" stroke="midnightblue" d="M812.99,-173.82C803.22,-155.01 779.91,-110.15 766.83,-84.96"/>
<polygon fill="midnightblue" stroke="midnightblue" points="769.78,-83.04 762.06,-75.78 763.57,-86.27 769.78,-83.04"/>
</g>
<!-- Node22&#45;&gt;Node21 -->
<g id="edge34" class="edge">
<title>Node22&#45;&gt;Node21</title>
<path fill="none" stroke="midnightblue" d="M715.71,-235.4C738.22,-224.14 769.5,-208.5 791.42,-197.54"/>
<polygon fill="midnightblue" stroke="midnightblue" points="793.11,-200.61 800.49,-193.01 789.98,-194.35 793.11,-200.61"/>
</g>
<!-- Node23&#45;&gt;Node21 -->
<g id="edge36" class="edge">
<title>Node23&#45;&gt;Node21</title>
<path fill="none" stroke="midnightblue" d="M817.5,-235.4C817.5,-226.06 817.5,-213.71 817.5,-203.52"/>
<polygon fill="midnightblue" stroke="midnightblue" points="821,-203.19 817.5,-193.19 814,-203.19 821,-203.19"/>
</g>
<!-- Node24&#45;&gt;Node7 -->
<g id="edge40" class="edge">
<title>Node24&#45;&gt;Node7</title>
<path fill="none" stroke="midnightblue" d="M1184.18,-240.76C1188.13,-230.84 1194.17,-214.09 1196.5,-199 1206.5,-134.34 1209.39,-100.58 1161.5,-56 1138.91,-34.97 1052.6,-21.16 1004.1,-14.89"/>
<polygon fill="midnightblue" stroke="midnightblue" points="1004.43,-11.41 994.07,-13.63 1003.56,-18.35 1004.43,-11.41"/>
</g>
<!-- Node24&#45;&gt;Node9 -->
<g id="edge41" class="edge">
<title>Node24&#45;&gt;Node9</title>
<path fill="none" stroke="midnightblue" d="M1168.63,-240.93C1146.1,-224.94 1095.21,-190.19 1048.5,-168 963.06,-127.4 856.77,-94.69 799.22,-78.35"/>
<polygon fill="midnightblue" stroke="midnightblue" points="799.98,-74.92 789.4,-75.58 798.08,-81.66 799.98,-74.92"/>
</g>
<!-- Node24&#45;&gt;Node14 -->
<g id="edge42" class="edge">
<title>Node24&#45;&gt;Node14</title>
<path fill="none" stroke="midnightblue" d="M1152.61,-240.87C1115.4,-229.35 1049.4,-208.92 1007.9,-196.08"/>
<polygon fill="midnightblue" stroke="midnightblue" points="1008.76,-192.68 998.17,-193.06 1006.69,-199.36 1008.76,-192.68"/>
</g>
<!-- Node24&#45;&gt;Node15 -->
<g id="edge44" class="edge">
<title>Node24&#45;&gt;Node15</title>
<path fill="none" stroke="midnightblue" d="M1167.14,-240.68C1154.55,-231.66 1136.08,-216.54 1125.5,-199 1114.84,-181.33 1109.8,-158 1107.45,-141.87"/>
<polygon fill="midnightblue" stroke="midnightblue" points="1110.88,-141.08 1106.18,-131.59 1103.93,-141.94 1110.88,-141.08"/>
</g>
<!-- Node24&#45;&gt;Node21 -->
<g id="edge43" class="edge">
<title>Node24&#45;&gt;Node21</title>
<path fill="none" stroke="midnightblue" d="M1130.69,-240.96C1073.42,-231.09 976.6,-214.24 893.5,-199 886.41,-197.7 878.96,-196.31 871.61,-194.92"/>
<polygon fill="midnightblue" stroke="midnightblue" points="872.16,-191.46 861.69,-193.04 870.86,-198.34 872.16,-191.46"/>
</g>
<!-- Node25 -->
<g id="node25" class="node">
<title>Node25</title>
<g id="a_node25"><a xlink:title=" ">
<polygon fill="none" stroke="#bfbfbf" points="1134,-174 1134,-193 1187,-193 1187,-174 1134,-174"/>
<text text-anchor="middle" x="1160.5" y="-181" font-family="Helvetica,sans-Serif" font-size="10.00">stdlib.h</text>
</a>
</g>
</g>
<!-- Node24&#45;&gt;Node25 -->
<g id="edge39" class="edge">
<title>Node24&#45;&gt;Node25</title>
<path fill="none" stroke="midnightblue" d="M1177.8,-240.73C1174.83,-231.09 1169.98,-215.3 1166.16,-202.91"/>
<polygon fill="midnightblue" stroke="midnightblue" points="1169.44,-201.66 1163.15,-193.13 1162.75,-203.71 1169.44,-201.66"/>
</g>
<!-- Node26&#45;&gt;Node15 -->
<g id="edge47" class="edge">
<title>Node26&#45;&gt;Node15</title>
<path fill="none" stroke="midnightblue" d="M1293.51,-168.47C1249.78,-157.9 1190.65,-143.59 1150.46,-133.87"/>
<polygon fill="midnightblue" stroke="midnightblue" points="1151.21,-130.46 1140.67,-131.51 1149.57,-137.26 1151.21,-130.46"/>
</g>
</g>
</svg>
