<?xml version="1.0" encoding="UTF-8" standalone="no"?>
<!DOCTYPE svg PUBLIC "-//W3C//DTD SVG 1.1//EN"
 "http://www.w3.org/Graphics/SVG/1.1/DTD/svg11.dtd">
<!-- Generated by graphviz version 2.43.0 (0)
 -->
<!-- Title: main Pages: 1 -->
<svg width="1144pt" height="528pt"
 viewBox="0.00 0.00 1144.00 527.93" xmlns="http://www.w3.org/2000/svg" xmlns:xlink="http://www.w3.org/1999/xlink">
<g id="graph0" class="graph" transform="scale(1 1) rotate(0) translate(4 523.93)">
<title>main</title>
<!-- Node1 -->
<g id="node1" class="node">
<title>Node1</title>
<g id="a_node1"><a xlink:title=" ">
<polygon fill="#bfbfbf" stroke="black" points="0,-262 0,-281 41,-281 41,-262 0,-262"/>
<text text-anchor="middle" x="20.5" y="-269" font-family="Helvetica,sans-Serif" font-size="10.00">main</text>
</a>
</g>
</g>
<!-- Node2 -->
<g id="node2" class="node">
<title>Node2</title>
<g id="a_node2"><a xlink:href="namespacenmbuflowtorch.html#ae40c22a79b5ebb3d74043066bc87d0b7" target="_top" xlink:title=" ">
<polygon fill="none" stroke="black" points="77,-305.5 77,-335.5 233,-335.5 233,-305.5 77,-305.5"/>
<text text-anchor="start" x="85" y="-323.5" font-family="Helvetica,sans-Serif" font-size="10.00">nmbuflowtorch::autoencoder</text>
<text text-anchor="middle" x="155" y="-312.5" font-family="Helvetica,sans-Serif" font-size="10.00">_train</text>
</a>
</g>
</g>
<!-- Node1&#45;&gt;Node2 -->
<g id="edge1" class="edge">
<title>Node1&#45;&gt;Node2</title>
<path fill="none" stroke="midnightblue" d="M41.05,-278.73C57.54,-284.83 81.89,-293.83 103.76,-301.92"/>
<polygon fill="midnightblue" stroke="midnightblue" points="102.68,-305.25 113.27,-305.44 105.11,-298.69 102.68,-305.25"/>
</g>
<!-- Node22 -->
<g id="node22" class="node">
<title>Node22</title>
<g id="a_node22"><a xlink:href="namespacenmbuflowtorch.html#a35b8b66024a1d5bea456dff39e80e557" target="_top" xlink:title=" ">
<polygon fill="none" stroke="black" points="100,-232.5 100,-262.5 210,-262.5 210,-232.5 100,-232.5"/>
<text text-anchor="start" x="108" y="-250.5" font-family="Helvetica,sans-Serif" font-size="10.00">nmbuflowtorch::xor</text>
<text text-anchor="middle" x="155" y="-239.5" font-family="Helvetica,sans-Serif" font-size="10.00">_train</text>
</a>
</g>
</g>
<!-- Node1&#45;&gt;Node22 -->
<g id="edge25" class="edge">
<title>Node1&#45;&gt;Node22</title>
<path fill="none" stroke="midnightblue" d="M41.05,-267.96C54.17,-265.58 72.26,-262.31 90.12,-259.07"/>
<polygon fill="midnightblue" stroke="midnightblue" points="90.77,-262.51 99.99,-257.28 89.52,-255.62 90.77,-262.51"/>
</g>
<!-- Node3 -->
<g id="node3" class="node">
<title>Node3</title>
<g id="a_node3"><a xlink:href="math__m_8hpp.html#a865612d5242acd6df03de7439506403d" target="_top" xlink:title="Calculates the accuracy score for a given set of true and predicted labels.">
<polygon fill="none" stroke="black" points="280.5,-429 280.5,-448 409.5,-448 409.5,-429 280.5,-429"/>
<text text-anchor="middle" x="345" y="-436" font-family="Helvetica,sans-Serif" font-size="10.00">accuracy_score_matrix</text>
</a>
</g>
</g>
<!-- Node2&#45;&gt;Node3 -->
<g id="edge2" class="edge">
<title>Node2&#45;&gt;Node3</title>
<path fill="none" stroke="midnightblue" d="M169.37,-335.85C189.05,-357.49 227.93,-396.73 269,-418.5 274.19,-421.25 279.78,-423.64 285.49,-425.72"/>
<polygon fill="midnightblue" stroke="midnightblue" points="284.57,-429.1 295.16,-428.93 286.77,-422.46 284.57,-429.1"/>
</g>
<!-- Node5 -->
<g id="node5" class="node">
<title>Node5</title>
<g id="a_node5"><a xlink:href="classnmbuflowtorch_1_1Network.html#aa1d574b1f7daac023f4917887dd05ead" target="_top" xlink:title="Adds a layer to the network.">
<polygon fill="none" stroke="black" points="276.5,-379.5 276.5,-409.5 413.5,-409.5 413.5,-379.5 276.5,-379.5"/>
<text text-anchor="start" x="284.5" y="-397.5" font-family="Helvetica,sans-Serif" font-size="10.00">nmbuflowtorch::Network</text>
<text text-anchor="middle" x="345" y="-386.5" font-family="Helvetica,sans-Serif" font-size="10.00">::add_layer</text>
</a>
</g>
</g>
<!-- Node2&#45;&gt;Node5 -->
<g id="edge4" class="edge">
<title>Node2&#45;&gt;Node5</title>
<path fill="none" stroke="midnightblue" d="M188.81,-335.63C211.2,-345.73 241.64,-359.03 269,-369.5 274.8,-371.72 280.9,-373.94 287.01,-376.08"/>
<polygon fill="midnightblue" stroke="midnightblue" points="285.97,-379.43 296.57,-379.39 288.26,-372.81 285.97,-379.43"/>
</g>
<!-- Node6 -->
<g id="node6" class="node">
<title>Node6</title>
<g id="a_node6"><a xlink:href="classnmbuflowtorch_1_1Network.html#a7a86be4bc0c3901a48cfb70b286ec363" target="_top" xlink:title="Adds a loss function to the network.">
<polygon fill="none" stroke="black" points="276.5,-330.5 276.5,-360.5 413.5,-360.5 413.5,-330.5 276.5,-330.5"/>
<text text-anchor="start" x="284.5" y="-348.5" font-family="Helvetica,sans-Serif" font-size="10.00">nmbuflowtorch::Network</text>
<text text-anchor="middle" x="345" y="-337.5" font-family="Helvetica,sans-Serif" font-size="10.00">::add_loss</text>
</a>
</g>
</g>
<!-- Node2&#45;&gt;Node6 -->
<g id="edge5" class="edge">
<title>Node2&#45;&gt;Node6</title>
<path fill="none" stroke="midnightblue" d="M233.01,-330.74C244.03,-332.21 255.38,-333.72 266.42,-335.18"/>
<polygon fill="midnightblue" stroke="midnightblue" points="266.07,-338.67 276.45,-336.52 266.99,-331.73 266.07,-338.67"/>
</g>
<!-- Node7 -->
<g id="node7" class="node">
<title>Node7</title>
<g id="a_node7"><a xlink:href="classnmbuflowtorch_1_1Network.html#a1120a4649f5317ab85b7fd0124f91f75" target="_top" xlink:title="Adds an optimizer to the network.">
<polygon fill="none" stroke="black" points="276.5,-281.5 276.5,-311.5 413.5,-311.5 413.5,-281.5 276.5,-281.5"/>
<text text-anchor="start" x="284.5" y="-299.5" font-family="Helvetica,sans-Serif" font-size="10.00">nmbuflowtorch::Network</text>
<text text-anchor="middle" x="345" y="-288.5" font-family="Helvetica,sans-Serif" font-size="10.00">::add_optimizer</text>
</a>
</g>
</g>
<!-- Node2&#45;&gt;Node7 -->
<g id="edge6" class="edge">
<title>Node2&#45;&gt;Node7</title>
<path fill="none" stroke="midnightblue" d="M233.01,-310.67C244.03,-309.26 255.38,-307.81 266.42,-306.4"/>
<polygon fill="midnightblue" stroke="midnightblue" points="266.97,-309.86 276.45,-305.12 266.08,-302.92 266.97,-309.86"/>
</g>
<!-- Node8 -->
<g id="node8" class="node">
<title>Node8</title>
<g id="a_node8"><a xlink:href="classnmbuflowtorch_1_1Network.html#ae404b65188cb291b22ec494bb270bec2" target="_top" xlink:title=" ">
<polygon fill="none" stroke="black" points="276.5,-183.5 276.5,-213.5 413.5,-213.5 413.5,-183.5 276.5,-183.5"/>
<text text-anchor="start" x="284.5" y="-201.5" font-family="Helvetica,sans-Serif" font-size="10.00">nmbuflowtorch::Network</text>
<text text-anchor="middle" x="345" y="-190.5" font-family="Helvetica,sans-Serif" font-size="10.00">::delete_net</text>
</a>
</g>
</g>
<!-- Node2&#45;&gt;Node8 -->
<g id="edge7" class="edge">
<title>Node2&#45;&gt;Node8</title>
<path fill="none" stroke="midnightblue" d="M185.23,-305.34C200.43,-296.64 218.77,-284.81 233,-271.5 252.74,-253.04 247.06,-238.28 269,-222.5 271.09,-221 273.27,-219.59 275.53,-218.26"/>
<polygon fill="midnightblue" stroke="midnightblue" points="277.3,-221.29 284.55,-213.57 274.06,-215.08 277.3,-221.29"/>
</g>
<!-- Node9 -->
<g id="node9" class="node">
<title>Node9</title>
<g id="a_node9"><a xlink:href="classnmbuflowtorch_1_1Network.html#a8cff72188a6f4b0d13c8b7474eec1ca3" target="_top" xlink:title="Fit model to data provided.">
<polygon fill="none" stroke="black" points="269,-96 269,-115 421,-115 421,-96 269,-96"/>
<text text-anchor="middle" x="345" y="-103" font-family="Helvetica,sans-Serif" font-size="10.00">nmbuflowtorch::Network::fit</text>
</a>
</g>
</g>
<!-- Node2&#45;&gt;Node9 -->
<g id="edge8" class="edge">
<title>Node2&#45;&gt;Node9</title>
<path fill="none" stroke="midnightblue" d="M191.47,-305.33C206.34,-297.3 222.57,-286.05 233,-271.5 272.2,-216.84 221.63,-172.25 269,-124.5 270.42,-123.07 271.93,-121.74 273.52,-120.51"/>
<polygon fill="midnightblue" stroke="midnightblue" points="275.45,-123.43 282,-115.11 271.69,-117.52 275.45,-123.43"/>
</g>
<!-- Node17 -->
<g id="node17" class="node">
<title>Node17</title>
<g id="a_node17"><a xlink:href="classnmbuflowtorch_1_1Network.html#a47b0ad164e645c60f736f60f87827900" target="_top" xlink:title="Returns the value from the last layer.">
<polygon fill="none" stroke="black" points="999,-154.5 999,-184.5 1136,-184.5 1136,-154.5 999,-154.5"/>
<text text-anchor="start" x="1007" y="-172.5" font-family="Helvetica,sans-Serif" font-size="10.00">nmbuflowtorch::Network</text>
<text text-anchor="middle" x="1067.5" y="-161.5" font-family="Helvetica,sans-Serif" font-size="10.00">::output</text>
</a>
</g>
</g>
<!-- Node2&#45;&gt;Node17 -->
<g id="edge23" class="edge">
<title>Node2&#45;&gt;Node17</title>
<path fill="none" stroke="midnightblue" d="M161.94,-335.94C175.41,-368.65 211.64,-444.77 269,-479.5 367.04,-538.87 409.88,-514.5 524.5,-514.5 524.5,-514.5 524.5,-514.5 711,-514.5 895.34,-514.5 1020.2,-272.67 1055.96,-193.94"/>
<polygon fill="midnightblue" stroke="midnightblue" points="1059.18,-195.33 1060.06,-184.77 1052.79,-192.47 1059.18,-195.33"/>
</g>
<!-- Node18 -->
<g id="node18" class="node">
<title>Node18</title>
<g id="a_node18"><a xlink:href="classnmbuflowtorch_1_1Network.html#ae6cd135a052cc1526b34bb4144ae58b6" target="_top" xlink:title=" ">
<polygon fill="none" stroke="black" points="826,-210.5 826,-240.5 963,-240.5 963,-210.5 826,-210.5"/>
<text text-anchor="start" x="834" y="-228.5" font-family="Helvetica,sans-Serif" font-size="10.00">nmbuflowtorch::Network</text>
<text text-anchor="middle" x="894.5" y="-217.5" font-family="Helvetica,sans-Serif" font-size="10.00">::forward</text>
</a>
</g>
</g>
<!-- Node2&#45;&gt;Node18 -->
<g id="edge22" class="edge">
<title>Node2&#45;&gt;Node18</title>
<path fill="none" stroke="midnightblue" d="M162.93,-335.76C177.52,-365.79 214.62,-431.86 269,-457.5 330.11,-486.31 355.2,-472.78 421,-457.5 600.69,-415.76 790.79,-295.59 863.16,-246.64"/>
<polygon fill="midnightblue" stroke="midnightblue" points="865.49,-249.28 871.79,-240.76 861.55,-243.5 865.49,-249.28"/>
</g>
<!-- Node21 -->
<g id="node21" class="node">
<title>Node21</title>
<g id="a_node21"><a xlink:href="classnmbuflowtorch_1_1layer_1_1Dense.html#a1b343ab594510f4ab93c9c292b5a5123" target="_top" xlink:title="Get the output dimension of the dense layer.">
<polygon fill="none" stroke="black" points="285,-232.5 285,-262.5 405,-262.5 405,-232.5 285,-232.5"/>
<text text-anchor="start" x="293" y="-250.5" font-family="Helvetica,sans-Serif" font-size="10.00">nmbuflowtorch::layer</text>
<text text-anchor="middle" x="345" y="-239.5" font-family="Helvetica,sans-Serif" font-size="10.00">::Dense::output_dim</text>
</a>
</g>
</g>
<!-- Node2&#45;&gt;Node21 -->
<g id="edge24" class="edge">
<title>Node2&#45;&gt;Node21</title>
<path fill="none" stroke="midnightblue" d="M188.29,-305.48C210.7,-295.31 241.38,-281.88 269,-271.5 274.12,-269.58 279.47,-267.67 284.85,-265.82"/>
<polygon fill="midnightblue" stroke="midnightblue" points="286.18,-269.06 294.54,-262.56 283.95,-262.43 286.18,-269.06"/>
</g>
<!-- Node4 -->
<g id="node4" class="node">
<title>Node4</title>
<g id="a_node4"><a xlink:href="math__m_8hpp.html#aebe2ab42fdbc00b9e3afb06ba7d536c3" target="_top" xlink:title="Applies a binary cutoff to a given float value.">
<polygon fill="none" stroke="black" points="485.5,-323 485.5,-342 565.5,-342 565.5,-323 485.5,-323"/>
<text text-anchor="middle" x="525.5" y="-330" font-family="Helvetica,sans-Serif" font-size="10.00">binary_cutoff</text>
</a>
</g>
</g>
<!-- Node3&#45;&gt;Node4 -->
<g id="edge3" class="edge">
<title>Node3&#45;&gt;Node4</title>
<path fill="none" stroke="midnightblue" d="M394.37,-428.91C403.48,-426.19 412.74,-422.77 421,-418.5 456.02,-400.4 489.85,-368.79 508.83,-349.35"/>
<polygon fill="midnightblue" stroke="midnightblue" points="511.41,-351.72 515.8,-342.08 506.36,-346.88 511.41,-351.72"/>
</g>
<!-- Node10 -->
<g id="node10" class="node">
<title>Node10</title>
<g id="a_node10"><a xlink:href="math__m_8hpp.html#a00222de08fb54dc0423e29cc610d1f0c" target="_top" xlink:title="Shuffles a dataset by creating a permutation matrix from a given vector of indices and applying it to...">
<polygon fill="none" stroke="black" points="487,-140 487,-159 564,-159 564,-140 487,-140"/>
<text text-anchor="middle" x="525.5" y="-147" font-family="Helvetica,sans-Serif" font-size="10.00">shuffle_data</text>
</a>
</g>
</g>
<!-- Node9&#45;&gt;Node10 -->
<g id="edge9" class="edge">
<title>Node9&#45;&gt;Node10</title>
<path fill="none" stroke="midnightblue" d="M384.73,-115.05C411.79,-121.72 448.08,-130.66 476.91,-137.77"/>
<polygon fill="midnightblue" stroke="midnightblue" points="476.22,-141.2 486.76,-140.2 477.89,-134.41 476.22,-141.2"/>
</g>
<!-- Node11 -->
<g id="node11" class="node">
<title>Node11</title>
<g id="a_node11"><a xlink:href="classnmbuflowtorch_1_1Network.html#ab4decd5644c172b3ade967496bf64f7b" target="_top" xlink:title="Trains all batches in X and y for one epoch.">
<polygon fill="none" stroke="black" points="457,-90.5 457,-120.5 594,-120.5 594,-90.5 457,-90.5"/>
<text text-anchor="start" x="465" y="-108.5" font-family="Helvetica,sans-Serif" font-size="10.00">nmbuflowtorch::Network</text>
<text text-anchor="middle" x="525.5" y="-97.5" font-family="Helvetica,sans-Serif" font-size="10.00">::train_one_epoch</text>
</a>
</g>
</g>
<!-- Node9&#45;&gt;Node11 -->
<g id="edge10" class="edge">
<title>Node9&#45;&gt;Node11</title>
<path fill="none" stroke="midnightblue" d="M421.18,-105.5C429.58,-105.5 438.15,-105.5 446.58,-105.5"/>
<polygon fill="midnightblue" stroke="midnightblue" points="446.78,-109 456.78,-105.5 446.78,-102 446.78,-109"/>
</g>
<!-- Node12 -->
<g id="node12" class="node">
<title>Node12</title>
<g id="a_node12"><a xlink:href="namespacenmbuflowtorch.html#a6841de6f2ac014f91c37f7f2c0e9cc1e" target="_top" xlink:title="Prints a progress bar to the console.">
<polygon fill="none" stroke="black" points="630,-140 630,-159 790,-159 790,-140 630,-140"/>
<text text-anchor="middle" x="710" y="-147" font-family="Helvetica,sans-Serif" font-size="10.00">nmbuflowtorch::printProgress</text>
</a>
</g>
</g>
<!-- Node11&#45;&gt;Node12 -->
<g id="edge11" class="edge">
<title>Node11&#45;&gt;Node12</title>
<path fill="none" stroke="midnightblue" d="M588.8,-120.52C611.99,-126.11 637.96,-132.37 659.82,-137.64"/>
<polygon fill="midnightblue" stroke="midnightblue" points="659,-141.05 669.55,-139.99 660.64,-134.24 659,-141.05"/>
</g>
<!-- Node13 -->
<g id="node13" class="node">
<title>Node13</title>
<g id="a_node13"><a xlink:href="classnmbuflowtorch_1_1Network.html#ac5f07dc09b1d352567d6cbcc3c38c010" target="_top" xlink:title="Forward, backward, and update functions combined for one batch of data.">
<polygon fill="none" stroke="black" points="641.5,-90.5 641.5,-120.5 778.5,-120.5 778.5,-90.5 641.5,-90.5"/>
<text text-anchor="start" x="649.5" y="-108.5" font-family="Helvetica,sans-Serif" font-size="10.00">nmbuflowtorch::Network</text>
<text text-anchor="middle" x="710" y="-97.5" font-family="Helvetica,sans-Serif" font-size="10.00">::train_batch</text>
</a>
</g>
</g>
<!-- Node11&#45;&gt;Node13 -->
<g id="edge12" class="edge">
<title>Node11&#45;&gt;Node13</title>
<path fill="none" stroke="midnightblue" d="M594.2,-105.5C606.24,-105.5 618.88,-105.5 631.18,-105.5"/>
<polygon fill="midnightblue" stroke="midnightblue" points="631.41,-109 641.41,-105.5 631.41,-102 631.41,-109"/>
</g>
<!-- Node14 -->
<g id="node14" class="node">
<title>Node14</title>
<g id="a_node14"><a xlink:href="classnmbuflowtorch_1_1Network.html#ad2626aa7216689fadfa4469273de8c90" target="_top" xlink:title="Using X input and y target, back propagates the loss gradient.">
<polygon fill="none" stroke="black" points="826,-24.5 826,-54.5 963,-54.5 963,-24.5 826,-24.5"/>
<text text-anchor="start" x="834" y="-42.5" font-family="Helvetica,sans-Serif" font-size="10.00">nmbuflowtorch::Network</text>
<text text-anchor="middle" x="894.5" y="-31.5" font-family="Helvetica,sans-Serif" font-size="10.00">::backward</text>
</a>
</g>
</g>
<!-- Node13&#45;&gt;Node14 -->
<g id="edge13" class="edge">
<title>Node13&#45;&gt;Node14</title>
<path fill="none" stroke="midnightblue" d="M752.87,-90.36C779.42,-80.76 813.94,-68.27 842.14,-58.07"/>
<polygon fill="midnightblue" stroke="midnightblue" points="843.61,-61.26 851.83,-54.57 841.23,-54.68 843.61,-61.26"/>
</g>
<!-- Node13&#45;&gt;Node17 -->
<g id="edge20" class="edge">
<title>Node13&#45;&gt;Node17</title>
<path fill="none" stroke="midnightblue" d="M778.53,-94.06C830.14,-87.84 902.47,-84.62 963,-102.5 992.82,-111.31 1022.12,-131.69 1041.89,-147.68"/>
<polygon fill="midnightblue" stroke="midnightblue" points="1039.83,-150.51 1049.75,-154.21 1044.3,-145.13 1039.83,-150.51"/>
</g>
<!-- Node13&#45;&gt;Node18 -->
<g id="edge17" class="edge">
<title>Node13&#45;&gt;Node18</title>
<path fill="none" stroke="midnightblue" d="M774.64,-120.53C780.15,-123.31 785.38,-126.6 790,-130.5 816.73,-153.07 799.82,-177.29 826,-200.5 827.75,-202.05 829.6,-203.51 831.53,-204.87"/>
<polygon fill="midnightblue" stroke="midnightblue" points="830.08,-208.09 840.44,-210.33 833.74,-202.12 830.08,-208.09"/>
</g>
<!-- Node19 -->
<g id="node19" class="node">
<title>Node19</title>
<g id="a_node19"><a xlink:href="classnmbuflowtorch_1_1Loss.html#a5747f962c29f0e1a6147c435da22c466" target="_top" xlink:title="Returns the value of the loss.">
<polygon fill="none" stroke="black" points="836,-161.5 836,-191.5 953,-191.5 953,-161.5 836,-161.5"/>
<text text-anchor="start" x="844" y="-179.5" font-family="Helvetica,sans-Serif" font-size="10.00">nmbuflowtorch::Loss</text>
<text text-anchor="middle" x="894.5" y="-168.5" font-family="Helvetica,sans-Serif" font-size="10.00">::output</text>
</a>
</g>
</g>
<!-- Node13&#45;&gt;Node19 -->
<g id="edge19" class="edge">
<title>Node13&#45;&gt;Node19</title>
<path fill="none" stroke="midnightblue" d="M764.3,-120.58C773.01,-123.56 781.85,-126.89 790,-130.5 806.93,-138.01 809.25,-143.59 826,-151.5 830.54,-153.65 835.33,-155.74 840.16,-157.73"/>
<polygon fill="midnightblue" stroke="midnightblue" points="838.88,-160.99 849.47,-161.45 841.48,-154.49 838.88,-160.99"/>
</g>
<!-- Node20 -->
<g id="node20" class="node">
<title>Node20</title>
<g id="a_node20"><a xlink:href="classnmbuflowtorch_1_1Network.html#ab4dcbf1de529e005b2eb4c31b8cbd552" target="_top" xlink:title=" ">
<polygon fill="none" stroke="black" points="826,-112.5 826,-142.5 963,-142.5 963,-112.5 826,-112.5"/>
<text text-anchor="start" x="834" y="-130.5" font-family="Helvetica,sans-Serif" font-size="10.00">nmbuflowtorch::Network</text>
<text text-anchor="middle" x="894.5" y="-119.5" font-family="Helvetica,sans-Serif" font-size="10.00">::update</text>
</a>
</g>
</g>
<!-- Node13&#45;&gt;Node20 -->
<g id="edge21" class="edge">
<title>Node13&#45;&gt;Node20</title>
<path fill="none" stroke="midnightblue" d="M778.7,-113.66C790.74,-115.11 803.38,-116.64 815.68,-118.12"/>
<polygon fill="midnightblue" stroke="midnightblue" points="815.57,-121.63 825.91,-119.35 816.4,-114.68 815.57,-121.63"/>
</g>
<!-- Node15 -->
<g id="node15" class="node">
<title>Node15</title>
<g id="a_node15"><a xlink:href="classnmbuflowtorch_1_1Loss.html#a29688f70477ce9f630cb313cc7e4c365" target="_top" xlink:title="Returns the gradient with respect to the input of the loss function.">
<polygon fill="none" stroke="black" points="1009,-49.5 1009,-79.5 1126,-79.5 1126,-49.5 1009,-49.5"/>
<text text-anchor="start" x="1017" y="-67.5" font-family="Helvetica,sans-Serif" font-size="10.00">nmbuflowtorch::Loss</text>
<text text-anchor="middle" x="1067.5" y="-56.5" font-family="Helvetica,sans-Serif" font-size="10.00">::back_gradient</text>
</a>
</g>
</g>
<!-- Node14&#45;&gt;Node15 -->
<g id="edge14" class="edge">
<title>Node14&#45;&gt;Node15</title>
<path fill="none" stroke="midnightblue" d="M963.08,-49.38C974.78,-51.09 986.95,-52.87 998.65,-54.58"/>
<polygon fill="midnightblue" stroke="midnightblue" points="998.39,-58.08 1008.79,-56.06 999.4,-51.15 998.39,-58.08"/>
</g>
<!-- Node16 -->
<g id="node16" class="node">
<title>Node16</title>
<g id="a_node16"><a xlink:href="classnmbuflowtorch_1_1Loss.html#ab739a047ffc84f44af71832ec704cedc" target="_top" xlink:title="Evaluates the loss function given the predicted and target values.">
<polygon fill="none" stroke="black" points="1009,-0.5 1009,-30.5 1126,-30.5 1126,-0.5 1009,-0.5"/>
<text text-anchor="start" x="1017" y="-18.5" font-family="Helvetica,sans-Serif" font-size="10.00">nmbuflowtorch::Loss</text>
<text text-anchor="middle" x="1067.5" y="-7.5" font-family="Helvetica,sans-Serif" font-size="10.00">::eval</text>
</a>
</g>
</g>
<!-- Node14&#45;&gt;Node16 -->
<g id="edge15" class="edge">
<title>Node14&#45;&gt;Node16</title>
<path fill="none" stroke="midnightblue" d="M963.08,-30.01C974.78,-28.37 986.95,-26.67 998.65,-25.02"/>
<polygon fill="midnightblue" stroke="midnightblue" points="999.38,-28.46 1008.79,-23.6 998.4,-21.52 999.38,-28.46"/>
</g>
<!-- Node14&#45;&gt;Node17 -->
<g id="edge16" class="edge">
<title>Node14&#45;&gt;Node17</title>
<path fill="none" stroke="midnightblue" d="M935.64,-54.57C944.96,-58.81 954.6,-63.84 963,-69.5 995.84,-91.64 1027.7,-124.71 1047.2,-146.68"/>
<polygon fill="midnightblue" stroke="midnightblue" points="1044.58,-149.01 1053.8,-154.23 1049.85,-144.4 1044.58,-149.01"/>
</g>
<!-- Node18&#45;&gt;Node17 -->
<g id="edge18" class="edge">
<title>Node18&#45;&gt;Node17</title>
<path fill="none" stroke="midnightblue" d="M941.32,-210.49C962.7,-203.49 988.32,-195.1 1010.8,-187.74"/>
<polygon fill="midnightblue" stroke="midnightblue" points="1012.13,-190.99 1020.55,-184.55 1009.96,-184.33 1012.13,-190.99"/>
</g>
<!-- Node22&#45;&gt;Node5 -->
<g id="edge27" class="edge">
<title>Node22&#45;&gt;Node5</title>
<path fill="none" stroke="midnightblue" d="M188.93,-262.68C203.82,-270.79 220.77,-281.92 233,-295.5 257.47,-322.68 241.5,-345.39 269,-369.5 270.94,-371.2 273,-372.79 275.16,-374.27"/>
<polygon fill="midnightblue" stroke="midnightblue" points="273.47,-377.34 283.85,-379.46 277.06,-371.33 273.47,-377.34"/>
</g>
<!-- Node22&#45;&gt;Node6 -->
<g id="edge28" class="edge">
<title>Node22&#45;&gt;Node6</title>
<path fill="none" stroke="midnightblue" d="M180.82,-262.54C196,-271.85 215.76,-284.15 233,-295.5 249.27,-306.21 251.58,-311.78 269,-320.5 273.49,-322.75 278.22,-324.86 283.04,-326.84"/>
<polygon fill="midnightblue" stroke="midnightblue" points="281.79,-330.11 292.38,-330.46 284.32,-323.58 281.79,-330.11"/>
</g>
<!-- Node22&#45;&gt;Node7 -->
<g id="edge29" class="edge">
<title>Node22&#45;&gt;Node7</title>
<path fill="none" stroke="midnightblue" d="M210.13,-261.61C230.82,-267 254.68,-273.22 276.47,-278.9"/>
<polygon fill="midnightblue" stroke="midnightblue" points="275.76,-282.33 286.32,-281.47 277.53,-275.56 275.76,-282.33"/>
</g>
<!-- Node22&#45;&gt;Node8 -->
<g id="edge30" class="edge">
<title>Node22&#45;&gt;Node8</title>
<path fill="none" stroke="midnightblue" d="M210.13,-233.39C230.82,-228 254.68,-221.78 276.47,-216.1"/>
<polygon fill="midnightblue" stroke="midnightblue" points="277.53,-219.44 286.32,-213.53 275.76,-212.67 277.53,-219.44"/>
</g>
<!-- Node22&#45;&gt;Node9 -->
<g id="edge31" class="edge">
<title>Node22&#45;&gt;Node9</title>
<path fill="none" stroke="midnightblue" d="M165.5,-232.4C182.77,-206.24 221.93,-152.58 269,-124.5 272.63,-122.33 276.51,-120.41 280.51,-118.71"/>
<polygon fill="midnightblue" stroke="midnightblue" points="281.91,-121.92 290.02,-115.11 279.43,-115.37 281.91,-121.92"/>
</g>
<!-- Node22&#45;&gt;Node21 -->
<g id="edge32" class="edge">
<title>Node22&#45;&gt;Node21</title>
<path fill="none" stroke="midnightblue" d="M210.13,-247.5C230.35,-247.5 253.6,-247.5 274.99,-247.5"/>
<polygon fill="midnightblue" stroke="midnightblue" points="275,-251 285,-247.5 275,-244 275,-251"/>
</g>
<!-- Node23 -->
<g id="node23" class="node">
<title>Node23</title>
<g id="a_node23"><a xlink:href="math__m_8hpp.html#a3fb70a01c7681d0fc3ce6facf9b7fdb7" target="_top" xlink:title="Calculates the accuracy score for a given set of true and predicted labels.">
<polygon fill="none" stroke="black" points="288,-58 288,-77 402,-77 402,-58 288,-58"/>
<text text-anchor="middle" x="345" y="-65" font-family="Helvetica,sans-Serif" font-size="10.00">accuracy_score_vec</text>
</a>
</g>
</g>
<!-- Node22&#45;&gt;Node23 -->
<g id="edge26" class="edge">
<title>Node22&#45;&gt;Node23</title>
<path fill="none" stroke="midnightblue" d="M162.2,-232.36C176.18,-200.2 213.33,-124.87 269,-86.5 272.06,-84.39 275.32,-82.52 278.73,-80.86"/>
<polygon fill="midnightblue" stroke="midnightblue" points="280.15,-84.05 287.98,-76.92 277.41,-77.61 280.15,-84.05"/>
</g>
<!-- Node24 -->
<g id="node24" class="node">
<title>Node24</title>
<g id="a_node24"><a xlink:href="classnmbuflowtorch_1_1Network.html#afbe484725b9489c054d744f64f57a6b8" target="_top" xlink:title="Fit model to data provided.">
<polygon fill="none" stroke="black" points="276.5,-134.5 276.5,-164.5 413.5,-164.5 413.5,-134.5 276.5,-134.5"/>
<text text-anchor="start" x="284.5" y="-152.5" font-family="Helvetica,sans-Serif" font-size="10.00">nmbuflowtorch::Network</text>
<text text-anchor="middle" x="345" y="-141.5" font-family="Helvetica,sans-Serif" font-size="10.00">::predict</text>
</a>
</g>
</g>
<!-- Node22&#45;&gt;Node24 -->
<g id="edge33" class="edge">
<title>Node22&#45;&gt;Node24</title>
<path fill="none" stroke="midnightblue" d="M175.44,-232.41C197.23,-216.08 234.07,-190.15 269,-173.5 273,-171.6 277.18,-169.79 281.44,-168.09"/>
<polygon fill="midnightblue" stroke="midnightblue" points="282.74,-171.34 290.85,-164.53 280.26,-164.79 282.74,-171.34"/>
</g>
<!-- Node24&#45;&gt;Node4 -->
<g id="edge34" class="edge">
<title>Node24&#45;&gt;Node4</title>
<path fill="none" stroke="midnightblue" d="M406.42,-164.66C411.59,-167.17 416.54,-170.1 421,-173.5 434.04,-183.45 489.41,-274.12 513.37,-313.92"/>
<polygon fill="midnightblue" stroke="midnightblue" points="510.6,-316.09 518.74,-322.86 516.6,-312.48 510.6,-316.09"/>
</g>
<!-- Node24&#45;&gt;Node18 -->
<g id="edge35" class="edge">
<title>Node24&#45;&gt;Node18</title>
<path fill="none" stroke="midnightblue" d="M413.73,-161.53C428,-163.95 442.98,-166.39 457,-168.5 582.21,-187.38 728.19,-205.7 815.61,-216.27"/>
<polygon fill="midnightblue" stroke="midnightblue" points="815.36,-219.77 825.71,-217.49 816.2,-212.82 815.36,-219.77"/>
</g>
</g>
</svg>
