<?xml version="1.0" encoding="UTF-8" standalone="no"?>
<!DOCTYPE svg PUBLIC "-//W3C//DTD SVG 1.1//EN"
 "http://www.w3.org/Graphics/SVG/1.1/DTD/svg11.dtd">
<!-- Generated by graphviz version 2.43.0 (0)
 -->
<!-- Title: main Pages: 1 -->
<svg width="952pt" height="305pt"
 viewBox="0.00 0.00 952.00 304.50" xmlns="http://www.w3.org/2000/svg" xmlns:xlink="http://www.w3.org/1999/xlink">
<g id="graph0" class="graph" transform="scale(1 1) rotate(0) translate(4 300.5)">
<title>main</title>
<!-- Node1 -->
<g id="node1" class="node">
<title>Node1</title>
<g id="a_node1"><a xlink:title=" ">
<polygon fill="#bfbfbf" stroke="black" points="0,-153.5 0,-172.5 41,-172.5 41,-153.5 0,-153.5"/>
<text text-anchor="middle" x="20.5" y="-160.5" font-family="Helvetica,sans-Serif" font-size="10.00">main</text>
</a>
</g>
</g>
<!-- Node2 -->
<g id="node2" class="node">
<title>Node2</title>
<g id="a_node2"><a xlink:href="classnmbuflowtorch_1_1Network.html#aa1d574b1f7daac023f4917887dd05ead" target="_top" xlink:title="Adds a layer to the network.">
<polygon fill="none" stroke="black" points="84.5,-246 84.5,-276 221.5,-276 221.5,-246 84.5,-246"/>
<text text-anchor="start" x="92.5" y="-264" font-family="Helvetica,sans-Serif" font-size="10.00">nmbuflowtorch::Network</text>
<text text-anchor="middle" x="153" y="-253" font-family="Helvetica,sans-Serif" font-size="10.00">::add_layer</text>
</a>
</g>
</g>
<!-- Node1&#45;&gt;Node2 -->
<g id="edge1" class="edge">
<title>Node1&#45;&gt;Node2</title>
<path fill="none" stroke="midnightblue" d="M26.22,-172.69C34.39,-188.46 52.66,-219.68 77,-237 79.1,-238.49 81.29,-239.89 83.55,-241.21"/>
<polygon fill="midnightblue" stroke="midnightblue" points="82.09,-244.4 92.58,-245.88 85.31,-238.18 82.09,-244.4"/>
</g>
<!-- Node3 -->
<g id="node3" class="node">
<title>Node3</title>
<g id="a_node3"><a xlink:href="classnmbuflowtorch_1_1Network.html#a7a86be4bc0c3901a48cfb70b286ec363" target="_top" xlink:title="Adds a loss function to the network.">
<polygon fill="none" stroke="black" points="84.5,-197 84.5,-227 221.5,-227 221.5,-197 84.5,-197"/>
<text text-anchor="start" x="92.5" y="-215" font-family="Helvetica,sans-Serif" font-size="10.00">nmbuflowtorch::Network</text>
<text text-anchor="middle" x="153" y="-204" font-family="Helvetica,sans-Serif" font-size="10.00">::add_loss</text>
</a>
</g>
</g>
<!-- Node1&#45;&gt;Node3 -->
<g id="edge2" class="edge">
<title>Node1&#45;&gt;Node3</title>
<path fill="none" stroke="midnightblue" d="M41.05,-172.46C51.58,-177.39 64.86,-183.34 77,-188 82.03,-189.93 87.28,-191.83 92.57,-193.67"/>
<polygon fill="midnightblue" stroke="midnightblue" points="91.51,-197.01 102.1,-196.91 93.76,-190.38 91.51,-197.01"/>
</g>
<!-- Node4 -->
<g id="node4" class="node">
<title>Node4</title>
<g id="a_node4"><a xlink:href="classnmbuflowtorch_1_1Network.html#a1120a4649f5317ab85b7fd0124f91f75" target="_top" xlink:title="Adds an optimizer to the network.">
<polygon fill="none" stroke="black" points="84.5,-148 84.5,-178 221.5,-178 221.5,-148 84.5,-148"/>
<text text-anchor="start" x="92.5" y="-166" font-family="Helvetica,sans-Serif" font-size="10.00">nmbuflowtorch::Network</text>
<text text-anchor="middle" x="153" y="-155" font-family="Helvetica,sans-Serif" font-size="10.00">::add_optimizer</text>
</a>
</g>
</g>
<!-- Node1&#45;&gt;Node4 -->
<g id="edge3" class="edge">
<title>Node1&#45;&gt;Node4</title>
<path fill="none" stroke="midnightblue" d="M41.04,-163C50.2,-163 61.79,-163 73.99,-163"/>
<polygon fill="midnightblue" stroke="midnightblue" points="74.35,-166.5 84.35,-163 74.35,-159.5 74.35,-166.5"/>
</g>
<!-- Node5 -->
<g id="node5" class="node">
<title>Node5</title>
<g id="a_node5"><a xlink:href="classnmbuflowtorch_1_1Network.html#a8cff72188a6f4b0d13c8b7474eec1ca3" target="_top" xlink:title="Fit model to data provided.">
<polygon fill="none" stroke="black" points="77,-109.5 77,-128.5 229,-128.5 229,-109.5 77,-109.5"/>
<text text-anchor="middle" x="153" y="-116.5" font-family="Helvetica,sans-Serif" font-size="10.00">nmbuflowtorch::Network::fit</text>
</a>
</g>
</g>
<!-- Node1&#45;&gt;Node5 -->
<g id="edge4" class="edge">
<title>Node1&#45;&gt;Node5</title>
<path fill="none" stroke="midnightblue" d="M41.26,-153.61C51.73,-148.85 64.9,-143.2 77,-139 85.05,-136.2 93.7,-133.57 102.17,-131.18"/>
<polygon fill="midnightblue" stroke="midnightblue" points="103.24,-134.52 111.97,-128.51 101.4,-127.76 103.24,-134.52"/>
</g>
<!-- Node17 -->
<g id="node17" class="node">
<title>Node17</title>
<g id="a_node17"><a xlink:href="classnmbuflowtorch_1_1Network.html#afbe484725b9489c054d744f64f57a6b8" target="_top" xlink:title="Fit model to data provided.">
<polygon fill="none" stroke="black" points="84.5,-33 84.5,-63 221.5,-63 221.5,-33 84.5,-33"/>
<text text-anchor="start" x="92.5" y="-51" font-family="Helvetica,sans-Serif" font-size="10.00">nmbuflowtorch::Network</text>
<text text-anchor="middle" x="153" y="-40" font-family="Helvetica,sans-Serif" font-size="10.00">::predict</text>
</a>
</g>
</g>
<!-- Node1&#45;&gt;Node17 -->
<g id="edge18" class="edge">
<title>Node1&#45;&gt;Node17</title>
<path fill="none" stroke="midnightblue" d="M28.76,-153.39C38.79,-140.44 57.84,-117.06 77,-100 89.72,-88.68 104.97,-77.7 118.4,-68.77"/>
<polygon fill="midnightblue" stroke="midnightblue" points="120.45,-71.61 126.91,-63.21 116.62,-65.75 120.45,-71.61"/>
</g>
<!-- Node6 -->
<g id="node6" class="node">
<title>Node6</title>
<g id="a_node6"><a xlink:href="math__m_8hpp.html#a00222de08fb54dc0423e29cc610d1f0c" target="_top" xlink:title="Shuffles a dataset by creating a permutation matrix from a given vector of indices and applying it to...">
<polygon fill="none" stroke="black" points="295,-153.5 295,-172.5 372,-172.5 372,-153.5 295,-153.5"/>
<text text-anchor="middle" x="333.5" y="-160.5" font-family="Helvetica,sans-Serif" font-size="10.00">shuffle_data</text>
</a>
</g>
</g>
<!-- Node5&#45;&gt;Node6 -->
<g id="edge5" class="edge">
<title>Node5&#45;&gt;Node6</title>
<path fill="none" stroke="midnightblue" d="M192.73,-128.55C219.79,-135.22 256.08,-144.16 284.91,-151.27"/>
<polygon fill="midnightblue" stroke="midnightblue" points="284.22,-154.7 294.76,-153.7 285.89,-147.91 284.22,-154.7"/>
</g>
<!-- Node7 -->
<g id="node7" class="node">
<title>Node7</title>
<g id="a_node7"><a xlink:href="classnmbuflowtorch_1_1Network.html#ab4decd5644c172b3ade967496bf64f7b" target="_top" xlink:title="Trains all batches in X and y for one epoch.">
<polygon fill="none" stroke="black" points="265,-104 265,-134 402,-134 402,-104 265,-104"/>
<text text-anchor="start" x="273" y="-122" font-family="Helvetica,sans-Serif" font-size="10.00">nmbuflowtorch::Network</text>
<text text-anchor="middle" x="333.5" y="-111" font-family="Helvetica,sans-Serif" font-size="10.00">::train_one_epoch</text>
</a>
</g>
</g>
<!-- Node5&#45;&gt;Node7 -->
<g id="edge6" class="edge">
<title>Node5&#45;&gt;Node7</title>
<path fill="none" stroke="midnightblue" d="M229.18,-119C237.58,-119 246.15,-119 254.58,-119"/>
<polygon fill="midnightblue" stroke="midnightblue" points="254.78,-122.5 264.78,-119 254.78,-115.5 254.78,-122.5"/>
</g>
<!-- Node8 -->
<g id="node8" class="node">
<title>Node8</title>
<g id="a_node8"><a xlink:href="namespacenmbuflowtorch.html#a6841de6f2ac014f91c37f7f2c0e9cc1e" target="_top" xlink:title="Prints a progress bar to the console.">
<polygon fill="none" stroke="black" points="438,-153.5 438,-172.5 598,-172.5 598,-153.5 438,-153.5"/>
<text text-anchor="middle" x="518" y="-160.5" font-family="Helvetica,sans-Serif" font-size="10.00">nmbuflowtorch::printProgress</text>
</a>
</g>
</g>
<!-- Node7&#45;&gt;Node8 -->
<g id="edge7" class="edge">
<title>Node7&#45;&gt;Node8</title>
<path fill="none" stroke="midnightblue" d="M396.62,-134.01C410.25,-137.31 424.61,-140.77 438,-144 447.47,-146.28 457.57,-148.71 467.28,-151.05"/>
<polygon fill="midnightblue" stroke="midnightblue" points="466.67,-154.5 477.21,-153.44 468.31,-147.7 466.67,-154.5"/>
</g>
<!-- Node9 -->
<g id="node9" class="node">
<title>Node9</title>
<g id="a_node9"><a xlink:href="classnmbuflowtorch_1_1Network.html#ac5f07dc09b1d352567d6cbcc3c38c010" target="_top" xlink:title="Forward, backward, and update functions combined for one batch of data.">
<polygon fill="none" stroke="black" points="449.5,-104 449.5,-134 586.5,-134 586.5,-104 449.5,-104"/>
<text text-anchor="start" x="457.5" y="-122" font-family="Helvetica,sans-Serif" font-size="10.00">nmbuflowtorch::Network</text>
<text text-anchor="middle" x="518" y="-111" font-family="Helvetica,sans-Serif" font-size="10.00">::train_batch</text>
</a>
</g>
</g>
<!-- Node7&#45;&gt;Node9 -->
<g id="edge8" class="edge">
<title>Node7&#45;&gt;Node9</title>
<path fill="none" stroke="midnightblue" d="M402.2,-119C414.24,-119 426.88,-119 439.18,-119"/>
<polygon fill="midnightblue" stroke="midnightblue" points="439.41,-122.5 449.41,-119 439.41,-115.5 439.41,-122.5"/>
</g>
<!-- Node10 -->
<g id="node10" class="node">
<title>Node10</title>
<g id="a_node10"><a xlink:href="classnmbuflowtorch_1_1Network.html#ad2626aa7216689fadfa4469273de8c90" target="_top" xlink:title="Using X input and y target, back propagates the loss gradient.">
<polygon fill="none" stroke="black" points="634,-217 634,-247 771,-247 771,-217 634,-217"/>
<text text-anchor="start" x="642" y="-235" font-family="Helvetica,sans-Serif" font-size="10.00">nmbuflowtorch::Network</text>
<text text-anchor="middle" x="702.5" y="-224" font-family="Helvetica,sans-Serif" font-size="10.00">::backward</text>
</a>
</g>
</g>
<!-- Node9&#45;&gt;Node10 -->
<g id="edge9" class="edge">
<title>Node9&#45;&gt;Node10</title>
<path fill="none" stroke="midnightblue" d="M581.52,-134.04C587.39,-136.83 593,-140.11 598,-144 621.95,-162.62 611.13,-182.07 634,-202 638.23,-205.69 642.99,-208.99 647.96,-211.93"/>
<polygon fill="midnightblue" stroke="midnightblue" points="646.63,-215.19 657.1,-216.84 649.95,-209.02 646.63,-215.19"/>
</g>
<!-- Node13 -->
<g id="node13" class="node">
<title>Node13</title>
<g id="a_node13"><a xlink:href="classnmbuflowtorch_1_1Network.html#a47b0ad164e645c60f736f60f87827900" target="_top" xlink:title="Returns the value from the last layer.">
<polygon fill="none" stroke="black" points="807,-168 807,-198 944,-198 944,-168 807,-168"/>
<text text-anchor="start" x="815" y="-186" font-family="Helvetica,sans-Serif" font-size="10.00">nmbuflowtorch::Network</text>
<text text-anchor="middle" x="875.5" y="-175" font-family="Helvetica,sans-Serif" font-size="10.00">::output</text>
</a>
</g>
</g>
<!-- Node9&#45;&gt;Node13 -->
<g id="edge16" class="edge">
<title>Node9&#45;&gt;Node13</title>
<path fill="none" stroke="midnightblue" d="M574.23,-134.13C582.36,-137.02 590.51,-140.32 598,-144 615.48,-152.59 615.59,-162.64 634,-169 686.22,-187.04 748.59,-190.19 796.73,-189.01"/>
<polygon fill="midnightblue" stroke="midnightblue" points="796.89,-192.51 806.77,-188.7 796.67,-185.51 796.89,-192.51"/>
</g>
<!-- Node14 -->
<g id="node14" class="node">
<title>Node14</title>
<g id="a_node14"><a xlink:href="classnmbuflowtorch_1_1Network.html#ae6cd135a052cc1526b34bb4144ae58b6" target="_top" xlink:title=" ">
<polygon fill="none" stroke="black" points="634,-31 634,-61 771,-61 771,-31 634,-31"/>
<text text-anchor="start" x="642" y="-49" font-family="Helvetica,sans-Serif" font-size="10.00">nmbuflowtorch::Network</text>
<text text-anchor="middle" x="702.5" y="-38" font-family="Helvetica,sans-Serif" font-size="10.00">::forward</text>
</a>
</g>
</g>
<!-- Node9&#45;&gt;Node14 -->
<g id="edge13" class="edge">
<title>Node9&#45;&gt;Node14</title>
<path fill="none" stroke="midnightblue" d="M554.08,-103.92C576.78,-94.27 607.02,-81.62 634,-71 639.36,-68.89 644.99,-66.73 650.6,-64.6"/>
<polygon fill="midnightblue" stroke="midnightblue" points="651.86,-67.87 659.99,-61.07 649.4,-61.31 651.86,-67.87"/>
</g>
<!-- Node15 -->
<g id="node15" class="node">
<title>Node15</title>
<g id="a_node15"><a xlink:href="classnmbuflowtorch_1_1Loss.html#a5747f962c29f0e1a6147c435da22c466" target="_top" xlink:title="Returns the value of the loss.">
<polygon fill="none" stroke="black" points="644,-129 644,-159 761,-159 761,-129 644,-129"/>
<text text-anchor="start" x="652" y="-147" font-family="Helvetica,sans-Serif" font-size="10.00">nmbuflowtorch::Loss</text>
<text text-anchor="middle" x="702.5" y="-136" font-family="Helvetica,sans-Serif" font-size="10.00">::output</text>
</a>
</g>
</g>
<!-- Node9&#45;&gt;Node15 -->
<g id="edge15" class="edge">
<title>Node9&#45;&gt;Node15</title>
<path fill="none" stroke="midnightblue" d="M586.7,-128.27C602.09,-130.38 618.45,-132.62 633.84,-134.73"/>
<polygon fill="midnightblue" stroke="midnightblue" points="633.41,-138.21 643.8,-136.1 634.36,-131.27 633.41,-138.21"/>
</g>
<!-- Node16 -->
<g id="node16" class="node">
<title>Node16</title>
<g id="a_node16"><a xlink:href="classnmbuflowtorch_1_1Network.html#ab4dcbf1de529e005b2eb4c31b8cbd552" target="_top" xlink:title=" ">
<polygon fill="none" stroke="black" points="634,-80 634,-110 771,-110 771,-80 634,-80"/>
<text text-anchor="start" x="642" y="-98" font-family="Helvetica,sans-Serif" font-size="10.00">nmbuflowtorch::Network</text>
<text text-anchor="middle" x="702.5" y="-87" font-family="Helvetica,sans-Serif" font-size="10.00">::update</text>
</a>
</g>
</g>
<!-- Node9&#45;&gt;Node16 -->
<g id="edge17" class="edge">
<title>Node9&#45;&gt;Node16</title>
<path fill="none" stroke="midnightblue" d="M586.7,-110.1C598.74,-108.51 611.38,-106.85 623.68,-105.23"/>
<polygon fill="midnightblue" stroke="midnightblue" points="624.45,-108.66 633.91,-103.89 623.54,-101.72 624.45,-108.66"/>
</g>
<!-- Node11 -->
<g id="node11" class="node">
<title>Node11</title>
<g id="a_node11"><a xlink:href="classnmbuflowtorch_1_1Loss.html#a29688f70477ce9f630cb313cc7e4c365" target="_top" xlink:title="Returns the gradient with respect to the input of the loss function.">
<polygon fill="none" stroke="black" points="817,-266 817,-296 934,-296 934,-266 817,-266"/>
<text text-anchor="start" x="825" y="-284" font-family="Helvetica,sans-Serif" font-size="10.00">nmbuflowtorch::Loss</text>
<text text-anchor="middle" x="875.5" y="-273" font-family="Helvetica,sans-Serif" font-size="10.00">::back_gradient</text>
</a>
</g>
</g>
<!-- Node10&#45;&gt;Node11 -->
<g id="edge10" class="edge">
<title>Node10&#45;&gt;Node11</title>
<path fill="none" stroke="midnightblue" d="M756.2,-247.1C773.92,-252.18 793.85,-257.89 812.23,-263.16"/>
<polygon fill="midnightblue" stroke="midnightblue" points="811.4,-266.56 821.97,-265.95 813.32,-259.83 811.4,-266.56"/>
</g>
<!-- Node12 -->
<g id="node12" class="node">
<title>Node12</title>
<g id="a_node12"><a xlink:href="classnmbuflowtorch_1_1Loss.html#ab739a047ffc84f44af71832ec704cedc" target="_top" xlink:title="Evaluates the loss function given the predicted and target values.">
<polygon fill="none" stroke="black" points="817,-217 817,-247 934,-247 934,-217 817,-217"/>
<text text-anchor="start" x="825" y="-235" font-family="Helvetica,sans-Serif" font-size="10.00">nmbuflowtorch::Loss</text>
<text text-anchor="middle" x="875.5" y="-224" font-family="Helvetica,sans-Serif" font-size="10.00">::eval</text>
</a>
</g>
</g>
<!-- Node10&#45;&gt;Node12 -->
<g id="edge11" class="edge">
<title>Node10&#45;&gt;Node12</title>
<path fill="none" stroke="midnightblue" d="M771.08,-232C782.78,-232 794.95,-232 806.65,-232"/>
<polygon fill="midnightblue" stroke="midnightblue" points="806.79,-235.5 816.79,-232 806.79,-228.5 806.79,-235.5"/>
</g>
<!-- Node10&#45;&gt;Node13 -->
<g id="edge12" class="edge">
<title>Node10&#45;&gt;Node13</title>
<path fill="none" stroke="midnightblue" d="M756.2,-216.9C773.92,-211.82 793.85,-206.11 812.23,-200.84"/>
<polygon fill="midnightblue" stroke="midnightblue" points="813.32,-204.17 821.97,-198.05 811.4,-197.44 813.32,-204.17"/>
</g>
<!-- Node14&#45;&gt;Node13 -->
<g id="edge14" class="edge">
<title>Node14&#45;&gt;Node13</title>
<path fill="none" stroke="midnightblue" d="M752.78,-61.12C759.15,-63.96 765.39,-67.25 771,-71 807.22,-95.24 839.65,-134.61 858.19,-159.63"/>
<polygon fill="midnightblue" stroke="midnightblue" points="855.44,-161.8 864.15,-167.83 861.1,-157.69 855.44,-161.8"/>
</g>
<!-- Node17&#45;&gt;Node14 -->
<g id="edge20" class="edge">
<title>Node17&#45;&gt;Node14</title>
<path fill="none" stroke="midnightblue" d="M221.68,-47.75C323.68,-47.38 516.26,-46.68 623.83,-46.28"/>
<polygon fill="midnightblue" stroke="midnightblue" points="623.98,-49.78 633.97,-46.25 623.96,-42.78 623.98,-49.78"/>
</g>
<!-- Node18 -->
<g id="node18" class="node">
<title>Node18</title>
<g id="a_node18"><a xlink:href="math__m_8hpp.html#aebe2ab42fdbc00b9e3afb06ba7d536c3" target="_top" xlink:title="Applies a binary cutoff to a given float value.">
<polygon fill="none" stroke="black" points="293.5,-0.5 293.5,-19.5 373.5,-19.5 373.5,-0.5 293.5,-0.5"/>
<text text-anchor="middle" x="333.5" y="-7.5" font-family="Helvetica,sans-Serif" font-size="10.00">binary_cutoff</text>
</a>
</g>
</g>
<!-- Node17&#45;&gt;Node18 -->
<g id="edge19" class="edge">
<title>Node17&#45;&gt;Node18</title>
<path fill="none" stroke="midnightblue" d="M221.74,-33.58C242.22,-29.22 264.31,-24.52 283.33,-20.47"/>
<polygon fill="midnightblue" stroke="midnightblue" points="284.21,-23.86 293.26,-18.35 282.76,-17.01 284.21,-23.86"/>
</g>
</g>
</svg>
