<?xml version="1.0" encoding="UTF-8" standalone="no"?>
<!DOCTYPE svg PUBLIC "-//W3C//DTD SVG 1.1//EN"
 "http://www.w3.org/Graphics/SVG/1.1/DTD/svg11.dtd">
<!-- Generated by graphviz version 2.43.0 (0)
 -->
<!-- Title: main Pages: 1 -->
<svg width="952pt" height="309pt"
 viewBox="0.00 0.00 952.00 308.50" xmlns="http://www.w3.org/2000/svg" xmlns:xlink="http://www.w3.org/1999/xlink">
<g id="graph0" class="graph" transform="scale(1 1) rotate(0) translate(4 304.5)">
<title>main</title>
<!-- Node1 -->
<g id="node1" class="node">
<title>Node1</title>
<g id="a_node1"><a xlink:title=" ">
<polygon fill="#bfbfbf" stroke="black" points="0,-155.5 0,-174.5 41,-174.5 41,-155.5 0,-155.5"/>
<text text-anchor="middle" x="20.5" y="-162.5" font-family="Helvetica,sans-Serif" font-size="10.00">main</text>
</a>
</g>
</g>
<!-- Node2 -->
<g id="node2" class="node">
<title>Node2</title>
<g id="a_node2"><a xlink:href="classnmbuflowtorch_1_1Network.html#aa1d574b1f7daac023f4917887dd05ead" target="_top" xlink:title="Adds a layer to the network.">
<polygon fill="none" stroke="black" points="84.5,-270 84.5,-300 221.5,-300 221.5,-270 84.5,-270"/>
<text text-anchor="start" x="92.5" y="-288" font-family="Helvetica,sans-Serif" font-size="10.00">nmbuflowtorch::Network</text>
<text text-anchor="middle" x="153" y="-277" font-family="Helvetica,sans-Serif" font-size="10.00">::add_layer</text>
</a>
</g>
</g>
<!-- Node1&#45;&gt;Node2 -->
<g id="edge1" class="edge">
<title>Node1&#45;&gt;Node2</title>
<path fill="none" stroke="midnightblue" d="M24.47,-174.74C30.87,-194.08 47.77,-237.45 77,-261 78.6,-262.29 80.26,-263.5 81.99,-264.66"/>
<polygon fill="midnightblue" stroke="midnightblue" points="80.61,-267.91 91.02,-269.9 84.13,-261.85 80.61,-267.91"/>
</g>
<!-- Node3 -->
<g id="node3" class="node">
<title>Node3</title>
<g id="a_node3"><a xlink:href="classnmbuflowtorch_1_1Network.html#a7a86be4bc0c3901a48cfb70b286ec363" target="_top" xlink:title="Adds a loss function to the network.">
<polygon fill="none" stroke="black" points="84.5,-221 84.5,-251 221.5,-251 221.5,-221 84.5,-221"/>
<text text-anchor="start" x="92.5" y="-239" font-family="Helvetica,sans-Serif" font-size="10.00">nmbuflowtorch::Network</text>
<text text-anchor="middle" x="153" y="-228" font-family="Helvetica,sans-Serif" font-size="10.00">::add_loss</text>
</a>
</g>
</g>
<!-- Node1&#45;&gt;Node3 -->
<g id="edge2" class="edge">
<title>Node1&#45;&gt;Node3</title>
<path fill="none" stroke="midnightblue" d="M30.46,-174.57C40.77,-185.09 58.67,-201.84 77,-212 80.24,-213.8 83.63,-215.48 87.11,-217.06"/>
<polygon fill="midnightblue" stroke="midnightblue" points="85.9,-220.34 96.47,-220.98 88.61,-213.89 85.9,-220.34"/>
</g>
<!-- Node4 -->
<g id="node4" class="node">
<title>Node4</title>
<g id="a_node4"><a xlink:href="classnmbuflowtorch_1_1Network.html#a1120a4649f5317ab85b7fd0124f91f75" target="_top" xlink:title="Adds an optimizer to the network.">
<polygon fill="none" stroke="black" points="84.5,-172 84.5,-202 221.5,-202 221.5,-172 84.5,-172"/>
<text text-anchor="start" x="92.5" y="-190" font-family="Helvetica,sans-Serif" font-size="10.00">nmbuflowtorch::Network</text>
<text text-anchor="middle" x="153" y="-179" font-family="Helvetica,sans-Serif" font-size="10.00">::add_optimizer</text>
</a>
</g>
</g>
<!-- Node1&#45;&gt;Node4 -->
<g id="edge3" class="edge">
<title>Node1&#45;&gt;Node4</title>
<path fill="none" stroke="midnightblue" d="M41.04,-168.29C50.29,-169.85 62.02,-171.83 74.36,-173.91"/>
<polygon fill="midnightblue" stroke="midnightblue" points="73.91,-177.38 84.35,-175.6 75.07,-170.48 73.91,-177.38"/>
</g>
<!-- Node5 -->
<g id="node5" class="node">
<title>Node5</title>
<g id="a_node5"><a xlink:href="classnmbuflowtorch_1_1Network.html#a8cff72188a6f4b0d13c8b7474eec1ca3" target="_top" xlink:title="Fit model to data provided.">
<polygon fill="none" stroke="black" points="77,-133.5 77,-152.5 229,-152.5 229,-133.5 77,-133.5"/>
<text text-anchor="middle" x="153" y="-140.5" font-family="Helvetica,sans-Serif" font-size="10.00">nmbuflowtorch::Network::fit</text>
</a>
</g>
</g>
<!-- Node1&#45;&gt;Node5 -->
<g id="edge4" class="edge">
<title>Node1&#45;&gt;Node5</title>
<path fill="none" stroke="midnightblue" d="M41.04,-161.71C53.05,-159.68 69.22,-156.96 85.49,-154.21"/>
<polygon fill="midnightblue" stroke="midnightblue" points="86.31,-157.62 95.59,-152.51 85.15,-150.72 86.31,-157.62"/>
</g>
<!-- Node17 -->
<g id="node17" class="node">
<title>Node17</title>
<g id="a_node17"><a xlink:href="classnmbuflowtorch_1_1layer_1_1Dense.html#a1b343ab594510f4ab93c9c292b5a5123" target="_top" xlink:title="Get the output dimension of the dense layer.">
<polygon fill="none" stroke="black" points="93,-84 93,-114 213,-114 213,-84 93,-84"/>
<text text-anchor="start" x="101" y="-102" font-family="Helvetica,sans-Serif" font-size="10.00">nmbuflowtorch::layer</text>
<text text-anchor="middle" x="153" y="-91" font-family="Helvetica,sans-Serif" font-size="10.00">::Dense::output_dim</text>
</a>
</g>
</g>
<!-- Node1&#45;&gt;Node17 -->
<g id="edge18" class="edge">
<title>Node1&#45;&gt;Node17</title>
<path fill="none" stroke="midnightblue" d="M32.29,-155.41C43,-146.3 60.2,-132.72 77,-124 81.19,-121.82 85.62,-119.78 90.13,-117.87"/>
<polygon fill="midnightblue" stroke="midnightblue" points="91.49,-121.1 99.48,-114.15 88.9,-114.59 91.49,-121.1"/>
</g>
<!-- Node18 -->
<g id="node18" class="node">
<title>Node18</title>
<g id="a_node18"><a xlink:href="classnmbuflowtorch_1_1Network.html#afbe484725b9489c054d744f64f57a6b8" target="_top" xlink:title="Fit model to data provided.">
<polygon fill="none" stroke="black" points="84.5,-33 84.5,-63 221.5,-63 221.5,-33 84.5,-33"/>
<text text-anchor="start" x="92.5" y="-51" font-family="Helvetica,sans-Serif" font-size="10.00">nmbuflowtorch::Network</text>
<text text-anchor="middle" x="153" y="-40" font-family="Helvetica,sans-Serif" font-size="10.00">::predict</text>
</a>
</g>
</g>
<!-- Node1&#45;&gt;Node18 -->
<g id="edge19" class="edge">
<title>Node1&#45;&gt;Node18</title>
<path fill="none" stroke="midnightblue" d="M24.93,-155.39C31.92,-137.14 49.49,-97.33 77,-75 80.26,-72.35 83.81,-69.95 87.52,-67.78"/>
<polygon fill="midnightblue" stroke="midnightblue" points="89.21,-70.85 96.44,-63.11 85.96,-64.64 89.21,-70.85"/>
</g>
<!-- Node6 -->
<g id="node6" class="node">
<title>Node6</title>
<g id="a_node6"><a xlink:href="math__m_8hpp.html#a00222de08fb54dc0423e29cc610d1f0c" target="_top" xlink:title="Shuffles a dataset by creating a permutation matrix from a given vector of indices and applying it to...">
<polygon fill="none" stroke="black" points="295,-177.5 295,-196.5 372,-196.5 372,-177.5 295,-177.5"/>
<text text-anchor="middle" x="333.5" y="-184.5" font-family="Helvetica,sans-Serif" font-size="10.00">shuffle_data</text>
</a>
</g>
</g>
<!-- Node5&#45;&gt;Node6 -->
<g id="edge5" class="edge">
<title>Node5&#45;&gt;Node6</title>
<path fill="none" stroke="midnightblue" d="M192.73,-152.55C219.79,-159.22 256.08,-168.16 284.91,-175.27"/>
<polygon fill="midnightblue" stroke="midnightblue" points="284.22,-178.7 294.76,-177.7 285.89,-171.91 284.22,-178.7"/>
</g>
<!-- Node7 -->
<g id="node7" class="node">
<title>Node7</title>
<g id="a_node7"><a xlink:href="classnmbuflowtorch_1_1Network.html#ab4decd5644c172b3ade967496bf64f7b" target="_top" xlink:title="Trains all batches in X and y for one epoch.">
<polygon fill="none" stroke="black" points="265,-128 265,-158 402,-158 402,-128 265,-128"/>
<text text-anchor="start" x="273" y="-146" font-family="Helvetica,sans-Serif" font-size="10.00">nmbuflowtorch::Network</text>
<text text-anchor="middle" x="333.5" y="-135" font-family="Helvetica,sans-Serif" font-size="10.00">::train_one_epoch</text>
</a>
</g>
</g>
<!-- Node5&#45;&gt;Node7 -->
<g id="edge6" class="edge">
<title>Node5&#45;&gt;Node7</title>
<path fill="none" stroke="midnightblue" d="M229.18,-143C237.58,-143 246.15,-143 254.58,-143"/>
<polygon fill="midnightblue" stroke="midnightblue" points="254.78,-146.5 264.78,-143 254.78,-139.5 254.78,-146.5"/>
</g>
<!-- Node8 -->
<g id="node8" class="node">
<title>Node8</title>
<g id="a_node8"><a xlink:href="namespacenmbuflowtorch.html#a6841de6f2ac014f91c37f7f2c0e9cc1e" target="_top" xlink:title="Prints a progress bar to the console.">
<polygon fill="none" stroke="black" points="438,-177.5 438,-196.5 598,-196.5 598,-177.5 438,-177.5"/>
<text text-anchor="middle" x="518" y="-184.5" font-family="Helvetica,sans-Serif" font-size="10.00">nmbuflowtorch::printProgress</text>
</a>
</g>
</g>
<!-- Node7&#45;&gt;Node8 -->
<g id="edge7" class="edge">
<title>Node7&#45;&gt;Node8</title>
<path fill="none" stroke="midnightblue" d="M396.62,-158.01C410.25,-161.31 424.61,-164.77 438,-168 447.47,-170.28 457.57,-172.71 467.28,-175.05"/>
<polygon fill="midnightblue" stroke="midnightblue" points="466.67,-178.5 477.21,-177.44 468.31,-171.7 466.67,-178.5"/>
</g>
<!-- Node9 -->
<g id="node9" class="node">
<title>Node9</title>
<g id="a_node9"><a xlink:href="classnmbuflowtorch_1_1Network.html#ac5f07dc09b1d352567d6cbcc3c38c010" target="_top" xlink:title="Forward, backward, and update functions combined for one batch of data.">
<polygon fill="none" stroke="black" points="449.5,-128 449.5,-158 586.5,-158 586.5,-128 449.5,-128"/>
<text text-anchor="start" x="457.5" y="-146" font-family="Helvetica,sans-Serif" font-size="10.00">nmbuflowtorch::Network</text>
<text text-anchor="middle" x="518" y="-135" font-family="Helvetica,sans-Serif" font-size="10.00">::train_batch</text>
</a>
</g>
</g>
<!-- Node7&#45;&gt;Node9 -->
<g id="edge8" class="edge">
<title>Node7&#45;&gt;Node9</title>
<path fill="none" stroke="midnightblue" d="M402.2,-143C414.24,-143 426.88,-143 439.18,-143"/>
<polygon fill="midnightblue" stroke="midnightblue" points="439.41,-146.5 449.41,-143 439.41,-139.5 439.41,-146.5"/>
</g>
<!-- Node10 -->
<g id="node10" class="node">
<title>Node10</title>
<g id="a_node10"><a xlink:href="classnmbuflowtorch_1_1Network.html#ad2626aa7216689fadfa4469273de8c90" target="_top" xlink:title="Using X input and y target, back propagates the loss gradient.">
<polygon fill="none" stroke="black" points="634,-218 634,-248 771,-248 771,-218 634,-218"/>
<text text-anchor="start" x="642" y="-236" font-family="Helvetica,sans-Serif" font-size="10.00">nmbuflowtorch::Network</text>
<text text-anchor="middle" x="702.5" y="-225" font-family="Helvetica,sans-Serif" font-size="10.00">::backward</text>
</a>
</g>
</g>
<!-- Node9&#45;&gt;Node10 -->
<g id="edge9" class="edge">
<title>Node9&#45;&gt;Node10</title>
<path fill="none" stroke="midnightblue" d="M577.31,-158.01C584.51,-160.85 591.58,-164.16 598,-168 617.15,-179.45 615.52,-190.5 634,-203 639.64,-206.81 645.84,-210.34 652.13,-213.52"/>
<polygon fill="midnightblue" stroke="midnightblue" points="650.82,-216.78 661.35,-217.95 653.85,-210.47 650.82,-216.78"/>
</g>
<!-- Node13 -->
<g id="node13" class="node">
<title>Node13</title>
<g id="a_node13"><a xlink:href="classnmbuflowtorch_1_1Network.html#a47b0ad164e645c60f736f60f87827900" target="_top" xlink:title="Returns the value from the last layer.">
<polygon fill="none" stroke="black" points="807,-169 807,-199 944,-199 944,-169 807,-169"/>
<text text-anchor="start" x="815" y="-187" font-family="Helvetica,sans-Serif" font-size="10.00">nmbuflowtorch::Network</text>
<text text-anchor="middle" x="875.5" y="-176" font-family="Helvetica,sans-Serif" font-size="10.00">::output</text>
</a>
</g>
</g>
<!-- Node9&#45;&gt;Node13 -->
<g id="edge16" class="edge">
<title>Node9&#45;&gt;Node13</title>
<path fill="none" stroke="midnightblue" d="M574.49,-158.07C593.26,-162.62 614.42,-167.15 634,-170 687.98,-177.85 749.39,-181.33 796.64,-182.86"/>
<polygon fill="midnightblue" stroke="midnightblue" points="796.7,-186.37 806.8,-183.17 796.91,-179.37 796.7,-186.37"/>
</g>
<!-- Node14 -->
<g id="node14" class="node">
<title>Node14</title>
<g id="a_node14"><a xlink:href="classnmbuflowtorch_1_1Network.html#ae6cd135a052cc1526b34bb4144ae58b6" target="_top" xlink:title=" ">
<polygon fill="none" stroke="black" points="634,-32 634,-62 771,-62 771,-32 634,-32"/>
<text text-anchor="start" x="642" y="-50" font-family="Helvetica,sans-Serif" font-size="10.00">nmbuflowtorch::Network</text>
<text text-anchor="middle" x="702.5" y="-39" font-family="Helvetica,sans-Serif" font-size="10.00">::forward</text>
</a>
</g>
</g>
<!-- Node9&#45;&gt;Node14 -->
<g id="edge13" class="edge">
<title>Node9&#45;&gt;Node14</title>
<path fill="none" stroke="midnightblue" d="M540.73,-127.77C563.32,-112.38 600.05,-88.56 634,-72 638.33,-69.89 642.9,-67.84 647.52,-65.89"/>
<polygon fill="midnightblue" stroke="midnightblue" points="649.08,-69.03 657.04,-62.04 646.45,-62.55 649.08,-69.03"/>
</g>
<!-- Node15 -->
<g id="node15" class="node">
<title>Node15</title>
<g id="a_node15"><a xlink:href="classnmbuflowtorch_1_1Loss.html#a5747f962c29f0e1a6147c435da22c466" target="_top" xlink:title="Returns the value of the loss.">
<polygon fill="none" stroke="black" points="644,-130 644,-160 761,-160 761,-130 644,-130"/>
<text text-anchor="start" x="652" y="-148" font-family="Helvetica,sans-Serif" font-size="10.00">nmbuflowtorch::Loss</text>
<text text-anchor="middle" x="702.5" y="-137" font-family="Helvetica,sans-Serif" font-size="10.00">::output</text>
</a>
</g>
</g>
<!-- Node9&#45;&gt;Node15 -->
<g id="edge15" class="edge">
<title>Node9&#45;&gt;Node15</title>
<path fill="none" stroke="midnightblue" d="M586.7,-143.74C601.94,-143.91 618.13,-144.09 633.4,-144.25"/>
<polygon fill="midnightblue" stroke="midnightblue" points="633.76,-147.76 643.8,-144.37 633.83,-140.76 633.76,-147.76"/>
</g>
<!-- Node16 -->
<g id="node16" class="node">
<title>Node16</title>
<g id="a_node16"><a xlink:href="classnmbuflowtorch_1_1Network.html#ab4dcbf1de529e005b2eb4c31b8cbd552" target="_top" xlink:title=" ">
<polygon fill="none" stroke="black" points="634,-81 634,-111 771,-111 771,-81 634,-81"/>
<text text-anchor="start" x="642" y="-99" font-family="Helvetica,sans-Serif" font-size="10.00">nmbuflowtorch::Network</text>
<text text-anchor="middle" x="702.5" y="-88" font-family="Helvetica,sans-Serif" font-size="10.00">::update</text>
</a>
</g>
</g>
<!-- Node9&#45;&gt;Node16 -->
<g id="edge17" class="edge">
<title>Node9&#45;&gt;Node16</title>
<path fill="none" stroke="midnightblue" d="M577.25,-128C595.11,-123.4 614.92,-118.3 633.38,-113.54"/>
<polygon fill="midnightblue" stroke="midnightblue" points="634.37,-116.9 643.18,-111.02 632.62,-110.12 634.37,-116.9"/>
</g>
<!-- Node11 -->
<g id="node11" class="node">
<title>Node11</title>
<g id="a_node11"><a xlink:href="classnmbuflowtorch_1_1Loss.html#a29688f70477ce9f630cb313cc7e4c365" target="_top" xlink:title="Returns the gradient with respect to the input of the loss function.">
<polygon fill="none" stroke="black" points="817,-267 817,-297 934,-297 934,-267 817,-267"/>
<text text-anchor="start" x="825" y="-285" font-family="Helvetica,sans-Serif" font-size="10.00">nmbuflowtorch::Loss</text>
<text text-anchor="middle" x="875.5" y="-274" font-family="Helvetica,sans-Serif" font-size="10.00">::back_gradient</text>
</a>
</g>
</g>
<!-- Node10&#45;&gt;Node11 -->
<g id="edge10" class="edge">
<title>Node10&#45;&gt;Node11</title>
<path fill="none" stroke="midnightblue" d="M756.2,-248.1C773.92,-253.18 793.85,-258.89 812.23,-264.16"/>
<polygon fill="midnightblue" stroke="midnightblue" points="811.4,-267.56 821.97,-266.95 813.32,-260.83 811.4,-267.56"/>
</g>
<!-- Node12 -->
<g id="node12" class="node">
<title>Node12</title>
<g id="a_node12"><a xlink:href="classnmbuflowtorch_1_1Loss.html#ab739a047ffc84f44af71832ec704cedc" target="_top" xlink:title="Evaluates the loss function given the predicted and target values.">
<polygon fill="none" stroke="black" points="817,-218 817,-248 934,-248 934,-218 817,-218"/>
<text text-anchor="start" x="825" y="-236" font-family="Helvetica,sans-Serif" font-size="10.00">nmbuflowtorch::Loss</text>
<text text-anchor="middle" x="875.5" y="-225" font-family="Helvetica,sans-Serif" font-size="10.00">::eval</text>
</a>
</g>
</g>
<!-- Node10&#45;&gt;Node12 -->
<g id="edge11" class="edge">
<title>Node10&#45;&gt;Node12</title>
<path fill="none" stroke="midnightblue" d="M771.08,-233C782.78,-233 794.95,-233 806.65,-233"/>
<polygon fill="midnightblue" stroke="midnightblue" points="806.79,-236.5 816.79,-233 806.79,-229.5 806.79,-236.5"/>
</g>
<!-- Node10&#45;&gt;Node13 -->
<g id="edge12" class="edge">
<title>Node10&#45;&gt;Node13</title>
<path fill="none" stroke="midnightblue" d="M756.2,-217.9C773.92,-212.82 793.85,-207.11 812.23,-201.84"/>
<polygon fill="midnightblue" stroke="midnightblue" points="813.32,-205.17 821.97,-199.05 811.4,-198.44 813.32,-205.17"/>
</g>
<!-- Node14&#45;&gt;Node13 -->
<g id="edge14" class="edge">
<title>Node14&#45;&gt;Node13</title>
<path fill="none" stroke="midnightblue" d="M752.78,-62.12C759.15,-64.96 765.39,-68.25 771,-72 807.22,-96.24 839.65,-135.61 858.19,-160.63"/>
<polygon fill="midnightblue" stroke="midnightblue" points="855.44,-162.8 864.15,-168.83 861.1,-158.69 855.44,-162.8"/>
</g>
<!-- Node18&#45;&gt;Node14 -->
<g id="edge21" class="edge">
<title>Node18&#45;&gt;Node14</title>
<path fill="none" stroke="midnightblue" d="M221.68,-47.88C323.68,-47.69 516.26,-47.34 623.83,-47.14"/>
<polygon fill="midnightblue" stroke="midnightblue" points="623.98,-50.64 633.97,-47.12 623.96,-43.64 623.98,-50.64"/>
</g>
<!-- Node19 -->
<g id="node19" class="node">
<title>Node19</title>
<g id="a_node19"><a xlink:href="math__m_8hpp.html#aebe2ab42fdbc00b9e3afb06ba7d536c3" target="_top" xlink:title="Applies a binary cutoff to a given float value.">
<polygon fill="none" stroke="black" points="293.5,-0.5 293.5,-19.5 373.5,-19.5 373.5,-0.5 293.5,-0.5"/>
<text text-anchor="middle" x="333.5" y="-7.5" font-family="Helvetica,sans-Serif" font-size="10.00">binary_cutoff</text>
</a>
</g>
</g>
<!-- Node18&#45;&gt;Node19 -->
<g id="edge20" class="edge">
<title>Node18&#45;&gt;Node19</title>
<path fill="none" stroke="midnightblue" d="M221.74,-33.58C242.22,-29.22 264.31,-24.52 283.33,-20.47"/>
<polygon fill="midnightblue" stroke="midnightblue" points="284.21,-23.86 293.26,-18.35 282.76,-17.01 284.21,-23.86"/>
</g>
</g>
</svg>
