<?xml version="1.0" encoding="UTF-8" standalone="no"?>
<!DOCTYPE svg PUBLIC "-//W3C//DTD SVG 1.1//EN"
 "http://www.w3.org/Graphics/SVG/1.1/DTD/svg11.dtd">
<!-- Generated by graphviz version 2.43.0 (0)
 -->
<!-- Title: src/main.cpp Pages: 1 -->
<svg width="1758pt" height="364pt"
 viewBox="0.00 0.00 1757.96 364.00" xmlns="http://www.w3.org/2000/svg" xmlns:xlink="http://www.w3.org/1999/xlink">
<g id="graph0" class="graph" transform="scale(1 1) rotate(0) translate(4 360)">
<title>src/main.cpp</title>
<!-- Node1 -->
<g id="node1" class="node">
<title>Node1</title>
<g id="a_node1"><a xlink:title=" ">
<polygon fill="#bfbfbf" stroke="black" points="788.36,-336.5 788.36,-355.5 867.36,-355.5 867.36,-336.5 788.36,-336.5"/>
<text text-anchor="middle" x="827.86" y="-343.5" font-family="Helvetica,sans-Serif" font-size="10.00">src/main.cpp</text>
</a>
</g>
</g>
<!-- Node2 -->
<g id="node2" class="node">
<title>Node2</title>
<g id="a_node2"><a xlink:title=" ">
<polygon fill="none" stroke="#bfbfbf" points="161.36,-112.5 161.36,-131.5 212.36,-131.5 212.36,-112.5 161.36,-112.5"/>
<text text-anchor="middle" x="186.86" y="-119.5" font-family="Helvetica,sans-Serif" font-size="10.00">cblas.h</text>
</a>
</g>
</g>
<!-- Node1&#45;&gt;Node2 -->
<g id="edge1" class="edge">
<title>Node1&#45;&gt;Node2</title>
<path fill="none" stroke="midnightblue" d="M788.19,-345.59C656.01,-346.64 234.34,-342.1 152.86,-244 127.53,-213.5 155.28,-165.35 173.52,-139.96"/>
<polygon fill="midnightblue" stroke="midnightblue" points="176.51,-141.81 179.7,-131.71 170.91,-137.62 176.51,-141.81"/>
</g>
<!-- Node3 -->
<g id="node3" class="node">
<title>Node3</title>
<g id="a_node3"><a xlink:title=" ">
<polygon fill="none" stroke="#bfbfbf" points="1673.36,-224.5 1673.36,-243.5 1720.36,-243.5 1720.36,-224.5 1673.36,-224.5"/>
<text text-anchor="middle" x="1696.86" y="-231.5" font-family="Helvetica,sans-Serif" font-size="10.00">omp.h</text>
</a>
</g>
</g>
<!-- Node1&#45;&gt;Node3 -->
<g id="edge2" class="edge">
<title>Node1&#45;&gt;Node3</title>
<path fill="none" stroke="midnightblue" d="M867.5,-345.19C940.16,-344.53 1098.88,-338.34 1225.86,-300 1244.51,-294.37 1246.15,-285.43 1264.86,-280 1433.73,-230.99 1485.32,-272.33 1658.86,-244 1660.32,-243.76 1661.81,-243.5 1663.32,-243.21"/>
<polygon fill="midnightblue" stroke="midnightblue" points="1664.18,-246.61 1673.25,-241.14 1662.74,-239.76 1664.18,-246.61"/>
</g>
<!-- Node4 -->
<g id="node4" class="node">
<title>Node4</title>
<g id="a_node4"><a xlink:href="definitions_8hpp.html" target="_top" xlink:title=" ">
<polygon fill="none" stroke="black" points="518.86,-56.5 518.86,-75.5 682.86,-75.5 682.86,-56.5 518.86,-56.5"/>
<text text-anchor="middle" x="600.86" y="-63.5" font-family="Helvetica,sans-Serif" font-size="10.00">nmbuflowtorch/definitions.hpp</text>
</a>
</g>
</g>
<!-- Node1&#45;&gt;Node4 -->
<g id="edge3" class="edge">
<title>Node1&#45;&gt;Node4</title>
<path fill="none" stroke="midnightblue" d="M788.33,-345.36C668.37,-345.96 310.28,-343.94 203.86,-300 146.1,-276.15 129.53,-249.57 118.86,-188 112.98,-154.08 107.58,-134.25 133.86,-112 161.78,-88.36 380.46,-75.74 508.44,-70.31"/>
<polygon fill="midnightblue" stroke="midnightblue" points="508.79,-73.8 518.63,-69.89 508.49,-66.81 508.79,-73.8"/>
</g>
<!-- Node12 -->
<g id="node12" class="node">
<title>Node12</title>
<g id="a_node12"><a xlink:href="autoencoder_8hpp.html" target="_top" xlink:title=" ">
<polygon fill="none" stroke="black" points="1043.36,-280.5 1043.36,-299.5 1216.36,-299.5 1216.36,-280.5 1043.36,-280.5"/>
<text text-anchor="middle" x="1129.86" y="-287.5" font-family="Helvetica,sans-Serif" font-size="10.00">nmbuflowtorch/autoencoder.hpp</text>
</a>
</g>
</g>
<!-- Node1&#45;&gt;Node12 -->
<g id="edge11" class="edge">
<title>Node1&#45;&gt;Node12</title>
<path fill="none" stroke="midnightblue" d="M867.65,-337.88C919.96,-328.53 1012.23,-312.03 1072.2,-301.31"/>
<polygon fill="midnightblue" stroke="midnightblue" points="1073.04,-304.72 1082.26,-299.51 1071.8,-297.83 1073.04,-304.72"/>
</g>
<!-- Node29 -->
<g id="node29" class="node">
<title>Node29</title>
<g id="a_node29"><a xlink:href="xor_8hpp.html" target="_top" xlink:title=" ">
<polygon fill="none" stroke="black" points="461.86,-280.5 461.86,-299.5 589.86,-299.5 589.86,-280.5 461.86,-280.5"/>
<text text-anchor="middle" x="525.86" y="-287.5" font-family="Helvetica,sans-Serif" font-size="10.00">nmbuflowtorch/xor.hpp</text>
</a>
</g>
</g>
<!-- Node1&#45;&gt;Node29 -->
<g id="edge54" class="edge">
<title>Node1&#45;&gt;Node29</title>
<path fill="none" stroke="midnightblue" d="M788.07,-337.88C735.76,-328.53 643.49,-312.03 583.52,-301.31"/>
<polygon fill="midnightblue" stroke="midnightblue" points="583.92,-297.83 573.46,-299.51 582.68,-304.72 583.92,-297.83"/>
</g>
<!-- Node30 -->
<g id="node30" class="node">
<title>Node30</title>
<g id="a_node30"><a xlink:title=" ">
<polygon fill="none" stroke="#bfbfbf" points="1273.36,-280.5 1273.36,-299.5 1332.36,-299.5 1332.36,-280.5 1273.36,-280.5"/>
<text text-anchor="middle" x="1302.86" y="-287.5" font-family="Helvetica,sans-Serif" font-size="10.00">complex</text>
</a>
</g>
</g>
<!-- Node1&#45;&gt;Node30 -->
<g id="edge73" class="edge">
<title>Node1&#45;&gt;Node30</title>
<path fill="none" stroke="midnightblue" d="M867.54,-342.16C943.7,-336.42 1115.54,-322.09 1258.86,-300 1260.3,-299.78 1261.77,-299.54 1263.26,-299.29"/>
<polygon fill="midnightblue" stroke="midnightblue" points="1263.9,-302.73 1273.11,-297.5 1262.64,-295.84 1263.9,-302.73"/>
</g>
<!-- Node5 -->
<g id="node5" class="node">
<title>Node5</title>
<g id="a_node5"><a xlink:title=" ">
<polygon fill="none" stroke="#bfbfbf" points="572.86,-0.5 572.86,-19.5 628.86,-19.5 628.86,-0.5 572.86,-0.5"/>
<text text-anchor="middle" x="600.86" y="-7.5" font-family="Helvetica,sans-Serif" font-size="10.00">unistd.h</text>
</a>
</g>
</g>
<!-- Node4&#45;&gt;Node5 -->
<g id="edge4" class="edge">
<title>Node4&#45;&gt;Node5</title>
<path fill="none" stroke="midnightblue" d="M600.86,-56.08C600.86,-49.01 600.86,-38.86 600.86,-29.99"/>
<polygon fill="midnightblue" stroke="midnightblue" points="604.36,-29.75 600.86,-19.75 597.36,-29.75 604.36,-29.75"/>
</g>
<!-- Node6 -->
<g id="node6" class="node">
<title>Node6</title>
<g id="a_node6"><a xlink:title=" ">
<polygon fill="none" stroke="#bfbfbf" points="647.36,-0.5 647.36,-19.5 724.36,-19.5 724.36,-0.5 647.36,-0.5"/>
<text text-anchor="middle" x="685.86" y="-7.5" font-family="Helvetica,sans-Serif" font-size="10.00">Eigen/Dense</text>
</a>
</g>
</g>
<!-- Node4&#45;&gt;Node6 -->
<g id="edge5" class="edge">
<title>Node4&#45;&gt;Node6</title>
<path fill="none" stroke="midnightblue" d="M614.52,-56.32C627.78,-47.9 648.13,-34.97 663.71,-25.07"/>
<polygon fill="midnightblue" stroke="midnightblue" points="665.67,-27.97 672.24,-19.65 661.92,-22.06 665.67,-27.97"/>
</g>
<!-- Node7 -->
<g id="node7" class="node">
<title>Node7</title>
<g id="a_node7"><a xlink:title=" ">
<polygon fill="none" stroke="#bfbfbf" points="807.36,-0.5 807.36,-19.5 854.36,-19.5 854.36,-0.5 807.36,-0.5"/>
<text text-anchor="middle" x="830.86" y="-7.5" font-family="Helvetica,sans-Serif" font-size="10.00">cmath</text>
</a>
</g>
</g>
<!-- Node4&#45;&gt;Node7 -->
<g id="edge6" class="edge">
<title>Node4&#45;&gt;Node7</title>
<path fill="none" stroke="midnightblue" d="M640.6,-56.43C678.36,-48.18 736.99,-35.07 797.06,-20.12"/>
<polygon fill="midnightblue" stroke="midnightblue" points="798.25,-23.43 807.1,-17.61 796.55,-16.64 798.25,-23.43"/>
</g>
<!-- Node8 -->
<g id="node8" class="node">
<title>Node8</title>
<g id="a_node8"><a xlink:title=" ">
<polygon fill="none" stroke="#bfbfbf" points="742.86,-0.5 742.86,-19.5 788.86,-19.5 788.86,-0.5 742.86,-0.5"/>
<text text-anchor="middle" x="765.86" y="-7.5" font-family="Helvetica,sans-Serif" font-size="10.00">cstdio</text>
</a>
</g>
</g>
<!-- Node4&#45;&gt;Node8 -->
<g id="edge7" class="edge">
<title>Node4&#45;&gt;Node8</title>
<path fill="none" stroke="midnightblue" d="M627,-56.44C655.79,-47.02 702.09,-31.87 733.23,-21.68"/>
<polygon fill="midnightblue" stroke="midnightblue" points="734.35,-24.99 742.77,-18.56 732.17,-18.34 734.35,-24.99"/>
</g>
<!-- Node9 -->
<g id="node9" class="node">
<title>Node9</title>
<g id="a_node9"><a xlink:title=" ">
<polygon fill="none" stroke="#bfbfbf" points="494.86,-0.5 494.86,-19.5 554.86,-19.5 554.86,-0.5 494.86,-0.5"/>
<text text-anchor="middle" x="524.86" y="-7.5" font-family="Helvetica,sans-Serif" font-size="10.00">iostream</text>
</a>
</g>
</g>
<!-- Node4&#45;&gt;Node9 -->
<g id="edge8" class="edge">
<title>Node4&#45;&gt;Node9</title>
<path fill="none" stroke="midnightblue" d="M588.65,-56.32C577.08,-48.11 559.48,-35.6 545.7,-25.81"/>
<polygon fill="midnightblue" stroke="midnightblue" points="547.47,-22.77 537.29,-19.83 543.42,-28.48 547.47,-22.77"/>
</g>
<!-- Node10 -->
<g id="node10" class="node">
<title>Node10</title>
<g id="a_node10"><a xlink:title=" ">
<polygon fill="none" stroke="#bfbfbf" points="162.86,-0.5 162.86,-19.5 206.86,-19.5 206.86,-0.5 162.86,-0.5"/>
<text text-anchor="middle" x="184.86" y="-7.5" font-family="Helvetica,sans-Serif" font-size="10.00">string</text>
</a>
</g>
</g>
<!-- Node4&#45;&gt;Node10 -->
<g id="edge9" class="edge">
<title>Node4&#45;&gt;Node10</title>
<path fill="none" stroke="midnightblue" d="M534.94,-56.44C444.48,-44.7 285.32,-24.04 217.24,-15.2"/>
<polygon fill="midnightblue" stroke="midnightblue" points="217.48,-11.71 207.12,-13.89 216.58,-18.65 217.48,-11.71"/>
</g>
<!-- Node11 -->
<g id="node11" class="node">
<title>Node11</title>
<g id="a_node11"><a xlink:title=" ">
<polygon fill="none" stroke="#bfbfbf" points="429.36,-0.5 429.36,-19.5 476.36,-19.5 476.36,-0.5 429.36,-0.5"/>
<text text-anchor="middle" x="452.86" y="-7.5" font-family="Helvetica,sans-Serif" font-size="10.00">vector</text>
</a>
</g>
</g>
<!-- Node4&#45;&gt;Node11 -->
<g id="edge10" class="edge">
<title>Node4&#45;&gt;Node11</title>
<path fill="none" stroke="midnightblue" d="M577.41,-56.44C552.73,-47.44 513.67,-33.19 485.88,-23.05"/>
<polygon fill="midnightblue" stroke="midnightblue" points="486.8,-19.66 476.2,-19.52 484.4,-26.23 486.8,-19.66"/>
</g>
<!-- Node12&#45;&gt;Node3 -->
<g id="edge12" class="edge">
<title>Node12&#45;&gt;Node3</title>
<path fill="none" stroke="midnightblue" d="M1216.63,-281.24C1221.44,-280.82 1226.21,-280.4 1230.86,-280 1421.04,-263.53 1470.35,-274.08 1658.86,-244 1660.32,-243.77 1661.82,-243.51 1663.32,-243.23"/>
<polygon fill="midnightblue" stroke="midnightblue" points="1664.17,-246.63 1673.25,-241.16 1662.75,-239.77 1664.17,-246.63"/>
</g>
<!-- Node12&#45;&gt;Node4 -->
<g id="edge19" class="edge">
<title>Node12&#45;&gt;Node4</title>
<path fill="none" stroke="midnightblue" d="M1212.96,-280.49C1326.42,-268.73 1516.59,-248.46 1522.86,-244 1552.08,-223.24 1571.47,-196.6 1549.86,-168 1495,-95.37 1442.6,-127.25 1352.86,-112 1117.55,-72 835.58,-66.16 693.05,-66.11"/>
<polygon fill="midnightblue" stroke="midnightblue" points="693.03,-62.61 683.03,-66.11 693.03,-69.61 693.03,-62.61"/>
</g>
<!-- Node12&#45;&gt;Node7 -->
<g id="edge13" class="edge">
<title>Node12&#45;&gt;Node7</title>
<path fill="none" stroke="midnightblue" d="M1216.57,-283.13C1381.58,-271.86 1724.93,-247.99 1729.86,-244 1753.25,-225.06 1748.86,-209.1 1748.86,-179 1748.86,-179 1748.86,-179 1748.86,-121 1748.86,-71.66 1705.38,-72.45 1658.86,-56 1583.14,-29.22 1010.21,-14.93 864.49,-11.71"/>
<polygon fill="midnightblue" stroke="midnightblue" points="864.44,-8.21 854.37,-11.49 864.29,-15.21 864.44,-8.21"/>
</g>
<!-- Node12&#45;&gt;Node9 -->
<g id="edge15" class="edge">
<title>Node12&#45;&gt;Node9</title>
<path fill="none" stroke="midnightblue" d="M1216.54,-280.5C1218.33,-280.33 1220.1,-280.17 1221.86,-280 1310.5,-271.67 1550.18,-298.13 1620.86,-244 1645.31,-225.28 1644.86,-209.8 1644.86,-179 1644.86,-179 1644.86,-179 1644.86,-121 1644.86,-90.2 1645.82,-74.03 1620.86,-56 1574.9,-22.8 687.88,-27.27 565.27,-19.46"/>
<polygon fill="midnightblue" stroke="midnightblue" points="565.26,-15.95 554.99,-18.56 564.64,-22.92 565.26,-15.95"/>
</g>
<!-- Node12&#45;&gt;Node11 -->
<g id="edge17" class="edge">
<title>Node12&#45;&gt;Node11</title>
<path fill="none" stroke="midnightblue" d="M1216.07,-280.49C1336.3,-268.52 1540.53,-247.73 1547.86,-244 1582.64,-226.31 1606.86,-218.02 1606.86,-179 1606.86,-179 1606.86,-179 1606.86,-121 1606.86,-5.33 1469.28,-72.93 1354.86,-56 975.74,0.1 869.66,-77.87 486.48,-19.67"/>
<polygon fill="midnightblue" stroke="midnightblue" points="486.93,-16.2 476.52,-18.14 485.87,-23.12 486.93,-16.2"/>
</g>
<!-- Node13 -->
<g id="node13" class="node">
<title>Node13</title>
<g id="a_node13"><a xlink:title=" ">
<polygon fill="none" stroke="#bfbfbf" points="912.86,-224.5 912.86,-243.5 968.86,-243.5 968.86,-224.5 912.86,-224.5"/>
<text text-anchor="middle" x="940.86" y="-231.5" font-family="Helvetica,sans-Serif" font-size="10.00">iomanip</text>
</a>
</g>
</g>
<!-- Node12&#45;&gt;Node13 -->
<g id="edge14" class="edge">
<title>Node12&#45;&gt;Node13</title>
<path fill="none" stroke="midnightblue" d="M1099.91,-280.44C1067.23,-271.11 1014.81,-256.13 979.16,-245.94"/>
<polygon fill="midnightblue" stroke="midnightblue" points="979.7,-242.46 969.12,-243.08 977.78,-249.19 979.7,-242.46"/>
</g>
<!-- Node14 -->
<g id="node14" class="node">
<title>Node14</title>
<g id="a_node14"><a xlink:title=" ">
<polygon fill="none" stroke="#bfbfbf" points="837.36,-224.5 837.36,-243.5 894.36,-243.5 894.36,-224.5 837.36,-224.5"/>
<text text-anchor="middle" x="865.86" y="-231.5" font-family="Helvetica,sans-Serif" font-size="10.00">ostream</text>
</a>
</g>
</g>
<!-- Node12&#45;&gt;Node14 -->
<g id="edge16" class="edge">
<title>Node12&#45;&gt;Node14</title>
<path fill="none" stroke="midnightblue" d="M1084.31,-280.43C1040.74,-272.12 972.93,-258.9 904.56,-244.09"/>
<polygon fill="midnightblue" stroke="midnightblue" points="904.98,-240.6 894.47,-241.89 903.5,-247.44 904.98,-240.6"/>
</g>
<!-- Node15 -->
<g id="node15" class="node">
<title>Node15</title>
<g id="a_node15"><a xlink:title=" ">
<polygon fill="none" stroke="#bfbfbf" points="704.36,-224.5 704.36,-243.5 819.36,-243.5 819.36,-224.5 704.36,-224.5"/>
<text text-anchor="middle" x="761.86" y="-231.5" font-family="Helvetica,sans-Serif" font-size="10.00">./csv_parser/csv.hpp</text>
</a>
</g>
</g>
<!-- Node12&#45;&gt;Node15 -->
<g id="edge18" class="edge">
<title>Node12&#45;&gt;Node15</title>
<path fill="none" stroke="midnightblue" d="M1071.55,-280.44C1005.78,-270.79 898.96,-255.12 829.55,-244.93"/>
<polygon fill="midnightblue" stroke="midnightblue" points="830,-241.46 819.59,-243.47 828.98,-248.39 830,-241.46"/>
</g>
<!-- Node16 -->
<g id="node16" class="node">
<title>Node16</title>
<g id="a_node16"><a xlink:href="layer_8hpp.html" target="_top" xlink:title=" ">
<polygon fill="none" stroke="black" points="491.86,-168.5 491.86,-187.5 559.86,-187.5 559.86,-168.5 491.86,-168.5"/>
<text text-anchor="middle" x="525.86" y="-175.5" font-family="Helvetica,sans-Serif" font-size="10.00">./layer.hpp</text>
</a>
</g>
</g>
<!-- Node12&#45;&gt;Node16 -->
<g id="edge20" class="edge">
<title>Node12&#45;&gt;Node16</title>
<path fill="none" stroke="midnightblue" d="M1115.74,-280.31C1089.21,-264.15 1032.62,-230.51 1010.86,-224 822.46,-167.64 764.54,-215.75 569.86,-188 569.76,-187.99 569.66,-187.97 569.56,-187.96"/>
<polygon fill="midnightblue" stroke="midnightblue" points="570.33,-184.54 559.9,-186.38 569.21,-191.45 570.33,-184.54"/>
</g>
<!-- Node17 -->
<g id="node17" class="node">
<title>Node17</title>
<g id="a_node17"><a xlink:href="optimizer_8hpp.html" target="_top" xlink:title=" ">
<polygon fill="none" stroke="black" points="1254.36,-112.5 1254.36,-131.5 1343.36,-131.5 1343.36,-112.5 1254.36,-112.5"/>
<text text-anchor="middle" x="1298.86" y="-119.5" font-family="Helvetica,sans-Serif" font-size="10.00">./optimizer.hpp</text>
</a>
</g>
</g>
<!-- Node12&#45;&gt;Node17 -->
<g id="edge49" class="edge">
<title>Node12&#45;&gt;Node17</title>
<path fill="none" stroke="midnightblue" d="M1216.51,-280.52C1315.61,-270.41 1465.39,-253.65 1473.86,-244 1479.72,-237.32 1478.47,-231.6 1473.86,-224 1455.93,-194.42 1434.95,-205.05 1404.86,-188 1375.25,-171.22 1341.9,-150.45 1320.66,-136.98"/>
<polygon fill="midnightblue" stroke="midnightblue" points="1322.38,-133.93 1312.07,-131.51 1318.62,-139.83 1322.38,-133.93"/>
</g>
<!-- Node19 -->
<g id="node19" class="node">
<title>Node19</title>
<g id="a_node19"><a xlink:href="dense_8hpp.html" target="_top" xlink:title=" ">
<polygon fill="none" stroke="black" points="161.36,-224.5 161.36,-243.5 262.36,-243.5 262.36,-224.5 161.36,-224.5"/>
<text text-anchor="middle" x="211.86" y="-231.5" font-family="Helvetica,sans-Serif" font-size="10.00">./layer/dense.hpp</text>
</a>
</g>
</g>
<!-- Node12&#45;&gt;Node19 -->
<g id="edge26" class="edge">
<title>Node12&#45;&gt;Node19</title>
<path fill="none" stroke="midnightblue" d="M1043.08,-283.9C858.52,-273.04 430.99,-247.89 272.45,-238.56"/>
<polygon fill="midnightblue" stroke="midnightblue" points="272.59,-235.07 262.4,-237.97 272.18,-242.05 272.59,-235.07"/>
</g>
<!-- Node20 -->
<g id="node20" class="node">
<title>Node20</title>
<g id="a_node20"><a xlink:href="math__m_8hpp.html" target="_top" xlink:title=" ">
<polygon fill="none" stroke="black" points="247.36,-168.5 247.36,-187.5 334.36,-187.5 334.36,-168.5 247.36,-168.5"/>
<text text-anchor="middle" x="290.86" y="-175.5" font-family="Helvetica,sans-Serif" font-size="10.00">../math_m.hpp</text>
</a>
</g>
</g>
<!-- Node12&#45;&gt;Node20 -->
<g id="edge41" class="edge">
<title>Node12&#45;&gt;Node20</title>
<path fill="none" stroke="midnightblue" d="M1102.8,-280.35C1078.29,-272.15 1041.44,-258.89 1010.86,-244 995.44,-236.49 994.22,-229.15 977.86,-224 947.82,-214.54 501.51,-190.15 344.78,-181.83"/>
<polygon fill="midnightblue" stroke="midnightblue" points="344.61,-178.32 334.44,-181.28 344.24,-185.31 344.61,-178.32"/>
</g>
<!-- Node21 -->
<g id="node21" class="node">
<title>Node21</title>
<g id="a_node21"><a xlink:href="sigmoid_8hpp.html" target="_top" xlink:title=" ">
<polygon fill="none" stroke="black" points="470.86,-224.5 470.86,-243.5 580.86,-243.5 580.86,-224.5 470.86,-224.5"/>
<text text-anchor="middle" x="525.86" y="-231.5" font-family="Helvetica,sans-Serif" font-size="10.00">./layer/sigmoid.hpp</text>
</a>
</g>
</g>
<!-- Node12&#45;&gt;Node21 -->
<g id="edge33" class="edge">
<title>Node12&#45;&gt;Node21</title>
<path fill="none" stroke="midnightblue" d="M1042.9,-283.2C938.43,-275.9 757.59,-262.22 591.56,-244.01"/>
<polygon fill="midnightblue" stroke="midnightblue" points="591.48,-240.48 581.15,-242.86 590.71,-247.44 591.48,-240.48"/>
</g>
<!-- Node22 -->
<g id="node22" class="node">
<title>Node22</title>
<g id="a_node22"><a xlink:href="loss_8hpp.html" target="_top" xlink:title=" ">
<polygon fill="none" stroke="black" points="578.36,-168.5 578.36,-187.5 641.36,-187.5 641.36,-168.5 578.36,-168.5"/>
<text text-anchor="middle" x="609.86" y="-175.5" font-family="Helvetica,sans-Serif" font-size="10.00">./loss.hpp</text>
</a>
</g>
</g>
<!-- Node12&#45;&gt;Node22 -->
<g id="edge35" class="edge">
<title>Node12&#45;&gt;Node22</title>
<path fill="none" stroke="midnightblue" d="M1153.61,-280.46C1182.99,-268.66 1226.75,-246.3 1205.86,-224 1163.99,-179.3 716.59,-195.9 655.86,-188 654.4,-187.81 652.91,-187.6 651.41,-187.38"/>
<polygon fill="midnightblue" stroke="midnightblue" points="651.88,-183.91 641.45,-185.73 650.74,-190.82 651.88,-183.91"/>
</g>
<!-- Node23 -->
<g id="node23" class="node">
<title>Node23</title>
<g id="a_node23"><a xlink:href="cross__entropy_8hpp.html" target="_top" xlink:title=" ">
<polygon fill="none" stroke="black" points="1063.36,-224.5 1063.36,-243.5 1196.36,-243.5 1196.36,-224.5 1063.36,-224.5"/>
<text text-anchor="middle" x="1129.86" y="-231.5" font-family="Helvetica,sans-Serif" font-size="10.00">./loss/cross_entropy.hpp</text>
</a>
</g>
</g>
<!-- Node12&#45;&gt;Node23 -->
<g id="edge37" class="edge">
<title>Node12&#45;&gt;Node23</title>
<path fill="none" stroke="midnightblue" d="M1129.86,-280.08C1129.86,-273.01 1129.86,-262.86 1129.86,-253.99"/>
<polygon fill="midnightblue" stroke="midnightblue" points="1133.36,-253.75 1129.86,-243.75 1126.36,-253.75 1133.36,-253.75"/>
</g>
<!-- Node24 -->
<g id="node24" class="node">
<title>Node24</title>
<g id="a_node24"><a xlink:href="mse_8hpp.html" target="_top" xlink:title=" ">
<polygon fill="none" stroke="black" points="599.36,-224.5 599.36,-243.5 686.36,-243.5 686.36,-224.5 599.36,-224.5"/>
<text text-anchor="middle" x="642.86" y="-231.5" font-family="Helvetica,sans-Serif" font-size="10.00">./loss/mse.hpp</text>
</a>
</g>
</g>
<!-- Node12&#45;&gt;Node24 -->
<g id="edge39" class="edge">
<title>Node12&#45;&gt;Node24</title>
<path fill="none" stroke="midnightblue" d="M1043.2,-281.68C957.77,-274.09 823.27,-261.11 696.76,-244.04"/>
<polygon fill="midnightblue" stroke="midnightblue" points="696.88,-240.52 686.5,-242.64 695.93,-247.46 696.88,-240.52"/>
</g>
<!-- Node25 -->
<g id="node25" class="node">
<title>Node25</title>
<g id="a_node25"><a xlink:href="network_8hpp.html" target="_top" xlink:title="Network class representing a sequence of layers. This class implements a network consisting of a sequ...">
<polygon fill="none" stroke="black" points="1253.36,-224.5 1253.36,-243.5 1336.36,-243.5 1336.36,-224.5 1253.36,-224.5"/>
<text text-anchor="middle" x="1294.86" y="-231.5" font-family="Helvetica,sans-Serif" font-size="10.00">./network.hpp</text>
</a>
</g>
</g>
<!-- Node12&#45;&gt;Node25 -->
<g id="edge42" class="edge">
<title>Node12&#45;&gt;Node25</title>
<path fill="none" stroke="midnightblue" d="M1156,-280.44C1183.88,-271.32 1228.21,-256.81 1259.26,-246.65"/>
<polygon fill="midnightblue" stroke="midnightblue" points="1260.42,-249.95 1268.84,-243.52 1258.24,-243.3 1260.42,-249.95"/>
</g>
<!-- Node27 -->
<g id="node27" class="node">
<title>Node27</title>
<g id="a_node27"><a xlink:href="nadam_8hpp.html" target="_top" xlink:title=" ">
<polygon fill="none" stroke="black" points="1413.36,-168.5 1413.36,-187.5 1540.36,-187.5 1540.36,-168.5 1413.36,-168.5"/>
<text text-anchor="middle" x="1476.86" y="-175.5" font-family="Helvetica,sans-Serif" font-size="10.00">./optimizer/nadam.hpp</text>
</a>
</g>
</g>
<!-- Node12&#45;&gt;Node27 -->
<g id="edge50" class="edge">
<title>Node12&#45;&gt;Node27</title>
<path fill="none" stroke="midnightblue" d="M1212.63,-280.49C1322.14,-269.04 1502,-249.48 1506.86,-244 1519.41,-229.86 1506.45,-209.57 1493.87,-195.43"/>
<polygon fill="midnightblue" stroke="midnightblue" points="1496.13,-192.73 1486.7,-187.91 1491.06,-197.57 1496.13,-192.73"/>
</g>
<!-- Node28 -->
<g id="node28" class="node">
<title>Node28</title>
<g id="a_node28"><a xlink:href="sgd_8hpp.html" target="_top" xlink:title=" ">
<polygon fill="none" stroke="black" points="1354.86,-224.5 1354.86,-243.5 1464.86,-243.5 1464.86,-224.5 1354.86,-224.5"/>
<text text-anchor="middle" x="1409.86" y="-231.5" font-family="Helvetica,sans-Serif" font-size="10.00">./optimizer/sgd.hpp</text>
</a>
</g>
</g>
<!-- Node12&#45;&gt;Node28 -->
<g id="edge52" class="edge">
<title>Node12&#45;&gt;Node28</title>
<path fill="none" stroke="midnightblue" d="M1174.23,-280.44C1223.48,-270.94 1302.99,-255.61 1355.83,-245.42"/>
<polygon fill="midnightblue" stroke="midnightblue" points="1356.54,-248.85 1365.7,-243.52 1355.22,-241.97 1356.54,-248.85"/>
</g>
<!-- Node16&#45;&gt;Node4 -->
<g id="edge22" class="edge">
<title>Node16&#45;&gt;Node4</title>
<path fill="none" stroke="midnightblue" d="M531.75,-168.37C544.12,-150.22 573.04,-107.8 589.28,-83.99"/>
<polygon fill="midnightblue" stroke="midnightblue" points="592.26,-85.83 595,-75.59 586.48,-81.88 592.26,-85.83"/>
</g>
<!-- Node16&#45;&gt;Node11 -->
<g id="edge21" class="edge">
<title>Node16&#45;&gt;Node11</title>
<path fill="none" stroke="midnightblue" d="M521.38,-168.48C512.39,-151.26 491.75,-110.96 476.86,-76 470.23,-60.44 463.64,-42.36 459.05,-29.22"/>
<polygon fill="midnightblue" stroke="midnightblue" points="462.27,-27.83 455.71,-19.52 455.65,-30.11 462.27,-27.83"/>
</g>
<!-- Node16&#45;&gt;Node17 -->
<g id="edge23" class="edge">
<title>Node16&#45;&gt;Node17</title>
<path fill="none" stroke="midnightblue" d="M559.89,-169.55C563.25,-168.96 566.61,-168.43 569.86,-168 820.26,-134.83 1122.35,-126.03 1244.09,-123.76"/>
<polygon fill="midnightblue" stroke="midnightblue" points="1244.34,-127.26 1254.27,-123.58 1244.21,-120.26 1244.34,-127.26"/>
</g>
<!-- Node17&#45;&gt;Node4 -->
<g id="edge25" class="edge">
<title>Node17&#45;&gt;Node4</title>
<path fill="none" stroke="midnightblue" d="M1254.14,-117.54C1141.63,-108.84 845.04,-85.89 693.24,-74.15"/>
<polygon fill="midnightblue" stroke="midnightblue" points="693.25,-70.64 683.01,-73.36 692.71,-77.62 693.25,-70.64"/>
</g>
<!-- Node18 -->
<g id="node18" class="node">
<title>Node18</title>
<g id="a_node18"><a xlink:title=" ">
<polygon fill="none" stroke="#bfbfbf" points="1252.36,-56.5 1252.36,-75.5 1345.36,-75.5 1345.36,-56.5 1252.36,-56.5"/>
<text text-anchor="middle" x="1298.86" y="-63.5" font-family="Helvetica,sans-Serif" font-size="10.00">unordered_map</text>
</a>
</g>
</g>
<!-- Node17&#45;&gt;Node18 -->
<g id="edge24" class="edge">
<title>Node17&#45;&gt;Node18</title>
<path fill="none" stroke="midnightblue" d="M1298.86,-112.08C1298.86,-105.01 1298.86,-94.86 1298.86,-85.99"/>
<polygon fill="midnightblue" stroke="midnightblue" points="1302.36,-85.75 1298.86,-75.75 1295.36,-85.75 1302.36,-85.75"/>
</g>
<!-- Node19&#45;&gt;Node10 -->
<g id="edge27" class="edge">
<title>Node19&#45;&gt;Node10</title>
<path fill="none" stroke="midnightblue" d="M189.9,-224.36C145.15,-205.4 44.28,-155.38 4.86,-76 -23.66,-18.57 93.11,-10.79 152.33,-10.44"/>
<polygon fill="midnightblue" stroke="midnightblue" points="152.66,-13.94 162.67,-10.45 152.67,-6.94 152.66,-13.94"/>
</g>
<!-- Node19&#45;&gt;Node11 -->
<g id="edge28" class="edge">
<title>Node19&#45;&gt;Node11</title>
<path fill="none" stroke="midnightblue" d="M213.88,-224.23C217.27,-210.96 225.12,-185.49 238.86,-168 292.16,-100.14 381.99,-47.55 426.39,-24.2"/>
<polygon fill="midnightblue" stroke="midnightblue" points="428.12,-27.25 435.39,-19.54 424.9,-21.03 428.12,-27.25"/>
</g>
<!-- Node19&#45;&gt;Node16 -->
<g id="edge29" class="edge">
<title>Node19&#45;&gt;Node16</title>
<path fill="none" stroke="midnightblue" d="M261.61,-224.44C322.3,-214.01 423.94,-196.53 481.88,-186.56"/>
<polygon fill="midnightblue" stroke="midnightblue" points="482.56,-190 491.82,-184.85 481.37,-183.1 482.56,-190"/>
</g>
<!-- Node19&#45;&gt;Node20 -->
<g id="edge30" class="edge">
<title>Node19&#45;&gt;Node20</title>
<path fill="none" stroke="midnightblue" d="M224.55,-224.32C236.76,-215.98 255.44,-203.21 269.86,-193.35"/>
<polygon fill="midnightblue" stroke="midnightblue" points="271.92,-196.19 278.2,-187.65 267.97,-190.41 271.92,-196.19"/>
</g>
<!-- Node20&#45;&gt;Node2 -->
<g id="edge31" class="edge">
<title>Node20&#45;&gt;Node2</title>
<path fill="none" stroke="midnightblue" d="M274.15,-168.32C257.55,-159.7 231.86,-146.36 212.64,-136.39"/>
<polygon fill="midnightblue" stroke="midnightblue" points="214.02,-133.16 203.53,-131.65 210.79,-139.37 214.02,-133.16"/>
</g>
<!-- Node20&#45;&gt;Node4 -->
<g id="edge32" class="edge">
<title>Node20&#45;&gt;Node4</title>
<path fill="none" stroke="midnightblue" d="M314.93,-168.46C369.75,-149.01 504.04,-101.36 567.11,-78.98"/>
<polygon fill="midnightblue" stroke="midnightblue" points="568.34,-82.25 576.59,-75.61 566,-75.66 568.34,-82.25"/>
</g>
<!-- Node21&#45;&gt;Node16 -->
<g id="edge34" class="edge">
<title>Node21&#45;&gt;Node16</title>
<path fill="none" stroke="midnightblue" d="M525.86,-224.08C525.86,-217.01 525.86,-206.86 525.86,-197.99"/>
<polygon fill="midnightblue" stroke="midnightblue" points="529.36,-197.75 525.86,-187.75 522.36,-197.75 529.36,-197.75"/>
</g>
<!-- Node22&#45;&gt;Node4 -->
<g id="edge36" class="edge">
<title>Node22&#45;&gt;Node4</title>
<path fill="none" stroke="midnightblue" d="M609.15,-168.37C607.7,-150.62 604.35,-109.67 602.38,-85.6"/>
<polygon fill="midnightblue" stroke="midnightblue" points="605.87,-85.27 601.56,-75.59 598.89,-85.84 605.87,-85.27"/>
</g>
<!-- Node23&#45;&gt;Node22 -->
<g id="edge38" class="edge">
<title>Node23&#45;&gt;Node22</title>
<path fill="none" stroke="midnightblue" d="M1063.13,-225.48C1058.3,-224.97 1053.51,-224.47 1048.86,-224 874.36,-206.31 829.49,-212.87 655.86,-188 654.4,-187.79 652.92,-187.57 651.42,-187.33"/>
<polygon fill="midnightblue" stroke="midnightblue" points="651.91,-183.86 641.46,-185.62 650.73,-190.76 651.91,-183.86"/>
</g>
<!-- Node24&#45;&gt;Node22 -->
<g id="edge40" class="edge">
<title>Node24&#45;&gt;Node22</title>
<path fill="none" stroke="midnightblue" d="M637.41,-224.08C632.85,-216.61 626.19,-205.72 620.57,-196.52"/>
<polygon fill="midnightblue" stroke="midnightblue" points="623.41,-194.46 615.21,-187.75 617.44,-198.11 623.41,-194.46"/>
</g>
<!-- Node25&#45;&gt;Node4 -->
<g id="edge45" class="edge">
<title>Node25&#45;&gt;Node4</title>
<path fill="none" stroke="midnightblue" d="M1259.01,-224.42C1142.67,-196.6 775.73,-108.83 646.47,-77.91"/>
<polygon fill="midnightblue" stroke="midnightblue" points="647.04,-74.45 636.5,-75.52 645.41,-81.25 647.04,-74.45"/>
</g>
<!-- Node25&#45;&gt;Node11 -->
<g id="edge44" class="edge">
<title>Node25&#45;&gt;Node11</title>
<path fill="none" stroke="midnightblue" d="M1253.31,-226.44C1201.39,-218.12 1109.87,-203.04 1031.86,-188 798.87,-143.09 714.45,-196.18 509.86,-76 490.11,-64.4 473.66,-43.54 463.58,-28.58"/>
<polygon fill="midnightblue" stroke="midnightblue" points="466.26,-26.27 457.92,-19.75 460.38,-30.06 466.26,-26.27"/>
</g>
<!-- Node25&#45;&gt;Node16 -->
<g id="edge46" class="edge">
<title>Node25&#45;&gt;Node16</title>
<path fill="none" stroke="midnightblue" d="M1253.24,-228.41C1238.31,-226.86 1221.34,-225.22 1205.86,-224 923.62,-201.75 850.62,-224.46 569.86,-188 569.76,-187.99 569.66,-187.97 569.56,-187.96"/>
<polygon fill="midnightblue" stroke="midnightblue" points="570.3,-184.53 559.89,-186.47 569.24,-191.45 570.3,-184.53"/>
</g>
<!-- Node25&#45;&gt;Node17 -->
<g id="edge48" class="edge">
<title>Node25&#45;&gt;Node17</title>
<path fill="none" stroke="midnightblue" d="M1295.17,-224.37C1295.82,-206.62 1297.31,-165.67 1298.18,-141.6"/>
<polygon fill="midnightblue" stroke="midnightblue" points="1301.68,-141.71 1298.55,-131.59 1294.69,-141.46 1301.68,-141.71"/>
</g>
<!-- Node25&#45;&gt;Node22 -->
<g id="edge47" class="edge">
<title>Node25&#45;&gt;Node22</title>
<path fill="none" stroke="midnightblue" d="M1253.33,-225.86C1248.46,-225.16 1243.56,-224.52 1238.86,-224 980.84,-195.37 913.36,-220.99 655.86,-188 654.4,-187.81 652.91,-187.61 651.41,-187.39"/>
<polygon fill="midnightblue" stroke="midnightblue" points="651.88,-183.92 641.44,-185.75 650.74,-190.82 651.88,-183.92"/>
</g>
<!-- Node26 -->
<g id="node26" class="node">
<title>Node26</title>
<g id="a_node26"><a xlink:title=" ">
<polygon fill="none" stroke="#bfbfbf" points="1217.36,-168.5 1217.36,-187.5 1270.36,-187.5 1270.36,-168.5 1217.36,-168.5"/>
<text text-anchor="middle" x="1243.86" y="-175.5" font-family="Helvetica,sans-Serif" font-size="10.00">stdlib.h</text>
</a>
</g>
</g>
<!-- Node25&#45;&gt;Node26 -->
<g id="edge43" class="edge">
<title>Node25&#45;&gt;Node26</title>
<path fill="none" stroke="midnightblue" d="M1286.44,-224.08C1279.01,-216.22 1268.01,-204.57 1259.05,-195.08"/>
<polygon fill="midnightblue" stroke="midnightblue" points="1261.54,-192.62 1252.12,-187.75 1256.45,-197.42 1261.54,-192.62"/>
</g>
<!-- Node27&#45;&gt;Node17 -->
<g id="edge51" class="edge">
<title>Node27&#45;&gt;Node17</title>
<path fill="none" stroke="midnightblue" d="M1448.66,-168.44C1418.45,-159.28 1370.35,-144.69 1336.83,-134.52"/>
<polygon fill="midnightblue" stroke="midnightblue" points="1337.52,-131.07 1326.93,-131.52 1335.49,-137.77 1337.52,-131.07"/>
</g>
<!-- Node28&#45;&gt;Node17 -->
<g id="edge53" class="edge">
<title>Node28&#45;&gt;Node17</title>
<path fill="none" stroke="midnightblue" d="M1401.15,-224.37C1382.51,-205.89 1338.51,-162.29 1314.75,-138.74"/>
<polygon fill="midnightblue" stroke="midnightblue" points="1317.1,-136.14 1307.53,-131.59 1312.17,-141.12 1317.1,-136.14"/>
</g>
<!-- Node29&#45;&gt;Node3 -->
<g id="edge55" class="edge">
<title>Node29&#45;&gt;Node3</title>
<path fill="none" stroke="midnightblue" d="M590.07,-286.04C805.88,-276.09 1500.66,-244.05 1662.8,-236.57"/>
<polygon fill="midnightblue" stroke="midnightblue" points="1663.3,-240.05 1673.13,-236.09 1662.97,-233.06 1663.3,-240.05"/>
</g>
<!-- Node29&#45;&gt;Node4 -->
<g id="edge62" class="edge">
<title>Node29&#45;&gt;Node4</title>
<path fill="none" stroke="midnightblue" d="M461.55,-285.81C360.26,-280.13 172.95,-266.66 152.86,-244 113.94,-200.1 113.5,-155.51 152.86,-112 176.23,-86.17 384.23,-74.49 508.43,-69.78"/>
<polygon fill="midnightblue" stroke="midnightblue" points="508.84,-73.27 518.7,-69.4 508.58,-66.28 508.84,-73.27"/>
</g>
<!-- Node29&#45;&gt;Node7 -->
<g id="edge56" class="edge">
<title>Node29&#45;&gt;Node7</title>
<path fill="none" stroke="midnightblue" d="M466.18,-280.43C444.43,-274.1 421.98,-263.11 408.86,-244 392.21,-219.75 423.95,-178.73 435.86,-168 525.69,-87.08 580.09,-122.1 691.86,-76 731.95,-59.46 777.27,-37.67 804.95,-24"/>
<polygon fill="midnightblue" stroke="midnightblue" points="806.57,-27.1 813.97,-19.52 803.45,-20.83 806.57,-27.1"/>
</g>
<!-- Node29&#45;&gt;Node9 -->
<g id="edge58" class="edge">
<title>Node29&#45;&gt;Node9</title>
<path fill="none" stroke="midnightblue" d="M461.66,-288.4C364.71,-286.38 186.62,-277.99 133.86,-244 105.54,-225.75 94.86,-212.69 94.86,-179 94.86,-179 94.86,-179 94.86,-121 94.86,-116 378.17,-46.64 484.86,-20.7"/>
<polygon fill="midnightblue" stroke="midnightblue" points="485.73,-24.09 494.62,-18.33 484.08,-17.29 485.73,-24.09"/>
</g>
<!-- Node29&#45;&gt;Node11 -->
<g id="edge60" class="edge">
<title>Node29&#45;&gt;Node11</title>
<path fill="none" stroke="midnightblue" d="M461.84,-286.22C350.41,-280.78 130.1,-267.22 103.86,-244 65.81,-210.32 85.34,-182.62 80.86,-132 80.08,-123.15 75.56,-119.13 80.86,-112 132.36,-42.71 183.54,-78.6 266.86,-56 319.91,-41.61 382.08,-27.02 419.42,-18.51"/>
<polygon fill="midnightblue" stroke="midnightblue" points="420.29,-21.9 429.26,-16.27 418.74,-15.07 420.29,-21.9"/>
</g>
<!-- Node29&#45;&gt;Node13 -->
<g id="edge57" class="edge">
<title>Node29&#45;&gt;Node13</title>
<path fill="none" stroke="midnightblue" d="M590.08,-283.72C663.43,-277.17 787.18,-264.49 902.58,-244.04"/>
<polygon fill="midnightblue" stroke="midnightblue" points="903.43,-247.44 912.65,-242.23 902.19,-240.55 903.43,-247.44"/>
</g>
<!-- Node29&#45;&gt;Node14 -->
<g id="edge59" class="edge">
<title>Node29&#45;&gt;Node14</title>
<path fill="none" stroke="midnightblue" d="M589.99,-281.2C649.24,-273.61 739.88,-261 827.16,-244.2"/>
<polygon fill="midnightblue" stroke="midnightblue" points="828.09,-247.58 837.23,-242.24 826.75,-240.71 828.09,-247.58"/>
</g>
<!-- Node29&#45;&gt;Node15 -->
<g id="edge61" class="edge">
<title>Node29&#45;&gt;Node15</title>
<path fill="none" stroke="midnightblue" d="M563.25,-280.44C604.25,-271.06 670.11,-255.99 714.64,-245.8"/>
<polygon fill="midnightblue" stroke="midnightblue" points="715.67,-249.16 724.64,-243.52 714.11,-242.34 715.67,-249.16"/>
</g>
<!-- Node29&#45;&gt;Node16 -->
<g id="edge63" class="edge">
<title>Node29&#45;&gt;Node16</title>
<path fill="none" stroke="midnightblue" d="M483.47,-280.45C463.28,-274.02 440.95,-262.93 428.86,-244 412.45,-218.3 448.82,-200.36 481.61,-189.93"/>
<polygon fill="midnightblue" stroke="midnightblue" points="483.03,-193.16 491.61,-186.94 481.02,-186.45 483.03,-193.16"/>
</g>
<!-- Node29&#45;&gt;Node17 -->
<g id="edge71" class="edge">
<title>Node29&#45;&gt;Node17</title>
<path fill="none" stroke="midnightblue" d="M476.09,-280.45C455.03,-274.1 432.49,-263.09 419.86,-244 391.84,-201.67 455.43,-179.3 482.86,-168 552.8,-139.18 1072.53,-127.15 1244.09,-123.93"/>
<polygon fill="midnightblue" stroke="midnightblue" points="1244.23,-127.43 1254.16,-123.75 1244.1,-120.43 1244.23,-127.43"/>
</g>
<!-- Node29&#45;&gt;Node19 -->
<g id="edge64" class="edge">
<title>Node29&#45;&gt;Node19</title>
<path fill="none" stroke="midnightblue" d="M476.11,-280.44C420.53,-270.89 330.6,-255.42 271.34,-245.23"/>
<polygon fill="midnightblue" stroke="midnightblue" points="271.83,-241.76 261.38,-243.52 270.64,-248.66 271.83,-241.76"/>
</g>
<!-- Node29&#45;&gt;Node20 -->
<g id="edge69" class="edge">
<title>Node29&#45;&gt;Node20</title>
<path fill="none" stroke="midnightblue" d="M461.66,-282.15C407.89,-275.21 336.56,-262.79 314.86,-244 301.38,-232.33 295.46,-212.38 292.87,-197.66"/>
<polygon fill="midnightblue" stroke="midnightblue" points="296.32,-197.05 291.47,-187.64 289.39,-198.03 296.32,-197.05"/>
</g>
<!-- Node29&#45;&gt;Node21 -->
<g id="edge65" class="edge">
<title>Node29&#45;&gt;Node21</title>
<path fill="none" stroke="midnightblue" d="M525.86,-280.08C525.86,-273.01 525.86,-262.86 525.86,-253.99"/>
<polygon fill="midnightblue" stroke="midnightblue" points="529.36,-253.75 525.86,-243.75 522.36,-253.75 529.36,-253.75"/>
</g>
<!-- Node29&#45;&gt;Node22 -->
<g id="edge66" class="edge">
<title>Node29&#45;&gt;Node22</title>
<path fill="none" stroke="midnightblue" d="M506.15,-280.48C481.74,-268.72 445.26,-246.39 461.86,-224 468.4,-215.18 526.97,-199.27 568.43,-188.92"/>
<polygon fill="midnightblue" stroke="midnightblue" points="569.43,-192.28 578.3,-186.48 567.75,-185.48 569.43,-192.28"/>
</g>
<!-- Node29&#45;&gt;Node23 -->
<g id="edge67" class="edge">
<title>Node29&#45;&gt;Node23</title>
<path fill="none" stroke="midnightblue" d="M589.93,-283.27C701.88,-273.26 932.64,-252.63 1053.01,-241.87"/>
<polygon fill="midnightblue" stroke="midnightblue" points="1053.6,-245.33 1063.24,-240.96 1052.97,-238.36 1053.6,-245.33"/>
</g>
<!-- Node29&#45;&gt;Node24 -->
<g id="edge68" class="edge">
<title>Node29&#45;&gt;Node24</title>
<path fill="none" stroke="midnightblue" d="M544.4,-280.44C563.48,-271.64 593.43,-257.81 615.3,-247.72"/>
<polygon fill="midnightblue" stroke="midnightblue" points="616.79,-250.88 624.41,-243.52 613.86,-244.53 616.79,-250.88"/>
</g>
<!-- Node29&#45;&gt;Node25 -->
<g id="edge70" class="edge">
<title>Node29&#45;&gt;Node25</title>
<path fill="none" stroke="midnightblue" d="M590.14,-285.49C710.88,-278.74 979.78,-262.91 1205.86,-244 1217.95,-242.99 1230.95,-241.76 1243.18,-240.53"/>
<polygon fill="midnightblue" stroke="midnightblue" points="1243.64,-244 1253.23,-239.51 1242.93,-237.04 1243.64,-244"/>
</g>
<!-- Node29&#45;&gt;Node28 -->
<g id="edge72" class="edge">
<title>Node29&#45;&gt;Node28</title>
<path fill="none" stroke="midnightblue" d="M590.06,-287.33C726.82,-283.37 1057.21,-271.68 1344.53,-244.04"/>
<polygon fill="midnightblue" stroke="midnightblue" points="1345.12,-247.5 1354.74,-243.05 1344.45,-240.54 1345.12,-247.5"/>
</g>
</g>
</svg>
