<?xml version="1.0" encoding="UTF-8" standalone="no"?>
<!DOCTYPE svg PUBLIC "-//W3C//DTD SVG 1.1//EN"
 "http://www.w3.org/Graphics/SVG/1.1/DTD/svg11.dtd">
<!-- Generated by graphviz version 2.43.0 (0)
 -->
<!-- Title: src/main_multithread.cpp Pages: 1 -->
<svg width="1395pt" height="330pt"
 viewBox="0.00 0.00 1395.00 330.00" xmlns="http://www.w3.org/2000/svg" xmlns:xlink="http://www.w3.org/1999/xlink">
<g id="graph0" class="graph" transform="scale(1 1) rotate(0) translate(4 326)">
<title>src/main_multithread.cpp</title>
<!-- Node1 -->
<g id="node1" class="node">
<title>Node1</title>
<g id="a_node1"><a xlink:title=" ">
<polygon fill="#bfbfbf" stroke="black" points="532,-302.5 532,-321.5 673,-321.5 673,-302.5 532,-302.5"/>
<text text-anchor="middle" x="602.5" y="-309.5" font-family="Helvetica,sans-Serif" font-size="10.00">src/main_multithread.cpp</text>
</a>
</g>
</g>
<!-- Node2 -->
<g id="node2" class="node">
<title>Node2</title>
<g id="a_node2"><a xlink:title=" ">
<polygon fill="none" stroke="#bfbfbf" points="0,-241 0,-260 47,-260 47,-241 0,-241"/>
<text text-anchor="middle" x="23.5" y="-248" font-family="Helvetica,sans-Serif" font-size="10.00">omp.h</text>
</a>
</g>
</g>
<!-- Node1&#45;&gt;Node2 -->
<g id="edge1" class="edge">
<title>Node1&#45;&gt;Node2</title>
<path fill="none" stroke="midnightblue" d="M531.94,-311.41C427.73,-310.62 227.15,-303.7 61.5,-266 58.5,-265.32 55.42,-264.45 52.37,-263.47"/>
<polygon fill="midnightblue" stroke="midnightblue" points="53.49,-260.15 42.9,-260.1 51.15,-266.75 53.49,-260.15"/>
</g>
<!-- Node3 -->
<g id="node3" class="node">
<title>Node3</title>
<g id="a_node3"><a xlink:title=" ">
<polygon fill="none" stroke="#bfbfbf" points="121,-0.5 121,-19.5 168,-19.5 168,-0.5 121,-0.5"/>
<text text-anchor="middle" x="144.5" y="-7.5" font-family="Helvetica,sans-Serif" font-size="10.00">cmath</text>
</a>
</g>
</g>
<!-- Node1&#45;&gt;Node3 -->
<g id="edge2" class="edge">
<title>Node1&#45;&gt;Node3</title>
<path fill="none" stroke="midnightblue" d="M531.97,-309.28C400.17,-305.41 126.82,-294.06 94.5,-266 66.42,-241.61 75.5,-221.69 75.5,-184.5 75.5,-184.5 75.5,-184.5 75.5,-121 75.5,-82.39 106.38,-46.21 126.83,-26.49"/>
<polygon fill="midnightblue" stroke="midnightblue" points="129.37,-28.9 134.32,-19.54 124.61,-23.77 129.37,-28.9"/>
</g>
<!-- Node4 -->
<g id="node4" class="node">
<title>Node4</title>
<g id="a_node4"><a xlink:title=" ">
<polygon fill="none" stroke="#bfbfbf" points="103.5,-241 103.5,-260 159.5,-260 159.5,-241 103.5,-241"/>
<text text-anchor="middle" x="131.5" y="-248" font-family="Helvetica,sans-Serif" font-size="10.00">iomanip</text>
</a>
</g>
</g>
<!-- Node1&#45;&gt;Node4 -->
<g id="edge3" class="edge">
<title>Node1&#45;&gt;Node4</title>
<path fill="none" stroke="midnightblue" d="M531.86,-308.52C446.18,-304.38 297.78,-293.59 173.5,-266 170.08,-265.24 166.56,-264.3 163.07,-263.25"/>
<polygon fill="midnightblue" stroke="midnightblue" points="164.05,-259.89 153.46,-260.14 161.89,-266.55 164.05,-259.89"/>
</g>
<!-- Node5 -->
<g id="node5" class="node">
<title>Node5</title>
<g id="a_node5"><a xlink:title=" ">
<polygon fill="none" stroke="#bfbfbf" points="289.5,-0.5 289.5,-19.5 349.5,-19.5 349.5,-0.5 289.5,-0.5"/>
<text text-anchor="middle" x="319.5" y="-7.5" font-family="Helvetica,sans-Serif" font-size="10.00">iostream</text>
</a>
</g>
</g>
<!-- Node1&#45;&gt;Node5 -->
<g id="edge4" class="edge">
<title>Node1&#45;&gt;Node5</title>
<path fill="none" stroke="midnightblue" d="M531.79,-307.35C424.45,-301.15 230.27,-287.17 206.5,-266 178.72,-241.27 187.5,-221.69 187.5,-184.5 187.5,-184.5 187.5,-184.5 187.5,-121 187.5,-70.81 244.51,-39.08 283.6,-23.22"/>
<polygon fill="midnightblue" stroke="midnightblue" points="285.05,-26.42 293.11,-19.53 282.52,-19.89 285.05,-26.42"/>
</g>
<!-- Node6 -->
<g id="node6" class="node">
<title>Node6</title>
<g id="a_node6"><a xlink:title=" ">
<polygon fill="none" stroke="#bfbfbf" points="216,-241 216,-260 273,-260 273,-241 216,-241"/>
<text text-anchor="middle" x="244.5" y="-248" font-family="Helvetica,sans-Serif" font-size="10.00">ostream</text>
</a>
</g>
</g>
<!-- Node1&#45;&gt;Node6 -->
<g id="edge5" class="edge">
<title>Node1&#45;&gt;Node6</title>
<path fill="none" stroke="midnightblue" d="M531.75,-304.64C467.44,-297.98 370.26,-285.69 287.5,-266 284.1,-265.19 280.59,-264.23 277.11,-263.19"/>
<polygon fill="midnightblue" stroke="midnightblue" points="278.07,-259.82 267.48,-260.12 275.94,-266.49 278.07,-259.82"/>
</g>
<!-- Node7 -->
<g id="node7" class="node">
<title>Node7</title>
<g id="a_node7"><a xlink:title=" ">
<polygon fill="none" stroke="#bfbfbf" points="796,-0.5 796,-19.5 843,-19.5 843,-0.5 796,-0.5"/>
<text text-anchor="middle" x="819.5" y="-7.5" font-family="Helvetica,sans-Serif" font-size="10.00">vector</text>
</a>
</g>
</g>
<!-- Node1&#45;&gt;Node7 -->
<g id="edge6" class="edge">
<title>Node1&#45;&gt;Node7</title>
<path fill="none" stroke="midnightblue" d="M673.18,-310.89C809.76,-309.82 1104.74,-303.14 1198.5,-266 1252.13,-244.76 1299.5,-242.18 1299.5,-184.5 1299.5,-184.5 1299.5,-184.5 1299.5,-121 1299.5,-29.37 962.94,-14.06 853.46,-11.51"/>
<polygon fill="midnightblue" stroke="midnightblue" points="853.38,-8.01 843.3,-11.3 853.23,-15.01 853.38,-8.01"/>
</g>
<!-- Node8 -->
<g id="node8" class="node">
<title>Node8</title>
<g id="a_node8"><a xlink:href="definitions_8hpp.html" target="_top" xlink:title=" ">
<polygon fill="none" stroke="black" points="522.5,-56.5 522.5,-75.5 688.5,-75.5 688.5,-56.5 522.5,-56.5"/>
<text text-anchor="middle" x="605.5" y="-63.5" font-family="Helvetica,sans-Serif" font-size="10.00">nmbuflowtorch/definitions.hpp</text>
</a>
</g>
</g>
<!-- Node1&#45;&gt;Node8 -->
<g id="edge7" class="edge">
<title>Node1&#45;&gt;Node8</title>
<path fill="none" stroke="midnightblue" d="M531.92,-308.46C464.5,-304.38 369.78,-293.73 346.5,-266 289.29,-197.86 315.72,-204.37 463.5,-112 489.48,-95.76 521.82,-84.92 549.07,-77.95"/>
<polygon fill="midnightblue" stroke="midnightblue" points="549.98,-81.33 558.86,-75.56 548.31,-74.53 549.98,-81.33"/>
</g>
<!-- Node13 -->
<g id="node13" class="node">
<title>Node13</title>
<g id="a_node13"><a xlink:href="layer_8hpp.html" target="_top" xlink:title=" ">
<polygon fill="none" stroke="black" points="750,-174 750,-193 889,-193 889,-174 750,-174"/>
<text text-anchor="middle" x="819.5" y="-181" font-family="Helvetica,sans-Serif" font-size="10.00">nmbuflowtorch/layer.hpp</text>
</a>
</g>
</g>
<!-- Node1&#45;&gt;Node13 -->
<g id="edge15" class="edge">
<title>Node1&#45;&gt;Node13</title>
<path fill="none" stroke="midnightblue" d="M673.33,-311.76C760.07,-311 899.56,-303.73 932.5,-266 959.14,-235.49 902.58,-210.02 860.26,-196.05"/>
<polygon fill="midnightblue" stroke="midnightblue" points="861.27,-192.7 850.68,-193 859.15,-199.37 861.27,-192.7"/>
</g>
<!-- Node14 -->
<g id="node14" class="node">
<title>Node14</title>
<g id="a_node14"><a xlink:href="optimizer_8hpp.html" target="_top" xlink:title=" ">
<polygon fill="none" stroke="black" points="910.5,-112.5 910.5,-131.5 1000.5,-131.5 1000.5,-112.5 910.5,-112.5"/>
<text text-anchor="middle" x="955.5" y="-119.5" font-family="Helvetica,sans-Serif" font-size="10.00">./optimizer.hpp</text>
</a>
</g>
</g>
<!-- Node1&#45;&gt;Node14 -->
<g id="edge44" class="edge">
<title>Node1&#45;&gt;Node14</title>
<path fill="none" stroke="midnightblue" d="M673.24,-310.32C812.48,-308.25 1111.35,-299.86 1142.5,-266 1151.83,-255.86 1148.87,-247.22 1142.5,-235 1113.72,-179.83 1044.76,-149.32 999.11,-134.56"/>
<polygon fill="midnightblue" stroke="midnightblue" points="1000.05,-131.19 989.47,-131.56 997.98,-137.87 1000.05,-131.19"/>
</g>
<!-- Node16 -->
<g id="node16" class="node">
<title>Node16</title>
<g id="a_node16"><a xlink:href="dense_8hpp.html" target="_top" xlink:title=" ">
<polygon fill="none" stroke="black" points="367.5,-235.5 367.5,-265.5 485.5,-265.5 485.5,-235.5 367.5,-235.5"/>
<text text-anchor="start" x="375.5" y="-253.5" font-family="Helvetica,sans-Serif" font-size="10.00">nmbuflowtorch/layer</text>
<text text-anchor="middle" x="426.5" y="-242.5" font-family="Helvetica,sans-Serif" font-size="10.00">/dense.hpp</text>
</a>
</g>
</g>
<!-- Node1&#45;&gt;Node16 -->
<g id="edge21" class="edge">
<title>Node1&#45;&gt;Node16</title>
<path fill="none" stroke="midnightblue" d="M577.28,-302.48C551.44,-293.74 510.53,-279.91 477.84,-268.86"/>
<polygon fill="midnightblue" stroke="midnightblue" points="478.57,-265.41 467.98,-265.52 476.33,-272.04 478.57,-265.41"/>
</g>
<!-- Node17 -->
<g id="node17" class="node">
<title>Node17</title>
<g id="a_node17"><a xlink:href="math__m_8hpp.html" target="_top" xlink:title=" ">
<polygon fill="none" stroke="black" points="454,-174 454,-193 541,-193 541,-174 454,-174"/>
<text text-anchor="middle" x="497.5" y="-181" font-family="Helvetica,sans-Serif" font-size="10.00">../math_m.hpp</text>
</a>
</g>
</g>
<!-- Node1&#45;&gt;Node17 -->
<g id="edge36" class="edge">
<title>Node1&#45;&gt;Node17</title>
<path fill="none" stroke="midnightblue" d="M531.87,-307.74C467.84,-303.13 380.24,-292.11 358.5,-266 329.39,-231.03 393.39,-207.6 443.93,-195.16"/>
<polygon fill="midnightblue" stroke="midnightblue" points="444.9,-198.52 453.82,-192.82 443.28,-191.71 444.9,-198.52"/>
</g>
<!-- Node19 -->
<g id="node19" class="node">
<title>Node19</title>
<g id="a_node19"><a xlink:href="sigmoid_8hpp.html" target="_top" xlink:title=" ">
<polygon fill="none" stroke="black" points="805.5,-235.5 805.5,-265.5 923.5,-265.5 923.5,-235.5 805.5,-235.5"/>
<text text-anchor="start" x="813.5" y="-253.5" font-family="Helvetica,sans-Serif" font-size="10.00">nmbuflowtorch/layer</text>
<text text-anchor="middle" x="864.5" y="-242.5" font-family="Helvetica,sans-Serif" font-size="10.00">/sigmoid.hpp</text>
</a>
</g>
</g>
<!-- Node1&#45;&gt;Node19 -->
<g id="edge28" class="edge">
<title>Node1&#45;&gt;Node19</title>
<path fill="none" stroke="midnightblue" d="M640.04,-302.48C680.41,-293.31 745.5,-278.52 795.22,-267.23"/>
<polygon fill="midnightblue" stroke="midnightblue" points="796.28,-270.58 805.26,-264.95 794.73,-263.75 796.28,-270.58"/>
</g>
<!-- Node20 -->
<g id="node20" class="node">
<title>Node20</title>
<g id="a_node20"><a xlink:href="loss_8hpp.html" target="_top" xlink:title=" ">
<polygon fill="none" stroke="black" points="597.5,-174 597.5,-193 731.5,-193 731.5,-174 597.5,-174"/>
<text text-anchor="middle" x="664.5" y="-181" font-family="Helvetica,sans-Serif" font-size="10.00">nmbuflowtorch/loss.hpp</text>
</a>
</g>
</g>
<!-- Node1&#45;&gt;Node20 -->
<g id="edge30" class="edge">
<title>Node1&#45;&gt;Node20</title>
<path fill="none" stroke="midnightblue" d="M607.24,-302.44C612.18,-293.44 620.09,-278.83 626.5,-266 637.26,-244.46 648.84,-219.3 656.36,-202.69"/>
<polygon fill="midnightblue" stroke="midnightblue" points="659.74,-203.69 660.66,-193.14 653.36,-200.82 659.74,-203.69"/>
</g>
<!-- Node21 -->
<g id="node21" class="node">
<title>Node21</title>
<g id="a_node21"><a xlink:href="cross__entropy_8hpp.html" target="_top" xlink:title=" ">
<polygon fill="none" stroke="black" points="674,-235.5 674,-265.5 787,-265.5 787,-235.5 674,-235.5"/>
<text text-anchor="start" x="682" y="-253.5" font-family="Helvetica,sans-Serif" font-size="10.00">nmbuflowtorch/loss</text>
<text text-anchor="middle" x="730.5" y="-242.5" font-family="Helvetica,sans-Serif" font-size="10.00">/cross_entropy.hpp</text>
</a>
</g>
</g>
<!-- Node1&#45;&gt;Node21 -->
<g id="edge32" class="edge">
<title>Node1&#45;&gt;Node21</title>
<path fill="none" stroke="midnightblue" d="M620.84,-302.48C639.07,-294 667.6,-280.74 691,-269.86"/>
<polygon fill="midnightblue" stroke="midnightblue" points="692.74,-272.91 700.33,-265.52 689.79,-266.56 692.74,-272.91"/>
</g>
<!-- Node22 -->
<g id="node22" class="node">
<title>Node22</title>
<g id="a_node22"><a xlink:href="mse_8hpp.html" target="_top" xlink:title=" ">
<polygon fill="none" stroke="black" points="504,-235.5 504,-265.5 617,-265.5 617,-235.5 504,-235.5"/>
<text text-anchor="start" x="512" y="-253.5" font-family="Helvetica,sans-Serif" font-size="10.00">nmbuflowtorch/loss</text>
<text text-anchor="middle" x="560.5" y="-242.5" font-family="Helvetica,sans-Serif" font-size="10.00">/mse.hpp</text>
</a>
</g>
</g>
<!-- Node1&#45;&gt;Node22 -->
<g id="edge34" class="edge">
<title>Node1&#45;&gt;Node22</title>
<path fill="none" stroke="midnightblue" d="M596.48,-302.48C591.22,-295.02 583.34,-283.85 576.29,-273.87"/>
<polygon fill="midnightblue" stroke="midnightblue" points="579.02,-271.67 570.4,-265.52 573.31,-275.71 579.02,-271.67"/>
</g>
<!-- Node23 -->
<g id="node23" class="node">
<title>Node23</title>
<g id="a_node23"><a xlink:href="network_8hpp.html" target="_top" xlink:title=" ">
<polygon fill="none" stroke="black" points="979.5,-241 979.5,-260 1133.5,-260 1133.5,-241 979.5,-241"/>
<text text-anchor="middle" x="1056.5" y="-248" font-family="Helvetica,sans-Serif" font-size="10.00">nmbuflowtorch/network.hpp</text>
</a>
</g>
</g>
<!-- Node1&#45;&gt;Node23 -->
<g id="edge37" class="edge">
<title>Node1&#45;&gt;Node23</title>
<path fill="none" stroke="midnightblue" d="M673.2,-302.97C746.43,-294.48 864.11,-280.36 965.5,-266 975.02,-264.65 985.09,-263.14 994.92,-261.61"/>
<polygon fill="midnightblue" stroke="midnightblue" points="995.72,-265.03 1005.05,-260.02 994.63,-258.11 995.72,-265.03"/>
</g>
<!-- Node25 -->
<g id="node25" class="node">
<title>Node25</title>
<g id="a_node25"><a xlink:href="sgd_8hpp.html" target="_top" xlink:title=" ">
<polygon fill="none" stroke="black" points="1131.5,-168.5 1131.5,-198.5 1271.5,-198.5 1271.5,-168.5 1131.5,-168.5"/>
<text text-anchor="start" x="1139.5" y="-186.5" font-family="Helvetica,sans-Serif" font-size="10.00">nmbuflowtorch/optimizer</text>
<text text-anchor="middle" x="1201.5" y="-175.5" font-family="Helvetica,sans-Serif" font-size="10.00">/sgd.hpp</text>
</a>
</g>
</g>
<!-- Node1&#45;&gt;Node25 -->
<g id="edge45" class="edge">
<title>Node1&#45;&gt;Node25</title>
<path fill="none" stroke="midnightblue" d="M673.09,-309.81C817.62,-306.74 1136.94,-296.56 1175.5,-266 1192.62,-252.43 1198.65,-227.54 1200.68,-208.82"/>
<polygon fill="midnightblue" stroke="midnightblue" points="1204.19,-208.89 1201.47,-198.65 1197.21,-208.35 1204.19,-208.89"/>
</g>
<!-- Node26 -->
<g id="node26" class="node">
<title>Node26</title>
<g id="a_node26"><a xlink:title=" ">
<polygon fill="none" stroke="#bfbfbf" points="1328,-241 1328,-260 1387,-260 1387,-241 1328,-241"/>
<text text-anchor="middle" x="1357.5" y="-248" font-family="Helvetica,sans-Serif" font-size="10.00">complex</text>
</a>
</g>
</g>
<!-- Node1&#45;&gt;Node26 -->
<g id="edge47" class="edge">
<title>Node1&#45;&gt;Node26</title>
<path fill="none" stroke="midnightblue" d="M673.12,-308.82C827.78,-303.67 1192.29,-289.41 1313.5,-266 1317.47,-265.23 1321.58,-264.21 1325.63,-263.05"/>
<polygon fill="midnightblue" stroke="midnightblue" points="1326.91,-266.32 1335.41,-260 1324.82,-259.64 1326.91,-266.32"/>
</g>
<!-- Node8&#45;&gt;Node3 -->
<g id="edge10" class="edge">
<title>Node8&#45;&gt;Node3</title>
<path fill="none" stroke="midnightblue" d="M532.71,-56.47C431.62,-44.63 252.79,-23.69 178.42,-14.97"/>
<polygon fill="midnightblue" stroke="midnightblue" points="178.57,-11.47 168.23,-13.78 177.75,-18.42 178.57,-11.47"/>
</g>
<!-- Node8&#45;&gt;Node5 -->
<g id="edge12" class="edge">
<title>Node8&#45;&gt;Node5</title>
<path fill="none" stroke="midnightblue" d="M560.18,-56.44C504.96,-46.02 412.5,-28.56 359.7,-18.59"/>
<polygon fill="midnightblue" stroke="midnightblue" points="360.17,-15.12 349.69,-16.7 358.87,-21.99 360.17,-15.12"/>
</g>
<!-- Node8&#45;&gt;Node7 -->
<g id="edge14" class="edge">
<title>Node8&#45;&gt;Node7</title>
<path fill="none" stroke="midnightblue" d="M639.41,-56.44C679.63,-46.29 746.25,-29.48 786.2,-19.4"/>
<polygon fill="midnightblue" stroke="midnightblue" points="787.16,-22.77 796,-16.93 785.44,-15.98 787.16,-22.77"/>
</g>
<!-- Node9 -->
<g id="node9" class="node">
<title>Node9</title>
<g id="a_node9"><a xlink:title=" ">
<polygon fill="none" stroke="#bfbfbf" points="492.5,-0.5 492.5,-19.5 548.5,-19.5 548.5,-0.5 492.5,-0.5"/>
<text text-anchor="middle" x="520.5" y="-7.5" font-family="Helvetica,sans-Serif" font-size="10.00">unistd.h</text>
</a>
</g>
</g>
<!-- Node8&#45;&gt;Node9 -->
<g id="edge8" class="edge">
<title>Node8&#45;&gt;Node9</title>
<path fill="none" stroke="midnightblue" d="M591.84,-56.32C578.58,-47.9 558.23,-34.97 542.65,-25.07"/>
<polygon fill="midnightblue" stroke="midnightblue" points="544.44,-22.06 534.12,-19.65 540.69,-27.97 544.44,-22.06"/>
</g>
<!-- Node10 -->
<g id="node10" class="node">
<title>Node10</title>
<g id="a_node10"><a xlink:title=" ">
<polygon fill="none" stroke="#bfbfbf" points="567,-0.5 567,-19.5 644,-19.5 644,-0.5 567,-0.5"/>
<text text-anchor="middle" x="605.5" y="-7.5" font-family="Helvetica,sans-Serif" font-size="10.00">Eigen/Dense</text>
</a>
</g>
</g>
<!-- Node8&#45;&gt;Node10 -->
<g id="edge9" class="edge">
<title>Node8&#45;&gt;Node10</title>
<path fill="none" stroke="midnightblue" d="M605.5,-56.08C605.5,-49.01 605.5,-38.86 605.5,-29.99"/>
<polygon fill="midnightblue" stroke="midnightblue" points="609,-29.75 605.5,-19.75 602,-29.75 609,-29.75"/>
</g>
<!-- Node11 -->
<g id="node11" class="node">
<title>Node11</title>
<g id="a_node11"><a xlink:title=" ">
<polygon fill="none" stroke="#bfbfbf" points="662.5,-0.5 662.5,-19.5 708.5,-19.5 708.5,-0.5 662.5,-0.5"/>
<text text-anchor="middle" x="685.5" y="-7.5" font-family="Helvetica,sans-Serif" font-size="10.00">cstdio</text>
</a>
</g>
</g>
<!-- Node8&#45;&gt;Node11 -->
<g id="edge11" class="edge">
<title>Node8&#45;&gt;Node11</title>
<path fill="none" stroke="midnightblue" d="M618.35,-56.32C630.72,-47.98 649.63,-35.21 664.24,-25.35"/>
<polygon fill="midnightblue" stroke="midnightblue" points="666.35,-28.15 672.68,-19.65 662.43,-22.35 666.35,-28.15"/>
</g>
<!-- Node12 -->
<g id="node12" class="node">
<title>Node12</title>
<g id="a_node12"><a xlink:title=" ">
<polygon fill="none" stroke="#bfbfbf" points="418.5,-0.5 418.5,-19.5 462.5,-19.5 462.5,-0.5 418.5,-0.5"/>
<text text-anchor="middle" x="440.5" y="-7.5" font-family="Helvetica,sans-Serif" font-size="10.00">string</text>
</a>
</g>
</g>
<!-- Node8&#45;&gt;Node12 -->
<g id="edge13" class="edge">
<title>Node8&#45;&gt;Node12</title>
<path fill="none" stroke="midnightblue" d="M579.36,-56.44C550.25,-46.92 503.21,-31.52 472.07,-21.33"/>
<polygon fill="midnightblue" stroke="midnightblue" points="473.15,-18 462.56,-18.22 470.98,-24.66 473.15,-18"/>
</g>
<!-- Node13&#45;&gt;Node7 -->
<g id="edge16" class="edge">
<title>Node13&#45;&gt;Node7</title>
<path fill="none" stroke="midnightblue" d="M819.5,-173.76C819.5,-147.15 819.5,-66.71 819.5,-29.84"/>
<polygon fill="midnightblue" stroke="midnightblue" points="823,-29.52 819.5,-19.52 816,-29.52 823,-29.52"/>
</g>
<!-- Node13&#45;&gt;Node8 -->
<g id="edge17" class="edge">
<title>Node13&#45;&gt;Node8</title>
<path fill="none" stroke="midnightblue" d="M802.6,-173.88C783.19,-163.93 750.42,-147.02 722.5,-132 690.13,-114.58 653.08,-93.87 629.5,-80.59"/>
<polygon fill="midnightblue" stroke="midnightblue" points="631,-77.41 620.57,-75.55 627.56,-83.51 631,-77.41"/>
</g>
<!-- Node13&#45;&gt;Node14 -->
<g id="edge18" class="edge">
<title>Node13&#45;&gt;Node14</title>
<path fill="none" stroke="midnightblue" d="M838.99,-173.98C861.91,-163.95 900.19,-147.2 926.58,-135.65"/>
<polygon fill="midnightblue" stroke="midnightblue" points="928.29,-138.72 936.05,-131.51 925.49,-132.31 928.29,-138.72"/>
</g>
<!-- Node14&#45;&gt;Node8 -->
<g id="edge20" class="edge">
<title>Node14&#45;&gt;Node8</title>
<path fill="none" stroke="midnightblue" d="M910.46,-114.05C849.57,-104.66 740.6,-87.84 670.75,-77.07"/>
<polygon fill="midnightblue" stroke="midnightblue" points="671.16,-73.59 660.74,-75.52 670.09,-80.51 671.16,-73.59"/>
</g>
<!-- Node15 -->
<g id="node15" class="node">
<title>Node15</title>
<g id="a_node15"><a xlink:title=" ">
<polygon fill="none" stroke="#bfbfbf" points="909,-56.5 909,-75.5 1002,-75.5 1002,-56.5 909,-56.5"/>
<text text-anchor="middle" x="955.5" y="-63.5" font-family="Helvetica,sans-Serif" font-size="10.00">unordered_map</text>
</a>
</g>
</g>
<!-- Node14&#45;&gt;Node15 -->
<g id="edge19" class="edge">
<title>Node14&#45;&gt;Node15</title>
<path fill="none" stroke="midnightblue" d="M955.5,-112.08C955.5,-105.01 955.5,-94.86 955.5,-85.99"/>
<polygon fill="midnightblue" stroke="midnightblue" points="959,-85.75 955.5,-75.75 952,-85.75 959,-85.75"/>
</g>
<!-- Node16&#45;&gt;Node7 -->
<g id="edge22" class="edge">
<title>Node16&#45;&gt;Node7</title>
<path fill="none" stroke="midnightblue" d="M469.89,-235.43C494.4,-226.61 525.11,-214.06 550.5,-199 569.24,-187.88 571.03,-181.03 588.5,-168 663.13,-112.36 755.74,-51.88 797.39,-25.11"/>
<polygon fill="midnightblue" stroke="midnightblue" points="799.41,-27.97 805.93,-19.63 795.63,-22.08 799.41,-27.97"/>
</g>
<!-- Node16&#45;&gt;Node12 -->
<g id="edge23" class="edge">
<title>Node16&#45;&gt;Node12</title>
<path fill="none" stroke="midnightblue" d="M427.33,-235.29C429.73,-194.43 436.65,-76.55 439.38,-30.12"/>
<polygon fill="midnightblue" stroke="midnightblue" points="442.88,-30.13 439.97,-19.95 435.89,-29.72 442.88,-30.13"/>
</g>
<!-- Node16&#45;&gt;Node13 -->
<g id="edge24" class="edge">
<title>Node16&#45;&gt;Node13</title>
<path fill="none" stroke="midnightblue" d="M485.55,-236.84C488.91,-236.2 492.25,-235.58 495.5,-235 603.85,-215.67 631.91,-216.94 740.5,-199 748.24,-197.72 756.39,-196.31 764.4,-194.87"/>
<polygon fill="midnightblue" stroke="midnightblue" points="765.21,-198.28 774.43,-193.06 763.97,-191.39 765.21,-198.28"/>
</g>
<!-- Node16&#45;&gt;Node17 -->
<g id="edge25" class="edge">
<title>Node16&#45;&gt;Node17</title>
<path fill="none" stroke="midnightblue" d="M441.91,-235.4C453.31,-224.96 468.83,-210.75 480.57,-200"/>
<polygon fill="midnightblue" stroke="midnightblue" points="482.99,-202.53 488,-193.19 478.26,-197.37 482.99,-202.53"/>
</g>
<!-- Node17&#45;&gt;Node8 -->
<g id="edge27" class="edge">
<title>Node17&#45;&gt;Node8</title>
<path fill="none" stroke="midnightblue" d="M505.62,-173.82C523.6,-154.59 567.03,-108.14 590.25,-83.31"/>
<polygon fill="midnightblue" stroke="midnightblue" points="593.01,-85.48 597.29,-75.78 587.9,-80.7 593.01,-85.48"/>
</g>
<!-- Node18 -->
<g id="node18" class="node">
<title>Node18</title>
<g id="a_node18"><a xlink:title=" ">
<polygon fill="none" stroke="#bfbfbf" points="472,-112.5 472,-131.5 523,-131.5 523,-112.5 472,-112.5"/>
<text text-anchor="middle" x="497.5" y="-119.5" font-family="Helvetica,sans-Serif" font-size="10.00">cblas.h</text>
</a>
</g>
</g>
<!-- Node17&#45;&gt;Node18 -->
<g id="edge26" class="edge">
<title>Node17&#45;&gt;Node18</title>
<path fill="none" stroke="midnightblue" d="M497.5,-173.98C497.5,-165.58 497.5,-152.48 497.5,-141.66"/>
<polygon fill="midnightblue" stroke="midnightblue" points="501,-141.51 497.5,-131.51 494,-141.51 501,-141.51"/>
</g>
<!-- Node19&#45;&gt;Node13 -->
<g id="edge29" class="edge">
<title>Node19&#45;&gt;Node13</title>
<path fill="none" stroke="midnightblue" d="M854.74,-235.4C847.86,-225.46 838.61,-212.11 831.32,-201.57"/>
<polygon fill="midnightblue" stroke="midnightblue" points="834.09,-199.42 825.52,-193.19 828.33,-203.41 834.09,-199.42"/>
</g>
<!-- Node20&#45;&gt;Node8 -->
<g id="edge31" class="edge">
<title>Node20&#45;&gt;Node8</title>
<path fill="none" stroke="midnightblue" d="M660.07,-173.82C650.46,-155.01 627.54,-110.15 614.67,-84.96"/>
<polygon fill="midnightblue" stroke="midnightblue" points="617.65,-83.1 609.99,-75.78 611.42,-86.28 617.65,-83.1"/>
</g>
<!-- Node21&#45;&gt;Node20 -->
<g id="edge33" class="edge">
<title>Node21&#45;&gt;Node20</title>
<path fill="none" stroke="midnightblue" d="M716.18,-235.4C705.68,-225.06 691.43,-211.02 680.55,-200.31"/>
<polygon fill="midnightblue" stroke="midnightblue" points="682.91,-197.72 673.33,-193.19 678,-202.71 682.91,-197.72"/>
</g>
<!-- Node22&#45;&gt;Node20 -->
<g id="edge35" class="edge">
<title>Node22&#45;&gt;Node20</title>
<path fill="none" stroke="midnightblue" d="M583.07,-235.4C600.51,-224.5 624.53,-209.48 641.97,-198.58"/>
<polygon fill="midnightblue" stroke="midnightblue" points="644.26,-201.28 650.89,-193.01 640.55,-195.34 644.26,-201.28"/>
</g>
<!-- Node23&#45;&gt;Node7 -->
<g id="edge39" class="edge">
<title>Node23&#45;&gt;Node7</title>
<path fill="none" stroke="midnightblue" d="M1057.5,-240.94C1060.53,-210.56 1066.31,-106.97 1011.5,-56 988.78,-34.88 902.03,-21.11 853.28,-14.87"/>
<polygon fill="midnightblue" stroke="midnightblue" points="853.55,-11.38 843.2,-13.62 852.69,-18.32 853.55,-11.38"/>
</g>
<!-- Node23&#45;&gt;Node8 -->
<g id="edge40" class="edge">
<title>Node23&#45;&gt;Node8</title>
<path fill="none" stroke="midnightblue" d="M1039.09,-240.86C1019.09,-230.9 985.32,-213.98 956.5,-199 930.56,-185.52 925.29,-179.69 898.5,-168 810.11,-129.43 701.86,-95.36 644.89,-78.39"/>
<polygon fill="midnightblue" stroke="midnightblue" points="645.78,-75.01 635.2,-75.53 643.79,-81.72 645.78,-75.01"/>
</g>
<!-- Node23&#45;&gt;Node13 -->
<g id="edge41" class="edge">
<title>Node23&#45;&gt;Node13</title>
<path fill="none" stroke="midnightblue" d="M1025.03,-240.87C982.68,-229.25 907.28,-208.58 860.53,-195.75"/>
<polygon fill="midnightblue" stroke="midnightblue" points="861.29,-192.33 850.72,-193.06 859.44,-199.08 861.29,-192.33"/>
</g>
<!-- Node23&#45;&gt;Node14 -->
<g id="edge43" class="edge">
<title>Node23&#45;&gt;Node14</title>
<path fill="none" stroke="midnightblue" d="M1033.93,-240.99C1015.53,-232.91 990.25,-219.01 975.5,-199 963.13,-182.23 958.4,-158.41 956.6,-141.93"/>
<polygon fill="midnightblue" stroke="midnightblue" points="960.08,-141.54 955.76,-131.87 953.1,-142.12 960.08,-141.54"/>
</g>
<!-- Node23&#45;&gt;Node20 -->
<g id="edge42" class="edge">
<title>Node23&#45;&gt;Node20</title>
<path fill="none" stroke="midnightblue" d="M1000.38,-240.97C937.32,-231.28 831.94,-214.76 741.5,-199 734.14,-197.72 726.39,-196.32 718.76,-194.91"/>
<polygon fill="midnightblue" stroke="midnightblue" points="719.32,-191.45 708.84,-193.06 718.04,-198.33 719.32,-191.45"/>
</g>
<!-- Node24 -->
<g id="node24" class="node">
<title>Node24</title>
<g id="a_node24"><a xlink:title=" ">
<polygon fill="none" stroke="#bfbfbf" points="984,-174 984,-193 1037,-193 1037,-174 984,-174"/>
<text text-anchor="middle" x="1010.5" y="-181" font-family="Helvetica,sans-Serif" font-size="10.00">stdlib.h</text>
</a>
</g>
</g>
<!-- Node23&#45;&gt;Node24 -->
<g id="edge38" class="edge">
<title>Node23&#45;&gt;Node24</title>
<path fill="none" stroke="midnightblue" d="M1050.3,-240.73C1043.19,-230.7 1031.39,-214.01 1022.48,-201.42"/>
<polygon fill="midnightblue" stroke="midnightblue" points="1025.24,-199.27 1016.61,-193.13 1019.53,-203.31 1025.24,-199.27"/>
</g>
<!-- Node25&#45;&gt;Node14 -->
<g id="edge46" class="edge">
<title>Node25&#45;&gt;Node14</title>
<path fill="none" stroke="midnightblue" d="M1143.51,-168.47C1099.78,-157.9 1040.65,-143.59 1000.46,-133.87"/>
<polygon fill="midnightblue" stroke="midnightblue" points="1001.21,-130.46 990.67,-131.51 999.57,-137.26 1001.21,-130.46"/>
</g>
</g>
</svg>
