<?xml version="1.0" encoding="UTF-8" standalone="no"?>
<!DOCTYPE svg PUBLIC "-//W3C//DTD SVG 1.1//EN"
 "http://www.w3.org/Graphics/SVG/1.1/DTD/svg11.dtd">
<!-- Generated by graphviz version 2.43.0 (0)
 -->
<!-- Title: main Pages: 1 -->
<svg width="952pt" height="356pt"
 viewBox="0.00 0.00 952.00 356.00" xmlns="http://www.w3.org/2000/svg" xmlns:xlink="http://www.w3.org/1999/xlink">
<g id="graph0" class="graph" transform="scale(1 1) rotate(0) translate(4 352)">
<title>main</title>
<!-- Node1 -->
<g id="node1" class="node">
<title>Node1</title>
<g id="a_node1"><a xlink:title=" ">
<polygon fill="#bfbfbf" stroke="black" points="0,-154 0,-173 41,-173 41,-154 0,-154"/>
<text text-anchor="middle" x="20.5" y="-161" font-family="Helvetica,sans-Serif" font-size="10.00">main</text>
</a>
</g>
</g>
<!-- Node2 -->
<g id="node2" class="node">
<title>Node2</title>
<g id="a_node2"><a xlink:href="classnmbuflowtorch_1_1Network.html#aa1d574b1f7daac023f4917887dd05ead" target="_top" xlink:title="Adds a layer to the network.">
<polygon fill="none" stroke="black" points="84.5,-317.5 84.5,-347.5 221.5,-347.5 221.5,-317.5 84.5,-317.5"/>
<text text-anchor="start" x="92.5" y="-335.5" font-family="Helvetica,sans-Serif" font-size="10.00">nmbuflowtorch::Network</text>
<text text-anchor="middle" x="153" y="-324.5" font-family="Helvetica,sans-Serif" font-size="10.00">::add_layer</text>
</a>
</g>
</g>
<!-- Node1&#45;&gt;Node2 -->
<g id="edge1" class="edge">
<title>Node1&#45;&gt;Node2</title>
<path fill="none" stroke="midnightblue" d="M22.37,-173.19C25.19,-199.02 36.46,-270.16 77,-308.5 78.26,-309.69 79.59,-310.83 80.96,-311.91"/>
<polygon fill="midnightblue" stroke="midnightblue" points="79.06,-314.85 89.32,-317.49 82.94,-309.03 79.06,-314.85"/>
</g>
<!-- Node3 -->
<g id="node3" class="node">
<title>Node3</title>
<g id="a_node3"><a xlink:href="classnmbuflowtorch_1_1Network.html#a7a86be4bc0c3901a48cfb70b286ec363" target="_top" xlink:title="Adds a loss function to the network.">
<polygon fill="none" stroke="black" points="84.5,-268.5 84.5,-298.5 221.5,-298.5 221.5,-268.5 84.5,-268.5"/>
<text text-anchor="start" x="92.5" y="-286.5" font-family="Helvetica,sans-Serif" font-size="10.00">nmbuflowtorch::Network</text>
<text text-anchor="middle" x="153" y="-275.5" font-family="Helvetica,sans-Serif" font-size="10.00">::add_loss</text>
</a>
</g>
</g>
<!-- Node1&#45;&gt;Node3 -->
<g id="edge2" class="edge">
<title>Node1&#45;&gt;Node3</title>
<path fill="none" stroke="midnightblue" d="M24.47,-173.24C30.87,-192.58 47.77,-235.95 77,-259.5 78.6,-260.79 80.26,-262 81.99,-263.16"/>
<polygon fill="midnightblue" stroke="midnightblue" points="80.61,-266.41 91.02,-268.4 84.13,-260.35 80.61,-266.41"/>
</g>
<!-- Node4 -->
<g id="node4" class="node">
<title>Node4</title>
<g id="a_node4"><a xlink:href="classnmbuflowtorch_1_1Network.html#a1120a4649f5317ab85b7fd0124f91f75" target="_top" xlink:title="Adds an optimizer to the network.">
<polygon fill="none" stroke="black" points="84.5,-219.5 84.5,-249.5 221.5,-249.5 221.5,-219.5 84.5,-219.5"/>
<text text-anchor="start" x="92.5" y="-237.5" font-family="Helvetica,sans-Serif" font-size="10.00">nmbuflowtorch::Network</text>
<text text-anchor="middle" x="153" y="-226.5" font-family="Helvetica,sans-Serif" font-size="10.00">::add_optimizer</text>
</a>
</g>
</g>
<!-- Node1&#45;&gt;Node4 -->
<g id="edge3" class="edge">
<title>Node1&#45;&gt;Node4</title>
<path fill="none" stroke="midnightblue" d="M30.46,-173.07C40.77,-183.59 58.67,-200.34 77,-210.5 80.24,-212.3 83.63,-213.98 87.11,-215.56"/>
<polygon fill="midnightblue" stroke="midnightblue" points="85.9,-218.84 96.47,-219.48 88.61,-212.39 85.9,-218.84"/>
</g>
<!-- Node5 -->
<g id="node5" class="node">
<title>Node5</title>
<g id="a_node5"><a xlink:href="classnmbuflowtorch_1_1Network.html#ae404b65188cb291b22ec494bb270bec2" target="_top" xlink:title=" ">
<polygon fill="none" stroke="black" points="84.5,-170.5 84.5,-200.5 221.5,-200.5 221.5,-170.5 84.5,-170.5"/>
<text text-anchor="start" x="92.5" y="-188.5" font-family="Helvetica,sans-Serif" font-size="10.00">nmbuflowtorch::Network</text>
<text text-anchor="middle" x="153" y="-177.5" font-family="Helvetica,sans-Serif" font-size="10.00">::delete_net</text>
</a>
</g>
</g>
<!-- Node1&#45;&gt;Node5 -->
<g id="edge4" class="edge">
<title>Node1&#45;&gt;Node5</title>
<path fill="none" stroke="midnightblue" d="M41.04,-166.79C50.29,-168.35 62.02,-170.33 74.36,-172.41"/>
<polygon fill="midnightblue" stroke="midnightblue" points="73.91,-175.88 84.35,-174.1 75.07,-168.98 73.91,-175.88"/>
</g>
<!-- Node6 -->
<g id="node6" class="node">
<title>Node6</title>
<g id="a_node6"><a xlink:href="classnmbuflowtorch_1_1Network.html#a8cff72188a6f4b0d13c8b7474eec1ca3" target="_top" xlink:title="Fit model to data provided.">
<polygon fill="none" stroke="black" points="77,-132 77,-151 229,-151 229,-132 77,-132"/>
<text text-anchor="middle" x="153" y="-139" font-family="Helvetica,sans-Serif" font-size="10.00">nmbuflowtorch::Network::fit</text>
</a>
</g>
</g>
<!-- Node1&#45;&gt;Node6 -->
<g id="edge5" class="edge">
<title>Node1&#45;&gt;Node6</title>
<path fill="none" stroke="midnightblue" d="M41.04,-160.21C53.05,-158.18 69.22,-155.46 85.49,-152.71"/>
<polygon fill="midnightblue" stroke="midnightblue" points="86.31,-156.12 95.59,-151.01 85.15,-149.22 86.31,-156.12"/>
</g>
<!-- Node14 -->
<g id="node14" class="node">
<title>Node14</title>
<g id="a_node14"><a xlink:href="classnmbuflowtorch_1_1Network.html#a47b0ad164e645c60f736f60f87827900" target="_top" xlink:title="Returns the value from the last layer.">
<polygon fill="none" stroke="black" points="807,-107.5 807,-137.5 944,-137.5 944,-107.5 807,-107.5"/>
<text text-anchor="start" x="815" y="-125.5" font-family="Helvetica,sans-Serif" font-size="10.00">nmbuflowtorch::Network</text>
<text text-anchor="middle" x="875.5" y="-114.5" font-family="Helvetica,sans-Serif" font-size="10.00">::output</text>
</a>
</g>
</g>
<!-- Node1&#45;&gt;Node14 -->
<g id="edge20" class="edge">
<title>Node1&#45;&gt;Node14</title>
<path fill="none" stroke="midnightblue" d="M25.07,-153.93C32.06,-136.67 49.34,-100.63 77,-84.5 175.56,-27.02 218.4,-59.5 332.5,-59.5 332.5,-59.5 332.5,-59.5 519,-59.5 631.32,-59.5 661.86,-51.95 771,-78.5 793.66,-84.01 817.71,-93.96 836.92,-103"/>
<polygon fill="midnightblue" stroke="midnightblue" points="835.4,-106.16 845.93,-107.35 838.44,-99.85 835.4,-106.16"/>
</g>
<!-- Node15 -->
<g id="node15" class="node">
<title>Node15</title>
<g id="a_node15"><a xlink:href="classnmbuflowtorch_1_1Network.html#ae6cd135a052cc1526b34bb4144ae58b6" target="_top" xlink:title=" ">
<polygon fill="none" stroke="black" points="634,-88.5 634,-118.5 771,-118.5 771,-88.5 634,-88.5"/>
<text text-anchor="start" x="642" y="-106.5" font-family="Helvetica,sans-Serif" font-size="10.00">nmbuflowtorch::Network</text>
<text text-anchor="middle" x="702.5" y="-95.5" font-family="Helvetica,sans-Serif" font-size="10.00">::forward</text>
</a>
</g>
</g>
<!-- Node1&#45;&gt;Node15 -->
<g id="edge19" class="edge">
<title>Node1&#45;&gt;Node15</title>
<path fill="none" stroke="midnightblue" d="M30.66,-153.91C40.88,-143.95 58.44,-128.93 77,-122.5 264.49,-57.58 502.88,-75.73 623.72,-91.39"/>
<polygon fill="midnightblue" stroke="midnightblue" points="623.6,-94.9 633.98,-92.75 624.52,-87.97 623.6,-94.9"/>
</g>
<!-- Node18 -->
<g id="node18" class="node">
<title>Node18</title>
<g id="a_node18"><a xlink:href="classnmbuflowtorch_1_1layer_1_1Dense.html#a1b343ab594510f4ab93c9c292b5a5123" target="_top" xlink:title="Get the output dimension of the dense layer.">
<polygon fill="none" stroke="black" points="93,-0.5 93,-30.5 213,-30.5 213,-0.5 93,-0.5"/>
<text text-anchor="start" x="101" y="-18.5" font-family="Helvetica,sans-Serif" font-size="10.00">nmbuflowtorch::layer</text>
<text text-anchor="middle" x="153" y="-7.5" font-family="Helvetica,sans-Serif" font-size="10.00">::Dense::output_dim</text>
</a>
</g>
</g>
<!-- Node1&#45;&gt;Node18 -->
<g id="edge21" class="edge">
<title>Node1&#45;&gt;Node18</title>
<path fill="none" stroke="midnightblue" d="M23.5,-153.82C28.56,-131.65 43.89,-76.71 77,-45.5 81.02,-41.71 85.57,-38.38 90.41,-35.45"/>
<polygon fill="midnightblue" stroke="midnightblue" points="92.23,-38.45 99.35,-30.61 88.89,-32.29 92.23,-38.45"/>
</g>
<!-- Node7 -->
<g id="node7" class="node">
<title>Node7</title>
<g id="a_node7"><a xlink:href="math__m_8hpp.html#a00222de08fb54dc0423e29cc610d1f0c" target="_top" xlink:title="Shuffles a dataset by creating a permutation matrix from a given vector of indices and applying it to...">
<polygon fill="none" stroke="black" points="295,-182 295,-201 372,-201 372,-182 295,-182"/>
<text text-anchor="middle" x="333.5" y="-189" font-family="Helvetica,sans-Serif" font-size="10.00">shuffle_data</text>
</a>
</g>
</g>
<!-- Node6&#45;&gt;Node7 -->
<g id="edge6" class="edge">
<title>Node6&#45;&gt;Node7</title>
<path fill="none" stroke="midnightblue" d="M190.69,-151C202.91,-154.24 216.56,-157.94 229,-161.5 245.09,-166.1 248.95,-167.79 265,-172.5 272.56,-174.72 280.6,-177.03 288.41,-179.24"/>
<polygon fill="midnightblue" stroke="midnightblue" points="287.54,-182.63 298.12,-181.98 289.45,-175.9 287.54,-182.63"/>
</g>
<!-- Node8 -->
<g id="node8" class="node">
<title>Node8</title>
<g id="a_node8"><a xlink:href="classnmbuflowtorch_1_1Network.html#ab4decd5644c172b3ade967496bf64f7b" target="_top" xlink:title="Trains all batches in X and y for one epoch.">
<polygon fill="none" stroke="black" points="265,-132.5 265,-162.5 402,-162.5 402,-132.5 265,-132.5"/>
<text text-anchor="start" x="273" y="-150.5" font-family="Helvetica,sans-Serif" font-size="10.00">nmbuflowtorch::Network</text>
<text text-anchor="middle" x="333.5" y="-139.5" font-family="Helvetica,sans-Serif" font-size="10.00">::train_one_epoch</text>
</a>
</g>
</g>
<!-- Node6&#45;&gt;Node8 -->
<g id="edge7" class="edge">
<title>Node6&#45;&gt;Node8</title>
<path fill="none" stroke="midnightblue" d="M229.18,-144.03C237.58,-144.31 246.15,-144.6 254.58,-144.88"/>
<polygon fill="midnightblue" stroke="midnightblue" points="254.67,-148.39 264.78,-145.22 254.91,-141.39 254.67,-148.39"/>
</g>
<!-- Node9 -->
<g id="node9" class="node">
<title>Node9</title>
<g id="a_node9"><a xlink:href="namespacenmbuflowtorch.html#a6841de6f2ac014f91c37f7f2c0e9cc1e" target="_top" xlink:title="Prints a progress bar to the console.">
<polygon fill="none" stroke="black" points="438,-182 438,-201 598,-201 598,-182 438,-182"/>
<text text-anchor="middle" x="518" y="-189" font-family="Helvetica,sans-Serif" font-size="10.00">nmbuflowtorch::printProgress</text>
</a>
</g>
</g>
<!-- Node8&#45;&gt;Node9 -->
<g id="edge8" class="edge">
<title>Node8&#45;&gt;Node9</title>
<path fill="none" stroke="midnightblue" d="M396.62,-162.51C410.25,-165.81 424.61,-169.27 438,-172.5 447.47,-174.78 457.57,-177.21 467.28,-179.55"/>
<polygon fill="midnightblue" stroke="midnightblue" points="466.67,-183 477.21,-181.94 468.31,-176.2 466.67,-183"/>
</g>
<!-- Node10 -->
<g id="node10" class="node">
<title>Node10</title>
<g id="a_node10"><a xlink:href="classnmbuflowtorch_1_1Network.html#ac5f07dc09b1d352567d6cbcc3c38c010" target="_top" xlink:title="Forward, backward, and update functions combined for one batch of data.">
<polygon fill="none" stroke="black" points="449.5,-132.5 449.5,-162.5 586.5,-162.5 586.5,-132.5 449.5,-132.5"/>
<text text-anchor="start" x="457.5" y="-150.5" font-family="Helvetica,sans-Serif" font-size="10.00">nmbuflowtorch::Network</text>
<text text-anchor="middle" x="518" y="-139.5" font-family="Helvetica,sans-Serif" font-size="10.00">::train_batch</text>
</a>
</g>
</g>
<!-- Node8&#45;&gt;Node10 -->
<g id="edge9" class="edge">
<title>Node8&#45;&gt;Node10</title>
<path fill="none" stroke="midnightblue" d="M402.2,-147.5C414.24,-147.5 426.88,-147.5 439.18,-147.5"/>
<polygon fill="midnightblue" stroke="midnightblue" points="439.41,-151 449.41,-147.5 439.41,-144 439.41,-151"/>
</g>
<!-- Node11 -->
<g id="node11" class="node">
<title>Node11</title>
<g id="a_node11"><a xlink:href="classnmbuflowtorch_1_1Network.html#ad2626aa7216689fadfa4469273de8c90" target="_top" xlink:title="Using X input and y target, back propagates the loss gradient.">
<polygon fill="none" stroke="black" points="634,-176.5 634,-206.5 771,-206.5 771,-176.5 634,-176.5"/>
<text text-anchor="start" x="642" y="-194.5" font-family="Helvetica,sans-Serif" font-size="10.00">nmbuflowtorch::Network</text>
<text text-anchor="middle" x="702.5" y="-183.5" font-family="Helvetica,sans-Serif" font-size="10.00">::backward</text>
</a>
</g>
</g>
<!-- Node10&#45;&gt;Node11 -->
<g id="edge10" class="edge">
<title>Node10&#45;&gt;Node11</title>
<path fill="none" stroke="midnightblue" d="M581.3,-162.52C596.77,-166.25 613.49,-170.28 629.4,-174.12"/>
<polygon fill="midnightblue" stroke="midnightblue" points="628.63,-177.53 639.18,-176.47 630.27,-170.73 628.63,-177.53"/>
</g>
<!-- Node10&#45;&gt;Node14 -->
<g id="edge17" class="edge">
<title>Node10&#45;&gt;Node14</title>
<path fill="none" stroke="midnightblue" d="M586.7,-142.74C646.53,-138.53 733.78,-132.4 796.51,-127.98"/>
<polygon fill="midnightblue" stroke="midnightblue" points="797.02,-131.46 806.75,-127.26 796.53,-124.47 797.02,-131.46"/>
</g>
<!-- Node10&#45;&gt;Node15 -->
<g id="edge14" class="edge">
<title>Node10&#45;&gt;Node15</title>
<path fill="none" stroke="midnightblue" d="M581.3,-132.48C596.77,-128.75 613.49,-124.72 629.4,-120.88"/>
<polygon fill="midnightblue" stroke="midnightblue" points="630.27,-124.27 639.18,-118.53 628.63,-117.47 630.27,-124.27"/>
</g>
<!-- Node16 -->
<g id="node16" class="node">
<title>Node16</title>
<g id="a_node16"><a xlink:href="classnmbuflowtorch_1_1Loss.html#a5747f962c29f0e1a6147c435da22c466" target="_top" xlink:title="Returns the value of the loss.">
<polygon fill="none" stroke="black" points="644,-274.5 644,-304.5 761,-304.5 761,-274.5 644,-274.5"/>
<text text-anchor="start" x="652" y="-292.5" font-family="Helvetica,sans-Serif" font-size="10.00">nmbuflowtorch::Loss</text>
<text text-anchor="middle" x="702.5" y="-281.5" font-family="Helvetica,sans-Serif" font-size="10.00">::output</text>
</a>
</g>
</g>
<!-- Node10&#45;&gt;Node16 -->
<g id="edge16" class="edge">
<title>Node10&#45;&gt;Node16</title>
<path fill="none" stroke="midnightblue" d="M584.24,-162.66C589.23,-165.41 593.91,-168.66 598,-172.5 630.31,-202.84 602.23,-234.6 634,-265.5 635.11,-266.58 636.28,-267.62 637.49,-268.61"/>
<polygon fill="midnightblue" stroke="midnightblue" points="635.82,-271.71 646.05,-274.48 639.78,-265.94 635.82,-271.71"/>
</g>
<!-- Node17 -->
<g id="node17" class="node">
<title>Node17</title>
<g id="a_node17"><a xlink:href="classnmbuflowtorch_1_1Network.html#ab4dcbf1de529e005b2eb4c31b8cbd552" target="_top" xlink:title=" ">
<polygon fill="none" stroke="black" points="634,-225.5 634,-255.5 771,-255.5 771,-225.5 634,-225.5"/>
<text text-anchor="start" x="642" y="-243.5" font-family="Helvetica,sans-Serif" font-size="10.00">nmbuflowtorch::Network</text>
<text text-anchor="middle" x="702.5" y="-232.5" font-family="Helvetica,sans-Serif" font-size="10.00">::update</text>
</a>
</g>
</g>
<!-- Node10&#45;&gt;Node17 -->
<g id="edge18" class="edge">
<title>Node10&#45;&gt;Node17</title>
<path fill="none" stroke="midnightblue" d="M579.39,-162.52C585.94,-165.32 592.28,-168.63 598,-172.5 618.91,-186.68 613.34,-201.96 634,-216.5 636.09,-217.97 638.28,-219.36 640.54,-220.67"/>
<polygon fill="midnightblue" stroke="midnightblue" points="639.06,-223.85 649.55,-225.36 642.29,-217.64 639.06,-223.85"/>
</g>
<!-- Node12 -->
<g id="node12" class="node">
<title>Node12</title>
<g id="a_node12"><a xlink:href="classnmbuflowtorch_1_1Loss.html#a29688f70477ce9f630cb313cc7e4c365" target="_top" xlink:title="Returns the gradient with respect to the input of the loss function.">
<polygon fill="none" stroke="black" points="817,-166.5 817,-196.5 934,-196.5 934,-166.5 817,-166.5"/>
<text text-anchor="start" x="825" y="-184.5" font-family="Helvetica,sans-Serif" font-size="10.00">nmbuflowtorch::Loss</text>
<text text-anchor="middle" x="875.5" y="-173.5" font-family="Helvetica,sans-Serif" font-size="10.00">::back_gradient</text>
</a>
</g>
</g>
<!-- Node11&#45;&gt;Node12 -->
<g id="edge11" class="edge">
<title>Node11&#45;&gt;Node12</title>
<path fill="none" stroke="midnightblue" d="M771.08,-187.55C782.78,-186.86 794.95,-186.15 806.65,-185.47"/>
<polygon fill="midnightblue" stroke="midnightblue" points="807.01,-188.95 816.79,-184.87 806.61,-181.96 807.01,-188.95"/>
</g>
<!-- Node13 -->
<g id="node13" class="node">
<title>Node13</title>
<g id="a_node13"><a xlink:href="classnmbuflowtorch_1_1Loss.html#ab739a047ffc84f44af71832ec704cedc" target="_top" xlink:title="Evaluates the loss function given the predicted and target values.">
<polygon fill="none" stroke="black" points="817,-215.5 817,-245.5 934,-245.5 934,-215.5 817,-215.5"/>
<text text-anchor="start" x="825" y="-233.5" font-family="Helvetica,sans-Serif" font-size="10.00">nmbuflowtorch::Loss</text>
<text text-anchor="middle" x="875.5" y="-222.5" font-family="Helvetica,sans-Serif" font-size="10.00">::eval</text>
</a>
</g>
</g>
<!-- Node11&#45;&gt;Node13 -->
<g id="edge12" class="edge">
<title>Node11&#45;&gt;Node13</title>
<path fill="none" stroke="midnightblue" d="M769.61,-206.58C781.92,-209.39 794.8,-212.32 807.15,-215.14"/>
<polygon fill="midnightblue" stroke="midnightblue" points="806.39,-218.56 816.91,-217.37 807.94,-211.73 806.39,-218.56"/>
</g>
<!-- Node11&#45;&gt;Node14 -->
<g id="edge13" class="edge">
<title>Node11&#45;&gt;Node14</title>
<path fill="none" stroke="midnightblue" d="M741.03,-176.36C766.53,-166.07 800.45,-152.38 827.72,-141.38"/>
<polygon fill="midnightblue" stroke="midnightblue" points="829.1,-144.59 837.06,-137.61 826.48,-138.1 829.1,-144.59"/>
</g>
<!-- Node15&#45;&gt;Node14 -->
<g id="edge15" class="edge">
<title>Node15&#45;&gt;Node14</title>
<path fill="none" stroke="midnightblue" d="M771.08,-111.01C779.54,-111.95 788.24,-112.92 796.83,-113.87"/>
<polygon fill="midnightblue" stroke="midnightblue" points="796.52,-117.36 806.85,-114.98 797.29,-110.4 796.52,-117.36"/>
</g>
</g>
</svg>
