<?xml version="1.0" encoding="UTF-8" standalone="no"?>
<!DOCTYPE svg PUBLIC "-//W3C//DTD SVG 1.1//EN"
 "http://www.w3.org/Graphics/SVG/1.1/DTD/svg11.dtd">
<!-- Generated by graphviz version 2.43.0 (0)
 -->
<!-- Title: main Pages: 1 -->
<svg width="955pt" height="347pt"
 viewBox="0.00 0.00 955.00 347.00" xmlns="http://www.w3.org/2000/svg" xmlns:xlink="http://www.w3.org/1999/xlink">
<g id="graph0" class="graph" transform="scale(1 1) rotate(0) translate(4 343)">
<title>main</title>
<!-- Node1 -->
<g id="node1" class="node">
<title>Node1</title>
<g id="a_node1"><a xlink:title=" ">
<polygon fill="#bfbfbf" stroke="black" points="0,-177.5 0,-196.5 41,-196.5 41,-177.5 0,-177.5"/>
<text text-anchor="middle" x="20.5" y="-184.5" font-family="Helvetica,sans-Serif" font-size="10.00">main</text>
</a>
</g>
</g>
<!-- Node2 -->
<g id="node2" class="node">
<title>Node2</title>
<g id="a_node2"><a xlink:href="math__m_8hpp.html#ad98d8e1ed5bf9e38ed353f7b4e74953b" target="_top" xlink:title=" ">
<polygon fill="none" stroke="black" points="108,-319.5 108,-338.5 200,-338.5 200,-319.5 108,-319.5"/>
<text text-anchor="middle" x="154" y="-326.5" font-family="Helvetica,sans-Serif" font-size="10.00">accuracy_score</text>
</a>
</g>
</g>
<!-- Node1&#45;&gt;Node2 -->
<g id="edge1" class="edge">
<title>Node1&#45;&gt;Node2</title>
<path fill="none" stroke="midnightblue" d="M22.96,-196.71C26.99,-220.03 40.5,-279.51 77,-310 83.09,-315.09 90.36,-318.84 97.94,-321.61"/>
<polygon fill="midnightblue" stroke="midnightblue" points="97.07,-325 107.66,-324.61 99.13,-318.32 97.07,-325"/>
</g>
<!-- Node3 -->
<g id="node3" class="node">
<title>Node3</title>
<g id="a_node3"><a xlink:href="classnmbuflowtorch_1_1Network.html#aa1d574b1f7daac023f4917887dd05ead" target="_top" xlink:title=" ">
<polygon fill="none" stroke="black" points="85.5,-270 85.5,-300 222.5,-300 222.5,-270 85.5,-270"/>
<text text-anchor="start" x="93.5" y="-288" font-family="Helvetica,sans-Serif" font-size="10.00">nmbuflowtorch::Network</text>
<text text-anchor="middle" x="154" y="-277" font-family="Helvetica,sans-Serif" font-size="10.00">::add_layer</text>
</a>
</g>
</g>
<!-- Node1&#45;&gt;Node3 -->
<g id="edge2" class="edge">
<title>Node1&#45;&gt;Node3</title>
<path fill="none" stroke="midnightblue" d="M26.21,-196.7C34.37,-212.49 52.63,-243.73 77,-261 79.12,-262.51 81.35,-263.92 83.64,-265.25"/>
<polygon fill="midnightblue" stroke="midnightblue" points="82.3,-268.49 92.79,-269.95 85.5,-262.27 82.3,-268.49"/>
</g>
<!-- Node4 -->
<g id="node4" class="node">
<title>Node4</title>
<g id="a_node4"><a xlink:href="classnmbuflowtorch_1_1Network.html#a7a86be4bc0c3901a48cfb70b286ec363" target="_top" xlink:title=" ">
<polygon fill="none" stroke="black" points="85.5,-221 85.5,-251 222.5,-251 222.5,-221 85.5,-221"/>
<text text-anchor="start" x="93.5" y="-239" font-family="Helvetica,sans-Serif" font-size="10.00">nmbuflowtorch::Network</text>
<text text-anchor="middle" x="154" y="-228" font-family="Helvetica,sans-Serif" font-size="10.00">::add_loss</text>
</a>
</g>
</g>
<!-- Node1&#45;&gt;Node4 -->
<g id="edge3" class="edge">
<title>Node1&#45;&gt;Node4</title>
<path fill="none" stroke="midnightblue" d="M41.04,-196.48C51.57,-201.41 64.86,-207.37 77,-212 82.09,-213.94 87.41,-215.86 92.78,-217.7"/>
<polygon fill="midnightblue" stroke="midnightblue" points="91.84,-221.08 102.43,-220.94 94.06,-214.44 91.84,-221.08"/>
</g>
<!-- Node5 -->
<g id="node5" class="node">
<title>Node5</title>
<g id="a_node5"><a xlink:href="classnmbuflowtorch_1_1Network.html#a1120a4649f5317ab85b7fd0124f91f75" target="_top" xlink:title=" ">
<polygon fill="none" stroke="black" points="85.5,-172 85.5,-202 222.5,-202 222.5,-172 85.5,-172"/>
<text text-anchor="start" x="93.5" y="-190" font-family="Helvetica,sans-Serif" font-size="10.00">nmbuflowtorch::Network</text>
<text text-anchor="middle" x="154" y="-179" font-family="Helvetica,sans-Serif" font-size="10.00">::add_optimizer</text>
</a>
</g>
</g>
<!-- Node1&#45;&gt;Node5 -->
<g id="edge4" class="edge">
<title>Node1&#45;&gt;Node5</title>
<path fill="none" stroke="midnightblue" d="M41.19,-187C50.63,-187 62.62,-187 75.21,-187"/>
<polygon fill="midnightblue" stroke="midnightblue" points="75.41,-190.5 85.41,-187 75.41,-183.5 75.41,-190.5"/>
</g>
<!-- Node6 -->
<g id="node6" class="node">
<title>Node6</title>
<g id="a_node6"><a xlink:href="classnmbuflowtorch_1_1Network.html#a8cff72188a6f4b0d13c8b7474eec1ca3" target="_top" xlink:title="Fit model to data provided.">
<polygon fill="none" stroke="black" points="77,-133.5 77,-152.5 231,-152.5 231,-133.5 77,-133.5"/>
<text text-anchor="middle" x="154" y="-140.5" font-family="Helvetica,sans-Serif" font-size="10.00">nmbuflowtorch::Network::fit</text>
</a>
</g>
</g>
<!-- Node1&#45;&gt;Node6 -->
<g id="edge5" class="edge">
<title>Node1&#45;&gt;Node6</title>
<path fill="none" stroke="midnightblue" d="M41.25,-177.6C51.72,-172.83 64.9,-167.18 77,-163 85.06,-160.21 93.72,-157.59 102.2,-155.23"/>
<polygon fill="midnightblue" stroke="midnightblue" points="103.29,-158.56 112.03,-152.57 101.47,-151.8 103.29,-158.56"/>
</g>
<!-- Node18 -->
<g id="node18" class="node">
<title>Node18</title>
<g id="a_node18"><a xlink:href="classnmbuflowtorch_1_1layer_1_1Dense.html#a1b343ab594510f4ab93c9c292b5a5123" target="_top" xlink:title=" ">
<polygon fill="none" stroke="black" points="93.5,-84 93.5,-114 214.5,-114 214.5,-84 93.5,-84"/>
<text text-anchor="start" x="101.5" y="-102" font-family="Helvetica,sans-Serif" font-size="10.00">nmbuflowtorch::layer</text>
<text text-anchor="middle" x="154" y="-91" font-family="Helvetica,sans-Serif" font-size="10.00">::Dense::output_dim</text>
</a>
</g>
</g>
<!-- Node1&#45;&gt;Node18 -->
<g id="edge19" class="edge">
<title>Node1&#45;&gt;Node18</title>
<path fill="none" stroke="midnightblue" d="M27.48,-177.46C36.56,-163.73 55.1,-138.45 77,-124 80.08,-121.97 83.34,-120.09 86.71,-118.35"/>
<polygon fill="midnightblue" stroke="midnightblue" points="88.25,-121.49 95.83,-114.08 85.29,-115.15 88.25,-121.49"/>
</g>
<!-- Node19 -->
<g id="node19" class="node">
<title>Node19</title>
<g id="a_node19"><a xlink:href="classnmbuflowtorch_1_1Network.html#afbe484725b9489c054d744f64f57a6b8" target="_top" xlink:title=" ">
<polygon fill="none" stroke="black" points="85.5,-33 85.5,-63 222.5,-63 222.5,-33 85.5,-33"/>
<text text-anchor="start" x="93.5" y="-51" font-family="Helvetica,sans-Serif" font-size="10.00">nmbuflowtorch::Network</text>
<text text-anchor="middle" x="154" y="-40" font-family="Helvetica,sans-Serif" font-size="10.00">::predict</text>
</a>
</g>
</g>
<!-- Node1&#45;&gt;Node19 -->
<g id="edge20" class="edge">
<title>Node1&#45;&gt;Node19</title>
<path fill="none" stroke="midnightblue" d="M23.65,-177.4C28.93,-155.97 44.54,-103.82 77,-75 79.84,-72.48 82.92,-70.19 86.18,-68.12"/>
<polygon fill="midnightblue" stroke="midnightblue" points="88.12,-71.04 95.12,-63.09 84.69,-64.94 88.12,-71.04"/>
</g>
<!-- Node7 -->
<g id="node7" class="node">
<title>Node7</title>
<g id="a_node7"><a xlink:href="math__m_8hpp.html#a00222de08fb54dc0423e29cc610d1f0c" target="_top" xlink:title="Creates a permutation matrix from a given vector of indices and shuffles both X and y accordingly.">
<polygon fill="none" stroke="black" points="297,-177.5 297,-196.5 374,-196.5 374,-177.5 297,-177.5"/>
<text text-anchor="middle" x="335.5" y="-184.5" font-family="Helvetica,sans-Serif" font-size="10.00">shuffle_data</text>
</a>
</g>
</g>
<!-- Node6&#45;&gt;Node7 -->
<g id="edge6" class="edge">
<title>Node6&#45;&gt;Node7</title>
<path fill="none" stroke="midnightblue" d="M193.95,-152.55C221.25,-159.24 257.9,-168.22 286.93,-175.34"/>
<polygon fill="midnightblue" stroke="midnightblue" points="286.31,-178.79 296.86,-177.77 287.98,-171.99 286.31,-178.79"/>
</g>
<!-- Node8 -->
<g id="node8" class="node">
<title>Node8</title>
<g id="a_node8"><a xlink:href="classnmbuflowtorch_1_1Network.html#ab4decd5644c172b3ade967496bf64f7b" target="_top" xlink:title="Forward pass of the network using input X.">
<polygon fill="none" stroke="black" points="267,-128 267,-158 404,-158 404,-128 267,-128"/>
<text text-anchor="start" x="275" y="-146" font-family="Helvetica,sans-Serif" font-size="10.00">nmbuflowtorch::Network</text>
<text text-anchor="middle" x="335.5" y="-135" font-family="Helvetica,sans-Serif" font-size="10.00">::train_one_epoch</text>
</a>
</g>
</g>
<!-- Node6&#45;&gt;Node8 -->
<g id="edge7" class="edge">
<title>Node6&#45;&gt;Node8</title>
<path fill="none" stroke="midnightblue" d="M231.12,-143C239.55,-143 248.14,-143 256.58,-143"/>
<polygon fill="midnightblue" stroke="midnightblue" points="256.79,-146.5 266.79,-143 256.79,-139.5 256.79,-146.5"/>
</g>
<!-- Node9 -->
<g id="node9" class="node">
<title>Node9</title>
<g id="a_node9"><a xlink:href="namespacenmbuflowtorch.html#a6841de6f2ac014f91c37f7f2c0e9cc1e" target="_top" xlink:title=" ">
<polygon fill="none" stroke="black" points="440,-177.5 440,-196.5 601,-196.5 601,-177.5 440,-177.5"/>
<text text-anchor="middle" x="520.5" y="-184.5" font-family="Helvetica,sans-Serif" font-size="10.00">nmbuflowtorch::printProgress</text>
</a>
</g>
</g>
<!-- Node8&#45;&gt;Node9 -->
<g id="edge8" class="edge">
<title>Node8&#45;&gt;Node9</title>
<path fill="none" stroke="midnightblue" d="M398.61,-158.03C412.25,-161.32 426.61,-164.78 440,-168 449.52,-170.29 459.69,-172.72 469.46,-175.06"/>
<polygon fill="midnightblue" stroke="midnightblue" points="468.92,-178.53 479.46,-177.45 470.55,-171.72 468.92,-178.53"/>
</g>
<!-- Node10 -->
<g id="node10" class="node">
<title>Node10</title>
<g id="a_node10"><a xlink:href="classnmbuflowtorch_1_1Network.html#ac5f07dc09b1d352567d6cbcc3c38c010" target="_top" xlink:title=" ">
<polygon fill="none" stroke="black" points="452,-128 452,-158 589,-158 589,-128 452,-128"/>
<text text-anchor="start" x="460" y="-146" font-family="Helvetica,sans-Serif" font-size="10.00">nmbuflowtorch::Network</text>
<text text-anchor="middle" x="520.5" y="-135" font-family="Helvetica,sans-Serif" font-size="10.00">::train_batch</text>
</a>
</g>
</g>
<!-- Node8&#45;&gt;Node10 -->
<g id="edge9" class="edge">
<title>Node8&#45;&gt;Node10</title>
<path fill="none" stroke="midnightblue" d="M404.12,-143C416.29,-143 429.07,-143 441.5,-143"/>
<polygon fill="midnightblue" stroke="midnightblue" points="441.85,-146.5 451.85,-143 441.85,-139.5 441.85,-146.5"/>
</g>
<!-- Node11 -->
<g id="node11" class="node">
<title>Node11</title>
<g id="a_node11"><a xlink:href="classnmbuflowtorch_1_1Network.html#ad2626aa7216689fadfa4469273de8c90" target="_top" xlink:title="Using X input and y target, back propagates the loss gradient.">
<polygon fill="none" stroke="black" points="637,-218 637,-248 774,-248 774,-218 637,-218"/>
<text text-anchor="start" x="645" y="-236" font-family="Helvetica,sans-Serif" font-size="10.00">nmbuflowtorch::Network</text>
<text text-anchor="middle" x="705.5" y="-225" font-family="Helvetica,sans-Serif" font-size="10.00">::backward</text>
</a>
</g>
</g>
<!-- Node10&#45;&gt;Node11 -->
<g id="edge10" class="edge">
<title>Node10&#45;&gt;Node11</title>
<path fill="none" stroke="midnightblue" d="M580.6,-158.14C587.7,-160.95 594.66,-164.22 601,-168 620.16,-179.43 618.52,-190.5 637,-203 642.64,-206.81 648.84,-210.34 655.13,-213.52"/>
<polygon fill="midnightblue" stroke="midnightblue" points="653.82,-216.78 664.35,-217.95 656.85,-210.47 653.82,-216.78"/>
</g>
<!-- Node14 -->
<g id="node14" class="node">
<title>Node14</title>
<g id="a_node14"><a xlink:href="classnmbuflowtorch_1_1Network.html#a47b0ad164e645c60f736f60f87827900" target="_top" xlink:title="Returns the value from the last layer.">
<polygon fill="none" stroke="black" points="810,-169 810,-199 947,-199 947,-169 810,-169"/>
<text text-anchor="start" x="818" y="-187" font-family="Helvetica,sans-Serif" font-size="10.00">nmbuflowtorch::Network</text>
<text text-anchor="middle" x="878.5" y="-176" font-family="Helvetica,sans-Serif" font-size="10.00">::output</text>
</a>
</g>
</g>
<!-- Node10&#45;&gt;Node14 -->
<g id="edge17" class="edge">
<title>Node10&#45;&gt;Node14</title>
<path fill="none" stroke="midnightblue" d="M577.23,-158.06C596.08,-162.61 617.33,-167.15 637,-170 690.99,-177.82 752.39,-181.31 799.64,-182.85"/>
<polygon fill="midnightblue" stroke="midnightblue" points="799.7,-186.35 809.81,-183.15 799.92,-179.35 799.7,-186.35"/>
</g>
<!-- Node15 -->
<g id="node15" class="node">
<title>Node15</title>
<g id="a_node15"><a xlink:href="classnmbuflowtorch_1_1Network.html#ae6cd135a052cc1526b34bb4144ae58b6" target="_top" xlink:title=" ">
<polygon fill="none" stroke="black" points="637,-32 637,-62 774,-62 774,-32 637,-32"/>
<text text-anchor="start" x="645" y="-50" font-family="Helvetica,sans-Serif" font-size="10.00">nmbuflowtorch::Network</text>
<text text-anchor="middle" x="705.5" y="-39" font-family="Helvetica,sans-Serif" font-size="10.00">::forward</text>
</a>
</g>
</g>
<!-- Node10&#45;&gt;Node15 -->
<g id="edge14" class="edge">
<title>Node10&#45;&gt;Node15</title>
<path fill="none" stroke="midnightblue" d="M543.33,-127.78C566.03,-112.39 602.93,-88.58 637,-72 641.34,-69.89 645.9,-67.85 650.52,-65.9"/>
<polygon fill="midnightblue" stroke="midnightblue" points="652.09,-69.04 660.04,-62.05 649.46,-62.55 652.09,-69.04"/>
</g>
<!-- Node16 -->
<g id="node16" class="node">
<title>Node16</title>
<g id="a_node16"><a xlink:href="classnmbuflowtorch_1_1Loss.html#a5747f962c29f0e1a6147c435da22c466" target="_top" xlink:title=" ">
<polygon fill="none" stroke="black" points="646.5,-130 646.5,-160 764.5,-160 764.5,-130 646.5,-130"/>
<text text-anchor="start" x="654.5" y="-148" font-family="Helvetica,sans-Serif" font-size="10.00">nmbuflowtorch::Loss</text>
<text text-anchor="middle" x="705.5" y="-137" font-family="Helvetica,sans-Serif" font-size="10.00">::output</text>
</a>
</g>
</g>
<!-- Node10&#45;&gt;Node16 -->
<g id="edge16" class="edge">
<title>Node10&#45;&gt;Node16</title>
<path fill="none" stroke="midnightblue" d="M589.12,-143.74C604.57,-143.91 621,-144.09 636.47,-144.26"/>
<polygon fill="midnightblue" stroke="midnightblue" points="636.44,-147.76 646.48,-144.37 636.52,-140.76 636.44,-147.76"/>
</g>
<!-- Node17 -->
<g id="node17" class="node">
<title>Node17</title>
<g id="a_node17"><a xlink:href="classnmbuflowtorch_1_1Network.html#ab4dcbf1de529e005b2eb4c31b8cbd552" target="_top" xlink:title=" ">
<polygon fill="none" stroke="black" points="637,-81 637,-111 774,-111 774,-81 637,-81"/>
<text text-anchor="start" x="645" y="-99" font-family="Helvetica,sans-Serif" font-size="10.00">nmbuflowtorch::Network</text>
<text text-anchor="middle" x="705.5" y="-88" font-family="Helvetica,sans-Serif" font-size="10.00">::update</text>
</a>
</g>
</g>
<!-- Node10&#45;&gt;Node17 -->
<g id="edge18" class="edge">
<title>Node10&#45;&gt;Node17</title>
<path fill="none" stroke="midnightblue" d="M579.91,-128C597.82,-123.4 617.68,-118.3 636.19,-113.54"/>
<polygon fill="midnightblue" stroke="midnightblue" points="637.21,-116.9 646.02,-111.02 635.47,-110.12 637.21,-116.9"/>
</g>
<!-- Node12 -->
<g id="node12" class="node">
<title>Node12</title>
<g id="a_node12"><a xlink:href="classnmbuflowtorch_1_1Loss.html#a29688f70477ce9f630cb313cc7e4c365" target="_top" xlink:title=" ">
<polygon fill="none" stroke="black" points="819.5,-267 819.5,-297 937.5,-297 937.5,-267 819.5,-267"/>
<text text-anchor="start" x="827.5" y="-285" font-family="Helvetica,sans-Serif" font-size="10.00">nmbuflowtorch::Loss</text>
<text text-anchor="middle" x="878.5" y="-274" font-family="Helvetica,sans-Serif" font-size="10.00">::back_gradient</text>
</a>
</g>
</g>
<!-- Node11&#45;&gt;Node12 -->
<g id="edge11" class="edge">
<title>Node11&#45;&gt;Node12</title>
<path fill="none" stroke="midnightblue" d="M759.2,-248.1C776.92,-253.18 796.85,-258.89 815.23,-264.16"/>
<polygon fill="midnightblue" stroke="midnightblue" points="814.4,-267.56 824.97,-266.95 816.32,-260.83 814.4,-267.56"/>
</g>
<!-- Node13 -->
<g id="node13" class="node">
<title>Node13</title>
<g id="a_node13"><a xlink:href="classnmbuflowtorch_1_1Loss.html#ab739a047ffc84f44af71832ec704cedc" target="_top" xlink:title=" ">
<polygon fill="none" stroke="black" points="819.5,-218 819.5,-248 937.5,-248 937.5,-218 819.5,-218"/>
<text text-anchor="start" x="827.5" y="-236" font-family="Helvetica,sans-Serif" font-size="10.00">nmbuflowtorch::Loss</text>
<text text-anchor="middle" x="878.5" y="-225" font-family="Helvetica,sans-Serif" font-size="10.00">::eval</text>
</a>
</g>
</g>
<!-- Node11&#45;&gt;Node13 -->
<g id="edge12" class="edge">
<title>Node11&#45;&gt;Node13</title>
<path fill="none" stroke="midnightblue" d="M774.08,-233C785.64,-233 797.65,-233 809.22,-233"/>
<polygon fill="midnightblue" stroke="midnightblue" points="809.25,-236.5 819.25,-233 809.25,-229.5 809.25,-236.5"/>
</g>
<!-- Node11&#45;&gt;Node14 -->
<g id="edge13" class="edge">
<title>Node11&#45;&gt;Node14</title>
<path fill="none" stroke="midnightblue" d="M759.2,-217.9C776.92,-212.82 796.85,-207.11 815.23,-201.84"/>
<polygon fill="midnightblue" stroke="midnightblue" points="816.32,-205.17 824.97,-199.05 814.4,-198.44 816.32,-205.17"/>
</g>
<!-- Node15&#45;&gt;Node14 -->
<g id="edge15" class="edge">
<title>Node15&#45;&gt;Node14</title>
<path fill="none" stroke="midnightblue" d="M755.78,-62.12C762.15,-64.96 768.39,-68.25 774,-72 810.22,-96.24 842.65,-135.61 861.19,-160.63"/>
<polygon fill="midnightblue" stroke="midnightblue" points="858.44,-162.8 867.15,-168.83 864.1,-158.69 858.44,-162.8"/>
</g>
<!-- Node19&#45;&gt;Node15 -->
<g id="edge22" class="edge">
<title>Node19&#45;&gt;Node15</title>
<path fill="none" stroke="midnightblue" d="M222.65,-47.88C324.92,-47.69 518.38,-47.34 626.46,-47.14"/>
<polygon fill="midnightblue" stroke="midnightblue" points="626.65,-50.64 636.65,-47.12 626.64,-43.64 626.65,-50.64"/>
</g>
<!-- Node20 -->
<g id="node20" class="node">
<title>Node20</title>
<g id="a_node20"><a xlink:href="math__m_8hpp.html#aebe2ab42fdbc00b9e3afb06ba7d536c3" target="_top" xlink:title=" ">
<polygon fill="none" stroke="black" points="295,-0.5 295,-19.5 376,-19.5 376,-0.5 295,-0.5"/>
<text text-anchor="middle" x="335.5" y="-7.5" font-family="Helvetica,sans-Serif" font-size="10.00">binary_cutoff</text>
</a>
</g>
</g>
<!-- Node19&#45;&gt;Node20 -->
<g id="edge21" class="edge">
<title>Node19&#45;&gt;Node20</title>
<path fill="none" stroke="midnightblue" d="M222.61,-33.69C243.24,-29.32 265.55,-24.6 284.77,-20.53"/>
<polygon fill="midnightblue" stroke="midnightblue" points="285.75,-23.9 294.81,-18.4 284.31,-17.05 285.75,-23.9"/>
</g>
</g>
</svg>
