<?xml version="1.0" encoding="UTF-8" standalone="no"?>
<!DOCTYPE svg PUBLIC "-//W3C//DTD SVG 1.1//EN"
 "http://www.w3.org/Graphics/SVG/1.1/DTD/svg11.dtd">
<!-- Generated by graphviz version 2.43.0 (0)
 -->
<!-- Title: main Pages: 1 -->
<svg width="222pt" height="372pt"
 viewBox="0.00 0.00 222.00 372.00" xmlns="http://www.w3.org/2000/svg" xmlns:xlink="http://www.w3.org/1999/xlink">
<g id="graph0" class="graph" transform="scale(1 1) rotate(0) translate(4 368)">
<title>main</title>
<!-- Node1 -->
<g id="node1" class="node">
<title>Node1</title>
<g id="a_node1"><a xlink:title=" ">
<polygon fill="#bfbfbf" stroke="black" points="0,-175 0,-194 41,-194 41,-175 0,-175"/>
<text text-anchor="middle" x="20.5" y="-182" font-family="Helvetica,sans-Serif" font-size="10.00">main</text>
</a>
</g>
</g>
<!-- Node2 -->
<g id="node2" class="node">
<title>Node2</title>
<g id="a_node2"><a xlink:href="classnmbuflowtorch_1_1Network.html#aa1d574b1f7daac023f4917887dd05ead" target="_top" xlink:title="Adds a layer to the network.">
<polygon fill="none" stroke="black" points="77,-333.5 77,-363.5 214,-363.5 214,-333.5 77,-333.5"/>
<text text-anchor="start" x="85" y="-351.5" font-family="Helvetica,sans-Serif" font-size="10.00">nmbuflowtorch::Network</text>
<text text-anchor="middle" x="145.5" y="-340.5" font-family="Helvetica,sans-Serif" font-size="10.00">::add_layer</text>
</a>
</g>
</g>
<!-- Node1&#45;&gt;Node2 -->
<g id="edge1" class="edge">
<title>Node1&#45;&gt;Node2</title>
<path fill="none" stroke="midnightblue" d="M22.59,-194.16C25.92,-219.24 38.24,-287.1 77,-324.5 78.12,-325.58 79.29,-326.61 80.5,-327.6"/>
<polygon fill="midnightblue" stroke="midnightblue" points="78.84,-330.7 89.08,-333.45 82.79,-324.92 78.84,-330.7"/>
</g>
<!-- Node3 -->
<g id="node3" class="node">
<title>Node3</title>
<g id="a_node3"><a xlink:href="classnmbuflowtorch_1_1Network.html#a7a86be4bc0c3901a48cfb70b286ec363" target="_top" xlink:title="Adds a loss function to the network.">
<polygon fill="none" stroke="black" points="77,-284.5 77,-314.5 214,-314.5 214,-284.5 77,-284.5"/>
<text text-anchor="start" x="85" y="-302.5" font-family="Helvetica,sans-Serif" font-size="10.00">nmbuflowtorch::Network</text>
<text text-anchor="middle" x="145.5" y="-291.5" font-family="Helvetica,sans-Serif" font-size="10.00">::add_loss</text>
</a>
</g>
</g>
<!-- Node1&#45;&gt;Node3 -->
<g id="edge2" class="edge">
<title>Node1&#45;&gt;Node3</title>
<path fill="none" stroke="midnightblue" d="M24.89,-194.23C31.81,-212.69 49.28,-252.98 77,-275.5 78.59,-276.79 80.26,-278.02 81.99,-279.18"/>
<polygon fill="midnightblue" stroke="midnightblue" points="80.64,-282.45 91.03,-284.48 84.17,-276.41 80.64,-282.45"/>
</g>
<!-- Node4 -->
<g id="node4" class="node">
<title>Node4</title>
<g id="a_node4"><a xlink:href="classnmbuflowtorch_1_1Network.html#a1120a4649f5317ab85b7fd0124f91f75" target="_top" xlink:title="Adds an optimizer to the network.">
<polygon fill="none" stroke="black" points="77,-235.5 77,-265.5 214,-265.5 214,-235.5 77,-235.5"/>
<text text-anchor="start" x="85" y="-253.5" font-family="Helvetica,sans-Serif" font-size="10.00">nmbuflowtorch::Network</text>
<text text-anchor="middle" x="145.5" y="-242.5" font-family="Helvetica,sans-Serif" font-size="10.00">::add_optimizer</text>
</a>
</g>
</g>
<!-- Node1&#45;&gt;Node4 -->
<g id="edge3" class="edge">
<title>Node1&#45;&gt;Node4</title>
<path fill="none" stroke="midnightblue" d="M32.76,-194.31C43.55,-203.33 60.56,-216.61 77,-225.5 80.88,-227.6 84.97,-229.59 89.14,-231.47"/>
<polygon fill="midnightblue" stroke="midnightblue" points="87.77,-234.69 98.34,-235.39 90.52,-228.25 87.77,-234.69"/>
</g>
<!-- Node5 -->
<g id="node5" class="node">
<title>Node5</title>
<g id="a_node5"><a xlink:href="math__m_8hpp.html#a0e23efeb2dd144a8996c76c32ec0ac45" target="_top" xlink:title="Finds the maximum value in each column of a matrix and returns the corresponding indices.">
<polygon fill="none" stroke="black" points="89,-197 89,-216 202,-216 202,-197 89,-197"/>
<text text-anchor="middle" x="145.5" y="-204" font-family="Helvetica,sans-Serif" font-size="10.00">colwise_max_index</text>
</a>
</g>
</g>
<!-- Node1&#45;&gt;Node5 -->
<g id="edge4" class="edge">
<title>Node1&#45;&gt;Node5</title>
<path fill="none" stroke="midnightblue" d="M41.26,-188.03C52.3,-190.01 66.73,-192.59 81.29,-195.19"/>
<polygon fill="midnightblue" stroke="midnightblue" points="80.88,-198.68 91.34,-196.99 82.12,-191.79 80.88,-198.68"/>
</g>
<!-- Node6 -->
<g id="node6" class="node">
<title>Node6</title>
<g id="a_node6"><a xlink:href="classnmbuflowtorch_1_1layer_1_1Dense.html#aa02b200ce47da143d194d34d7ad273af" target="_top" xlink:title="Get the type of the layer.">
<polygon fill="none" stroke="black" points="79.5,-147.5 79.5,-177.5 211.5,-177.5 211.5,-147.5 79.5,-147.5"/>
<text text-anchor="start" x="87.5" y="-165.5" font-family="Helvetica,sans-Serif" font-size="10.00">nmbuflowtorch::layer</text>
<text text-anchor="middle" x="145.5" y="-154.5" font-family="Helvetica,sans-Serif" font-size="10.00">::Dense::get_layer_type</text>
</a>
</g>
</g>
<!-- Node1&#45;&gt;Node6 -->
<g id="edge5" class="edge">
<title>Node1&#45;&gt;Node6</title>
<path fill="none" stroke="midnightblue" d="M41.26,-180.97C49.24,-179.54 58.99,-177.79 69.28,-175.95"/>
<polygon fill="midnightblue" stroke="midnightblue" points="70.04,-179.37 79.27,-174.17 68.81,-172.48 70.04,-179.37"/>
</g>
<!-- Node7 -->
<g id="node7" class="node">
<title>Node7</title>
<g id="a_node7"><a xlink:href="classnmbuflowtorch_1_1layer_1_1Dense.html#a1b343ab594510f4ab93c9c292b5a5123" target="_top" xlink:title="Get the output dimension of the dense layer.">
<polygon fill="none" stroke="black" points="85.5,-98.5 85.5,-128.5 205.5,-128.5 205.5,-98.5 85.5,-98.5"/>
<text text-anchor="start" x="93.5" y="-116.5" font-family="Helvetica,sans-Serif" font-size="10.00">nmbuflowtorch::layer</text>
<text text-anchor="middle" x="145.5" y="-105.5" font-family="Helvetica,sans-Serif" font-size="10.00">::Dense::output_dim</text>
</a>
</g>
</g>
<!-- Node1&#45;&gt;Node7 -->
<g id="edge6" class="edge">
<title>Node1&#45;&gt;Node7</title>
<path fill="none" stroke="midnightblue" d="M30.96,-174.92C41.45,-164.75 59.22,-148.76 77,-138.5 80.59,-136.43 84.39,-134.47 88.27,-132.64"/>
<polygon fill="midnightblue" stroke="midnightblue" points="89.72,-135.83 97.45,-128.58 86.89,-129.42 89.72,-135.83"/>
</g>
<!-- Node8 -->
<g id="node8" class="node">
<title>Node8</title>
<g id="a_node8"><a xlink:href="classnmbuflowtorch_1_1layer_1_1Dense.html#add10aea1bd55ec3ad1cd0033b6d1945f" target="_top" xlink:title="Set the bias of the dense layer.">
<polygon fill="none" stroke="black" points="85.5,-49.5 85.5,-79.5 205.5,-79.5 205.5,-49.5 85.5,-49.5"/>
<text text-anchor="start" x="93.5" y="-67.5" font-family="Helvetica,sans-Serif" font-size="10.00">nmbuflowtorch::layer</text>
<text text-anchor="middle" x="145.5" y="-56.5" font-family="Helvetica,sans-Serif" font-size="10.00">::Dense::set_bias</text>
</a>
</g>
</g>
<!-- Node1&#45;&gt;Node8 -->
<g id="edge7" class="edge">
<title>Node1&#45;&gt;Node8</title>
<path fill="none" stroke="midnightblue" d="M24.59,-174.97C31.2,-156.03 48.47,-113.45 77,-89.5 79.01,-87.81 81.14,-86.23 83.37,-84.76"/>
<polygon fill="midnightblue" stroke="midnightblue" points="85.44,-87.6 92.33,-79.55 81.92,-81.55 85.44,-87.6"/>
</g>
<!-- Node9 -->
<g id="node9" class="node">
<title>Node9</title>
<g id="a_node9"><a xlink:href="classnmbuflowtorch_1_1layer_1_1Dense.html#af67831f9eb6d9defb29088973d07e049" target="_top" xlink:title="Set the weights of the dense layer.">
<polygon fill="none" stroke="black" points="85.5,-0.5 85.5,-30.5 205.5,-30.5 205.5,-0.5 85.5,-0.5"/>
<text text-anchor="start" x="93.5" y="-18.5" font-family="Helvetica,sans-Serif" font-size="10.00">nmbuflowtorch::layer</text>
<text text-anchor="middle" x="145.5" y="-7.5" font-family="Helvetica,sans-Serif" font-size="10.00">::Dense::set_weights</text>
</a>
</g>
</g>
<!-- Node1&#45;&gt;Node9 -->
<g id="edge8" class="edge">
<title>Node1&#45;&gt;Node9</title>
<path fill="none" stroke="midnightblue" d="M22.48,-174.97C25.6,-149.56 37.53,-79.46 77,-40.5 78.47,-39.05 80.03,-37.69 81.66,-36.4"/>
<polygon fill="midnightblue" stroke="midnightblue" points="83.98,-39.06 90.35,-30.59 80.09,-33.24 83.98,-39.06"/>
</g>
</g>
</svg>
