<?xml version="1.0" encoding="UTF-8" standalone="no"?>
<!DOCTYPE svg PUBLIC "-//W3C//DTD SVG 1.1//EN"
 "http://www.w3.org/Graphics/SVG/1.1/DTD/svg11.dtd">
<!-- Generated by graphviz version 2.43.0 (0)
 -->
<!-- Title: src/main_single_thread.cpp Pages: 1 -->
<svg width="1265pt" height="330pt"
 viewBox="0.00 0.00 1265.28 330.00" xmlns="http://www.w3.org/2000/svg" xmlns:xlink="http://www.w3.org/1999/xlink">
<g id="graph0" class="graph" transform="scale(1 1) rotate(0) translate(4 326)">
<title>src/main_single_thread.cpp</title>
<!-- Node1 -->
<g id="node1" class="node">
<title>Node1</title>
<g id="a_node1"><a xlink:title=" ">
<polygon fill="#bfbfbf" stroke="black" points="476.28,-302.5 476.28,-321.5 626.28,-321.5 626.28,-302.5 476.28,-302.5"/>
<text text-anchor="middle" x="551.28" y="-309.5" font-family="Helvetica,sans-Serif" font-size="10.00">src/main_single_thread.cpp</text>
</a>
</g>
</g>
<!-- Node2 -->
<g id="node2" class="node">
<title>Node2</title>
<g id="a_node2"><a xlink:title=" ">
<polygon fill="none" stroke="#bfbfbf" points="55.78,-0.5 55.78,-19.5 102.78,-19.5 102.78,-0.5 55.78,-0.5"/>
<text text-anchor="middle" x="79.28" y="-7.5" font-family="Helvetica,sans-Serif" font-size="10.00">cmath</text>
</a>
</g>
</g>
<!-- Node1&#45;&gt;Node2 -->
<g id="edge1" class="edge">
<title>Node1&#45;&gt;Node2</title>
<path fill="none" stroke="midnightblue" d="M476.1,-309.44C338,-305.88 54.91,-295.1 21.28,-266 -6.85,-241.67 2.28,-221.69 2.28,-184.5 2.28,-184.5 2.28,-184.5 2.28,-121 2.28,-80.93 37,-45.08 59.81,-25.84"/>
<polygon fill="midnightblue" stroke="midnightblue" points="62.03,-28.55 67.59,-19.53 57.62,-23.11 62.03,-28.55"/>
</g>
<!-- Node3 -->
<g id="node3" class="node">
<title>Node3</title>
<g id="a_node3"><a xlink:title=" ">
<polygon fill="none" stroke="#bfbfbf" points="30.28,-241 30.28,-260 86.28,-260 86.28,-241 30.28,-241"/>
<text text-anchor="middle" x="58.28" y="-248" font-family="Helvetica,sans-Serif" font-size="10.00">iomanip</text>
</a>
</g>
</g>
<!-- Node1&#45;&gt;Node3 -->
<g id="edge2" class="edge">
<title>Node1&#45;&gt;Node3</title>
<path fill="none" stroke="midnightblue" d="M476.23,-308.85C386.03,-305.04 230.56,-294.58 100.28,-266 96.79,-265.23 93.18,-264.27 89.61,-263.2"/>
<polygon fill="midnightblue" stroke="midnightblue" points="90.4,-259.78 79.8,-260.01 88.23,-266.43 90.4,-259.78"/>
</g>
<!-- Node4 -->
<g id="node4" class="node">
<title>Node4</title>
<g id="a_node4"><a xlink:title=" ">
<polygon fill="none" stroke="#bfbfbf" points="225.28,-0.5 225.28,-19.5 285.28,-19.5 285.28,-0.5 225.28,-0.5"/>
<text text-anchor="middle" x="255.28" y="-7.5" font-family="Helvetica,sans-Serif" font-size="10.00">iostream</text>
</a>
</g>
</g>
<!-- Node1&#45;&gt;Node4 -->
<g id="edge3" class="edge">
<title>Node1&#45;&gt;Node4</title>
<path fill="none" stroke="midnightblue" d="M476.19,-307.58C362.81,-301.73 158.39,-288.22 133.28,-266 105.43,-241.35 114.28,-221.69 114.28,-184.5 114.28,-184.5 114.28,-184.5 114.28,-121 114.28,-69.26 174.03,-38.27 215.74,-22.94"/>
<polygon fill="midnightblue" stroke="midnightblue" points="217.1,-26.17 225.38,-19.55 214.78,-19.56 217.1,-26.17"/>
</g>
<!-- Node5 -->
<g id="node5" class="node">
<title>Node5</title>
<g id="a_node5"><a xlink:title=" ">
<polygon fill="none" stroke="#bfbfbf" points="142.78,-241 142.78,-260 199.78,-260 199.78,-241 142.78,-241"/>
<text text-anchor="middle" x="171.28" y="-248" font-family="Helvetica,sans-Serif" font-size="10.00">ostream</text>
</a>
</g>
</g>
<!-- Node1&#45;&gt;Node5 -->
<g id="edge4" class="edge">
<title>Node1&#45;&gt;Node5</title>
<path fill="none" stroke="midnightblue" d="M476.25,-305.15C407.46,-298.81 303.1,-286.7 214.28,-266 210.8,-265.19 207.2,-264.21 203.64,-263.15"/>
<polygon fill="midnightblue" stroke="midnightblue" points="204.4,-259.72 193.81,-260 202.27,-266.38 204.4,-259.72"/>
</g>
<!-- Node6 -->
<g id="node6" class="node">
<title>Node6</title>
<g id="a_node6"><a xlink:title=" ">
<polygon fill="none" stroke="#bfbfbf" points="754.78,-0.5 754.78,-19.5 801.78,-19.5 801.78,-0.5 754.78,-0.5"/>
<text text-anchor="middle" x="778.28" y="-7.5" font-family="Helvetica,sans-Serif" font-size="10.00">vector</text>
</a>
</g>
</g>
<!-- Node1&#45;&gt;Node6 -->
<g id="edge5" class="edge">
<title>Node1&#45;&gt;Node6</title>
<path fill="none" stroke="midnightblue" d="M626.33,-309.47C760.72,-306.03 1036.97,-295.5 1128.28,-266 1192.82,-245.15 1257.28,-252.32 1257.28,-184.5 1257.28,-184.5 1257.28,-184.5 1257.28,-121 1257.28,-29.55 921.43,-14.12 812.18,-11.53"/>
<polygon fill="midnightblue" stroke="midnightblue" points="812.11,-8.02 802.04,-11.31 811.96,-15.02 812.11,-8.02"/>
</g>
<!-- Node7 -->
<g id="node7" class="node">
<title>Node7</title>
<g id="a_node7"><a xlink:href="definitions_8hpp.html" target="_top" xlink:title=" ">
<polygon fill="none" stroke="black" points="466.28,-56.5 466.28,-75.5 630.28,-75.5 630.28,-56.5 466.28,-56.5"/>
<text text-anchor="middle" x="548.28" y="-63.5" font-family="Helvetica,sans-Serif" font-size="10.00">nmbuflowtorch/definitions.hpp</text>
</a>
</g>
</g>
<!-- Node1&#45;&gt;Node7 -->
<g id="edge6" class="edge">
<title>Node1&#45;&gt;Node7</title>
<path fill="none" stroke="midnightblue" d="M475.99,-309.37C403.02,-306 299.73,-295.92 274.28,-266 216.28,-197.82 239.18,-204.16 391.28,-112 418.95,-95.23 453.15,-84.47 482.55,-77.7"/>
<polygon fill="midnightblue" stroke="midnightblue" points="483.31,-81.11 492.32,-75.55 481.8,-74.28 483.31,-81.11"/>
</g>
<!-- Node12 -->
<g id="node12" class="node">
<title>Node12</title>
<g id="a_node12"><a xlink:href="layer_8hpp.html" target="_top" xlink:title=" ">
<polygon fill="none" stroke="black" points="709.78,-174 709.78,-193 846.78,-193 846.78,-174 709.78,-174"/>
<text text-anchor="middle" x="778.28" y="-181" font-family="Helvetica,sans-Serif" font-size="10.00">nmbuflowtorch/layer.hpp</text>
</a>
</g>
</g>
<!-- Node1&#45;&gt;Node12 -->
<g id="edge14" class="edge">
<title>Node1&#45;&gt;Node12</title>
<path fill="none" stroke="midnightblue" d="M626.49,-310.67C706.76,-308.52 826.31,-299.58 855.28,-266 876.74,-241.13 836.46,-213.64 806.5,-197.78"/>
<polygon fill="midnightblue" stroke="midnightblue" points="807.73,-194.48 797.23,-193.06 804.55,-200.72 807.73,-194.48"/>
</g>
<!-- Node13 -->
<g id="node13" class="node">
<title>Node13</title>
<g id="a_node13"><a xlink:href="optimizer_8hpp.html" target="_top" xlink:title=" ">
<polygon fill="none" stroke="black" points="868.78,-112.5 868.78,-131.5 957.78,-131.5 957.78,-112.5 868.78,-112.5"/>
<text text-anchor="middle" x="913.28" y="-119.5" font-family="Helvetica,sans-Serif" font-size="10.00">./optimizer.hpp</text>
</a>
</g>
</g>
<!-- Node1&#45;&gt;Node13 -->
<g id="edge43" class="edge">
<title>Node1&#45;&gt;Node13</title>
<path fill="none" stroke="midnightblue" d="M626.41,-309.91C761.99,-307.15 1036.25,-297.68 1065.28,-266 1112.48,-214.48 1002.32,-159.44 945.09,-135.41"/>
<polygon fill="midnightblue" stroke="midnightblue" points="946.31,-132.13 935.73,-131.56 943.64,-138.6 946.31,-132.13"/>
</g>
<!-- Node15 -->
<g id="node15" class="node">
<title>Node15</title>
<g id="a_node15"><a xlink:href="dense_8hpp.html" target="_top" xlink:title=" ">
<polygon fill="none" stroke="black" points="294.78,-235.5 294.78,-265.5 411.78,-265.5 411.78,-235.5 294.78,-235.5"/>
<text text-anchor="start" x="302.78" y="-253.5" font-family="Helvetica,sans-Serif" font-size="10.00">nmbuflowtorch/layer</text>
<text text-anchor="middle" x="353.28" y="-242.5" font-family="Helvetica,sans-Serif" font-size="10.00">/dense.hpp</text>
</a>
</g>
</g>
<!-- Node1&#45;&gt;Node15 -->
<g id="edge20" class="edge">
<title>Node1&#45;&gt;Node15</title>
<path fill="none" stroke="midnightblue" d="M522.91,-302.48C493.47,-293.63 446.62,-279.55 409.61,-268.43"/>
<polygon fill="midnightblue" stroke="midnightblue" points="410.53,-265.05 399.95,-265.52 408.52,-271.75 410.53,-265.05"/>
</g>
<!-- Node16 -->
<g id="node16" class="node">
<title>Node16</title>
<g id="a_node16"><a xlink:href="math__m_8hpp.html" target="_top" xlink:title=" ">
<polygon fill="none" stroke="black" points="381.78,-174 381.78,-193 468.78,-193 468.78,-174 381.78,-174"/>
<text text-anchor="middle" x="425.28" y="-181" font-family="Helvetica,sans-Serif" font-size="10.00">../math_m.hpp</text>
</a>
</g>
</g>
<!-- Node1&#45;&gt;Node16 -->
<g id="edge35" class="edge">
<title>Node1&#45;&gt;Node16</title>
<path fill="none" stroke="midnightblue" d="M475.96,-308.7C406.34,-304.81 310.18,-294.3 286.28,-266 256.92,-231.24 320.99,-207.75 371.61,-195.24"/>
<polygon fill="midnightblue" stroke="midnightblue" points="372.6,-198.6 381.52,-192.88 370.98,-191.79 372.6,-198.6"/>
</g>
<!-- Node18 -->
<g id="node18" class="node">
<title>Node18</title>
<g id="a_node18"><a xlink:href="sigmoid_8hpp.html" target="_top" xlink:title=" ">
<polygon fill="none" stroke="black" points="728.78,-235.5 728.78,-265.5 845.78,-265.5 845.78,-235.5 728.78,-235.5"/>
<text text-anchor="start" x="736.78" y="-253.5" font-family="Helvetica,sans-Serif" font-size="10.00">nmbuflowtorch/layer</text>
<text text-anchor="middle" x="787.28" y="-242.5" font-family="Helvetica,sans-Serif" font-size="10.00">/sigmoid.hpp</text>
</a>
</g>
</g>
<!-- Node1&#45;&gt;Node18 -->
<g id="edge27" class="edge">
<title>Node1&#45;&gt;Node18</title>
<path fill="none" stroke="midnightblue" d="M585.09,-302.48C620.64,-293.51 677.46,-279.19 721.82,-268"/>
<polygon fill="midnightblue" stroke="midnightblue" points="722.82,-271.36 731.66,-265.52 721.11,-264.57 722.82,-271.36"/>
</g>
<!-- Node19 -->
<g id="node19" class="node">
<title>Node19</title>
<g id="a_node19"><a xlink:href="loss_8hpp.html" target="_top" xlink:title=" ">
<polygon fill="none" stroke="black" points="558.78,-174 558.78,-193 691.78,-193 691.78,-174 558.78,-174"/>
<text text-anchor="middle" x="625.28" y="-181" font-family="Helvetica,sans-Serif" font-size="10.00">nmbuflowtorch/loss.hpp</text>
</a>
</g>
</g>
<!-- Node1&#45;&gt;Node19 -->
<g id="edge29" class="edge">
<title>Node1&#45;&gt;Node19</title>
<path fill="none" stroke="midnightblue" d="M623.54,-302.42C645.7,-296.02 667.77,-284.97 681.28,-266 697.81,-242.79 669.37,-215.42 647.32,-199.04"/>
<polygon fill="midnightblue" stroke="midnightblue" points="649.18,-196.07 639,-193.13 645.13,-201.77 649.18,-196.07"/>
</g>
<!-- Node20 -->
<g id="node20" class="node">
<title>Node20</title>
<g id="a_node20"><a xlink:href="cross__entropy_8hpp.html" target="_top" xlink:title=" ">
<polygon fill="none" stroke="black" points="430.28,-235.5 430.28,-265.5 542.28,-265.5 542.28,-235.5 430.28,-235.5"/>
<text text-anchor="start" x="438.28" y="-253.5" font-family="Helvetica,sans-Serif" font-size="10.00">nmbuflowtorch/loss</text>
<text text-anchor="middle" x="486.28" y="-242.5" font-family="Helvetica,sans-Serif" font-size="10.00">/cross_entropy.hpp</text>
</a>
</g>
</g>
<!-- Node1&#45;&gt;Node20 -->
<g id="edge31" class="edge">
<title>Node1&#45;&gt;Node20</title>
<path fill="none" stroke="midnightblue" d="M541.97,-302.48C533.41,-294.64 520.38,-282.71 509.08,-272.37"/>
<polygon fill="midnightblue" stroke="midnightblue" points="511.34,-269.69 501.6,-265.52 506.61,-274.86 511.34,-269.69"/>
</g>
<!-- Node21 -->
<g id="node21" class="node">
<title>Node21</title>
<g id="a_node21"><a xlink:href="mse_8hpp.html" target="_top" xlink:title=" ">
<polygon fill="none" stroke="black" points="560.28,-235.5 560.28,-265.5 672.28,-265.5 672.28,-235.5 560.28,-235.5"/>
<text text-anchor="start" x="568.28" y="-253.5" font-family="Helvetica,sans-Serif" font-size="10.00">nmbuflowtorch/loss</text>
<text text-anchor="middle" x="616.28" y="-242.5" font-family="Helvetica,sans-Serif" font-size="10.00">/mse.hpp</text>
</a>
</g>
</g>
<!-- Node1&#45;&gt;Node21 -->
<g id="edge33" class="edge">
<title>Node1&#45;&gt;Node21</title>
<path fill="none" stroke="midnightblue" d="M560.59,-302.48C569.15,-294.64 582.18,-282.71 593.49,-272.37"/>
<polygon fill="midnightblue" stroke="midnightblue" points="595.95,-274.86 600.96,-265.52 591.22,-269.69 595.95,-274.86"/>
</g>
<!-- Node22 -->
<g id="node22" class="node">
<title>Node22</title>
<g id="a_node22"><a xlink:href="network_8hpp.html" target="_top" xlink:title="Network class representing a sequence of layers. This class implements a network consisting of a sequ...">
<polygon fill="none" stroke="black" points="902.78,-241 902.78,-260 1055.78,-260 1055.78,-241 902.78,-241"/>
<text text-anchor="middle" x="979.28" y="-248" font-family="Helvetica,sans-Serif" font-size="10.00">nmbuflowtorch/network.hpp</text>
</a>
</g>
</g>
<!-- Node1&#45;&gt;Node22 -->
<g id="edge36" class="edge">
<title>Node1&#45;&gt;Node22</title>
<path fill="none" stroke="midnightblue" d="M618.81,-302.49C686.9,-293.8 794.98,-279.66 888.28,-266 897.68,-264.62 907.61,-263.11 917.33,-261.59"/>
<polygon fill="midnightblue" stroke="midnightblue" points="918.01,-265.02 927.34,-260.01 916.92,-258.11 918.01,-265.02"/>
</g>
<!-- Node24 -->
<g id="node24" class="node">
<title>Node24</title>
<g id="a_node24"><a xlink:href="sgd_8hpp.html" target="_top" xlink:title=" ">
<polygon fill="none" stroke="black" points="1089.78,-168.5 1089.78,-198.5 1228.78,-198.5 1228.78,-168.5 1089.78,-168.5"/>
<text text-anchor="start" x="1097.78" y="-186.5" font-family="Helvetica,sans-Serif" font-size="10.00">nmbuflowtorch/optimizer</text>
<text text-anchor="middle" x="1159.28" y="-175.5" font-family="Helvetica,sans-Serif" font-size="10.00">/sgd.hpp</text>
</a>
</g>
</g>
<!-- Node1&#45;&gt;Node24 -->
<g id="edge44" class="edge">
<title>Node1&#45;&gt;Node24</title>
<path fill="none" stroke="midnightblue" d="M626.5,-308.23C766.83,-302.57 1058,-288.28 1098.28,-266 1121.7,-253.05 1138.76,-226.91 1148.78,-207.71"/>
<polygon fill="midnightblue" stroke="midnightblue" points="1151.96,-209.18 1153.26,-198.67 1145.69,-206.08 1151.96,-209.18"/>
</g>
<!-- Node7&#45;&gt;Node2 -->
<g id="edge9" class="edge">
<title>Node7&#45;&gt;Node2</title>
<path fill="none" stroke="midnightblue" d="M474.23,-56.47C371.14,-44.6 188.58,-23.58 113.25,-14.91"/>
<polygon fill="midnightblue" stroke="midnightblue" points="113.27,-11.39 102.93,-13.72 112.47,-18.34 113.27,-11.39"/>
</g>
<!-- Node7&#45;&gt;Node4 -->
<g id="edge11" class="edge">
<title>Node7&#45;&gt;Node4</title>
<path fill="none" stroke="midnightblue" d="M501.86,-56.44C444.86,-45.94 349.14,-28.3 295.26,-18.37"/>
<polygon fill="midnightblue" stroke="midnightblue" points="295.86,-14.92 285.39,-16.55 294.59,-21.8 295.86,-14.92"/>
</g>
<!-- Node7&#45;&gt;Node6 -->
<g id="edge13" class="edge">
<title>Node7&#45;&gt;Node6</title>
<path fill="none" stroke="midnightblue" d="M584.73,-56.44C628.73,-46.11 702.11,-28.88 744.76,-18.87"/>
<polygon fill="midnightblue" stroke="midnightblue" points="745.71,-22.24 754.65,-16.55 744.11,-15.43 745.71,-22.24"/>
</g>
<!-- Node8 -->
<g id="node8" class="node">
<title>Node8</title>
<g id="a_node8"><a xlink:title=" ">
<polygon fill="none" stroke="#bfbfbf" points="435.28,-0.5 435.28,-19.5 491.28,-19.5 491.28,-0.5 435.28,-0.5"/>
<text text-anchor="middle" x="463.28" y="-7.5" font-family="Helvetica,sans-Serif" font-size="10.00">unistd.h</text>
</a>
</g>
</g>
<!-- Node7&#45;&gt;Node8 -->
<g id="edge7" class="edge">
<title>Node7&#45;&gt;Node8</title>
<path fill="none" stroke="midnightblue" d="M534.63,-56.32C521.37,-47.9 501.01,-34.97 485.44,-25.07"/>
<polygon fill="midnightblue" stroke="midnightblue" points="487.22,-22.06 476.9,-19.65 483.47,-27.97 487.22,-22.06"/>
</g>
<!-- Node9 -->
<g id="node9" class="node">
<title>Node9</title>
<g id="a_node9"><a xlink:title=" ">
<polygon fill="none" stroke="#bfbfbf" points="509.78,-0.5 509.78,-19.5 586.78,-19.5 586.78,-0.5 509.78,-0.5"/>
<text text-anchor="middle" x="548.28" y="-7.5" font-family="Helvetica,sans-Serif" font-size="10.00">Eigen/Dense</text>
</a>
</g>
</g>
<!-- Node7&#45;&gt;Node9 -->
<g id="edge8" class="edge">
<title>Node7&#45;&gt;Node9</title>
<path fill="none" stroke="midnightblue" d="M548.28,-56.08C548.28,-49.01 548.28,-38.86 548.28,-29.99"/>
<polygon fill="midnightblue" stroke="midnightblue" points="551.78,-29.75 548.28,-19.75 544.78,-29.75 551.78,-29.75"/>
</g>
<!-- Node10 -->
<g id="node10" class="node">
<title>Node10</title>
<g id="a_node10"><a xlink:title=" ">
<polygon fill="none" stroke="#bfbfbf" points="605.28,-0.5 605.28,-19.5 651.28,-19.5 651.28,-0.5 605.28,-0.5"/>
<text text-anchor="middle" x="628.28" y="-7.5" font-family="Helvetica,sans-Serif" font-size="10.00">cstdio</text>
</a>
</g>
</g>
<!-- Node7&#45;&gt;Node10 -->
<g id="edge10" class="edge">
<title>Node7&#45;&gt;Node10</title>
<path fill="none" stroke="midnightblue" d="M561.14,-56.32C573.5,-47.98 592.41,-35.21 607.02,-25.35"/>
<polygon fill="midnightblue" stroke="midnightblue" points="609.13,-28.15 615.46,-19.65 605.21,-22.35 609.13,-28.15"/>
</g>
<!-- Node11 -->
<g id="node11" class="node">
<title>Node11</title>
<g id="a_node11"><a xlink:title=" ">
<polygon fill="none" stroke="#bfbfbf" points="355.28,-0.5 355.28,-19.5 399.28,-19.5 399.28,-0.5 355.28,-0.5"/>
<text text-anchor="middle" x="377.28" y="-7.5" font-family="Helvetica,sans-Serif" font-size="10.00">string</text>
</a>
</g>
</g>
<!-- Node7&#45;&gt;Node11 -->
<g id="edge12" class="edge">
<title>Node7&#45;&gt;Node11</title>
<path fill="none" stroke="midnightblue" d="M521.19,-56.44C490.76,-46.84 441.45,-31.26 409.19,-21.07"/>
<polygon fill="midnightblue" stroke="midnightblue" points="409.95,-17.64 399.36,-17.97 407.84,-24.32 409.95,-17.64"/>
</g>
<!-- Node12&#45;&gt;Node6 -->
<g id="edge15" class="edge">
<title>Node12&#45;&gt;Node6</title>
<path fill="none" stroke="midnightblue" d="M778.28,-173.76C778.28,-147.15 778.28,-66.71 778.28,-29.84"/>
<polygon fill="midnightblue" stroke="midnightblue" points="781.78,-29.52 778.28,-19.52 774.78,-29.52 781.78,-29.52"/>
</g>
<!-- Node12&#45;&gt;Node7 -->
<g id="edge16" class="edge">
<title>Node12&#45;&gt;Node7</title>
<path fill="none" stroke="midnightblue" d="M760.99,-173.82C721.02,-153.74 621.99,-104.01 574.5,-80.17"/>
<polygon fill="midnightblue" stroke="midnightblue" points="575.96,-76.98 565.46,-75.62 572.82,-83.24 575.96,-76.98"/>
</g>
<!-- Node12&#45;&gt;Node13 -->
<g id="edge17" class="edge">
<title>Node12&#45;&gt;Node13</title>
<path fill="none" stroke="midnightblue" d="M797.62,-173.98C820.38,-163.95 858.37,-147.2 884.57,-135.65"/>
<polygon fill="midnightblue" stroke="midnightblue" points="886.24,-138.74 893.98,-131.51 883.41,-132.34 886.24,-138.74"/>
</g>
<!-- Node13&#45;&gt;Node7 -->
<g id="edge19" class="edge">
<title>Node13&#45;&gt;Node7</title>
<path fill="none" stroke="midnightblue" d="M868.53,-114.38C805.44,-105.04 689.85,-87.94 616.15,-77.04"/>
<polygon fill="midnightblue" stroke="midnightblue" points="616.45,-73.55 606.04,-75.55 615.42,-80.47 616.45,-73.55"/>
</g>
<!-- Node14 -->
<g id="node14" class="node">
<title>Node14</title>
<g id="a_node14"><a xlink:title=" ">
<polygon fill="none" stroke="#bfbfbf" points="866.78,-56.5 866.78,-75.5 959.78,-75.5 959.78,-56.5 866.78,-56.5"/>
<text text-anchor="middle" x="913.28" y="-63.5" font-family="Helvetica,sans-Serif" font-size="10.00">unordered_map</text>
</a>
</g>
</g>
<!-- Node13&#45;&gt;Node14 -->
<g id="edge18" class="edge">
<title>Node13&#45;&gt;Node14</title>
<path fill="none" stroke="midnightblue" d="M913.28,-112.08C913.28,-105.01 913.28,-94.86 913.28,-85.99"/>
<polygon fill="midnightblue" stroke="midnightblue" points="916.78,-85.75 913.28,-75.75 909.78,-85.75 916.78,-85.75"/>
</g>
<!-- Node15&#45;&gt;Node6 -->
<g id="edge22" class="edge">
<title>Node15&#45;&gt;Node6</title>
<path fill="none" stroke="midnightblue" d="M393.2,-235.42C418.14,-226.13 450.66,-213.1 478.28,-199 588.35,-142.83 710.56,-58.94 757.96,-25.51"/>
<polygon fill="midnightblue" stroke="midnightblue" points="760.03,-28.33 766.17,-19.69 755.98,-22.62 760.03,-28.33"/>
</g>
<!-- Node15&#45;&gt;Node11 -->
<g id="edge21" class="edge">
<title>Node15&#45;&gt;Node11</title>
<path fill="none" stroke="midnightblue" d="M354.71,-235.29C358.82,-194.43 370.69,-76.55 375.36,-30.12"/>
<polygon fill="midnightblue" stroke="midnightblue" points="378.86,-30.25 376.38,-19.95 371.9,-29.54 378.86,-30.25"/>
</g>
<!-- Node15&#45;&gt;Node12 -->
<g id="edge23" class="edge">
<title>Node15&#45;&gt;Node12</title>
<path fill="none" stroke="midnightblue" d="M411.83,-236.7C415.02,-236.1 418.19,-235.53 421.28,-235 544.96,-213.9 577.36,-218.62 701.28,-199 709.03,-197.77 717.19,-196.36 725.19,-194.92"/>
<polygon fill="midnightblue" stroke="midnightblue" points="725.99,-198.33 735.19,-193.07 724.72,-191.44 725.99,-198.33"/>
</g>
<!-- Node15&#45;&gt;Node16 -->
<g id="edge24" class="edge">
<title>Node15&#45;&gt;Node16</title>
<path fill="none" stroke="midnightblue" d="M368.9,-235.4C380.46,-224.96 396.2,-210.75 408.12,-200"/>
<polygon fill="midnightblue" stroke="midnightblue" points="410.57,-202.49 415.65,-193.19 405.88,-197.3 410.57,-202.49"/>
</g>
<!-- Node16&#45;&gt;Node7 -->
<g id="edge26" class="edge">
<title>Node16&#45;&gt;Node7</title>
<path fill="none" stroke="midnightblue" d="M434.53,-173.82C455.18,-154.42 505.33,-107.33 531.6,-82.66"/>
<polygon fill="midnightblue" stroke="midnightblue" points="534.04,-85.18 538.93,-75.78 529.24,-80.08 534.04,-85.18"/>
</g>
<!-- Node17 -->
<g id="node17" class="node">
<title>Node17</title>
<g id="a_node17"><a xlink:title=" ">
<polygon fill="none" stroke="#bfbfbf" points="399.78,-112.5 399.78,-131.5 450.78,-131.5 450.78,-112.5 399.78,-112.5"/>
<text text-anchor="middle" x="425.28" y="-119.5" font-family="Helvetica,sans-Serif" font-size="10.00">cblas.h</text>
</a>
</g>
</g>
<!-- Node16&#45;&gt;Node17 -->
<g id="edge25" class="edge">
<title>Node16&#45;&gt;Node17</title>
<path fill="none" stroke="midnightblue" d="M425.28,-173.98C425.28,-165.58 425.28,-152.48 425.28,-141.66"/>
<polygon fill="midnightblue" stroke="midnightblue" points="428.78,-141.51 425.28,-131.51 421.78,-141.51 428.78,-141.51"/>
</g>
<!-- Node18&#45;&gt;Node12 -->
<g id="edge28" class="edge">
<title>Node18&#45;&gt;Node12</title>
<path fill="none" stroke="midnightblue" d="M785.33,-235.4C784.02,-225.96 782.29,-213.45 780.87,-203.19"/>
<polygon fill="midnightblue" stroke="midnightblue" points="784.32,-202.62 779.49,-193.19 777.39,-203.58 784.32,-202.62"/>
</g>
<!-- Node19&#45;&gt;Node7 -->
<g id="edge30" class="edge">
<title>Node19&#45;&gt;Node7</title>
<path fill="none" stroke="midnightblue" d="M619.49,-173.82C606.84,-154.84 576.51,-109.35 559.81,-84.29"/>
<polygon fill="midnightblue" stroke="midnightblue" points="562.6,-82.16 554.14,-75.78 556.77,-86.04 562.6,-82.16"/>
</g>
<!-- Node20&#45;&gt;Node19 -->
<g id="edge32" class="edge">
<title>Node20&#45;&gt;Node19</title>
<path fill="none" stroke="midnightblue" d="M516.44,-235.4C540.72,-224.04 574.56,-208.22 598.03,-197.24"/>
<polygon fill="midnightblue" stroke="midnightblue" points="599.51,-200.41 607.09,-193.01 596.55,-194.07 599.51,-200.41"/>
</g>
<!-- Node21&#45;&gt;Node19 -->
<g id="edge34" class="edge">
<title>Node21&#45;&gt;Node19</title>
<path fill="none" stroke="midnightblue" d="M618.23,-235.4C619.54,-225.96 621.27,-213.45 622.69,-203.19"/>
<polygon fill="midnightblue" stroke="midnightblue" points="626.17,-203.58 624.08,-193.19 619.24,-202.62 626.17,-203.58"/>
</g>
<!-- Node22&#45;&gt;Node6 -->
<g id="edge38" class="edge">
<title>Node22&#45;&gt;Node6</title>
<path fill="none" stroke="midnightblue" d="M985.23,-240.67C991.39,-230.95 1000.63,-214.62 1004.28,-199 1019.19,-135.29 1017.17,-100.58 969.28,-56 946.69,-34.97 860.39,-21.16 811.88,-14.89"/>
<polygon fill="midnightblue" stroke="midnightblue" points="812.21,-11.41 801.86,-13.63 811.34,-18.35 812.21,-11.41"/>
</g>
<!-- Node22&#45;&gt;Node7 -->
<g id="edge39" class="edge">
<title>Node22&#45;&gt;Node7</title>
<path fill="none" stroke="midnightblue" d="M968.36,-240.79C947.6,-224.56 900.55,-189.44 856.28,-168 767.53,-125.01 655.96,-93.55 594.4,-77.98"/>
<polygon fill="midnightblue" stroke="midnightblue" points="595.14,-74.56 584.59,-75.53 593.44,-81.35 595.14,-74.56"/>
</g>
<!-- Node22&#45;&gt;Node12 -->
<g id="edge40" class="edge">
<title>Node22&#45;&gt;Node12</title>
<path fill="none" stroke="midnightblue" d="M952.59,-240.87C917.05,-229.38 854.07,-209.01 814.33,-196.16"/>
<polygon fill="midnightblue" stroke="midnightblue" points="815.36,-192.81 804.76,-193.06 813.2,-199.47 815.36,-192.81"/>
</g>
<!-- Node22&#45;&gt;Node13 -->
<g id="edge42" class="edge">
<title>Node22&#45;&gt;Node13</title>
<path fill="none" stroke="midnightblue" d="M968.94,-240.9C958.44,-231.62 942.46,-215.88 933.28,-199 923.53,-181.06 918.34,-158.12 915.72,-142.16"/>
<polygon fill="midnightblue" stroke="midnightblue" points="919.13,-141.33 914.23,-131.94 912.21,-142.34 919.13,-141.33"/>
</g>
<!-- Node22&#45;&gt;Node19 -->
<g id="edge41" class="edge">
<title>Node22&#45;&gt;Node19</title>
<path fill="none" stroke="midnightblue" d="M931.54,-240.96C876.14,-231.02 782.06,-214.04 701.28,-199 694.2,-197.68 686.75,-196.28 679.4,-194.89"/>
<polygon fill="midnightblue" stroke="midnightblue" points="679.95,-191.43 669.48,-193 678.65,-198.31 679.95,-191.43"/>
</g>
<!-- Node23 -->
<g id="node23" class="node">
<title>Node23</title>
<g id="a_node23"><a xlink:title=" ">
<polygon fill="none" stroke="#bfbfbf" points="941.78,-174 941.78,-193 994.78,-193 994.78,-174 941.78,-174"/>
<text text-anchor="middle" x="968.28" y="-181" font-family="Helvetica,sans-Serif" font-size="10.00">stdlib.h</text>
</a>
</g>
</g>
<!-- Node22&#45;&gt;Node23 -->
<g id="edge37" class="edge">
<title>Node22&#45;&gt;Node23</title>
<path fill="none" stroke="midnightblue" d="M977.8,-240.73C976.18,-231.18 973.55,-215.62 971.46,-203.28"/>
<polygon fill="midnightblue" stroke="midnightblue" points="974.86,-202.4 969.74,-193.13 967.96,-203.57 974.86,-202.4"/>
</g>
<!-- Node24&#45;&gt;Node13 -->
<g id="edge45" class="edge">
<title>Node24&#45;&gt;Node13</title>
<path fill="none" stroke="midnightblue" d="M1101.29,-168.47C1057.56,-157.9 998.43,-143.59 958.24,-133.87"/>
<polygon fill="midnightblue" stroke="midnightblue" points="958.99,-130.46 948.45,-131.51 957.35,-137.26 958.99,-130.46"/>
</g>
</g>
</svg>
