<?xml version="1.0" encoding="UTF-8" standalone="no"?>
<!DOCTYPE svg PUBLIC "-//W3C//DTD SVG 1.1//EN"
 "http://www.w3.org/Graphics/SVG/1.1/DTD/svg11.dtd">
<!-- Generated by graphviz version 2.43.0 (0)
 -->
<!-- Title: src/main_multithread.cpp Pages: 1 -->
<svg width="1392pt" height="330pt"
 viewBox="0.00 0.00 1392.00 330.00" xmlns="http://www.w3.org/2000/svg" xmlns:xlink="http://www.w3.org/1999/xlink">
<g id="graph0" class="graph" transform="scale(1 1) rotate(0) translate(4 326)">
<title>src/main_multithread.cpp</title>
<!-- Node1 -->
<g id="node1" class="node">
<title>Node1</title>
<g id="a_node1"><a xlink:title=" ">
<polygon fill="#bfbfbf" stroke="black" points="531,-302.5 531,-321.5 672,-321.5 672,-302.5 531,-302.5"/>
<text text-anchor="middle" x="601.5" y="-309.5" font-family="Helvetica,sans-Serif" font-size="10.00">src/main_multithread.cpp</text>
</a>
</g>
</g>
<!-- Node2 -->
<g id="node2" class="node">
<title>Node2</title>
<g id="a_node2"><a xlink:title=" ">
<polygon fill="none" stroke="#bfbfbf" points="0,-241 0,-260 47,-260 47,-241 0,-241"/>
<text text-anchor="middle" x="23.5" y="-248" font-family="Helvetica,sans-Serif" font-size="10.00">omp.h</text>
</a>
</g>
</g>
<!-- Node1&#45;&gt;Node2 -->
<g id="edge1" class="edge">
<title>Node1&#45;&gt;Node2</title>
<path fill="none" stroke="midnightblue" d="M530.64,-311.39C426.5,-310.56 226.61,-303.59 61.5,-266 58.5,-265.32 55.42,-264.45 52.37,-263.47"/>
<polygon fill="midnightblue" stroke="midnightblue" points="53.49,-260.15 42.9,-260.1 51.15,-266.75 53.49,-260.15"/>
</g>
<!-- Node3 -->
<g id="node3" class="node">
<title>Node3</title>
<g id="a_node3"><a xlink:title=" ">
<polygon fill="none" stroke="#bfbfbf" points="122,-0.5 122,-19.5 169,-19.5 169,-0.5 122,-0.5"/>
<text text-anchor="middle" x="145.5" y="-7.5" font-family="Helvetica,sans-Serif" font-size="10.00">cmath</text>
</a>
</g>
</g>
<!-- Node1&#45;&gt;Node3 -->
<g id="edge2" class="edge">
<title>Node1&#45;&gt;Node3</title>
<path fill="none" stroke="midnightblue" d="M530.86,-309.26C399.21,-305.37 126.73,-293.99 94.5,-266 66.42,-241.61 75.5,-221.69 75.5,-184.5 75.5,-184.5 75.5,-184.5 75.5,-121 75.5,-82.23 106.83,-46.1 127.57,-26.43"/>
<polygon fill="midnightblue" stroke="midnightblue" points="130.14,-28.83 135.17,-19.5 125.42,-23.65 130.14,-28.83"/>
</g>
<!-- Node4 -->
<g id="node4" class="node">
<title>Node4</title>
<g id="a_node4"><a xlink:title=" ">
<polygon fill="none" stroke="#bfbfbf" points="103.5,-241 103.5,-260 159.5,-260 159.5,-241 103.5,-241"/>
<text text-anchor="middle" x="131.5" y="-248" font-family="Helvetica,sans-Serif" font-size="10.00">iomanip</text>
</a>
</g>
</g>
<!-- Node1&#45;&gt;Node4 -->
<g id="edge3" class="edge">
<title>Node1&#45;&gt;Node4</title>
<path fill="none" stroke="midnightblue" d="M530.65,-308.48C445.11,-304.32 297.31,-293.5 173.5,-266 170.08,-265.24 166.56,-264.3 163.07,-263.25"/>
<polygon fill="midnightblue" stroke="midnightblue" points="164.05,-259.89 153.46,-260.14 161.89,-266.55 164.05,-259.89"/>
</g>
<!-- Node5 -->
<g id="node5" class="node">
<title>Node5</title>
<g id="a_node5"><a xlink:title=" ">
<polygon fill="none" stroke="#bfbfbf" points="289.5,-0.5 289.5,-19.5 349.5,-19.5 349.5,-0.5 289.5,-0.5"/>
<text text-anchor="middle" x="319.5" y="-7.5" font-family="Helvetica,sans-Serif" font-size="10.00">iostream</text>
</a>
</g>
</g>
<!-- Node1&#45;&gt;Node5 -->
<g id="edge4" class="edge">
<title>Node1&#45;&gt;Node5</title>
<path fill="none" stroke="midnightblue" d="M530.97,-307.33C423.89,-301.12 230.21,-287.12 206.5,-266 178.72,-241.26 187.5,-221.69 187.5,-184.5 187.5,-184.5 187.5,-184.5 187.5,-121 187.5,-70.81 244.51,-39.08 283.6,-23.22"/>
<polygon fill="midnightblue" stroke="midnightblue" points="285.05,-26.42 293.11,-19.53 282.52,-19.89 285.05,-26.42"/>
</g>
<!-- Node6 -->
<g id="node6" class="node">
<title>Node6</title>
<g id="a_node6"><a xlink:title=" ">
<polygon fill="none" stroke="#bfbfbf" points="216,-241 216,-260 273,-260 273,-241 216,-241"/>
<text text-anchor="middle" x="244.5" y="-248" font-family="Helvetica,sans-Serif" font-size="10.00">ostream</text>
</a>
</g>
</g>
<!-- Node1&#45;&gt;Node6 -->
<g id="edge5" class="edge">
<title>Node1&#45;&gt;Node6</title>
<path fill="none" stroke="midnightblue" d="M530.97,-304.62C466.87,-297.94 370,-285.65 287.5,-266 284.1,-265.19 280.59,-264.23 277.11,-263.19"/>
<polygon fill="midnightblue" stroke="midnightblue" points="278.07,-259.82 267.48,-260.11 275.94,-266.49 278.07,-259.82"/>
</g>
<!-- Node7 -->
<g id="node7" class="node">
<title>Node7</title>
<g id="a_node7"><a xlink:title=" ">
<polygon fill="none" stroke="#bfbfbf" points="794,-0.5 794,-19.5 841,-19.5 841,-0.5 794,-0.5"/>
<text text-anchor="middle" x="817.5" y="-7.5" font-family="Helvetica,sans-Serif" font-size="10.00">vector</text>
</a>
</g>
</g>
<!-- Node1&#45;&gt;Node7 -->
<g id="edge6" class="edge">
<title>Node1&#45;&gt;Node7</title>
<path fill="none" stroke="midnightblue" d="M672.07,-310.82C808.06,-309.63 1101.19,-302.72 1194.5,-266 1248.5,-244.75 1296.5,-242.53 1296.5,-184.5 1296.5,-184.5 1296.5,-184.5 1296.5,-121 1296.5,-29.55 960.65,-14.12 851.39,-11.53"/>
<polygon fill="midnightblue" stroke="midnightblue" points="851.33,-8.02 841.25,-11.31 851.18,-15.02 851.33,-8.02"/>
</g>
<!-- Node8 -->
<g id="node8" class="node">
<title>Node8</title>
<g id="a_node8"><a xlink:href="definitions_8hpp.html" target="_top" xlink:title=" ">
<polygon fill="none" stroke="black" points="523.5,-56.5 523.5,-75.5 687.5,-75.5 687.5,-56.5 523.5,-56.5"/>
<text text-anchor="middle" x="605.5" y="-63.5" font-family="Helvetica,sans-Serif" font-size="10.00">nmbuflowtorch/definitions.hpp</text>
</a>
</g>
</g>
<!-- Node1&#45;&gt;Node8 -->
<g id="edge7" class="edge">
<title>Node1&#45;&gt;Node8</title>
<path fill="none" stroke="midnightblue" d="M530.84,-308.34C463.98,-304.17 370.52,-293.45 347.5,-266 290.67,-198.22 317.7,-203.57 463.5,-112 489.44,-95.71 521.78,-84.86 549.04,-77.9"/>
<polygon fill="midnightblue" stroke="midnightblue" points="549.94,-81.28 558.83,-75.51 548.29,-74.48 549.94,-81.28"/>
</g>
<!-- Node13 -->
<g id="node13" class="node">
<title>Node13</title>
<g id="a_node13"><a xlink:href="layer_8hpp.html" target="_top" xlink:title=" ">
<polygon fill="none" stroke="black" points="749,-174 749,-193 886,-193 886,-174 749,-174"/>
<text text-anchor="middle" x="817.5" y="-181" font-family="Helvetica,sans-Serif" font-size="10.00">nmbuflowtorch/layer.hpp</text>
</a>
</g>
</g>
<!-- Node1&#45;&gt;Node13 -->
<g id="edge15" class="edge">
<title>Node1&#45;&gt;Node13</title>
<path fill="none" stroke="midnightblue" d="M672.06,-311.66C758.04,-310.78 895.93,-303.36 928.5,-266 954.75,-235.89 899.44,-210.36 857.86,-196.26"/>
<polygon fill="midnightblue" stroke="midnightblue" points="858.76,-192.88 848.17,-193.1 856.59,-199.53 858.76,-192.88"/>
</g>
<!-- Node14 -->
<g id="node14" class="node">
<title>Node14</title>
<g id="a_node14"><a xlink:href="optimizer_8hpp.html" target="_top" xlink:title=" ">
<polygon fill="none" stroke="black" points="908,-112.5 908,-131.5 997,-131.5 997,-112.5 908,-112.5"/>
<text text-anchor="middle" x="952.5" y="-119.5" font-family="Helvetica,sans-Serif" font-size="10.00">./optimizer.hpp</text>
</a>
</g>
</g>
<!-- Node1&#45;&gt;Node14 -->
<g id="edge44" class="edge">
<title>Node1&#45;&gt;Node14</title>
<path fill="none" stroke="midnightblue" d="M672.11,-310.29C810.69,-308.15 1107.55,-299.66 1138.5,-266 1147.83,-255.86 1144.84,-247.23 1138.5,-235 1109.97,-179.97 1041.35,-149.43 995.92,-134.62"/>
<polygon fill="midnightblue" stroke="midnightblue" points="996.9,-131.26 986.31,-131.61 994.81,-137.94 996.9,-131.26"/>
</g>
<!-- Node16 -->
<g id="node16" class="node">
<title>Node16</title>
<g id="a_node16"><a xlink:href="dense_8hpp.html" target="_top" xlink:title=" ">
<polygon fill="none" stroke="black" points="368,-235.5 368,-265.5 485,-265.5 485,-235.5 368,-235.5"/>
<text text-anchor="start" x="376" y="-253.5" font-family="Helvetica,sans-Serif" font-size="10.00">nmbuflowtorch/layer</text>
<text text-anchor="middle" x="426.5" y="-242.5" font-family="Helvetica,sans-Serif" font-size="10.00">/dense.hpp</text>
</a>
</g>
</g>
<!-- Node1&#45;&gt;Node16 -->
<g id="edge21" class="edge">
<title>Node1&#45;&gt;Node16</title>
<path fill="none" stroke="midnightblue" d="M576.43,-302.48C550.73,-293.74 510.05,-279.91 477.54,-268.86"/>
<polygon fill="midnightblue" stroke="midnightblue" points="478.34,-265.43 467.74,-265.52 476.09,-272.06 478.34,-265.43"/>
</g>
<!-- Node17 -->
<g id="node17" class="node">
<title>Node17</title>
<g id="a_node17"><a xlink:href="math__m_8hpp.html" target="_top" xlink:title=" ">
<polygon fill="none" stroke="black" points="454,-174 454,-193 541,-193 541,-174 454,-174"/>
<text text-anchor="middle" x="497.5" y="-181" font-family="Helvetica,sans-Serif" font-size="10.00">../math_m.hpp</text>
</a>
</g>
</g>
<!-- Node1&#45;&gt;Node17 -->
<g id="edge36" class="edge">
<title>Node1&#45;&gt;Node17</title>
<path fill="none" stroke="midnightblue" d="M530.84,-307.61C467.38,-302.91 380.98,-291.84 359.5,-266 330.65,-231.3 393.75,-207.85 443.87,-195.33"/>
<polygon fill="midnightblue" stroke="midnightblue" points="444.78,-198.71 453.68,-192.97 443.14,-191.9 444.78,-198.71"/>
</g>
<!-- Node19 -->
<g id="node19" class="node">
<title>Node19</title>
<g id="a_node19"><a xlink:href="sigmoid_8hpp.html" target="_top" xlink:title=" ">
<polygon fill="none" stroke="black" points="802,-235.5 802,-265.5 919,-265.5 919,-235.5 802,-235.5"/>
<text text-anchor="start" x="810" y="-253.5" font-family="Helvetica,sans-Serif" font-size="10.00">nmbuflowtorch/layer</text>
<text text-anchor="middle" x="860.5" y="-242.5" font-family="Helvetica,sans-Serif" font-size="10.00">/sigmoid.hpp</text>
</a>
</g>
</g>
<!-- Node1&#45;&gt;Node19 -->
<g id="edge28" class="edge">
<title>Node1&#45;&gt;Node19</title>
<path fill="none" stroke="midnightblue" d="M638.61,-302.48C678.52,-293.31 742.86,-278.52 792.01,-267.23"/>
<polygon fill="midnightblue" stroke="midnightblue" points="792.98,-270.6 801.94,-264.95 791.41,-263.78 792.98,-270.6"/>
</g>
<!-- Node20 -->
<g id="node20" class="node">
<title>Node20</title>
<g id="a_node20"><a xlink:href="loss_8hpp.html" target="_top" xlink:title=" ">
<polygon fill="none" stroke="black" points="598,-174 598,-193 731,-193 731,-174 598,-174"/>
<text text-anchor="middle" x="664.5" y="-181" font-family="Helvetica,sans-Serif" font-size="10.00">nmbuflowtorch/loss.hpp</text>
</a>
</g>
</g>
<!-- Node1&#45;&gt;Node20 -->
<g id="edge30" class="edge">
<title>Node1&#45;&gt;Node20</title>
<path fill="none" stroke="midnightblue" d="M605.95,-302.39C610.61,-293.35 618.13,-278.71 624.5,-266 635.49,-244.06 647.91,-218.66 655.95,-202.13"/>
<polygon fill="midnightblue" stroke="midnightblue" points="659.12,-203.61 660.34,-193.09 652.82,-200.55 659.12,-203.61"/>
</g>
<!-- Node21 -->
<g id="node21" class="node">
<title>Node21</title>
<g id="a_node21"><a xlink:href="cross__entropy_8hpp.html" target="_top" xlink:title=" ">
<polygon fill="none" stroke="black" points="671.5,-235.5 671.5,-265.5 783.5,-265.5 783.5,-235.5 671.5,-235.5"/>
<text text-anchor="start" x="679.5" y="-253.5" font-family="Helvetica,sans-Serif" font-size="10.00">nmbuflowtorch/loss</text>
<text text-anchor="middle" x="727.5" y="-242.5" font-family="Helvetica,sans-Serif" font-size="10.00">/cross_entropy.hpp</text>
</a>
</g>
</g>
<!-- Node1&#45;&gt;Node21 -->
<g id="edge32" class="edge">
<title>Node1&#45;&gt;Node21</title>
<path fill="none" stroke="midnightblue" d="M619.55,-302.48C637.49,-294 665.59,-280.74 688.61,-269.86"/>
<polygon fill="midnightblue" stroke="midnightblue" points="690.26,-272.96 697.8,-265.52 687.27,-266.63 690.26,-272.96"/>
</g>
<!-- Node22 -->
<g id="node22" class="node">
<title>Node22</title>
<g id="a_node22"><a xlink:href="mse_8hpp.html" target="_top" xlink:title=" ">
<polygon fill="none" stroke="black" points="503.5,-235.5 503.5,-265.5 615.5,-265.5 615.5,-235.5 503.5,-235.5"/>
<text text-anchor="start" x="511.5" y="-253.5" font-family="Helvetica,sans-Serif" font-size="10.00">nmbuflowtorch/loss</text>
<text text-anchor="middle" x="559.5" y="-242.5" font-family="Helvetica,sans-Serif" font-size="10.00">/mse.hpp</text>
</a>
</g>
</g>
<!-- Node1&#45;&gt;Node22 -->
<g id="edge34" class="edge">
<title>Node1&#45;&gt;Node22</title>
<path fill="none" stroke="midnightblue" d="M595.48,-302.48C590.22,-295.02 582.34,-283.85 575.29,-273.87"/>
<polygon fill="midnightblue" stroke="midnightblue" points="578.02,-271.67 569.4,-265.52 572.31,-275.71 578.02,-271.67"/>
</g>
<!-- Node23 -->
<g id="node23" class="node">
<title>Node23</title>
<g id="a_node23"><a xlink:href="network_8hpp.html" target="_top" xlink:title="Network class representing a sequence of layers. This class implements a network consisting of a sequ...">
<polygon fill="none" stroke="black" points="976,-241 976,-260 1129,-260 1129,-241 976,-241"/>
<text text-anchor="middle" x="1052.5" y="-248" font-family="Helvetica,sans-Serif" font-size="10.00">nmbuflowtorch/network.hpp</text>
</a>
</g>
</g>
<!-- Node1&#45;&gt;Node23 -->
<g id="edge37" class="edge">
<title>Node1&#45;&gt;Node23</title>
<path fill="none" stroke="midnightblue" d="M672.29,-302.86C744.96,-294.35 861.26,-280.25 961.5,-266 971.02,-264.65 981.09,-263.13 990.92,-261.6"/>
<polygon fill="midnightblue" stroke="midnightblue" points="991.72,-265.02 1001.05,-260.01 990.63,-258.1 991.72,-265.02"/>
</g>
<!-- Node25 -->
<g id="node25" class="node">
<title>Node25</title>
<g id="a_node25"><a xlink:href="sgd_8hpp.html" target="_top" xlink:title=" ">
<polygon fill="none" stroke="black" points="1129,-168.5 1129,-198.5 1268,-198.5 1268,-168.5 1129,-168.5"/>
<text text-anchor="start" x="1137" y="-186.5" font-family="Helvetica,sans-Serif" font-size="10.00">nmbuflowtorch/optimizer</text>
<text text-anchor="middle" x="1198.5" y="-175.5" font-family="Helvetica,sans-Serif" font-size="10.00">/sgd.hpp</text>
</a>
</g>
</g>
<!-- Node1&#45;&gt;Node25 -->
<g id="edge45" class="edge">
<title>Node1&#45;&gt;Node25</title>
<path fill="none" stroke="midnightblue" d="M672.24,-309.74C816.22,-306.55 1133.02,-296.16 1171.5,-266 1188.76,-252.47 1195.1,-227.57 1197.37,-208.84"/>
<polygon fill="midnightblue" stroke="midnightblue" points="1200.87,-208.94 1198.29,-198.66 1193.9,-208.31 1200.87,-208.94"/>
</g>
<!-- Node26 -->
<g id="node26" class="node">
<title>Node26</title>
<g id="a_node26"><a xlink:title=" ">
<polygon fill="none" stroke="#bfbfbf" points="1325,-241 1325,-260 1384,-260 1384,-241 1325,-241"/>
<text text-anchor="middle" x="1354.5" y="-248" font-family="Helvetica,sans-Serif" font-size="10.00">complex</text>
</a>
</g>
</g>
<!-- Node1&#45;&gt;Node26 -->
<g id="edge47" class="edge">
<title>Node1&#45;&gt;Node26</title>
<path fill="none" stroke="midnightblue" d="M672.21,-308.8C826.6,-303.63 1189.7,-289.34 1310.5,-266 1314.39,-265.25 1318.41,-264.25 1322.36,-263.13"/>
<polygon fill="midnightblue" stroke="midnightblue" points="1323.44,-266.46 1331.96,-260.15 1321.37,-259.77 1323.44,-266.46"/>
</g>
<!-- Node8&#45;&gt;Node3 -->
<g id="edge10" class="edge">
<title>Node8&#45;&gt;Node3</title>
<path fill="none" stroke="midnightblue" d="M532.87,-56.47C432,-44.63 253.56,-23.69 179.35,-14.97"/>
<polygon fill="midnightblue" stroke="midnightblue" points="179.51,-11.47 169.17,-13.78 178.7,-18.42 179.51,-11.47"/>
</g>
<!-- Node8&#45;&gt;Node5 -->
<g id="edge12" class="edge">
<title>Node8&#45;&gt;Node5</title>
<path fill="none" stroke="midnightblue" d="M560.18,-56.44C504.96,-46.02 412.5,-28.56 359.7,-18.59"/>
<polygon fill="midnightblue" stroke="midnightblue" points="360.17,-15.12 349.69,-16.7 358.87,-21.99 360.17,-15.12"/>
</g>
<!-- Node8&#45;&gt;Node7 -->
<g id="edge14" class="edge">
<title>Node8&#45;&gt;Node7</title>
<path fill="none" stroke="midnightblue" d="M639.09,-56.44C678.83,-46.32 744.58,-29.57 784.19,-19.48"/>
<polygon fill="midnightblue" stroke="midnightblue" points="785.08,-22.87 793.91,-17.01 783.36,-16.09 785.08,-22.87"/>
</g>
<!-- Node9 -->
<g id="node9" class="node">
<title>Node9</title>
<g id="a_node9"><a xlink:title=" ">
<polygon fill="none" stroke="#bfbfbf" points="492.5,-0.5 492.5,-19.5 548.5,-19.5 548.5,-0.5 492.5,-0.5"/>
<text text-anchor="middle" x="520.5" y="-7.5" font-family="Helvetica,sans-Serif" font-size="10.00">unistd.h</text>
</a>
</g>
</g>
<!-- Node8&#45;&gt;Node9 -->
<g id="edge8" class="edge">
<title>Node8&#45;&gt;Node9</title>
<path fill="none" stroke="midnightblue" d="M591.84,-56.32C578.58,-47.9 558.23,-34.97 542.65,-25.07"/>
<polygon fill="midnightblue" stroke="midnightblue" points="544.44,-22.06 534.12,-19.65 540.69,-27.97 544.44,-22.06"/>
</g>
<!-- Node10 -->
<g id="node10" class="node">
<title>Node10</title>
<g id="a_node10"><a xlink:title=" ">
<polygon fill="none" stroke="#bfbfbf" points="567,-0.5 567,-19.5 644,-19.5 644,-0.5 567,-0.5"/>
<text text-anchor="middle" x="605.5" y="-7.5" font-family="Helvetica,sans-Serif" font-size="10.00">Eigen/Dense</text>
</a>
</g>
</g>
<!-- Node8&#45;&gt;Node10 -->
<g id="edge9" class="edge">
<title>Node8&#45;&gt;Node10</title>
<path fill="none" stroke="midnightblue" d="M605.5,-56.08C605.5,-49.01 605.5,-38.86 605.5,-29.99"/>
<polygon fill="midnightblue" stroke="midnightblue" points="609,-29.75 605.5,-19.75 602,-29.75 609,-29.75"/>
</g>
<!-- Node11 -->
<g id="node11" class="node">
<title>Node11</title>
<g id="a_node11"><a xlink:title=" ">
<polygon fill="none" stroke="#bfbfbf" points="662.5,-0.5 662.5,-19.5 708.5,-19.5 708.5,-0.5 662.5,-0.5"/>
<text text-anchor="middle" x="685.5" y="-7.5" font-family="Helvetica,sans-Serif" font-size="10.00">cstdio</text>
</a>
</g>
</g>
<!-- Node8&#45;&gt;Node11 -->
<g id="edge11" class="edge">
<title>Node8&#45;&gt;Node11</title>
<path fill="none" stroke="midnightblue" d="M618.35,-56.32C630.72,-47.98 649.63,-35.21 664.24,-25.35"/>
<polygon fill="midnightblue" stroke="midnightblue" points="666.35,-28.15 672.68,-19.65 662.43,-22.35 666.35,-28.15"/>
</g>
<!-- Node12 -->
<g id="node12" class="node">
<title>Node12</title>
<g id="a_node12"><a xlink:title=" ">
<polygon fill="none" stroke="#bfbfbf" points="418.5,-0.5 418.5,-19.5 462.5,-19.5 462.5,-0.5 418.5,-0.5"/>
<text text-anchor="middle" x="440.5" y="-7.5" font-family="Helvetica,sans-Serif" font-size="10.00">string</text>
</a>
</g>
</g>
<!-- Node8&#45;&gt;Node12 -->
<g id="edge13" class="edge">
<title>Node8&#45;&gt;Node12</title>
<path fill="none" stroke="midnightblue" d="M579.36,-56.44C550.25,-46.92 503.21,-31.52 472.07,-21.33"/>
<polygon fill="midnightblue" stroke="midnightblue" points="473.15,-18 462.56,-18.22 470.98,-24.66 473.15,-18"/>
</g>
<!-- Node13&#45;&gt;Node7 -->
<g id="edge16" class="edge">
<title>Node13&#45;&gt;Node7</title>
<path fill="none" stroke="midnightblue" d="M817.5,-173.76C817.5,-147.15 817.5,-66.71 817.5,-29.84"/>
<polygon fill="midnightblue" stroke="midnightblue" points="821,-29.52 817.5,-19.52 814,-29.52 821,-29.52"/>
</g>
<!-- Node13&#45;&gt;Node8 -->
<g id="edge17" class="edge">
<title>Node13&#45;&gt;Node8</title>
<path fill="none" stroke="midnightblue" d="M800.78,-173.88C781.57,-163.93 749.14,-147.01 721.5,-132 689.41,-114.57 652.68,-93.86 629.3,-80.58"/>
<polygon fill="midnightblue" stroke="midnightblue" points="630.87,-77.44 620.45,-75.54 627.41,-83.53 630.87,-77.44"/>
</g>
<!-- Node13&#45;&gt;Node14 -->
<g id="edge18" class="edge">
<title>Node13&#45;&gt;Node14</title>
<path fill="none" stroke="midnightblue" d="M836.84,-173.98C859.6,-163.95 897.59,-147.2 923.79,-135.65"/>
<polygon fill="midnightblue" stroke="midnightblue" points="925.45,-138.74 933.19,-131.51 922.63,-132.34 925.45,-138.74"/>
</g>
<!-- Node14&#45;&gt;Node8 -->
<g id="edge20" class="edge">
<title>Node14&#45;&gt;Node8</title>
<path fill="none" stroke="midnightblue" d="M907.85,-114.05C847.48,-104.66 739.44,-87.84 670.19,-77.07"/>
<polygon fill="midnightblue" stroke="midnightblue" points="670.68,-73.6 660.26,-75.52 669.61,-80.52 670.68,-73.6"/>
</g>
<!-- Node15 -->
<g id="node15" class="node">
<title>Node15</title>
<g id="a_node15"><a xlink:title=" ">
<polygon fill="none" stroke="#bfbfbf" points="906,-56.5 906,-75.5 999,-75.5 999,-56.5 906,-56.5"/>
<text text-anchor="middle" x="952.5" y="-63.5" font-family="Helvetica,sans-Serif" font-size="10.00">unordered_map</text>
</a>
</g>
</g>
<!-- Node14&#45;&gt;Node15 -->
<g id="edge19" class="edge">
<title>Node14&#45;&gt;Node15</title>
<path fill="none" stroke="midnightblue" d="M952.5,-112.08C952.5,-105.01 952.5,-94.86 952.5,-85.99"/>
<polygon fill="midnightblue" stroke="midnightblue" points="956,-85.75 952.5,-75.75 949,-85.75 956,-85.75"/>
</g>
<!-- Node16&#45;&gt;Node7 -->
<g id="edge23" class="edge">
<title>Node16&#45;&gt;Node7</title>
<path fill="none" stroke="midnightblue" d="M469.53,-235.41C494.06,-226.55 524.92,-213.96 550.5,-199 569.61,-187.82 571.7,-181.18 589.5,-168 663.83,-112.96 755.25,-51.95 796.06,-25.05"/>
<polygon fill="midnightblue" stroke="midnightblue" points="798,-27.97 804.43,-19.55 794.15,-22.12 798,-27.97"/>
</g>
<!-- Node16&#45;&gt;Node12 -->
<g id="edge22" class="edge">
<title>Node16&#45;&gt;Node12</title>
<path fill="none" stroke="midnightblue" d="M427.33,-235.29C429.73,-194.43 436.65,-76.55 439.38,-30.12"/>
<polygon fill="midnightblue" stroke="midnightblue" points="442.88,-30.13 439.97,-19.95 435.89,-29.72 442.88,-30.13"/>
</g>
<!-- Node16&#45;&gt;Node13 -->
<g id="edge24" class="edge">
<title>Node16&#45;&gt;Node13</title>
<path fill="none" stroke="midnightblue" d="M485.06,-236.76C488.25,-236.15 491.41,-235.55 494.5,-235 603.26,-215.47 631.52,-217.23 740.5,-199 748.14,-197.72 756.19,-196.29 764.1,-194.85"/>
<polygon fill="midnightblue" stroke="midnightblue" points="764.79,-198.28 773.98,-193.02 763.51,-191.4 764.79,-198.28"/>
</g>
<!-- Node16&#45;&gt;Node17 -->
<g id="edge25" class="edge">
<title>Node16&#45;&gt;Node17</title>
<path fill="none" stroke="midnightblue" d="M441.91,-235.4C453.31,-224.96 468.83,-210.75 480.57,-200"/>
<polygon fill="midnightblue" stroke="midnightblue" points="482.99,-202.53 488,-193.19 478.26,-197.37 482.99,-202.53"/>
</g>
<!-- Node17&#45;&gt;Node8 -->
<g id="edge27" class="edge">
<title>Node17&#45;&gt;Node8</title>
<path fill="none" stroke="midnightblue" d="M505.62,-173.82C523.6,-154.59 567.03,-108.14 590.25,-83.31"/>
<polygon fill="midnightblue" stroke="midnightblue" points="593.01,-85.48 597.29,-75.78 587.9,-80.7 593.01,-85.48"/>
</g>
<!-- Node18 -->
<g id="node18" class="node">
<title>Node18</title>
<g id="a_node18"><a xlink:title=" ">
<polygon fill="none" stroke="#bfbfbf" points="472,-112.5 472,-131.5 523,-131.5 523,-112.5 472,-112.5"/>
<text text-anchor="middle" x="497.5" y="-119.5" font-family="Helvetica,sans-Serif" font-size="10.00">cblas.h</text>
</a>
</g>
</g>
<!-- Node17&#45;&gt;Node18 -->
<g id="edge26" class="edge">
<title>Node17&#45;&gt;Node18</title>
<path fill="none" stroke="midnightblue" d="M497.5,-173.98C497.5,-165.58 497.5,-152.48 497.5,-141.66"/>
<polygon fill="midnightblue" stroke="midnightblue" points="501,-141.51 497.5,-131.51 494,-141.51 501,-141.51"/>
</g>
<!-- Node19&#45;&gt;Node13 -->
<g id="edge29" class="edge">
<title>Node19&#45;&gt;Node13</title>
<path fill="none" stroke="midnightblue" d="M851.17,-235.4C844.6,-225.46 835.76,-212.11 828.79,-201.57"/>
<polygon fill="midnightblue" stroke="midnightblue" points="831.69,-199.6 823.25,-193.19 825.85,-203.47 831.69,-199.6"/>
</g>
<!-- Node20&#45;&gt;Node8 -->
<g id="edge31" class="edge">
<title>Node20&#45;&gt;Node8</title>
<path fill="none" stroke="midnightblue" d="M660.07,-173.82C650.46,-155.01 627.54,-110.15 614.67,-84.96"/>
<polygon fill="midnightblue" stroke="midnightblue" points="617.65,-83.1 609.99,-75.78 611.42,-86.28 617.65,-83.1"/>
</g>
<!-- Node21&#45;&gt;Node20 -->
<g id="edge33" class="edge">
<title>Node21&#45;&gt;Node20</title>
<path fill="none" stroke="midnightblue" d="M713.83,-235.4C703.91,-225.16 690.47,-211.3 680.13,-200.62"/>
<polygon fill="midnightblue" stroke="midnightblue" points="682.4,-197.94 672.93,-193.19 677.37,-202.81 682.4,-197.94"/>
</g>
<!-- Node22&#45;&gt;Node20 -->
<g id="edge35" class="edge">
<title>Node22&#45;&gt;Node20</title>
<path fill="none" stroke="midnightblue" d="M582.28,-235.4C600.05,-224.39 624.6,-209.2 642.24,-198.28"/>
<polygon fill="midnightblue" stroke="midnightblue" points="644.1,-201.25 650.76,-193.01 640.41,-195.29 644.1,-201.25"/>
</g>
<!-- Node23&#45;&gt;Node7 -->
<g id="edge39" class="edge">
<title>Node23&#45;&gt;Node7</title>
<path fill="none" stroke="midnightblue" d="M1053.56,-240.94C1056.79,-210.55 1063.22,-106.94 1008.5,-56 985.91,-34.97 899.6,-21.16 851.1,-14.89"/>
<polygon fill="midnightblue" stroke="midnightblue" points="851.43,-11.41 841.07,-13.63 850.56,-18.35 851.43,-11.41"/>
</g>
<!-- Node23&#45;&gt;Node8 -->
<g id="edge40" class="edge">
<title>Node23&#45;&gt;Node8</title>
<path fill="none" stroke="midnightblue" d="M1035.83,-240.96C1016.32,-230.95 983.02,-213.84 954.5,-199 928.22,-185.33 922.67,-179.79 895.5,-168 807.79,-129.94 700.65,-95.64 644.35,-78.51"/>
<polygon fill="midnightblue" stroke="midnightblue" points="645.03,-75.06 634.44,-75.51 643,-81.76 645.03,-75.06"/>
</g>
<!-- Node23&#45;&gt;Node13 -->
<g id="edge41" class="edge">
<title>Node23&#45;&gt;Node13</title>
<path fill="none" stroke="midnightblue" d="M1021.29,-240.87C979.3,-229.25 904.54,-208.58 858.18,-195.75"/>
<polygon fill="midnightblue" stroke="midnightblue" points="859.03,-192.36 848.46,-193.06 857.17,-199.1 859.03,-192.36"/>
</g>
<!-- Node23&#45;&gt;Node14 -->
<g id="edge43" class="edge">
<title>Node23&#45;&gt;Node14</title>
<path fill="none" stroke="midnightblue" d="M1030.2,-240.92C1012.03,-232.79 987.06,-218.87 972.5,-199 960.18,-182.19 955.44,-158.38 953.62,-141.91"/>
<polygon fill="midnightblue" stroke="midnightblue" points="957.1,-141.53 952.77,-131.86 950.13,-142.12 957.1,-141.53"/>
</g>
<!-- Node23&#45;&gt;Node20 -->
<g id="edge42" class="edge">
<title>Node23&#45;&gt;Node20</title>
<path fill="none" stroke="midnightblue" d="M996.91,-240.98C934.45,-231.3 830.07,-214.79 740.5,-199 733.32,-197.73 725.76,-196.35 718.31,-194.96"/>
<polygon fill="midnightblue" stroke="midnightblue" points="718.74,-191.48 708.27,-193.07 717.45,-198.36 718.74,-191.48"/>
</g>
<!-- Node24 -->
<g id="node24" class="node">
<title>Node24</title>
<g id="a_node24"><a xlink:title=" ">
<polygon fill="none" stroke="#bfbfbf" points="981,-174 981,-193 1034,-193 1034,-174 981,-174"/>
<text text-anchor="middle" x="1007.5" y="-181" font-family="Helvetica,sans-Serif" font-size="10.00">stdlib.h</text>
</a>
</g>
</g>
<!-- Node23&#45;&gt;Node24 -->
<g id="edge38" class="edge">
<title>Node23&#45;&gt;Node24</title>
<path fill="none" stroke="midnightblue" d="M1046.43,-240.73C1039.48,-230.7 1027.93,-214.01 1019.21,-201.42"/>
<polygon fill="midnightblue" stroke="midnightblue" points="1022.04,-199.36 1013.47,-193.13 1016.29,-203.34 1022.04,-199.36"/>
</g>
<!-- Node25&#45;&gt;Node14 -->
<g id="edge46" class="edge">
<title>Node25&#45;&gt;Node14</title>
<path fill="none" stroke="midnightblue" d="M1140.51,-168.47C1096.78,-157.9 1037.65,-143.59 997.46,-133.87"/>
<polygon fill="midnightblue" stroke="midnightblue" points="998.21,-130.46 987.67,-131.51 996.57,-137.26 998.21,-130.46"/>
</g>
</g>
</svg>
