<?xml version="1.0" encoding="UTF-8" standalone="no"?>
<!DOCTYPE svg PUBLIC "-//W3C//DTD SVG 1.1//EN"
 "http://www.w3.org/Graphics/SVG/1.1/DTD/svg11.dtd">
<!-- Generated by graphviz version 2.43.0 (0)
 -->
<!-- Title: src/main copy.cpp Pages: 1 -->
<svg width="1181pt" height="330pt"
 viewBox="0.00 0.00 1180.77 330.00" xmlns="http://www.w3.org/2000/svg" xmlns:xlink="http://www.w3.org/1999/xlink">
<g id="graph0" class="graph" transform="scale(1 1) rotate(0) translate(4 326)">
<title>src/main copy.cpp</title>
<!-- Node1 -->
<g id="node1" class="node">
<title>Node1</title>
<g id="a_node1"><a xlink:title=" ">
<polygon fill="#bfbfbf" stroke="black" points="467.27,-302.5 467.27,-321.5 571.27,-321.5 571.27,-302.5 467.27,-302.5"/>
<text text-anchor="middle" x="519.27" y="-309.5" font-family="Helvetica,sans-Serif" font-size="10.00">src/main copy.cpp</text>
</a>
</g>
</g>
<!-- Node2 -->
<g id="node2" class="node">
<title>Node2</title>
<g id="a_node2"><a xlink:title=" ">
<polygon fill="none" stroke="#bfbfbf" points="137.77,-0.5 137.77,-19.5 184.77,-19.5 184.77,-0.5 137.77,-0.5"/>
<text text-anchor="middle" x="161.27" y="-7.5" font-family="Helvetica,sans-Serif" font-size="10.00">cmath</text>
</a>
</g>
</g>
<!-- Node1&#45;&gt;Node2 -->
<g id="edge1" class="edge">
<title>Node1&#45;&gt;Node2</title>
<path fill="none" stroke="midnightblue" d="M467,-309.69C346,-306.18 54.38,-294.81 21.27,-266 -6.8,-241.59 2.27,-221.69 2.27,-184.5 2.27,-184.5 2.27,-184.5 2.27,-121 2.27,-60.49 81.11,-30.65 127.76,-18.3"/>
<polygon fill="midnightblue" stroke="midnightblue" points="128.62,-21.69 137.46,-15.85 126.91,-14.9 128.62,-21.69"/>
</g>
<!-- Node3 -->
<g id="node3" class="node">
<title>Node3</title>
<g id="a_node3"><a xlink:title=" ">
<polygon fill="none" stroke="#bfbfbf" points="1041.27,-241 1041.27,-260 1097.27,-260 1097.27,-241 1041.27,-241"/>
<text text-anchor="middle" x="1069.27" y="-248" font-family="Helvetica,sans-Serif" font-size="10.00">iomanip</text>
</a>
</g>
</g>
<!-- Node1&#45;&gt;Node3 -->
<g id="edge2" class="edge">
<title>Node1&#45;&gt;Node3</title>
<path fill="none" stroke="midnightblue" d="M571.44,-310.55C664.19,-308.84 863.4,-300.99 1027.27,-266 1030.77,-265.25 1034.38,-264.3 1037.95,-263.24"/>
<polygon fill="midnightblue" stroke="midnightblue" points="1039.32,-266.47 1047.75,-260.05 1037.16,-259.81 1039.32,-266.47"/>
</g>
<!-- Node4 -->
<g id="node4" class="node">
<title>Node4</title>
<g id="a_node4"><a xlink:title=" ">
<polygon fill="none" stroke="#bfbfbf" points="898.27,-0.5 898.27,-19.5 958.27,-19.5 958.27,-0.5 898.27,-0.5"/>
<text text-anchor="middle" x="928.27" y="-7.5" font-family="Helvetica,sans-Serif" font-size="10.00">iostream</text>
</a>
</g>
</g>
<!-- Node1&#45;&gt;Node4 -->
<g id="edge3" class="edge">
<title>Node1&#45;&gt;Node4</title>
<path fill="none" stroke="midnightblue" d="M571.5,-310.55C671.46,-308.9 885.53,-301.21 949.27,-266 989.58,-243.73 1013.27,-230.56 1013.27,-184.5 1013.27,-184.5 1013.27,-184.5 1013.27,-121 1013.27,-79.76 975.4,-44.57 950.22,-25.73"/>
<polygon fill="midnightblue" stroke="midnightblue" points="952.08,-22.76 941.92,-19.76 948,-28.44 952.08,-22.76"/>
</g>
<!-- Node5 -->
<g id="node5" class="node">
<title>Node5</title>
<g id="a_node5"><a xlink:title=" ">
<polygon fill="none" stroke="#bfbfbf" points="1115.77,-241 1115.77,-260 1172.77,-260 1172.77,-241 1115.77,-241"/>
<text text-anchor="middle" x="1144.27" y="-248" font-family="Helvetica,sans-Serif" font-size="10.00">ostream</text>
</a>
</g>
</g>
<!-- Node1&#45;&gt;Node5 -->
<g id="edge4" class="edge">
<title>Node1&#45;&gt;Node5</title>
<path fill="none" stroke="midnightblue" d="M571.31,-308.93C695.24,-303.69 1005.04,-288.69 1106.27,-266 1109.27,-265.33 1112.35,-264.46 1115.4,-263.49"/>
<polygon fill="midnightblue" stroke="midnightblue" points="1116.62,-266.77 1124.88,-260.13 1114.28,-260.17 1116.62,-266.77"/>
</g>
<!-- Node6 -->
<g id="node6" class="node">
<title>Node6</title>
<g id="a_node6"><a xlink:title=" ">
<polygon fill="none" stroke="#bfbfbf" points="737.77,-0.5 737.77,-19.5 784.77,-19.5 784.77,-0.5 737.77,-0.5"/>
<text text-anchor="middle" x="761.27" y="-7.5" font-family="Helvetica,sans-Serif" font-size="10.00">vector</text>
</a>
</g>
</g>
<!-- Node1&#45;&gt;Node6 -->
<g id="edge5" class="edge">
<title>Node1&#45;&gt;Node6</title>
<path fill="none" stroke="midnightblue" d="M571.3,-310.12C664.85,-307.73 857.02,-298.84 914.27,-266 953.51,-243.49 975.27,-229.74 975.27,-184.5 975.27,-184.5 975.27,-184.5 975.27,-121 975.27,-41 855.51,-19.14 795.17,-13.2"/>
<polygon fill="midnightblue" stroke="midnightblue" points="795.26,-9.69 784.98,-12.29 794.64,-16.66 795.26,-9.69"/>
</g>
<!-- Node7 -->
<g id="node7" class="node">
<title>Node7</title>
<g id="a_node7"><a xlink:href="definitions_8hpp.html" target="_top" xlink:title=" ">
<polygon fill="none" stroke="black" points="381.27,-56.5 381.27,-75.5 545.27,-75.5 545.27,-56.5 381.27,-56.5"/>
<text text-anchor="middle" x="463.27" y="-63.5" font-family="Helvetica,sans-Serif" font-size="10.00">nmbuflowtorch/definitions.hpp</text>
</a>
</g>
</g>
<!-- Node1&#45;&gt;Node7 -->
<g id="edge6" class="edge">
<title>Node1&#45;&gt;Node7</title>
<path fill="none" stroke="midnightblue" d="M471.83,-302.48C438.87,-295.44 394.52,-283.7 358.27,-266 337.42,-255.82 336.23,-246.81 316.27,-235 283.4,-215.56 258.84,-231.16 238.27,-199 194.96,-131.32 319.74,-94.05 400.43,-77.55"/>
<polygon fill="midnightblue" stroke="midnightblue" points="401.4,-80.92 410.52,-75.54 400.03,-74.06 401.4,-80.92"/>
</g>
<!-- Node12 -->
<g id="node12" class="node">
<title>Node12</title>
<g id="a_node12"><a xlink:href="layer_8hpp.html" target="_top" xlink:title=" ">
<polygon fill="none" stroke="black" points="628.77,-174 628.77,-193 765.77,-193 765.77,-174 628.77,-174"/>
<text text-anchor="middle" x="697.27" y="-181" font-family="Helvetica,sans-Serif" font-size="10.00">nmbuflowtorch/layer.hpp</text>
</a>
</g>
</g>
<!-- Node1&#45;&gt;Node12 -->
<g id="edge14" class="edge">
<title>Node1&#45;&gt;Node12</title>
<path fill="none" stroke="midnightblue" d="M571.5,-307.8C629.99,-302.99 719.36,-291.59 740.27,-266 757.03,-245.48 734.1,-217.4 715.82,-200.13"/>
<polygon fill="midnightblue" stroke="midnightblue" points="717.69,-197.1 707.91,-193.02 713.01,-202.3 717.69,-197.1"/>
</g>
<!-- Node13 -->
<g id="node13" class="node">
<title>Node13</title>
<g id="a_node13"><a xlink:href="optimizer_8hpp.html" target="_top" xlink:title=" ">
<polygon fill="none" stroke="black" points="499.77,-112.5 499.77,-131.5 588.77,-131.5 588.77,-112.5 499.77,-112.5"/>
<text text-anchor="middle" x="544.27" y="-119.5" font-family="Helvetica,sans-Serif" font-size="10.00">./optimizer.hpp</text>
</a>
</g>
</g>
<!-- Node1&#45;&gt;Node13 -->
<g id="edge42" class="edge">
<title>Node1&#45;&gt;Node13</title>
<path fill="none" stroke="midnightblue" d="M485.47,-302.39C466.87,-295.74 445.38,-284.45 434.27,-266 427.16,-254.2 430.75,-248.32 434.27,-235 443,-201.9 448.58,-192.72 472.27,-168 484.81,-154.9 501.93,-144 516.33,-136.21"/>
<polygon fill="midnightblue" stroke="midnightblue" points="518.06,-139.26 525.32,-131.54 514.83,-133.04 518.06,-139.26"/>
</g>
<!-- Node15 -->
<g id="node15" class="node">
<title>Node15</title>
<g id="a_node15"><a xlink:href="dense_8hpp.html" target="_top" xlink:title=" ">
<polygon fill="none" stroke="black" points="787.77,-235.5 787.77,-265.5 904.77,-265.5 904.77,-235.5 787.77,-235.5"/>
<text text-anchor="start" x="795.77" y="-253.5" font-family="Helvetica,sans-Serif" font-size="10.00">nmbuflowtorch/layer</text>
<text text-anchor="middle" x="846.27" y="-242.5" font-family="Helvetica,sans-Serif" font-size="10.00">/dense.hpp</text>
</a>
</g>
</g>
<!-- Node1&#45;&gt;Node15 -->
<g id="edge20" class="edge">
<title>Node1&#45;&gt;Node15</title>
<path fill="none" stroke="midnightblue" d="M569.44,-302.43C620.72,-293.59 702.62,-279.27 773.27,-266 774.73,-265.72 776.22,-265.44 777.71,-265.16"/>
<polygon fill="midnightblue" stroke="midnightblue" points="778.55,-268.56 787.72,-263.24 777.23,-261.69 778.55,-268.56"/>
</g>
<!-- Node18 -->
<g id="node18" class="node">
<title>Node18</title>
<g id="a_node18"><a xlink:href="sigmoid_8hpp.html" target="_top" xlink:title=" ">
<polygon fill="none" stroke="black" points="613.77,-235.5 613.77,-265.5 730.77,-265.5 730.77,-235.5 613.77,-235.5"/>
<text text-anchor="start" x="621.77" y="-253.5" font-family="Helvetica,sans-Serif" font-size="10.00">nmbuflowtorch/layer</text>
<text text-anchor="middle" x="672.27" y="-242.5" font-family="Helvetica,sans-Serif" font-size="10.00">/sigmoid.hpp</text>
</a>
</g>
</g>
<!-- Node1&#45;&gt;Node18 -->
<g id="edge27" class="edge">
<title>Node1&#45;&gt;Node18</title>
<path fill="none" stroke="midnightblue" d="M541.19,-302.48C563.36,-293.85 598.3,-280.26 626.53,-269.29"/>
<polygon fill="midnightblue" stroke="midnightblue" points="628.15,-272.41 636.21,-265.52 625.62,-265.89 628.15,-272.41"/>
</g>
<!-- Node19 -->
<g id="node19" class="node">
<title>Node19</title>
<g id="a_node19"><a xlink:href="loss_8hpp.html" target="_top" xlink:title=" ">
<polygon fill="none" stroke="black" points="56.77,-174 56.77,-193 189.77,-193 189.77,-174 56.77,-174"/>
<text text-anchor="middle" x="123.27" y="-181" font-family="Helvetica,sans-Serif" font-size="10.00">nmbuflowtorch/loss.hpp</text>
</a>
</g>
</g>
<!-- Node1&#45;&gt;Node19 -->
<g id="edge29" class="edge">
<title>Node1&#45;&gt;Node19</title>
<path fill="none" stroke="midnightblue" d="M466.95,-304.69C426.61,-298.48 370.15,-286.81 324.27,-266 302.81,-256.27 302.3,-245.61 281.27,-235 246.11,-217.28 203.45,-204.08 171.32,-195.63"/>
<polygon fill="midnightblue" stroke="midnightblue" points="171.84,-192.15 161.28,-193.06 170.1,-198.93 171.84,-192.15"/>
</g>
<!-- Node20 -->
<g id="node20" class="node">
<title>Node20</title>
<g id="a_node20"><a xlink:href="cross__entropy_8hpp.html" target="_top" xlink:title=" ">
<polygon fill="none" stroke="black" points="30.27,-235.5 30.27,-265.5 142.27,-265.5 142.27,-235.5 30.27,-235.5"/>
<text text-anchor="start" x="38.27" y="-253.5" font-family="Helvetica,sans-Serif" font-size="10.00">nmbuflowtorch/loss</text>
<text text-anchor="middle" x="86.27" y="-242.5" font-family="Helvetica,sans-Serif" font-size="10.00">/cross_entropy.hpp</text>
</a>
</g>
</g>
<!-- Node1&#45;&gt;Node20 -->
<g id="edge31" class="edge">
<title>Node1&#45;&gt;Node20</title>
<path fill="none" stroke="midnightblue" d="M467.23,-306.26C397.68,-299.56 270.42,-286.05 152.49,-266.11"/>
<polygon fill="midnightblue" stroke="midnightblue" points="153.02,-262.65 142.57,-264.41 151.84,-269.55 153.02,-262.65"/>
</g>
<!-- Node21 -->
<g id="node21" class="node">
<title>Node21</title>
<g id="a_node21"><a xlink:href="mse_8hpp.html" target="_top" xlink:title=" ">
<polygon fill="none" stroke="black" points="160.27,-235.5 160.27,-265.5 272.27,-265.5 272.27,-235.5 160.27,-235.5"/>
<text text-anchor="start" x="168.27" y="-253.5" font-family="Helvetica,sans-Serif" font-size="10.00">nmbuflowtorch/loss</text>
<text text-anchor="middle" x="216.27" y="-242.5" font-family="Helvetica,sans-Serif" font-size="10.00">/mse.hpp</text>
</a>
</g>
</g>
<!-- Node1&#45;&gt;Node21 -->
<g id="edge33" class="edge">
<title>Node1&#45;&gt;Node21</title>
<path fill="none" stroke="midnightblue" d="M474.13,-302.47C427.16,-293.55 351.51,-279.06 286.27,-266 285,-265.75 283.72,-265.49 282.43,-265.23"/>
<polygon fill="midnightblue" stroke="midnightblue" points="282.91,-261.76 272.42,-263.2 281.52,-268.62 282.91,-261.76"/>
</g>
<!-- Node22 -->
<g id="node22" class="node">
<title>Node22</title>
<g id="a_node22"><a xlink:href="network_8hpp.html" target="_top" xlink:title="Network class representing a sequence of layers. This class implements a network consisting of a sequ...">
<polygon fill="none" stroke="black" points="442.77,-241 442.77,-260 595.77,-260 595.77,-241 442.77,-241"/>
<text text-anchor="middle" x="519.27" y="-248" font-family="Helvetica,sans-Serif" font-size="10.00">nmbuflowtorch/network.hpp</text>
</a>
</g>
</g>
<!-- Node1&#45;&gt;Node22 -->
<g id="edge35" class="edge">
<title>Node1&#45;&gt;Node22</title>
<path fill="none" stroke="midnightblue" d="M519.27,-302.48C519.27,-294.08 519.27,-280.98 519.27,-270.16"/>
<polygon fill="midnightblue" stroke="midnightblue" points="522.77,-270.01 519.27,-260.01 515.77,-270.01 522.77,-270.01"/>
</g>
<!-- Node24 -->
<g id="node24" class="node">
<title>Node24</title>
<g id="a_node24"><a xlink:href="sgd_8hpp.html" target="_top" xlink:title=" ">
<polygon fill="none" stroke="black" points="246.77,-168.5 246.77,-198.5 385.77,-198.5 385.77,-168.5 246.77,-168.5"/>
<text text-anchor="start" x="254.77" y="-186.5" font-family="Helvetica,sans-Serif" font-size="10.00">nmbuflowtorch/optimizer</text>
<text text-anchor="middle" x="316.27" y="-175.5" font-family="Helvetica,sans-Serif" font-size="10.00">/sgd.hpp</text>
</a>
</g>
</g>
<!-- Node1&#45;&gt;Node24 -->
<g id="edge43" class="edge">
<title>Node1&#45;&gt;Node24</title>
<path fill="none" stroke="midnightblue" d="M486.28,-302.49C461.41,-295.16 427.11,-283.05 400.27,-266 374.53,-249.66 350.11,-224.48 334.3,-206.43"/>
<polygon fill="midnightblue" stroke="midnightblue" points="336.84,-204.01 327.67,-198.7 331.53,-208.57 336.84,-204.01"/>
</g>
<!-- Node7&#45;&gt;Node2 -->
<g id="edge9" class="edge">
<title>Node7&#45;&gt;Node2</title>
<path fill="none" stroke="midnightblue" d="M415.41,-56.44C353.98,-45.46 248.91,-26.67 195.14,-17.06"/>
<polygon fill="midnightblue" stroke="midnightblue" points="195.56,-13.58 185.1,-15.26 194.33,-20.47 195.56,-13.58"/>
</g>
<!-- Node7&#45;&gt;Node4 -->
<g id="edge11" class="edge">
<title>Node7&#45;&gt;Node4</title>
<path fill="none" stroke="midnightblue" d="M536.69,-56.47C635.93,-44.95 809.45,-24.8 887.82,-15.7"/>
<polygon fill="midnightblue" stroke="midnightblue" points="888.7,-19.12 898.22,-14.49 887.89,-12.17 888.7,-19.12"/>
</g>
<!-- Node7&#45;&gt;Node6 -->
<g id="edge13" class="edge">
<title>Node7&#45;&gt;Node6</title>
<path fill="none" stroke="midnightblue" d="M510.48,-56.44C571.11,-45.46 674.78,-26.67 727.84,-17.06"/>
<polygon fill="midnightblue" stroke="midnightblue" points="728.53,-20.49 737.75,-15.26 727.28,-13.6 728.53,-20.49"/>
</g>
<!-- Node8 -->
<g id="node8" class="node">
<title>Node8</title>
<g id="a_node8"><a xlink:title=" ">
<polygon fill="none" stroke="#bfbfbf" points="350.27,-0.5 350.27,-19.5 406.27,-19.5 406.27,-0.5 350.27,-0.5"/>
<text text-anchor="middle" x="378.27" y="-7.5" font-family="Helvetica,sans-Serif" font-size="10.00">unistd.h</text>
</a>
</g>
</g>
<!-- Node7&#45;&gt;Node8 -->
<g id="edge7" class="edge">
<title>Node7&#45;&gt;Node8</title>
<path fill="none" stroke="midnightblue" d="M449.61,-56.32C436.35,-47.9 416,-34.97 400.42,-25.07"/>
<polygon fill="midnightblue" stroke="midnightblue" points="402.21,-22.06 391.89,-19.65 398.45,-27.97 402.21,-22.06"/>
</g>
<!-- Node9 -->
<g id="node9" class="node">
<title>Node9</title>
<g id="a_node9"><a xlink:title=" ">
<polygon fill="none" stroke="#bfbfbf" points="424.77,-0.5 424.77,-19.5 501.77,-19.5 501.77,-0.5 424.77,-0.5"/>
<text text-anchor="middle" x="463.27" y="-7.5" font-family="Helvetica,sans-Serif" font-size="10.00">Eigen/Dense</text>
</a>
</g>
</g>
<!-- Node7&#45;&gt;Node9 -->
<g id="edge8" class="edge">
<title>Node7&#45;&gt;Node9</title>
<path fill="none" stroke="midnightblue" d="M463.27,-56.08C463.27,-49.01 463.27,-38.86 463.27,-29.99"/>
<polygon fill="midnightblue" stroke="midnightblue" points="466.77,-29.75 463.27,-19.75 459.77,-29.75 466.77,-29.75"/>
</g>
<!-- Node10 -->
<g id="node10" class="node">
<title>Node10</title>
<g id="a_node10"><a xlink:title=" ">
<polygon fill="none" stroke="#bfbfbf" points="520.27,-0.5 520.27,-19.5 566.27,-19.5 566.27,-0.5 520.27,-0.5"/>
<text text-anchor="middle" x="543.27" y="-7.5" font-family="Helvetica,sans-Serif" font-size="10.00">cstdio</text>
</a>
</g>
</g>
<!-- Node7&#45;&gt;Node10 -->
<g id="edge10" class="edge">
<title>Node7&#45;&gt;Node10</title>
<path fill="none" stroke="midnightblue" d="M476.12,-56.32C488.48,-47.98 507.4,-35.21 522,-25.35"/>
<polygon fill="midnightblue" stroke="midnightblue" points="524.11,-28.15 530.44,-19.65 520.2,-22.35 524.11,-28.15"/>
</g>
<!-- Node11 -->
<g id="node11" class="node">
<title>Node11</title>
<g id="a_node11"><a xlink:title=" ">
<polygon fill="none" stroke="#bfbfbf" points="624.27,-0.5 624.27,-19.5 668.27,-19.5 668.27,-0.5 624.27,-0.5"/>
<text text-anchor="middle" x="646.27" y="-7.5" font-family="Helvetica,sans-Serif" font-size="10.00">string</text>
</a>
</g>
</g>
<!-- Node7&#45;&gt;Node11 -->
<g id="edge12" class="edge">
<title>Node7&#45;&gt;Node11</title>
<path fill="none" stroke="midnightblue" d="M492.26,-56.44C525.42,-46.66 579.54,-30.69 614.01,-20.52"/>
<polygon fill="midnightblue" stroke="midnightblue" points="615.42,-23.75 624.02,-17.56 613.44,-17.04 615.42,-23.75"/>
</g>
<!-- Node12&#45;&gt;Node6 -->
<g id="edge15" class="edge">
<title>Node12&#45;&gt;Node6</title>
<path fill="none" stroke="midnightblue" d="M700.5,-173.95C707.32,-155.87 723.69,-112.46 737.27,-76 743.1,-60.32 749.68,-42.5 754.47,-29.48"/>
<polygon fill="midnightblue" stroke="midnightblue" points="757.85,-30.43 758.02,-19.84 751.28,-28.01 757.85,-30.43"/>
</g>
<!-- Node12&#45;&gt;Node7 -->
<g id="edge16" class="edge">
<title>Node12&#45;&gt;Node7</title>
<path fill="none" stroke="midnightblue" d="M687.23,-173.79C670.05,-159.26 633.44,-129.88 598.27,-112 569.56,-97.41 535.09,-86.01 508.16,-78.33"/>
<polygon fill="midnightblue" stroke="midnightblue" points="508.81,-74.88 498.24,-75.58 506.94,-81.63 508.81,-74.88"/>
</g>
<!-- Node12&#45;&gt;Node13 -->
<g id="edge17" class="edge">
<title>Node12&#45;&gt;Node13</title>
<path fill="none" stroke="midnightblue" d="M675.34,-173.98C649.21,-163.81 605.35,-146.76 575.64,-135.2"/>
<polygon fill="midnightblue" stroke="midnightblue" points="576.73,-131.87 566.15,-131.51 574.2,-138.4 576.73,-131.87"/>
</g>
<!-- Node13&#45;&gt;Node7 -->
<g id="edge19" class="edge">
<title>Node13&#45;&gt;Node7</title>
<path fill="none" stroke="midnightblue" d="M531.25,-112.32C518.73,-103.98 499.58,-91.21 484.79,-81.35"/>
<polygon fill="midnightblue" stroke="midnightblue" points="486.51,-78.29 476.25,-75.65 482.63,-84.11 486.51,-78.29"/>
</g>
<!-- Node14 -->
<g id="node14" class="node">
<title>Node14</title>
<g id="a_node14"><a xlink:title=" ">
<polygon fill="none" stroke="#bfbfbf" points="563.77,-56.5 563.77,-75.5 656.77,-75.5 656.77,-56.5 563.77,-56.5"/>
<text text-anchor="middle" x="610.27" y="-63.5" font-family="Helvetica,sans-Serif" font-size="10.00">unordered_map</text>
</a>
</g>
</g>
<!-- Node13&#45;&gt;Node14 -->
<g id="edge18" class="edge">
<title>Node13&#45;&gt;Node14</title>
<path fill="none" stroke="midnightblue" d="M554.87,-112.32C564.72,-104.26 579.62,-92.08 591.48,-82.37"/>
<polygon fill="midnightblue" stroke="midnightblue" points="593.95,-84.88 599.47,-75.83 589.51,-79.46 593.95,-84.88"/>
</g>
<!-- Node15&#45;&gt;Node6 -->
<g id="edge22" class="edge">
<title>Node15&#45;&gt;Node6</title>
<path fill="none" stroke="midnightblue" d="M875.95,-235.34C890,-226.92 905.4,-214.77 913.27,-199 921.78,-181.92 905.66,-114.23 904.27,-112 877.55,-69.16 825.3,-39.39 791.9,-23.77"/>
<polygon fill="midnightblue" stroke="midnightblue" points="793.15,-20.5 782.6,-19.56 790.27,-26.87 793.15,-20.5"/>
</g>
<!-- Node15&#45;&gt;Node11 -->
<g id="edge21" class="edge">
<title>Node15&#45;&gt;Node11</title>
<path fill="none" stroke="midnightblue" d="M859.25,-235.25C867.01,-225.75 876.13,-212.55 880.27,-199 891.79,-161.23 888.37,-141.63 862.27,-112 812.78,-55.83 725.44,-28.62 678.4,-17.48"/>
<polygon fill="midnightblue" stroke="midnightblue" points="678.99,-14.03 668.46,-15.23 677.44,-20.85 678.99,-14.03"/>
</g>
<!-- Node15&#45;&gt;Node12 -->
<g id="edge23" class="edge">
<title>Node15&#45;&gt;Node12</title>
<path fill="none" stroke="midnightblue" d="M813.93,-235.4C787.79,-223.99 751.32,-208.08 726.14,-197.1"/>
<polygon fill="midnightblue" stroke="midnightblue" points="727.33,-193.8 716.77,-193.01 724.53,-200.21 727.33,-193.8"/>
</g>
<!-- Node16 -->
<g id="node16" class="node">
<title>Node16</title>
<g id="a_node16"><a xlink:href="math__m_8hpp.html" target="_top" xlink:title=" ">
<polygon fill="none" stroke="black" points="783.77,-174 783.77,-193 870.77,-193 870.77,-174 783.77,-174"/>
<text text-anchor="middle" x="827.27" y="-181" font-family="Helvetica,sans-Serif" font-size="10.00">../math_m.hpp</text>
</a>
</g>
</g>
<!-- Node15&#45;&gt;Node16 -->
<g id="edge24" class="edge">
<title>Node15&#45;&gt;Node16</title>
<path fill="none" stroke="midnightblue" d="M842.14,-235.4C839.36,-225.86 835.65,-213.18 832.63,-202.86"/>
<polygon fill="midnightblue" stroke="midnightblue" points="835.97,-201.81 829.81,-193.19 829.25,-203.77 835.97,-201.81"/>
</g>
<!-- Node16&#45;&gt;Node7 -->
<g id="edge26" class="edge">
<title>Node16&#45;&gt;Node7</title>
<path fill="none" stroke="midnightblue" d="M804.65,-173.93C767.77,-160.1 692.27,-132.35 627.27,-112 586.79,-99.33 540.11,-86.71 506.92,-78.08"/>
<polygon fill="midnightblue" stroke="midnightblue" points="507.64,-74.64 497.08,-75.53 505.88,-81.42 507.64,-74.64"/>
</g>
<!-- Node17 -->
<g id="node17" class="node">
<title>Node17</title>
<g id="a_node17"><a xlink:title=" ">
<polygon fill="none" stroke="#bfbfbf" points="801.77,-112.5 801.77,-131.5 852.77,-131.5 852.77,-112.5 801.77,-112.5"/>
<text text-anchor="middle" x="827.27" y="-119.5" font-family="Helvetica,sans-Serif" font-size="10.00">cblas.h</text>
</a>
</g>
</g>
<!-- Node16&#45;&gt;Node17 -->
<g id="edge25" class="edge">
<title>Node16&#45;&gt;Node17</title>
<path fill="none" stroke="midnightblue" d="M827.27,-173.98C827.27,-165.58 827.27,-152.48 827.27,-141.66"/>
<polygon fill="midnightblue" stroke="midnightblue" points="830.77,-141.51 827.27,-131.51 823.77,-141.51 830.77,-141.51"/>
</g>
<!-- Node18&#45;&gt;Node12 -->
<g id="edge28" class="edge">
<title>Node18&#45;&gt;Node12</title>
<path fill="none" stroke="midnightblue" d="M677.69,-235.4C681.4,-225.76 686.34,-212.91 690.33,-202.54"/>
<polygon fill="midnightblue" stroke="midnightblue" points="693.6,-203.78 693.92,-193.19 687.06,-201.27 693.6,-203.78"/>
</g>
<!-- Node19&#45;&gt;Node7 -->
<g id="edge30" class="edge">
<title>Node19&#45;&gt;Node7</title>
<path fill="none" stroke="midnightblue" d="M130.26,-173.89C143.15,-158.68 172.28,-127.22 204.27,-112 256.23,-87.27 319.84,-75.99 371.02,-70.9"/>
<polygon fill="midnightblue" stroke="midnightblue" points="371.45,-74.38 381.08,-69.96 370.8,-67.41 371.45,-74.38"/>
</g>
<!-- Node20&#45;&gt;Node19 -->
<g id="edge32" class="edge">
<title>Node20&#45;&gt;Node19</title>
<path fill="none" stroke="midnightblue" d="M94.29,-235.4C99.89,-225.56 107.4,-212.38 113.37,-201.89"/>
<polygon fill="midnightblue" stroke="midnightblue" points="116.41,-203.62 118.32,-193.19 110.33,-200.15 116.41,-203.62"/>
</g>
<!-- Node21&#45;&gt;Node19 -->
<g id="edge34" class="edge">
<title>Node21&#45;&gt;Node19</title>
<path fill="none" stroke="midnightblue" d="M196.09,-235.4C180.63,-224.6 159.4,-209.76 143.85,-198.89"/>
<polygon fill="midnightblue" stroke="midnightblue" points="145.64,-195.87 135.44,-193.01 141.63,-201.6 145.64,-195.87"/>
</g>
<!-- Node22&#45;&gt;Node6 -->
<g id="edge37" class="edge">
<title>Node22&#45;&gt;Node6</title>
<path fill="none" stroke="midnightblue" d="M528.17,-240.73C564.12,-205.3 698.92,-72.44 745.4,-26.64"/>
<polygon fill="midnightblue" stroke="midnightblue" points="747.87,-29.11 752.54,-19.6 742.96,-24.13 747.87,-29.11"/>
</g>
<!-- Node22&#45;&gt;Node7 -->
<g id="edge38" class="edge">
<title>Node22&#45;&gt;Node7</title>
<path fill="none" stroke="midnightblue" d="M507.61,-240.94C496.34,-231.91 479.88,-216.58 472.27,-199 456.04,-161.55 458,-112.49 460.72,-85.98"/>
<polygon fill="midnightblue" stroke="midnightblue" points="464.23,-86.15 461.92,-75.8 457.28,-85.33 464.23,-86.15"/>
</g>
<!-- Node22&#45;&gt;Node12 -->
<g id="edge39" class="edge">
<title>Node22&#45;&gt;Node12</title>
<path fill="none" stroke="midnightblue" d="M542.9,-240.87C573.97,-229.52 628.74,-209.52 663.99,-196.65"/>
<polygon fill="midnightblue" stroke="midnightblue" points="665.62,-199.78 673.81,-193.06 663.22,-193.21 665.62,-199.78"/>
</g>
<!-- Node22&#45;&gt;Node13 -->
<g id="edge41" class="edge">
<title>Node22&#45;&gt;Node13</title>
<path fill="none" stroke="midnightblue" d="M524.73,-240.98C530.61,-231.27 539.62,-214.7 543.27,-199 547.69,-179.95 547.33,-157.48 546.24,-141.94"/>
<polygon fill="midnightblue" stroke="midnightblue" points="549.69,-141.23 545.33,-131.58 542.72,-141.84 549.69,-141.23"/>
</g>
<!-- Node22&#45;&gt;Node19 -->
<g id="edge40" class="edge">
<title>Node22&#45;&gt;Node19</title>
<path fill="none" stroke="midnightblue" d="M467.09,-240.94C394.43,-229.01 262.98,-207.43 185.36,-194.69"/>
<polygon fill="midnightblue" stroke="midnightblue" points="185.68,-191.2 175.24,-193.03 184.54,-198.11 185.68,-191.2"/>
</g>
<!-- Node23 -->
<g id="node23" class="node">
<title>Node23</title>
<g id="a_node23"><a xlink:title=" ">
<polygon fill="none" stroke="#bfbfbf" points="480.77,-174 480.77,-193 533.77,-193 533.77,-174 480.77,-174"/>
<text text-anchor="middle" x="507.27" y="-181" font-family="Helvetica,sans-Serif" font-size="10.00">stdlib.h</text>
</a>
</g>
</g>
<!-- Node22&#45;&gt;Node23 -->
<g id="edge36" class="edge">
<title>Node22&#45;&gt;Node23</title>
<path fill="none" stroke="midnightblue" d="M517.65,-240.73C515.88,-231.18 513.01,-215.62 510.73,-203.28"/>
<polygon fill="midnightblue" stroke="midnightblue" points="514.12,-202.33 508.86,-193.13 507.23,-203.6 514.12,-202.33"/>
</g>
<!-- Node24&#45;&gt;Node13 -->
<g id="edge44" class="edge">
<title>Node24&#45;&gt;Node13</title>
<path fill="none" stroke="midnightblue" d="M370.01,-168.47C410.2,-157.99 464.42,-143.84 501.65,-134.12"/>
<polygon fill="midnightblue" stroke="midnightblue" points="502.88,-137.42 511.67,-131.51 501.11,-130.64 502.88,-137.42"/>
</g>
</g>
</svg>
