<?xml version="1.0" encoding="UTF-8" standalone="no"?>
<!DOCTYPE svg PUBLIC "-//W3C//DTD SVG 1.1//EN"
 "http://www.w3.org/Graphics/SVG/1.1/DTD/svg11.dtd">
<!-- Generated by graphviz version 2.43.0 (0)
 -->
<!-- Title: src/main copy.cpp Pages: 1 -->
<svg width="1186pt" height="330pt"
 viewBox="0.00 0.00 1185.77 330.00" xmlns="http://www.w3.org/2000/svg" xmlns:xlink="http://www.w3.org/1999/xlink">
<g id="graph0" class="graph" transform="scale(1 1) rotate(0) translate(4 326)">
<title>src/main copy.cpp</title>
<!-- Node1 -->
<g id="node1" class="node">
<title>Node1</title>
<g id="a_node1"><a xlink:title=" ">
<polygon fill="#bfbfbf" stroke="black" points="470.27,-302.5 470.27,-321.5 574.27,-321.5 574.27,-302.5 470.27,-302.5"/>
<text text-anchor="middle" x="522.27" y="-309.5" font-family="Helvetica,sans-Serif" font-size="10.00">src/main copy.cpp</text>
</a>
</g>
</g>
<!-- Node2 -->
<g id="node2" class="node">
<title>Node2</title>
<g id="a_node2"><a xlink:title=" ">
<polygon fill="none" stroke="#bfbfbf" points="139.77,-0.5 139.77,-19.5 186.77,-19.5 186.77,-0.5 139.77,-0.5"/>
<text text-anchor="middle" x="163.27" y="-7.5" font-family="Helvetica,sans-Serif" font-size="10.00">cmath</text>
</a>
</g>
</g>
<!-- Node1&#45;&gt;Node2 -->
<g id="edge1" class="edge">
<title>Node1&#45;&gt;Node2</title>
<path fill="none" stroke="midnightblue" d="M470.14,-309.73C348.69,-306.28 54.63,-295.01 21.27,-266 -6.8,-241.6 2.27,-221.69 2.27,-184.5 2.27,-184.5 2.27,-184.5 2.27,-121 2.27,-59.82 82.52,-30.2 129.7,-18.07"/>
<polygon fill="midnightblue" stroke="midnightblue" points="130.63,-21.45 139.51,-15.67 128.97,-14.64 130.63,-21.45"/>
</g>
<!-- Node3 -->
<g id="node3" class="node">
<title>Node3</title>
<g id="a_node3"><a xlink:title=" ">
<polygon fill="none" stroke="#bfbfbf" points="1046.27,-241 1046.27,-260 1102.27,-260 1102.27,-241 1046.27,-241"/>
<text text-anchor="middle" x="1074.27" y="-248" font-family="Helvetica,sans-Serif" font-size="10.00">iomanip</text>
</a>
</g>
</g>
<!-- Node1&#45;&gt;Node3 -->
<g id="edge2" class="edge">
<title>Node1&#45;&gt;Node3</title>
<path fill="none" stroke="midnightblue" d="M574.28,-310.58C667.23,-308.92 867.54,-301.15 1032.27,-266 1035.77,-265.25 1039.38,-264.3 1042.95,-263.24"/>
<polygon fill="midnightblue" stroke="midnightblue" points="1044.32,-266.47 1052.75,-260.06 1042.16,-259.82 1044.32,-266.47"/>
</g>
<!-- Node4 -->
<g id="node4" class="node">
<title>Node4</title>
<g id="a_node4"><a xlink:title=" ">
<polygon fill="none" stroke="#bfbfbf" points="904.27,-0.5 904.27,-19.5 964.27,-19.5 964.27,-0.5 904.27,-0.5"/>
<text text-anchor="middle" x="934.27" y="-7.5" font-family="Helvetica,sans-Serif" font-size="10.00">iostream</text>
</a>
</g>
</g>
<!-- Node1&#45;&gt;Node4 -->
<g id="edge3" class="edge">
<title>Node1&#45;&gt;Node4</title>
<path fill="none" stroke="midnightblue" d="M574.35,-310.59C674.61,-308.99 890.15,-301.4 954.27,-266 994.59,-243.74 1018.27,-230.56 1018.27,-184.5 1018.27,-184.5 1018.27,-184.5 1018.27,-121 1018.27,-79.73 980.46,-44.32 955.57,-25.49"/>
<polygon fill="midnightblue" stroke="midnightblue" points="957.54,-22.59 947.39,-19.54 953.42,-28.25 957.54,-22.59"/>
</g>
<!-- Node5 -->
<g id="node5" class="node">
<title>Node5</title>
<g id="a_node5"><a xlink:title=" ">
<polygon fill="none" stroke="#bfbfbf" points="1120.77,-241 1120.77,-260 1177.77,-260 1177.77,-241 1120.77,-241"/>
<text text-anchor="middle" x="1149.27" y="-248" font-family="Helvetica,sans-Serif" font-size="10.00">ostream</text>
</a>
</g>
</g>
<!-- Node1&#45;&gt;Node5 -->
<g id="edge4" class="edge">
<title>Node1&#45;&gt;Node5</title>
<path fill="none" stroke="midnightblue" d="M574.49,-308.94C698.85,-303.72 1009.69,-288.76 1111.27,-266 1114.27,-265.33 1117.35,-264.46 1120.4,-263.49"/>
<polygon fill="midnightblue" stroke="midnightblue" points="1121.62,-266.77 1129.88,-260.13 1119.28,-260.18 1121.62,-266.77"/>
</g>
<!-- Node6 -->
<g id="node6" class="node">
<title>Node6</title>
<g id="a_node6"><a xlink:title=" ">
<polygon fill="none" stroke="#bfbfbf" points="742.77,-0.5 742.77,-19.5 789.77,-19.5 789.77,-0.5 742.77,-0.5"/>
<text text-anchor="middle" x="766.27" y="-7.5" font-family="Helvetica,sans-Serif" font-size="10.00">vector</text>
</a>
</g>
</g>
<!-- Node1&#45;&gt;Node6 -->
<g id="edge5" class="edge">
<title>Node1&#45;&gt;Node6</title>
<path fill="none" stroke="midnightblue" d="M574.41,-310.09C668.15,-307.65 860.74,-298.69 918.27,-266 957.84,-243.51 980.27,-230.01 980.27,-184.5 980.27,-184.5 980.27,-184.5 980.27,-121 980.27,-41 860.52,-19.14 800.17,-13.2"/>
<polygon fill="midnightblue" stroke="midnightblue" points="800.26,-9.69 789.99,-12.29 799.64,-16.66 800.26,-9.69"/>
</g>
<!-- Node7 -->
<g id="node7" class="node">
<title>Node7</title>
<g id="a_node7"><a xlink:href="definitions_8hpp.html" target="_top" xlink:title=" ">
<polygon fill="none" stroke="black" points="384.27,-56.5 384.27,-75.5 550.27,-75.5 550.27,-56.5 384.27,-56.5"/>
<text text-anchor="middle" x="467.27" y="-63.5" font-family="Helvetica,sans-Serif" font-size="10.00">nmbuflowtorch/definitions.hpp</text>
</a>
</g>
</g>
<!-- Node1&#45;&gt;Node7 -->
<g id="edge6" class="edge">
<title>Node1&#45;&gt;Node7</title>
<path fill="none" stroke="midnightblue" d="M474.83,-302.48C441.87,-295.44 397.52,-283.7 361.27,-266 340.42,-255.82 339.26,-246.76 319.27,-235 286.01,-215.44 261.14,-231.45 240.27,-199 196.57,-131.07 322.08,-93.94 403.52,-77.52"/>
<polygon fill="midnightblue" stroke="midnightblue" points="404.57,-80.88 413.71,-75.52 403.23,-74.01 404.57,-80.88"/>
</g>
<!-- Node12 -->
<g id="node12" class="node">
<title>Node12</title>
<g id="a_node12"><a xlink:href="layer_8hpp.html" target="_top" xlink:title=" ">
<polygon fill="none" stroke="black" points="631.77,-174 631.77,-193 770.77,-193 770.77,-174 631.77,-174"/>
<text text-anchor="middle" x="701.27" y="-181" font-family="Helvetica,sans-Serif" font-size="10.00">nmbuflowtorch/layer.hpp</text>
</a>
</g>
</g>
<!-- Node1&#45;&gt;Node12 -->
<g id="edge14" class="edge">
<title>Node1&#45;&gt;Node12</title>
<path fill="none" stroke="midnightblue" d="M574.47,-307.85C633.22,-303.1 723.23,-291.73 744.27,-266 761.04,-245.49 738.11,-217.4 719.83,-200.13"/>
<polygon fill="midnightblue" stroke="midnightblue" points="721.69,-197.1 711.92,-193.02 717.02,-202.31 721.69,-197.1"/>
</g>
<!-- Node13 -->
<g id="node13" class="node">
<title>Node13</title>
<g id="a_node13"><a xlink:href="optimizer_8hpp.html" target="_top" xlink:title=" ">
<polygon fill="none" stroke="black" points="502.27,-112.5 502.27,-131.5 592.27,-131.5 592.27,-112.5 502.27,-112.5"/>
<text text-anchor="middle" x="547.27" y="-119.5" font-family="Helvetica,sans-Serif" font-size="10.00">./optimizer.hpp</text>
</a>
</g>
</g>
<!-- Node1&#45;&gt;Node13 -->
<g id="edge42" class="edge">
<title>Node1&#45;&gt;Node13</title>
<path fill="none" stroke="midnightblue" d="M488.08,-302.49C469.27,-295.88 447.52,-284.6 436.27,-266 429.13,-254.21 432.68,-248.3 436.27,-235 445.24,-201.73 451.29,-192.74 475.27,-168 487.89,-154.97 505.01,-144.07 519.39,-136.27"/>
<polygon fill="midnightblue" stroke="midnightblue" points="521.12,-139.31 528.37,-131.59 517.89,-133.1 521.12,-139.31"/>
</g>
<!-- Node15 -->
<g id="node15" class="node">
<title>Node15</title>
<g id="a_node15"><a xlink:href="dense_8hpp.html" target="_top" xlink:title=" ">
<polygon fill="none" stroke="black" points="791.27,-235.5 791.27,-265.5 909.27,-265.5 909.27,-235.5 791.27,-235.5"/>
<text text-anchor="start" x="799.27" y="-253.5" font-family="Helvetica,sans-Serif" font-size="10.00">nmbuflowtorch/layer</text>
<text text-anchor="middle" x="850.27" y="-242.5" font-family="Helvetica,sans-Serif" font-size="10.00">/dense.hpp</text>
</a>
</g>
</g>
<!-- Node1&#45;&gt;Node15 -->
<g id="edge20" class="edge">
<title>Node1&#45;&gt;Node15</title>
<path fill="none" stroke="midnightblue" d="M572.64,-302.44C624.12,-293.61 706.35,-279.3 777.27,-266 778.52,-265.77 779.78,-265.53 781.05,-265.29"/>
<polygon fill="midnightblue" stroke="midnightblue" points="781.76,-268.71 790.93,-263.4 780.45,-261.84 781.76,-268.71"/>
</g>
<!-- Node18 -->
<g id="node18" class="node">
<title>Node18</title>
<g id="a_node18"><a xlink:href="sigmoid_8hpp.html" target="_top" xlink:title=" ">
<polygon fill="none" stroke="black" points="617.27,-235.5 617.27,-265.5 735.27,-265.5 735.27,-235.5 617.27,-235.5"/>
<text text-anchor="start" x="625.27" y="-253.5" font-family="Helvetica,sans-Serif" font-size="10.00">nmbuflowtorch/layer</text>
<text text-anchor="middle" x="676.27" y="-242.5" font-family="Helvetica,sans-Serif" font-size="10.00">/sigmoid.hpp</text>
</a>
</g>
</g>
<!-- Node1&#45;&gt;Node18 -->
<g id="edge27" class="edge">
<title>Node1&#45;&gt;Node18</title>
<path fill="none" stroke="midnightblue" d="M544.33,-302.48C566.75,-293.81 602.13,-280.15 630.61,-269.14"/>
<polygon fill="midnightblue" stroke="midnightblue" points="631.91,-272.39 639.97,-265.52 629.38,-265.86 631.91,-272.39"/>
</g>
<!-- Node19 -->
<g id="node19" class="node">
<title>Node19</title>
<g id="a_node19"><a xlink:href="loss_8hpp.html" target="_top" xlink:title=" ">
<polygon fill="none" stroke="black" points="59.27,-174 59.27,-193 193.27,-193 193.27,-174 59.27,-174"/>
<text text-anchor="middle" x="126.27" y="-181" font-family="Helvetica,sans-Serif" font-size="10.00">nmbuflowtorch/loss.hpp</text>
</a>
</g>
</g>
<!-- Node1&#45;&gt;Node19 -->
<g id="edge29" class="edge">
<title>Node1&#45;&gt;Node19</title>
<path fill="none" stroke="midnightblue" d="M469.95,-304.69C429.61,-298.48 373.15,-286.81 327.27,-266 305.81,-256.27 305.3,-245.61 284.27,-235 249.11,-217.28 206.45,-204.08 174.32,-195.63"/>
<polygon fill="midnightblue" stroke="midnightblue" points="174.84,-192.15 164.28,-193.06 173.1,-198.93 174.84,-192.15"/>
</g>
<!-- Node20 -->
<g id="node20" class="node">
<title>Node20</title>
<g id="a_node20"><a xlink:href="cross__entropy_8hpp.html" target="_top" xlink:title=" ">
<polygon fill="none" stroke="black" points="30.77,-235.5 30.77,-265.5 143.77,-265.5 143.77,-235.5 30.77,-235.5"/>
<text text-anchor="start" x="38.77" y="-253.5" font-family="Helvetica,sans-Serif" font-size="10.00">nmbuflowtorch/loss</text>
<text text-anchor="middle" x="87.27" y="-242.5" font-family="Helvetica,sans-Serif" font-size="10.00">/cross_entropy.hpp</text>
</a>
</g>
</g>
<!-- Node1&#45;&gt;Node20 -->
<g id="edge31" class="edge">
<title>Node1&#45;&gt;Node20</title>
<path fill="none" stroke="midnightblue" d="M470.1,-306.21C400.37,-299.47 272.78,-285.91 154.07,-266.03"/>
<polygon fill="midnightblue" stroke="midnightblue" points="154.53,-262.56 144.08,-264.34 153.36,-269.46 154.53,-262.56"/>
</g>
<!-- Node21 -->
<g id="node21" class="node">
<title>Node21</title>
<g id="a_node21"><a xlink:href="mse_8hpp.html" target="_top" xlink:title=" ">
<polygon fill="none" stroke="black" points="161.77,-235.5 161.77,-265.5 274.77,-265.5 274.77,-235.5 161.77,-235.5"/>
<text text-anchor="start" x="169.77" y="-253.5" font-family="Helvetica,sans-Serif" font-size="10.00">nmbuflowtorch/loss</text>
<text text-anchor="middle" x="218.27" y="-242.5" font-family="Helvetica,sans-Serif" font-size="10.00">/mse.hpp</text>
</a>
</g>
</g>
<!-- Node1&#45;&gt;Node21 -->
<g id="edge33" class="edge">
<title>Node1&#45;&gt;Node21</title>
<path fill="none" stroke="midnightblue" d="M477.14,-302.43C430.18,-293.48 354.53,-278.97 289.27,-266 287.8,-265.71 286.32,-265.41 284.83,-265.12"/>
<polygon fill="midnightblue" stroke="midnightblue" points="285.33,-261.65 274.84,-263.11 283.95,-268.51 285.33,-261.65"/>
</g>
<!-- Node22 -->
<g id="node22" class="node">
<title>Node22</title>
<g id="a_node22"><a xlink:href="network_8hpp.html" target="_top" xlink:title=" ">
<polygon fill="none" stroke="black" points="445.27,-241 445.27,-260 599.27,-260 599.27,-241 445.27,-241"/>
<text text-anchor="middle" x="522.27" y="-248" font-family="Helvetica,sans-Serif" font-size="10.00">nmbuflowtorch/network.hpp</text>
</a>
</g>
</g>
<!-- Node1&#45;&gt;Node22 -->
<g id="edge35" class="edge">
<title>Node1&#45;&gt;Node22</title>
<path fill="none" stroke="midnightblue" d="M522.27,-302.48C522.27,-294.08 522.27,-280.98 522.27,-270.16"/>
<polygon fill="midnightblue" stroke="midnightblue" points="525.77,-270.01 522.27,-260.01 518.77,-270.01 525.77,-270.01"/>
</g>
<!-- Node24 -->
<g id="node24" class="node">
<title>Node24</title>
<g id="a_node24"><a xlink:href="sgd_8hpp.html" target="_top" xlink:title=" ">
<polygon fill="none" stroke="black" points="249.27,-168.5 249.27,-198.5 389.27,-198.5 389.27,-168.5 249.27,-168.5"/>
<text text-anchor="start" x="257.27" y="-186.5" font-family="Helvetica,sans-Serif" font-size="10.00">nmbuflowtorch/optimizer</text>
<text text-anchor="middle" x="319.27" y="-175.5" font-family="Helvetica,sans-Serif" font-size="10.00">/sgd.hpp</text>
</a>
</g>
</g>
<!-- Node1&#45;&gt;Node24 -->
<g id="edge43" class="edge">
<title>Node1&#45;&gt;Node24</title>
<path fill="none" stroke="midnightblue" d="M489.28,-302.49C464.41,-295.16 430.11,-283.05 403.27,-266 377.54,-249.66 353.11,-224.48 337.31,-206.43"/>
<polygon fill="midnightblue" stroke="midnightblue" points="339.84,-204.01 330.67,-198.7 334.53,-208.57 339.84,-204.01"/>
</g>
<!-- Node7&#45;&gt;Node2 -->
<g id="edge9" class="edge">
<title>Node7&#45;&gt;Node2</title>
<path fill="none" stroke="midnightblue" d="M419.1,-56.44C357.1,-45.43 250.95,-26.58 196.96,-16.98"/>
<polygon fill="midnightblue" stroke="midnightblue" points="197.34,-13.5 186.88,-15.19 196.11,-20.39 197.34,-13.5"/>
</g>
<!-- Node7&#45;&gt;Node4 -->
<g id="edge11" class="edge">
<title>Node7&#45;&gt;Node4</title>
<path fill="none" stroke="midnightblue" d="M541.01,-56.47C640.88,-44.93 815.65,-24.72 894.13,-15.64"/>
<polygon fill="midnightblue" stroke="midnightblue" points="894.57,-19.11 904.1,-14.49 893.76,-12.16 894.57,-19.11"/>
</g>
<!-- Node7&#45;&gt;Node6 -->
<g id="edge13" class="edge">
<title>Node7&#45;&gt;Node6</title>
<path fill="none" stroke="midnightblue" d="M514.64,-56.44C575.47,-45.46 679.49,-26.67 732.73,-17.06"/>
<polygon fill="midnightblue" stroke="midnightblue" points="733.45,-20.48 742.67,-15.26 732.21,-13.59 733.45,-20.48"/>
</g>
<!-- Node8 -->
<g id="node8" class="node">
<title>Node8</title>
<g id="a_node8"><a xlink:title=" ">
<polygon fill="none" stroke="#bfbfbf" points="354.27,-0.5 354.27,-19.5 410.27,-19.5 410.27,-0.5 354.27,-0.5"/>
<text text-anchor="middle" x="382.27" y="-7.5" font-family="Helvetica,sans-Serif" font-size="10.00">unistd.h</text>
</a>
</g>
</g>
<!-- Node7&#45;&gt;Node8 -->
<g id="edge7" class="edge">
<title>Node7&#45;&gt;Node8</title>
<path fill="none" stroke="midnightblue" d="M453.61,-56.32C440.35,-47.9 420,-34.97 404.42,-25.07"/>
<polygon fill="midnightblue" stroke="midnightblue" points="406.21,-22.06 395.89,-19.65 402.45,-27.97 406.21,-22.06"/>
</g>
<!-- Node9 -->
<g id="node9" class="node">
<title>Node9</title>
<g id="a_node9"><a xlink:title=" ">
<polygon fill="none" stroke="#bfbfbf" points="428.77,-0.5 428.77,-19.5 505.77,-19.5 505.77,-0.5 428.77,-0.5"/>
<text text-anchor="middle" x="467.27" y="-7.5" font-family="Helvetica,sans-Serif" font-size="10.00">Eigen/Dense</text>
</a>
</g>
</g>
<!-- Node7&#45;&gt;Node9 -->
<g id="edge8" class="edge">
<title>Node7&#45;&gt;Node9</title>
<path fill="none" stroke="midnightblue" d="M467.27,-56.08C467.27,-49.01 467.27,-38.86 467.27,-29.99"/>
<polygon fill="midnightblue" stroke="midnightblue" points="470.77,-29.75 467.27,-19.75 463.77,-29.75 470.77,-29.75"/>
</g>
<!-- Node10 -->
<g id="node10" class="node">
<title>Node10</title>
<g id="a_node10"><a xlink:title=" ">
<polygon fill="none" stroke="#bfbfbf" points="524.27,-0.5 524.27,-19.5 570.27,-19.5 570.27,-0.5 524.27,-0.5"/>
<text text-anchor="middle" x="547.27" y="-7.5" font-family="Helvetica,sans-Serif" font-size="10.00">cstdio</text>
</a>
</g>
</g>
<!-- Node7&#45;&gt;Node10 -->
<g id="edge10" class="edge">
<title>Node7&#45;&gt;Node10</title>
<path fill="none" stroke="midnightblue" d="M480.12,-56.32C492.48,-47.98 511.4,-35.21 526,-25.35"/>
<polygon fill="midnightblue" stroke="midnightblue" points="528.12,-28.15 534.45,-19.65 524.2,-22.35 528.12,-28.15"/>
</g>
<!-- Node11 -->
<g id="node11" class="node">
<title>Node11</title>
<g id="a_node11"><a xlink:title=" ">
<polygon fill="none" stroke="#bfbfbf" points="628.27,-0.5 628.27,-19.5 672.27,-19.5 672.27,-0.5 628.27,-0.5"/>
<text text-anchor="middle" x="650.27" y="-7.5" font-family="Helvetica,sans-Serif" font-size="10.00">string</text>
</a>
</g>
</g>
<!-- Node7&#45;&gt;Node11 -->
<g id="edge12" class="edge">
<title>Node7&#45;&gt;Node11</title>
<path fill="none" stroke="midnightblue" d="M496.26,-56.44C529.42,-46.66 583.55,-30.69 618.01,-20.52"/>
<polygon fill="midnightblue" stroke="midnightblue" points="619.43,-23.75 628.03,-17.56 617.44,-17.04 619.43,-23.75"/>
</g>
<!-- Node12&#45;&gt;Node6 -->
<g id="edge15" class="edge">
<title>Node12&#45;&gt;Node6</title>
<path fill="none" stroke="midnightblue" d="M704.6,-173.96C711.64,-155.9 728.5,-112.52 742.27,-76 748.17,-60.35 754.74,-42.52 759.51,-29.5"/>
<polygon fill="midnightblue" stroke="midnightblue" points="762.9,-30.44 763.04,-19.85 756.32,-28.03 762.9,-30.44"/>
</g>
<!-- Node12&#45;&gt;Node7 -->
<g id="edge16" class="edge">
<title>Node12&#45;&gt;Node7</title>
<path fill="none" stroke="midnightblue" d="M691.11,-173.81C673.73,-159.3 636.7,-129.96 601.27,-112 572.54,-97.44 538.05,-85.98 511.26,-78.27"/>
<polygon fill="midnightblue" stroke="midnightblue" points="511.97,-74.84 501.39,-75.5 510.07,-81.58 511.97,-74.84"/>
</g>
<!-- Node12&#45;&gt;Node13 -->
<g id="edge17" class="edge">
<title>Node12&#45;&gt;Node13</title>
<path fill="none" stroke="midnightblue" d="M679.2,-173.98C652.9,-163.81 608.75,-146.76 578.84,-135.2"/>
<polygon fill="midnightblue" stroke="midnightblue" points="579.88,-131.85 569.29,-131.51 577.36,-138.38 579.88,-131.85"/>
</g>
<!-- Node13&#45;&gt;Node7 -->
<g id="edge19" class="edge">
<title>Node13&#45;&gt;Node7</title>
<path fill="none" stroke="midnightblue" d="M534.41,-112.32C522.05,-103.98 503.14,-91.21 488.53,-81.35"/>
<polygon fill="midnightblue" stroke="midnightblue" points="490.34,-78.35 480.09,-75.65 486.42,-84.15 490.34,-78.35"/>
</g>
<!-- Node14 -->
<g id="node14" class="node">
<title>Node14</title>
<g id="a_node14"><a xlink:title=" ">
<polygon fill="none" stroke="#bfbfbf" points="568.77,-56.5 568.77,-75.5 661.77,-75.5 661.77,-56.5 568.77,-56.5"/>
<text text-anchor="middle" x="615.27" y="-63.5" font-family="Helvetica,sans-Serif" font-size="10.00">unordered_map</text>
</a>
</g>
</g>
<!-- Node13&#45;&gt;Node14 -->
<g id="edge18" class="edge">
<title>Node13&#45;&gt;Node14</title>
<path fill="none" stroke="midnightblue" d="M558.19,-112.32C568.44,-104.18 583.99,-91.84 596.27,-82.09"/>
<polygon fill="midnightblue" stroke="midnightblue" points="598.49,-84.79 604.14,-75.83 594.14,-79.31 598.49,-84.79"/>
</g>
<!-- Node15&#45;&gt;Node6 -->
<g id="edge21" class="edge">
<title>Node15&#45;&gt;Node6</title>
<path fill="none" stroke="midnightblue" d="M880.38,-235.44C894.64,-227.05 910.27,-214.9 918.27,-199 926.82,-181.99 910.73,-114.35 909.27,-112 882.55,-69.16 830.3,-39.39 796.9,-23.77"/>
<polygon fill="midnightblue" stroke="midnightblue" points="798.16,-20.5 787.6,-19.56 795.27,-26.87 798.16,-20.5"/>
</g>
<!-- Node15&#45;&gt;Node11 -->
<g id="edge22" class="edge">
<title>Node15&#45;&gt;Node11</title>
<path fill="none" stroke="midnightblue" d="M863.63,-235.32C871.61,-225.84 881,-212.64 885.27,-199 897.05,-161.31 893.39,-141.6 867.27,-112 817.55,-55.66 729.8,-28.52 682.55,-17.44"/>
<polygon fill="midnightblue" stroke="midnightblue" points="683.09,-13.97 672.56,-15.19 681.55,-20.8 683.09,-13.97"/>
</g>
<!-- Node15&#45;&gt;Node12 -->
<g id="edge23" class="edge">
<title>Node15&#45;&gt;Node12</title>
<path fill="none" stroke="midnightblue" d="M817.94,-235.4C791.79,-223.99 755.32,-208.08 730.14,-197.1"/>
<polygon fill="midnightblue" stroke="midnightblue" points="731.33,-193.8 720.77,-193.01 728.53,-200.21 731.33,-193.8"/>
</g>
<!-- Node16 -->
<g id="node16" class="node">
<title>Node16</title>
<g id="a_node16"><a xlink:href="math__m_8hpp.html" target="_top" xlink:title=" ">
<polygon fill="none" stroke="black" points="788.77,-174 788.77,-193 875.77,-193 875.77,-174 788.77,-174"/>
<text text-anchor="middle" x="832.27" y="-181" font-family="Helvetica,sans-Serif" font-size="10.00">../math_m.hpp</text>
</a>
</g>
</g>
<!-- Node15&#45;&gt;Node16 -->
<g id="edge24" class="edge">
<title>Node15&#45;&gt;Node16</title>
<path fill="none" stroke="midnightblue" d="M846.36,-235.4C843.72,-225.86 840.21,-213.18 837.35,-202.86"/>
<polygon fill="midnightblue" stroke="midnightblue" points="840.72,-201.9 834.67,-193.19 833.97,-203.77 840.72,-201.9"/>
</g>
<!-- Node16&#45;&gt;Node7 -->
<g id="edge26" class="edge">
<title>Node16&#45;&gt;Node7</title>
<path fill="none" stroke="midnightblue" d="M809.41,-173.96C772.14,-160.18 695.86,-132.48 630.27,-112 590.01,-99.43 543.62,-86.8 510.64,-78.13"/>
<polygon fill="midnightblue" stroke="midnightblue" points="511.42,-74.72 500.86,-75.58 509.65,-81.49 511.42,-74.72"/>
</g>
<!-- Node17 -->
<g id="node17" class="node">
<title>Node17</title>
<g id="a_node17"><a xlink:title=" ">
<polygon fill="none" stroke="#bfbfbf" points="806.77,-112.5 806.77,-131.5 857.77,-131.5 857.77,-112.5 806.77,-112.5"/>
<text text-anchor="middle" x="832.27" y="-119.5" font-family="Helvetica,sans-Serif" font-size="10.00">cblas.h</text>
</a>
</g>
</g>
<!-- Node16&#45;&gt;Node17 -->
<g id="edge25" class="edge">
<title>Node16&#45;&gt;Node17</title>
<path fill="none" stroke="midnightblue" d="M832.27,-173.98C832.27,-165.58 832.27,-152.48 832.27,-141.66"/>
<polygon fill="midnightblue" stroke="midnightblue" points="835.77,-141.51 832.27,-131.51 828.77,-141.51 835.77,-141.51"/>
</g>
<!-- Node18&#45;&gt;Node12 -->
<g id="edge28" class="edge">
<title>Node18&#45;&gt;Node12</title>
<path fill="none" stroke="midnightblue" d="M681.69,-235.4C685.4,-225.76 690.34,-212.91 694.33,-202.54"/>
<polygon fill="midnightblue" stroke="midnightblue" points="697.6,-203.78 697.92,-193.19 691.07,-201.27 697.6,-203.78"/>
</g>
<!-- Node19&#45;&gt;Node7 -->
<g id="edge30" class="edge">
<title>Node19&#45;&gt;Node7</title>
<path fill="none" stroke="midnightblue" d="M133.26,-173.89C146.15,-158.68 175.28,-127.21 207.27,-112 259.24,-87.29 322.82,-76 374.09,-70.9"/>
<polygon fill="midnightblue" stroke="midnightblue" points="374.54,-74.37 384.17,-69.96 373.89,-67.4 374.54,-74.37"/>
</g>
<!-- Node20&#45;&gt;Node19 -->
<g id="edge32" class="edge">
<title>Node20&#45;&gt;Node19</title>
<path fill="none" stroke="midnightblue" d="M95.73,-235.4C101.63,-225.56 109.54,-212.38 115.83,-201.89"/>
<polygon fill="midnightblue" stroke="midnightblue" points="118.91,-203.57 121.05,-193.19 112.9,-199.97 118.91,-203.57"/>
</g>
<!-- Node21&#45;&gt;Node19 -->
<g id="edge34" class="edge">
<title>Node21&#45;&gt;Node19</title>
<path fill="none" stroke="midnightblue" d="M198.3,-235.4C183.02,-224.6 162.01,-209.76 146.63,-198.89"/>
<polygon fill="midnightblue" stroke="midnightblue" points="148.49,-195.92 138.31,-193.01 144.46,-201.64 148.49,-195.92"/>
</g>
<!-- Node22&#45;&gt;Node6 -->
<g id="edge37" class="edge">
<title>Node22&#45;&gt;Node6</title>
<path fill="none" stroke="midnightblue" d="M531.24,-240.73C567.49,-205.3 703.41,-72.44 750.27,-26.64"/>
<polygon fill="midnightblue" stroke="midnightblue" points="752.76,-29.09 757.47,-19.6 747.87,-24.09 752.76,-29.09"/>
</g>
<!-- Node22&#45;&gt;Node7 -->
<g id="edge38" class="edge">
<title>Node22&#45;&gt;Node7</title>
<path fill="none" stroke="midnightblue" d="M510.58,-240.95C499.29,-231.94 482.82,-216.61 475.27,-199 459.19,-161.5 461.58,-112.46 464.54,-85.97"/>
<polygon fill="midnightblue" stroke="midnightblue" points="468.05,-86.16 465.84,-75.8 461.1,-85.28 468.05,-86.16"/>
</g>
<!-- Node22&#45;&gt;Node12 -->
<g id="edge39" class="edge">
<title>Node22&#45;&gt;Node12</title>
<path fill="none" stroke="midnightblue" d="M546.04,-240.87C577.42,-229.47 632.83,-209.35 668.26,-196.49"/>
<polygon fill="midnightblue" stroke="midnightblue" points="669.48,-199.77 677.68,-193.06 667.09,-193.19 669.48,-199.77"/>
</g>
<!-- Node22&#45;&gt;Node13 -->
<g id="edge41" class="edge">
<title>Node22&#45;&gt;Node13</title>
<path fill="none" stroke="midnightblue" d="M527.73,-240.98C533.61,-231.27 542.62,-214.7 546.27,-199 550.7,-179.95 550.33,-157.48 549.24,-141.94"/>
<polygon fill="midnightblue" stroke="midnightblue" points="552.69,-141.23 548.33,-131.58 545.72,-141.84 552.69,-141.23"/>
</g>
<!-- Node22&#45;&gt;Node19 -->
<g id="edge40" class="edge">
<title>Node22&#45;&gt;Node19</title>
<path fill="none" stroke="midnightblue" d="M470.09,-240.94C397.43,-229.01 265.98,-207.43 188.36,-194.69"/>
<polygon fill="midnightblue" stroke="midnightblue" points="188.68,-191.2 178.24,-193.03 187.55,-198.11 188.68,-191.2"/>
</g>
<!-- Node23 -->
<g id="node23" class="node">
<title>Node23</title>
<g id="a_node23"><a xlink:title=" ">
<polygon fill="none" stroke="#bfbfbf" points="483.77,-174 483.77,-193 536.77,-193 536.77,-174 483.77,-174"/>
<text text-anchor="middle" x="510.27" y="-181" font-family="Helvetica,sans-Serif" font-size="10.00">stdlib.h</text>
</a>
</g>
</g>
<!-- Node22&#45;&gt;Node23 -->
<g id="edge36" class="edge">
<title>Node22&#45;&gt;Node23</title>
<path fill="none" stroke="midnightblue" d="M520.65,-240.73C518.89,-231.18 516.01,-215.62 513.73,-203.28"/>
<polygon fill="midnightblue" stroke="midnightblue" points="517.12,-202.33 511.86,-193.13 510.23,-203.6 517.12,-202.33"/>
</g>
<!-- Node24&#45;&gt;Node13 -->
<g id="edge44" class="edge">
<title>Node24&#45;&gt;Node13</title>
<path fill="none" stroke="midnightblue" d="M373.01,-168.47C413.2,-157.99 467.42,-143.84 504.65,-134.12"/>
<polygon fill="midnightblue" stroke="midnightblue" points="505.88,-137.42 514.67,-131.51 504.11,-130.64 505.88,-137.42"/>
</g>
</g>
</svg>
