<?xml version="1.0" encoding="UTF-8" standalone="no"?>
<!DOCTYPE svg PUBLIC "-//W3C//DTD SVG 1.1//EN"
 "http://www.w3.org/Graphics/SVG/1.1/DTD/svg11.dtd">
<!-- Generated by graphviz version 2.43.0 (0)
 -->
<!-- Title: src/main.cpp Pages: 1 -->
<svg width="2827pt" height="330pt"
 viewBox="0.00 0.00 2826.50 330.00" xmlns="http://www.w3.org/2000/svg" xmlns:xlink="http://www.w3.org/1999/xlink">
<g id="graph0" class="graph" transform="scale(1 1) rotate(0) translate(4 326)">
<title>src/main.cpp</title>
<!-- Node1 -->
<g id="node1" class="node">
<title>Node1</title>
<g id="a_node1"><a xlink:title=" ">
<polygon fill="#bfbfbf" stroke="black" points="2022.5,-302.5 2022.5,-321.5 2101.5,-321.5 2101.5,-302.5 2022.5,-302.5"/>
<text text-anchor="middle" x="2062" y="-309.5" font-family="Helvetica,sans-Serif" font-size="10.00">src/main.cpp</text>
</a>
</g>
</g>
<!-- Node2 -->
<g id="node2" class="node">
<title>Node2</title>
<g id="a_node2"><a xlink:title=" ">
<polygon fill="none" stroke="#bfbfbf" points="1498.5,-241 1498.5,-260 1545.5,-260 1545.5,-241 1498.5,-241"/>
<text text-anchor="middle" x="1522" y="-248" font-family="Helvetica,sans-Serif" font-size="10.00">omp.h</text>
</a>
</g>
</g>
<!-- Node1&#45;&gt;Node2 -->
<g id="edge1" class="edge">
<title>Node1&#45;&gt;Node2</title>
<path fill="none" stroke="midnightblue" d="M2022.37,-311.12C1936.79,-310.58 1728.81,-304.99 1560,-266 1557,-265.31 1553.92,-264.43 1550.88,-263.45"/>
<polygon fill="midnightblue" stroke="midnightblue" points="1552,-260.14 1541.4,-260.08 1549.65,-266.73 1552,-260.14"/>
</g>
<!-- Node3 -->
<g id="node3" class="node">
<title>Node3</title>
<g id="a_node3"><a xlink:title=" ">
<polygon fill="none" stroke="#bfbfbf" points="2016.5,-0.5 2016.5,-19.5 2063.5,-19.5 2063.5,-0.5 2016.5,-0.5"/>
<text text-anchor="middle" x="2040" y="-7.5" font-family="Helvetica,sans-Serif" font-size="10.00">cmath</text>
</a>
</g>
</g>
<!-- Node1&#45;&gt;Node3 -->
<g id="edge2" class="edge">
<title>Node1&#45;&gt;Node3</title>
<path fill="none" stroke="midnightblue" d="M2022.23,-309.29C1922.09,-304.65 1665.35,-290.46 1636,-266 1606.99,-241.82 1612,-222.26 1612,-184.5 1612,-184.5 1612,-184.5 1612,-121 1612,-90.2 1611.61,-74.81 1636,-56 1699.29,-7.2 1909.98,-32.97 2006.26,-19.6"/>
<polygon fill="midnightblue" stroke="midnightblue" points="2007,-23.02 2016.32,-17.98 2005.89,-16.11 2007,-23.02"/>
</g>
<!-- Node4 -->
<g id="node4" class="node">
<title>Node4</title>
<g id="a_node4"><a xlink:title=" ">
<polygon fill="none" stroke="#bfbfbf" points="2685,-241 2685,-260 2741,-260 2741,-241 2685,-241"/>
<text text-anchor="middle" x="2713" y="-248" font-family="Helvetica,sans-Serif" font-size="10.00">iomanip</text>
</a>
</g>
</g>
<!-- Node1&#45;&gt;Node4 -->
<g id="edge3" class="edge">
<title>Node1&#45;&gt;Node4</title>
<path fill="none" stroke="midnightblue" d="M2101.67,-311.59C2199.5,-312.28 2459.69,-309.52 2671,-266 2674.51,-265.28 2678.12,-264.34 2681.69,-263.29"/>
<polygon fill="midnightblue" stroke="midnightblue" points="2683.06,-266.53 2691.5,-260.12 2680.91,-259.87 2683.06,-266.53"/>
</g>
<!-- Node5 -->
<g id="node5" class="node">
<title>Node5</title>
<g id="a_node5"><a xlink:title=" ">
<polygon fill="none" stroke="#bfbfbf" points="2082,-0.5 2082,-19.5 2142,-19.5 2142,-0.5 2082,-0.5"/>
<text text-anchor="middle" x="2112" y="-7.5" font-family="Helvetica,sans-Serif" font-size="10.00">iostream</text>
</a>
</g>
</g>
<!-- Node1&#45;&gt;Node5 -->
<g id="edge4" class="edge">
<title>Node1&#45;&gt;Node5</title>
<path fill="none" stroke="midnightblue" d="M2022.25,-309.81C1941.64,-306.78 1762.17,-296.69 1710,-266 1671.23,-243.2 1650,-229.48 1650,-184.5 1650,-184.5 1650,-184.5 1650,-121 1650,-118.3 1959.29,-46.38 2071.75,-20.32"/>
<polygon fill="midnightblue" stroke="midnightblue" points="2072.73,-23.68 2081.69,-18.01 2071.15,-16.86 2072.73,-23.68"/>
</g>
<!-- Node6 -->
<g id="node6" class="node">
<title>Node6</title>
<g id="a_node6"><a xlink:title=" ">
<polygon fill="none" stroke="#bfbfbf" points="2360.5,-0.5 2360.5,-19.5 2417.5,-19.5 2417.5,-0.5 2360.5,-0.5"/>
<text text-anchor="middle" x="2389" y="-7.5" font-family="Helvetica,sans-Serif" font-size="10.00">ostream</text>
</a>
</g>
</g>
<!-- Node1&#45;&gt;Node6 -->
<g id="edge5" class="edge">
<title>Node1&#45;&gt;Node6</title>
<path fill="none" stroke="midnightblue" d="M2101.65,-310.7C2220.3,-309.41 2566.41,-302.52 2600,-266 2681.53,-177.36 2488.13,-62.94 2415.33,-24.36"/>
<polygon fill="midnightblue" stroke="midnightblue" points="2416.77,-21.17 2406.29,-19.64 2413.53,-27.37 2416.77,-21.17"/>
</g>
<!-- Node7 -->
<g id="node7" class="node">
<title>Node7</title>
<g id="a_node7"><a xlink:title=" ">
<polygon fill="none" stroke="#bfbfbf" points="2530.5,-0.5 2530.5,-19.5 2577.5,-19.5 2577.5,-0.5 2530.5,-0.5"/>
<text text-anchor="middle" x="2554" y="-7.5" font-family="Helvetica,sans-Serif" font-size="10.00">vector</text>
</a>
</g>
</g>
<!-- Node1&#45;&gt;Node7 -->
<g id="edge6" class="edge">
<title>Node1&#45;&gt;Node7</title>
<path fill="none" stroke="midnightblue" d="M2101.79,-310.15C2222.68,-307.25 2579.96,-296.18 2622,-266 2654.02,-243.01 2657,-223.92 2657,-184.5 2657,-184.5 2657,-184.5 2657,-121 2657,-76.43 2611.38,-42.46 2580.86,-24.73"/>
<polygon fill="midnightblue" stroke="midnightblue" points="2582.38,-21.57 2571.94,-19.75 2578.97,-27.68 2582.38,-21.57"/>
</g>
<!-- Node8 -->
<g id="node8" class="node">
<title>Node8</title>
<g id="a_node8"><a xlink:href="csv_8hpp.html" target="_top" xlink:title="Defines functionality needed for basic CSV parsing.">
<polygon fill="none" stroke="black" points="1120.5,-56.5 1120.5,-75.5 1229.5,-75.5 1229.5,-56.5 1120.5,-56.5"/>
<text text-anchor="middle" x="1175" y="-63.5" font-family="Helvetica,sans-Serif" font-size="10.00">csv_parser/csv.hpp</text>
</a>
</g>
</g>
<!-- Node1&#45;&gt;Node8 -->
<g id="edge7" class="edge">
<title>Node1&#45;&gt;Node8</title>
<path fill="none" stroke="midnightblue" d="M2022.28,-309.75C1924.7,-306.27 1675.49,-294.75 1598,-266 1575.57,-257.68 1574.81,-246.79 1554,-235 1431.6,-165.65 1275.16,-104.26 1208.02,-79.1"/>
<polygon fill="midnightblue" stroke="midnightblue" points="1209,-75.73 1198.4,-75.52 1206.55,-82.29 1209,-75.73"/>
</g>
<!-- Node37 -->
<g id="node37" class="node">
<title>Node37</title>
<g id="a_node37"><a xlink:href="definitions_8hpp.html" target="_top" xlink:title=" ">
<polygon fill="none" stroke="black" points="2106,-56.5 2106,-75.5 2270,-75.5 2270,-56.5 2106,-56.5"/>
<text text-anchor="middle" x="2188" y="-63.5" font-family="Helvetica,sans-Serif" font-size="10.00">nmbuflowtorch/definitions.hpp</text>
</a>
</g>
</g>
<!-- Node1&#45;&gt;Node37 -->
<g id="edge40" class="edge">
<title>Node1&#45;&gt;Node37</title>
<path fill="none" stroke="midnightblue" d="M2063.24,-302.27C2065.51,-287.83 2071.01,-258.24 2081,-235 2106.64,-175.37 2152.2,-112.88 2174.69,-83.77"/>
<polygon fill="midnightblue" stroke="midnightblue" points="2177.72,-85.57 2181.12,-75.53 2172.2,-81.26 2177.72,-85.57"/>
</g>
<!-- Node40 -->
<g id="node40" class="node">
<title>Node40</title>
<g id="a_node40"><a xlink:href="layer_8hpp.html" target="_top" xlink:title=" ">
<polygon fill="none" stroke="black" points="2248.5,-174 2248.5,-193 2385.5,-193 2385.5,-174 2248.5,-174"/>
<text text-anchor="middle" x="2317" y="-181" font-family="Helvetica,sans-Serif" font-size="10.00">nmbuflowtorch/layer.hpp</text>
</a>
</g>
</g>
<!-- Node1&#45;&gt;Node40 -->
<g id="edge48" class="edge">
<title>Node1&#45;&gt;Node40</title>
<path fill="none" stroke="midnightblue" d="M2101.75,-311.68C2180.18,-312.09 2350.43,-307.99 2387,-266 2407.69,-242.24 2370.61,-214.36 2342.98,-198.13"/>
<polygon fill="midnightblue" stroke="midnightblue" points="2344.5,-194.97 2334.07,-193.1 2341.05,-201.06 2344.5,-194.97"/>
</g>
<!-- Node41 -->
<g id="node41" class="node">
<title>Node41</title>
<g id="a_node41"><a xlink:href="optimizer_8hpp.html" target="_top" xlink:title=" ">
<polygon fill="none" stroke="black" points="1908.5,-112.5 1908.5,-131.5 1997.5,-131.5 1997.5,-112.5 1908.5,-112.5"/>
<text text-anchor="middle" x="1953" y="-119.5" font-family="Helvetica,sans-Serif" font-size="10.00">./optimizer.hpp</text>
</a>
</g>
</g>
<!-- Node1&#45;&gt;Node41 -->
<g id="edge75" class="edge">
<title>Node1&#45;&gt;Node41</title>
<path fill="none" stroke="midnightblue" d="M2022.4,-310.35C1945.41,-308.33 1779.22,-300.03 1735,-266 1709.42,-246.32 1713.35,-230.64 1707,-199 1704.29,-185.49 1698.18,-178.58 1707,-168 1730.85,-139.39 1833.23,-128.92 1898.16,-125.12"/>
<polygon fill="midnightblue" stroke="midnightblue" points="1898.45,-128.61 1908.24,-124.57 1898.07,-121.62 1898.45,-128.61"/>
</g>
<!-- Node42 -->
<g id="node42" class="node">
<title>Node42</title>
<g id="a_node42"><a xlink:href="dense_8hpp.html" target="_top" xlink:title=" ">
<polygon fill="none" stroke="black" points="2473.5,-235.5 2473.5,-265.5 2590.5,-265.5 2590.5,-235.5 2473.5,-235.5"/>
<text text-anchor="start" x="2481.5" y="-253.5" font-family="Helvetica,sans-Serif" font-size="10.00">nmbuflowtorch/layer</text>
<text text-anchor="middle" x="2532" y="-242.5" font-family="Helvetica,sans-Serif" font-size="10.00">/dense.hpp</text>
</a>
</g>
</g>
<!-- Node1&#45;&gt;Node42 -->
<g id="edge54" class="edge">
<title>Node1&#45;&gt;Node42</title>
<path fill="none" stroke="midnightblue" d="M2101.59,-307.61C2173.17,-301.24 2328.78,-286.28 2459,-266 2460.29,-265.8 2461.6,-265.59 2462.91,-265.38"/>
<polygon fill="midnightblue" stroke="midnightblue" points="2463.84,-268.77 2473.11,-263.63 2462.66,-261.87 2463.84,-268.77"/>
</g>
<!-- Node43 -->
<g id="node43" class="node">
<title>Node43</title>
<g id="a_node43"><a xlink:href="math__m_8hpp.html" target="_top" xlink:title=" ">
<polygon fill="none" stroke="red" points="2403.5,-174 2403.5,-193 2490.5,-193 2490.5,-174 2403.5,-174"/>
<text text-anchor="middle" x="2447" y="-181" font-family="Helvetica,sans-Serif" font-size="10.00">../math_m.hpp</text>
</a>
</g>
</g>
<!-- Node1&#45;&gt;Node43 -->
<g id="edge68" class="edge">
<title>Node1&#45;&gt;Node43</title>
<path fill="none" stroke="midnightblue" d="M2101.76,-310.32C2181.37,-308.24 2356.85,-299.85 2405,-266 2426.23,-251.08 2437.45,-222.12 2442.8,-203.04"/>
<polygon fill="midnightblue" stroke="midnightblue" points="2446.25,-203.69 2445.31,-193.14 2439.46,-201.97 2446.25,-203.69"/>
</g>
<!-- Node45 -->
<g id="node44" class="node">
<title>Node45</title>
<g id="a_node44"><a xlink:href="sigmoid_8hpp.html" target="_top" xlink:title=" ">
<polygon fill="none" stroke="black" points="2261.5,-235.5 2261.5,-265.5 2378.5,-265.5 2378.5,-235.5 2261.5,-235.5"/>
<text text-anchor="start" x="2269.5" y="-253.5" font-family="Helvetica,sans-Serif" font-size="10.00">nmbuflowtorch/layer</text>
<text text-anchor="middle" x="2320" y="-242.5" font-family="Helvetica,sans-Serif" font-size="10.00">/sigmoid.hpp</text>
</a>
</g>
</g>
<!-- Node1&#45;&gt;Node45 -->
<g id="edge60" class="edge">
<title>Node1&#45;&gt;Node45</title>
<path fill="none" stroke="midnightblue" d="M2098.97,-302.48C2138.59,-293.34 2202.4,-278.62 2251.29,-267.35"/>
<polygon fill="midnightblue" stroke="midnightblue" points="2252.22,-270.72 2261.17,-265.07 2250.64,-263.9 2252.22,-270.72"/>
</g>
<!-- Node46 -->
<g id="node45" class="node">
<title>Node46</title>
<g id="a_node45"><a xlink:href="loss_8hpp.html" target="_top" xlink:title=" ">
<polygon fill="none" stroke="black" points="1873.5,-174 1873.5,-193 2006.5,-193 2006.5,-174 1873.5,-174"/>
<text text-anchor="middle" x="1940" y="-181" font-family="Helvetica,sans-Serif" font-size="10.00">nmbuflowtorch/loss.hpp</text>
</a>
</g>
</g>
<!-- Node1&#45;&gt;Node46 -->
<g id="edge62" class="edge">
<title>Node1&#45;&gt;Node46</title>
<path fill="none" stroke="midnightblue" d="M2056.67,-302.44C2047.29,-287.73 2026.74,-257.11 2005,-235 1991.73,-221.5 1974.8,-208.46 1961.54,-199.01"/>
<polygon fill="midnightblue" stroke="midnightblue" points="1963.24,-195.93 1953.04,-193.08 1959.24,-201.67 1963.24,-195.93"/>
</g>
<!-- Node47 -->
<g id="node46" class="node">
<title>Node47</title>
<g id="a_node46"><a xlink:href="cross__entropy_8hpp.html" target="_top" xlink:title=" ">
<polygon fill="none" stroke="black" points="1754,-235.5 1754,-265.5 1866,-265.5 1866,-235.5 1754,-235.5"/>
<text text-anchor="start" x="1762" y="-253.5" font-family="Helvetica,sans-Serif" font-size="10.00">nmbuflowtorch/loss</text>
<text text-anchor="middle" x="1810" y="-242.5" font-family="Helvetica,sans-Serif" font-size="10.00">/cross_entropy.hpp</text>
</a>
</g>
</g>
<!-- Node1&#45;&gt;Node47 -->
<g id="edge64" class="edge">
<title>Node1&#45;&gt;Node47</title>
<path fill="none" stroke="midnightblue" d="M2025.89,-302.48C1986.89,-293.27 1923.9,-278.39 1876,-267.08"/>
<polygon fill="midnightblue" stroke="midnightblue" points="1876.56,-263.62 1866.02,-264.73 1874.95,-270.43 1876.56,-263.62"/>
</g>
<!-- Node48 -->
<g id="node47" class="node">
<title>Node48</title>
<g id="a_node47"><a xlink:href="mse_8hpp.html" target="_top" xlink:title=" ">
<polygon fill="none" stroke="black" points="1884,-235.5 1884,-265.5 1996,-265.5 1996,-235.5 1884,-235.5"/>
<text text-anchor="start" x="1892" y="-253.5" font-family="Helvetica,sans-Serif" font-size="10.00">nmbuflowtorch/loss</text>
<text text-anchor="middle" x="1940" y="-242.5" font-family="Helvetica,sans-Serif" font-size="10.00">/mse.hpp</text>
</a>
</g>
</g>
<!-- Node1&#45;&gt;Node48 -->
<g id="edge66" class="edge">
<title>Node1&#45;&gt;Node48</title>
<path fill="none" stroke="midnightblue" d="M2044.52,-302.48C2027.23,-294.04 2000.19,-280.86 1977.95,-270.01"/>
<polygon fill="midnightblue" stroke="midnightblue" points="1979.28,-266.76 1968.75,-265.52 1976.21,-273.05 1979.28,-266.76"/>
</g>
<!-- Node49 -->
<g id="node48" class="node">
<title>Node49</title>
<g id="a_node48"><a xlink:href="network_8hpp.html" target="_top" xlink:title="Network class representing a sequence of layers. This class implements a network consisting of a sequ...">
<polygon fill="none" stroke="red" points="2090.5,-241 2090.5,-260 2243.5,-260 2243.5,-241 2090.5,-241"/>
<text text-anchor="middle" x="2167" y="-248" font-family="Helvetica,sans-Serif" font-size="10.00">nmbuflowtorch/network.hpp</text>
</a>
</g>
</g>
<!-- Node1&#45;&gt;Node49 -->
<g id="edge69" class="edge">
<title>Node1&#45;&gt;Node49</title>
<path fill="none" stroke="midnightblue" d="M2077.04,-302.48C2094.28,-292.71 2122.74,-276.58 2143.03,-265.08"/>
<polygon fill="midnightblue" stroke="midnightblue" points="2145.01,-267.98 2151.98,-260.01 2141.56,-261.89 2145.01,-267.98"/>
</g>
<!-- Node51 -->
<g id="node49" class="node">
<title>Node51</title>
<g id="a_node49"><a xlink:href="sgd_8hpp.html" target="_top" xlink:title=" ">
<polygon fill="none" stroke="black" points="1716.5,-168.5 1716.5,-198.5 1855.5,-198.5 1855.5,-168.5 1716.5,-168.5"/>
<text text-anchor="start" x="1724.5" y="-186.5" font-family="Helvetica,sans-Serif" font-size="10.00">nmbuflowtorch/optimizer</text>
<text text-anchor="middle" x="1786" y="-175.5" font-family="Helvetica,sans-Serif" font-size="10.00">/sgd.hpp</text>
</a>
</g>
</g>
<!-- Node1&#45;&gt;Node51 -->
<g id="edge76" class="edge">
<title>Node1&#45;&gt;Node51</title>
<path fill="none" stroke="midnightblue" d="M2022.34,-311.52C1945.44,-311.6 1780.48,-306.88 1745,-266 1729.6,-248.26 1745.8,-223.73 1762.16,-206.22"/>
<polygon fill="midnightblue" stroke="midnightblue" points="1765.03,-208.3 1769.57,-198.72 1760.05,-203.37 1765.03,-208.3"/>
</g>
<!-- Node52 -->
<g id="node50" class="node">
<title>Node52</title>
<g id="a_node50"><a xlink:title=" ">
<polygon fill="none" stroke="#bfbfbf" points="2759.5,-241 2759.5,-260 2818.5,-260 2818.5,-241 2759.5,-241"/>
<text text-anchor="middle" x="2789" y="-248" font-family="Helvetica,sans-Serif" font-size="10.00">complex</text>
</a>
</g>
</g>
<!-- Node1&#45;&gt;Node52 -->
<g id="edge78" class="edge">
<title>Node1&#45;&gt;Node52</title>
<path fill="none" stroke="midnightblue" d="M2101.81,-309.91C2229.06,-306.2 2624.9,-292.75 2750,-266 2753.25,-265.31 2756.59,-264.39 2759.88,-263.36"/>
<polygon fill="midnightblue" stroke="midnightblue" points="2761.2,-266.61 2769.49,-260.02 2758.9,-260 2761.2,-266.61"/>
</g>
<!-- Node8&#45;&gt;Node3 -->
<g id="edge29" class="edge">
<title>Node8&#45;&gt;Node3</title>
<path fill="none" stroke="midnightblue" d="M1229.69,-63.56C1386.73,-59.18 1837.96,-44.89 2006.38,-19.66"/>
<polygon fill="midnightblue" stroke="midnightblue" points="2007,-23.1 2016.34,-18.1 2005.92,-16.19 2007,-23.1"/>
</g>
<!-- Node8&#45;&gt;Node5 -->
<g id="edge36" class="edge">
<title>Node8&#45;&gt;Node5</title>
<path fill="none" stroke="midnightblue" d="M1229.68,-63.49C1398.16,-58.62 1907.85,-42.42 2072,-20 2072.1,-19.99 2072.2,-19.97 2072.3,-19.96"/>
<polygon fill="midnightblue" stroke="midnightblue" points="2072.68,-23.44 2081.96,-18.34 2071.52,-16.54 2072.68,-23.44"/>
</g>
<!-- Node8&#45;&gt;Node6 -->
<g id="edge33" class="edge">
<title>Node8&#45;&gt;Node6</title>
<path fill="none" stroke="midnightblue" d="M1229.76,-64.32C1428.25,-61.62 2110.39,-50.42 2350.41,-19.72"/>
<polygon fill="midnightblue" stroke="midnightblue" points="2351.03,-23.17 2360.48,-18.38 2350.1,-16.23 2351.03,-23.17"/>
</g>
<!-- Node8&#45;&gt;Node7 -->
<g id="edge17" class="edge">
<title>Node8&#45;&gt;Node7</title>
<path fill="none" stroke="midnightblue" d="M1229.65,-64.87C1446.28,-64.09 2245.83,-58.68 2520.41,-19.62"/>
<polygon fill="midnightblue" stroke="midnightblue" points="2520.97,-23.08 2530.35,-18.16 2519.95,-16.15 2520.97,-23.08"/>
</g>
<!-- Node9 -->
<g id="node9" class="node">
<title>Node9</title>
<g id="a_node9"><a xlink:title=" ">
<polygon fill="none" stroke="#bfbfbf" points="476,-0.5 476,-19.5 540,-19.5 540,-0.5 476,-0.5"/>
<text text-anchor="middle" x="508" y="-7.5" font-family="Helvetica,sans-Serif" font-size="10.00">algorithm</text>
</a>
</g>
</g>
<!-- Node8&#45;&gt;Node9 -->
<g id="edge8" class="edge">
<title>Node8&#45;&gt;Node9</title>
<path fill="none" stroke="midnightblue" d="M1120.29,-63.72C1012.78,-60.63 766.35,-50.7 550.1,-19.95"/>
<polygon fill="midnightblue" stroke="midnightblue" points="550.55,-16.48 540.15,-18.52 549.55,-23.41 550.55,-16.48"/>
</g>
<!-- Node10 -->
<g id="node10" class="node">
<title>Node10</title>
<g id="a_node10"><a xlink:title=" ">
<polygon fill="none" stroke="#bfbfbf" points="558.5,-0.5 558.5,-19.5 605.5,-19.5 605.5,-0.5 558.5,-0.5"/>
<text text-anchor="middle" x="582" y="-7.5" font-family="Helvetica,sans-Serif" font-size="10.00">deque</text>
</a>
</g>
</g>
<!-- Node8&#45;&gt;Node10 -->
<g id="edge9" class="edge">
<title>Node8&#45;&gt;Node10</title>
<path fill="none" stroke="midnightblue" d="M1120.4,-64.13C1021.29,-61.79 805.25,-53.18 615.52,-19.96"/>
<polygon fill="midnightblue" stroke="midnightblue" points="616.1,-16.51 605.65,-18.2 614.88,-23.4 616.1,-16.51"/>
</g>
<!-- Node11 -->
<g id="node11" class="node">
<title>Node11</title>
<g id="a_node11"><a xlink:title=" ">
<polygon fill="none" stroke="#bfbfbf" points="623.5,-0.5 623.5,-19.5 678.5,-19.5 678.5,-0.5 623.5,-0.5"/>
<text text-anchor="middle" x="651" y="-7.5" font-family="Helvetica,sans-Serif" font-size="10.00">fstream</text>
</a>
</g>
</g>
<!-- Node8&#45;&gt;Node11 -->
<g id="edge10" class="edge">
<title>Node8&#45;&gt;Node11</title>
<path fill="none" stroke="midnightblue" d="M1120.49,-62.7C1031.79,-58.36 850.64,-47.01 688.95,-20.11"/>
<polygon fill="midnightblue" stroke="midnightblue" points="689.26,-16.62 678.82,-18.4 688.1,-23.52 689.26,-16.62"/>
</g>
<!-- Node12 -->
<g id="node12" class="node">
<title>Node12</title>
<g id="a_node12"><a xlink:title=" ">
<polygon fill="none" stroke="#bfbfbf" points="696.5,-0.5 696.5,-19.5 749.5,-19.5 749.5,-0.5 696.5,-0.5"/>
<text text-anchor="middle" x="723" y="-7.5" font-family="Helvetica,sans-Serif" font-size="10.00">iterator</text>
</a>
</g>
</g>
<!-- Node8&#45;&gt;Node12 -->
<g id="edge11" class="edge">
<title>Node8&#45;&gt;Node12</title>
<path fill="none" stroke="midnightblue" d="M1120.48,-61.5C1042.62,-55.97 894.98,-43.54 759.77,-19.89"/>
<polygon fill="midnightblue" stroke="midnightblue" points="760.11,-16.4 749.65,-18.09 758.88,-23.29 760.11,-16.4"/>
</g>
<!-- Node13 -->
<g id="node13" class="node">
<title>Node13</title>
<g id="a_node13"><a xlink:title=" ">
<polygon fill="none" stroke="#bfbfbf" points="768,-0.5 768,-19.5 826,-19.5 826,-0.5 768,-0.5"/>
<text text-anchor="middle" x="797" y="-7.5" font-family="Helvetica,sans-Serif" font-size="10.00">memory</text>
</a>
</g>
</g>
<!-- Node8&#45;&gt;Node13 -->
<g id="edge12" class="edge">
<title>Node8&#45;&gt;Node13</title>
<path fill="none" stroke="midnightblue" d="M1120.26,-59.48C1054.89,-52.5 942.08,-39.24 836.28,-20.08"/>
<polygon fill="midnightblue" stroke="midnightblue" points="836.86,-16.63 826.4,-18.27 835.6,-23.52 836.86,-16.63"/>
</g>
<!-- Node14 -->
<g id="node14" class="node">
<title>Node14</title>
<g id="a_node14"><a xlink:title=" ">
<polygon fill="none" stroke="#bfbfbf" points="844,-0.5 844,-19.5 892,-19.5 892,-0.5 844,-0.5"/>
<text text-anchor="middle" x="868" y="-7.5" font-family="Helvetica,sans-Serif" font-size="10.00">mutex</text>
</a>
</g>
</g>
<!-- Node8&#45;&gt;Node14 -->
<g id="edge13" class="edge">
<title>Node8&#45;&gt;Node14</title>
<path fill="none" stroke="midnightblue" d="M1120.36,-57.73C1067,-50.24 983.33,-37.49 901.99,-20.03"/>
<polygon fill="midnightblue" stroke="midnightblue" points="902.59,-16.58 892.08,-17.88 901.11,-23.42 902.59,-16.58"/>
</g>
<!-- Node15 -->
<g id="node15" class="node">
<title>Node15</title>
<g id="a_node15"><a xlink:title=" ">
<polygon fill="none" stroke="#bfbfbf" points="910,-0.5 910,-19.5 958,-19.5 958,-0.5 910,-0.5"/>
<text text-anchor="middle" x="934" y="-7.5" font-family="Helvetica,sans-Serif" font-size="10.00">thread</text>
</a>
</g>
</g>
<!-- Node8&#45;&gt;Node15 -->
<g id="edge14" class="edge">
<title>Node8&#45;&gt;Node15</title>
<path fill="none" stroke="midnightblue" d="M1132.22,-56.44C1092.21,-48.28 1030.55,-35.3 968.13,-20.18"/>
<polygon fill="midnightblue" stroke="midnightblue" points="968.66,-16.71 958.11,-17.74 967,-23.51 968.66,-16.71"/>
</g>
<!-- Node16 -->
<g id="node16" class="node">
<title>Node16</title>
<g id="a_node16"><a xlink:title=" ">
<polygon fill="none" stroke="#bfbfbf" points="976,-0.5 976,-19.5 1032,-19.5 1032,-0.5 976,-0.5"/>
<text text-anchor="middle" x="1004" y="-7.5" font-family="Helvetica,sans-Serif" font-size="10.00">sstream</text>
</a>
</g>
</g>
<!-- Node8&#45;&gt;Node16 -->
<g id="edge15" class="edge">
<title>Node8&#45;&gt;Node16</title>
<path fill="none" stroke="midnightblue" d="M1147.9,-56.44C1119.01,-47.32 1073.08,-32.81 1040.89,-22.65"/>
<polygon fill="midnightblue" stroke="midnightblue" points="1041.56,-19.19 1030.97,-19.52 1039.45,-25.87 1041.56,-19.19"/>
</g>
<!-- Node17 -->
<g id="node17" class="node">
<title>Node17</title>
<g id="a_node17"><a xlink:title=" ">
<polygon fill="none" stroke="#bfbfbf" points="2298,-0.5 2298,-19.5 2342,-19.5 2342,-0.5 2298,-0.5"/>
<text text-anchor="middle" x="2320" y="-7.5" font-family="Helvetica,sans-Serif" font-size="10.00">string</text>
</a>
</g>
</g>
<!-- Node8&#45;&gt;Node17 -->
<g id="edge16" class="edge">
<title>Node8&#45;&gt;Node17</title>
<path fill="none" stroke="midnightblue" d="M1229.58,-64.54C1420.96,-62.67 2061.68,-54.07 2287.67,-19.75"/>
<polygon fill="midnightblue" stroke="midnightblue" points="2288.47,-23.16 2297.8,-18.14 2287.37,-16.25 2288.47,-23.16"/>
</g>
<!-- Node18 -->
<g id="node18" class="node">
<title>Node18</title>
<g id="a_node18"><a xlink:title=" ">
<polygon fill="none" stroke="#bfbfbf" points="2160,-0.5 2160,-19.5 2216,-19.5 2216,-0.5 2160,-0.5"/>
<text text-anchor="middle" x="2188" y="-7.5" font-family="Helvetica,sans-Serif" font-size="10.00">unistd.h</text>
</a>
</g>
</g>
<!-- Node8&#45;&gt;Node18 -->
<g id="edge18" class="edge">
<title>Node8&#45;&gt;Node18</title>
<path fill="none" stroke="midnightblue" d="M1229.74,-63.86C1405.01,-60.01 1951.89,-46.27 2149.82,-19.84"/>
<polygon fill="midnightblue" stroke="midnightblue" points="2150.4,-23.29 2159.83,-18.44 2149.44,-16.36 2150.4,-23.29"/>
</g>
<!-- Node19 -->
<g id="node19" class="node">
<title>Node19</title>
<g id="a_node19"><a xlink:title=" ">
<polygon fill="none" stroke="#bfbfbf" points="1050.5,-0.5 1050.5,-19.5 1131.5,-19.5 1131.5,-0.5 1050.5,-0.5"/>
<text text-anchor="middle" x="1091" y="-7.5" font-family="Helvetica,sans-Serif" font-size="10.00">system_error</text>
</a>
</g>
</g>
<!-- Node8&#45;&gt;Node19 -->
<g id="edge19" class="edge">
<title>Node8&#45;&gt;Node19</title>
<path fill="none" stroke="midnightblue" d="M1161.5,-56.32C1148.4,-47.9 1128.29,-34.97 1112.89,-25.07"/>
<polygon fill="midnightblue" stroke="midnightblue" points="1114.77,-22.12 1104.46,-19.65 1110.98,-28.01 1114.77,-22.12"/>
</g>
<!-- Node20 -->
<g id="node20" class="node">
<title>Node20</title>
<g id="a_node20"><a xlink:title=" ">
<polygon fill="none" stroke="#bfbfbf" points="1150,-0.5 1150,-19.5 1200,-19.5 1200,-0.5 1150,-0.5"/>
<text text-anchor="middle" x="1175" y="-7.5" font-family="Helvetica,sans-Serif" font-size="10.00">cstdint</text>
</a>
</g>
</g>
<!-- Node8&#45;&gt;Node20 -->
<g id="edge20" class="edge">
<title>Node8&#45;&gt;Node20</title>
<path fill="none" stroke="midnightblue" d="M1175,-56.08C1175,-49.01 1175,-38.86 1175,-29.99"/>
<polygon fill="midnightblue" stroke="midnightblue" points="1178.5,-29.75 1175,-19.75 1171.5,-29.75 1178.5,-29.75"/>
</g>
<!-- Node21 -->
<g id="node21" class="node">
<title>Node21</title>
<g id="a_node21"><a xlink:title=" ">
<polygon fill="none" stroke="#bfbfbf" points="1218.5,-0.5 1218.5,-19.5 1287.5,-19.5 1287.5,-0.5 1218.5,-0.5"/>
<text text-anchor="middle" x="1253" y="-7.5" font-family="Helvetica,sans-Serif" font-size="10.00">type_traits</text>
</a>
</g>
</g>
<!-- Node8&#45;&gt;Node21 -->
<g id="edge21" class="edge">
<title>Node8&#45;&gt;Node21</title>
<path fill="none" stroke="midnightblue" d="M1187.53,-56.32C1199.59,-47.98 1218.03,-35.21 1232.27,-25.35"/>
<polygon fill="midnightblue" stroke="midnightblue" points="1234.27,-28.22 1240.5,-19.65 1230.28,-22.47 1234.27,-28.22"/>
</g>
<!-- Node22 -->
<g id="node22" class="node">
<title>Node22</title>
<g id="a_node22"><a xlink:title=" ">
<polygon fill="none" stroke="#bfbfbf" points="1305.5,-0.5 1305.5,-19.5 1352.5,-19.5 1352.5,-0.5 1305.5,-0.5"/>
<text text-anchor="middle" x="1329" y="-7.5" font-family="Helvetica,sans-Serif" font-size="10.00">fcntl.h</text>
</a>
</g>
</g>
<!-- Node8&#45;&gt;Node22 -->
<g id="edge22" class="edge">
<title>Node8&#45;&gt;Node22</title>
<path fill="none" stroke="midnightblue" d="M1199.4,-56.44C1225.42,-47.32 1266.8,-32.81 1295.78,-22.65"/>
<polygon fill="midnightblue" stroke="midnightblue" points="1297.19,-25.86 1305.47,-19.25 1294.88,-19.26 1297.19,-25.86"/>
</g>
<!-- Node23 -->
<g id="node23" class="node">
<title>Node23</title>
<g id="a_node23"><a xlink:title=" ">
<polygon fill="none" stroke="#bfbfbf" points="1370.5,-0.5 1370.5,-19.5 1447.5,-19.5 1447.5,-0.5 1370.5,-0.5"/>
<text text-anchor="middle" x="1409" y="-7.5" font-family="Helvetica,sans-Serif" font-size="10.00">sys/mman.h</text>
</a>
</g>
</g>
<!-- Node8&#45;&gt;Node23 -->
<g id="edge23" class="edge">
<title>Node8&#45;&gt;Node23</title>
<path fill="none" stroke="midnightblue" d="M1212.08,-56.44C1252.73,-47.06 1318.03,-31.99 1362.18,-21.8"/>
<polygon fill="midnightblue" stroke="midnightblue" points="1363.14,-25.18 1372.1,-19.52 1361.56,-18.35 1363.14,-25.18"/>
</g>
<!-- Node24 -->
<g id="node24" class="node">
<title>Node24</title>
<g id="a_node24"><a xlink:title=" ">
<polygon fill="none" stroke="#bfbfbf" points="1466,-0.5 1466,-19.5 1530,-19.5 1530,-0.5 1466,-0.5"/>
<text text-anchor="middle" x="1498" y="-7.5" font-family="Helvetica,sans-Serif" font-size="10.00">sys/stat.h</text>
</a>
</g>
</g>
<!-- Node8&#45;&gt;Node24 -->
<g id="edge24" class="edge">
<title>Node8&#45;&gt;Node24</title>
<path fill="none" stroke="midnightblue" d="M1229.54,-57.13C1286.26,-48.74 1377.57,-34.67 1456,-20 1456.1,-19.98 1456.2,-19.96 1456.3,-19.94"/>
<polygon fill="midnightblue" stroke="midnightblue" points="1456.79,-23.41 1465.93,-18.05 1455.44,-16.55 1456.79,-23.41"/>
</g>
<!-- Node25 -->
<g id="node25" class="node">
<title>Node25</title>
<g id="a_node25"><a xlink:title=" ">
<polygon fill="none" stroke="#bfbfbf" points="1548,-0.5 1548,-19.5 1590,-19.5 1590,-0.5 1548,-0.5"/>
<text text-anchor="middle" x="1569" y="-7.5" font-family="Helvetica,sans-Serif" font-size="10.00">array</text>
</a>
</g>
</g>
<!-- Node8&#45;&gt;Node25 -->
<g id="edge25" class="edge">
<title>Node8&#45;&gt;Node25</title>
<path fill="none" stroke="midnightblue" d="M1229.74,-61.12C1299.35,-55.55 1423.3,-43.5 1537.82,-19.93"/>
<polygon fill="midnightblue" stroke="midnightblue" points="1538.74,-23.31 1547.81,-17.84 1537.3,-16.46 1538.74,-23.31"/>
</g>
<!-- Node26 -->
<g id="node26" class="node">
<title>Node26</title>
<g id="a_node26"><a xlink:title=" ">
<polygon fill="none" stroke="#bfbfbf" points="1608.5,-0.5 1608.5,-19.5 1715.5,-19.5 1715.5,-0.5 1608.5,-0.5"/>
<text text-anchor="middle" x="1662" y="-7.5" font-family="Helvetica,sans-Serif" font-size="10.00">condition_variable</text>
</a>
</g>
</g>
<!-- Node8&#45;&gt;Node26 -->
<g id="edge26" class="edge">
<title>Node8&#45;&gt;Node26</title>
<path fill="none" stroke="midnightblue" d="M1229.62,-59.84C1308.55,-52.24 1459.31,-37.2 1598.41,-20.03"/>
<polygon fill="midnightblue" stroke="midnightblue" points="1598.91,-23.5 1608.4,-18.79 1598.05,-16.55 1598.91,-23.5"/>
</g>
<!-- Node27 -->
<g id="node27" class="node">
<title>Node27</title>
<g id="a_node27"><a xlink:title=" ">
<polygon fill="none" stroke="#bfbfbf" points="1905.5,-0.5 1905.5,-19.5 1998.5,-19.5 1998.5,-0.5 1905.5,-0.5"/>
<text text-anchor="middle" x="1952" y="-7.5" font-family="Helvetica,sans-Serif" font-size="10.00">unordered_map</text>
</a>
</g>
</g>
<!-- Node8&#45;&gt;Node27 -->
<g id="edge27" class="edge">
<title>Node8&#45;&gt;Node27</title>
<path fill="none" stroke="midnightblue" d="M1229.88,-63.39C1349.02,-59.51 1640.45,-47.88 1895.11,-19.98"/>
<polygon fill="midnightblue" stroke="midnightblue" points="1895.74,-23.43 1905.3,-18.85 1894.97,-16.47 1895.74,-23.43"/>
</g>
<!-- Node28 -->
<g id="node28" class="node">
<title>Node28</title>
<g id="a_node28"><a xlink:title=" ">
<polygon fill="none" stroke="#bfbfbf" points="1734,-0.5 1734,-19.5 1820,-19.5 1820,-0.5 1734,-0.5"/>
<text text-anchor="middle" x="1777" y="-7.5" font-family="Helvetica,sans-Serif" font-size="10.00">unordered_set</text>
</a>
</g>
</g>
<!-- Node8&#45;&gt;Node28 -->
<g id="edge28" class="edge">
<title>Node8&#45;&gt;Node28</title>
<path fill="none" stroke="midnightblue" d="M1229.71,-62.09C1328.63,-56.47 1543.72,-42.65 1724,-20 1724.1,-19.99 1724.2,-19.97 1724.3,-19.96"/>
<polygon fill="midnightblue" stroke="midnightblue" points="1724.52,-23.47 1733.95,-18.63 1723.56,-16.53 1724.52,-23.47"/>
</g>
<!-- Node29 -->
<g id="node29" class="node">
<title>Node29</title>
<g id="a_node29"><a xlink:title=" ">
<polygon fill="none" stroke="#bfbfbf" points="1838.5,-0.5 1838.5,-19.5 1887.5,-19.5 1887.5,-0.5 1838.5,-0.5"/>
<text text-anchor="middle" x="1863" y="-7.5" font-family="Helvetica,sans-Serif" font-size="10.00">cstdlib</text>
</a>
</g>
</g>
<!-- Node8&#45;&gt;Node29 -->
<g id="edge30" class="edge">
<title>Node8&#45;&gt;Node29</title>
<path fill="none" stroke="midnightblue" d="M1229.67,-64.74C1340.82,-63.44 1601.14,-56.57 1828.13,-19.8"/>
<polygon fill="midnightblue" stroke="midnightblue" points="1828.94,-23.21 1838.24,-18.14 1827.8,-16.31 1828.94,-23.21"/>
</g>
<!-- Node30 -->
<g id="node30" class="node">
<title>Node30</title>
<g id="a_node30"><a xlink:title=" ">
<polygon fill="none" stroke="#bfbfbf" points="0,-0.5 0,-19.5 52,-19.5 52,-0.5 0,-0.5"/>
<text text-anchor="middle" x="26" y="-7.5" font-family="Helvetica,sans-Serif" font-size="10.00">cassert</text>
</a>
</g>
</g>
<!-- Node8&#45;&gt;Node30 -->
<g id="edge31" class="edge">
<title>Node8&#45;&gt;Node30</title>
<path fill="none" stroke="midnightblue" d="M1120.45,-64.32C929.19,-61.71 288.81,-50.93 62.39,-19.83"/>
<polygon fill="midnightblue" stroke="midnightblue" points="62.65,-16.33 52.25,-18.38 61.66,-23.26 62.65,-16.33"/>
</g>
<!-- Node31 -->
<g id="node31" class="node">
<title>Node31</title>
<g id="a_node31"><a xlink:title=" ">
<polygon fill="none" stroke="#bfbfbf" points="70,-0.5 70,-19.5 114,-19.5 114,-0.5 70,-0.5"/>
<text text-anchor="middle" x="92" y="-7.5" font-family="Helvetica,sans-Serif" font-size="10.00">limits</text>
</a>
</g>
</g>
<!-- Node8&#45;&gt;Node31 -->
<g id="edge32" class="edge">
<title>Node8&#45;&gt;Node31</title>
<path fill="none" stroke="midnightblue" d="M1120.24,-64.39C935.84,-62.07 337.53,-52.29 124.36,-19.75"/>
<polygon fill="midnightblue" stroke="midnightblue" points="124.63,-16.25 114.2,-18.14 123.53,-23.17 124.63,-16.25"/>
</g>
<!-- Node32 -->
<g id="node32" class="node">
<title>Node32</title>
<g id="a_node32"><a xlink:title=" ">
<polygon fill="none" stroke="#bfbfbf" points="132.5,-0.5 132.5,-19.5 197.5,-19.5 197.5,-0.5 132.5,-0.5"/>
<text text-anchor="middle" x="165" y="-7.5" font-family="Helvetica,sans-Serif" font-size="10.00">stdexcept</text>
</a>
</g>
</g>
<!-- Node8&#45;&gt;Node32 -->
<g id="edge34" class="edge">
<title>Node8&#45;&gt;Node32</title>
<path fill="none" stroke="midnightblue" d="M1120.34,-65.7C973.78,-66.88 559.8,-65.67 207.72,-20"/>
<polygon fill="midnightblue" stroke="midnightblue" points="207.96,-16.51 197.59,-18.68 207.05,-23.45 207.96,-16.51"/>
</g>
<!-- Node33 -->
<g id="node33" class="node">
<title>Node33</title>
<g id="a_node33"><a xlink:title=" ">
<polygon fill="none" stroke="#bfbfbf" points="215.5,-0.5 215.5,-19.5 264.5,-19.5 264.5,-0.5 215.5,-0.5"/>
<text text-anchor="middle" x="240" y="-7.5" font-family="Helvetica,sans-Serif" font-size="10.00">cctype</text>
</a>
</g>
</g>
<!-- Node8&#45;&gt;Node33 -->
<g id="edge35" class="edge">
<title>Node8&#45;&gt;Node33</title>
<path fill="none" stroke="midnightblue" d="M1120.27,-63.82C954.16,-60.01 456.55,-46.74 274.71,-19.9"/>
<polygon fill="midnightblue" stroke="midnightblue" points="275.16,-16.43 264.74,-18.36 274.09,-23.35 275.16,-16.43"/>
</g>
<!-- Node34 -->
<g id="node34" class="node">
<title>Node34</title>
<g id="a_node34"><a xlink:title=" ">
<polygon fill="none" stroke="#bfbfbf" points="282.5,-0.5 282.5,-19.5 323.5,-19.5 323.5,-0.5 282.5,-0.5"/>
<text text-anchor="middle" x="303" y="-7.5" font-family="Helvetica,sans-Serif" font-size="10.00">tuple</text>
</a>
</g>
</g>
<!-- Node8&#45;&gt;Node34 -->
<g id="edge37" class="edge">
<title>Node8&#45;&gt;Node34</title>
<path fill="none" stroke="midnightblue" d="M1120.49,-63.78C962.28,-59.98 504.09,-47.05 333.59,-19.56"/>
<polygon fill="midnightblue" stroke="midnightblue" points="333.95,-16.07 323.5,-17.85 332.78,-22.97 333.95,-16.07"/>
</g>
<!-- Node35 -->
<g id="node35" class="node">
<title>Node35</title>
<g id="a_node35"><a xlink:title=" ">
<polygon fill="none" stroke="#bfbfbf" points="342,-0.5 342,-19.5 374,-19.5 374,-0.5 342,-0.5"/>
<text text-anchor="middle" x="358" y="-7.5" font-family="Helvetica,sans-Serif" font-size="10.00">set</text>
</a>
</g>
</g>
<!-- Node8&#45;&gt;Node35 -->
<g id="edge38" class="edge">
<title>Node8&#45;&gt;Node35</title>
<path fill="none" stroke="midnightblue" d="M1120.37,-63.94C968.62,-60.69 543.25,-49.34 384.29,-19.59"/>
<polygon fill="midnightblue" stroke="midnightblue" points="384.7,-16.1 374.21,-17.6 383.35,-22.97 384.7,-16.1"/>
</g>
<!-- Node36 -->
<g id="node36" class="node">
<title>Node36</title>
<g id="a_node36"><a xlink:title=" ">
<polygon fill="none" stroke="#bfbfbf" points="392.5,-0.5 392.5,-19.5 457.5,-19.5 457.5,-0.5 392.5,-0.5"/>
<text text-anchor="middle" x="425" y="-7.5" font-family="Helvetica,sans-Serif" font-size="10.00">functional</text>
</a>
</g>
</g>
<!-- Node8&#45;&gt;Node36 -->
<g id="edge39" class="edge">
<title>Node8&#45;&gt;Node36</title>
<path fill="none" stroke="midnightblue" d="M1120.09,-64.26C1002.3,-62.09 716.54,-53.64 467.88,-19.9"/>
<polygon fill="midnightblue" stroke="midnightblue" points="468.32,-16.43 457.93,-18.54 467.36,-23.37 468.32,-16.43"/>
</g>
<!-- Node37&#45;&gt;Node3 -->
<g id="edge43" class="edge">
<title>Node37&#45;&gt;Node3</title>
<path fill="none" stroke="midnightblue" d="M2164.55,-56.44C2139.87,-47.44 2100.81,-33.19 2073.02,-23.05"/>
<polygon fill="midnightblue" stroke="midnightblue" points="2073.94,-19.66 2063.34,-19.52 2071.54,-26.23 2073.94,-19.66"/>
</g>
<!-- Node37&#45;&gt;Node5 -->
<g id="edge45" class="edge">
<title>Node37&#45;&gt;Node5</title>
<path fill="none" stroke="midnightblue" d="M2175.79,-56.32C2164.22,-48.11 2146.62,-35.6 2132.84,-25.81"/>
<polygon fill="midnightblue" stroke="midnightblue" points="2134.61,-22.77 2124.43,-19.83 2130.56,-28.48 2134.61,-22.77"/>
</g>
<!-- Node37&#45;&gt;Node7 -->
<g id="edge47" class="edge">
<title>Node37&#45;&gt;Node7</title>
<path fill="none" stroke="midnightblue" d="M2270.27,-56.94C2335.6,-49.83 2429.37,-38.07 2520.36,-19.88"/>
<polygon fill="midnightblue" stroke="midnightblue" points="2521.19,-23.28 2530.3,-17.87 2519.8,-16.42 2521.19,-23.28"/>
</g>
<!-- Node37&#45;&gt;Node17 -->
<g id="edge46" class="edge">
<title>Node37&#45;&gt;Node17</title>
<path fill="none" stroke="midnightblue" d="M2208.92,-56.44C2230.74,-47.52 2265.15,-33.44 2289.89,-23.32"/>
<polygon fill="midnightblue" stroke="midnightblue" points="2291.25,-26.54 2299.18,-19.52 2288.6,-20.06 2291.25,-26.54"/>
</g>
<!-- Node37&#45;&gt;Node18 -->
<g id="edge41" class="edge">
<title>Node37&#45;&gt;Node18</title>
<path fill="none" stroke="midnightblue" d="M2188,-56.08C2188,-49.01 2188,-38.86 2188,-29.99"/>
<polygon fill="midnightblue" stroke="midnightblue" points="2191.5,-29.75 2188,-19.75 2184.5,-29.75 2191.5,-29.75"/>
</g>
<!-- Node38 -->
<g id="node38" class="node">
<title>Node38</title>
<g id="a_node38"><a xlink:title=" ">
<polygon fill="none" stroke="#bfbfbf" points="2435.5,-0.5 2435.5,-19.5 2512.5,-19.5 2512.5,-0.5 2435.5,-0.5"/>
<text text-anchor="middle" x="2474" y="-7.5" font-family="Helvetica,sans-Serif" font-size="10.00">Eigen/Dense</text>
</a>
</g>
</g>
<!-- Node37&#45;&gt;Node38 -->
<g id="edge42" class="edge">
<title>Node37&#45;&gt;Node38</title>
<path fill="none" stroke="midnightblue" d="M2233.32,-56.44C2285.7,-46.55 2371.58,-30.34 2425.34,-20.19"/>
<polygon fill="midnightblue" stroke="midnightblue" points="2426.14,-23.6 2435.31,-18.3 2424.84,-16.72 2426.14,-23.6"/>
</g>
<!-- Node39 -->
<g id="node39" class="node">
<title>Node39</title>
<g id="a_node39"><a xlink:title=" ">
<polygon fill="none" stroke="#bfbfbf" points="2234,-0.5 2234,-19.5 2280,-19.5 2280,-0.5 2234,-0.5"/>
<text text-anchor="middle" x="2257" y="-7.5" font-family="Helvetica,sans-Serif" font-size="10.00">cstdio</text>
</a>
</g>
</g>
<!-- Node37&#45;&gt;Node39 -->
<g id="edge44" class="edge">
<title>Node37&#45;&gt;Node39</title>
<path fill="none" stroke="midnightblue" d="M2199.09,-56.32C2209.49,-48.18 2225.26,-35.84 2237.72,-26.09"/>
<polygon fill="midnightblue" stroke="midnightblue" points="2239.99,-28.75 2245.71,-19.83 2235.68,-23.24 2239.99,-28.75"/>
</g>
<!-- Node40&#45;&gt;Node7 -->
<g id="edge49" class="edge">
<title>Node40&#45;&gt;Node7</title>
<path fill="none" stroke="midnightblue" d="M2328.75,-174C2366.66,-146.57 2486,-60.21 2533.85,-25.58"/>
<polygon fill="midnightblue" stroke="midnightblue" points="2536.13,-28.25 2542.18,-19.56 2532.02,-22.58 2536.13,-28.25"/>
</g>
<!-- Node40&#45;&gt;Node37 -->
<g id="edge50" class="edge">
<title>Node40&#45;&gt;Node37</title>
<path fill="none" stroke="midnightblue" d="M2307.3,-173.82C2285.64,-154.42 2233.05,-107.33 2205.49,-82.66"/>
<polygon fill="midnightblue" stroke="midnightblue" points="2207.59,-79.84 2197.81,-75.78 2202.92,-85.06 2207.59,-79.84"/>
</g>
<!-- Node40&#45;&gt;Node41 -->
<g id="edge51" class="edge">
<title>Node40&#45;&gt;Node41</title>
<path fill="none" stroke="midnightblue" d="M2264.85,-173.98C2196.46,-162.8 2077.03,-143.27 2007.5,-131.91"/>
<polygon fill="midnightblue" stroke="midnightblue" points="2008.05,-128.45 1997.61,-130.29 2006.92,-135.36 2008.05,-128.45"/>
</g>
<!-- Node41&#45;&gt;Node27 -->
<g id="edge52" class="edge">
<title>Node41&#45;&gt;Node27</title>
<path fill="none" stroke="midnightblue" d="M1952.92,-112.37C1952.76,-94.62 1952.39,-53.67 1952.17,-29.6"/>
<polygon fill="midnightblue" stroke="midnightblue" points="1955.67,-29.56 1952.08,-19.59 1948.67,-29.62 1955.67,-29.56"/>
</g>
<!-- Node41&#45;&gt;Node37 -->
<g id="edge53" class="edge">
<title>Node41&#45;&gt;Node37</title>
<path fill="none" stroke="midnightblue" d="M1990.24,-112.44C2031.06,-103.06 2096.64,-87.99 2140.98,-77.8"/>
<polygon fill="midnightblue" stroke="midnightblue" points="2141.98,-81.17 2150.94,-75.52 2140.41,-74.34 2141.98,-81.17"/>
</g>
<!-- Node42&#45;&gt;Node7 -->
<g id="edge56" class="edge">
<title>Node42&#45;&gt;Node7</title>
<path fill="none" stroke="midnightblue" d="M2533.31,-235.29C2537.08,-194.43 2547.95,-76.55 2552.24,-30.12"/>
<polygon fill="midnightblue" stroke="midnightblue" points="2555.74,-30.22 2553.17,-19.95 2548.77,-29.58 2555.74,-30.22"/>
</g>
<!-- Node42&#45;&gt;Node17 -->
<g id="edge55" class="edge">
<title>Node42&#45;&gt;Node17</title>
<path fill="none" stroke="midnightblue" d="M2528.42,-235.25C2523.65,-218.15 2514.03,-189.15 2499,-168 2454.19,-104.94 2379.24,-50.18 2342.16,-25.28"/>
<polygon fill="midnightblue" stroke="midnightblue" points="2343.86,-22.21 2333.59,-19.61 2340,-28.04 2343.86,-22.21"/>
</g>
<!-- Node42&#45;&gt;Node40 -->
<g id="edge57" class="edge">
<title>Node42&#45;&gt;Node40</title>
<path fill="none" stroke="midnightblue" d="M2485.61,-235.48C2446.57,-223.67 2391.43,-207 2354.97,-195.98"/>
<polygon fill="midnightblue" stroke="midnightblue" points="2355.8,-192.57 2345.21,-193.03 2353.77,-199.27 2355.8,-192.57"/>
</g>
<!-- Node42&#45;&gt;Node43 -->
<g id="edge58" class="edge">
<title>Node42&#45;&gt;Node43</title>
<path fill="none" stroke="midnightblue" d="M2513.56,-235.4C2499.65,-224.76 2480.61,-210.2 2466.46,-199.38"/>
<polygon fill="midnightblue" stroke="midnightblue" points="2468.44,-196.49 2458.37,-193.19 2464.19,-202.05 2468.44,-196.49"/>
</g>
<!-- Node43&#45;&gt;Node37 -->
<g id="edge59" class="edge">
<title>Node43&#45;&gt;Node37</title>
<path fill="none" stroke="midnightblue" d="M2427.53,-173.82C2382.24,-153.62 2269.6,-103.39 2216.53,-79.72"/>
<polygon fill="midnightblue" stroke="midnightblue" points="2217.9,-76.5 2207.34,-75.62 2215.05,-82.89 2217.9,-76.5"/>
</g>
<!-- Node45&#45;&gt;Node40 -->
<g id="edge61" class="edge">
<title>Node45&#45;&gt;Node40</title>
<path fill="none" stroke="midnightblue" d="M2319.35,-235.4C2318.91,-225.96 2318.34,-213.45 2317.86,-203.19"/>
<polygon fill="midnightblue" stroke="midnightblue" points="2321.36,-203.02 2317.4,-193.19 2314.37,-203.35 2321.36,-203.02"/>
</g>
<!-- Node46&#45;&gt;Node37 -->
<g id="edge63" class="edge">
<title>Node46&#45;&gt;Node37</title>
<path fill="none" stroke="midnightblue" d="M1952.74,-173.79C1974.03,-159.52 2018.5,-130.83 2059,-112 2088.05,-98.49 2122.36,-86.71 2148.29,-78.59"/>
<polygon fill="midnightblue" stroke="midnightblue" points="2149.61,-81.85 2158.14,-75.56 2147.55,-75.16 2149.61,-81.85"/>
</g>
<!-- Node47&#45;&gt;Node46 -->
<g id="edge65" class="edge">
<title>Node47&#45;&gt;Node46</title>
<path fill="none" stroke="midnightblue" d="M1838.21,-235.4C1860.72,-224.14 1892,-208.5 1913.92,-197.54"/>
<polygon fill="midnightblue" stroke="midnightblue" points="1915.61,-200.61 1922.99,-193.01 1912.48,-194.35 1915.61,-200.61"/>
</g>
<!-- Node48&#45;&gt;Node46 -->
<g id="edge67" class="edge">
<title>Node48&#45;&gt;Node46</title>
<path fill="none" stroke="midnightblue" d="M1940,-235.4C1940,-226.06 1940,-213.71 1940,-203.52"/>
<polygon fill="midnightblue" stroke="midnightblue" points="1943.5,-203.19 1940,-193.19 1936.5,-203.19 1943.5,-203.19"/>
</g>
<!-- Node49&#45;&gt;Node7 -->
<g id="edge70" class="edge">
<title>Node49&#45;&gt;Node7</title>
<path fill="none" stroke="midnightblue" d="M2172.87,-240.91C2184.14,-224.9 2210.28,-190.12 2239,-168 2330.98,-97.15 2459.95,-44.98 2520.33,-22.8"/>
<polygon fill="midnightblue" stroke="midnightblue" points="2521.9,-25.95 2530.1,-19.25 2519.51,-19.37 2521.9,-25.95"/>
</g>
<!-- Node49&#45;&gt;Node37 -->
<g id="edge71" class="edge">
<title>Node49&#45;&gt;Node37</title>
<path fill="none" stroke="midnightblue" d="M2168.01,-240.7C2171.25,-212.57 2181.39,-124.46 2185.85,-85.66"/>
<polygon fill="midnightblue" stroke="midnightblue" points="2189.33,-86.05 2187,-75.71 2182.38,-85.25 2189.33,-86.05"/>
</g>
<!-- Node49&#45;&gt;Node40 -->
<g id="edge72" class="edge">
<title>Node49&#45;&gt;Node40</title>
<path fill="none" stroke="midnightblue" d="M2186.92,-240.87C2212.69,-229.7 2257.82,-210.15 2287.55,-197.26"/>
<polygon fill="midnightblue" stroke="midnightblue" points="2289.21,-200.35 2297,-193.17 2286.43,-193.93 2289.21,-200.35"/>
</g>
<!-- Node49&#45;&gt;Node41 -->
<g id="edge74" class="edge">
<title>Node49&#45;&gt;Node41</title>
<path fill="none" stroke="midnightblue" d="M2152.29,-240.81C2115.7,-219.18 2020.37,-162.82 1976.15,-136.68"/>
<polygon fill="midnightblue" stroke="midnightblue" points="1977.92,-133.66 1967.53,-131.59 1974.36,-139.69 1977.92,-133.66"/>
</g>
<!-- Node49&#45;&gt;Node46 -->
<g id="edge73" class="edge">
<title>Node49&#45;&gt;Node46</title>
<path fill="none" stroke="midnightblue" d="M2136.86,-240.87C2096.38,-229.28 2024.38,-208.66 1979.58,-195.83"/>
<polygon fill="midnightblue" stroke="midnightblue" points="1980.48,-192.45 1969.91,-193.06 1978.56,-199.18 1980.48,-192.45"/>
</g>
<!-- Node51&#45;&gt;Node41 -->
<g id="edge77" class="edge">
<title>Node51&#45;&gt;Node41</title>
<path fill="none" stroke="midnightblue" d="M1825.58,-168.4C1854.1,-158.24 1892.17,-144.67 1919.26,-135.02"/>
<polygon fill="midnightblue" stroke="midnightblue" points="1920.45,-138.31 1928.7,-131.66 1918.11,-131.72 1920.45,-138.31"/>
</g>
</g>
</svg>
