<?xml version="1.0" encoding="UTF-8" standalone="no"?>
<!DOCTYPE svg PUBLIC "-//W3C//DTD SVG 1.1//EN"
 "http://www.w3.org/Graphics/SVG/1.1/DTD/svg11.dtd">
<!-- Generated by graphviz version 2.43.0 (0)
 -->
<!-- Title: include/nmbuflowtorch/math_m.hpp Pages: 1 -->
<svg width="691pt" height="173pt"
 viewBox="0.00 0.00 690.50 173.00" xmlns="http://www.w3.org/2000/svg" xmlns:xlink="http://www.w3.org/1999/xlink">
<g id="graph0" class="graph" transform="scale(1 1) rotate(0) translate(4 169)">
<title>include/nmbuflowtorch/math_m.hpp</title>
<!-- Node1 -->
<g id="node1" class="node">
<title>Node1</title>
<g id="a_node1"><a xlink:title=" ">
<polygon fill="#bfbfbf" stroke="black" points="366.5,-134.5 366.5,-164.5 494.5,-164.5 494.5,-134.5 366.5,-134.5"/>
<text text-anchor="start" x="374.5" y="-152.5" font-family="Helvetica,sans-Serif" font-size="10.00">include/nmbuflowtorch</text>
<text text-anchor="middle" x="430.5" y="-141.5" font-family="Helvetica,sans-Serif" font-size="10.00">/math_m.hpp</text>
</a>
</g>
</g>
<!-- Node2 -->
<g id="node2" class="node">
<title>Node2</title>
<g id="a_node2"><a xlink:href="dense_8hpp.html" target="_top" xlink:title=" ">
<polygon fill="none" stroke="black" points="250.5,-67.5 250.5,-97.5 378.5,-97.5 378.5,-67.5 250.5,-67.5"/>
<text text-anchor="start" x="258.5" y="-85.5" font-family="Helvetica,sans-Serif" font-size="10.00">include/nmbuflowtorch</text>
<text text-anchor="middle" x="314.5" y="-74.5" font-family="Helvetica,sans-Serif" font-size="10.00">/layer/dense.hpp</text>
</a>
</g>
</g>
<!-- Node1&#45;&gt;Node2 -->
<g id="edge1" class="edge">
<title>Node1&#45;&gt;Node2</title>
<path fill="none" stroke="midnightblue" d="M396.23,-129.3C378.08,-119.12 356.18,-106.85 339.62,-97.58"/>
<polygon fill="midnightblue" stroke="midnightblue" points="394.9,-132.56 405.33,-134.4 398.32,-126.45 394.9,-132.56"/>
</g>
<!-- Node4 -->
<g id="node4" class="node">
<title>Node4</title>
<g id="a_node4"><a xlink:href="src_2main_8cpp.html" target="_top" xlink:title=" ">
<polygon fill="none" stroke="black" points="0,-6 0,-25 79,-25 79,-6 0,-6"/>
<text text-anchor="middle" x="39.5" y="-13" font-family="Helvetica,sans-Serif" font-size="10.00">src/main.cpp</text>
</a>
</g>
</g>
<!-- Node1&#45;&gt;Node4 -->
<g id="edge7" class="edge">
<title>Node1&#45;&gt;Node4</title>
<path fill="none" stroke="midnightblue" d="M360.47,-131.96C324.58,-122.94 280.37,-110.98 241.5,-98 172.81,-75.06 93.85,-40.84 58.43,-25.05"/>
<polygon fill="midnightblue" stroke="midnightblue" points="359.81,-135.41 370.36,-134.43 361.5,-128.61 359.81,-135.41"/>
</g>
<!-- Node5 -->
<g id="node5" class="node">
<title>Node5</title>
<g id="a_node5"><a xlink:href="main__multithread_8cpp.html" target="_top" xlink:title=" ">
<polygon fill="none" stroke="black" points="373,-6 373,-25 514,-25 514,-6 373,-6"/>
<text text-anchor="middle" x="443.5" y="-13" font-family="Helvetica,sans-Serif" font-size="10.00">src/main_multithread.cpp</text>
</a>
</g>
</g>
<!-- Node1&#45;&gt;Node5 -->
<g id="edge8" class="edge">
<title>Node1&#45;&gt;Node5</title>
<path fill="none" stroke="midnightblue" d="M432.88,-124.32C435.83,-94.38 440.7,-44.91 442.65,-25.1"/>
<polygon fill="midnightblue" stroke="midnightblue" points="429.39,-124.08 431.89,-134.37 436.35,-124.76 429.39,-124.08"/>
</g>
<!-- Node6 -->
<g id="node6" class="node">
<title>Node6</title>
<g id="a_node6"><a xlink:href="main__single__thread_8cpp.html" target="_top" xlink:title=" ">
<polygon fill="none" stroke="black" points="532.5,-6 532.5,-25 682.5,-25 682.5,-6 532.5,-6"/>
<text text-anchor="middle" x="607.5" y="-13" font-family="Helvetica,sans-Serif" font-size="10.00">src/main_single_thread.cpp</text>
</a>
</g>
</g>
<!-- Node1&#45;&gt;Node6 -->
<g id="edge9" class="edge">
<title>Node1&#45;&gt;Node6</title>
<path fill="none" stroke="midnightblue" d="M442.17,-125.05C452.11,-107.11 467.89,-82.84 487.5,-67 513.08,-46.34 548.35,-32.85 574.03,-25.05"/>
<polygon fill="midnightblue" stroke="midnightblue" points="438.87,-123.8 437.26,-134.27 445.05,-127.09 438.87,-123.8"/>
</g>
<!-- Node8 -->
<g id="node8" class="node">
<title>Node8</title>
<g id="a_node8"><a xlink:href="network_8cpp.html" target="_top" xlink:title=" ">
<polygon fill="none" stroke="black" points="496.5,-73 496.5,-92 666.5,-92 666.5,-73 496.5,-73"/>
<text text-anchor="middle" x="581.5" y="-80" font-family="Helvetica,sans-Serif" font-size="10.00">src/nmbuflowtorch/network.cpp</text>
</a>
</g>
</g>
<!-- Node1&#45;&gt;Node8 -->
<g id="edge10" class="edge">
<title>Node1&#45;&gt;Node8</title>
<path fill="none" stroke="midnightblue" d="M472.79,-130.3C501.91,-117.76 539.26,-101.68 561.74,-92.01"/>
<polygon fill="midnightblue" stroke="midnightblue" points="471.07,-127.23 463.26,-134.4 473.83,-133.66 471.07,-127.23"/>
</g>
<!-- Node3 -->
<g id="node3" class="node">
<title>Node3</title>
<g id="a_node3"><a xlink:href="main_01copy_8cpp.html" target="_top" xlink:title=" ">
<polygon fill="none" stroke="black" points="250.5,-6 250.5,-25 354.5,-25 354.5,-6 250.5,-6"/>
<text text-anchor="middle" x="302.5" y="-13" font-family="Helvetica,sans-Serif" font-size="10.00">src/main copy.cpp</text>
</a>
</g>
</g>
<!-- Node2&#45;&gt;Node3 -->
<g id="edge2" class="edge">
<title>Node2&#45;&gt;Node3</title>
<path fill="none" stroke="midnightblue" d="M310.02,-57.25C307.95,-46.02 305.62,-33.38 304.11,-25.19"/>
<polygon fill="midnightblue" stroke="midnightblue" points="306.64,-58.2 311.9,-67.4 313.52,-56.93 306.64,-58.2"/>
</g>
<!-- Node2&#45;&gt;Node4 -->
<g id="edge3" class="edge">
<title>Node2&#45;&gt;Node4</title>
<path fill="none" stroke="midnightblue" d="M240.24,-66.44C195.74,-57.05 138.15,-44.27 87.5,-31 80.68,-29.21 73.37,-27.11 66.56,-25.06"/>
<polygon fill="midnightblue" stroke="midnightblue" points="239.6,-69.88 250.1,-68.51 241.04,-63.03 239.6,-69.88"/>
</g>
<!-- Node2&#45;&gt;Node5 -->
<g id="edge4" class="edge">
<title>Node2&#45;&gt;Node5</title>
<path fill="none" stroke="midnightblue" d="M351.61,-62.8C376.34,-50.34 407.67,-34.56 426.62,-25.01"/>
<polygon fill="midnightblue" stroke="midnightblue" points="349.85,-59.77 342.49,-67.4 353,-66.02 349.85,-59.77"/>
</g>
<!-- Node2&#45;&gt;Node6 -->
<g id="edge5" class="edge">
<title>Node2&#45;&gt;Node6</title>
<path fill="none" stroke="midnightblue" d="M387.49,-65.31C445.06,-52.54 523.06,-35.23 569.06,-25.03"/>
<polygon fill="midnightblue" stroke="midnightblue" points="386.72,-61.89 377.72,-67.48 388.24,-68.73 386.72,-61.89"/>
</g>
<!-- Node7 -->
<g id="node7" class="node">
<title>Node7</title>
<g id="a_node7"><a xlink:href="dense_8cpp.html" target="_top" xlink:title=" ">
<polygon fill="none" stroke="black" points="97,-0.5 97,-30.5 232,-30.5 232,-0.5 97,-0.5"/>
<text text-anchor="start" x="105" y="-18.5" font-family="Helvetica,sans-Serif" font-size="10.00">src/nmbuflowtorch/layer</text>
<text text-anchor="middle" x="164.5" y="-7.5" font-family="Helvetica,sans-Serif" font-size="10.00">/dense.cpp</text>
</a>
</g>
</g>
<!-- Node2&#45;&gt;Node7 -->
<g id="edge6" class="edge">
<title>Node2&#45;&gt;Node7</title>
<path fill="none" stroke="midnightblue" d="M272.75,-63.41C248.8,-53.03 219.18,-40.2 196.98,-30.58"/>
<polygon fill="midnightblue" stroke="midnightblue" points="271.39,-66.63 281.95,-67.4 274.17,-60.21 271.39,-66.63"/>
</g>
</g>
</svg>
