<?xml version="1.0" encoding="UTF-8" standalone="no"?>
<!DOCTYPE svg PUBLIC "-//W3C//DTD SVG 1.1//EN"
 "http://www.w3.org/Graphics/SVG/1.1/DTD/svg11.dtd">
<!-- Generated by graphviz version 2.43.0 (0)
 -->
<!-- Title: include/nmbuflowtorch/math_m.hpp Pages: 1 -->
<svg width="690pt" height="173pt"
 viewBox="0.00 0.00 689.50 173.00" xmlns="http://www.w3.org/2000/svg" xmlns:xlink="http://www.w3.org/1999/xlink">
<g id="graph0" class="graph" transform="scale(1 1) rotate(0) translate(4 169)">
<title>include/nmbuflowtorch/math_m.hpp</title>
<!-- Node1 -->
<g id="node1" class="node">
<title>Node1</title>
<g id="a_node1"><a xlink:title=" ">
<polygon fill="#bfbfbf" stroke="black" points="365.5,-134.5 365.5,-164.5 493.5,-164.5 493.5,-134.5 365.5,-134.5"/>
<text text-anchor="start" x="373.5" y="-152.5" font-family="Helvetica,sans-Serif" font-size="10.00">include/nmbuflowtorch</text>
<text text-anchor="middle" x="429.5" y="-141.5" font-family="Helvetica,sans-Serif" font-size="10.00">/math_m.hpp</text>
</a>
</g>
</g>
<!-- Node2 -->
<g id="node2" class="node">
<title>Node2</title>
<g id="a_node2"><a xlink:href="dense_8hpp.html" target="_top" xlink:title=" ">
<polygon fill="none" stroke="black" points="249.5,-67.5 249.5,-97.5 377.5,-97.5 377.5,-67.5 249.5,-67.5"/>
<text text-anchor="start" x="257.5" y="-85.5" font-family="Helvetica,sans-Serif" font-size="10.00">include/nmbuflowtorch</text>
<text text-anchor="middle" x="313.5" y="-74.5" font-family="Helvetica,sans-Serif" font-size="10.00">/layer/dense.hpp</text>
</a>
</g>
</g>
<!-- Node1&#45;&gt;Node2 -->
<g id="edge1" class="edge">
<title>Node1&#45;&gt;Node2</title>
<path fill="none" stroke="midnightblue" d="M395.23,-129.3C377.08,-119.12 355.18,-106.85 338.62,-97.58"/>
<polygon fill="midnightblue" stroke="midnightblue" points="393.9,-132.56 404.33,-134.4 397.32,-126.45 393.9,-132.56"/>
</g>
<!-- Node4 -->
<g id="node4" class="node">
<title>Node4</title>
<g id="a_node4"><a xlink:href="main_8cpp.html" target="_top" xlink:title=" ">
<polygon fill="none" stroke="black" points="0,-6 0,-25 79,-25 79,-6 0,-6"/>
<text text-anchor="middle" x="39.5" y="-13" font-family="Helvetica,sans-Serif" font-size="10.00">src/main.cpp</text>
</a>
</g>
</g>
<!-- Node1&#45;&gt;Node4 -->
<g id="edge7" class="edge">
<title>Node1&#45;&gt;Node4</title>
<path fill="none" stroke="midnightblue" d="M359.46,-131.99C323.57,-122.98 279.36,-111.01 240.5,-98 172.12,-75.1 93.57,-40.86 58.33,-25.05"/>
<polygon fill="midnightblue" stroke="midnightblue" points="358.8,-135.43 369.35,-134.45 360.49,-128.64 358.8,-135.43"/>
</g>
<!-- Node5 -->
<g id="node5" class="node">
<title>Node5</title>
<g id="a_node5"><a xlink:href="main__multithread_8cpp.html" target="_top" xlink:title=" ">
<polygon fill="none" stroke="black" points="372,-6 372,-25 513,-25 513,-6 372,-6"/>
<text text-anchor="middle" x="442.5" y="-13" font-family="Helvetica,sans-Serif" font-size="10.00">src/main_multithread.cpp</text>
</a>
</g>
</g>
<!-- Node1&#45;&gt;Node5 -->
<g id="edge8" class="edge">
<title>Node1&#45;&gt;Node5</title>
<path fill="none" stroke="midnightblue" d="M431.88,-124.32C434.83,-94.38 439.7,-44.91 441.65,-25.1"/>
<polygon fill="midnightblue" stroke="midnightblue" points="428.39,-124.08 430.89,-134.37 435.35,-124.76 428.39,-124.08"/>
</g>
<!-- Node6 -->
<g id="node6" class="node">
<title>Node6</title>
<g id="a_node6"><a xlink:href="main__single__thread_8cpp.html" target="_top" xlink:title=" ">
<polygon fill="none" stroke="black" points="531.5,-6 531.5,-25 681.5,-25 681.5,-6 531.5,-6"/>
<text text-anchor="middle" x="606.5" y="-13" font-family="Helvetica,sans-Serif" font-size="10.00">src/main_single_thread.cpp</text>
</a>
</g>
</g>
<!-- Node1&#45;&gt;Node6 -->
<g id="edge9" class="edge">
<title>Node1&#45;&gt;Node6</title>
<path fill="none" stroke="midnightblue" d="M441.17,-125.05C451.11,-107.11 466.89,-82.84 486.5,-67 512.08,-46.34 547.35,-32.85 573.03,-25.05"/>
<polygon fill="midnightblue" stroke="midnightblue" points="437.87,-123.8 436.26,-134.27 444.05,-127.09 437.87,-123.8"/>
</g>
<!-- Node8 -->
<g id="node8" class="node">
<title>Node8</title>
<g id="a_node8"><a xlink:href="network_8cpp.html" target="_top" xlink:title=" ">
<polygon fill="none" stroke="black" points="495.5,-73 495.5,-92 665.5,-92 665.5,-73 495.5,-73"/>
<text text-anchor="middle" x="580.5" y="-80" font-family="Helvetica,sans-Serif" font-size="10.00">src/nmbuflowtorch/network.cpp</text>
</a>
</g>
</g>
<!-- Node1&#45;&gt;Node8 -->
<g id="edge10" class="edge">
<title>Node1&#45;&gt;Node8</title>
<path fill="none" stroke="midnightblue" d="M471.79,-130.3C500.91,-117.76 538.26,-101.68 560.74,-92.01"/>
<polygon fill="midnightblue" stroke="midnightblue" points="470.07,-127.23 462.26,-134.4 472.83,-133.66 470.07,-127.23"/>
</g>
<!-- Node3 -->
<g id="node3" class="node">
<title>Node3</title>
<g id="a_node3"><a xlink:href="main_01copy_8cpp.html" target="_top" xlink:title=" ">
<polygon fill="none" stroke="black" points="249.5,-6 249.5,-25 353.5,-25 353.5,-6 249.5,-6"/>
<text text-anchor="middle" x="301.5" y="-13" font-family="Helvetica,sans-Serif" font-size="10.00">src/main copy.cpp</text>
</a>
</g>
</g>
<!-- Node2&#45;&gt;Node3 -->
<g id="edge2" class="edge">
<title>Node2&#45;&gt;Node3</title>
<path fill="none" stroke="midnightblue" d="M309.02,-57.25C306.95,-46.02 304.62,-33.38 303.11,-25.19"/>
<polygon fill="midnightblue" stroke="midnightblue" points="305.64,-58.2 310.9,-67.4 312.52,-56.93 305.64,-58.2"/>
</g>
<!-- Node2&#45;&gt;Node4 -->
<g id="edge3" class="edge">
<title>Node2&#45;&gt;Node4</title>
<path fill="none" stroke="midnightblue" d="M239.18,-66.13C195.19,-56.7 138.47,-43.98 88.5,-31 81.55,-29.19 74.09,-27.08 67.14,-25.03"/>
<polygon fill="midnightblue" stroke="midnightblue" points="238.71,-69.6 249.22,-68.27 240.17,-62.76 238.71,-69.6"/>
</g>
<!-- Node2&#45;&gt;Node5 -->
<g id="edge4" class="edge">
<title>Node2&#45;&gt;Node5</title>
<path fill="none" stroke="midnightblue" d="M350.61,-62.8C375.34,-50.34 406.67,-34.56 425.62,-25.01"/>
<polygon fill="midnightblue" stroke="midnightblue" points="348.85,-59.77 341.49,-67.4 352,-66.02 348.85,-59.77"/>
</g>
<!-- Node2&#45;&gt;Node6 -->
<g id="edge5" class="edge">
<title>Node2&#45;&gt;Node6</title>
<path fill="none" stroke="midnightblue" d="M386.49,-65.31C444.06,-52.54 522.06,-35.23 568.06,-25.03"/>
<polygon fill="midnightblue" stroke="midnightblue" points="385.72,-61.89 376.72,-67.48 387.24,-68.73 385.72,-61.89"/>
</g>
<!-- Node7 -->
<g id="node7" class="node">
<title>Node7</title>
<g id="a_node7"><a xlink:href="dense_8cpp.html" target="_top" xlink:title=" ">
<polygon fill="none" stroke="black" points="97.5,-0.5 97.5,-30.5 231.5,-30.5 231.5,-0.5 97.5,-0.5"/>
<text text-anchor="start" x="105.5" y="-18.5" font-family="Helvetica,sans-Serif" font-size="10.00">src/nmbuflowtorch/layer</text>
<text text-anchor="middle" x="164.5" y="-7.5" font-family="Helvetica,sans-Serif" font-size="10.00">/dense.cpp</text>
</a>
</g>
</g>
<!-- Node2&#45;&gt;Node7 -->
<g id="edge6" class="edge">
<title>Node2&#45;&gt;Node7</title>
<path fill="none" stroke="midnightblue" d="M271.71,-63.27C247.98,-52.92 218.72,-40.15 196.77,-30.58"/>
<polygon fill="midnightblue" stroke="midnightblue" points="270.6,-66.61 281.17,-67.4 273.4,-60.19 270.6,-66.61"/>
</g>
</g>
</svg>
