<?xml version="1.0" encoding="UTF-8" standalone="no"?>
<!DOCTYPE svg PUBLIC "-//W3C//DTD SVG 1.1//EN"
 "http://www.w3.org/Graphics/SVG/1.1/DTD/svg11.dtd">
<!-- Generated by graphviz version 2.43.0 (0)
 -->
<!-- Title: include/mnist/include/mnist/mnist_reader_common.hpp Pages: 1 -->
<svg width="324pt" height="173pt"
 viewBox="0.00 0.00 323.50 173.00" xmlns="http://www.w3.org/2000/svg" xmlns:xlink="http://www.w3.org/1999/xlink">
<g id="graph0" class="graph" transform="scale(1 1) rotate(0) translate(4 169)">
<title>include/mnist/include/mnist/mnist_reader_common.hpp</title>
<!-- Node1 -->
<g id="node1" class="node">
<title>Node1</title>
<g id="a_node1"><a xlink:title="Contains common functions to read the MNIST dataset.">
<polygon fill="#bfbfbf" stroke="black" points="59,-134.5 59,-164.5 243,-164.5 243,-134.5 59,-134.5"/>
<text text-anchor="start" x="67" y="-152.5" font-family="Helvetica,sans-Serif" font-size="10.00">include/mnist/include</text>
<text text-anchor="middle" x="151" y="-141.5" font-family="Helvetica,sans-Serif" font-size="10.00">/mnist/mnist_reader_common.hpp</text>
</a>
</g>
</g>
<!-- Node2 -->
<g id="node2" class="node">
<title>Node2</title>
<g id="a_node2"><a xlink:href="mnist__reader_8hpp.html" target="_top" xlink:title="Contains functions to read the MNIST dataset.">
<polygon fill="none" stroke="black" points="0,-67.5 0,-97.5 136,-97.5 136,-67.5 0,-67.5"/>
<text text-anchor="start" x="8" y="-85.5" font-family="Helvetica,sans-Serif" font-size="10.00">include/mnist/include</text>
<text text-anchor="middle" x="68" y="-74.5" font-family="Helvetica,sans-Serif" font-size="10.00">/mnist/mnist_reader.hpp</text>
</a>
</g>
</g>
<!-- Node1&#45;&gt;Node2 -->
<g id="edge1" class="edge">
<title>Node1&#45;&gt;Node2</title>
<path fill="none" stroke="midnightblue" d="M125.04,-128.17C112.35,-118.23 97.39,-106.51 85.97,-97.58"/>
<polygon fill="midnightblue" stroke="midnightblue" points="122.96,-130.99 132.99,-134.4 127.28,-125.47 122.96,-130.99"/>
</g>
<!-- Node4 -->
<g id="node4" class="node">
<title>Node4</title>
<g id="a_node4"><a xlink:href="mnist__reader__less_8hpp.html" target="_top" xlink:title="Contains functions to read the MNIST dataset (less features, Visual Studio friendly)">
<polygon fill="none" stroke="black" points="154.5,-67.5 154.5,-97.5 315.5,-97.5 315.5,-67.5 154.5,-67.5"/>
<text text-anchor="start" x="162.5" y="-85.5" font-family="Helvetica,sans-Serif" font-size="10.00">include/mnist/include</text>
<text text-anchor="middle" x="235" y="-74.5" font-family="Helvetica,sans-Serif" font-size="10.00">/mnist/mnist_reader_less.hpp</text>
</a>
</g>
</g>
<!-- Node1&#45;&gt;Node4 -->
<g id="edge3" class="edge">
<title>Node1&#45;&gt;Node4</title>
<path fill="none" stroke="midnightblue" d="M177.28,-128.17C190.12,-118.23 205.26,-106.51 216.81,-97.58"/>
<polygon fill="midnightblue" stroke="midnightblue" points="174.99,-125.51 169.23,-134.4 179.28,-131.04 174.99,-125.51"/>
</g>
<!-- Node3 -->
<g id="node3" class="node">
<title>Node3</title>
<g id="a_node3"><a xlink:href="include_2mnist_2example_2main_8cpp.html" target="_top" xlink:title=" ">
<polygon fill="none" stroke="black" points="4,-0.5 4,-30.5 132,-30.5 132,-0.5 4,-0.5"/>
<text text-anchor="start" x="12" y="-18.5" font-family="Helvetica,sans-Serif" font-size="10.00">include/mnist/example</text>
<text text-anchor="middle" x="68" y="-7.5" font-family="Helvetica,sans-Serif" font-size="10.00">/main.cpp</text>
</a>
</g>
</g>
<!-- Node2&#45;&gt;Node3 -->
<g id="edge2" class="edge">
<title>Node2&#45;&gt;Node3</title>
<path fill="none" stroke="midnightblue" d="M68,-57.11C68,-48.15 68,-38.32 68,-30.58"/>
<polygon fill="midnightblue" stroke="midnightblue" points="64.5,-57.4 68,-67.4 71.5,-57.4 64.5,-57.4"/>
</g>
</g>
</svg>
