<?xml version="1.0" encoding="UTF-8" standalone="no"?>
<!DOCTYPE svg PUBLIC "-//W3C//DTD SVG 1.1//EN"
 "http://www.w3.org/Graphics/SVG/1.1/DTD/svg11.dtd">
<!-- Generated by graphviz version 2.43.0 (0)
 -->
<!-- Title: include/mnist/include/mnist/mnist_reader_less.hpp Pages: 1 -->
<svg width="582pt" height="95pt"
 viewBox="0.00 0.00 581.50 95.00" xmlns="http://www.w3.org/2000/svg" xmlns:xlink="http://www.w3.org/1999/xlink">
<g id="graph0" class="graph" transform="scale(1 1) rotate(0) translate(4 91)">
<title>include/mnist/include/mnist/mnist_reader_less.hpp</title>
<!-- Node1 -->
<g id="node1" class="node">
<title>Node1</title>
<g id="a_node1"><a xlink:title="Contains functions to read the MNIST dataset (less features, Visual Studio friendly)">
<polygon fill="#bfbfbf" stroke="black" points="157,-56.5 157,-86.5 318,-86.5 318,-56.5 157,-56.5"/>
<text text-anchor="start" x="165" y="-74.5" font-family="Helvetica,sans-Serif" font-size="10.00">include/mnist/include</text>
<text text-anchor="middle" x="237.5" y="-63.5" font-family="Helvetica,sans-Serif" font-size="10.00">/mnist/mnist_reader_less.hpp</text>
</a>
</g>
</g>
<!-- Node2 -->
<g id="node2" class="node">
<title>Node2</title>
<g id="a_node2"><a xlink:title=" ">
<polygon fill="none" stroke="#bfbfbf" points="0,-0.5 0,-19.5 55,-19.5 55,-0.5 0,-0.5"/>
<text text-anchor="middle" x="27.5" y="-7.5" font-family="Helvetica,sans-Serif" font-size="10.00">fstream</text>
</a>
</g>
</g>
<!-- Node1&#45;&gt;Node2 -->
<g id="edge1" class="edge">
<title>Node1&#45;&gt;Node2</title>
<path fill="none" stroke="midnightblue" d="M188,-56.47C150.25,-45.78 99.08,-31.28 64.76,-21.56"/>
<polygon fill="midnightblue" stroke="midnightblue" points="65.69,-18.18 55.12,-18.82 63.78,-24.92 65.69,-18.18"/>
</g>
<!-- Node3 -->
<g id="node3" class="node">
<title>Node3</title>
<g id="a_node3"><a xlink:title=" ">
<polygon fill="none" stroke="#bfbfbf" points="73.5,-0.5 73.5,-19.5 133.5,-19.5 133.5,-0.5 73.5,-0.5"/>
<text text-anchor="middle" x="103.5" y="-7.5" font-family="Helvetica,sans-Serif" font-size="10.00">iostream</text>
</a>
</g>
</g>
<!-- Node1&#45;&gt;Node3 -->
<g id="edge2" class="edge">
<title>Node1&#45;&gt;Node3</title>
<path fill="none" stroke="midnightblue" d="M205.74,-56.4C183.46,-46.51 153.91,-33.38 132.31,-23.79"/>
<polygon fill="midnightblue" stroke="midnightblue" points="133.56,-20.52 123,-19.66 130.72,-26.91 133.56,-20.52"/>
</g>
<!-- Node4 -->
<g id="node4" class="node">
<title>Node4</title>
<g id="a_node4"><a xlink:title=" ">
<polygon fill="none" stroke="#bfbfbf" points="151.5,-0.5 151.5,-19.5 195.5,-19.5 195.5,-0.5 151.5,-0.5"/>
<text text-anchor="middle" x="173.5" y="-7.5" font-family="Helvetica,sans-Serif" font-size="10.00">string</text>
</a>
</g>
</g>
<!-- Node1&#45;&gt;Node4 -->
<g id="edge3" class="edge">
<title>Node1&#45;&gt;Node4</title>
<path fill="none" stroke="midnightblue" d="M222.33,-56.4C212.75,-47.49 200.34,-35.95 190.43,-26.74"/>
<polygon fill="midnightblue" stroke="midnightblue" points="192.52,-23.9 182.81,-19.66 187.75,-29.03 192.52,-23.9"/>
</g>
<!-- Node5 -->
<g id="node5" class="node">
<title>Node5</title>
<g id="a_node5"><a xlink:title=" ">
<polygon fill="none" stroke="#bfbfbf" points="214,-0.5 214,-19.5 261,-19.5 261,-0.5 214,-0.5"/>
<text text-anchor="middle" x="237.5" y="-7.5" font-family="Helvetica,sans-Serif" font-size="10.00">vector</text>
</a>
</g>
</g>
<!-- Node1&#45;&gt;Node5 -->
<g id="edge4" class="edge">
<title>Node1&#45;&gt;Node5</title>
<path fill="none" stroke="midnightblue" d="M237.5,-56.4C237.5,-48.47 237.5,-38.46 237.5,-29.86"/>
<polygon fill="midnightblue" stroke="midnightblue" points="241,-29.66 237.5,-19.66 234,-29.66 241,-29.66"/>
</g>
<!-- Node6 -->
<g id="node6" class="node">
<title>Node6</title>
<g id="a_node6"><a xlink:title=" ">
<polygon fill="none" stroke="#bfbfbf" points="279.5,-0.5 279.5,-19.5 329.5,-19.5 329.5,-0.5 279.5,-0.5"/>
<text text-anchor="middle" x="304.5" y="-7.5" font-family="Helvetica,sans-Serif" font-size="10.00">cstdint</text>
</a>
</g>
</g>
<!-- Node1&#45;&gt;Node6 -->
<g id="edge5" class="edge">
<title>Node1&#45;&gt;Node6</title>
<path fill="none" stroke="midnightblue" d="M253.38,-56.4C263.52,-47.4 276.66,-35.72 287.09,-26.47"/>
<polygon fill="midnightblue" stroke="midnightblue" points="289.6,-28.92 294.75,-19.66 284.95,-23.68 289.6,-28.92"/>
</g>
<!-- Node7 -->
<g id="node7" class="node">
<title>Node7</title>
<g id="a_node7"><a xlink:title=" ">
<polygon fill="none" stroke="#bfbfbf" points="347.5,-0.5 347.5,-19.5 405.5,-19.5 405.5,-0.5 347.5,-0.5"/>
<text text-anchor="middle" x="376.5" y="-7.5" font-family="Helvetica,sans-Serif" font-size="10.00">memory</text>
</a>
</g>
</g>
<!-- Node1&#45;&gt;Node7 -->
<g id="edge6" class="edge">
<title>Node1&#45;&gt;Node7</title>
<path fill="none" stroke="midnightblue" d="M270.44,-56.4C293.66,-46.46 324.49,-33.26 346.92,-23.66"/>
<polygon fill="midnightblue" stroke="midnightblue" points="348.46,-26.81 356.27,-19.66 345.7,-20.38 348.46,-26.81"/>
</g>
<!-- Node8 -->
<g id="node8" class="node">
<title>Node8</title>
<g id="a_node8"><a xlink:href="mnist__reader__common_8hpp.html" target="_top" xlink:title="Contains common functions to read the MNIST dataset.">
<polygon fill="none" stroke="black" points="423.5,-0.5 423.5,-19.5 573.5,-19.5 573.5,-0.5 423.5,-0.5"/>
<text text-anchor="middle" x="498.5" y="-7.5" font-family="Helvetica,sans-Serif" font-size="10.00">mnist_reader_common.hpp</text>
</a>
</g>
</g>
<!-- Node1&#45;&gt;Node8 -->
<g id="edge7" class="edge">
<title>Node1&#45;&gt;Node8</title>
<path fill="none" stroke="midnightblue" d="M299.02,-56.47C345.62,-45.85 408.69,-31.47 451.34,-21.75"/>
<polygon fill="midnightblue" stroke="midnightblue" points="452.21,-25.14 461.19,-19.51 450.66,-18.32 452.21,-25.14"/>
</g>
</g>
</svg>
