<?xml version="1.0" encoding="UTF-8" standalone="no"?>
<!DOCTYPE svg PUBLIC "-//W3C//DTD SVG 1.1//EN"
 "http://www.w3.org/Graphics/SVG/1.1/DTD/svg11.dtd">
<!-- Generated by graphviz version 2.43.0 (0)
 -->
<!-- Title: include/nmbuflowtorch/optimizer/nadam.hpp Pages: 1 -->
<svg width="362pt" height="162pt"
 viewBox="0.00 0.00 361.50 162.00" xmlns="http://www.w3.org/2000/svg" xmlns:xlink="http://www.w3.org/1999/xlink">
<g id="graph0" class="graph" transform="scale(1 1) rotate(0) translate(4 158)">
<title>include/nmbuflowtorch/optimizer/nadam.hpp</title>
<!-- Node1 -->
<g id="node1" class="node">
<title>Node1</title>
<g id="a_node1"><a xlink:title=" ">
<polygon fill="#bfbfbf" stroke="black" points="131.5,-123.5 131.5,-153.5 259.5,-153.5 259.5,-123.5 131.5,-123.5"/>
<text text-anchor="start" x="139.5" y="-141.5" font-family="Helvetica,sans-Serif" font-size="10.00">include/nmbuflowtorch</text>
<text text-anchor="middle" x="195.5" y="-130.5" font-family="Helvetica,sans-Serif" font-size="10.00">/optimizer/nadam.hpp</text>
</a>
</g>
</g>
<!-- Node2 -->
<g id="node2" class="node">
<title>Node2</title>
<g id="a_node2"><a xlink:href="autoencoder_8hpp.html" target="_top" xlink:title=" ">
<polygon fill="none" stroke="black" points="51.5,-56.5 51.5,-86.5 179.5,-86.5 179.5,-56.5 51.5,-56.5"/>
<text text-anchor="start" x="59.5" y="-74.5" font-family="Helvetica,sans-Serif" font-size="10.00">include/nmbuflowtorch</text>
<text text-anchor="middle" x="115.5" y="-63.5" font-family="Helvetica,sans-Serif" font-size="10.00">/autoencoder.hpp</text>
</a>
</g>
</g>
<!-- Node1&#45;&gt;Node2 -->
<g id="edge1" class="edge">
<title>Node1&#45;&gt;Node2</title>
<path fill="none" stroke="midnightblue" d="M170.13,-116.88C157.97,-107.01 143.72,-95.43 132.82,-86.58"/>
<polygon fill="midnightblue" stroke="midnightblue" points="168.17,-119.81 178.14,-123.4 172.59,-114.37 168.17,-119.81"/>
</g>
<!-- Node5 -->
<g id="node5" class="node">
<title>Node5</title>
<g id="a_node5"><a xlink:href="nadam_8cpp.html" target="_top" xlink:title=" ">
<polygon fill="none" stroke="black" points="197.5,-56.5 197.5,-86.5 353.5,-86.5 353.5,-56.5 197.5,-56.5"/>
<text text-anchor="start" x="205.5" y="-74.5" font-family="Helvetica,sans-Serif" font-size="10.00">src/nmbuflowtorch/optimizer</text>
<text text-anchor="middle" x="275.5" y="-63.5" font-family="Helvetica,sans-Serif" font-size="10.00">/nadam.cpp</text>
</a>
</g>
</g>
<!-- Node1&#45;&gt;Node5 -->
<g id="edge4" class="edge">
<title>Node1&#45;&gt;Node5</title>
<path fill="none" stroke="midnightblue" d="M220.87,-116.88C233.03,-107.01 247.28,-95.43 258.18,-86.58"/>
<polygon fill="midnightblue" stroke="midnightblue" points="218.41,-114.37 212.86,-123.4 222.83,-119.81 218.41,-114.37"/>
</g>
<!-- Node3 -->
<g id="node3" class="node">
<title>Node3</title>
<g id="a_node3"><a xlink:href="main_8cpp.html" target="_top" xlink:title=" ">
<polygon fill="none" stroke="black" points="0,-0.5 0,-19.5 79,-19.5 79,-0.5 0,-0.5"/>
<text text-anchor="middle" x="39.5" y="-7.5" font-family="Helvetica,sans-Serif" font-size="10.00">src/main.cpp</text>
</a>
</g>
</g>
<!-- Node2&#45;&gt;Node3 -->
<g id="edge2" class="edge">
<title>Node2&#45;&gt;Node3</title>
<path fill="none" stroke="midnightblue" d="M89.56,-50.19C76.25,-39.77 60.75,-27.63 50.56,-19.66"/>
<polygon fill="midnightblue" stroke="midnightblue" points="87.46,-52.99 97.49,-56.4 91.77,-47.48 87.46,-52.99"/>
</g>
<!-- Node4 -->
<g id="node4" class="node">
<title>Node4</title>
<g id="a_node4"><a xlink:href="autoencoder_8cpp.html" target="_top" xlink:title=" ">
<polygon fill="none" stroke="black" points="97.5,-0.5 97.5,-19.5 287.5,-19.5 287.5,-0.5 97.5,-0.5"/>
<text text-anchor="middle" x="192.5" y="-7.5" font-family="Helvetica,sans-Serif" font-size="10.00">src/nmbuflowtorch/autoencoder.cpp</text>
</a>
</g>
</g>
<!-- Node2&#45;&gt;Node4 -->
<g id="edge3" class="edge">
<title>Node2&#45;&gt;Node4</title>
<path fill="none" stroke="midnightblue" d="M141.79,-50.19C155.27,-39.77 170.98,-27.63 181.3,-19.66"/>
<polygon fill="midnightblue" stroke="midnightblue" points="139.52,-47.52 133.75,-56.4 143.8,-53.05 139.52,-47.52"/>
</g>
</g>
</svg>
