<?xml version="1.0" encoding="UTF-8" standalone="no"?>
<!DOCTYPE svg PUBLIC "-//W3C//DTD SVG 1.1//EN"
 "http://www.w3.org/Graphics/SVG/1.1/DTD/svg11.dtd">
<!-- Generated by graphviz version 2.43.0 (0)
 -->
<!-- Title: include/nmbuflowtorch/optimizer/nadam.hpp Pages: 1 -->
<svg width="495pt" height="207pt"
 viewBox="0.00 0.00 494.50 207.00" xmlns="http://www.w3.org/2000/svg" xmlns:xlink="http://www.w3.org/1999/xlink">
<g id="graph0" class="graph" transform="scale(1 1) rotate(0) translate(4 203)">
<title>include/nmbuflowtorch/optimizer/nadam.hpp</title>
<!-- Node1 -->
<g id="node1" class="node">
<title>Node1</title>
<g id="a_node1"><a xlink:title=" ">
<polygon fill="#bfbfbf" stroke="black" points="138,-168.5 138,-198.5 266,-198.5 266,-168.5 138,-168.5"/>
<text text-anchor="start" x="146" y="-186.5" font-family="Helvetica,sans-Serif" font-size="10.00">include/nmbuflowtorch</text>
<text text-anchor="middle" x="202" y="-175.5" font-family="Helvetica,sans-Serif" font-size="10.00">/optimizer/nadam.hpp</text>
</a>
</g>
</g>
<!-- Node2 -->
<g id="node2" class="node">
<title>Node2</title>
<g id="a_node2"><a xlink:href="optimizer_8hpp.html" target="_top" xlink:title=" ">
<polygon fill="none" stroke="black" points="156,-112.5 156,-131.5 248,-131.5 248,-112.5 156,-112.5"/>
<text text-anchor="middle" x="202" y="-119.5" font-family="Helvetica,sans-Serif" font-size="10.00">../optimizer.hpp</text>
</a>
</g>
</g>
<!-- Node1&#45;&gt;Node2 -->
<g id="edge1" class="edge">
<title>Node1&#45;&gt;Node2</title>
<path fill="none" stroke="midnightblue" d="M202,-168.4C202,-160.47 202,-150.46 202,-141.86"/>
<polygon fill="midnightblue" stroke="midnightblue" points="205.5,-141.66 202,-131.66 198.5,-141.66 205.5,-141.66"/>
</g>
<!-- Node3 -->
<g id="node3" class="node">
<title>Node3</title>
<g id="a_node3"><a xlink:title=" ">
<polygon fill="none" stroke="#bfbfbf" points="99.5,-56.5 99.5,-75.5 192.5,-75.5 192.5,-56.5 99.5,-56.5"/>
<text text-anchor="middle" x="146" y="-63.5" font-family="Helvetica,sans-Serif" font-size="10.00">unordered_map</text>
</a>
</g>
</g>
<!-- Node2&#45;&gt;Node3 -->
<g id="edge2" class="edge">
<title>Node2&#45;&gt;Node3</title>
<path fill="none" stroke="midnightblue" d="M193,-112.32C184.81,-104.42 172.49,-92.55 162.53,-82.94"/>
<polygon fill="midnightblue" stroke="midnightblue" points="164.79,-80.26 155.16,-75.83 159.93,-85.29 164.79,-80.26"/>
</g>
<!-- Node4 -->
<g id="node4" class="node">
<title>Node4</title>
<g id="a_node4"><a xlink:href="definitions_8hpp.html" target="_top" xlink:title=" ">
<polygon fill="none" stroke="black" points="210.5,-56.5 210.5,-75.5 305.5,-75.5 305.5,-56.5 210.5,-56.5"/>
<text text-anchor="middle" x="258" y="-63.5" font-family="Helvetica,sans-Serif" font-size="10.00">./definitions.hpp</text>
</a>
</g>
</g>
<!-- Node2&#45;&gt;Node4 -->
<g id="edge3" class="edge">
<title>Node2&#45;&gt;Node4</title>
<path fill="none" stroke="midnightblue" d="M211,-112.32C219.19,-104.42 231.51,-92.55 241.47,-82.94"/>
<polygon fill="midnightblue" stroke="midnightblue" points="244.07,-85.29 248.84,-75.83 239.21,-80.26 244.07,-85.29"/>
</g>
<!-- Node5 -->
<g id="node5" class="node">
<title>Node5</title>
<g id="a_node5"><a xlink:title=" ">
<polygon fill="none" stroke="#bfbfbf" points="0,-0.5 0,-19.5 56,-19.5 56,-0.5 0,-0.5"/>
<text text-anchor="middle" x="28" y="-7.5" font-family="Helvetica,sans-Serif" font-size="10.00">unistd.h</text>
</a>
</g>
</g>
<!-- Node4&#45;&gt;Node5 -->
<g id="edge4" class="edge">
<title>Node4&#45;&gt;Node5</title>
<path fill="none" stroke="midnightblue" d="M220.98,-56.48C184.15,-47.98 125.79,-34.44 66.23,-20.28"/>
<polygon fill="midnightblue" stroke="midnightblue" points="66.81,-16.82 56.28,-17.91 65.19,-23.63 66.81,-16.82"/>
</g>
<!-- Node6 -->
<g id="node6" class="node">
<title>Node6</title>
<g id="a_node6"><a xlink:title=" ">
<polygon fill="none" stroke="#bfbfbf" points="74.5,-0.5 74.5,-19.5 151.5,-19.5 151.5,-0.5 74.5,-0.5"/>
<text text-anchor="middle" x="113" y="-7.5" font-family="Helvetica,sans-Serif" font-size="10.00">Eigen/Dense</text>
</a>
</g>
</g>
<!-- Node4&#45;&gt;Node6 -->
<g id="edge5" class="edge">
<title>Node4&#45;&gt;Node6</title>
<path fill="none" stroke="midnightblue" d="M235.02,-56.44C210.84,-47.44 172.58,-33.19 145.35,-23.05"/>
<polygon fill="midnightblue" stroke="midnightblue" points="146.46,-19.73 135.87,-19.52 144.02,-26.29 146.46,-19.73"/>
</g>
<!-- Node7 -->
<g id="node7" class="node">
<title>Node7</title>
<g id="a_node7"><a xlink:title=" ">
<polygon fill="none" stroke="#bfbfbf" points="169.5,-0.5 169.5,-19.5 216.5,-19.5 216.5,-0.5 169.5,-0.5"/>
<text text-anchor="middle" x="193" y="-7.5" font-family="Helvetica,sans-Serif" font-size="10.00">cmath</text>
</a>
</g>
</g>
<!-- Node4&#45;&gt;Node7 -->
<g id="edge6" class="edge">
<title>Node4&#45;&gt;Node7</title>
<path fill="none" stroke="midnightblue" d="M247.56,-56.32C237.85,-48.26 223.18,-36.08 211.5,-26.37"/>
<polygon fill="midnightblue" stroke="midnightblue" points="213.56,-23.53 203.63,-19.83 209.09,-28.92 213.56,-23.53"/>
</g>
<!-- Node8 -->
<g id="node8" class="node">
<title>Node8</title>
<g id="a_node8"><a xlink:title=" ">
<polygon fill="none" stroke="#bfbfbf" points="235,-0.5 235,-19.5 281,-19.5 281,-0.5 235,-0.5"/>
<text text-anchor="middle" x="258" y="-7.5" font-family="Helvetica,sans-Serif" font-size="10.00">cstdio</text>
</a>
</g>
</g>
<!-- Node4&#45;&gt;Node8 -->
<g id="edge7" class="edge">
<title>Node4&#45;&gt;Node8</title>
<path fill="none" stroke="midnightblue" d="M258,-56.08C258,-49.01 258,-38.86 258,-29.99"/>
<polygon fill="midnightblue" stroke="midnightblue" points="261.5,-29.75 258,-19.75 254.5,-29.75 261.5,-29.75"/>
</g>
<!-- Node9 -->
<g id="node9" class="node">
<title>Node9</title>
<g id="a_node9"><a xlink:title=" ">
<polygon fill="none" stroke="#bfbfbf" points="299,-0.5 299,-19.5 359,-19.5 359,-0.5 299,-0.5"/>
<text text-anchor="middle" x="329" y="-7.5" font-family="Helvetica,sans-Serif" font-size="10.00">iostream</text>
</a>
</g>
</g>
<!-- Node4&#45;&gt;Node9 -->
<g id="edge8" class="edge">
<title>Node4&#45;&gt;Node9</title>
<path fill="none" stroke="midnightblue" d="M269.41,-56.32C280.11,-48.18 296.34,-35.84 309.16,-26.09"/>
<polygon fill="midnightblue" stroke="midnightblue" points="311.54,-28.67 317.39,-19.83 307.31,-23.1 311.54,-28.67"/>
</g>
<!-- Node10 -->
<g id="node10" class="node">
<title>Node10</title>
<g id="a_node10"><a xlink:title=" ">
<polygon fill="none" stroke="#bfbfbf" points="377,-0.5 377,-19.5 421,-19.5 421,-0.5 377,-0.5"/>
<text text-anchor="middle" x="399" y="-7.5" font-family="Helvetica,sans-Serif" font-size="10.00">string</text>
</a>
</g>
</g>
<!-- Node4&#45;&gt;Node10 -->
<g id="edge9" class="edge">
<title>Node4&#45;&gt;Node10</title>
<path fill="none" stroke="midnightblue" d="M280.34,-56.44C303.75,-47.48 340.74,-33.31 367.19,-23.18"/>
<polygon fill="midnightblue" stroke="midnightblue" points="368.68,-26.36 376.76,-19.52 366.17,-19.82 368.68,-26.36"/>
</g>
<!-- Node11 -->
<g id="node11" class="node">
<title>Node11</title>
<g id="a_node11"><a xlink:title=" ">
<polygon fill="none" stroke="#bfbfbf" points="439.5,-0.5 439.5,-19.5 486.5,-19.5 486.5,-0.5 439.5,-0.5"/>
<text text-anchor="middle" x="463" y="-7.5" font-family="Helvetica,sans-Serif" font-size="10.00">vector</text>
</a>
</g>
</g>
<!-- Node4&#45;&gt;Node11 -->
<g id="edge10" class="edge">
<title>Node4&#45;&gt;Node11</title>
<path fill="none" stroke="midnightblue" d="M291,-56.47C323.68,-48.01 375.41,-34.54 429.46,-20.12"/>
<polygon fill="midnightblue" stroke="midnightblue" points="430.46,-23.48 439.21,-17.52 428.65,-16.72 430.46,-23.48"/>
</g>
</g>
</svg>
