<?xml version="1.0" encoding="UTF-8" standalone="no"?>
<!DOCTYPE svg PUBLIC "-//W3C//DTD SVG 1.1//EN"
 "http://www.w3.org/Graphics/SVG/1.1/DTD/svg11.dtd">
<!-- Generated by graphviz version 2.43.0 (0)
 -->
<!-- Title: csv::internals::data_type Pages: 1 -->
<svg width="478pt" height="105pt"
 viewBox="0.00 0.00 478.00 104.50" xmlns="http://www.w3.org/2000/svg" xmlns:xlink="http://www.w3.org/1999/xlink">
<g id="graph0" class="graph" transform="scale(1 1) rotate(0) translate(4 100.5)">
<title>csv::internals::data_type</title>
<!-- Node1 -->
<g id="node1" class="node">
<title>Node1</title>
<g id="a_node1"><a xlink:title=" ">
<polygon fill="#bfbfbf" stroke="black" points="0,-22.5 0,-41.5 136,-41.5 136,-22.5 0,-22.5"/>
<text text-anchor="middle" x="68" y="-29.5" font-family="Helvetica,sans-Serif" font-size="10.00">csv::internals::data_type</text>
</a>
</g>
</g>
<!-- Node2 -->
<g id="node2" class="node">
<title>Node2</title>
<g id="a_node2"><a xlink:href="namespacecsv_1_1internals.html#ae8e51ab7323dd0e66ce1157a5d230718" target="_top" xlink:title=" ">
<polygon fill="none" stroke="black" points="172,-66 172,-96 315,-96 315,-66 172,-66"/>
<text text-anchor="start" x="180" y="-84" font-family="Helvetica,sans-Serif" font-size="10.00">csv::internals::_determine</text>
<text text-anchor="middle" x="243.5" y="-73" font-family="Helvetica,sans-Serif" font-size="10.00">_integral_type</text>
</a>
</g>
</g>
<!-- Node1&#45;&gt;Node2 -->
<g id="edge1" class="edge">
<title>Node1&#45;&gt;Node2</title>
<path fill="none" stroke="midnightblue" d="M102.86,-41.56C124.64,-47.71 153.6,-55.89 179.5,-63.21"/>
<polygon fill="midnightblue" stroke="midnightblue" points="178.68,-66.61 189.26,-65.96 180.58,-59.88 178.68,-66.61"/>
</g>
<!-- Node3 -->
<g id="node3" class="node">
<title>Node3</title>
<g id="a_node3"><a xlink:href="namespacecsv_1_1internals.html#a8689734872945990256b14391b640da2" target="_top" xlink:title=" ">
<polygon fill="none" stroke="black" points="178.5,-17 178.5,-47 308.5,-47 308.5,-17 178.5,-17"/>
<text text-anchor="start" x="186.5" y="-35" font-family="Helvetica,sans-Serif" font-size="10.00">csv::internals::_process</text>
<text text-anchor="middle" x="243.5" y="-24" font-family="Helvetica,sans-Serif" font-size="10.00">_potential_exponential</text>
</a>
</g>
</g>
<!-- Node1&#45;&gt;Node3 -->
<g id="edge2" class="edge">
<title>Node1&#45;&gt;Node3</title>
<path fill="none" stroke="midnightblue" d="M136.08,-25.41C146.63,-25.24 157.59,-25.2 168.29,-25.31"/>
<polygon fill="midnightblue" stroke="midnightblue" points="168.4,-28.81 178.45,-25.46 168.5,-21.82 168.4,-28.81"/>
</g>
<!-- Node4 -->
<g id="node4" class="node">
<title>Node4</title>
<g id="a_node4"><a xlink:href="namespacecsv_1_1internals.html#a53610b31da85139a100e9773f6b9fb4f" target="_top" xlink:title=" ">
<polygon fill="none" stroke="black" points="351,-0.5 351,-19.5 470,-19.5 470,-0.5 351,-0.5"/>
<text text-anchor="middle" x="410.5" y="-7.5" font-family="Helvetica,sans-Serif" font-size="10.00">csv::internals::pow10</text>
</a>
</g>
</g>
<!-- Node1&#45;&gt;Node4 -->
<g id="edge5" class="edge">
<title>Node1&#45;&gt;Node4</title>
<path fill="none" stroke="midnightblue" d="M101.6,-22.39C121.69,-16.97 148.1,-10.75 172,-8 228.48,-1.51 293.02,-2.59 340.55,-4.97"/>
<polygon fill="midnightblue" stroke="midnightblue" points="340.55,-8.47 350.73,-5.51 340.93,-1.48 340.55,-8.47"/>
</g>
<!-- Node3&#45;&gt;Node1 -->
<g id="edge3" class="edge">
<title>Node3&#45;&gt;Node1</title>
<path fill="none" stroke="midnightblue" d="M178.45,-38.54C167.98,-38.74 157.04,-38.8 146.3,-38.71"/>
<polygon fill="midnightblue" stroke="midnightblue" points="146.12,-35.21 136.08,-38.59 146.04,-42.21 146.12,-35.21"/>
</g>
<!-- Node3&#45;&gt;Node4 -->
<g id="edge4" class="edge">
<title>Node3&#45;&gt;Node4</title>
<path fill="none" stroke="midnightblue" d="M308.77,-23.43C319.26,-22.03 330.16,-20.58 340.76,-19.17"/>
<polygon fill="midnightblue" stroke="midnightblue" points="341.35,-22.62 350.8,-17.83 340.42,-15.68 341.35,-22.62"/>
</g>
</g>
</svg>
