<?xml version="1.0" encoding="UTF-8" standalone="no"?>
<!DOCTYPE svg PUBLIC "-//W3C//DTD SVG 1.1//EN"
 "http://www.w3.org/Graphics/SVG/1.1/DTD/svg11.dtd">
<!-- Generated by graphviz version 2.43.0 (0)
 -->
<!-- Title: csv::internals::calculate_score Pages: 1 -->
<svg width="442pt" height="137pt"
 viewBox="0.00 0.00 442.00 137.00" xmlns="http://www.w3.org/2000/svg" xmlns:xlink="http://www.w3.org/1999/xlink">
<g id="graph0" class="graph" transform="scale(1 1) rotate(0) translate(4 133)">
<title>csv::internals::calculate_score</title>
<!-- Node1 -->
<g id="node1" class="node">
<title>Node1</title>
<g id="a_node1"><a xlink:title=" ">
<polygon fill="#bfbfbf" stroke="black" points="0,-49.5 0,-79.5 131,-79.5 131,-49.5 0,-49.5"/>
<text text-anchor="start" x="8" y="-67.5" font-family="Helvetica,sans-Serif" font-size="10.00">csv::internals::calculate</text>
<text text-anchor="middle" x="65.5" y="-56.5" font-family="Helvetica,sans-Serif" font-size="10.00">_score</text>
</a>
</g>
</g>
<!-- Node2 -->
<g id="node2" class="node">
<title>Node2</title>
<g id="a_node2"><a xlink:href="classcsv_1_1internals_1_1StreamParser.html#a2c779b41c5b3395d191b0b39cd0ec8ef" target="_top" xlink:title=" ">
<polygon fill="none" stroke="black" points="174,-98.5 174,-128.5 326,-128.5 326,-98.5 174,-98.5"/>
<text text-anchor="start" x="182" y="-116.5" font-family="Helvetica,sans-Serif" font-size="10.00">csv::internals::StreamParser</text>
<text text-anchor="middle" x="250" y="-105.5" font-family="Helvetica,sans-Serif" font-size="10.00">::next</text>
</a>
</g>
</g>
<!-- Node1&#45;&gt;Node2 -->
<g id="edge1" class="edge">
<title>Node1&#45;&gt;Node2</title>
<path fill="none" stroke="midnightblue" d="M122.75,-79.6C141.83,-84.73 163.32,-90.5 183.09,-95.8"/>
<polygon fill="midnightblue" stroke="midnightblue" points="182.38,-99.24 192.94,-98.45 184.19,-92.47 182.38,-99.24"/>
</g>
<!-- Node4 -->
<g id="node4" class="node">
<title>Node4</title>
<g id="a_node4"><a xlink:href="classcsv_1_1internals_1_1IBasicCSVParser.html#abb68865cdf144c1ed757523157bd531c" target="_top" xlink:title=" ">
<polygon fill="none" stroke="black" points="167,-49.5 167,-79.5 333,-79.5 333,-49.5 167,-49.5"/>
<text text-anchor="start" x="175" y="-67.5" font-family="Helvetica,sans-Serif" font-size="10.00">csv::internals::IBasicCSVParser</text>
<text text-anchor="middle" x="250" y="-56.5" font-family="Helvetica,sans-Serif" font-size="10.00">::set_output</text>
</a>
</g>
</g>
<!-- Node1&#45;&gt;Node4 -->
<g id="edge3" class="edge">
<title>Node1&#45;&gt;Node4</title>
<path fill="none" stroke="midnightblue" d="M131.1,-64.5C139.43,-64.5 148.08,-64.5 156.74,-64.5"/>
<polygon fill="midnightblue" stroke="midnightblue" points="156.9,-68 166.9,-64.5 156.9,-61 156.9,-68"/>
</g>
<!-- Node5 -->
<g id="node5" class="node">
<title>Node5</title>
<g id="a_node5"><a xlink:href="classcsv_1_1internals_1_1ThreadSafeDeque.html#a7eae23568306e68f407a05963e8585ff" target="_top" xlink:title=" ">
<polygon fill="none" stroke="black" points="178.5,-0.5 178.5,-30.5 321.5,-30.5 321.5,-0.5 178.5,-0.5"/>
<text text-anchor="start" x="186.5" y="-18.5" font-family="Helvetica,sans-Serif" font-size="10.00">csv::internals::ThreadSafe</text>
<text text-anchor="middle" x="250" y="-7.5" font-family="Helvetica,sans-Serif" font-size="10.00">Deque::size</text>
</a>
</g>
</g>
<!-- Node1&#45;&gt;Node5 -->
<g id="edge4" class="edge">
<title>Node1&#45;&gt;Node5</title>
<path fill="none" stroke="midnightblue" d="M122.75,-49.4C141.83,-44.27 163.32,-38.5 183.09,-33.2"/>
<polygon fill="midnightblue" stroke="midnightblue" points="184.19,-36.53 192.94,-30.55 182.38,-29.76 184.19,-36.53"/>
</g>
<!-- Node3 -->
<g id="node3" class="node">
<title>Node3</title>
<g id="a_node3"><a xlink:href="namespacecsv.html#a46864187c1f0bd79fc006694aba84cc2" target="_top" xlink:title=" ">
<polygon fill="none" stroke="black" points="369,-104 369,-123 434,-123 434,-104 369,-104"/>
<text text-anchor="middle" x="401.5" y="-111" font-family="Helvetica,sans-Serif" font-size="10.00">csv::parse</text>
</a>
</g>
</g>
<!-- Node2&#45;&gt;Node3 -->
<g id="edge2" class="edge">
<title>Node2&#45;&gt;Node3</title>
<path fill="none" stroke="midnightblue" d="M326.19,-113.5C337.3,-113.5 348.41,-113.5 358.52,-113.5"/>
<polygon fill="midnightblue" stroke="midnightblue" points="358.65,-117 368.65,-113.5 358.65,-110 358.65,-117"/>
</g>
</g>
</svg>
