<?xml version="1.0" encoding="UTF-8" standalone="no"?>
<!DOCTYPE svg PUBLIC "-//W3C//DTD SVG 1.1//EN"
 "http://www.w3.org/Graphics/SVG/1.1/DTD/svg11.dtd">
<!-- Generated by graphviz version 2.43.0 (0)
 -->
<!-- Title: mnist::normalize_dataset Pages: 1 -->
<svg width="546pt" height="47pt"
 viewBox="0.00 0.00 546.00 47.00" xmlns="http://www.w3.org/2000/svg" xmlns:xlink="http://www.w3.org/1999/xlink">
<g id="graph0" class="graph" transform="scale(1 1) rotate(0) translate(4 43)">
<title>mnist::normalize_dataset</title>
<!-- Node1 -->
<g id="node1" class="node">
<title>Node1</title>
<g id="a_node1"><a xlink:title="Normalize the given MNIST dataset to zero&#45;mean and unit variance.">
<polygon fill="#bfbfbf" stroke="black" points="0,-19.5 0,-38.5 141,-38.5 141,-19.5 0,-19.5"/>
<text text-anchor="middle" x="70.5" y="-26.5" font-family="Helvetica,sans-Serif" font-size="10.00">mnist::normalize_dataset</text>
</a>
</g>
</g>
<!-- Node2 -->
<g id="node2" class="node">
<title>Node2</title>
<g id="a_node2"><a xlink:href="namespacemnist.html#acdb2a501db8e749c8ce4d971d69fea22" target="_top" xlink:title="Normalize each sub range inside the given range.">
<polygon fill="none" stroke="black" points="177,-19.5 177,-38.5 305,-38.5 305,-19.5 177,-19.5"/>
<text text-anchor="middle" x="241" y="-26.5" font-family="Helvetica,sans-Serif" font-size="10.00">mnist::normalize_each</text>
</a>
</g>
</g>
<!-- Node1&#45;&gt;Node2 -->
<g id="edge1" class="edge">
<title>Node1&#45;&gt;Node2</title>
<path fill="none" stroke="midnightblue" d="M141.01,-29C149.45,-29 158.1,-29 166.6,-29"/>
<polygon fill="midnightblue" stroke="midnightblue" points="166.86,-32.5 176.86,-29 166.86,-25.5 166.86,-32.5"/>
</g>
<!-- Node3 -->
<g id="node3" class="node">
<title>Node3</title>
<g id="a_node3"><a xlink:href="namespacemnist.html#a2dcb2e257557345356d75a4b41df652a" target="_top" xlink:title="Return the mean value of the elements inside the given range.">
<polygon fill="none" stroke="black" points="460,-19.5 460,-38.5 538,-38.5 538,-19.5 460,-19.5"/>
<text text-anchor="middle" x="499" y="-26.5" font-family="Helvetica,sans-Serif" font-size="10.00">mnist::mean</text>
</a>
</g>
</g>
<!-- Node2&#45;&gt;Node3 -->
<g id="edge2" class="edge">
<title>Node2&#45;&gt;Node3</title>
<path fill="none" stroke="midnightblue" d="M305.28,-29C349.82,-29 408.55,-29 449.42,-29"/>
<polygon fill="midnightblue" stroke="midnightblue" points="449.66,-32.5 459.66,-29 449.66,-25.5 449.66,-32.5"/>
</g>
<!-- Node4 -->
<g id="node4" class="node">
<title>Node4</title>
<g id="a_node4"><a xlink:href="namespacemnist.html#a711f59c10ffe748decf24c2752a2945a" target="_top" xlink:title="Return the standard deviation of the elements inside the given range.">
<polygon fill="none" stroke="black" points="341,-0.5 341,-19.5 424,-19.5 424,-0.5 341,-0.5"/>
<text text-anchor="middle" x="382.5" y="-7.5" font-family="Helvetica,sans-Serif" font-size="10.00">mnist::stddev</text>
</a>
</g>
</g>
<!-- Node2&#45;&gt;Node4 -->
<g id="edge3" class="edge">
<title>Node2&#45;&gt;Node4</title>
<path fill="none" stroke="midnightblue" d="M305.22,-20.39C313.83,-19.22 322.57,-18.03 330.92,-16.89"/>
<polygon fill="midnightblue" stroke="midnightblue" points="331.43,-20.35 340.87,-15.53 330.49,-13.42 331.43,-20.35"/>
</g>
<!-- Node4&#45;&gt;Node3 -->
<g id="edge4" class="edge">
<title>Node4&#45;&gt;Node3</title>
<path fill="none" stroke="midnightblue" d="M424.19,-16.75C432.42,-18.12 441.14,-19.56 449.6,-20.97"/>
<polygon fill="midnightblue" stroke="midnightblue" points="449.3,-24.47 459.74,-22.65 450.45,-17.56 449.3,-24.47"/>
</g>
</g>
</svg>
