<?xml version="1.0" encoding="UTF-8" standalone="no"?>
<!DOCTYPE svg PUBLIC "-//W3C//DTD SVG 1.1//EN"
 "http://www.w3.org/Graphics/SVG/1.1/DTD/svg11.dtd">
<!-- Generated by graphviz version 2.43.0 (0)
 -->
<!-- Title: mnist::read_mnist_label_file_categorical Pages: 1 -->
<svg width="451pt" height="53pt"
 viewBox="0.00 0.00 451.00 52.50" xmlns="http://www.w3.org/2000/svg" xmlns:xlink="http://www.w3.org/1999/xlink">
<g id="graph0" class="graph" transform="scale(1 1) rotate(0) translate(4 48.5)">
<title>mnist::read_mnist_label_file_categorical</title>
<!-- Node1 -->
<g id="node1" class="node">
<title>Node1</title>
<g id="a_node1"><a xlink:title="Read a MNIST label file inside the given flat categorical container (ETL).">
<polygon fill="#bfbfbf" stroke="black" points="0,-14 0,-44 134,-44 134,-14 0,-14"/>
<text text-anchor="start" x="8" y="-32" font-family="Helvetica,sans-Serif" font-size="10.00">mnist::read_mnist_label</text>
<text text-anchor="middle" x="67" y="-21" font-family="Helvetica,sans-Serif" font-size="10.00">_file_categorical</text>
</a>
</g>
</g>
<!-- Node2 -->
<g id="node2" class="node">
<title>Node2</title>
<g id="a_node2"><a xlink:href="namespacemnist.html#ae23bbb05e2acb0f4fb36edf42431cea7" target="_top" xlink:title="Extract the MNIST header from the given buffer.">
<polygon fill="none" stroke="black" points="332,-19.5 332,-38.5 443,-38.5 443,-19.5 332,-19.5"/>
<text text-anchor="middle" x="387.5" y="-26.5" font-family="Helvetica,sans-Serif" font-size="10.00">mnist::read_header</text>
</a>
</g>
</g>
<!-- Node1&#45;&gt;Node2 -->
<g id="edge1" class="edge">
<title>Node1&#45;&gt;Node2</title>
<path fill="none" stroke="midnightblue" d="M134.38,-29C189.36,-29 267.04,-29 321.6,-29"/>
<polygon fill="midnightblue" stroke="midnightblue" points="321.85,-32.5 331.85,-29 321.85,-25.5 321.85,-32.5"/>
</g>
<!-- Node3 -->
<g id="node3" class="node">
<title>Node3</title>
<g id="a_node3"><a xlink:href="namespacemnist.html#a8061847f8ead32e07e1a343f29c03671" target="_top" xlink:title="Read a MNIST file inside a raw buffer.">
<polygon fill="none" stroke="black" points="170,-0.5 170,-19.5 296,-19.5 296,-0.5 170,-0.5"/>
<text text-anchor="middle" x="233" y="-7.5" font-family="Helvetica,sans-Serif" font-size="10.00">mnist::read_mnist_file</text>
</a>
</g>
</g>
<!-- Node1&#45;&gt;Node3 -->
<g id="edge2" class="edge">
<title>Node1&#45;&gt;Node3</title>
<path fill="none" stroke="midnightblue" d="M134.23,-21.33C142.57,-20.36 151.14,-19.37 159.58,-18.39"/>
<polygon fill="midnightblue" stroke="midnightblue" points="160.24,-21.84 169.77,-17.21 159.43,-14.88 160.24,-21.84"/>
</g>
<!-- Node3&#45;&gt;Node2 -->
<g id="edge3" class="edge">
<title>Node3&#45;&gt;Node2</title>
<path fill="none" stroke="midnightblue" d="M296.03,-17.73C304.56,-18.79 313.34,-19.89 321.92,-20.95"/>
<polygon fill="midnightblue" stroke="midnightblue" points="321.52,-24.43 331.87,-22.19 322.38,-17.48 321.52,-24.43"/>
</g>
</g>
</svg>
