<?xml version="1.0" encoding="UTF-8" standalone="no"?>
<!DOCTYPE svg PUBLIC "-//W3C//DTD SVG 1.1//EN"
 "http://www.w3.org/Graphics/SVG/1.1/DTD/svg11.dtd">
<!-- Generated by graphviz version 2.43.0 (0)
 -->
<!-- Title: csv::internals::_get_col_names Pages: 1 -->
<svg width="419pt" height="186pt"
 viewBox="0.00 0.00 419.00 186.00" xmlns="http://www.w3.org/2000/svg" xmlns:xlink="http://www.w3.org/1999/xlink">
<g id="graph0" class="graph" transform="scale(1 1) rotate(0) translate(4 182)">
<title>csv::internals::_get_col_names</title>
<!-- Node1 -->
<g id="node1" class="node">
<title>Node1</title>
<g id="a_node1"><a xlink:title=" ">
<polygon fill="#bfbfbf" stroke="black" points="0,-73.5 0,-103.5 108,-103.5 108,-73.5 0,-73.5"/>
<text text-anchor="start" x="8" y="-91.5" font-family="Helvetica,sans-Serif" font-size="10.00">csv::internals::_get</text>
<text text-anchor="middle" x="54" y="-80.5" font-family="Helvetica,sans-Serif" font-size="10.00">_col_names</text>
</a>
</g>
</g>
<!-- Node2 -->
<g id="node2" class="node">
<title>Node2</title>
<g id="a_node2"><a xlink:href="classcsv_1_1CSVFormat.html#a0a6680eeb80979d2fba2b5d81cb3c92d" target="_top" xlink:title=" ">
<polygon fill="none" stroke="black" points="170,-147.5 170,-177.5 284,-177.5 284,-147.5 170,-147.5"/>
<text text-anchor="start" x="178" y="-165.5" font-family="Helvetica,sans-Serif" font-size="10.00">csv::CSVFormat::get</text>
<text text-anchor="middle" x="227" y="-154.5" font-family="Helvetica,sans-Serif" font-size="10.00">_header</text>
</a>
</g>
</g>
<!-- Node1&#45;&gt;Node2 -->
<g id="edge1" class="edge">
<title>Node1&#45;&gt;Node2</title>
<path fill="none" stroke="midnightblue" d="M78.43,-103.61C95.96,-114.42 120.8,-128.74 144,-138.5 149.13,-140.66 154.51,-142.7 159.97,-144.61"/>
<polygon fill="midnightblue" stroke="midnightblue" points="159.23,-148.05 169.83,-147.91 161.45,-141.42 159.23,-148.05"/>
</g>
<!-- Node3 -->
<g id="node3" class="node">
<title>Node3</title>
<g id="a_node3"><a xlink:href="classcsv_1_1CSVFormat.html#a0ae3a30384d2442e5c058197b1dacd2c" target="_top" xlink:title=" ">
<polygon fill="none" stroke="black" points="170,-98.5 170,-128.5 284,-128.5 284,-98.5 170,-98.5"/>
<text text-anchor="start" x="178" y="-116.5" font-family="Helvetica,sans-Serif" font-size="10.00">csv::CSVFormat::get</text>
<text text-anchor="middle" x="227" y="-105.5" font-family="Helvetica,sans-Serif" font-size="10.00">_trim_chars</text>
</a>
</g>
</g>
<!-- Node1&#45;&gt;Node3 -->
<g id="edge2" class="edge">
<title>Node1&#45;&gt;Node3</title>
<path fill="none" stroke="midnightblue" d="M108.17,-96.27C124.56,-98.67 142.81,-101.34 159.96,-103.84"/>
<polygon fill="midnightblue" stroke="midnightblue" points="159.5,-107.32 169.9,-105.3 160.52,-100.39 159.5,-107.32"/>
</g>
<!-- Node4 -->
<g id="node4" class="node">
<title>Node4</title>
<g id="a_node4"><a xlink:href="classcsv_1_1internals_1_1StreamParser.html#a2c779b41c5b3395d191b0b39cd0ec8ef" target="_top" xlink:title=" ">
<polygon fill="none" stroke="black" points="151,-49.5 151,-79.5 303,-79.5 303,-49.5 151,-49.5"/>
<text text-anchor="start" x="159" y="-67.5" font-family="Helvetica,sans-Serif" font-size="10.00">csv::internals::StreamParser</text>
<text text-anchor="middle" x="227" y="-56.5" font-family="Helvetica,sans-Serif" font-size="10.00">::next</text>
</a>
</g>
</g>
<!-- Node1&#45;&gt;Node4 -->
<g id="edge3" class="edge">
<title>Node1&#45;&gt;Node4</title>
<path fill="none" stroke="midnightblue" d="M108.17,-81.04C118.53,-79.58 129.63,-78.03 140.72,-76.47"/>
<polygon fill="midnightblue" stroke="midnightblue" points="141.48,-79.9 150.89,-75.04 140.5,-72.97 141.48,-79.9"/>
</g>
<!-- Node6 -->
<g id="node6" class="node">
<title>Node6</title>
<g id="a_node6"><a xlink:href="classcsv_1_1internals_1_1IBasicCSVParser.html#abb68865cdf144c1ed757523157bd531c" target="_top" xlink:title=" ">
<polygon fill="none" stroke="black" points="144,-0.5 144,-30.5 310,-30.5 310,-0.5 144,-0.5"/>
<text text-anchor="start" x="152" y="-18.5" font-family="Helvetica,sans-Serif" font-size="10.00">csv::internals::IBasicCSVParser</text>
<text text-anchor="middle" x="227" y="-7.5" font-family="Helvetica,sans-Serif" font-size="10.00">::set_output</text>
</a>
</g>
</g>
<!-- Node1&#45;&gt;Node6 -->
<g id="edge5" class="edge">
<title>Node1&#45;&gt;Node6</title>
<path fill="none" stroke="midnightblue" d="M79.67,-73.47C97.18,-63.24 121.48,-49.9 144,-40.5 149.68,-38.13 155.66,-35.87 161.7,-33.76"/>
<polygon fill="midnightblue" stroke="midnightblue" points="162.85,-37.06 171.21,-30.55 160.61,-30.43 162.85,-37.06"/>
</g>
<!-- Node5 -->
<g id="node5" class="node">
<title>Node5</title>
<g id="a_node5"><a xlink:href="namespacecsv.html#a46864187c1f0bd79fc006694aba84cc2" target="_top" xlink:title=" ">
<polygon fill="none" stroke="black" points="346,-55 346,-74 411,-74 411,-55 346,-55"/>
<text text-anchor="middle" x="378.5" y="-62" font-family="Helvetica,sans-Serif" font-size="10.00">csv::parse</text>
</a>
</g>
</g>
<!-- Node4&#45;&gt;Node5 -->
<g id="edge4" class="edge">
<title>Node4&#45;&gt;Node5</title>
<path fill="none" stroke="midnightblue" d="M303.19,-64.5C314.3,-64.5 325.41,-64.5 335.52,-64.5"/>
<polygon fill="midnightblue" stroke="midnightblue" points="335.65,-68 345.65,-64.5 335.65,-61 335.65,-68"/>
</g>
</g>
</svg>
