<?xml version="1.0" encoding="UTF-8" standalone="no"?>
<!DOCTYPE svg PUBLIC "-//W3C//DTD SVG 1.1//EN"
 "http://www.w3.org/Graphics/SVG/1.1/DTD/svg11.dtd">
<!-- Generated by graphviz version 2.43.0 (0)
 -->
<!-- Title: csv::csv_data_types Pages: 1 -->
<svg width="450pt" height="53pt"
 viewBox="0.00 0.00 450.00 52.50" xmlns="http://www.w3.org/2000/svg" xmlns:xlink="http://www.w3.org/1999/xlink">
<g id="graph0" class="graph" transform="scale(1 1) rotate(0) translate(4 48.5)">
<title>csv::csv_data_types</title>
<!-- Node1 -->
<g id="node1" class="node">
<title>Node1</title>
<g id="a_node1"><a xlink:title=" ">
<polygon fill="#bfbfbf" stroke="black" points="0,-19.5 0,-38.5 114,-38.5 114,-19.5 0,-19.5"/>
<text text-anchor="middle" x="57" y="-26.5" font-family="Helvetica,sans-Serif" font-size="10.00">csv::csv_data_types</text>
</a>
</g>
</g>
<!-- Node2 -->
<g id="node2" class="node">
<title>Node2</title>
<g id="a_node2"><a xlink:href="classcsv_1_1CSVStat.html#a563a6d0a14fd21daffe7ec2b562a49aa" target="_top" xlink:title=" ">
<polygon fill="none" stroke="black" points="323,-14 323,-44 442,-44 442,-14 323,-14"/>
<text text-anchor="start" x="331" y="-32" font-family="Helvetica,sans-Serif" font-size="10.00">csv::CSVStat::get_col</text>
<text text-anchor="middle" x="382.5" y="-21" font-family="Helvetica,sans-Serif" font-size="10.00">_names</text>
</a>
</g>
</g>
<!-- Node1&#45;&gt;Node2 -->
<g id="edge1" class="edge">
<title>Node1&#45;&gt;Node2</title>
<path fill="none" stroke="midnightblue" d="M114.35,-29C169.42,-29 253.37,-29 312.44,-29"/>
<polygon fill="midnightblue" stroke="midnightblue" points="312.79,-32.5 322.79,-29 312.79,-25.5 312.79,-32.5"/>
</g>
<!-- Node3 -->
<g id="node3" class="node">
<title>Node3</title>
<g id="a_node3"><a xlink:href="classcsv_1_1CSVStat.html#a6bd3d1a4af4c43beeb4e2043e5b7c13a" target="_top" xlink:title=" ">
<polygon fill="none" stroke="black" points="150,-0.5 150,-19.5 287,-19.5 287,-0.5 150,-0.5"/>
<text text-anchor="middle" x="218.5" y="-7.5" font-family="Helvetica,sans-Serif" font-size="10.00">csv::CSVStat::get_dtypes</text>
</a>
</g>
</g>
<!-- Node1&#45;&gt;Node3 -->
<g id="edge2" class="edge">
<title>Node1&#45;&gt;Node3</title>
<path fill="none" stroke="midnightblue" d="M114.23,-22.3C122.49,-21.32 131.11,-20.29 139.7,-19.27"/>
<polygon fill="midnightblue" stroke="midnightblue" points="140.23,-22.73 149.74,-18.07 139.4,-15.78 140.23,-22.73"/>
</g>
<!-- Node3&#45;&gt;Node2 -->
<g id="edge3" class="edge">
<title>Node3&#45;&gt;Node2</title>
<path fill="none" stroke="midnightblue" d="M287.26,-17.95C295.65,-18.93 304.22,-19.94 312.62,-20.92"/>
<polygon fill="midnightblue" stroke="midnightblue" points="312.42,-24.42 322.76,-22.11 313.23,-17.47 312.42,-24.42"/>
</g>
</g>
</svg>
