<?xml version="1.0" encoding="UTF-8" standalone="no"?>
<!DOCTYPE svg PUBLIC "-//W3C//DTD SVG 1.1//EN"
 "http://www.w3.org/Graphics/SVG/1.1/DTD/svg11.dtd">
<!-- Generated by graphviz version 2.43.0 (0)
 -->
<!-- Title: csv::internals::get_csv_head Pages: 1 -->
<svg width="429pt" height="88pt"
 viewBox="0.00 0.00 429.00 88.00" xmlns="http://www.w3.org/2000/svg" xmlns:xlink="http://www.w3.org/1999/xlink">
<g id="graph0" class="graph" transform="scale(1 1) rotate(0) translate(4 84)">
<title>csv::internals::get_csv_head</title>
<!-- Node1 -->
<g id="node1" class="node">
<title>Node1</title>
<g id="a_node1"><a xlink:title=" ">
<polygon fill="#bfbfbf" stroke="black" points="0,-24.5 0,-54.5 103,-54.5 103,-24.5 0,-24.5"/>
<text text-anchor="start" x="8" y="-42.5" font-family="Helvetica,sans-Serif" font-size="10.00">csv::internals::get</text>
<text text-anchor="middle" x="51.5" y="-31.5" font-family="Helvetica,sans-Serif" font-size="10.00">_csv_head</text>
</a>
</g>
</g>
<!-- Node2 -->
<g id="node2" class="node">
<title>Node2</title>
<g id="a_node2"><a xlink:href="namespacecsv_1_1internals.html#a9e94234c3ac25b454cfafd4fa4b1ed8c" target="_top" xlink:title=" ">
<polygon fill="none" stroke="black" points="139,-49.5 139,-79.5 242,-79.5 242,-49.5 139,-49.5"/>
<text text-anchor="start" x="147" y="-67.5" font-family="Helvetica,sans-Serif" font-size="10.00">csv::internals::get</text>
<text text-anchor="middle" x="190.5" y="-56.5" font-family="Helvetica,sans-Serif" font-size="10.00">_csv_head</text>
</a>
</g>
</g>
<!-- Node1&#45;&gt;Node2 -->
<g id="edge1" class="edge">
<title>Node1&#45;&gt;Node2</title>
<path fill="none" stroke="midnightblue" d="M103.12,-48.74C111.45,-50.26 120.16,-51.85 128.7,-53.41"/>
<polygon fill="midnightblue" stroke="midnightblue" points="128.16,-56.86 138.63,-55.22 129.42,-49.98 128.16,-56.86"/>
</g>
<!-- Node4 -->
<g id="node4" class="node">
<title>Node4</title>
<g id="a_node4"><a xlink:href="namespacecsv_1_1internals.html#ab276fd6e6dee073f97858e46836fb2fd" target="_top" xlink:title=" ">
<polygon fill="none" stroke="black" points="139,-0.5 139,-30.5 242,-30.5 242,-0.5 139,-0.5"/>
<text text-anchor="start" x="147" y="-18.5" font-family="Helvetica,sans-Serif" font-size="10.00">csv::internals::get</text>
<text text-anchor="middle" x="190.5" y="-7.5" font-family="Helvetica,sans-Serif" font-size="10.00">_file_size</text>
</a>
</g>
</g>
<!-- Node1&#45;&gt;Node4 -->
<g id="edge3" class="edge">
<title>Node1&#45;&gt;Node4</title>
<path fill="none" stroke="midnightblue" d="M103.12,-30.63C111.45,-29.17 120.16,-27.65 128.7,-26.15"/>
<polygon fill="midnightblue" stroke="midnightblue" points="129.38,-29.59 138.63,-24.41 128.17,-22.69 129.38,-29.59"/>
</g>
<!-- Node3 -->
<g id="node3" class="node">
<title>Node3</title>
<g id="a_node3"><a xlink:href="namespacemio.html#a457598aac30b946c47c282a70d18b029" target="_top" xlink:title=" ">
<polygon fill="none" stroke="black" points="278,-55 278,-74 421,-74 421,-55 278,-55"/>
<text text-anchor="middle" x="349.5" y="-62" font-family="Helvetica,sans-Serif" font-size="10.00">mio::make_mmap_source</text>
</a>
</g>
</g>
<!-- Node2&#45;&gt;Node3 -->
<g id="edge2" class="edge">
<title>Node2&#45;&gt;Node3</title>
<path fill="none" stroke="midnightblue" d="M242.04,-64.5C250.22,-64.5 258.87,-64.5 267.56,-64.5"/>
<polygon fill="midnightblue" stroke="midnightblue" points="267.75,-68 277.75,-64.5 267.75,-61 267.75,-68"/>
</g>
</g>
</svg>
