<?xml version="1.0" encoding="UTF-8" standalone="no"?>
<!DOCTYPE svg PUBLIC "-//W3C//DTD SVG 1.1//EN"
 "http://www.w3.org/Graphics/SVG/1.1/DTD/svg11.dtd">
<!-- Generated by graphviz version 2.43.0 (0)
 -->
<!-- Title: csv::guess_format Pages: 1 -->
<svg width="752pt" height="281pt"
 viewBox="0.00 0.00 752.00 281.00" xmlns="http://www.w3.org/2000/svg" xmlns:xlink="http://www.w3.org/1999/xlink">
<g id="graph0" class="graph" transform="scale(1 1) rotate(0) translate(4 277)">
<title>csv::guess_format</title>
<!-- Node1 -->
<g id="node1" class="node">
<title>Node1</title>
<g id="a_node1"><a xlink:title=" ">
<polygon fill="#bfbfbf" stroke="black" points="0,-78 0,-97 105,-97 105,-78 0,-78"/>
<text text-anchor="middle" x="52.5" y="-85" font-family="Helvetica,sans-Serif" font-size="10.00">csv::guess_format</text>
</a>
</g>
</g>
<!-- Node2 -->
<g id="node2" class="node">
<title>Node2</title>
<g id="a_node2"><a xlink:href="namespacecsv_1_1internals.html#a380795c981a04709f32a960eead97d1b" target="_top" xlink:title=" ">
<polygon fill="none" stroke="black" points="141,-97.5 141,-127.5 262,-127.5 262,-97.5 141,-97.5"/>
<text text-anchor="start" x="149" y="-115.5" font-family="Helvetica,sans-Serif" font-size="10.00">csv::internals::_guess</text>
<text text-anchor="middle" x="201.5" y="-104.5" font-family="Helvetica,sans-Serif" font-size="10.00">_format</text>
</a>
</g>
</g>
<!-- Node1&#45;&gt;Node2 -->
<g id="edge1" class="edge">
<title>Node1&#45;&gt;Node2</title>
<path fill="none" stroke="midnightblue" d="M105.33,-96.31C113.59,-97.72 122.24,-99.19 130.83,-100.65"/>
<polygon fill="midnightblue" stroke="midnightblue" points="130.41,-104.13 140.86,-102.36 131.58,-97.23 130.41,-104.13"/>
</g>
<!-- Node10 -->
<g id="node10" class="node">
<title>Node10</title>
<g id="a_node10"><a xlink:href="namespacecsv_1_1internals.html#a897f697f6eff2db6e9011e0fc05ec959" target="_top" xlink:title=" ">
<polygon fill="none" stroke="black" points="150,-48.5 150,-78.5 253,-78.5 253,-48.5 150,-48.5"/>
<text text-anchor="start" x="158" y="-66.5" font-family="Helvetica,sans-Serif" font-size="10.00">csv::internals::get</text>
<text text-anchor="middle" x="201.5" y="-55.5" font-family="Helvetica,sans-Serif" font-size="10.00">_csv_head</text>
</a>
</g>
</g>
<!-- Node1&#45;&gt;Node10 -->
<g id="edge9" class="edge">
<title>Node1&#45;&gt;Node10</title>
<path fill="none" stroke="midnightblue" d="M105.33,-79.04C116.45,-77.22 128.3,-75.29 139.73,-73.42"/>
<polygon fill="midnightblue" stroke="midnightblue" points="140.33,-76.87 149.64,-71.8 139.2,-69.96 140.33,-76.87"/>
</g>
<!-- Node3 -->
<g id="node3" class="node">
<title>Node3</title>
<g id="a_node3"><a xlink:href="namespacecsv_1_1internals.html#aaee53ac0be352fc9e886471ef2e1e113" target="_top" xlink:title=" ">
<polygon fill="none" stroke="black" points="304,-169.5 304,-199.5 435,-199.5 435,-169.5 304,-169.5"/>
<text text-anchor="start" x="312" y="-187.5" font-family="Helvetica,sans-Serif" font-size="10.00">csv::internals::calculate</text>
<text text-anchor="middle" x="369.5" y="-176.5" font-family="Helvetica,sans-Serif" font-size="10.00">_score</text>
</a>
</g>
</g>
<!-- Node2&#45;&gt;Node3 -->
<g id="edge2" class="edge">
<title>Node2&#45;&gt;Node3</title>
<path fill="none" stroke="midnightblue" d="M237.3,-127.59C262.64,-138.59 297.16,-153.56 324.43,-165.39"/>
<polygon fill="midnightblue" stroke="midnightblue" points="323.18,-168.66 333.75,-169.43 325.97,-162.24 323.18,-168.66"/>
</g>
<!-- Node8 -->
<g id="node8" class="node">
<title>Node8</title>
<g id="a_node8"><a xlink:href="classcsv_1_1CSVFormat.html#a9504d9b7629560dd25b0fa63bf665584" target="_top" xlink:title=" ">
<polygon fill="none" stroke="black" points="298,-102 298,-121 441,-121 441,-102 298,-102"/>
<text text-anchor="middle" x="369.5" y="-109" font-family="Helvetica,sans-Serif" font-size="10.00">csv::CSVFormat::delimiter</text>
</a>
</g>
</g>
<!-- Node2&#45;&gt;Node8 -->
<g id="edge7" class="edge">
<title>Node2&#45;&gt;Node8</title>
<path fill="none" stroke="midnightblue" d="M262.43,-112.14C270.71,-112.09 279.32,-112.04 287.89,-111.99"/>
<polygon fill="midnightblue" stroke="midnightblue" points="287.94,-115.49 297.92,-111.93 287.9,-108.49 287.94,-115.49"/>
</g>
<!-- Node4 -->
<g id="node4" class="node">
<title>Node4</title>
<g id="a_node4"><a xlink:href="classcsv_1_1internals_1_1StreamParser.html#a2c779b41c5b3395d191b0b39cd0ec8ef" target="_top" xlink:title=" ">
<polygon fill="none" stroke="black" points="484,-242.5 484,-272.5 636,-272.5 636,-242.5 484,-242.5"/>
<text text-anchor="start" x="492" y="-260.5" font-family="Helvetica,sans-Serif" font-size="10.00">csv::internals::StreamParser</text>
<text text-anchor="middle" x="560" y="-249.5" font-family="Helvetica,sans-Serif" font-size="10.00">::next</text>
</a>
</g>
</g>
<!-- Node3&#45;&gt;Node4 -->
<g id="edge3" class="edge">
<title>Node3&#45;&gt;Node4</title>
<path fill="none" stroke="midnightblue" d="M400.3,-199.64C421.38,-209.99 450.5,-223.59 477,-233.5 482.43,-235.53 488.11,-237.5 493.84,-239.38"/>
<polygon fill="midnightblue" stroke="midnightblue" points="492.91,-242.76 503.5,-242.46 495.03,-236.09 492.91,-242.76"/>
</g>
<!-- Node6 -->
<g id="node6" class="node">
<title>Node6</title>
<g id="a_node6"><a xlink:href="classcsv_1_1internals_1_1IBasicCSVParser.html#abb68865cdf144c1ed757523157bd531c" target="_top" xlink:title=" ">
<polygon fill="none" stroke="black" points="477,-193.5 477,-223.5 643,-223.5 643,-193.5 477,-193.5"/>
<text text-anchor="start" x="485" y="-211.5" font-family="Helvetica,sans-Serif" font-size="10.00">csv::internals::IBasicCSVParser</text>
<text text-anchor="middle" x="560" y="-200.5" font-family="Helvetica,sans-Serif" font-size="10.00">::set_output</text>
</a>
</g>
</g>
<!-- Node3&#45;&gt;Node6 -->
<g id="edge5" class="edge">
<title>Node3&#45;&gt;Node6</title>
<path fill="none" stroke="midnightblue" d="M435.11,-192.73C445.28,-194.02 455.97,-195.38 466.63,-196.74"/>
<polygon fill="midnightblue" stroke="midnightblue" points="466.46,-200.25 476.82,-198.04 467.34,-193.3 466.46,-200.25"/>
</g>
<!-- Node7 -->
<g id="node7" class="node">
<title>Node7</title>
<g id="a_node7"><a xlink:href="classcsv_1_1internals_1_1ThreadSafeDeque.html#a7eae23568306e68f407a05963e8585ff" target="_top" xlink:title=" ">
<polygon fill="none" stroke="black" points="488.5,-144.5 488.5,-174.5 631.5,-174.5 631.5,-144.5 488.5,-144.5"/>
<text text-anchor="start" x="496.5" y="-162.5" font-family="Helvetica,sans-Serif" font-size="10.00">csv::internals::ThreadSafe</text>
<text text-anchor="middle" x="560" y="-151.5" font-family="Helvetica,sans-Serif" font-size="10.00">Deque::size</text>
</a>
</g>
</g>
<!-- Node3&#45;&gt;Node7 -->
<g id="edge6" class="edge">
<title>Node3&#45;&gt;Node7</title>
<path fill="none" stroke="midnightblue" d="M435.11,-175.93C449.05,-174.08 463.95,-172.11 478.42,-170.19"/>
<polygon fill="midnightblue" stroke="midnightblue" points="478.89,-173.65 488.35,-168.87 477.97,-166.72 478.89,-173.65"/>
</g>
<!-- Node5 -->
<g id="node5" class="node">
<title>Node5</title>
<g id="a_node5"><a xlink:href="namespacecsv.html#a46864187c1f0bd79fc006694aba84cc2" target="_top" xlink:title=" ">
<polygon fill="none" stroke="black" points="679,-248 679,-267 744,-267 744,-248 679,-248"/>
<text text-anchor="middle" x="711.5" y="-255" font-family="Helvetica,sans-Serif" font-size="10.00">csv::parse</text>
</a>
</g>
</g>
<!-- Node4&#45;&gt;Node5 -->
<g id="edge4" class="edge">
<title>Node4&#45;&gt;Node5</title>
<path fill="none" stroke="midnightblue" d="M636.19,-257.5C647.3,-257.5 658.41,-257.5 668.52,-257.5"/>
<polygon fill="midnightblue" stroke="midnightblue" points="668.65,-261 678.65,-257.5 668.65,-254 668.65,-261"/>
</g>
<!-- Node9 -->
<g id="node9" class="node">
<title>Node9</title>
<g id="a_node9"><a xlink:href="classcsv_1_1CSVFormat.html#a6c2b638db04f164d781df7b2a4840a20" target="_top" xlink:title=" ">
<polygon fill="none" stroke="black" points="496,-95.5 496,-125.5 624,-125.5 624,-95.5 496,-95.5"/>
<text text-anchor="start" x="504" y="-113.5" font-family="Helvetica,sans-Serif" font-size="10.00">csv::CSVFormat::assert</text>
<text text-anchor="middle" x="560" y="-102.5" font-family="Helvetica,sans-Serif" font-size="10.00">_no_char_overlap</text>
</a>
</g>
</g>
<!-- Node8&#45;&gt;Node9 -->
<g id="edge8" class="edge">
<title>Node8&#45;&gt;Node9</title>
<path fill="none" stroke="midnightblue" d="M441.23,-111.12C455.83,-111.05 471.23,-110.97 485.91,-110.89"/>
<polygon fill="midnightblue" stroke="midnightblue" points="485.96,-114.39 495.94,-110.83 485.92,-107.39 485.96,-114.39"/>
</g>
<!-- Node11 -->
<g id="node11" class="node">
<title>Node11</title>
<g id="a_node11"><a xlink:href="namespacecsv_1_1internals.html#a9e94234c3ac25b454cfafd4fa4b1ed8c" target="_top" xlink:title=" ">
<polygon fill="none" stroke="black" points="318,-49.5 318,-79.5 421,-79.5 421,-49.5 318,-49.5"/>
<text text-anchor="start" x="326" y="-67.5" font-family="Helvetica,sans-Serif" font-size="10.00">csv::internals::get</text>
<text text-anchor="middle" x="369.5" y="-56.5" font-family="Helvetica,sans-Serif" font-size="10.00">_csv_head</text>
</a>
</g>
</g>
<!-- Node10&#45;&gt;Node11 -->
<g id="edge10" class="edge">
<title>Node10&#45;&gt;Node11</title>
<path fill="none" stroke="midnightblue" d="M253.21,-63.81C270.42,-63.91 289.84,-64.03 307.75,-64.13"/>
<polygon fill="midnightblue" stroke="midnightblue" points="307.8,-67.63 317.82,-64.19 307.84,-60.63 307.8,-67.63"/>
</g>
<!-- Node13 -->
<g id="node13" class="node">
<title>Node13</title>
<g id="a_node13"><a xlink:href="namespacecsv_1_1internals.html#ab276fd6e6dee073f97858e46836fb2fd" target="_top" xlink:title=" ">
<polygon fill="none" stroke="black" points="318,-0.5 318,-30.5 421,-30.5 421,-0.5 318,-0.5"/>
<text text-anchor="start" x="326" y="-18.5" font-family="Helvetica,sans-Serif" font-size="10.00">csv::internals::get</text>
<text text-anchor="middle" x="369.5" y="-7.5" font-family="Helvetica,sans-Serif" font-size="10.00">_file_size</text>
</a>
</g>
</g>
<!-- Node10&#45;&gt;Node13 -->
<g id="edge12" class="edge">
<title>Node10&#45;&gt;Node13</title>
<path fill="none" stroke="midnightblue" d="M253.21,-48.84C270.5,-43.84 290.02,-38.19 308,-32.99"/>
<polygon fill="midnightblue" stroke="midnightblue" points="309.18,-36.3 317.82,-30.16 307.24,-29.57 309.18,-36.3"/>
</g>
<!-- Node12 -->
<g id="node12" class="node">
<title>Node12</title>
<g id="a_node12"><a xlink:href="namespacemio.html#a457598aac30b946c47c282a70d18b029" target="_top" xlink:title=" ">
<polygon fill="none" stroke="black" points="488.5,-55 488.5,-74 631.5,-74 631.5,-55 488.5,-55"/>
<text text-anchor="middle" x="560" y="-62" font-family="Helvetica,sans-Serif" font-size="10.00">mio::make_mmap_source</text>
</a>
</g>
</g>
<!-- Node11&#45;&gt;Node12 -->
<g id="edge11" class="edge">
<title>Node11&#45;&gt;Node12</title>
<path fill="none" stroke="midnightblue" d="M421.01,-64.5C438.57,-64.5 458.72,-64.5 478.1,-64.5"/>
<polygon fill="midnightblue" stroke="midnightblue" points="478.15,-68 488.15,-64.5 478.15,-61 478.15,-68"/>
</g>
</g>
</svg>
