<?xml version="1.0" encoding="UTF-8" standalone="no"?>
<!DOCTYPE svg PUBLIC "-//W3C//DTD SVG 1.1//EN"
 "http://www.w3.org/Graphics/SVG/1.1/DTD/svg11.dtd">
<!-- Generated by graphviz version 2.43.0 (0)
 -->
<!-- Title: csv::get_col_pos Pages: 1 -->
<svg width="430pt" height="39pt"
 viewBox="0.00 0.00 430.00 39.00" xmlns="http://www.w3.org/2000/svg" xmlns:xlink="http://www.w3.org/1999/xlink">
<g id="graph0" class="graph" transform="scale(1 1) rotate(0) translate(4 35)">
<title>csv::get_col_pos</title>
<!-- Node1 -->
<g id="node1" class="node">
<title>Node1</title>
<g id="a_node1"><a xlink:title=" ">
<polygon fill="#bfbfbf" stroke="black" points="0,-6 0,-25 96,-25 96,-6 0,-6"/>
<text text-anchor="middle" x="48" y="-13" font-family="Helvetica,sans-Serif" font-size="10.00">csv::get_col_pos</text>
</a>
</g>
</g>
<!-- Node2 -->
<g id="node2" class="node">
<title>Node2</title>
<g id="a_node2"><a xlink:href="classcsv_1_1CSVReader.html#ad38b045a4cb00b8ceb4ef2bbe32fbb54" target="_top" xlink:title=" ">
<polygon fill="none" stroke="black" points="132,-6 132,-25 272,-25 272,-6 132,-6"/>
<text text-anchor="middle" x="202" y="-13" font-family="Helvetica,sans-Serif" font-size="10.00">csv::CSVReader::index_of</text>
</a>
</g>
</g>
<!-- Node1&#45;&gt;Node2 -->
<g id="edge1" class="edge">
<title>Node1&#45;&gt;Node2</title>
<path fill="none" stroke="midnightblue" d="M96.26,-15.5C104.34,-15.5 112.93,-15.5 121.58,-15.5"/>
<polygon fill="midnightblue" stroke="midnightblue" points="121.73,-19 131.73,-15.5 121.73,-12 121.73,-19"/>
</g>
<!-- Node3 -->
<g id="node3" class="node">
<title>Node3</title>
<g id="a_node3"><a xlink:href="classcsv_1_1CSVReader.html#aeeb5816bd38e0139b6eecd8df567a495" target="_top" xlink:title=" ">
<polygon fill="none" stroke="black" points="308,-0.5 308,-30.5 422,-30.5 422,-0.5 308,-0.5"/>
<text text-anchor="start" x="316" y="-18.5" font-family="Helvetica,sans-Serif" font-size="10.00">csv::CSVReader::get</text>
<text text-anchor="middle" x="365" y="-7.5" font-family="Helvetica,sans-Serif" font-size="10.00">_col_names</text>
</a>
</g>
</g>
<!-- Node2&#45;&gt;Node3 -->
<g id="edge2" class="edge">
<title>Node2&#45;&gt;Node3</title>
<path fill="none" stroke="midnightblue" d="M272.21,-15.5C280.7,-15.5 289.35,-15.5 297.79,-15.5"/>
<polygon fill="midnightblue" stroke="midnightblue" points="297.94,-19 307.94,-15.5 297.94,-12 297.94,-19"/>
</g>
</g>
</svg>
