<?xml version="1.0" encoding="UTF-8" standalone="no"?>
<!DOCTYPE svg PUBLIC "-//W3C//DTD SVG 1.1//EN"
 "http://www.w3.org/Graphics/SVG/1.1/DTD/svg11.dtd">
<!-- Generated by graphviz version 2.43.0 (0)
 -->
<!-- Title: nmbuflowtorch::autoencoder_train Pages: 1 -->
<svg width="1067pt" height="392pt"
 viewBox="0.00 0.00 1067.00 391.50" xmlns="http://www.w3.org/2000/svg" xmlns:xlink="http://www.w3.org/1999/xlink">
<g id="graph0" class="graph" transform="scale(1 1) rotate(0) translate(4 387.5)">
<title>nmbuflowtorch::autoencoder_train</title>
<!-- Node1 -->
<g id="node1" class="node">
<title>Node1</title>
<g id="a_node1"><a xlink:title=" ">
<polygon fill="#bfbfbf" stroke="black" points="0,-167.5 0,-197.5 156,-197.5 156,-167.5 0,-167.5"/>
<text text-anchor="start" x="8" y="-185.5" font-family="Helvetica,sans-Serif" font-size="10.00">nmbuflowtorch::autoencoder</text>
<text text-anchor="middle" x="78" y="-174.5" font-family="Helvetica,sans-Serif" font-size="10.00">_train</text>
</a>
</g>
</g>
<!-- Node2 -->
<g id="node2" class="node">
<title>Node2</title>
<g id="a_node2"><a xlink:href="math__m_8hpp.html#a865612d5242acd6df03de7439506403d" target="_top" xlink:title="Calculates the accuracy score for a given set of true and predicted labels.">
<polygon fill="none" stroke="black" points="203.5,-364 203.5,-383 332.5,-383 332.5,-364 203.5,-364"/>
<text text-anchor="middle" x="268" y="-371" font-family="Helvetica,sans-Serif" font-size="10.00">accuracy_score_matrix</text>
</a>
</g>
</g>
<!-- Node1&#45;&gt;Node2 -->
<g id="edge1" class="edge">
<title>Node1&#45;&gt;Node2</title>
<path fill="none" stroke="midnightblue" d="M84.5,-197.64C97.56,-231.38 133.79,-313.05 192,-354.5 194.74,-356.45 197.65,-358.2 200.69,-359.77"/>
<polygon fill="midnightblue" stroke="midnightblue" points="199.53,-363.08 210.09,-363.96 202.38,-356.69 199.53,-363.08"/>
</g>
<!-- Node4 -->
<g id="node4" class="node">
<title>Node4</title>
<g id="a_node4"><a xlink:href="classnmbuflowtorch_1_1Network.html#aa1d574b1f7daac023f4917887dd05ead" target="_top" xlink:title="Adds a layer to the network.">
<polygon fill="none" stroke="black" points="199.5,-314.5 199.5,-344.5 336.5,-344.5 336.5,-314.5 199.5,-314.5"/>
<text text-anchor="start" x="207.5" y="-332.5" font-family="Helvetica,sans-Serif" font-size="10.00">nmbuflowtorch::Network</text>
<text text-anchor="middle" x="268" y="-321.5" font-family="Helvetica,sans-Serif" font-size="10.00">::add_layer</text>
</a>
</g>
</g>
<!-- Node1&#45;&gt;Node4 -->
<g id="edge3" class="edge">
<title>Node1&#45;&gt;Node4</title>
<path fill="none" stroke="midnightblue" d="M88.96,-197.71C106.66,-223.57 146.07,-276.14 192,-305.5 194.57,-307.14 197.25,-308.68 200.02,-310.12"/>
<polygon fill="midnightblue" stroke="midnightblue" points="198.55,-313.29 209.09,-314.38 201.53,-306.96 198.55,-313.29"/>
</g>
<!-- Node5 -->
<g id="node5" class="node">
<title>Node5</title>
<g id="a_node5"><a xlink:href="classnmbuflowtorch_1_1Network.html#a7a86be4bc0c3901a48cfb70b286ec363" target="_top" xlink:title="Adds a loss function to the network.">
<polygon fill="none" stroke="black" points="199.5,-265.5 199.5,-295.5 336.5,-295.5 336.5,-265.5 199.5,-265.5"/>
<text text-anchor="start" x="207.5" y="-283.5" font-family="Helvetica,sans-Serif" font-size="10.00">nmbuflowtorch::Network</text>
<text text-anchor="middle" x="268" y="-272.5" font-family="Helvetica,sans-Serif" font-size="10.00">::add_loss</text>
</a>
</g>
</g>
<!-- Node1&#45;&gt;Node5 -->
<g id="edge4" class="edge">
<title>Node1&#45;&gt;Node5</title>
<path fill="none" stroke="midnightblue" d="M98.44,-197.59C120.23,-213.92 157.07,-239.85 192,-256.5 196,-258.4 200.18,-260.21 204.44,-261.91"/>
<polygon fill="midnightblue" stroke="midnightblue" points="203.26,-265.21 213.85,-265.47 205.74,-258.66 203.26,-265.21"/>
</g>
<!-- Node6 -->
<g id="node6" class="node">
<title>Node6</title>
<g id="a_node6"><a xlink:href="classnmbuflowtorch_1_1Network.html#a1120a4649f5317ab85b7fd0124f91f75" target="_top" xlink:title="Adds an optimizer to the network.">
<polygon fill="none" stroke="black" points="199.5,-216.5 199.5,-246.5 336.5,-246.5 336.5,-216.5 199.5,-216.5"/>
<text text-anchor="start" x="207.5" y="-234.5" font-family="Helvetica,sans-Serif" font-size="10.00">nmbuflowtorch::Network</text>
<text text-anchor="middle" x="268" y="-223.5" font-family="Helvetica,sans-Serif" font-size="10.00">::add_optimizer</text>
</a>
</g>
</g>
<!-- Node1&#45;&gt;Node6 -->
<g id="edge5" class="edge">
<title>Node1&#45;&gt;Node6</title>
<path fill="none" stroke="midnightblue" d="M136.68,-197.53C156.53,-202.71 178.94,-208.55 199.5,-213.91"/>
<polygon fill="midnightblue" stroke="midnightblue" points="198.87,-217.36 209.43,-216.49 200.63,-210.58 198.87,-217.36"/>
</g>
<!-- Node7 -->
<g id="node7" class="node">
<title>Node7</title>
<g id="a_node7"><a xlink:href="classnmbuflowtorch_1_1Network.html#ae404b65188cb291b22ec494bb270bec2" target="_top" xlink:title=" ">
<polygon fill="none" stroke="black" points="199.5,-167.5 199.5,-197.5 336.5,-197.5 336.5,-167.5 199.5,-167.5"/>
<text text-anchor="start" x="207.5" y="-185.5" font-family="Helvetica,sans-Serif" font-size="10.00">nmbuflowtorch::Network</text>
<text text-anchor="middle" x="268" y="-174.5" font-family="Helvetica,sans-Serif" font-size="10.00">::delete_net</text>
</a>
</g>
</g>
<!-- Node1&#45;&gt;Node7 -->
<g id="edge6" class="edge">
<title>Node1&#45;&gt;Node7</title>
<path fill="none" stroke="midnightblue" d="M156.01,-182.5C167.03,-182.5 178.38,-182.5 189.42,-182.5"/>
<polygon fill="midnightblue" stroke="midnightblue" points="189.45,-186 199.45,-182.5 189.45,-179 189.45,-186"/>
</g>
<!-- Node8 -->
<g id="node8" class="node">
<title>Node8</title>
<g id="a_node8"><a xlink:href="classnmbuflowtorch_1_1Network.html#a8cff72188a6f4b0d13c8b7474eec1ca3" target="_top" xlink:title="Fit model to data provided.">
<polygon fill="none" stroke="black" points="192,-129 192,-148 344,-148 344,-129 192,-129"/>
<text text-anchor="middle" x="268" y="-136" font-family="Helvetica,sans-Serif" font-size="10.00">nmbuflowtorch::Network::fit</text>
</a>
</g>
</g>
<!-- Node1&#45;&gt;Node8 -->
<g id="edge7" class="edge">
<title>Node1&#45;&gt;Node8</title>
<path fill="none" stroke="midnightblue" d="M143.17,-167.48C167.06,-161.89 193.82,-155.63 216.34,-150.36"/>
<polygon fill="midnightblue" stroke="midnightblue" points="217.42,-153.7 226.36,-148.01 215.82,-146.88 217.42,-153.7"/>
</g>
<!-- Node16 -->
<g id="node16" class="node">
<title>Node16</title>
<g id="a_node16"><a xlink:href="classnmbuflowtorch_1_1Network.html#a47b0ad164e645c60f736f60f87827900" target="_top" xlink:title="Returns the value from the last layer.">
<polygon fill="none" stroke="black" points="922,-107.5 922,-137.5 1059,-137.5 1059,-107.5 922,-107.5"/>
<text text-anchor="start" x="930" y="-125.5" font-family="Helvetica,sans-Serif" font-size="10.00">nmbuflowtorch::Network</text>
<text text-anchor="middle" x="990.5" y="-114.5" font-family="Helvetica,sans-Serif" font-size="10.00">::output</text>
</a>
</g>
</g>
<!-- Node1&#45;&gt;Node16 -->
<g id="edge22" class="edge">
<title>Node1&#45;&gt;Node16</title>
<path fill="none" stroke="midnightblue" d="M91.79,-167.33C111.05,-145.68 149.75,-106.53 192,-88.5 297.11,-43.63 333.22,-59.5 447.5,-59.5 447.5,-59.5 447.5,-59.5 634,-59.5 746.32,-59.5 776.86,-51.95 886,-78.5 908.66,-84.01 932.71,-93.96 951.92,-103"/>
<polygon fill="midnightblue" stroke="midnightblue" points="950.4,-106.16 960.93,-107.35 953.44,-99.85 950.4,-106.16"/>
</g>
<!-- Node17 -->
<g id="node17" class="node">
<title>Node17</title>
<g id="a_node17"><a xlink:href="classnmbuflowtorch_1_1Network.html#ae6cd135a052cc1526b34bb4144ae58b6" target="_top" xlink:title=" ">
<polygon fill="none" stroke="black" points="749,-88.5 749,-118.5 886,-118.5 886,-88.5 749,-88.5"/>
<text text-anchor="start" x="757" y="-106.5" font-family="Helvetica,sans-Serif" font-size="10.00">nmbuflowtorch::Network</text>
<text text-anchor="middle" x="817.5" y="-95.5" font-family="Helvetica,sans-Serif" font-size="10.00">::forward</text>
</a>
</g>
</g>
<!-- Node1&#45;&gt;Node17 -->
<g id="edge21" class="edge">
<title>Node1&#45;&gt;Node17</title>
<path fill="none" stroke="midnightblue" d="M98.92,-167.42C120.53,-152.06 156.69,-129.16 192,-119.5 382.84,-67.28 618.83,-81.36 738.7,-93.77"/>
<polygon fill="midnightblue" stroke="midnightblue" points="738.57,-97.27 748.88,-94.85 739.31,-90.31 738.57,-97.27"/>
</g>
<!-- Node20 -->
<g id="node20" class="node">
<title>Node20</title>
<g id="a_node20"><a xlink:href="classnmbuflowtorch_1_1layer_1_1Dense.html#a1b343ab594510f4ab93c9c292b5a5123" target="_top" xlink:title="Get the output dimension of the dense layer.">
<polygon fill="none" stroke="black" points="208,-0.5 208,-30.5 328,-30.5 328,-0.5 208,-0.5"/>
<text text-anchor="start" x="216" y="-18.5" font-family="Helvetica,sans-Serif" font-size="10.00">nmbuflowtorch::layer</text>
<text text-anchor="middle" x="268" y="-7.5" font-family="Helvetica,sans-Serif" font-size="10.00">::Dense::output_dim</text>
</a>
</g>
</g>
<!-- Node1&#45;&gt;Node20 -->
<g id="edge23" class="edge">
<title>Node1&#45;&gt;Node20</title>
<path fill="none" stroke="midnightblue" d="M87.96,-167.21C104.95,-139.4 144.44,-80.23 192,-45.5 197.4,-41.55 203.4,-38.04 209.57,-34.93"/>
<polygon fill="midnightblue" stroke="midnightblue" points="211.13,-38.06 218.7,-30.66 208.16,-31.72 211.13,-38.06"/>
</g>
<!-- Node3 -->
<g id="node3" class="node">
<title>Node3</title>
<g id="a_node3"><a xlink:href="math__m_8hpp.html#aebe2ab42fdbc00b9e3afb06ba7d536c3" target="_top" xlink:title="Applies a binary cutoff to a given float value.">
<polygon fill="none" stroke="black" points="408.5,-364 408.5,-383 488.5,-383 488.5,-364 408.5,-364"/>
<text text-anchor="middle" x="448.5" y="-371" font-family="Helvetica,sans-Serif" font-size="10.00">binary_cutoff</text>
</a>
</g>
</g>
<!-- Node2&#45;&gt;Node3 -->
<g id="edge2" class="edge">
<title>Node2&#45;&gt;Node3</title>
<path fill="none" stroke="midnightblue" d="M332.69,-373.5C354.17,-373.5 377.82,-373.5 398.04,-373.5"/>
<polygon fill="midnightblue" stroke="midnightblue" points="398.27,-377 408.27,-373.5 398.27,-370 398.27,-377"/>
</g>
<!-- Node9 -->
<g id="node9" class="node">
<title>Node9</title>
<g id="a_node9"><a xlink:href="math__m_8hpp.html#a00222de08fb54dc0423e29cc610d1f0c" target="_top" xlink:title="Shuffles a dataset by creating a permutation matrix from a given vector of indices and applying it to...">
<polygon fill="none" stroke="black" points="410,-129 410,-148 487,-148 487,-129 410,-129"/>
<text text-anchor="middle" x="448.5" y="-136" font-family="Helvetica,sans-Serif" font-size="10.00">shuffle_data</text>
</a>
</g>
</g>
<!-- Node8&#45;&gt;Node9 -->
<g id="edge8" class="edge">
<title>Node8&#45;&gt;Node9</title>
<path fill="none" stroke="midnightblue" d="M344.18,-138.5C362.96,-138.5 382.59,-138.5 399.64,-138.5"/>
<polygon fill="midnightblue" stroke="midnightblue" points="399.89,-142 409.88,-138.5 399.88,-135 399.89,-142"/>
</g>
<!-- Node10 -->
<g id="node10" class="node">
<title>Node10</title>
<g id="a_node10"><a xlink:href="classnmbuflowtorch_1_1Network.html#ab4decd5644c172b3ade967496bf64f7b" target="_top" xlink:title="Trains all batches in X and y for one epoch.">
<polygon fill="none" stroke="black" points="380,-173.5 380,-203.5 517,-203.5 517,-173.5 380,-173.5"/>
<text text-anchor="start" x="388" y="-191.5" font-family="Helvetica,sans-Serif" font-size="10.00">nmbuflowtorch::Network</text>
<text text-anchor="middle" x="448.5" y="-180.5" font-family="Helvetica,sans-Serif" font-size="10.00">::train_one_epoch</text>
</a>
</g>
</g>
<!-- Node8&#45;&gt;Node10 -->
<g id="edge9" class="edge">
<title>Node8&#45;&gt;Node10</title>
<path fill="none" stroke="midnightblue" d="M305.28,-148.01C317.59,-151.28 331.41,-155 344,-158.5 357.78,-162.33 372.56,-166.55 386.51,-170.59"/>
<polygon fill="midnightblue" stroke="midnightblue" points="385.92,-174.06 396.5,-173.48 387.87,-167.33 385.92,-174.06"/>
</g>
<!-- Node11 -->
<g id="node11" class="node">
<title>Node11</title>
<g id="a_node11"><a xlink:href="namespacenmbuflowtorch.html#a6841de6f2ac014f91c37f7f2c0e9cc1e" target="_top" xlink:title="Prints a progress bar to the console.">
<polygon fill="none" stroke="black" points="553,-223 553,-242 713,-242 713,-223 553,-223"/>
<text text-anchor="middle" x="633" y="-230" font-family="Helvetica,sans-Serif" font-size="10.00">nmbuflowtorch::printProgress</text>
</a>
</g>
</g>
<!-- Node10&#45;&gt;Node11 -->
<g id="edge10" class="edge">
<title>Node10&#45;&gt;Node11</title>
<path fill="none" stroke="midnightblue" d="M511.62,-203.51C525.25,-206.81 539.61,-210.27 553,-213.5 562.47,-215.78 572.57,-218.21 582.28,-220.55"/>
<polygon fill="midnightblue" stroke="midnightblue" points="581.67,-224 592.21,-222.94 583.31,-217.2 581.67,-224"/>
</g>
<!-- Node12 -->
<g id="node12" class="node">
<title>Node12</title>
<g id="a_node12"><a xlink:href="classnmbuflowtorch_1_1Network.html#ac5f07dc09b1d352567d6cbcc3c38c010" target="_top" xlink:title="Forward, backward, and update functions combined for one batch of data.">
<polygon fill="none" stroke="black" points="564.5,-173.5 564.5,-203.5 701.5,-203.5 701.5,-173.5 564.5,-173.5"/>
<text text-anchor="start" x="572.5" y="-191.5" font-family="Helvetica,sans-Serif" font-size="10.00">nmbuflowtorch::Network</text>
<text text-anchor="middle" x="633" y="-180.5" font-family="Helvetica,sans-Serif" font-size="10.00">::train_batch</text>
</a>
</g>
</g>
<!-- Node10&#45;&gt;Node12 -->
<g id="edge11" class="edge">
<title>Node10&#45;&gt;Node12</title>
<path fill="none" stroke="midnightblue" d="M517.2,-188.5C529.24,-188.5 541.88,-188.5 554.18,-188.5"/>
<polygon fill="midnightblue" stroke="midnightblue" points="554.41,-192 564.41,-188.5 554.41,-185 554.41,-192"/>
</g>
<!-- Node13 -->
<g id="node13" class="node">
<title>Node13</title>
<g id="a_node13"><a xlink:href="classnmbuflowtorch_1_1Network.html#ad2626aa7216689fadfa4469273de8c90" target="_top" xlink:title="Using X input and y target, back propagates the loss gradient.">
<polygon fill="none" stroke="black" points="749,-176.5 749,-206.5 886,-206.5 886,-176.5 749,-176.5"/>
<text text-anchor="start" x="757" y="-194.5" font-family="Helvetica,sans-Serif" font-size="10.00">nmbuflowtorch::Network</text>
<text text-anchor="middle" x="817.5" y="-183.5" font-family="Helvetica,sans-Serif" font-size="10.00">::backward</text>
</a>
</g>
</g>
<!-- Node12&#45;&gt;Node13 -->
<g id="edge12" class="edge">
<title>Node12&#45;&gt;Node13</title>
<path fill="none" stroke="midnightblue" d="M701.7,-189.61C713.74,-189.81 726.38,-190.02 738.68,-190.22"/>
<polygon fill="midnightblue" stroke="midnightblue" points="738.86,-193.72 748.91,-190.39 738.97,-186.72 738.86,-193.72"/>
</g>
<!-- Node12&#45;&gt;Node16 -->
<g id="edge19" class="edge">
<title>Node12&#45;&gt;Node16</title>
<path fill="none" stroke="midnightblue" d="M701.7,-175.93C761.65,-164.8 849.14,-148.56 911.89,-136.91"/>
<polygon fill="midnightblue" stroke="midnightblue" points="912.55,-140.35 921.75,-135.08 911.28,-133.46 912.55,-140.35"/>
</g>
<!-- Node12&#45;&gt;Node17 -->
<g id="edge16" class="edge">
<title>Node12&#45;&gt;Node17</title>
<path fill="none" stroke="midnightblue" d="M665.13,-173.32C688.2,-162.15 720.46,-146.66 749,-133.5 756.7,-129.95 764.93,-126.23 772.89,-122.67"/>
<polygon fill="midnightblue" stroke="midnightblue" points="774.37,-125.84 782.08,-118.58 771.52,-119.45 774.37,-125.84"/>
</g>
<!-- Node18 -->
<g id="node18" class="node">
<title>Node18</title>
<g id="a_node18"><a xlink:href="classnmbuflowtorch_1_1Loss.html#a5747f962c29f0e1a6147c435da22c466" target="_top" xlink:title="Returns the value of the loss.">
<polygon fill="none" stroke="black" points="759,-274.5 759,-304.5 876,-304.5 876,-274.5 759,-274.5"/>
<text text-anchor="start" x="767" y="-292.5" font-family="Helvetica,sans-Serif" font-size="10.00">nmbuflowtorch::Loss</text>
<text text-anchor="middle" x="817.5" y="-281.5" font-family="Helvetica,sans-Serif" font-size="10.00">::output</text>
</a>
</g>
</g>
<!-- Node12&#45;&gt;Node18 -->
<g id="edge18" class="edge">
<title>Node12&#45;&gt;Node18</title>
<path fill="none" stroke="midnightblue" d="M695.92,-203.62C701.97,-206.39 707.79,-209.66 713,-213.5 735.62,-230.19 726.68,-248.41 749,-265.5 750.81,-266.88 752.7,-268.19 754.65,-269.43"/>
<polygon fill="midnightblue" stroke="midnightblue" points="753.14,-272.59 763.58,-274.4 756.55,-266.47 753.14,-272.59"/>
</g>
<!-- Node19 -->
<g id="node19" class="node">
<title>Node19</title>
<g id="a_node19"><a xlink:href="classnmbuflowtorch_1_1Network.html#ab4dcbf1de529e005b2eb4c31b8cbd552" target="_top" xlink:title=" ">
<polygon fill="none" stroke="black" points="749,-225.5 749,-255.5 886,-255.5 886,-225.5 749,-225.5"/>
<text text-anchor="start" x="757" y="-243.5" font-family="Helvetica,sans-Serif" font-size="10.00">nmbuflowtorch::Network</text>
<text text-anchor="middle" x="817.5" y="-232.5" font-family="Helvetica,sans-Serif" font-size="10.00">::update</text>
</a>
</g>
</g>
<!-- Node12&#45;&gt;Node19 -->
<g id="edge20" class="edge">
<title>Node12&#45;&gt;Node19</title>
<path fill="none" stroke="midnightblue" d="M686.79,-203.54C707.78,-209.52 732.11,-216.45 753.98,-222.69"/>
<polygon fill="midnightblue" stroke="midnightblue" points="753.26,-226.12 763.83,-225.49 755.17,-219.39 753.26,-226.12"/>
</g>
<!-- Node14 -->
<g id="node14" class="node">
<title>Node14</title>
<g id="a_node14"><a xlink:href="classnmbuflowtorch_1_1Loss.html#a29688f70477ce9f630cb313cc7e4c365" target="_top" xlink:title="Returns the gradient with respect to the input of the loss function.">
<polygon fill="none" stroke="black" points="932,-166.5 932,-196.5 1049,-196.5 1049,-166.5 932,-166.5"/>
<text text-anchor="start" x="940" y="-184.5" font-family="Helvetica,sans-Serif" font-size="10.00">nmbuflowtorch::Loss</text>
<text text-anchor="middle" x="990.5" y="-173.5" font-family="Helvetica,sans-Serif" font-size="10.00">::back_gradient</text>
</a>
</g>
</g>
<!-- Node13&#45;&gt;Node14 -->
<g id="edge13" class="edge">
<title>Node13&#45;&gt;Node14</title>
<path fill="none" stroke="midnightblue" d="M886.08,-187.55C897.78,-186.86 909.95,-186.15 921.65,-185.47"/>
<polygon fill="midnightblue" stroke="midnightblue" points="922.01,-188.95 931.79,-184.87 921.61,-181.96 922.01,-188.95"/>
</g>
<!-- Node15 -->
<g id="node15" class="node">
<title>Node15</title>
<g id="a_node15"><a xlink:href="classnmbuflowtorch_1_1Loss.html#ab739a047ffc84f44af71832ec704cedc" target="_top" xlink:title="Evaluates the loss function given the predicted and target values.">
<polygon fill="none" stroke="black" points="932,-215.5 932,-245.5 1049,-245.5 1049,-215.5 932,-215.5"/>
<text text-anchor="start" x="940" y="-233.5" font-family="Helvetica,sans-Serif" font-size="10.00">nmbuflowtorch::Loss</text>
<text text-anchor="middle" x="990.5" y="-222.5" font-family="Helvetica,sans-Serif" font-size="10.00">::eval</text>
</a>
</g>
</g>
<!-- Node13&#45;&gt;Node15 -->
<g id="edge14" class="edge">
<title>Node13&#45;&gt;Node15</title>
<path fill="none" stroke="midnightblue" d="M884.61,-206.58C896.92,-209.39 909.8,-212.32 922.15,-215.14"/>
<polygon fill="midnightblue" stroke="midnightblue" points="921.39,-218.56 931.91,-217.37 922.94,-211.73 921.39,-218.56"/>
</g>
<!-- Node13&#45;&gt;Node16 -->
<g id="edge15" class="edge">
<title>Node13&#45;&gt;Node16</title>
<path fill="none" stroke="midnightblue" d="M856.03,-176.36C881.53,-166.07 915.45,-152.38 942.72,-141.38"/>
<polygon fill="midnightblue" stroke="midnightblue" points="944.1,-144.59 952.06,-137.61 941.48,-138.1 944.1,-144.59"/>
</g>
<!-- Node17&#45;&gt;Node16 -->
<g id="edge17" class="edge">
<title>Node17&#45;&gt;Node16</title>
<path fill="none" stroke="midnightblue" d="M886.08,-111.01C894.54,-111.95 903.24,-112.92 911.83,-113.87"/>
<polygon fill="midnightblue" stroke="midnightblue" points="911.52,-117.36 921.85,-114.98 912.29,-110.4 911.52,-117.36"/>
</g>
</g>
</svg>
