<?xml version="1.0" encoding="UTF-8" standalone="no"?>
<!DOCTYPE svg PUBLIC "-//W3C//DTD SVG 1.1//EN"
 "http://www.w3.org/Graphics/SVG/1.1/DTD/svg11.dtd">
<!-- Generated by graphviz version 2.43.0 (0)
 -->
<!-- Title: csv::get_col_names Pages: 1 -->
<svg width="950pt" height="402pt"
 viewBox="0.00 0.00 950.00 401.50" xmlns="http://www.w3.org/2000/svg" xmlns:xlink="http://www.w3.org/1999/xlink">
<g id="graph0" class="graph" transform="scale(1 1) rotate(0) translate(4 397.5)">
<title>csv::get_col_names</title>
<!-- Node1 -->
<g id="node1" class="node">
<title>Node1</title>
<g id="a_node1"><a xlink:title=" ">
<polygon fill="#bfbfbf" stroke="black" points="0,-137.5 0,-156.5 112,-156.5 112,-137.5 0,-137.5"/>
<text text-anchor="middle" x="56" y="-144.5" font-family="Helvetica,sans-Serif" font-size="10.00">csv::get_col_names</text>
</a>
</g>
</g>
<!-- Node2 -->
<g id="node2" class="node">
<title>Node2</title>
<g id="a_node2"><a xlink:href="namespacecsv_1_1internals.html#a8141f7dd3e353a145efe4ff073ddcc41" target="_top" xlink:title=" ">
<polygon fill="none" stroke="black" points="513.5,-265 513.5,-295 621.5,-295 621.5,-265 513.5,-265"/>
<text text-anchor="start" x="521.5" y="-283" font-family="Helvetica,sans-Serif" font-size="10.00">csv::internals::_get</text>
<text text-anchor="middle" x="567.5" y="-272" font-family="Helvetica,sans-Serif" font-size="10.00">_col_names</text>
</a>
</g>
</g>
<!-- Node1&#45;&gt;Node2 -->
<g id="edge1" class="edge">
<title>Node1&#45;&gt;Node2</title>
<path fill="none" stroke="midnightblue" d="M62.81,-156.7C75.43,-176.75 107.46,-222.48 148,-242 263.59,-297.66 417.85,-294.78 503.11,-287.52"/>
<polygon fill="midnightblue" stroke="midnightblue" points="503.52,-291 513.16,-286.62 502.89,-284.03 503.52,-291"/>
</g>
<!-- Node8 -->
<g id="node8" class="node">
<title>Node8</title>
<g id="a_node8"><a xlink:href="classcsv_1_1CSVFormat.html#a9504d9b7629560dd25b0fa63bf665584" target="_top" xlink:title=" ">
<polygon fill="none" stroke="black" points="496,-175.5 496,-194.5 639,-194.5 639,-175.5 496,-175.5"/>
<text text-anchor="middle" x="567.5" y="-182.5" font-family="Helvetica,sans-Serif" font-size="10.00">csv::CSVFormat::delimiter</text>
</a>
</g>
</g>
<!-- Node1&#45;&gt;Node8 -->
<g id="edge7" class="edge">
<title>Node1&#45;&gt;Node8</title>
<path fill="none" stroke="midnightblue" d="M112.27,-154.91C124.05,-156.42 136.42,-157.88 148,-159 265.15,-170.35 401.25,-177.73 485.64,-181.63"/>
<polygon fill="midnightblue" stroke="midnightblue" points="485.52,-185.13 495.67,-182.09 485.84,-178.14 485.52,-185.13"/>
</g>
<!-- Node10 -->
<g id="node10" class="node">
<title>Node10</title>
<g id="a_node10"><a xlink:href="namespacecsv_1_1internals.html#a897f697f6eff2db6e9011e0fc05ec959" target="_top" xlink:title=" ">
<polygon fill="none" stroke="black" points="348,-126 348,-156 451,-156 451,-126 348,-126"/>
<text text-anchor="start" x="356" y="-144" font-family="Helvetica,sans-Serif" font-size="10.00">csv::internals::get</text>
<text text-anchor="middle" x="399.5" y="-133" font-family="Helvetica,sans-Serif" font-size="10.00">_csv_head</text>
</a>
</g>
</g>
<!-- Node1&#45;&gt;Node10 -->
<g id="edge9" class="edge">
<title>Node1&#45;&gt;Node10</title>
<path fill="none" stroke="midnightblue" d="M112.25,-146.03C173.94,-144.95 273.5,-143.2 337.45,-142.07"/>
<polygon fill="midnightblue" stroke="midnightblue" points="337.85,-145.57 347.79,-141.89 337.73,-138.57 337.85,-145.57"/>
</g>
<!-- Node14 -->
<g id="node14" class="node">
<title>Node14</title>
<g id="a_node14"><a xlink:href="classcsv_1_1CSVFormat.html#a92a6dbcd76d1ea2fd66774815a768410" target="_top" xlink:title=" ">
<polygon fill="none" stroke="black" points="168.5,-88 168.5,-118 282.5,-118 282.5,-88 168.5,-88"/>
<text text-anchor="start" x="176.5" y="-106" font-family="Helvetica,sans-Serif" font-size="10.00">csv::CSVFormat::get</text>
<text text-anchor="middle" x="225.5" y="-95" font-family="Helvetica,sans-Serif" font-size="10.00">_possible_delims</text>
</a>
</g>
</g>
<!-- Node1&#45;&gt;Node14 -->
<g id="edge13" class="edge">
<title>Node1&#45;&gt;Node14</title>
<path fill="none" stroke="midnightblue" d="M93.35,-137.45C112.45,-132.43 136.47,-126.12 158.72,-120.28"/>
<polygon fill="midnightblue" stroke="midnightblue" points="159.67,-123.65 168.46,-117.72 157.89,-116.88 159.67,-123.65"/>
</g>
<!-- Node15 -->
<g id="node15" class="node">
<title>Node15</title>
<g id="a_node15"><a xlink:href="classcsv_1_1CSVFormat.html#a7e3bfc11c438a31d24e9f4375e0267e3" target="_top" xlink:title=" ">
<polygon fill="none" stroke="black" points="162,-39 162,-69 289,-69 289,-39 162,-39"/>
<text text-anchor="start" x="170" y="-57" font-family="Helvetica,sans-Serif" font-size="10.00">csv::CSVFormat::guess</text>
<text text-anchor="middle" x="225.5" y="-46" font-family="Helvetica,sans-Serif" font-size="10.00">_delim</text>
</a>
</g>
</g>
<!-- Node1&#45;&gt;Node15 -->
<g id="edge14" class="edge">
<title>Node1&#45;&gt;Node15</title>
<path fill="none" stroke="midnightblue" d="M67.11,-137.43C83.11,-122.75 115.76,-94.64 148,-78 151.52,-76.18 155.2,-74.48 158.96,-72.87"/>
<polygon fill="midnightblue" stroke="midnightblue" points="160.44,-76.05 168.44,-69.11 157.85,-69.55 160.44,-76.05"/>
</g>
<!-- Node16 -->
<g id="node16" class="node">
<title>Node16</title>
<g id="a_node16"><a xlink:href="namespacecsv.html#a9aeffa1fab00a7f431f9aa81719b44e5" target="_top" xlink:title=" ">
<polygon fill="none" stroke="black" points="173,-213.5 173,-232.5 278,-232.5 278,-213.5 173,-213.5"/>
<text text-anchor="middle" x="225.5" y="-220.5" font-family="Helvetica,sans-Serif" font-size="10.00">csv::guess_format</text>
</a>
</g>
</g>
<!-- Node1&#45;&gt;Node16 -->
<g id="edge15" class="edge">
<title>Node1&#45;&gt;Node16</title>
<path fill="none" stroke="midnightblue" d="M71.62,-156.67C89.19,-167.98 119.82,-186.7 148,-199 157.76,-203.26 168.53,-207.12 178.82,-210.44"/>
<polygon fill="midnightblue" stroke="midnightblue" points="177.91,-213.82 188.5,-213.44 179.99,-207.13 177.91,-213.82"/>
</g>
<!-- Node20 -->
<g id="node20" class="node">
<title>Node20</title>
<g id="a_node20"><a xlink:href="classcsv_1_1CSVFormat.html#a6134f19fbcee2e0437903706f818bd24" target="_top" xlink:title=" ">
<polygon fill="none" stroke="black" points="148,-0.5 148,-19.5 303,-19.5 303,-0.5 148,-0.5"/>
<text text-anchor="middle" x="225.5" y="-7.5" font-family="Helvetica,sans-Serif" font-size="10.00">csv::CSVFormat::header_row</text>
</a>
</g>
</g>
<!-- Node1&#45;&gt;Node20 -->
<g id="edge23" class="edge">
<title>Node1&#45;&gt;Node20</title>
<path fill="none" stroke="midnightblue" d="M61.6,-137.28C72.88,-114.53 104.25,-57.58 148,-29 151.16,-26.93 154.54,-25.09 158.04,-23.45"/>
<polygon fill="midnightblue" stroke="midnightblue" points="159.61,-26.58 167.54,-19.55 156.96,-20.11 159.61,-26.58"/>
</g>
<!-- Node3 -->
<g id="node3" class="node">
<title>Node3</title>
<g id="a_node3"><a xlink:href="classcsv_1_1CSVFormat.html#a0a6680eeb80979d2fba2b5d81cb3c92d" target="_top" xlink:title=" ">
<polygon fill="none" stroke="black" points="701,-314 701,-344 815,-344 815,-314 701,-314"/>
<text text-anchor="start" x="709" y="-332" font-family="Helvetica,sans-Serif" font-size="10.00">csv::CSVFormat::get</text>
<text text-anchor="middle" x="758" y="-321" font-family="Helvetica,sans-Serif" font-size="10.00">_header</text>
</a>
</g>
</g>
<!-- Node2&#45;&gt;Node3 -->
<g id="edge2" class="edge">
<title>Node2&#45;&gt;Node3</title>
<path fill="none" stroke="midnightblue" d="M621.51,-293.78C643.04,-299.38 668.15,-305.9 690.86,-311.81"/>
<polygon fill="midnightblue" stroke="midnightblue" points="690.21,-315.25 700.77,-314.38 691.97,-308.48 690.21,-315.25"/>
</g>
<!-- Node4 -->
<g id="node4" class="node">
<title>Node4</title>
<g id="a_node4"><a xlink:href="classcsv_1_1CSVFormat.html#a0ae3a30384d2442e5c058197b1dacd2c" target="_top" xlink:title=" ">
<polygon fill="none" stroke="black" points="701,-363 701,-393 815,-393 815,-363 701,-363"/>
<text text-anchor="start" x="709" y="-381" font-family="Helvetica,sans-Serif" font-size="10.00">csv::CSVFormat::get</text>
<text text-anchor="middle" x="758" y="-370" font-family="Helvetica,sans-Serif" font-size="10.00">_trim_chars</text>
</a>
</g>
</g>
<!-- Node2&#45;&gt;Node4 -->
<g id="edge3" class="edge">
<title>Node2&#45;&gt;Node4</title>
<path fill="none" stroke="midnightblue" d="M586.23,-295.03C606.51,-311.55 641.28,-337.88 675,-354 680.23,-356.5 685.77,-358.8 691.41,-360.89"/>
<polygon fill="midnightblue" stroke="midnightblue" points="690.36,-364.23 700.96,-364.23 692.67,-357.63 690.36,-364.23"/>
</g>
<!-- Node5 -->
<g id="node5" class="node">
<title>Node5</title>
<g id="a_node5"><a xlink:href="classcsv_1_1internals_1_1StreamParser.html#a2c779b41c5b3395d191b0b39cd0ec8ef" target="_top" xlink:title=" ">
<polygon fill="none" stroke="black" points="682,-265 682,-295 834,-295 834,-265 682,-265"/>
<text text-anchor="start" x="690" y="-283" font-family="Helvetica,sans-Serif" font-size="10.00">csv::internals::StreamParser</text>
<text text-anchor="middle" x="758" y="-272" font-family="Helvetica,sans-Serif" font-size="10.00">::next</text>
</a>
</g>
</g>
<!-- Node2&#45;&gt;Node5 -->
<g id="edge4" class="edge">
<title>Node2&#45;&gt;Node5</title>
<path fill="none" stroke="midnightblue" d="M621.51,-280C637.17,-280 654.71,-280 671.86,-280"/>
<polygon fill="midnightblue" stroke="midnightblue" points="671.89,-283.5 681.89,-280 671.89,-276.5 671.89,-283.5"/>
</g>
<!-- Node7 -->
<g id="node7" class="node">
<title>Node7</title>
<g id="a_node7"><a xlink:href="classcsv_1_1internals_1_1IBasicCSVParser.html#abb68865cdf144c1ed757523157bd531c" target="_top" xlink:title=" ">
<polygon fill="none" stroke="black" points="675,-216 675,-246 841,-246 841,-216 675,-216"/>
<text text-anchor="start" x="683" y="-234" font-family="Helvetica,sans-Serif" font-size="10.00">csv::internals::IBasicCSVParser</text>
<text text-anchor="middle" x="758" y="-223" font-family="Helvetica,sans-Serif" font-size="10.00">::set_output</text>
</a>
</g>
</g>
<!-- Node2&#45;&gt;Node7 -->
<g id="edge6" class="edge">
<title>Node2&#45;&gt;Node7</title>
<path fill="none" stroke="midnightblue" d="M621.51,-266.22C642.57,-260.75 667.05,-254.38 689.36,-248.58"/>
<polygon fill="midnightblue" stroke="midnightblue" points="690.31,-251.95 699.1,-246.05 688.55,-245.18 690.31,-251.95"/>
</g>
<!-- Node6 -->
<g id="node6" class="node">
<title>Node6</title>
<g id="a_node6"><a xlink:href="namespacecsv.html#a46864187c1f0bd79fc006694aba84cc2" target="_top" xlink:title=" ">
<polygon fill="none" stroke="black" points="877,-270.5 877,-289.5 942,-289.5 942,-270.5 877,-270.5"/>
<text text-anchor="middle" x="909.5" y="-277.5" font-family="Helvetica,sans-Serif" font-size="10.00">csv::parse</text>
</a>
</g>
</g>
<!-- Node5&#45;&gt;Node6 -->
<g id="edge5" class="edge">
<title>Node5&#45;&gt;Node6</title>
<path fill="none" stroke="midnightblue" d="M834.19,-280C845.3,-280 856.41,-280 866.52,-280"/>
<polygon fill="midnightblue" stroke="midnightblue" points="866.65,-283.5 876.65,-280 866.65,-276.5 866.65,-283.5"/>
</g>
<!-- Node9 -->
<g id="node9" class="node">
<title>Node9</title>
<g id="a_node9"><a xlink:href="classcsv_1_1CSVFormat.html#a6c2b638db04f164d781df7b2a4840a20" target="_top" xlink:title=" ">
<polygon fill="none" stroke="black" points="694,-118 694,-148 822,-148 822,-118 694,-118"/>
<text text-anchor="start" x="702" y="-136" font-family="Helvetica,sans-Serif" font-size="10.00">csv::CSVFormat::assert</text>
<text text-anchor="middle" x="758" y="-125" font-family="Helvetica,sans-Serif" font-size="10.00">_no_char_overlap</text>
</a>
</g>
</g>
<!-- Node8&#45;&gt;Node9 -->
<g id="edge8" class="edge">
<title>Node8&#45;&gt;Node9</title>
<path fill="none" stroke="midnightblue" d="M603.07,-175.46C628,-168.59 662.38,-159.1 692.33,-150.84"/>
<polygon fill="midnightblue" stroke="midnightblue" points="693.58,-154.13 702.29,-148.09 691.72,-147.38 693.58,-154.13"/>
</g>
<!-- Node11 -->
<g id="node11" class="node">
<title>Node11</title>
<g id="a_node11"><a xlink:href="namespacecsv_1_1internals.html#a9e94234c3ac25b454cfafd4fa4b1ed8c" target="_top" xlink:title=" ">
<polygon fill="none" stroke="black" points="516,-75 516,-105 619,-105 619,-75 516,-75"/>
<text text-anchor="start" x="524" y="-93" font-family="Helvetica,sans-Serif" font-size="10.00">csv::internals::get</text>
<text text-anchor="middle" x="567.5" y="-82" font-family="Helvetica,sans-Serif" font-size="10.00">_csv_head</text>
</a>
</g>
</g>
<!-- Node10&#45;&gt;Node11 -->
<g id="edge10" class="edge">
<title>Node10&#45;&gt;Node11</title>
<path fill="none" stroke="midnightblue" d="M449.41,-125.97C467.73,-120.34 488.74,-113.89 507.86,-108.02"/>
<polygon fill="midnightblue" stroke="midnightblue" points="509.12,-111.29 517.66,-105.01 507.07,-104.6 509.12,-111.29"/>
</g>
<!-- Node13 -->
<g id="node13" class="node">
<title>Node13</title>
<g id="a_node13"><a xlink:href="namespacecsv_1_1internals.html#ab276fd6e6dee073f97858e46836fb2fd" target="_top" xlink:title=" ">
<polygon fill="none" stroke="black" points="516,-126 516,-156 619,-156 619,-126 516,-126"/>
<text text-anchor="start" x="524" y="-144" font-family="Helvetica,sans-Serif" font-size="10.00">csv::internals::get</text>
<text text-anchor="middle" x="567.5" y="-133" font-family="Helvetica,sans-Serif" font-size="10.00">_file_size</text>
</a>
</g>
</g>
<!-- Node10&#45;&gt;Node13 -->
<g id="edge12" class="edge">
<title>Node10&#45;&gt;Node13</title>
<path fill="none" stroke="midnightblue" d="M451.21,-141C468.42,-141 487.84,-141 505.75,-141"/>
<polygon fill="midnightblue" stroke="midnightblue" points="505.82,-144.5 515.82,-141 505.82,-137.5 505.82,-144.5"/>
</g>
<!-- Node12 -->
<g id="node12" class="node">
<title>Node12</title>
<g id="a_node12"><a xlink:href="namespacemio.html#a457598aac30b946c47c282a70d18b029" target="_top" xlink:title=" ">
<polygon fill="none" stroke="black" points="686.5,-79.5 686.5,-98.5 829.5,-98.5 829.5,-79.5 686.5,-79.5"/>
<text text-anchor="middle" x="758" y="-86.5" font-family="Helvetica,sans-Serif" font-size="10.00">mio::make_mmap_source</text>
</a>
</g>
</g>
<!-- Node11&#45;&gt;Node12 -->
<g id="edge11" class="edge">
<title>Node11&#45;&gt;Node12</title>
<path fill="none" stroke="midnightblue" d="M619.01,-89.73C636.57,-89.64 656.72,-89.53 676.1,-89.43"/>
<polygon fill="midnightblue" stroke="midnightblue" points="676.17,-92.93 686.15,-89.38 676.13,-85.93 676.17,-92.93"/>
</g>
<!-- Node16&#45;&gt;Node10 -->
<g id="edge22" class="edge">
<title>Node16&#45;&gt;Node10</title>
<path fill="none" stroke="midnightblue" d="M246.57,-213.43C273.74,-200.48 322.85,-177.07 357.88,-160.36"/>
<polygon fill="midnightblue" stroke="midnightblue" points="359.39,-163.52 366.91,-156.06 356.38,-157.2 359.39,-163.52"/>
</g>
<!-- Node17 -->
<g id="node17" class="node">
<title>Node17</title>
<g id="a_node17"><a xlink:href="namespacecsv_1_1internals.html#a380795c981a04709f32a960eead97d1b" target="_top" xlink:title=" ">
<polygon fill="none" stroke="black" points="339,-214 339,-244 460,-244 460,-214 339,-214"/>
<text text-anchor="start" x="347" y="-232" font-family="Helvetica,sans-Serif" font-size="10.00">csv::internals::_guess</text>
<text text-anchor="middle" x="399.5" y="-221" font-family="Helvetica,sans-Serif" font-size="10.00">_format</text>
</a>
</g>
</g>
<!-- Node16&#45;&gt;Node17 -->
<g id="edge16" class="edge">
<title>Node16&#45;&gt;Node17</title>
<path fill="none" stroke="midnightblue" d="M278.11,-224.8C293.92,-225.35 311.59,-225.97 328.42,-226.56"/>
<polygon fill="midnightblue" stroke="midnightblue" points="328.65,-230.07 338.77,-226.92 328.9,-223.07 328.65,-230.07"/>
</g>
<!-- Node17&#45;&gt;Node8 -->
<g id="edge21" class="edge">
<title>Node17&#45;&gt;Node8</title>
<path fill="none" stroke="midnightblue" d="M457.16,-213.98C477.8,-208.51 500.86,-202.4 520.46,-197.2"/>
<polygon fill="midnightblue" stroke="midnightblue" points="521.59,-200.52 530.36,-194.58 519.8,-193.76 521.59,-200.52"/>
</g>
<!-- Node18 -->
<g id="node18" class="node">
<title>Node18</title>
<g id="a_node18"><a xlink:href="namespacecsv_1_1internals.html#aaee53ac0be352fc9e886471ef2e1e113" target="_top" xlink:title=" ">
<polygon fill="none" stroke="black" points="502,-215 502,-245 633,-245 633,-215 502,-215"/>
<text text-anchor="start" x="510" y="-233" font-family="Helvetica,sans-Serif" font-size="10.00">csv::internals::calculate</text>
<text text-anchor="middle" x="567.5" y="-222" font-family="Helvetica,sans-Serif" font-size="10.00">_score</text>
</a>
</g>
</g>
<!-- Node17&#45;&gt;Node18 -->
<g id="edge17" class="edge">
<title>Node17&#45;&gt;Node18</title>
<path fill="none" stroke="midnightblue" d="M460.43,-229.36C470.63,-229.42 481.34,-229.49 491.87,-229.55"/>
<polygon fill="midnightblue" stroke="midnightblue" points="491.87,-233.05 501.89,-229.61 491.91,-226.05 491.87,-233.05"/>
</g>
<!-- Node18&#45;&gt;Node5 -->
<g id="edge18" class="edge">
<title>Node18&#45;&gt;Node5</title>
<path fill="none" stroke="midnightblue" d="M625.06,-245C645.56,-250.44 668.91,-256.63 690.21,-262.28"/>
<polygon fill="midnightblue" stroke="midnightblue" points="689.6,-265.74 700.16,-264.92 691.39,-258.98 689.6,-265.74"/>
</g>
<!-- Node18&#45;&gt;Node7 -->
<g id="edge19" class="edge">
<title>Node18&#45;&gt;Node7</title>
<path fill="none" stroke="midnightblue" d="M633.11,-230.34C643.28,-230.4 653.97,-230.45 664.63,-230.51"/>
<polygon fill="midnightblue" stroke="midnightblue" points="664.8,-234.01 674.82,-230.56 664.84,-227.01 664.8,-234.01"/>
</g>
<!-- Node19 -->
<g id="node19" class="node">
<title>Node19</title>
<g id="a_node19"><a xlink:href="classcsv_1_1internals_1_1ThreadSafeDeque.html#a7eae23568306e68f407a05963e8585ff" target="_top" xlink:title=" ">
<polygon fill="none" stroke="black" points="686.5,-167 686.5,-197 829.5,-197 829.5,-167 686.5,-167"/>
<text text-anchor="start" x="694.5" y="-185" font-family="Helvetica,sans-Serif" font-size="10.00">csv::internals::ThreadSafe</text>
<text text-anchor="middle" x="758" y="-174" font-family="Helvetica,sans-Serif" font-size="10.00">Deque::size</text>
</a>
</g>
</g>
<!-- Node18&#45;&gt;Node19 -->
<g id="edge20" class="edge">
<title>Node18&#45;&gt;Node19</title>
<path fill="none" stroke="midnightblue" d="M627.63,-214.94C646.84,-210.05 668.32,-204.58 688.18,-199.52"/>
<polygon fill="midnightblue" stroke="midnightblue" points="689.26,-202.86 698.08,-197 687.53,-196.08 689.26,-202.86"/>
</g>
</g>
</svg>
