<?xml version="1.0" encoding="UTF-8" standalone="no"?>
<!DOCTYPE svg PUBLIC "-//W3C//DTD SVG 1.1//EN"
 "http://www.w3.org/Graphics/SVG/1.1/DTD/svg11.dtd">
<!-- Generated by graphviz version 2.43.0 (0)
 -->
<!-- Title: csv::get_file_info Pages: 1 -->
<svg width="757pt" height="252pt"
 viewBox="0.00 0.00 757.00 252.00" xmlns="http://www.w3.org/2000/svg" xmlns:xlink="http://www.w3.org/1999/xlink">
<g id="graph0" class="graph" transform="scale(1 1) rotate(0) translate(4 248)">
<title>csv::get_file_info</title>
<!-- Node1 -->
<g id="node1" class="node">
<title>Node1</title>
<g id="a_node1"><a xlink:title=" ">
<polygon fill="#bfbfbf" stroke="black" points="0,-117.5 0,-136.5 98,-136.5 98,-117.5 0,-117.5"/>
<text text-anchor="middle" x="49" y="-124.5" font-family="Helvetica,sans-Serif" font-size="10.00">csv::get_file_info</text>
</a>
</g>
</g>
<!-- Node2 -->
<g id="node2" class="node">
<title>Node2</title>
<g id="a_node2"><a xlink:href="classcsv_1_1CSVReader.html#ad4bacae13cc6c8f080d7fd7956e9ff4c" target="_top" xlink:title=" ">
<polygon fill="none" stroke="black" points="138,-186.5 138,-205.5 263,-205.5 263,-186.5 138,-186.5"/>
<text text-anchor="middle" x="200.5" y="-193.5" font-family="Helvetica,sans-Serif" font-size="10.00">csv::CSVReader::begin</text>
</a>
</g>
</g>
<!-- Node1&#45;&gt;Node2 -->
<g id="edge1" class="edge">
<title>Node1&#45;&gt;Node2</title>
<path fill="none" stroke="midnightblue" d="M64.03,-136.55C80.29,-147.29 108.17,-164.7 134,-176 140.15,-178.69 146.77,-181.16 153.36,-183.39"/>
<polygon fill="midnightblue" stroke="midnightblue" points="152.33,-186.74 162.92,-186.47 154.47,-180.07 152.33,-186.74"/>
</g>
<!-- Node3 -->
<g id="node3" class="node">
<title>Node3</title>
<g id="a_node3"><a xlink:href="classcsv_1_1CSVReader.html#a6272eabf6c8fc0c8b47ae14640fecfeb" target="_top" xlink:title=" ">
<polygon fill="none" stroke="black" points="316,-224.5 316,-243.5 432,-243.5 432,-224.5 316,-224.5"/>
<text text-anchor="middle" x="374" y="-231.5" font-family="Helvetica,sans-Serif" font-size="10.00">csv::CSVReader::end</text>
</a>
</g>
</g>
<!-- Node1&#45;&gt;Node3 -->
<g id="edge6" class="edge">
<title>Node1&#45;&gt;Node3</title>
<path fill="none" stroke="midnightblue" d="M55.7,-136.59C67.54,-155.51 96.81,-197.31 134,-215 187.8,-240.59 256.16,-243.51 305.97,-241.1"/>
<polygon fill="midnightblue" stroke="midnightblue" points="306.21,-244.59 315.99,-240.53 305.81,-237.6 306.21,-244.59"/>
</g>
<!-- Node7 -->
<g id="node7" class="node">
<title>Node7</title>
<g id="a_node7"><a xlink:href="classcsv_1_1CSVReader.html#aeeb5816bd38e0139b6eecd8df567a495" target="_top" xlink:title=" ">
<polygon fill="none" stroke="black" points="143.5,-137 143.5,-167 257.5,-167 257.5,-137 143.5,-137"/>
<text text-anchor="start" x="151.5" y="-155" font-family="Helvetica,sans-Serif" font-size="10.00">csv::CSVReader::get</text>
<text text-anchor="middle" x="200.5" y="-144" font-family="Helvetica,sans-Serif" font-size="10.00">_col_names</text>
</a>
</g>
</g>
<!-- Node1&#45;&gt;Node7 -->
<g id="edge7" class="edge">
<title>Node1&#45;&gt;Node7</title>
<path fill="none" stroke="midnightblue" d="M98.13,-135.05C109.4,-136.93 121.59,-138.97 133.49,-140.96"/>
<polygon fill="midnightblue" stroke="midnightblue" points="132.95,-144.42 143.39,-142.62 134.11,-137.52 132.95,-144.42"/>
</g>
<!-- Node8 -->
<g id="node8" class="node">
<title>Node8</title>
<g id="a_node8"><a xlink:href="classcsv_1_1CSVFormat.html#a6ef461c4ae32e7cfeba0abbcc1ae527c" target="_top" xlink:title=" ">
<polygon fill="none" stroke="black" points="143.5,-88 143.5,-118 257.5,-118 257.5,-88 143.5,-88"/>
<text text-anchor="start" x="151.5" y="-106" font-family="Helvetica,sans-Serif" font-size="10.00">csv::CSVFormat::get</text>
<text text-anchor="middle" x="200.5" y="-95" font-family="Helvetica,sans-Serif" font-size="10.00">_delim</text>
</a>
</g>
</g>
<!-- Node1&#45;&gt;Node8 -->
<g id="edge8" class="edge">
<title>Node1&#45;&gt;Node8</title>
<path fill="none" stroke="midnightblue" d="M98.13,-119.27C109.4,-117.46 121.59,-115.51 133.49,-113.6"/>
<polygon fill="midnightblue" stroke="midnightblue" points="134.07,-117.05 143.39,-112.01 132.96,-110.14 134.07,-117.05"/>
</g>
<!-- Node9 -->
<g id="node9" class="node">
<title>Node9</title>
<g id="a_node9"><a xlink:href="classcsv_1_1CSVReader.html#a6faa83a2169dc1ad10715f94410f47da" target="_top" xlink:title=" ">
<polygon fill="none" stroke="black" points="143.5,-39 143.5,-69 257.5,-69 257.5,-39 143.5,-39"/>
<text text-anchor="start" x="151.5" y="-57" font-family="Helvetica,sans-Serif" font-size="10.00">csv::CSVReader::get</text>
<text text-anchor="middle" x="200.5" y="-46" font-family="Helvetica,sans-Serif" font-size="10.00">_format</text>
</a>
</g>
</g>
<!-- Node1&#45;&gt;Node9 -->
<g id="edge9" class="edge">
<title>Node1&#45;&gt;Node9</title>
<path fill="none" stroke="midnightblue" d="M64.74,-117.32C81.18,-106.78 108.79,-89.86 134,-78 137.76,-76.23 141.69,-74.51 145.67,-72.84"/>
<polygon fill="midnightblue" stroke="midnightblue" points="147.05,-76.06 155.02,-69.09 144.44,-69.57 147.05,-76.06"/>
</g>
<!-- Node10 -->
<g id="node10" class="node">
<title>Node10</title>
<g id="a_node10"><a xlink:href="classcsv_1_1CSVReader.html#a72c772f8c90892f3120857723ea0174e" target="_top" xlink:title=" ">
<polygon fill="none" stroke="black" points="134,-0.5 134,-19.5 267,-19.5 267,-0.5 134,-0.5"/>
<text text-anchor="middle" x="200.5" y="-7.5" font-family="Helvetica,sans-Serif" font-size="10.00">csv::CSVReader::n_rows</text>
</a>
</g>
</g>
<!-- Node1&#45;&gt;Node10 -->
<g id="edge10" class="edge">
<title>Node1&#45;&gt;Node10</title>
<path fill="none" stroke="midnightblue" d="M55.6,-117.29C67.45,-97.59 97.08,-52.78 134,-29 137.17,-26.96 140.57,-25.13 144.09,-23.49"/>
<polygon fill="midnightblue" stroke="midnightblue" points="145.68,-26.62 153.61,-19.59 143.03,-20.14 145.68,-26.62"/>
</g>
<!-- Node2&#45;&gt;Node3 -->
<g id="edge2" class="edge">
<title>Node2&#45;&gt;Node3</title>
<path fill="none" stroke="midnightblue" d="M244.78,-205.59C267.61,-210.65 295.82,-216.9 319.96,-222.25"/>
<polygon fill="midnightblue" stroke="midnightblue" points="319.51,-225.73 330.03,-224.48 321.03,-218.9 319.51,-225.73"/>
</g>
<!-- Node4 -->
<g id="node4" class="node">
<title>Node4</title>
<g id="a_node4"><a xlink:href="group__csv__internal.html#ga5562feee47dfc60d04a139dceed609cc" target="_top" xlink:title=" ">
<polygon fill="none" stroke="black" points="303,-186.5 303,-205.5 445,-205.5 445,-186.5 303,-186.5"/>
<text text-anchor="middle" x="374" y="-193.5" font-family="Helvetica,sans-Serif" font-size="10.00">csv::CSVReader::read_csv</text>
</a>
</g>
</g>
<!-- Node2&#45;&gt;Node4 -->
<g id="edge3" class="edge">
<title>Node2&#45;&gt;Node4</title>
<path fill="none" stroke="midnightblue" d="M263.42,-196C272.89,-196 282.78,-196 292.58,-196"/>
<polygon fill="midnightblue" stroke="midnightblue" points="292.73,-199.5 302.73,-196 292.73,-192.5 292.73,-199.5"/>
</g>
<!-- Node5 -->
<g id="node5" class="node">
<title>Node5</title>
<g id="a_node5"><a xlink:href="classcsv_1_1CSVReader.html#a042171328b6578d7a61d08d025324c31" target="_top" xlink:title=" ">
<polygon fill="none" stroke="black" points="481,-181 481,-211 600,-211 600,-181 481,-181"/>
<text text-anchor="start" x="489" y="-199" font-family="Helvetica,sans-Serif" font-size="10.00">csv::CSVReader::trim</text>
<text text-anchor="middle" x="540.5" y="-188" font-family="Helvetica,sans-Serif" font-size="10.00">_header</text>
</a>
</g>
</g>
<!-- Node4&#45;&gt;Node5 -->
<g id="edge4" class="edge">
<title>Node4&#45;&gt;Node5</title>
<path fill="none" stroke="midnightblue" d="M445.24,-196C453.68,-196 462.3,-196 470.72,-196"/>
<polygon fill="midnightblue" stroke="midnightblue" points="470.87,-199.5 480.87,-196 470.87,-192.5 470.87,-199.5"/>
</g>
<!-- Node6 -->
<g id="node6" class="node">
<title>Node6</title>
<g id="a_node6"><a xlink:href="group__csv__internal.html#gadf931687a8381e502e6241ae7955512c" target="_top" xlink:title=" ">
<polygon fill="none" stroke="black" points="636,-181 636,-211 749,-211 749,-181 636,-181"/>
<text text-anchor="start" x="644" y="-199" font-family="Helvetica,sans-Serif" font-size="10.00">csv::CSVReader::set</text>
<text text-anchor="middle" x="692.5" y="-188" font-family="Helvetica,sans-Serif" font-size="10.00">_col_names</text>
</a>
</g>
</g>
<!-- Node5&#45;&gt;Node6 -->
<g id="edge5" class="edge">
<title>Node5&#45;&gt;Node6</title>
<path fill="none" stroke="midnightblue" d="M600.35,-196C608.64,-196 617.2,-196 625.61,-196"/>
<polygon fill="midnightblue" stroke="midnightblue" points="625.76,-199.5 635.76,-196 625.76,-192.5 625.76,-199.5"/>
</g>
</g>
</svg>
