<?xml version="1.0" encoding="UTF-8" standalone="no"?>
<!DOCTYPE svg PUBLIC "-//W3C//DTD SVG 1.1//EN"
 "http://www.w3.org/Graphics/SVG/1.1/DTD/svg11.dtd">
<!-- Generated by graphviz version 2.43.0 (0)
 -->
<!-- Title: mnist::read_mnist_image_file_flat Pages: 1 -->
<svg width="458pt" height="53pt"
 viewBox="0.00 0.00 458.00 52.50" xmlns="http://www.w3.org/2000/svg" xmlns:xlink="http://www.w3.org/1999/xlink">
<g id="graph0" class="graph" transform="scale(1 1) rotate(0) translate(4 48.5)">
<title>mnist::read_mnist_image_file_flat</title>
<!-- Node1 -->
<g id="node1" class="node">
<title>Node1</title>
<g id="a_node1"><a xlink:title="Read a MNIST image file inside the given flat container (ETL)">
<polygon fill="#bfbfbf" stroke="black" points="0,-14 0,-44 141,-44 141,-14 0,-14"/>
<text text-anchor="start" x="8" y="-32" font-family="Helvetica,sans-Serif" font-size="10.00">mnist::read_mnist_image</text>
<text text-anchor="middle" x="70.5" y="-21" font-family="Helvetica,sans-Serif" font-size="10.00">_file_flat</text>
</a>
</g>
</g>
<!-- Node2 -->
<g id="node2" class="node">
<title>Node2</title>
<g id="a_node2"><a xlink:href="namespacemnist.html#ae23bbb05e2acb0f4fb36edf42431cea7" target="_top" xlink:title="Extract the MNIST header from the given buffer.">
<polygon fill="none" stroke="black" points="339,-19.5 339,-38.5 450,-38.5 450,-19.5 339,-19.5"/>
<text text-anchor="middle" x="394.5" y="-26.5" font-family="Helvetica,sans-Serif" font-size="10.00">mnist::read_header</text>
</a>
</g>
</g>
<!-- Node1&#45;&gt;Node2 -->
<g id="edge1" class="edge">
<title>Node1&#45;&gt;Node2</title>
<path fill="none" stroke="midnightblue" d="M141.37,-29C197.06,-29 274.45,-29 328.75,-29"/>
<polygon fill="midnightblue" stroke="midnightblue" points="328.95,-32.5 338.95,-29 328.95,-25.5 328.95,-32.5"/>
</g>
<!-- Node3 -->
<g id="node3" class="node">
<title>Node3</title>
<g id="a_node3"><a xlink:href="namespacemnist.html#a8061847f8ead32e07e1a343f29c03671" target="_top" xlink:title="Read a MNIST file inside a raw buffer.">
<polygon fill="none" stroke="black" points="177,-0.5 177,-19.5 303,-19.5 303,-0.5 177,-0.5"/>
<text text-anchor="middle" x="240" y="-7.5" font-family="Helvetica,sans-Serif" font-size="10.00">mnist::read_mnist_file</text>
</a>
</g>
</g>
<!-- Node1&#45;&gt;Node3 -->
<g id="edge2" class="edge">
<title>Node1&#45;&gt;Node3</title>
<path fill="none" stroke="midnightblue" d="M141.08,-21.11C149.61,-20.14 158.34,-19.15 166.9,-18.18"/>
<polygon fill="midnightblue" stroke="midnightblue" points="167.31,-21.65 176.86,-17.05 166.53,-14.7 167.31,-21.65"/>
</g>
<!-- Node3&#45;&gt;Node2 -->
<g id="edge3" class="edge">
<title>Node3&#45;&gt;Node2</title>
<path fill="none" stroke="midnightblue" d="M303.03,-17.73C311.56,-18.79 320.34,-19.89 328.92,-20.95"/>
<polygon fill="midnightblue" stroke="midnightblue" points="328.52,-24.43 338.87,-22.19 329.38,-17.48 328.52,-24.43"/>
</g>
</g>
</svg>
