<?xml version="1.0" encoding="UTF-8" standalone="no"?>
<!DOCTYPE svg PUBLIC "-//W3C//DTD SVG 1.1//EN"
 "http://www.w3.org/Graphics/SVG/1.1/DTD/svg11.dtd">
<!-- Generated by graphviz version 2.43.0 (0)
 -->
<!-- Title: csv::parse_no_header Pages: 1 -->
<svg width="321pt" height="66pt"
 viewBox="0.00 0.00 321.00 66.00" xmlns="http://www.w3.org/2000/svg" xmlns:xlink="http://www.w3.org/1999/xlink">
<g id="graph0" class="graph" transform="scale(1 1) rotate(0) translate(4 62)">
<title>csv::parse_no_header</title>
<!-- Node1 -->
<g id="node1" class="node">
<title>Node1</title>
<g id="a_node1"><a xlink:title=" ">
<polygon fill="#bfbfbf" stroke="black" points="0,-19.5 0,-38.5 122,-38.5 122,-19.5 0,-19.5"/>
<text text-anchor="middle" x="61" y="-26.5" font-family="Helvetica,sans-Serif" font-size="10.00">csv::parse_no_header</text>
</a>
</g>
</g>
<!-- Node2 -->
<g id="node2" class="node">
<title>Node2</title>
<g id="a_node2"><a xlink:href="classcsv_1_1CSVFormat.html#a6134f19fbcee2e0437903706f818bd24" target="_top" xlink:title=" ">
<polygon fill="none" stroke="black" points="158,-38.5 158,-57.5 313,-57.5 313,-38.5 158,-38.5"/>
<text text-anchor="middle" x="235.5" y="-45.5" font-family="Helvetica,sans-Serif" font-size="10.00">csv::CSVFormat::header_row</text>
</a>
</g>
</g>
<!-- Node1&#45;&gt;Node2 -->
<g id="edge1" class="edge">
<title>Node1&#45;&gt;Node2</title>
<path fill="none" stroke="midnightblue" d="M122.33,-35.65C130.57,-36.55 139.16,-37.5 147.75,-38.45"/>
<polygon fill="midnightblue" stroke="midnightblue" points="147.5,-41.94 157.83,-39.55 148.27,-34.98 147.5,-41.94"/>
</g>
<!-- Node3 -->
<g id="node3" class="node">
<title>Node3</title>
<g id="a_node3"><a xlink:href="namespacecsv.html#a46864187c1f0bd79fc006694aba84cc2" target="_top" xlink:title=" ">
<polygon fill="none" stroke="black" points="203,-0.5 203,-19.5 268,-19.5 268,-0.5 203,-0.5"/>
<text text-anchor="middle" x="235.5" y="-7.5" font-family="Helvetica,sans-Serif" font-size="10.00">csv::parse</text>
</a>
</g>
</g>
<!-- Node1&#45;&gt;Node3 -->
<g id="edge2" class="edge">
<title>Node1&#45;&gt;Node3</title>
<path fill="none" stroke="midnightblue" d="M122.33,-22.35C145.44,-19.81 171.28,-16.96 192.33,-14.64"/>
<polygon fill="midnightblue" stroke="midnightblue" points="193,-18.09 202.55,-13.52 192.23,-11.13 193,-18.09"/>
</g>
</g>
</svg>
