<?xml version="1.0" encoding="UTF-8" standalone="no"?>
<!DOCTYPE svg PUBLIC "-//W3C//DTD SVG 1.1//EN"
 "http://www.w3.org/Graphics/SVG/1.1/DTD/svg11.dtd">
<!-- Generated by graphviz version 2.43.0 (0)
 -->
<!-- Title: csv::internals::_guess_format Pages: 1 -->
<svg width="611pt" height="186pt"
 viewBox="0.00 0.00 611.00 186.00" xmlns="http://www.w3.org/2000/svg" xmlns:xlink="http://www.w3.org/1999/xlink">
<g id="graph0" class="graph" transform="scale(1 1) rotate(0) translate(4 182)">
<title>csv::internals::_guess_format</title>
<!-- Node1 -->
<g id="node1" class="node">
<title>Node1</title>
<g id="a_node1"><a xlink:title=" ">
<polygon fill="#bfbfbf" stroke="black" points="0,-49.5 0,-79.5 121,-79.5 121,-49.5 0,-49.5"/>
<text text-anchor="start" x="8" y="-67.5" font-family="Helvetica,sans-Serif" font-size="10.00">csv::internals::_guess</text>
<text text-anchor="middle" x="60.5" y="-56.5" font-family="Helvetica,sans-Serif" font-size="10.00">_format</text>
</a>
</g>
</g>
<!-- Node2 -->
<g id="node2" class="node">
<title>Node2</title>
<g id="a_node2"><a xlink:href="namespacecsv_1_1internals.html#aaee53ac0be352fc9e886471ef2e1e113" target="_top" xlink:title=" ">
<polygon fill="none" stroke="black" points="163,-73.5 163,-103.5 294,-103.5 294,-73.5 163,-73.5"/>
<text text-anchor="start" x="171" y="-91.5" font-family="Helvetica,sans-Serif" font-size="10.00">csv::internals::calculate</text>
<text text-anchor="middle" x="228.5" y="-80.5" font-family="Helvetica,sans-Serif" font-size="10.00">_score</text>
</a>
</g>
</g>
<!-- Node1&#45;&gt;Node2 -->
<g id="edge1" class="edge">
<title>Node1&#45;&gt;Node2</title>
<path fill="none" stroke="midnightblue" d="M121.43,-73.16C131.63,-74.64 142.34,-76.19 152.87,-77.71"/>
<polygon fill="midnightblue" stroke="midnightblue" points="152.49,-81.19 162.89,-79.16 153.49,-74.26 152.49,-81.19"/>
</g>
<!-- Node7 -->
<g id="node7" class="node">
<title>Node7</title>
<g id="a_node7"><a xlink:href="classcsv_1_1CSVFormat.html#a9504d9b7629560dd25b0fa63bf665584" target="_top" xlink:title=" ">
<polygon fill="none" stroke="black" points="157,-33 157,-52 300,-52 300,-33 157,-33"/>
<text text-anchor="middle" x="228.5" y="-40" font-family="Helvetica,sans-Serif" font-size="10.00">csv::CSVFormat::delimiter</text>
</a>
</g>
</g>
<!-- Node1&#45;&gt;Node7 -->
<g id="edge6" class="edge">
<title>Node1&#45;&gt;Node7</title>
<path fill="none" stroke="midnightblue" d="M121.43,-56.56C129.71,-55.46 138.32,-54.32 146.89,-53.18"/>
<polygon fill="midnightblue" stroke="midnightblue" points="147.47,-56.64 156.92,-51.85 146.55,-49.7 147.47,-56.64"/>
</g>
<!-- Node3 -->
<g id="node3" class="node">
<title>Node3</title>
<g id="a_node3"><a xlink:href="classcsv_1_1internals_1_1StreamParser.html#a2c779b41c5b3395d191b0b39cd0ec8ef" target="_top" xlink:title=" ">
<polygon fill="none" stroke="black" points="343,-147.5 343,-177.5 495,-177.5 495,-147.5 343,-147.5"/>
<text text-anchor="start" x="351" y="-165.5" font-family="Helvetica,sans-Serif" font-size="10.00">csv::internals::StreamParser</text>
<text text-anchor="middle" x="419" y="-154.5" font-family="Helvetica,sans-Serif" font-size="10.00">::next</text>
</a>
</g>
</g>
<!-- Node2&#45;&gt;Node3 -->
<g id="edge2" class="edge">
<title>Node2&#45;&gt;Node3</title>
<path fill="none" stroke="midnightblue" d="M259.33,-103.55C280.43,-113.86 309.56,-127.44 336,-137.5 342.17,-139.85 348.66,-142.13 355.18,-144.3"/>
<polygon fill="midnightblue" stroke="midnightblue" points="354.12,-147.64 364.71,-147.4 356.28,-140.98 354.12,-147.64"/>
</g>
<!-- Node5 -->
<g id="node5" class="node">
<title>Node5</title>
<g id="a_node5"><a xlink:href="classcsv_1_1internals_1_1IBasicCSVParser.html#abb68865cdf144c1ed757523157bd531c" target="_top" xlink:title=" ">
<polygon fill="none" stroke="black" points="336,-98.5 336,-128.5 502,-128.5 502,-98.5 336,-98.5"/>
<text text-anchor="start" x="344" y="-116.5" font-family="Helvetica,sans-Serif" font-size="10.00">csv::internals::IBasicCSVParser</text>
<text text-anchor="middle" x="419" y="-105.5" font-family="Helvetica,sans-Serif" font-size="10.00">::set_output</text>
</a>
</g>
</g>
<!-- Node2&#45;&gt;Node5 -->
<g id="edge4" class="edge">
<title>Node2&#45;&gt;Node5</title>
<path fill="none" stroke="midnightblue" d="M294.11,-97.07C304.28,-98.42 314.97,-99.84 325.63,-101.25"/>
<polygon fill="midnightblue" stroke="midnightblue" points="325.45,-104.76 335.82,-102.6 326.37,-97.82 325.45,-104.76"/>
</g>
<!-- Node6 -->
<g id="node6" class="node">
<title>Node6</title>
<g id="a_node6"><a xlink:href="classcsv_1_1internals_1_1ThreadSafeDeque.html#a7eae23568306e68f407a05963e8585ff" target="_top" xlink:title=" ">
<polygon fill="none" stroke="black" points="347.5,-49.5 347.5,-79.5 490.5,-79.5 490.5,-49.5 347.5,-49.5"/>
<text text-anchor="start" x="355.5" y="-67.5" font-family="Helvetica,sans-Serif" font-size="10.00">csv::internals::ThreadSafe</text>
<text text-anchor="middle" x="419" y="-56.5" font-family="Helvetica,sans-Serif" font-size="10.00">Deque::size</text>
</a>
</g>
</g>
<!-- Node2&#45;&gt;Node6 -->
<g id="edge5" class="edge">
<title>Node2&#45;&gt;Node6</title>
<path fill="none" stroke="midnightblue" d="M294.11,-80.27C308.05,-78.5 322.95,-76.6 337.42,-74.76"/>
<polygon fill="midnightblue" stroke="midnightblue" points="337.87,-78.23 347.35,-73.5 336.99,-71.29 337.87,-78.23"/>
</g>
<!-- Node4 -->
<g id="node4" class="node">
<title>Node4</title>
<g id="a_node4"><a xlink:href="namespacecsv.html#a46864187c1f0bd79fc006694aba84cc2" target="_top" xlink:title=" ">
<polygon fill="none" stroke="black" points="538,-153 538,-172 603,-172 603,-153 538,-153"/>
<text text-anchor="middle" x="570.5" y="-160" font-family="Helvetica,sans-Serif" font-size="10.00">csv::parse</text>
</a>
</g>
</g>
<!-- Node3&#45;&gt;Node4 -->
<g id="edge3" class="edge">
<title>Node3&#45;&gt;Node4</title>
<path fill="none" stroke="midnightblue" d="M495.19,-162.5C506.3,-162.5 517.41,-162.5 527.52,-162.5"/>
<polygon fill="midnightblue" stroke="midnightblue" points="527.65,-166 537.65,-162.5 527.65,-159 527.65,-166"/>
</g>
<!-- Node8 -->
<g id="node8" class="node">
<title>Node8</title>
<g id="a_node8"><a xlink:href="classcsv_1_1CSVFormat.html#a6c2b638db04f164d781df7b2a4840a20" target="_top" xlink:title=" ">
<polygon fill="none" stroke="black" points="355,-0.5 355,-30.5 483,-30.5 483,-0.5 355,-0.5"/>
<text text-anchor="start" x="363" y="-18.5" font-family="Helvetica,sans-Serif" font-size="10.00">csv::CSVFormat::assert</text>
<text text-anchor="middle" x="419" y="-7.5" font-family="Helvetica,sans-Serif" font-size="10.00">_no_char_overlap</text>
</a>
</g>
</g>
<!-- Node7&#45;&gt;Node8 -->
<g id="edge7" class="edge">
<title>Node7&#45;&gt;Node8</title>
<path fill="none" stroke="midnightblue" d="M295.96,-32.98C311.85,-30.71 328.89,-28.26 345.05,-25.95"/>
<polygon fill="midnightblue" stroke="midnightblue" points="345.58,-29.41 354.99,-24.53 344.59,-22.48 345.58,-29.41"/>
</g>
</g>
</svg>
