<?xml version="1.0" encoding="UTF-8" standalone="no"?>
<!DOCTYPE svg PUBLIC "-//W3C//DTD SVG 1.1//EN"
 "http://www.w3.org/Graphics/SVG/1.1/DTD/svg11.dtd">
<!-- Generated by graphviz version 2.43.0 (0)
 -->
<!-- Title: csv::operator&quot;&quot;_csv_no_header Pages: 1 -->
<svg width="467pt" height="66pt"
 viewBox="0.00 0.00 467.00 66.00" xmlns="http://www.w3.org/2000/svg" xmlns:xlink="http://www.w3.org/1999/xlink">
<g id="graph0" class="graph" transform="scale(1 1) rotate(0) translate(4 62)">
<title>csv::operator&quot;&quot;_csv_no_header</title>
<!-- Node1 -->
<g id="node1" class="node">
<title>Node1</title>
<g id="a_node1"><a xlink:title=" ">
<polygon fill="#bfbfbf" stroke="black" points="0,-14 0,-44 110,-44 110,-14 0,-14"/>
<text text-anchor="start" x="8" y="-32" font-family="Helvetica,sans-Serif" font-size="10.00">csv::operator&quot;&quot;_csv</text>
<text text-anchor="middle" x="55" y="-21" font-family="Helvetica,sans-Serif" font-size="10.00">_no_header</text>
</a>
</g>
</g>
<!-- Node2 -->
<g id="node2" class="node">
<title>Node2</title>
<g id="a_node2"><a xlink:href="namespacecsv.html#a6f629e57da131b428dcc8cd17784c06f" target="_top" xlink:title=" ">
<polygon fill="none" stroke="black" points="146,-19.5 146,-38.5 268,-38.5 268,-19.5 146,-19.5"/>
<text text-anchor="middle" x="207" y="-26.5" font-family="Helvetica,sans-Serif" font-size="10.00">csv::parse_no_header</text>
</a>
</g>
</g>
<!-- Node1&#45;&gt;Node2 -->
<g id="edge1" class="edge">
<title>Node1&#45;&gt;Node2</title>
<path fill="none" stroke="midnightblue" d="M110.15,-29C118.48,-29 127.17,-29 135.78,-29"/>
<polygon fill="midnightblue" stroke="midnightblue" points="135.83,-32.5 145.83,-29 135.83,-25.5 135.83,-32.5"/>
</g>
<!-- Node3 -->
<g id="node3" class="node">
<title>Node3</title>
<g id="a_node3"><a xlink:href="classcsv_1_1CSVFormat.html#a6134f19fbcee2e0437903706f818bd24" target="_top" xlink:title=" ">
<polygon fill="none" stroke="black" points="304,-38.5 304,-57.5 459,-57.5 459,-38.5 304,-38.5"/>
<text text-anchor="middle" x="381.5" y="-45.5" font-family="Helvetica,sans-Serif" font-size="10.00">csv::CSVFormat::header_row</text>
</a>
</g>
</g>
<!-- Node2&#45;&gt;Node3 -->
<g id="edge2" class="edge">
<title>Node2&#45;&gt;Node3</title>
<path fill="none" stroke="midnightblue" d="M268.33,-35.65C276.57,-36.55 285.16,-37.5 293.75,-38.45"/>
<polygon fill="midnightblue" stroke="midnightblue" points="293.5,-41.94 303.83,-39.55 294.27,-34.98 293.5,-41.94"/>
</g>
<!-- Node4 -->
<g id="node4" class="node">
<title>Node4</title>
<g id="a_node4"><a xlink:href="namespacecsv.html#a46864187c1f0bd79fc006694aba84cc2" target="_top" xlink:title=" ">
<polygon fill="none" stroke="black" points="349,-0.5 349,-19.5 414,-19.5 414,-0.5 349,-0.5"/>
<text text-anchor="middle" x="381.5" y="-7.5" font-family="Helvetica,sans-Serif" font-size="10.00">csv::parse</text>
</a>
</g>
</g>
<!-- Node2&#45;&gt;Node4 -->
<g id="edge3" class="edge">
<title>Node2&#45;&gt;Node4</title>
<path fill="none" stroke="midnightblue" d="M268.33,-22.35C291.44,-19.81 317.28,-16.96 338.33,-14.64"/>
<polygon fill="midnightblue" stroke="midnightblue" points="339,-18.09 348.55,-13.52 338.23,-11.13 339,-18.09"/>
</g>
</g>
</svg>
