<?xml version="1.0" encoding="UTF-8" standalone="no"?>
<!DOCTYPE svg PUBLIC "-//W3C//DTD SVG 1.1//EN"
 "http://www.w3.org/Graphics/SVG/1.1/DTD/svg11.dtd">
<!-- Generated by graphviz version 2.43.0 (0)
 -->
<!-- Title: mio::operator== Pages: 1 -->
<svg width="450pt" height="66pt"
 viewBox="0.00 0.00 450.00 66.00" xmlns="http://www.w3.org/2000/svg" xmlns:xlink="http://www.w3.org/1999/xlink">
<g id="graph0" class="graph" transform="scale(1 1) rotate(0) translate(4 62)">
<title>mio::operator==</title>
<!-- Node1 -->
<g id="node1" class="node">
<title>Node1</title>
<g id="a_node1"><a xlink:title=" ">
<polygon fill="#bfbfbf" stroke="black" points="0,-19.5 0,-38.5 99,-38.5 99,-19.5 0,-19.5"/>
<text text-anchor="middle" x="49.5" y="-26.5" font-family="Helvetica,sans-Serif" font-size="10.00">mio::operator==</text>
</a>
</g>
</g>
<!-- Node2 -->
<g id="node2" class="node">
<title>Node2</title>
<g id="a_node2"><a xlink:href="structmio_1_1basic__mmap.html#a2d1d8693d67e97222293e98c3c6d553e" target="_top" xlink:title=" ">
<polygon fill="none" stroke="black" points="135,-38.5 135,-57.5 266,-57.5 266,-38.5 135,-38.5"/>
<text text-anchor="middle" x="200.5" y="-45.5" font-family="Helvetica,sans-Serif" font-size="10.00">mio::basic_mmap::data</text>
</a>
</g>
</g>
<!-- Node1&#45;&gt;Node2 -->
<g id="edge1" class="edge">
<title>Node1&#45;&gt;Node2</title>
<path fill="none" stroke="midnightblue" d="M99.29,-35.22C107.46,-36.26 116.11,-37.37 124.76,-38.47"/>
<polygon fill="midnightblue" stroke="midnightblue" points="124.52,-41.97 134.88,-39.76 125.41,-35.02 124.52,-41.97"/>
</g>
<!-- Node3 -->
<g id="node3" class="node">
<title>Node3</title>
<g id="a_node3"><a xlink:href="structmio_1_1basic__mmap.html#ab024ae1706066753e5163844424d3d7c" target="_top" xlink:title=" ">
<polygon fill="none" stroke="black" points="136,-0.5 136,-19.5 265,-19.5 265,-0.5 136,-0.5"/>
<text text-anchor="middle" x="200.5" y="-7.5" font-family="Helvetica,sans-Serif" font-size="10.00">mio::basic_mmap::size</text>
</a>
</g>
</g>
<!-- Node1&#45;&gt;Node3 -->
<g id="edge2" class="edge">
<title>Node1&#45;&gt;Node3</title>
<path fill="none" stroke="midnightblue" d="M99.29,-22.78C107.8,-21.69 116.82,-20.54 125.82,-19.4"/>
<polygon fill="midnightblue" stroke="midnightblue" points="126.48,-22.84 135.95,-18.1 125.59,-15.9 126.48,-22.84"/>
</g>
<!-- Node4 -->
<g id="node4" class="node">
<title>Node4</title>
<g id="a_node4"><a xlink:href="structmio_1_1basic__mmap.html#a26b3b48db65d974be3eeba9be82ed5d7" target="_top" xlink:title=" ">
<polygon fill="none" stroke="black" points="302,-0.5 302,-19.5 442,-19.5 442,-0.5 302,-0.5"/>
<text text-anchor="middle" x="372" y="-7.5" font-family="Helvetica,sans-Serif" font-size="10.00">mio::basic_mmap::length</text>
</a>
</g>
</g>
<!-- Node3&#45;&gt;Node4 -->
<g id="edge3" class="edge">
<title>Node3&#45;&gt;Node4</title>
<path fill="none" stroke="midnightblue" d="M265.1,-10C273.83,-10 282.89,-10 291.86,-10"/>
<polygon fill="midnightblue" stroke="midnightblue" points="291.94,-13.5 301.94,-10 291.94,-6.5 291.94,-13.5"/>
</g>
</g>
</svg>
