<?xml version="1.0" encoding="UTF-8" standalone="no"?>
<!DOCTYPE svg PUBLIC "-//W3C//DTD SVG 1.1//EN"
 "http://www.w3.org/Graphics/SVG/1.1/DTD/svg11.dtd">
<!-- Generated by graphviz version 2.43.0 (0)
 -->
<!-- Title: mnist::normalize_each Pages: 1 -->
<svg width="369pt" height="47pt"
 viewBox="0.00 0.00 369.00 47.00" xmlns="http://www.w3.org/2000/svg" xmlns:xlink="http://www.w3.org/1999/xlink">
<g id="graph0" class="graph" transform="scale(1 1) rotate(0) translate(4 43)">
<title>mnist::normalize_each</title>
<!-- Node1 -->
<g id="node1" class="node">
<title>Node1</title>
<g id="a_node1"><a xlink:title="Normalize each sub range inside the given range.">
<polygon fill="#bfbfbf" stroke="black" points="0,-19.5 0,-38.5 128,-38.5 128,-19.5 0,-19.5"/>
<text text-anchor="middle" x="64" y="-26.5" font-family="Helvetica,sans-Serif" font-size="10.00">mnist::normalize_each</text>
</a>
</g>
</g>
<!-- Node2 -->
<g id="node2" class="node">
<title>Node2</title>
<g id="a_node2"><a xlink:href="namespacemnist.html#a2dcb2e257557345356d75a4b41df652a" target="_top" xlink:title="Return the mean value of the elements inside the given range.">
<polygon fill="none" stroke="black" points="283,-19.5 283,-38.5 361,-38.5 361,-19.5 283,-19.5"/>
<text text-anchor="middle" x="322" y="-26.5" font-family="Helvetica,sans-Serif" font-size="10.00">mnist::mean</text>
</a>
</g>
</g>
<!-- Node1&#45;&gt;Node2 -->
<g id="edge1" class="edge">
<title>Node1&#45;&gt;Node2</title>
<path fill="none" stroke="midnightblue" d="M128.28,-29C172.82,-29 231.55,-29 272.42,-29"/>
<polygon fill="midnightblue" stroke="midnightblue" points="272.66,-32.5 282.66,-29 272.66,-25.5 272.66,-32.5"/>
</g>
<!-- Node3 -->
<g id="node3" class="node">
<title>Node3</title>
<g id="a_node3"><a xlink:href="namespacemnist.html#a711f59c10ffe748decf24c2752a2945a" target="_top" xlink:title="Return the standard deviation of the elements inside the given range.">
<polygon fill="none" stroke="black" points="164,-0.5 164,-19.5 247,-19.5 247,-0.5 164,-0.5"/>
<text text-anchor="middle" x="205.5" y="-7.5" font-family="Helvetica,sans-Serif" font-size="10.00">mnist::stddev</text>
</a>
</g>
</g>
<!-- Node1&#45;&gt;Node3 -->
<g id="edge2" class="edge">
<title>Node1&#45;&gt;Node3</title>
<path fill="none" stroke="midnightblue" d="M128.22,-20.39C136.83,-19.22 145.57,-18.03 153.92,-16.89"/>
<polygon fill="midnightblue" stroke="midnightblue" points="154.43,-20.35 163.87,-15.53 153.49,-13.42 154.43,-20.35"/>
</g>
<!-- Node3&#45;&gt;Node2 -->
<g id="edge3" class="edge">
<title>Node3&#45;&gt;Node2</title>
<path fill="none" stroke="midnightblue" d="M247.19,-16.75C255.42,-18.12 264.14,-19.56 272.6,-20.97"/>
<polygon fill="midnightblue" stroke="midnightblue" points="272.3,-24.47 282.74,-22.65 273.45,-17.56 272.3,-24.47"/>
</g>
</g>
</svg>
