<?xml version="1.0" encoding="UTF-8" standalone="no"?>
<!DOCTYPE svg PUBLIC "-//W3C//DTD SVG 1.1//EN"
 "http://www.w3.org/Graphics/SVG/1.1/DTD/svg11.dtd">
<!-- Generated by graphviz version 2.43.0 (0)
 -->
<!-- Title: nmbuflowtorch::xor_train Pages: 1 -->
<svg width="1021pt" height="396pt"
 viewBox="0.00 0.00 1021.00 396.00" xmlns="http://www.w3.org/2000/svg" xmlns:xlink="http://www.w3.org/1999/xlink">
<g id="graph0" class="graph" transform="scale(1 1) rotate(0) translate(4 392)">
<title>nmbuflowtorch::xor_train</title>
<!-- Node1 -->
<g id="node1" class="node">
<title>Node1</title>
<g id="a_node1"><a xlink:title=" ">
<polygon fill="#bfbfbf" stroke="black" points="0,-196 0,-226 110,-226 110,-196 0,-196"/>
<text text-anchor="start" x="8" y="-214" font-family="Helvetica,sans-Serif" font-size="10.00">nmbuflowtorch::xor</text>
<text text-anchor="middle" x="55" y="-203" font-family="Helvetica,sans-Serif" font-size="10.00">_train</text>
</a>
</g>
</g>
<!-- Node2 -->
<g id="node2" class="node">
<title>Node2</title>
<g id="a_node2"><a xlink:href="math__m_8hpp.html#a3fb70a01c7681d0fc3ce6facf9b7fdb7" target="_top" xlink:title="Calculates the accuracy score for a given set of true and predicted labels.">
<polygon fill="none" stroke="black" points="165,-368.5 165,-387.5 279,-387.5 279,-368.5 165,-368.5"/>
<text text-anchor="middle" x="222" y="-375.5" font-family="Helvetica,sans-Serif" font-size="10.00">accuracy_score_vec</text>
</a>
</g>
</g>
<!-- Node1&#45;&gt;Node2 -->
<g id="edge1" class="edge">
<title>Node1&#45;&gt;Node2</title>
<path fill="none" stroke="midnightblue" d="M60.86,-226.27C71.3,-256.52 98.83,-324.16 146,-359 148.98,-361.2 152.2,-363.16 155.56,-364.88"/>
<polygon fill="midnightblue" stroke="midnightblue" points="154.17,-368.09 164.73,-368.94 157,-361.69 154.17,-368.09"/>
</g>
<!-- Node3 -->
<g id="node3" class="node">
<title>Node3</title>
<g id="a_node3"><a xlink:href="classnmbuflowtorch_1_1Network.html#aa1d574b1f7daac023f4917887dd05ead" target="_top" xlink:title="Adds a layer to the network.">
<polygon fill="none" stroke="black" points="153.5,-319 153.5,-349 290.5,-349 290.5,-319 153.5,-319"/>
<text text-anchor="start" x="161.5" y="-337" font-family="Helvetica,sans-Serif" font-size="10.00">nmbuflowtorch::Network</text>
<text text-anchor="middle" x="222" y="-326" font-family="Helvetica,sans-Serif" font-size="10.00">::add_layer</text>
</a>
</g>
</g>
<!-- Node1&#45;&gt;Node3 -->
<g id="edge2" class="edge">
<title>Node1&#45;&gt;Node3</title>
<path fill="none" stroke="midnightblue" d="M65.79,-226.02C80.62,-247.63 110.83,-287.39 146,-310 148.56,-311.65 151.25,-313.19 154.01,-314.63"/>
<polygon fill="midnightblue" stroke="midnightblue" points="152.54,-317.81 163.07,-318.91 155.53,-311.48 152.54,-317.81"/>
</g>
<!-- Node4 -->
<g id="node4" class="node">
<title>Node4</title>
<g id="a_node4"><a xlink:href="classnmbuflowtorch_1_1Network.html#a7a86be4bc0c3901a48cfb70b286ec363" target="_top" xlink:title="Adds a loss function to the network.">
<polygon fill="none" stroke="black" points="153.5,-270 153.5,-300 290.5,-300 290.5,-270 153.5,-270"/>
<text text-anchor="start" x="161.5" y="-288" font-family="Helvetica,sans-Serif" font-size="10.00">nmbuflowtorch::Network</text>
<text text-anchor="middle" x="222" y="-277" font-family="Helvetica,sans-Serif" font-size="10.00">::add_loss</text>
</a>
</g>
</g>
<!-- Node1&#45;&gt;Node4 -->
<g id="edge3" class="edge">
<title>Node1&#45;&gt;Node4</title>
<path fill="none" stroke="midnightblue" d="M80.17,-226.15C97.92,-236.84 122.87,-250.99 146,-261 150.4,-262.9 154.99,-264.73 159.65,-266.48"/>
<polygon fill="midnightblue" stroke="midnightblue" points="158.67,-269.84 169.27,-269.93 161.04,-263.25 158.67,-269.84"/>
</g>
<!-- Node5 -->
<g id="node5" class="node">
<title>Node5</title>
<g id="a_node5"><a xlink:href="classnmbuflowtorch_1_1Network.html#a1120a4649f5317ab85b7fd0124f91f75" target="_top" xlink:title="Adds an optimizer to the network.">
<polygon fill="none" stroke="black" points="153.5,-221 153.5,-251 290.5,-251 290.5,-221 153.5,-221"/>
<text text-anchor="start" x="161.5" y="-239" font-family="Helvetica,sans-Serif" font-size="10.00">nmbuflowtorch::Network</text>
<text text-anchor="middle" x="222" y="-228" font-family="Helvetica,sans-Serif" font-size="10.00">::add_optimizer</text>
</a>
</g>
</g>
<!-- Node1&#45;&gt;Node5 -->
<g id="edge4" class="edge">
<title>Node1&#45;&gt;Node5</title>
<path fill="none" stroke="midnightblue" d="M110.03,-219.19C120.61,-220.79 131.89,-222.5 143.07,-224.19"/>
<polygon fill="midnightblue" stroke="midnightblue" points="142.87,-227.7 153.28,-225.74 143.92,-220.78 142.87,-227.7"/>
</g>
<!-- Node6 -->
<g id="node6" class="node">
<title>Node6</title>
<g id="a_node6"><a xlink:href="classnmbuflowtorch_1_1Network.html#ae404b65188cb291b22ec494bb270bec2" target="_top" xlink:title=" ">
<polygon fill="none" stroke="black" points="153.5,-172 153.5,-202 290.5,-202 290.5,-172 153.5,-172"/>
<text text-anchor="start" x="161.5" y="-190" font-family="Helvetica,sans-Serif" font-size="10.00">nmbuflowtorch::Network</text>
<text text-anchor="middle" x="222" y="-179" font-family="Helvetica,sans-Serif" font-size="10.00">::delete_net</text>
</a>
</g>
</g>
<!-- Node1&#45;&gt;Node6 -->
<g id="edge5" class="edge">
<title>Node1&#45;&gt;Node6</title>
<path fill="none" stroke="midnightblue" d="M110.03,-203.14C120.61,-201.6 131.89,-199.96 143.07,-198.33"/>
<polygon fill="midnightblue" stroke="midnightblue" points="143.89,-201.75 153.28,-196.85 142.88,-194.83 143.89,-201.75"/>
</g>
<!-- Node7 -->
<g id="node7" class="node">
<title>Node7</title>
<g id="a_node7"><a xlink:href="classnmbuflowtorch_1_1Network.html#a8cff72188a6f4b0d13c8b7474eec1ca3" target="_top" xlink:title="Fit model to data provided.">
<polygon fill="none" stroke="black" points="146,-133.5 146,-152.5 298,-152.5 298,-133.5 146,-133.5"/>
<text text-anchor="middle" x="222" y="-140.5" font-family="Helvetica,sans-Serif" font-size="10.00">nmbuflowtorch::Network::fit</text>
</a>
</g>
</g>
<!-- Node1&#45;&gt;Node7 -->
<g id="edge6" class="edge">
<title>Node1&#45;&gt;Node7</title>
<path fill="none" stroke="midnightblue" d="M80.48,-195.96C98.18,-185.59 122.93,-172.09 146,-163 153.23,-160.15 161.01,-157.57 168.72,-155.28"/>
<polygon fill="midnightblue" stroke="midnightblue" points="169.73,-158.63 178.4,-152.55 167.83,-151.9 169.73,-158.63"/>
</g>
<!-- Node19 -->
<g id="node19" class="node">
<title>Node19</title>
<g id="a_node19"><a xlink:href="classnmbuflowtorch_1_1layer_1_1Dense.html#a1b343ab594510f4ab93c9c292b5a5123" target="_top" xlink:title="Get the output dimension of the dense layer.">
<polygon fill="none" stroke="black" points="162,-84 162,-114 282,-114 282,-84 162,-84"/>
<text text-anchor="start" x="170" y="-102" font-family="Helvetica,sans-Serif" font-size="10.00">nmbuflowtorch::layer</text>
<text text-anchor="middle" x="222" y="-91" font-family="Helvetica,sans-Serif" font-size="10.00">::Dense::output_dim</text>
</a>
</g>
</g>
<!-- Node1&#45;&gt;Node19 -->
<g id="edge20" class="edge">
<title>Node1&#45;&gt;Node19</title>
<path fill="none" stroke="midnightblue" d="M67.83,-195.97C83.71,-176.75 113.67,-143.61 146,-124 149.4,-121.94 152.99,-120.02 156.69,-118.24"/>
<polygon fill="midnightblue" stroke="midnightblue" points="158.31,-121.36 166.05,-114.11 155.48,-114.95 158.31,-121.36"/>
</g>
<!-- Node20 -->
<g id="node20" class="node">
<title>Node20</title>
<g id="a_node20"><a xlink:href="classnmbuflowtorch_1_1Network.html#afbe484725b9489c054d744f64f57a6b8" target="_top" xlink:title="Fit model to data provided.">
<polygon fill="none" stroke="black" points="153.5,-33 153.5,-63 290.5,-63 290.5,-33 153.5,-33"/>
<text text-anchor="start" x="161.5" y="-51" font-family="Helvetica,sans-Serif" font-size="10.00">nmbuflowtorch::Network</text>
<text text-anchor="middle" x="222" y="-40" font-family="Helvetica,sans-Serif" font-size="10.00">::predict</text>
</a>
</g>
</g>
<!-- Node1&#45;&gt;Node20 -->
<g id="edge21" class="edge">
<title>Node1&#45;&gt;Node20</title>
<path fill="none" stroke="midnightblue" d="M62.24,-195.61C74.31,-167.67 103.47,-108.41 146,-75 149.37,-72.36 153.02,-69.96 156.83,-67.78"/>
<polygon fill="midnightblue" stroke="midnightblue" points="158.66,-70.77 165.97,-63.1 155.47,-64.54 158.66,-70.77"/>
</g>
<!-- Node8 -->
<g id="node8" class="node">
<title>Node8</title>
<g id="a_node8"><a xlink:href="math__m_8hpp.html#a00222de08fb54dc0423e29cc610d1f0c" target="_top" xlink:title="Shuffles a dataset by creating a permutation matrix from a given vector of indices and applying it to...">
<polygon fill="none" stroke="black" points="364,-177.5 364,-196.5 441,-196.5 441,-177.5 364,-177.5"/>
<text text-anchor="middle" x="402.5" y="-184.5" font-family="Helvetica,sans-Serif" font-size="10.00">shuffle_data</text>
</a>
</g>
</g>
<!-- Node7&#45;&gt;Node8 -->
<g id="edge7" class="edge">
<title>Node7&#45;&gt;Node8</title>
<path fill="none" stroke="midnightblue" d="M261.73,-152.55C288.79,-159.22 325.08,-168.16 353.91,-175.27"/>
<polygon fill="midnightblue" stroke="midnightblue" points="353.22,-178.7 363.76,-177.7 354.89,-171.91 353.22,-178.7"/>
</g>
<!-- Node9 -->
<g id="node9" class="node">
<title>Node9</title>
<g id="a_node9"><a xlink:href="classnmbuflowtorch_1_1Network.html#ab4decd5644c172b3ade967496bf64f7b" target="_top" xlink:title="Trains all batches in X and y for one epoch.">
<polygon fill="none" stroke="black" points="334,-128 334,-158 471,-158 471,-128 334,-128"/>
<text text-anchor="start" x="342" y="-146" font-family="Helvetica,sans-Serif" font-size="10.00">nmbuflowtorch::Network</text>
<text text-anchor="middle" x="402.5" y="-135" font-family="Helvetica,sans-Serif" font-size="10.00">::train_one_epoch</text>
</a>
</g>
</g>
<!-- Node7&#45;&gt;Node9 -->
<g id="edge8" class="edge">
<title>Node7&#45;&gt;Node9</title>
<path fill="none" stroke="midnightblue" d="M298.18,-143C306.58,-143 315.15,-143 323.58,-143"/>
<polygon fill="midnightblue" stroke="midnightblue" points="323.78,-146.5 333.78,-143 323.78,-139.5 323.78,-146.5"/>
</g>
<!-- Node10 -->
<g id="node10" class="node">
<title>Node10</title>
<g id="a_node10"><a xlink:href="namespacenmbuflowtorch.html#a6841de6f2ac014f91c37f7f2c0e9cc1e" target="_top" xlink:title="Prints a progress bar to the console.">
<polygon fill="none" stroke="black" points="507,-177.5 507,-196.5 667,-196.5 667,-177.5 507,-177.5"/>
<text text-anchor="middle" x="587" y="-184.5" font-family="Helvetica,sans-Serif" font-size="10.00">nmbuflowtorch::printProgress</text>
</a>
</g>
</g>
<!-- Node9&#45;&gt;Node10 -->
<g id="edge9" class="edge">
<title>Node9&#45;&gt;Node10</title>
<path fill="none" stroke="midnightblue" d="M465.62,-158.01C479.25,-161.31 493.61,-164.77 507,-168 516.47,-170.28 526.57,-172.71 536.28,-175.05"/>
<polygon fill="midnightblue" stroke="midnightblue" points="535.67,-178.5 546.21,-177.44 537.31,-171.7 535.67,-178.5"/>
</g>
<!-- Node11 -->
<g id="node11" class="node">
<title>Node11</title>
<g id="a_node11"><a xlink:href="classnmbuflowtorch_1_1Network.html#ac5f07dc09b1d352567d6cbcc3c38c010" target="_top" xlink:title="Forward, backward, and update functions combined for one batch of data.">
<polygon fill="none" stroke="black" points="518.5,-128 518.5,-158 655.5,-158 655.5,-128 518.5,-128"/>
<text text-anchor="start" x="526.5" y="-146" font-family="Helvetica,sans-Serif" font-size="10.00">nmbuflowtorch::Network</text>
<text text-anchor="middle" x="587" y="-135" font-family="Helvetica,sans-Serif" font-size="10.00">::train_batch</text>
</a>
</g>
</g>
<!-- Node9&#45;&gt;Node11 -->
<g id="edge10" class="edge">
<title>Node9&#45;&gt;Node11</title>
<path fill="none" stroke="midnightblue" d="M471.2,-143C483.24,-143 495.88,-143 508.18,-143"/>
<polygon fill="midnightblue" stroke="midnightblue" points="508.41,-146.5 518.41,-143 508.41,-139.5 508.41,-146.5"/>
</g>
<!-- Node12 -->
<g id="node12" class="node">
<title>Node12</title>
<g id="a_node12"><a xlink:href="classnmbuflowtorch_1_1Network.html#ad2626aa7216689fadfa4469273de8c90" target="_top" xlink:title="Using X input and y target, back propagates the loss gradient.">
<polygon fill="none" stroke="black" points="703,-218 703,-248 840,-248 840,-218 703,-218"/>
<text text-anchor="start" x="711" y="-236" font-family="Helvetica,sans-Serif" font-size="10.00">nmbuflowtorch::Network</text>
<text text-anchor="middle" x="771.5" y="-225" font-family="Helvetica,sans-Serif" font-size="10.00">::backward</text>
</a>
</g>
</g>
<!-- Node11&#45;&gt;Node12 -->
<g id="edge11" class="edge">
<title>Node11&#45;&gt;Node12</title>
<path fill="none" stroke="midnightblue" d="M646.31,-158.01C653.51,-160.85 660.58,-164.16 667,-168 686.15,-179.45 684.52,-190.5 703,-203 708.64,-206.81 714.84,-210.34 721.13,-213.52"/>
<polygon fill="midnightblue" stroke="midnightblue" points="719.82,-216.78 730.35,-217.95 722.85,-210.47 719.82,-216.78"/>
</g>
<!-- Node15 -->
<g id="node15" class="node">
<title>Node15</title>
<g id="a_node15"><a xlink:href="classnmbuflowtorch_1_1Network.html#a47b0ad164e645c60f736f60f87827900" target="_top" xlink:title="Returns the value from the last layer.">
<polygon fill="none" stroke="black" points="876,-169 876,-199 1013,-199 1013,-169 876,-169"/>
<text text-anchor="start" x="884" y="-187" font-family="Helvetica,sans-Serif" font-size="10.00">nmbuflowtorch::Network</text>
<text text-anchor="middle" x="944.5" y="-176" font-family="Helvetica,sans-Serif" font-size="10.00">::output</text>
</a>
</g>
</g>
<!-- Node11&#45;&gt;Node15 -->
<g id="edge18" class="edge">
<title>Node11&#45;&gt;Node15</title>
<path fill="none" stroke="midnightblue" d="M643.49,-158.07C662.26,-162.62 683.42,-167.15 703,-170 756.98,-177.85 818.39,-181.33 865.64,-182.86"/>
<polygon fill="midnightblue" stroke="midnightblue" points="865.7,-186.37 875.8,-183.17 865.91,-179.37 865.7,-186.37"/>
</g>
<!-- Node16 -->
<g id="node16" class="node">
<title>Node16</title>
<g id="a_node16"><a xlink:href="classnmbuflowtorch_1_1Network.html#ae6cd135a052cc1526b34bb4144ae58b6" target="_top" xlink:title=" ">
<polygon fill="none" stroke="black" points="703,-32 703,-62 840,-62 840,-32 703,-32"/>
<text text-anchor="start" x="711" y="-50" font-family="Helvetica,sans-Serif" font-size="10.00">nmbuflowtorch::Network</text>
<text text-anchor="middle" x="771.5" y="-39" font-family="Helvetica,sans-Serif" font-size="10.00">::forward</text>
</a>
</g>
</g>
<!-- Node11&#45;&gt;Node16 -->
<g id="edge15" class="edge">
<title>Node11&#45;&gt;Node16</title>
<path fill="none" stroke="midnightblue" d="M609.73,-127.77C632.32,-112.38 669.05,-88.56 703,-72 707.33,-69.89 711.9,-67.84 716.52,-65.89"/>
<polygon fill="midnightblue" stroke="midnightblue" points="718.08,-69.03 726.04,-62.04 715.45,-62.55 718.08,-69.03"/>
</g>
<!-- Node17 -->
<g id="node17" class="node">
<title>Node17</title>
<g id="a_node17"><a xlink:href="classnmbuflowtorch_1_1Loss.html#a5747f962c29f0e1a6147c435da22c466" target="_top" xlink:title="Returns the value of the loss.">
<polygon fill="none" stroke="black" points="713,-130 713,-160 830,-160 830,-130 713,-130"/>
<text text-anchor="start" x="721" y="-148" font-family="Helvetica,sans-Serif" font-size="10.00">nmbuflowtorch::Loss</text>
<text text-anchor="middle" x="771.5" y="-137" font-family="Helvetica,sans-Serif" font-size="10.00">::output</text>
</a>
</g>
</g>
<!-- Node11&#45;&gt;Node17 -->
<g id="edge17" class="edge">
<title>Node11&#45;&gt;Node17</title>
<path fill="none" stroke="midnightblue" d="M655.7,-143.74C670.94,-143.91 687.13,-144.09 702.4,-144.25"/>
<polygon fill="midnightblue" stroke="midnightblue" points="702.76,-147.76 712.8,-144.37 702.83,-140.76 702.76,-147.76"/>
</g>
<!-- Node18 -->
<g id="node18" class="node">
<title>Node18</title>
<g id="a_node18"><a xlink:href="classnmbuflowtorch_1_1Network.html#ab4dcbf1de529e005b2eb4c31b8cbd552" target="_top" xlink:title=" ">
<polygon fill="none" stroke="black" points="703,-81 703,-111 840,-111 840,-81 703,-81"/>
<text text-anchor="start" x="711" y="-99" font-family="Helvetica,sans-Serif" font-size="10.00">nmbuflowtorch::Network</text>
<text text-anchor="middle" x="771.5" y="-88" font-family="Helvetica,sans-Serif" font-size="10.00">::update</text>
</a>
</g>
</g>
<!-- Node11&#45;&gt;Node18 -->
<g id="edge19" class="edge">
<title>Node11&#45;&gt;Node18</title>
<path fill="none" stroke="midnightblue" d="M646.25,-128C664.11,-123.4 683.92,-118.3 702.38,-113.54"/>
<polygon fill="midnightblue" stroke="midnightblue" points="703.37,-116.9 712.18,-111.02 701.62,-110.12 703.37,-116.9"/>
</g>
<!-- Node13 -->
<g id="node13" class="node">
<title>Node13</title>
<g id="a_node13"><a xlink:href="classnmbuflowtorch_1_1Loss.html#a29688f70477ce9f630cb313cc7e4c365" target="_top" xlink:title="Returns the gradient with respect to the input of the loss function.">
<polygon fill="none" stroke="black" points="886,-267 886,-297 1003,-297 1003,-267 886,-267"/>
<text text-anchor="start" x="894" y="-285" font-family="Helvetica,sans-Serif" font-size="10.00">nmbuflowtorch::Loss</text>
<text text-anchor="middle" x="944.5" y="-274" font-family="Helvetica,sans-Serif" font-size="10.00">::back_gradient</text>
</a>
</g>
</g>
<!-- Node12&#45;&gt;Node13 -->
<g id="edge12" class="edge">
<title>Node12&#45;&gt;Node13</title>
<path fill="none" stroke="midnightblue" d="M825.2,-248.1C842.92,-253.18 862.85,-258.89 881.23,-264.16"/>
<polygon fill="midnightblue" stroke="midnightblue" points="880.4,-267.56 890.97,-266.95 882.32,-260.83 880.4,-267.56"/>
</g>
<!-- Node14 -->
<g id="node14" class="node">
<title>Node14</title>
<g id="a_node14"><a xlink:href="classnmbuflowtorch_1_1Loss.html#ab739a047ffc84f44af71832ec704cedc" target="_top" xlink:title="Evaluates the loss function given the predicted and target values.">
<polygon fill="none" stroke="black" points="886,-218 886,-248 1003,-248 1003,-218 886,-218"/>
<text text-anchor="start" x="894" y="-236" font-family="Helvetica,sans-Serif" font-size="10.00">nmbuflowtorch::Loss</text>
<text text-anchor="middle" x="944.5" y="-225" font-family="Helvetica,sans-Serif" font-size="10.00">::eval</text>
</a>
</g>
</g>
<!-- Node12&#45;&gt;Node14 -->
<g id="edge13" class="edge">
<title>Node12&#45;&gt;Node14</title>
<path fill="none" stroke="midnightblue" d="M840.08,-233C851.78,-233 863.95,-233 875.65,-233"/>
<polygon fill="midnightblue" stroke="midnightblue" points="875.79,-236.5 885.79,-233 875.79,-229.5 875.79,-236.5"/>
</g>
<!-- Node12&#45;&gt;Node15 -->
<g id="edge14" class="edge">
<title>Node12&#45;&gt;Node15</title>
<path fill="none" stroke="midnightblue" d="M825.2,-217.9C842.92,-212.82 862.85,-207.11 881.23,-201.84"/>
<polygon fill="midnightblue" stroke="midnightblue" points="882.32,-205.17 890.97,-199.05 880.4,-198.44 882.32,-205.17"/>
</g>
<!-- Node16&#45;&gt;Node15 -->
<g id="edge16" class="edge">
<title>Node16&#45;&gt;Node15</title>
<path fill="none" stroke="midnightblue" d="M821.78,-62.12C828.15,-64.96 834.39,-68.25 840,-72 876.22,-96.24 908.65,-135.61 927.19,-160.63"/>
<polygon fill="midnightblue" stroke="midnightblue" points="924.44,-162.8 933.15,-168.83 930.1,-158.69 924.44,-162.8"/>
</g>
<!-- Node20&#45;&gt;Node16 -->
<g id="edge23" class="edge">
<title>Node20&#45;&gt;Node16</title>
<path fill="none" stroke="midnightblue" d="M290.68,-47.88C392.68,-47.69 585.26,-47.34 692.83,-47.14"/>
<polygon fill="midnightblue" stroke="midnightblue" points="692.98,-50.64 702.97,-47.12 692.96,-43.64 692.98,-50.64"/>
</g>
<!-- Node21 -->
<g id="node21" class="node">
<title>Node21</title>
<g id="a_node21"><a xlink:href="math__m_8hpp.html#aebe2ab42fdbc00b9e3afb06ba7d536c3" target="_top" xlink:title="Applies a binary cutoff to a given float value.">
<polygon fill="none" stroke="black" points="362.5,-0.5 362.5,-19.5 442.5,-19.5 442.5,-0.5 362.5,-0.5"/>
<text text-anchor="middle" x="402.5" y="-7.5" font-family="Helvetica,sans-Serif" font-size="10.00">binary_cutoff</text>
</a>
</g>
</g>
<!-- Node20&#45;&gt;Node21 -->
<g id="edge22" class="edge">
<title>Node20&#45;&gt;Node21</title>
<path fill="none" stroke="midnightblue" d="M290.74,-33.58C311.22,-29.22 333.31,-24.52 352.33,-20.47"/>
<polygon fill="midnightblue" stroke="midnightblue" points="353.21,-23.86 362.26,-18.35 351.76,-17.01 353.21,-23.86"/>
</g>
</g>
</svg>
