<?xml version="1.0" encoding="UTF-8" standalone="no"?>
<!DOCTYPE svg PUBLIC "-//W3C//DTD SVG 1.1//EN"
 "http://www.w3.org/Graphics/SVG/1.1/DTD/svg11.dtd">
<!-- Generated by graphviz version 2.43.0 (0)
 -->
<!-- Title: mio::detail::memory_map Pages: 1 -->
<svg width="444pt" height="78pt"
 viewBox="0.00 0.00 444.00 77.50" xmlns="http://www.w3.org/2000/svg" xmlns:xlink="http://www.w3.org/1999/xlink">
<g id="graph0" class="graph" transform="scale(1 1) rotate(0) translate(4 73.5)">
<title>mio::detail::memory_map</title>
<!-- Node1 -->
<g id="node1" class="node">
<title>Node1</title>
<g id="a_node1"><a xlink:title=" ">
<polygon fill="#bfbfbf" stroke="black" points="0,-28 0,-47 143,-47 143,-28 0,-28"/>
<text text-anchor="middle" x="71.5" y="-35" font-family="Helvetica,sans-Serif" font-size="10.00">mio::detail::memory_map</text>
</a>
</g>
</g>
<!-- Node2 -->
<g id="node2" class="node">
<title>Node2</title>
<g id="a_node2"><a xlink:href="namespacemio_1_1detail.html#a7674417addb84255c50356e6125cb81a" target="_top" xlink:title=" ">
<polygon fill="none" stroke="black" points="183.5,-50 183.5,-69 305.5,-69 305.5,-50 183.5,-50"/>
<text text-anchor="middle" x="244.5" y="-57" font-family="Helvetica,sans-Serif" font-size="10.00">mio::detail::last_error</text>
</a>
</g>
</g>
<!-- Node1&#45;&gt;Node2 -->
<g id="edge1" class="edge">
<title>Node1&#45;&gt;Node2</title>
<path fill="none" stroke="midnightblue" d="M143.04,-46.58C153.11,-47.87 163.47,-49.2 173.54,-50.5"/>
<polygon fill="midnightblue" stroke="midnightblue" points="173.11,-53.97 183.48,-51.78 174.01,-47.03 173.11,-53.97"/>
</g>
<!-- Node3 -->
<g id="node3" class="node">
<title>Node3</title>
<g id="a_node3"><a xlink:href="namespacemio.html#a8241a662aa47c5f64086830e3f913c99" target="_top" xlink:title=" ">
<polygon fill="none" stroke="black" points="179,-0.5 179,-30.5 310,-30.5 310,-0.5 179,-0.5"/>
<text text-anchor="start" x="187" y="-18.5" font-family="Helvetica,sans-Serif" font-size="10.00">mio::make_offset_page</text>
<text text-anchor="middle" x="244.5" y="-7.5" font-family="Helvetica,sans-Serif" font-size="10.00">_aligned</text>
</a>
</g>
</g>
<!-- Node1&#45;&gt;Node3 -->
<g id="edge2" class="edge">
<title>Node1&#45;&gt;Node3</title>
<path fill="none" stroke="midnightblue" d="M143.04,-28.42C151.57,-27.33 160.3,-26.2 168.89,-25.1"/>
<polygon fill="midnightblue" stroke="midnightblue" points="169.41,-28.56 178.88,-23.81 168.52,-21.62 169.41,-28.56"/>
</g>
<!-- Node4 -->
<g id="node4" class="node">
<title>Node4</title>
<g id="a_node4"><a xlink:href="namespacemio.html#a5fa19e76f930339fbeb51ad691b0bfd3" target="_top" xlink:title=" ">
<polygon fill="none" stroke="black" points="346,-6 346,-25 436,-25 436,-6 346,-6"/>
<text text-anchor="middle" x="391" y="-13" font-family="Helvetica,sans-Serif" font-size="10.00">mio::page_size</text>
</a>
</g>
</g>
<!-- Node3&#45;&gt;Node4 -->
<g id="edge3" class="edge">
<title>Node3&#45;&gt;Node4</title>
<path fill="none" stroke="midnightblue" d="M310.14,-15.5C318.6,-15.5 327.19,-15.5 335.46,-15.5"/>
<polygon fill="midnightblue" stroke="midnightblue" points="335.71,-19 345.71,-15.5 335.71,-12 335.71,-19"/>
</g>
</g>
</svg>
