<?xml version="1.0" encoding="UTF-8" standalone="no"?>
<!DOCTYPE svg PUBLIC "-//W3C//DTD SVG 1.1//EN"
 "http://www.w3.org/Graphics/SVG/1.1/DTD/svg11.dtd">
<!-- Generated by graphviz version 2.43.0 (0)
 -->
<!-- Title: mio::detail::open_file Pages: 1 -->
<svg width="285pt" height="104pt"
 viewBox="0.00 0.00 285.00 104.00" xmlns="http://www.w3.org/2000/svg" xmlns:xlink="http://www.w3.org/1999/xlink">
<g id="graph0" class="graph" transform="scale(1 1) rotate(0) translate(4 100)">
<title>mio::detail::open_file</title>
<!-- Node1 -->
<g id="node1" class="node">
<title>Node1</title>
<g id="a_node1"><a xlink:title=" ">
<polygon fill="#bfbfbf" stroke="black" points="0,-38.5 0,-57.5 119,-57.5 119,-38.5 0,-38.5"/>
<text text-anchor="middle" x="59.5" y="-45.5" font-family="Helvetica,sans-Serif" font-size="10.00">mio::detail::open_file</text>
</a>
</g>
</g>
<!-- Node2 -->
<g id="node2" class="node">
<title>Node2</title>
<g id="a_node2"><a xlink:href="namespacemio_1_1detail.html#aaf2266c48f50763f422ba1377f9a0e1f" target="_top" xlink:title=" ">
<polygon fill="none" stroke="black" points="167,-76.5 167,-95.5 265,-95.5 265,-76.5 167,-76.5"/>
<text text-anchor="middle" x="216" y="-83.5" font-family="Helvetica,sans-Serif" font-size="10.00">mio::detail::c_str</text>
</a>
</g>
</g>
<!-- Node1&#45;&gt;Node2 -->
<g id="edge1" class="edge">
<title>Node1&#45;&gt;Node2</title>
<path fill="none" stroke="midnightblue" d="M99.49,-57.59C119.78,-62.58 144.79,-68.73 166.35,-74.03"/>
<polygon fill="midnightblue" stroke="midnightblue" points="165.75,-77.49 176.29,-76.48 167.42,-70.69 165.75,-77.49"/>
</g>
<!-- Node3 -->
<g id="node3" class="node">
<title>Node3</title>
<g id="a_node3"><a xlink:href="namespacemio_1_1detail.html#afdbd6eb65958d1555831926500365f2d" target="_top" xlink:title=" ">
<polygon fill="none" stroke="black" points="162.5,-38.5 162.5,-57.5 269.5,-57.5 269.5,-38.5 162.5,-38.5"/>
<text text-anchor="middle" x="216" y="-45.5" font-family="Helvetica,sans-Serif" font-size="10.00">mio::detail::empty</text>
</a>
</g>
</g>
<!-- Node1&#45;&gt;Node3 -->
<g id="edge2" class="edge">
<title>Node1&#45;&gt;Node3</title>
<path fill="none" stroke="midnightblue" d="M119.35,-48C130.08,-48 141.31,-48 152.15,-48"/>
<polygon fill="midnightblue" stroke="midnightblue" points="152.39,-51.5 162.39,-48 152.39,-44.5 152.39,-51.5"/>
</g>
<!-- Node4 -->
<g id="node4" class="node">
<title>Node4</title>
<g id="a_node4"><a xlink:href="namespacemio_1_1detail.html#a7674417addb84255c50356e6125cb81a" target="_top" xlink:title=" ">
<polygon fill="none" stroke="black" points="155,-0.5 155,-19.5 277,-19.5 277,-0.5 155,-0.5"/>
<text text-anchor="middle" x="216" y="-7.5" font-family="Helvetica,sans-Serif" font-size="10.00">mio::detail::last_error</text>
</a>
</g>
</g>
<!-- Node1&#45;&gt;Node4 -->
<g id="edge3" class="edge">
<title>Node1&#45;&gt;Node4</title>
<path fill="none" stroke="midnightblue" d="M99.49,-38.41C119.78,-33.42 144.79,-27.27 166.35,-21.97"/>
<polygon fill="midnightblue" stroke="midnightblue" points="167.42,-25.31 176.29,-19.52 165.75,-18.51 167.42,-25.31"/>
</g>
</g>
</svg>
