<?xml version="1.0" encoding="UTF-8" standalone="no"?>
<!DOCTYPE svg PUBLIC "-//W3C//DTD SVG 1.1//EN"
 "http://www.w3.org/Graphics/SVG/1.1/DTD/svg11.dtd">
<!-- Generated by graphviz version 2.43.0 (0)
 -->
<!-- Title: mnist::read_mnist_image_file Pages: 1 -->
<svg width="479pt" height="47pt"
 viewBox="0.00 0.00 479.00 47.00" xmlns="http://www.w3.org/2000/svg" xmlns:xlink="http://www.w3.org/1999/xlink">
<g id="graph0" class="graph" transform="scale(1 1) rotate(0) translate(4 43)">
<title>mnist::read_mnist_image_file</title>
<!-- Node1 -->
<g id="node1" class="node">
<title>Node1</title>
<g id="a_node1"><a xlink:title="Read a MNIST image file inside the given container.">
<polygon fill="#bfbfbf" stroke="black" points="0,-19.5 0,-38.5 162,-38.5 162,-19.5 0,-19.5"/>
<text text-anchor="middle" x="81" y="-26.5" font-family="Helvetica,sans-Serif" font-size="10.00">mnist::read_mnist_image_file</text>
</a>
</g>
</g>
<!-- Node2 -->
<g id="node2" class="node">
<title>Node2</title>
<g id="a_node2"><a xlink:href="namespacemnist.html#ae23bbb05e2acb0f4fb36edf42431cea7" target="_top" xlink:title="Extract the MNIST header from the given buffer.">
<polygon fill="none" stroke="black" points="360,-19.5 360,-38.5 471,-38.5 471,-19.5 360,-19.5"/>
<text text-anchor="middle" x="415.5" y="-26.5" font-family="Helvetica,sans-Serif" font-size="10.00">mnist::read_header</text>
</a>
</g>
</g>
<!-- Node1&#45;&gt;Node2 -->
<g id="edge1" class="edge">
<title>Node1&#45;&gt;Node2</title>
<path fill="none" stroke="midnightblue" d="M162.07,-29C219.56,-29 296.07,-29 349.73,-29"/>
<polygon fill="midnightblue" stroke="midnightblue" points="349.81,-32.5 359.81,-29 349.81,-25.5 349.81,-32.5"/>
</g>
<!-- Node3 -->
<g id="node3" class="node">
<title>Node3</title>
<g id="a_node3"><a xlink:href="namespacemnist.html#a8061847f8ead32e07e1a343f29c03671" target="_top" xlink:title="Read a MNIST file inside a raw buffer.">
<polygon fill="none" stroke="black" points="198,-0.5 198,-19.5 324,-19.5 324,-0.5 198,-0.5"/>
<text text-anchor="middle" x="261" y="-7.5" font-family="Helvetica,sans-Serif" font-size="10.00">mnist::read_mnist_file</text>
</a>
</g>
</g>
<!-- Node1&#45;&gt;Node3 -->
<g id="edge2" class="edge">
<title>Node1&#45;&gt;Node3</title>
<path fill="none" stroke="midnightblue" d="M162.15,-20.44C170.68,-19.53 179.31,-18.61 187.74,-17.71"/>
<polygon fill="midnightblue" stroke="midnightblue" points="188.33,-21.17 197.9,-16.63 187.59,-14.21 188.33,-21.17"/>
</g>
<!-- Node3&#45;&gt;Node2 -->
<g id="edge3" class="edge">
<title>Node3&#45;&gt;Node2</title>
<path fill="none" stroke="midnightblue" d="M324.03,-17.73C332.56,-18.79 341.34,-19.89 349.92,-20.95"/>
<polygon fill="midnightblue" stroke="midnightblue" points="349.52,-24.43 359.87,-22.19 350.38,-17.48 349.52,-24.43"/>
</g>
</g>
</svg>
