<?xml version="1.0" encoding="UTF-8" standalone="no"?>
<!DOCTYPE svg PUBLIC "-//W3C//DTD SVG 1.1//EN"
 "http://www.w3.org/Graphics/SVG/1.1/DTD/svg11.dtd">
<!-- Generated by graphviz version 2.43.0 (0)
 -->
<!-- Title: mnist::read_mnist_label_file Pages: 1 -->
<svg width="472pt" height="47pt"
 viewBox="0.00 0.00 472.00 47.00" xmlns="http://www.w3.org/2000/svg" xmlns:xlink="http://www.w3.org/1999/xlink">
<g id="graph0" class="graph" transform="scale(1 1) rotate(0) translate(4 43)">
<title>mnist::read_mnist_label_file</title>
<!-- Node1 -->
<g id="node1" class="node">
<title>Node1</title>
<g id="a_node1"><a xlink:title="Read a MNIST label file inside the given container.">
<polygon fill="#bfbfbf" stroke="black" points="0,-19.5 0,-38.5 155,-38.5 155,-19.5 0,-19.5"/>
<text text-anchor="middle" x="77.5" y="-26.5" font-family="Helvetica,sans-Serif" font-size="10.00">mnist::read_mnist_label_file</text>
</a>
</g>
</g>
<!-- Node2 -->
<g id="node2" class="node">
<title>Node2</title>
<g id="a_node2"><a xlink:href="namespacemnist.html#ae23bbb05e2acb0f4fb36edf42431cea7" target="_top" xlink:title="Extract the MNIST header from the given buffer.">
<polygon fill="none" stroke="black" points="353,-19.5 353,-38.5 464,-38.5 464,-19.5 353,-19.5"/>
<text text-anchor="middle" x="408.5" y="-26.5" font-family="Helvetica,sans-Serif" font-size="10.00">mnist::read_header</text>
</a>
</g>
</g>
<!-- Node1&#45;&gt;Node2 -->
<g id="edge1" class="edge">
<title>Node1&#45;&gt;Node2</title>
<path fill="none" stroke="midnightblue" d="M155.22,-29C212.12,-29 288.85,-29 342.69,-29"/>
<polygon fill="midnightblue" stroke="midnightblue" points="342.8,-32.5 352.8,-29 342.8,-25.5 342.8,-32.5"/>
</g>
<!-- Node3 -->
<g id="node3" class="node">
<title>Node3</title>
<g id="a_node3"><a xlink:href="namespacemnist.html#a8061847f8ead32e07e1a343f29c03671" target="_top" xlink:title="Read a MNIST file inside a raw buffer.">
<polygon fill="none" stroke="black" points="191,-0.5 191,-19.5 317,-19.5 317,-0.5 191,-0.5"/>
<text text-anchor="middle" x="254" y="-7.5" font-family="Helvetica,sans-Serif" font-size="10.00">mnist::read_mnist_file</text>
</a>
</g>
</g>
<!-- Node1&#45;&gt;Node3 -->
<g id="edge2" class="edge">
<title>Node1&#45;&gt;Node3</title>
<path fill="none" stroke="midnightblue" d="M155.04,-20.67C163.57,-19.74 172.23,-18.79 180.71,-17.87"/>
<polygon fill="midnightblue" stroke="midnightblue" points="181.36,-21.32 190.92,-16.76 180.6,-14.36 181.36,-21.32"/>
</g>
<!-- Node3&#45;&gt;Node2 -->
<g id="edge3" class="edge">
<title>Node3&#45;&gt;Node2</title>
<path fill="none" stroke="midnightblue" d="M317.03,-17.73C325.56,-18.79 334.34,-19.89 342.92,-20.95"/>
<polygon fill="midnightblue" stroke="midnightblue" points="342.52,-24.43 352.87,-22.19 343.38,-17.48 342.52,-24.43"/>
</g>
</g>
</svg>
