<?xml version="1.0" encoding="UTF-8" standalone="no"?>
<!DOCTYPE svg PUBLIC "-//W3C//DTD SVG 1.1//EN"
 "http://www.w3.org/Graphics/SVG/1.1/DTD/svg11.dtd">
<!-- Generated by graphviz version 2.43.0 (0)
 -->
<!-- Title: csv::internals::_process_potential_exponential Pages: 1 -->
<svg width="489pt" height="78pt"
 viewBox="0.00 0.00 489.00 77.50" xmlns="http://www.w3.org/2000/svg" xmlns:xlink="http://www.w3.org/1999/xlink">
<g id="graph0" class="graph" transform="scale(1 1) rotate(0) translate(4 73.5)">
<title>csv::internals::_process_potential_exponential</title>
<!-- Node1 -->
<g id="node1" class="node">
<title>Node1</title>
<g id="a_node1"><a xlink:title=" ">
<polygon fill="#bfbfbf" stroke="black" points="0,-33 0,-63 130,-63 130,-33 0,-33"/>
<text text-anchor="start" x="8" y="-51" font-family="Helvetica,sans-Serif" font-size="10.00">csv::internals::_process</text>
<text text-anchor="middle" x="65" y="-40" font-family="Helvetica,sans-Serif" font-size="10.00">_potential_exponential</text>
</a>
</g>
</g>
<!-- Node2 -->
<g id="node2" class="node">
<title>Node2</title>
<g id="a_node2"><a xlink:href="namespacecsv_1_1internals.html#adac40005a876a4cb847f62c79be7935d" target="_top" xlink:title=" ">
<polygon fill="none" stroke="black" points="166,-38.5 166,-57.5 302,-57.5 302,-38.5 166,-38.5"/>
<text text-anchor="middle" x="234" y="-45.5" font-family="Helvetica,sans-Serif" font-size="10.00">csv::internals::data_type</text>
</a>
</g>
</g>
<!-- Node1&#45;&gt;Node2 -->
<g id="edge1" class="edge">
<title>Node1&#45;&gt;Node2</title>
<path fill="none" stroke="midnightblue" d="M130.09,-41.41C138.49,-41.27 147.16,-41.22 155.74,-41.27"/>
<polygon fill="midnightblue" stroke="midnightblue" points="155.73,-44.77 165.76,-41.37 155.79,-37.77 155.73,-44.77"/>
</g>
<!-- Node4 -->
<g id="node4" class="node">
<title>Node4</title>
<g id="a_node4"><a xlink:href="namespacecsv_1_1internals.html#a53610b31da85139a100e9773f6b9fb4f" target="_top" xlink:title=" ">
<polygon fill="none" stroke="black" points="350,-0.5 350,-19.5 469,-19.5 469,-0.5 350,-0.5"/>
<text text-anchor="middle" x="409.5" y="-7.5" font-family="Helvetica,sans-Serif" font-size="10.00">csv::internals::pow10</text>
</a>
</g>
</g>
<!-- Node1&#45;&gt;Node4 -->
<g id="edge5" class="edge">
<title>Node1&#45;&gt;Node4</title>
<path fill="none" stroke="midnightblue" d="M130.11,-34.74C142.01,-32.59 154.35,-30.56 166,-29 224.23,-21.21 290.77,-16.28 339.41,-13.39"/>
<polygon fill="midnightblue" stroke="midnightblue" points="339.73,-16.88 349.51,-12.81 339.32,-9.89 339.73,-16.88"/>
</g>
<!-- Node2&#45;&gt;Node1 -->
<g id="edge3" class="edge">
<title>Node2&#45;&gt;Node1</title>
<path fill="none" stroke="midnightblue" d="M165.76,-54.63C157.39,-54.75 148.8,-54.78 140.33,-54.71"/>
<polygon fill="midnightblue" stroke="midnightblue" points="140.13,-51.21 130.09,-54.59 140.04,-58.21 140.13,-51.21"/>
</g>
<!-- Node3 -->
<g id="node3" class="node">
<title>Node3</title>
<g id="a_node3"><a xlink:href="namespacecsv_1_1internals.html#ae8e51ab7323dd0e66ce1157a5d230718" target="_top" xlink:title=" ">
<polygon fill="none" stroke="black" points="338,-39 338,-69 481,-69 481,-39 338,-39"/>
<text text-anchor="start" x="346" y="-57" font-family="Helvetica,sans-Serif" font-size="10.00">csv::internals::_determine</text>
<text text-anchor="middle" x="409.5" y="-46" font-family="Helvetica,sans-Serif" font-size="10.00">_integral_type</text>
</a>
</g>
</g>
<!-- Node2&#45;&gt;Node3 -->
<g id="edge2" class="edge">
<title>Node2&#45;&gt;Node3</title>
<path fill="none" stroke="midnightblue" d="M302.08,-50.32C310.51,-50.61 319.2,-50.91 327.81,-51.21"/>
<polygon fill="midnightblue" stroke="midnightblue" points="327.75,-54.71 337.87,-51.56 327.99,-47.71 327.75,-54.71"/>
</g>
<!-- Node2&#45;&gt;Node4 -->
<g id="edge4" class="edge">
<title>Node2&#45;&gt;Node4</title>
<path fill="none" stroke="midnightblue" d="M278.78,-38.41C301.99,-33.33 330.68,-27.04 355.17,-21.68"/>
<polygon fill="midnightblue" stroke="midnightblue" points="356.01,-25.08 365.03,-19.52 354.52,-18.24 356.01,-25.08"/>
</g>
</g>
</svg>
