<?xml version="1.0" encoding="UTF-8" standalone="no"?>
<!DOCTYPE svg PUBLIC "-//W3C//DTD SVG 1.1//EN"
 "http://www.w3.org/Graphics/SVG/1.1/DTD/svg11.dtd">
<!-- Generated by graphviz version 2.43.0 (0)
 -->
<!-- Title: include/nmbuflowtorch/network.hpp Pages: 1 -->
<svg width="552pt" height="263pt"
 viewBox="0.00 0.00 552.00 263.00" xmlns="http://www.w3.org/2000/svg" xmlns:xlink="http://www.w3.org/1999/xlink">
<g id="graph0" class="graph" transform="scale(1 1) rotate(0) translate(4 259)">
<title>include/nmbuflowtorch/network.hpp</title>
<!-- Node1 -->
<g id="node1" class="node">
<title>Node1</title>
<g id="a_node1"><a xlink:title="Network class representing a sequence of layers. This class implements a network consisting of a sequ...">
<polygon fill="#bfbfbf" stroke="black" points="117.5,-224.5 117.5,-254.5 245.5,-254.5 245.5,-224.5 117.5,-224.5"/>
<text text-anchor="start" x="125.5" y="-242.5" font-family="Helvetica,sans-Serif" font-size="10.00">include/nmbuflowtorch</text>
<text text-anchor="middle" x="181.5" y="-231.5" font-family="Helvetica,sans-Serif" font-size="10.00">/network.hpp</text>
</a>
</g>
</g>
<!-- Node2 -->
<g id="node2" class="node">
<title>Node2</title>
<g id="a_node2"><a xlink:title=" ">
<polygon fill="none" stroke="#bfbfbf" points="0,-168.5 0,-187.5 53,-187.5 53,-168.5 0,-168.5"/>
<text text-anchor="middle" x="26.5" y="-175.5" font-family="Helvetica,sans-Serif" font-size="10.00">stdlib.h</text>
</a>
</g>
</g>
<!-- Node1&#45;&gt;Node2 -->
<g id="edge1" class="edge">
<title>Node1&#45;&gt;Node2</title>
<path fill="none" stroke="midnightblue" d="M144.77,-224.4C118.53,-214.33 83.57,-200.91 58.48,-191.28"/>
<polygon fill="midnightblue" stroke="midnightblue" points="59.64,-187.97 49.05,-187.66 57.14,-194.51 59.64,-187.97"/>
</g>
<!-- Node3 -->
<g id="node3" class="node">
<title>Node3</title>
<g id="a_node3"><a xlink:title=" ">
<polygon fill="none" stroke="#bfbfbf" points="58,-0.5 58,-19.5 105,-19.5 105,-0.5 58,-0.5"/>
<text text-anchor="middle" x="81.5" y="-7.5" font-family="Helvetica,sans-Serif" font-size="10.00">vector</text>
</a>
</g>
</g>
<!-- Node1&#45;&gt;Node3 -->
<g id="edge2" class="edge">
<title>Node1&#45;&gt;Node3</title>
<path fill="none" stroke="midnightblue" d="M167.09,-224.49C148.44,-205.43 116.44,-169.4 100.5,-132 85.96,-97.89 82.41,-54.1 81.63,-29.65"/>
<polygon fill="midnightblue" stroke="midnightblue" points="85.13,-29.54 81.43,-19.61 78.13,-29.67 85.13,-29.54"/>
</g>
<!-- Node4 -->
<g id="node4" class="node">
<title>Node4</title>
<g id="a_node4"><a xlink:href="definitions_8hpp.html" target="_top" xlink:title=" ">
<polygon fill="none" stroke="black" points="230,-56.5 230,-75.5 325,-75.5 325,-56.5 230,-56.5"/>
<text text-anchor="middle" x="277.5" y="-63.5" font-family="Helvetica,sans-Serif" font-size="10.00">./definitions.hpp</text>
</a>
</g>
</g>
<!-- Node1&#45;&gt;Node4 -->
<g id="edge3" class="edge">
<title>Node1&#45;&gt;Node4</title>
<path fill="none" stroke="midnightblue" d="M210.85,-224.39C225.55,-215.85 242.33,-203.58 252.5,-188 273.14,-156.38 277.21,-111.03 277.75,-85.78"/>
<polygon fill="midnightblue" stroke="midnightblue" points="281.25,-85.74 277.79,-75.72 274.25,-85.71 281.25,-85.74"/>
</g>
<!-- Node11 -->
<g id="node11" class="node">
<title>Node11</title>
<g id="a_node11"><a xlink:href="layer_8hpp.html" target="_top" xlink:title=" ">
<polygon fill="none" stroke="black" points="175.5,-168.5 175.5,-187.5 243.5,-187.5 243.5,-168.5 175.5,-168.5"/>
<text text-anchor="middle" x="209.5" y="-175.5" font-family="Helvetica,sans-Serif" font-size="10.00">./layer.hpp</text>
</a>
</g>
</g>
<!-- Node1&#45;&gt;Node11 -->
<g id="edge11" class="edge">
<title>Node1&#45;&gt;Node11</title>
<path fill="none" stroke="midnightblue" d="M188.14,-224.4C192.04,-216.11 197,-205.55 201.17,-196.71"/>
<polygon fill="midnightblue" stroke="midnightblue" points="204.33,-198.2 205.43,-187.66 198,-195.22 204.33,-198.2"/>
</g>
<!-- Node12 -->
<g id="node12" class="node">
<title>Node12</title>
<g id="a_node12"><a xlink:href="optimizer_8hpp.html" target="_top" xlink:title=" ">
<polygon fill="none" stroke="black" points="306,-112.5 306,-131.5 395,-131.5 395,-112.5 306,-112.5"/>
<text text-anchor="middle" x="350.5" y="-119.5" font-family="Helvetica,sans-Serif" font-size="10.00">./optimizer.hpp</text>
</a>
</g>
</g>
<!-- Node1&#45;&gt;Node12 -->
<g id="edge19" class="edge">
<title>Node1&#45;&gt;Node12</title>
<path fill="none" stroke="midnightblue" d="M222.05,-224.45C243.8,-215.82 270.39,-203.46 291.5,-188 310.06,-174.41 327.24,-154.25 338.22,-139.99"/>
<polygon fill="midnightblue" stroke="midnightblue" points="341.31,-141.71 344.49,-131.6 335.7,-137.52 341.31,-141.71"/>
</g>
<!-- Node14 -->
<g id="node14" class="node">
<title>Node14</title>
<g id="a_node14"><a xlink:href="loss_8hpp.html" target="_top" xlink:title=" ">
<polygon fill="none" stroke="black" points="110,-112.5 110,-131.5 173,-131.5 173,-112.5 110,-112.5"/>
<text text-anchor="middle" x="141.5" y="-119.5" font-family="Helvetica,sans-Serif" font-size="10.00">./loss.hpp</text>
</a>
</g>
</g>
<!-- Node1&#45;&gt;Node14 -->
<g id="edge17" class="edge">
<title>Node1&#45;&gt;Node14</title>
<path fill="none" stroke="midnightblue" d="M176.6,-224.34C169.36,-203.43 155.81,-164.31 147.83,-141.27"/>
<polygon fill="midnightblue" stroke="midnightblue" points="151.08,-139.97 144.5,-131.67 144.47,-142.26 151.08,-139.97"/>
</g>
<!-- Node4&#45;&gt;Node3 -->
<g id="edge10" class="edge">
<title>Node4&#45;&gt;Node3</title>
<path fill="none" stroke="midnightblue" d="M246.44,-56.44C210.53,-46.55 151.64,-30.32 114.8,-20.17"/>
<polygon fill="midnightblue" stroke="midnightblue" points="115.6,-16.76 105.03,-17.48 113.74,-23.51 115.6,-16.76"/>
</g>
<!-- Node5 -->
<g id="node5" class="node">
<title>Node5</title>
<g id="a_node5"><a xlink:title=" ">
<polygon fill="none" stroke="#bfbfbf" points="327.5,-0.5 327.5,-19.5 383.5,-19.5 383.5,-0.5 327.5,-0.5"/>
<text text-anchor="middle" x="355.5" y="-7.5" font-family="Helvetica,sans-Serif" font-size="10.00">unistd.h</text>
</a>
</g>
</g>
<!-- Node4&#45;&gt;Node5 -->
<g id="edge4" class="edge">
<title>Node4&#45;&gt;Node5</title>
<path fill="none" stroke="midnightblue" d="M290.03,-56.32C302.09,-47.98 320.53,-35.21 334.77,-25.35"/>
<polygon fill="midnightblue" stroke="midnightblue" points="336.77,-28.22 343,-19.65 332.78,-22.47 336.77,-28.22"/>
</g>
<!-- Node6 -->
<g id="node6" class="node">
<title>Node6</title>
<g id="a_node6"><a xlink:title=" ">
<polygon fill="none" stroke="#bfbfbf" points="402,-0.5 402,-19.5 479,-19.5 479,-0.5 402,-0.5"/>
<text text-anchor="middle" x="440.5" y="-7.5" font-family="Helvetica,sans-Serif" font-size="10.00">Eigen/Dense</text>
</a>
</g>
</g>
<!-- Node4&#45;&gt;Node6 -->
<g id="edge5" class="edge">
<title>Node4&#45;&gt;Node6</title>
<path fill="none" stroke="midnightblue" d="M303.33,-56.44C330.75,-47.36 374.28,-32.94 404.93,-22.78"/>
<polygon fill="midnightblue" stroke="midnightblue" points="406.4,-25.98 414.79,-19.52 404.2,-19.34 406.4,-25.98"/>
</g>
<!-- Node7 -->
<g id="node7" class="node">
<title>Node7</title>
<g id="a_node7"><a xlink:title=" ">
<polygon fill="none" stroke="#bfbfbf" points="497,-0.5 497,-19.5 544,-19.5 544,-0.5 497,-0.5"/>
<text text-anchor="middle" x="520.5" y="-7.5" font-family="Helvetica,sans-Serif" font-size="10.00">cmath</text>
</a>
</g>
</g>
<!-- Node4&#45;&gt;Node7 -->
<g id="edge6" class="edge">
<title>Node4&#45;&gt;Node7</title>
<path fill="none" stroke="midnightblue" d="M321.74,-56.42C362.39,-48.35 424.52,-35.53 486.79,-20.32"/>
<polygon fill="midnightblue" stroke="midnightblue" points="487.91,-23.64 496.78,-17.85 486.23,-16.85 487.91,-23.64"/>
</g>
<!-- Node8 -->
<g id="node8" class="node">
<title>Node8</title>
<g id="a_node8"><a xlink:title=" ">
<polygon fill="none" stroke="#bfbfbf" points="123.5,-0.5 123.5,-19.5 169.5,-19.5 169.5,-0.5 123.5,-0.5"/>
<text text-anchor="middle" x="146.5" y="-7.5" font-family="Helvetica,sans-Serif" font-size="10.00">cstdio</text>
</a>
</g>
</g>
<!-- Node4&#45;&gt;Node8 -->
<g id="edge7" class="edge">
<title>Node4&#45;&gt;Node8</title>
<path fill="none" stroke="midnightblue" d="M256.74,-56.44C235.18,-47.56 201.24,-33.56 176.71,-23.45"/>
<polygon fill="midnightblue" stroke="midnightblue" points="177.74,-20.09 167.16,-19.52 175.07,-26.56 177.74,-20.09"/>
</g>
<!-- Node9 -->
<g id="node9" class="node">
<title>Node9</title>
<g id="a_node9"><a xlink:title=" ">
<polygon fill="none" stroke="#bfbfbf" points="187.5,-0.5 187.5,-19.5 247.5,-19.5 247.5,-0.5 187.5,-0.5"/>
<text text-anchor="middle" x="217.5" y="-7.5" font-family="Helvetica,sans-Serif" font-size="10.00">iostream</text>
</a>
</g>
</g>
<!-- Node4&#45;&gt;Node9 -->
<g id="edge8" class="edge">
<title>Node4&#45;&gt;Node9</title>
<path fill="none" stroke="midnightblue" d="M267.86,-56.32C258.99,-48.34 245.63,-36.31 234.89,-26.65"/>
<polygon fill="midnightblue" stroke="midnightblue" points="237.09,-23.92 227.32,-19.83 232.41,-29.13 237.09,-23.92"/>
</g>
<!-- Node10 -->
<g id="node10" class="node">
<title>Node10</title>
<g id="a_node10"><a xlink:title=" ">
<polygon fill="none" stroke="#bfbfbf" points="265.5,-0.5 265.5,-19.5 309.5,-19.5 309.5,-0.5 265.5,-0.5"/>
<text text-anchor="middle" x="287.5" y="-7.5" font-family="Helvetica,sans-Serif" font-size="10.00">string</text>
</a>
</g>
</g>
<!-- Node4&#45;&gt;Node10 -->
<g id="edge9" class="edge">
<title>Node4&#45;&gt;Node10</title>
<path fill="none" stroke="midnightblue" d="M279.15,-56.08C280.48,-48.93 282.38,-38.64 284.04,-29.69"/>
<polygon fill="midnightblue" stroke="midnightblue" points="287.5,-30.22 285.88,-19.75 280.62,-28.95 287.5,-30.22"/>
</g>
<!-- Node11&#45;&gt;Node3 -->
<g id="edge12" class="edge">
<title>Node11&#45;&gt;Node3</title>
<path fill="none" stroke="midnightblue" d="M207.14,-168.48C203.3,-155.54 194.86,-130.49 182.5,-112 159.25,-77.25 122.81,-44.46 100.64,-26.12"/>
<polygon fill="midnightblue" stroke="midnightblue" points="102.6,-23.2 92.63,-19.61 98.19,-28.64 102.6,-23.2"/>
</g>
<!-- Node11&#45;&gt;Node4 -->
<g id="edge13" class="edge">
<title>Node11&#45;&gt;Node4</title>
<path fill="none" stroke="midnightblue" d="M214.84,-168.37C226.01,-150.3 252.05,-108.18 266.8,-84.31"/>
<polygon fill="midnightblue" stroke="midnightblue" points="269.91,-85.94 272.19,-75.59 263.95,-82.26 269.91,-85.94"/>
</g>
<!-- Node11&#45;&gt;Node12 -->
<g id="edge14" class="edge">
<title>Node11&#45;&gt;Node12</title>
<path fill="none" stroke="midnightblue" d="M231.84,-168.44C255.25,-159.48 292.24,-145.31 318.69,-135.18"/>
<polygon fill="midnightblue" stroke="midnightblue" points="320.18,-138.36 328.26,-131.52 317.67,-131.82 320.18,-138.36"/>
</g>
<!-- Node12&#45;&gt;Node4 -->
<g id="edge16" class="edge">
<title>Node12&#45;&gt;Node4</title>
<path fill="none" stroke="midnightblue" d="M338.77,-112.32C327.66,-104.11 310.76,-91.6 297.52,-81.81"/>
<polygon fill="midnightblue" stroke="midnightblue" points="299.56,-78.97 289.44,-75.83 295.4,-84.59 299.56,-78.97"/>
</g>
<!-- Node13 -->
<g id="node13" class="node">
<title>Node13</title>
<g id="a_node13"><a xlink:title=" ">
<polygon fill="none" stroke="#bfbfbf" points="343,-56.5 343,-75.5 436,-75.5 436,-56.5 343,-56.5"/>
<text text-anchor="middle" x="389.5" y="-63.5" font-family="Helvetica,sans-Serif" font-size="10.00">unordered_map</text>
</a>
</g>
</g>
<!-- Node12&#45;&gt;Node13 -->
<g id="edge15" class="edge">
<title>Node12&#45;&gt;Node13</title>
<path fill="none" stroke="midnightblue" d="M356.94,-112.08C362.45,-104.46 370.53,-93.26 377.26,-83.94"/>
<polygon fill="midnightblue" stroke="midnightblue" points="380.16,-85.91 383.18,-75.75 374.49,-81.81 380.16,-85.91"/>
</g>
<!-- Node14&#45;&gt;Node4 -->
<g id="edge18" class="edge">
<title>Node14&#45;&gt;Node4</title>
<path fill="none" stroke="midnightblue" d="M163.05,-112.44C185.53,-103.52 220.99,-89.44 246.48,-79.32"/>
<polygon fill="midnightblue" stroke="midnightblue" points="248.05,-82.46 256.05,-75.52 245.47,-75.95 248.05,-82.46"/>
</g>
</g>
</svg>
