<?xml version="1.0" encoding="UTF-8" standalone="no"?>
<!DOCTYPE svg PUBLIC "-//W3C//DTD SVG 1.1//EN"
 "http://www.w3.org/Graphics/SVG/1.1/DTD/svg11.dtd">
<!-- Generated by graphviz version 2.43.0 (0)
 -->
<!-- Title: src/nmbuflowtorch/network.cpp Pages: 1 -->
<svg width="494pt" height="319pt"
 viewBox="0.00 0.00 494.00 319.00" xmlns="http://www.w3.org/2000/svg" xmlns:xlink="http://www.w3.org/1999/xlink">
<g id="graph0" class="graph" transform="scale(1 1) rotate(0) translate(4 315)">
<title>src/nmbuflowtorch/network.cpp</title>
<!-- Node1 -->
<g id="node1" class="node">
<title>Node1</title>
<g id="a_node1"><a xlink:title=" ">
<polygon fill="#bfbfbf" stroke="black" points="253.5,-291.5 253.5,-310.5 423.5,-310.5 423.5,-291.5 253.5,-291.5"/>
<text text-anchor="middle" x="338.5" y="-298.5" font-family="Helvetica,sans-Serif" font-size="10.00">src/nmbuflowtorch/network.cpp</text>
</a>
</g>
</g>
<!-- Node2 -->
<g id="node2" class="node">
<title>Node2</title>
<g id="a_node2"><a xlink:href="network_8hpp.html" target="_top" xlink:title="Network class representing a sequence of layers. This class implements a network consisting of a sequ...">
<polygon fill="none" stroke="black" points="94.5,-230 94.5,-249 248.5,-249 248.5,-230 94.5,-230"/>
<text text-anchor="middle" x="171.5" y="-237" font-family="Helvetica,sans-Serif" font-size="10.00">nmbuflowtorch/network.hpp</text>
</a>
</g>
</g>
<!-- Node1&#45;&gt;Node2 -->
<g id="edge1" class="edge">
<title>Node1&#45;&gt;Node2</title>
<path fill="none" stroke="midnightblue" d="M314.57,-291.48C285.8,-281.22 237.34,-263.96 204.9,-252.4"/>
<polygon fill="midnightblue" stroke="midnightblue" points="205.98,-249.07 195.38,-249.01 203.63,-255.66 205.98,-249.07"/>
</g>
<!-- Node5 -->
<g id="node5" class="node">
<title>Node5</title>
<g id="a_node5"><a xlink:href="definitions_8hpp.html" target="_top" xlink:title=" ">
<polygon fill="none" stroke="black" points="201,-56.5 201,-75.5 296,-75.5 296,-56.5 201,-56.5"/>
<text text-anchor="middle" x="248.5" y="-63.5" font-family="Helvetica,sans-Serif" font-size="10.00">./definitions.hpp</text>
</a>
</g>
</g>
<!-- Node1&#45;&gt;Node5 -->
<g id="edge21" class="edge">
<title>Node1&#45;&gt;Node5</title>
<path fill="none" stroke="midnightblue" d="M340.04,-291.31C344.58,-262.99 355.38,-171.78 318.5,-112 309.81,-97.91 294.88,-87.42 281.03,-80.13"/>
<polygon fill="midnightblue" stroke="midnightblue" points="282.23,-76.82 271.71,-75.59 279.17,-83.11 282.23,-76.82"/>
</g>
<!-- Node16 -->
<g id="node16" class="node">
<title>Node16</title>
<g id="a_node16"><a xlink:href="math__m_8hpp.html" target="_top" xlink:title=" ">
<polygon fill="none" stroke="black" points="367,-224.5 367,-254.5 486,-254.5 486,-224.5 367,-224.5"/>
<text text-anchor="start" x="375" y="-242.5" font-family="Helvetica,sans-Serif" font-size="10.00">nmbuflowtorch/math</text>
<text text-anchor="middle" x="426.5" y="-231.5" font-family="Helvetica,sans-Serif" font-size="10.00">_m.hpp</text>
</a>
</g>
</g>
<!-- Node1&#45;&gt;Node16 -->
<g id="edge22" class="edge">
<title>Node1&#45;&gt;Node16</title>
<path fill="none" stroke="midnightblue" d="M351.11,-291.48C363.14,-283.34 381.7,-270.79 397.4,-260.18"/>
<polygon fill="midnightblue" stroke="midnightblue" points="399.44,-263.02 405.76,-254.52 395.52,-257.22 399.44,-263.02"/>
</g>
<!-- Node3 -->
<g id="node3" class="node">
<title>Node3</title>
<g id="a_node3"><a xlink:title=" ">
<polygon fill="none" stroke="#bfbfbf" points="145,-168.5 145,-187.5 198,-187.5 198,-168.5 145,-168.5"/>
<text text-anchor="middle" x="171.5" y="-175.5" font-family="Helvetica,sans-Serif" font-size="10.00">stdlib.h</text>
</a>
</g>
</g>
<!-- Node2&#45;&gt;Node3 -->
<g id="edge2" class="edge">
<title>Node2&#45;&gt;Node3</title>
<path fill="none" stroke="midnightblue" d="M171.5,-229.98C171.5,-221.58 171.5,-208.48 171.5,-197.66"/>
<polygon fill="midnightblue" stroke="midnightblue" points="175,-197.51 171.5,-187.51 168,-197.51 175,-197.51"/>
</g>
<!-- Node4 -->
<g id="node4" class="node">
<title>Node4</title>
<g id="a_node4"><a xlink:title=" ">
<polygon fill="none" stroke="#bfbfbf" points="0,-0.5 0,-19.5 47,-19.5 47,-0.5 0,-0.5"/>
<text text-anchor="middle" x="23.5" y="-7.5" font-family="Helvetica,sans-Serif" font-size="10.00">vector</text>
</a>
</g>
</g>
<!-- Node2&#45;&gt;Node4 -->
<g id="edge3" class="edge">
<title>Node2&#45;&gt;Node4</title>
<path fill="none" stroke="midnightblue" d="M126.99,-229.95C99.57,-222.73 65.24,-209.94 41.5,-188 -2.68,-147.17 3.68,-115.65 11.5,-56 12.66,-47.18 15.03,-37.63 17.37,-29.61"/>
<polygon fill="midnightblue" stroke="midnightblue" points="20.79,-30.42 20.41,-19.83 14.1,-28.34 20.79,-30.42"/>
</g>
<!-- Node2&#45;&gt;Node5 -->
<g id="edge4" class="edge">
<title>Node2&#45;&gt;Node5</title>
<path fill="none" stroke="midnightblue" d="M178.74,-229.66C186.44,-219.94 198.58,-203.6 206.5,-188 224.06,-153.43 237.19,-109.81 243.77,-85.51"/>
<polygon fill="midnightblue" stroke="midnightblue" points="247.24,-86.1 246.4,-75.53 240.47,-84.31 247.24,-86.1"/>
</g>
<!-- Node12 -->
<g id="node12" class="node">
<title>Node12</title>
<g id="a_node12"><a xlink:href="layer_8hpp.html" target="_top" xlink:title=" ">
<polygon fill="none" stroke="black" points="58.5,-168.5 58.5,-187.5 126.5,-187.5 126.5,-168.5 58.5,-168.5"/>
<text text-anchor="middle" x="92.5" y="-175.5" font-family="Helvetica,sans-Serif" font-size="10.00">./layer.hpp</text>
</a>
</g>
</g>
<!-- Node2&#45;&gt;Node12 -->
<g id="edge12" class="edge">
<title>Node2&#45;&gt;Node12</title>
<path fill="none" stroke="midnightblue" d="M160.18,-229.98C147.63,-220.52 127.15,-205.1 112,-193.69"/>
<polygon fill="midnightblue" stroke="midnightblue" points="113.89,-190.73 103.8,-187.51 109.68,-196.32 113.89,-190.73"/>
</g>
<!-- Node13 -->
<g id="node13" class="node">
<title>Node13</title>
<g id="a_node13"><a xlink:href="optimizer_8hpp.html" target="_top" xlink:title=" ">
<polygon fill="none" stroke="black" points="23.5,-112.5 23.5,-131.5 113.5,-131.5 113.5,-112.5 23.5,-112.5"/>
<text text-anchor="middle" x="68.5" y="-119.5" font-family="Helvetica,sans-Serif" font-size="10.00">./optimizer.hpp</text>
</a>
</g>
</g>
<!-- Node2&#45;&gt;Node13 -->
<g id="edge20" class="edge">
<title>Node2&#45;&gt;Node13</title>
<path fill="none" stroke="midnightblue" d="M116.78,-229.99C91.86,-223.08 64.59,-210.58 49.5,-188 39.84,-173.55 47.68,-154.1 56.02,-140.26"/>
<polygon fill="midnightblue" stroke="midnightblue" points="59.09,-141.97 61.67,-131.69 53.25,-138.11 59.09,-141.97"/>
</g>
<!-- Node15 -->
<g id="node15" class="node">
<title>Node15</title>
<g id="a_node15"><a xlink:href="loss_8hpp.html" target="_top" xlink:title=" ">
<polygon fill="none" stroke="black" points="247,-112.5 247,-131.5 310,-131.5 310,-112.5 247,-112.5"/>
<text text-anchor="middle" x="278.5" y="-119.5" font-family="Helvetica,sans-Serif" font-size="10.00">./loss.hpp</text>
</a>
</g>
</g>
<!-- Node2&#45;&gt;Node15 -->
<g id="edge18" class="edge">
<title>Node2&#45;&gt;Node15</title>
<path fill="none" stroke="midnightblue" d="M186.62,-229.96C201.61,-220.95 224.59,-205.64 240.5,-188 253.2,-173.92 263.71,-154.93 270.43,-141.12"/>
<polygon fill="midnightblue" stroke="midnightblue" points="273.75,-142.27 274.8,-131.73 267.41,-139.31 273.75,-142.27"/>
</g>
<!-- Node5&#45;&gt;Node4 -->
<g id="edge11" class="edge">
<title>Node5&#45;&gt;Node4</title>
<path fill="none" stroke="midnightblue" d="M209.56,-56.46C172.55,-48.23 115.11,-35.14 56.95,-20.3"/>
<polygon fill="midnightblue" stroke="midnightblue" points="57.79,-16.9 47.23,-17.8 56.05,-23.68 57.79,-16.9"/>
</g>
<!-- Node6 -->
<g id="node6" class="node">
<title>Node6</title>
<g id="a_node6"><a xlink:title=" ">
<polygon fill="none" stroke="#bfbfbf" points="429.5,-0.5 429.5,-19.5 485.5,-19.5 485.5,-0.5 429.5,-0.5"/>
<text text-anchor="middle" x="457.5" y="-7.5" font-family="Helvetica,sans-Serif" font-size="10.00">unistd.h</text>
</a>
</g>
</g>
<!-- Node5&#45;&gt;Node6 -->
<g id="edge5" class="edge">
<title>Node5&#45;&gt;Node6</title>
<path fill="none" stroke="midnightblue" d="M281.62,-56.44C319.1,-46.76 380.05,-31.01 419.46,-20.83"/>
<polygon fill="midnightblue" stroke="midnightblue" points="420.42,-24.19 429.23,-18.3 418.67,-17.42 420.42,-24.19"/>
</g>
<!-- Node7 -->
<g id="node7" class="node">
<title>Node7</title>
<g id="a_node7"><a xlink:title=" ">
<polygon fill="none" stroke="#bfbfbf" points="65,-0.5 65,-19.5 142,-19.5 142,-0.5 65,-0.5"/>
<text text-anchor="middle" x="103.5" y="-7.5" font-family="Helvetica,sans-Serif" font-size="10.00">Eigen/Dense</text>
</a>
</g>
</g>
<!-- Node5&#45;&gt;Node7 -->
<g id="edge6" class="edge">
<title>Node5&#45;&gt;Node7</title>
<path fill="none" stroke="midnightblue" d="M225.52,-56.44C201.34,-47.44 163.08,-33.19 135.85,-23.05"/>
<polygon fill="midnightblue" stroke="midnightblue" points="136.96,-19.73 126.37,-19.52 134.52,-26.29 136.96,-19.73"/>
</g>
<!-- Node8 -->
<g id="node8" class="node">
<title>Node8</title>
<g id="a_node8"><a xlink:title=" ">
<polygon fill="none" stroke="#bfbfbf" points="160,-0.5 160,-19.5 207,-19.5 207,-0.5 160,-0.5"/>
<text text-anchor="middle" x="183.5" y="-7.5" font-family="Helvetica,sans-Serif" font-size="10.00">cmath</text>
</a>
</g>
</g>
<!-- Node5&#45;&gt;Node8 -->
<g id="edge7" class="edge">
<title>Node5&#45;&gt;Node8</title>
<path fill="none" stroke="midnightblue" d="M238.06,-56.32C228.35,-48.26 213.68,-36.08 202,-26.37"/>
<polygon fill="midnightblue" stroke="midnightblue" points="204.06,-23.53 194.13,-19.83 199.59,-28.92 204.06,-23.53"/>
</g>
<!-- Node9 -->
<g id="node9" class="node">
<title>Node9</title>
<g id="a_node9"><a xlink:title=" ">
<polygon fill="none" stroke="#bfbfbf" points="225.5,-0.5 225.5,-19.5 271.5,-19.5 271.5,-0.5 225.5,-0.5"/>
<text text-anchor="middle" x="248.5" y="-7.5" font-family="Helvetica,sans-Serif" font-size="10.00">cstdio</text>
</a>
</g>
</g>
<!-- Node5&#45;&gt;Node9 -->
<g id="edge8" class="edge">
<title>Node5&#45;&gt;Node9</title>
<path fill="none" stroke="midnightblue" d="M248.5,-56.08C248.5,-49.01 248.5,-38.86 248.5,-29.99"/>
<polygon fill="midnightblue" stroke="midnightblue" points="252,-29.75 248.5,-19.75 245,-29.75 252,-29.75"/>
</g>
<!-- Node10 -->
<g id="node10" class="node">
<title>Node10</title>
<g id="a_node10"><a xlink:title=" ">
<polygon fill="none" stroke="#bfbfbf" points="289.5,-0.5 289.5,-19.5 349.5,-19.5 349.5,-0.5 289.5,-0.5"/>
<text text-anchor="middle" x="319.5" y="-7.5" font-family="Helvetica,sans-Serif" font-size="10.00">iostream</text>
</a>
</g>
</g>
<!-- Node5&#45;&gt;Node10 -->
<g id="edge9" class="edge">
<title>Node5&#45;&gt;Node10</title>
<path fill="none" stroke="midnightblue" d="M259.91,-56.32C270.61,-48.18 286.84,-35.84 299.66,-26.09"/>
<polygon fill="midnightblue" stroke="midnightblue" points="302.04,-28.67 307.89,-19.83 297.81,-23.1 302.04,-28.67"/>
</g>
<!-- Node11 -->
<g id="node11" class="node">
<title>Node11</title>
<g id="a_node11"><a xlink:title=" ">
<polygon fill="none" stroke="#bfbfbf" points="367.5,-0.5 367.5,-19.5 411.5,-19.5 411.5,-0.5 367.5,-0.5"/>
<text text-anchor="middle" x="389.5" y="-7.5" font-family="Helvetica,sans-Serif" font-size="10.00">string</text>
</a>
</g>
</g>
<!-- Node5&#45;&gt;Node11 -->
<g id="edge10" class="edge">
<title>Node5&#45;&gt;Node11</title>
<path fill="none" stroke="midnightblue" d="M270.84,-56.44C294.25,-47.48 331.24,-33.31 357.69,-23.18"/>
<polygon fill="midnightblue" stroke="midnightblue" points="359.18,-26.36 367.26,-19.52 356.67,-19.82 359.18,-26.36"/>
</g>
<!-- Node12&#45;&gt;Node4 -->
<g id="edge13" class="edge">
<title>Node12&#45;&gt;Node4</title>
<path fill="none" stroke="midnightblue" d="M100.71,-168.18C108.04,-159.66 118.26,-146.02 122.5,-132 132.29,-99.67 140.79,-84.4 122.5,-56 114.88,-44.16 82.51,-30.84 56.84,-21.78"/>
<polygon fill="midnightblue" stroke="midnightblue" points="57.63,-18.35 47.04,-18.41 55.36,-24.97 57.63,-18.35"/>
</g>
<!-- Node12&#45;&gt;Node5 -->
<g id="edge14" class="edge">
<title>Node12&#45;&gt;Node5</title>
<path fill="none" stroke="midnightblue" d="M104.78,-168.38C117.66,-159.33 138.51,-144.68 156.5,-132 181.09,-114.67 209.35,-94.7 227.98,-81.51"/>
<polygon fill="midnightblue" stroke="midnightblue" points="230.16,-84.26 236.3,-75.63 226.12,-78.55 230.16,-84.26"/>
</g>
<!-- Node12&#45;&gt;Node13 -->
<g id="edge15" class="edge">
<title>Node12&#45;&gt;Node13</title>
<path fill="none" stroke="midnightblue" d="M88.54,-168.08C85.29,-160.77 80.58,-150.18 76.55,-141.1"/>
<polygon fill="midnightblue" stroke="midnightblue" points="79.65,-139.47 72.39,-131.75 73.25,-142.31 79.65,-139.47"/>
</g>
<!-- Node13&#45;&gt;Node5 -->
<g id="edge17" class="edge">
<title>Node13&#45;&gt;Node5</title>
<path fill="none" stroke="midnightblue" d="M97.02,-112.44C127.57,-103.28 176.21,-88.69 210.1,-78.52"/>
<polygon fill="midnightblue" stroke="midnightblue" points="211.54,-81.74 220.11,-75.52 209.53,-75.04 211.54,-81.74"/>
</g>
<!-- Node14 -->
<g id="node14" class="node">
<title>Node14</title>
<g id="a_node14"><a xlink:title=" ">
<polygon fill="none" stroke="#bfbfbf" points="21,-56.5 21,-75.5 114,-75.5 114,-56.5 21,-56.5"/>
<text text-anchor="middle" x="67.5" y="-63.5" font-family="Helvetica,sans-Serif" font-size="10.00">unordered_map</text>
</a>
</g>
</g>
<!-- Node13&#45;&gt;Node14 -->
<g id="edge16" class="edge">
<title>Node13&#45;&gt;Node14</title>
<path fill="none" stroke="midnightblue" d="M68.33,-112.08C68.2,-105.01 68.02,-94.86 67.85,-85.99"/>
<polygon fill="midnightblue" stroke="midnightblue" points="71.35,-85.68 67.66,-75.75 64.35,-85.81 71.35,-85.68"/>
</g>
<!-- Node15&#45;&gt;Node5 -->
<g id="edge19" class="edge">
<title>Node15&#45;&gt;Node5</title>
<path fill="none" stroke="midnightblue" d="M273.55,-112.08C269.4,-104.61 263.35,-93.72 258.23,-84.52"/>
<polygon fill="midnightblue" stroke="midnightblue" points="261.28,-82.79 253.36,-75.75 255.16,-86.19 261.28,-82.79"/>
</g>
<!-- Node16&#45;&gt;Node5 -->
<g id="edge24" class="edge">
<title>Node16&#45;&gt;Node5</title>
<path fill="none" stroke="midnightblue" d="M418.05,-224.38C412.02,-214.26 403.72,-200.32 396.5,-188 376.75,-154.33 381.66,-137.95 352.5,-112 335.2,-96.6 311.81,-85.85 291.6,-78.73"/>
<polygon fill="midnightblue" stroke="midnightblue" points="292.57,-75.36 281.97,-75.52 290.35,-82 292.57,-75.36"/>
</g>
<!-- Node17 -->
<g id="node17" class="node">
<title>Node17</title>
<g id="a_node17"><a xlink:title=" ">
<polygon fill="none" stroke="#bfbfbf" points="405,-168.5 405,-187.5 456,-187.5 456,-168.5 405,-168.5"/>
<text text-anchor="middle" x="430.5" y="-175.5" font-family="Helvetica,sans-Serif" font-size="10.00">cblas.h</text>
</a>
</g>
</g>
<!-- Node16&#45;&gt;Node17 -->
<g id="edge23" class="edge">
<title>Node16&#45;&gt;Node17</title>
<path fill="none" stroke="midnightblue" d="M427.45,-224.4C427.98,-216.47 428.65,-206.46 429.23,-197.86"/>
<polygon fill="midnightblue" stroke="midnightblue" points="432.74,-197.87 429.92,-187.66 425.76,-197.4 432.74,-197.87"/>
</g>
</g>
</svg>
