<?xml version="1.0" encoding="UTF-8" standalone="no"?>
<!DOCTYPE svg PUBLIC "-//W3C//DTD SVG 1.1//EN"
 "http://www.w3.org/Graphics/SVG/1.1/DTD/svg11.dtd">
<!-- Generated by graphviz version 2.43.0 (0)
 -->
<!-- Title: include/nmbuflowtorch/optimizer.hpp Pages: 1 -->
<svg width="1854pt" height="296pt"
 viewBox="0.00 0.00 1854.00 296.00" xmlns="http://www.w3.org/2000/svg" xmlns:xlink="http://www.w3.org/1999/xlink">
<g id="graph0" class="graph" transform="scale(1 1) rotate(0) translate(4 292)">
<title>include/nmbuflowtorch/optimizer.hpp</title>
<!-- Node1 -->
<g id="node1" class="node">
<title>Node1</title>
<g id="a_node1"><a xlink:title=" ">
<polygon fill="#bfbfbf" stroke="black" points="1129,-257.5 1129,-287.5 1257,-287.5 1257,-257.5 1129,-257.5"/>
<text text-anchor="start" x="1137" y="-275.5" font-family="Helvetica,sans-Serif" font-size="10.00">include/nmbuflowtorch</text>
<text text-anchor="middle" x="1193" y="-264.5" font-family="Helvetica,sans-Serif" font-size="10.00">/optimizer.hpp</text>
</a>
</g>
</g>
<!-- Node2 -->
<g id="node2" class="node">
<title>Node2</title>
<g id="a_node2"><a xlink:href="autoencoder_8hpp.html" target="_top" xlink:title=" ">
<polygon fill="none" stroke="black" points="608,-56.5 608,-86.5 736,-86.5 736,-56.5 608,-56.5"/>
<text text-anchor="start" x="616" y="-74.5" font-family="Helvetica,sans-Serif" font-size="10.00">include/nmbuflowtorch</text>
<text text-anchor="middle" x="672" y="-63.5" font-family="Helvetica,sans-Serif" font-size="10.00">/autoencoder.hpp</text>
</a>
</g>
</g>
<!-- Node1&#45;&gt;Node2 -->
<g id="edge1" class="edge">
<title>Node1&#45;&gt;Node2</title>
<path fill="none" stroke="midnightblue" d="M1118.71,-271.14C961.35,-269.58 599.42,-261.54 484,-221 434.57,-203.64 411.34,-200.4 387,-154 380.6,-141.8 378.11,-133.53 387,-123 417.83,-86.49 552,-95.66 599,-87 601.92,-86.46 604.91,-85.9 607.93,-85.33"/>
<polygon fill="midnightblue" stroke="midnightblue" points="1118.74,-274.64 1128.77,-271.23 1118.81,-267.64 1118.74,-274.64"/>
</g>
<!-- Node5 -->
<g id="node5" class="node">
<title>Node5</title>
<g id="a_node5"><a xlink:href="layer_8hpp.html" target="_top" xlink:title=" ">
<polygon fill="none" stroke="black" points="880,-190.5 880,-220.5 1008,-220.5 1008,-190.5 880,-190.5"/>
<text text-anchor="start" x="888" y="-208.5" font-family="Helvetica,sans-Serif" font-size="10.00">include/nmbuflowtorch</text>
<text text-anchor="middle" x="944" y="-197.5" font-family="Helvetica,sans-Serif" font-size="10.00">/layer.hpp</text>
</a>
</g>
</g>
<!-- Node1&#45;&gt;Node5 -->
<g id="edge4" class="edge">
<title>Node1&#45;&gt;Node5</title>
<path fill="none" stroke="midnightblue" d="M1129.47,-254.92C1088.84,-244.31 1036.7,-230.7 998.06,-220.61"/>
<polygon fill="midnightblue" stroke="midnightblue" points="1128.72,-258.34 1139.28,-257.48 1130.49,-251.56 1128.72,-258.34"/>
</g>
<!-- Node9 -->
<g id="node9" class="node">
<title>Node9</title>
<g id="a_node9"><a xlink:href="xor_8hpp.html" target="_top" xlink:title=" ">
<polygon fill="none" stroke="black" points="1074,-56.5 1074,-86.5 1202,-86.5 1202,-56.5 1074,-56.5"/>
<text text-anchor="start" x="1082" y="-74.5" font-family="Helvetica,sans-Serif" font-size="10.00">include/nmbuflowtorch</text>
<text text-anchor="middle" x="1138" y="-63.5" font-family="Helvetica,sans-Serif" font-size="10.00">/xor.hpp</text>
</a>
</g>
</g>
<!-- Node1&#45;&gt;Node9 -->
<g id="edge52" class="edge">
<title>Node1&#45;&gt;Node9</title>
<path fill="none" stroke="midnightblue" d="M1186.38,-247.53C1174.8,-205.65 1151.24,-120.4 1141.92,-86.68"/>
<polygon fill="midnightblue" stroke="midnightblue" points="1183.01,-248.48 1189.04,-257.19 1189.75,-246.62 1183.01,-248.48"/>
</g>
<!-- Node11 -->
<g id="node11" class="node">
<title>Node11</title>
<g id="a_node11"><a xlink:href="main_01copy_8cpp.html" target="_top" xlink:title=" ">
<polygon fill="none" stroke="black" points="1408,-62 1408,-81 1512,-81 1512,-62 1408,-62"/>
<text text-anchor="middle" x="1460" y="-69" font-family="Helvetica,sans-Serif" font-size="10.00">src/main copy.cpp</text>
</a>
</g>
</g>
<!-- Node1&#45;&gt;Node11 -->
<g id="edge53" class="edge">
<title>Node1&#45;&gt;Node11</title>
<path fill="none" stroke="midnightblue" d="M1267.37,-263.5C1334.83,-251.87 1430.6,-223.41 1477,-154 1492.34,-131.05 1475.33,-96.98 1465.7,-81.16"/>
<polygon fill="midnightblue" stroke="midnightblue" points="1266.52,-260.1 1257.21,-265.17 1267.65,-267 1266.52,-260.1"/>
</g>
<!-- Node12 -->
<g id="node12" class="node">
<title>Node12</title>
<g id="a_node12"><a xlink:href="main__multithread_8cpp.html" target="_top" xlink:title=" ">
<polygon fill="none" stroke="black" points="1530.5,-62 1530.5,-81 1671.5,-81 1671.5,-62 1530.5,-62"/>
<text text-anchor="middle" x="1601" y="-69" font-family="Helvetica,sans-Serif" font-size="10.00">src/main_multithread.cpp</text>
</a>
</g>
</g>
<!-- Node1&#45;&gt;Node12 -->
<g id="edge54" class="edge">
<title>Node1&#45;&gt;Node12</title>
<path fill="none" stroke="midnightblue" d="M1267.33,-266.37C1317.49,-260.51 1383.96,-247.94 1437,-221 1509.26,-184.3 1573.81,-107.22 1594.28,-81.25"/>
<polygon fill="midnightblue" stroke="midnightblue" points="1266.76,-262.92 1257.2,-267.49 1267.52,-269.87 1266.76,-262.92"/>
</g>
<!-- Node13 -->
<g id="node13" class="node">
<title>Node13</title>
<g id="a_node13"><a xlink:href="main__single__thread_8cpp.html" target="_top" xlink:title=" ">
<polygon fill="none" stroke="black" points="754,-62 754,-81 904,-81 904,-62 754,-62"/>
<text text-anchor="middle" x="829" y="-69" font-family="Helvetica,sans-Serif" font-size="10.00">src/main_single_thread.cpp</text>
</a>
</g>
</g>
<!-- Node1&#45;&gt;Node13 -->
<g id="edge55" class="edge">
<title>Node1&#45;&gt;Node13</title>
<path fill="none" stroke="midnightblue" d="M1118.76,-271.75C944.72,-270.58 518.39,-257.05 430,-154 359.92,-72.31 245.14,-158.65 745,-87 757.16,-85.26 770.26,-83.12 782.42,-81.03"/>
<polygon fill="midnightblue" stroke="midnightblue" points="1118.84,-275.25 1128.86,-271.8 1118.88,-268.25 1118.84,-275.25"/>
</g>
<!-- Node21 -->
<g id="node21" class="node">
<title>Node21</title>
<g id="a_node21"><a xlink:href="network_8hpp.html" target="_top" xlink:title="Network class representing a sequence of layers. This class implements a network consisting of a sequ...">
<polygon fill="none" stroke="black" points="1175,-123.5 1175,-153.5 1303,-153.5 1303,-123.5 1175,-123.5"/>
<text text-anchor="start" x="1183" y="-141.5" font-family="Helvetica,sans-Serif" font-size="10.00">include/nmbuflowtorch</text>
<text text-anchor="middle" x="1239" y="-130.5" font-family="Helvetica,sans-Serif" font-size="10.00">/network.hpp</text>
</a>
</g>
</g>
<!-- Node1&#45;&gt;Node21 -->
<g id="edge39" class="edge">
<title>Node1&#45;&gt;Node21</title>
<path fill="none" stroke="midnightblue" d="M1201.28,-247.75C1210.85,-220.29 1226.28,-175.99 1234.11,-153.52"/>
<polygon fill="midnightblue" stroke="midnightblue" points="1197.91,-246.78 1197.92,-257.37 1204.52,-249.08 1197.91,-246.78"/>
</g>
<!-- Node23 -->
<g id="node23" class="node">
<title>Node23</title>
<g id="a_node23"><a xlink:href="adam_8hpp.html" target="_top" xlink:title=" ">
<polygon fill="none" stroke="black" points="1626,-190.5 1626,-220.5 1754,-220.5 1754,-190.5 1626,-190.5"/>
<text text-anchor="start" x="1634" y="-208.5" font-family="Helvetica,sans-Serif" font-size="10.00">include/nmbuflowtorch</text>
<text text-anchor="middle" x="1690" y="-197.5" font-family="Helvetica,sans-Serif" font-size="10.00">/optimizer/adam.hpp</text>
</a>
</g>
</g>
<!-- Node1&#45;&gt;Node23 -->
<g id="edge40" class="edge">
<title>Node1&#45;&gt;Node23</title>
<path fill="none" stroke="midnightblue" d="M1267.4,-263.45C1350.02,-254.25 1487.27,-238.25 1605,-221 1611.67,-220.02 1618.61,-218.94 1625.54,-217.82"/>
<polygon fill="midnightblue" stroke="midnightblue" points="1266.91,-259.98 1257.35,-264.56 1267.68,-266.94 1266.91,-259.98"/>
</g>
<!-- Node25 -->
<g id="node25" class="node">
<title>Node25</title>
<g id="a_node25"><a xlink:href="nadam_8hpp.html" target="_top" xlink:title=" ">
<polygon fill="none" stroke="black" points="125,-190.5 125,-220.5 253,-220.5 253,-190.5 125,-190.5"/>
<text text-anchor="start" x="133" y="-208.5" font-family="Helvetica,sans-Serif" font-size="10.00">include/nmbuflowtorch</text>
<text text-anchor="middle" x="189" y="-197.5" font-family="Helvetica,sans-Serif" font-size="10.00">/optimizer/nadam.hpp</text>
</a>
</g>
</g>
<!-- Node1&#45;&gt;Node25 -->
<g id="edge42" class="edge">
<title>Node1&#45;&gt;Node25</title>
<path fill="none" stroke="midnightblue" d="M1118.71,-267.62C972.95,-259.86 639.27,-241.43 359,-221 323.99,-218.45 284.97,-215.15 253.15,-212.35"/>
<polygon fill="midnightblue" stroke="midnightblue" points="1118.7,-271.12 1128.88,-268.16 1119.08,-264.13 1118.7,-271.12"/>
</g>
<!-- Node27 -->
<g id="node27" class="node">
<title>Node27</title>
<g id="a_node27"><a xlink:href="sgd_8hpp.html" target="_top" xlink:title=" ">
<polygon fill="none" stroke="black" points="1321,-123.5 1321,-153.5 1449,-153.5 1449,-123.5 1321,-123.5"/>
<text text-anchor="start" x="1329" y="-141.5" font-family="Helvetica,sans-Serif" font-size="10.00">include/nmbuflowtorch</text>
<text text-anchor="middle" x="1385" y="-130.5" font-family="Helvetica,sans-Serif" font-size="10.00">/optimizer/sgd.hpp</text>
</a>
</g>
</g>
<!-- Node1&#45;&gt;Node27 -->
<g id="edge45" class="edge">
<title>Node1&#45;&gt;Node27</title>
<path fill="none" stroke="midnightblue" d="M1221.91,-251.62C1261.17,-224.64 1330.34,-177.08 1364.6,-153.52"/>
<polygon fill="midnightblue" stroke="midnightblue" points="1219.8,-248.82 1213.55,-257.37 1223.77,-254.59 1219.8,-248.82"/>
</g>
<!-- Node3 -->
<g id="node3" class="node">
<title>Node3</title>
<g id="a_node3"><a xlink:href="main_8cpp.html" target="_top" xlink:title=" ">
<polygon fill="none" stroke="black" points="877.5,-0.5 877.5,-19.5 956.5,-19.5 956.5,-0.5 877.5,-0.5"/>
<text text-anchor="middle" x="917" y="-7.5" font-family="Helvetica,sans-Serif" font-size="10.00">src/main.cpp</text>
</a>
</g>
</g>
<!-- Node2&#45;&gt;Node3 -->
<g id="edge2" class="edge">
<title>Node2&#45;&gt;Node3</title>
<path fill="none" stroke="midnightblue" d="M739.68,-54.06C785.81,-42.86 845,-28.49 881.97,-19.51"/>
<polygon fill="midnightblue" stroke="midnightblue" points="738.64,-50.71 729.75,-56.47 740.29,-57.52 738.64,-50.71"/>
</g>
<!-- Node4 -->
<g id="node4" class="node">
<title>Node4</title>
<g id="a_node4"><a xlink:href="autoencoder_8cpp.html" target="_top" xlink:title=" ">
<polygon fill="none" stroke="black" points="577,-0.5 577,-19.5 767,-19.5 767,-0.5 577,-0.5"/>
<text text-anchor="middle" x="672" y="-7.5" font-family="Helvetica,sans-Serif" font-size="10.00">src/nmbuflowtorch/autoencoder.cpp</text>
</a>
</g>
</g>
<!-- Node2&#45;&gt;Node4 -->
<g id="edge3" class="edge">
<title>Node2&#45;&gt;Node4</title>
<path fill="none" stroke="midnightblue" d="M672,-46.29C672,-36.86 672,-26.65 672,-19.66"/>
<polygon fill="midnightblue" stroke="midnightblue" points="668.5,-46.4 672,-56.4 675.5,-46.4 668.5,-46.4"/>
</g>
<!-- Node5&#45;&gt;Node2 -->
<g id="edge5" class="edge">
<title>Node5&#45;&gt;Node2</title>
<path fill="none" stroke="midnightblue" d="M877.82,-187.6C849.69,-179.24 816.99,-167.93 789,-154 750.66,-134.92 710.71,-104.41 688.83,-86.63"/>
<polygon fill="midnightblue" stroke="midnightblue" points="876.98,-191 887.56,-190.43 878.94,-184.28 876.98,-191"/>
</g>
<!-- Node6 -->
<g id="node6" class="node">
<title>Node6</title>
<g id="a_node6"><a xlink:href="conv_8hpp.html" target="_top" xlink:title=" ">
<polygon fill="none" stroke="black" points="439,-123.5 439,-153.5 567,-153.5 567,-123.5 439,-123.5"/>
<text text-anchor="start" x="447" y="-141.5" font-family="Helvetica,sans-Serif" font-size="10.00">include/nmbuflowtorch</text>
<text text-anchor="middle" x="503" y="-130.5" font-family="Helvetica,sans-Serif" font-size="10.00">/layer/conv.hpp</text>
</a>
</g>
</g>
<!-- Node5&#45;&gt;Node6 -->
<g id="edge6" class="edge">
<title>Node5&#45;&gt;Node6</title>
<path fill="none" stroke="midnightblue" d="M869.46,-195.6C794.97,-186.39 677.29,-170.99 576,-154 573.07,-153.51 570.08,-152.99 567.05,-152.45"/>
<polygon fill="midnightblue" stroke="midnightblue" points="869.32,-199.11 879.67,-196.85 870.17,-192.16 869.32,-199.11"/>
</g>
<!-- Node8 -->
<g id="node8" class="node">
<title>Node8</title>
<g id="a_node8"><a xlink:href="dense_8hpp.html" target="_top" xlink:title=" ">
<polygon fill="none" stroke="black" points="953,-123.5 953,-153.5 1081,-153.5 1081,-123.5 953,-123.5"/>
<text text-anchor="start" x="961" y="-141.5" font-family="Helvetica,sans-Serif" font-size="10.00">include/nmbuflowtorch</text>
<text text-anchor="middle" x="1017" y="-130.5" font-family="Helvetica,sans-Serif" font-size="10.00">/layer/dense.hpp</text>
</a>
</g>
</g>
<!-- Node5&#45;&gt;Node8 -->
<g id="edge8" class="edge">
<title>Node5&#45;&gt;Node8</title>
<path fill="none" stroke="midnightblue" d="M967.47,-183.6C978.5,-173.78 991.34,-162.34 1001.19,-153.58"/>
<polygon fill="midnightblue" stroke="midnightblue" points="964.98,-181.13 959.84,-190.4 969.64,-186.36 964.98,-181.13"/>
</g>
<!-- Node5&#45;&gt;Node9 -->
<g id="edge35" class="edge">
<title>Node5&#45;&gt;Node9</title>
<path fill="none" stroke="midnightblue" d="M1017.96,-189.86C1042.79,-182.25 1069.38,-170.87 1090,-154 1112.11,-135.91 1126.34,-104.76 1133.19,-86.66"/>
<polygon fill="midnightblue" stroke="midnightblue" points="1016.81,-186.55 1008.18,-192.7 1018.76,-193.27 1016.81,-186.55"/>
</g>
<!-- Node5&#45;&gt;Node11 -->
<g id="edge36" class="edge">
<title>Node5&#45;&gt;Node11</title>
<path fill="none" stroke="midnightblue" d="M1018.31,-202.54C1153.54,-198.2 1428.67,-185.57 1458,-154 1476.59,-133.99 1468.29,-97.83 1463.07,-81.24"/>
<polygon fill="midnightblue" stroke="midnightblue" points="1017.92,-199.05 1008.03,-202.86 1018.14,-206.04 1017.92,-199.05"/>
</g>
<!-- Node5&#45;&gt;Node12 -->
<g id="edge37" class="edge">
<title>Node5&#45;&gt;Node12</title>
<path fill="none" stroke="midnightblue" d="M1018.48,-201.87C1144.56,-196.69 1394.37,-183.04 1477,-154 1524.64,-137.26 1572.02,-98.38 1591.61,-81.07"/>
<polygon fill="midnightblue" stroke="midnightblue" points="1018,-198.39 1008.15,-202.29 1018.28,-205.38 1018,-198.39"/>
</g>
<!-- Node5&#45;&gt;Node13 -->
<g id="edge38" class="edge">
<title>Node5&#45;&gt;Node13</title>
<path fill="none" stroke="midnightblue" d="M870.02,-196.82C842.82,-190 814.63,-177.35 798,-154 781.23,-130.45 806.74,-96.67 820.78,-81.04"/>
<polygon fill="midnightblue" stroke="midnightblue" points="869.45,-200.28 879.97,-199.08 871,-193.46 869.45,-200.28"/>
</g>
<!-- Node15 -->
<g id="node15" class="node">
<title>Node15</title>
<g id="a_node15"><a xlink:href="relu_8hpp.html" target="_top" xlink:title=" ">
<polygon fill="none" stroke="black" points="585,-123.5 585,-153.5 713,-153.5 713,-123.5 585,-123.5"/>
<text text-anchor="start" x="593" y="-141.5" font-family="Helvetica,sans-Serif" font-size="10.00">include/nmbuflowtorch</text>
<text text-anchor="middle" x="649" y="-130.5" font-family="Helvetica,sans-Serif" font-size="10.00">/layer/relu.hpp</text>
</a>
</g>
</g>
<!-- Node5&#45;&gt;Node15 -->
<g id="edge17" class="edge">
<title>Node5&#45;&gt;Node15</title>
<path fill="none" stroke="midnightblue" d="M870.55,-188.32C822.06,-177.63 759.17,-163.77 712.79,-153.55"/>
<polygon fill="midnightblue" stroke="midnightblue" points="869.83,-191.74 880.35,-190.48 871.34,-184.91 869.83,-191.74"/>
</g>
<!-- Node17 -->
<g id="node17" class="node">
<title>Node17</title>
<g id="a_node17"><a xlink:href="sigmoid_8hpp.html" target="_top" xlink:title=" ">
<polygon fill="none" stroke="black" points="807,-123.5 807,-153.5 935,-153.5 935,-123.5 807,-123.5"/>
<text text-anchor="start" x="815" y="-141.5" font-family="Helvetica,sans-Serif" font-size="10.00">include/nmbuflowtorch</text>
<text text-anchor="middle" x="871" y="-130.5" font-family="Helvetica,sans-Serif" font-size="10.00">/layer/sigmoid.hpp</text>
</a>
</g>
</g>
<!-- Node5&#45;&gt;Node17 -->
<g id="edge19" class="edge">
<title>Node5&#45;&gt;Node17</title>
<path fill="none" stroke="midnightblue" d="M920.53,-183.6C909.5,-173.78 896.66,-162.34 886.81,-153.58"/>
<polygon fill="midnightblue" stroke="midnightblue" points="918.36,-186.36 928.16,-190.4 923.02,-181.13 918.36,-186.36"/>
</g>
<!-- Node19 -->
<g id="node19" class="node">
<title>Node19</title>
<g id="a_node19"><a xlink:href="softmax_8hpp.html" target="_top" xlink:title=" ">
<polygon fill="none" stroke="black" points="217,-123.5 217,-153.5 345,-153.5 345,-123.5 217,-123.5"/>
<text text-anchor="start" x="225" y="-141.5" font-family="Helvetica,sans-Serif" font-size="10.00">include/nmbuflowtorch</text>
<text text-anchor="middle" x="281" y="-130.5" font-family="Helvetica,sans-Serif" font-size="10.00">/layer/softmax.hpp</text>
</a>
</g>
</g>
<!-- Node5&#45;&gt;Node19 -->
<g id="edge26" class="edge">
<title>Node5&#45;&gt;Node19</title>
<path fill="none" stroke="midnightblue" d="M869.48,-197.19C738.37,-184.34 468.64,-157.9 345.21,-145.8"/>
<polygon fill="midnightblue" stroke="midnightblue" points="869.53,-200.72 879.83,-198.21 870.22,-193.75 869.53,-200.72"/>
</g>
<!-- Node5&#45;&gt;Node21 -->
<g id="edge28" class="edge">
<title>Node5&#45;&gt;Node21</title>
<path fill="none" stroke="midnightblue" d="M1017.45,-188.32C1065.94,-177.63 1128.83,-163.77 1175.21,-153.55"/>
<polygon fill="midnightblue" stroke="midnightblue" points="1016.66,-184.91 1007.65,-190.48 1018.17,-191.74 1016.66,-184.91"/>
</g>
<!-- Node7 -->
<g id="node7" class="node">
<title>Node7</title>
<g id="a_node7"><a xlink:href="conv_8cpp.html" target="_top" xlink:title=" ">
<polygon fill="none" stroke="black" points="152,-56.5 152,-86.5 286,-86.5 286,-56.5 152,-56.5"/>
<text text-anchor="start" x="160" y="-74.5" font-family="Helvetica,sans-Serif" font-size="10.00">src/nmbuflowtorch/layer</text>
<text text-anchor="middle" x="219" y="-63.5" font-family="Helvetica,sans-Serif" font-size="10.00">/conv.cpp</text>
</a>
</g>
</g>
<!-- Node6&#45;&gt;Node7 -->
<g id="edge7" class="edge">
<title>Node6&#45;&gt;Node7</title>
<path fill="none" stroke="midnightblue" d="M431.72,-121.19C385.21,-110.54 325.1,-96.78 280.65,-86.61"/>
<polygon fill="midnightblue" stroke="midnightblue" points="431.2,-124.66 441.73,-123.48 432.76,-117.83 431.2,-124.66"/>
</g>
<!-- Node8&#45;&gt;Node2 -->
<g id="edge9" class="edge">
<title>Node8&#45;&gt;Node2</title>
<path fill="none" stroke="midnightblue" d="M942.94,-122.82C854.04,-106.05 830.2,-103.17 745,-87 742.08,-86.45 739.1,-85.87 736.08,-85.29"/>
<polygon fill="midnightblue" stroke="midnightblue" points="942.44,-126.29 952.92,-124.71 943.74,-119.41 942.44,-126.29"/>
</g>
<!-- Node8&#45;&gt;Node9 -->
<g id="edge10" class="edge">
<title>Node8&#45;&gt;Node9</title>
<path fill="none" stroke="midnightblue" d="M1052.23,-118.57C1071.26,-108.35 1094.37,-95.94 1111.8,-86.58"/>
<polygon fill="midnightblue" stroke="midnightblue" points="1050.41,-115.58 1043.26,-123.4 1053.72,-121.75 1050.41,-115.58"/>
</g>
<!-- Node8&#45;&gt;Node11 -->
<g id="edge13" class="edge">
<title>Node8&#45;&gt;Node11</title>
<path fill="none" stroke="midnightblue" d="M1091.3,-129.95C1168.53,-121.57 1292.76,-106.6 1399,-87 1408.1,-85.32 1417.88,-83.16 1426.89,-81.02"/>
<polygon fill="midnightblue" stroke="midnightblue" points="1090.75,-126.49 1081.19,-131.04 1091.5,-133.45 1090.75,-126.49"/>
</g>
<!-- Node8&#45;&gt;Node12 -->
<g id="edge14" class="edge">
<title>Node8&#45;&gt;Node12</title>
<path fill="none" stroke="midnightblue" d="M1091.32,-130.21C1226.36,-116.94 1500.07,-89.94 1521,-87 1532.88,-85.33 1545.69,-83.17 1557.51,-81.03"/>
<polygon fill="midnightblue" stroke="midnightblue" points="1090.67,-126.76 1081.06,-131.22 1091.35,-133.72 1090.67,-126.76"/>
</g>
<!-- Node8&#45;&gt;Node13 -->
<g id="edge15" class="edge">
<title>Node8&#45;&gt;Node13</title>
<path fill="none" stroke="midnightblue" d="M966.7,-120.11C930.12,-107.46 882.2,-90.89 853.6,-81.01"/>
<polygon fill="midnightblue" stroke="midnightblue" points="965.61,-123.44 976.21,-123.4 967.9,-116.82 965.61,-123.44"/>
</g>
<!-- Node14 -->
<g id="node14" class="node">
<title>Node14</title>
<g id="a_node14"><a xlink:href="dense_8cpp.html" target="_top" xlink:title=" ">
<polygon fill="none" stroke="black" points="922,-56.5 922,-86.5 1056,-86.5 1056,-56.5 922,-56.5"/>
<text text-anchor="start" x="930" y="-74.5" font-family="Helvetica,sans-Serif" font-size="10.00">src/nmbuflowtorch/layer</text>
<text text-anchor="middle" x="989" y="-63.5" font-family="Helvetica,sans-Serif" font-size="10.00">/dense.cpp</text>
</a>
</g>
</g>
<!-- Node8&#45;&gt;Node14 -->
<g id="edge16" class="edge">
<title>Node8&#45;&gt;Node14</title>
<path fill="none" stroke="midnightblue" d="M1006.87,-113.99C1002.92,-104.8 998.51,-94.58 995.06,-86.58"/>
<polygon fill="midnightblue" stroke="midnightblue" points="1003.75,-115.6 1010.92,-123.4 1010.18,-112.83 1003.75,-115.6"/>
</g>
<!-- Node9&#45;&gt;Node3 -->
<g id="edge11" class="edge">
<title>Node9&#45;&gt;Node3</title>
<path fill="none" stroke="midnightblue" d="M1076.16,-53.85C1034.67,-42.68 981.73,-28.43 948.6,-19.51"/>
<polygon fill="midnightblue" stroke="midnightblue" points="1075.34,-57.25 1085.91,-56.47 1077.16,-50.5 1075.34,-57.25"/>
</g>
<!-- Node10 -->
<g id="node10" class="node">
<title>Node10</title>
<g id="a_node10"><a xlink:href="xor_8cpp.html" target="_top" xlink:title=" ">
<polygon fill="none" stroke="black" points="1066,-0.5 1066,-19.5 1210,-19.5 1210,-0.5 1066,-0.5"/>
<text text-anchor="middle" x="1138" y="-7.5" font-family="Helvetica,sans-Serif" font-size="10.00">src/nmbuflowtorch/xor.cpp</text>
</a>
</g>
</g>
<!-- Node9&#45;&gt;Node10 -->
<g id="edge12" class="edge">
<title>Node9&#45;&gt;Node10</title>
<path fill="none" stroke="midnightblue" d="M1138,-46.29C1138,-36.86 1138,-26.65 1138,-19.66"/>
<polygon fill="midnightblue" stroke="midnightblue" points="1134.5,-46.4 1138,-56.4 1141.5,-46.4 1134.5,-46.4"/>
</g>
<!-- Node16 -->
<g id="node16" class="node">
<title>Node16</title>
<g id="a_node16"><a xlink:href="relu_8cpp.html" target="_top" xlink:title=" ">
<polygon fill="none" stroke="black" points="304,-56.5 304,-86.5 438,-86.5 438,-56.5 304,-56.5"/>
<text text-anchor="start" x="312" y="-74.5" font-family="Helvetica,sans-Serif" font-size="10.00">src/nmbuflowtorch/layer</text>
<text text-anchor="middle" x="371" y="-63.5" font-family="Helvetica,sans-Serif" font-size="10.00">/relu.cpp</text>
</a>
</g>
</g>
<!-- Node15&#45;&gt;Node16 -->
<g id="edge18" class="edge">
<title>Node15&#45;&gt;Node16</title>
<path fill="none" stroke="midnightblue" d="M579.22,-121.19C533.7,-110.54 474.86,-96.78 431.35,-86.61"/>
<polygon fill="midnightblue" stroke="midnightblue" points="578.49,-124.61 589.02,-123.48 580.08,-117.79 578.49,-124.61"/>
</g>
<!-- Node17&#45;&gt;Node2 -->
<g id="edge20" class="edge">
<title>Node17&#45;&gt;Node2</title>
<path fill="none" stroke="midnightblue" d="M818.12,-120.23C785.93,-109.71 745.33,-96.45 715.1,-86.58"/>
<polygon fill="midnightblue" stroke="midnightblue" points="817.23,-123.62 827.82,-123.4 819.4,-116.96 817.23,-123.62"/>
</g>
<!-- Node17&#45;&gt;Node9 -->
<g id="edge21" class="edge">
<title>Node17&#45;&gt;Node9</title>
<path fill="none" stroke="midnightblue" d="M938.57,-121.05C982.22,-110.43 1038.42,-96.74 1080.04,-86.61"/>
<polygon fill="midnightblue" stroke="midnightblue" points="937.49,-117.71 928.61,-123.48 939.15,-124.51 937.49,-117.71"/>
</g>
<!-- Node17&#45;&gt;Node11 -->
<g id="edge22" class="edge">
<title>Node17&#45;&gt;Node11</title>
<path fill="none" stroke="midnightblue" d="M945.05,-122.97C1146.71,-95.93 1201.84,-118.04 1399,-87 1408.57,-85.49 1418.86,-83.28 1428.21,-81.04"/>
<polygon fill="midnightblue" stroke="midnightblue" points="944.46,-119.52 935.02,-124.34 945.4,-126.46 944.46,-119.52"/>
</g>
<!-- Node17&#45;&gt;Node12 -->
<g id="edge23" class="edge">
<title>Node17&#45;&gt;Node12</title>
<path fill="none" stroke="midnightblue" d="M944.97,-123C1200.54,-90.6 1269.17,-117.57 1521,-87 1533.47,-85.49 1546.94,-83.27 1559.21,-81.03"/>
<polygon fill="midnightblue" stroke="midnightblue" points="944.49,-119.53 935.01,-124.28 945.38,-126.48 944.49,-119.53"/>
</g>
<!-- Node17&#45;&gt;Node13 -->
<g id="edge24" class="edge">
<title>Node17&#45;&gt;Node13</title>
<path fill="none" stroke="midnightblue" d="M856.45,-114.97C848.92,-103.33 840.18,-89.8 834.62,-81.19"/>
<polygon fill="midnightblue" stroke="midnightblue" points="853.52,-116.9 861.89,-123.4 859.4,-113.1 853.52,-116.9"/>
</g>
<!-- Node18 -->
<g id="node18" class="node">
<title>Node18</title>
<g id="a_node18"><a xlink:href="sigmoid_8cpp.html" target="_top" xlink:title=" ">
<polygon fill="none" stroke="black" points="456,-56.5 456,-86.5 590,-86.5 590,-56.5 456,-56.5"/>
<text text-anchor="start" x="464" y="-74.5" font-family="Helvetica,sans-Serif" font-size="10.00">src/nmbuflowtorch/layer</text>
<text text-anchor="middle" x="523" y="-63.5" font-family="Helvetica,sans-Serif" font-size="10.00">/sigmoid.cpp</text>
</a>
</g>
</g>
<!-- Node17&#45;&gt;Node18 -->
<g id="edge25" class="edge">
<title>Node17&#45;&gt;Node18</title>
<path fill="none" stroke="midnightblue" d="M797,-123.86C742.29,-113.76 665.99,-99.61 599,-87 596.1,-86.45 593.13,-85.89 590.13,-85.33"/>
<polygon fill="midnightblue" stroke="midnightblue" points="796.49,-127.33 806.96,-125.7 797.76,-120.44 796.49,-127.33"/>
</g>
<!-- Node20 -->
<g id="node20" class="node">
<title>Node20</title>
<g id="a_node20"><a xlink:href="softmax_8cpp.html" target="_top" xlink:title=" ">
<polygon fill="none" stroke="black" points="0,-56.5 0,-86.5 134,-86.5 134,-56.5 0,-56.5"/>
<text text-anchor="start" x="8" y="-74.5" font-family="Helvetica,sans-Serif" font-size="10.00">src/nmbuflowtorch/layer</text>
<text text-anchor="middle" x="67" y="-63.5" font-family="Helvetica,sans-Serif" font-size="10.00">/softmax.cpp</text>
</a>
</g>
</g>
<!-- Node19&#45;&gt;Node20 -->
<g id="edge27" class="edge">
<title>Node19&#45;&gt;Node20</title>
<path fill="none" stroke="midnightblue" d="M224.85,-120.44C190.16,-109.91 146.18,-96.55 113.46,-86.61"/>
<polygon fill="midnightblue" stroke="midnightblue" points="224.24,-123.92 234.83,-123.48 226.28,-117.22 224.24,-123.92"/>
</g>
<!-- Node21&#45;&gt;Node2 -->
<g id="edge29" class="edge">
<title>Node21&#45;&gt;Node2</title>
<path fill="none" stroke="midnightblue" d="M1164.72,-130.3C1036.97,-117.85 785.41,-93.07 745,-87 742.06,-86.56 739.06,-86.08 736.03,-85.57"/>
<polygon fill="midnightblue" stroke="midnightblue" points="1164.53,-133.79 1174.82,-131.28 1165.21,-126.83 1164.53,-133.79"/>
</g>
<!-- Node21&#45;&gt;Node9 -->
<g id="edge30" class="edge">
<title>Node21&#45;&gt;Node9</title>
<path fill="none" stroke="midnightblue" d="M1208.29,-117.73C1192.66,-107.68 1174.03,-95.68 1159.87,-86.58"/>
<polygon fill="midnightblue" stroke="midnightblue" points="1206.78,-120.93 1217.08,-123.4 1210.57,-115.04 1206.78,-120.93"/>
</g>
<!-- Node21&#45;&gt;Node11 -->
<g id="edge31" class="edge">
<title>Node21&#45;&gt;Node11</title>
<path fill="none" stroke="midnightblue" d="M1296.49,-120.59C1339.65,-107.9 1396.95,-91.04 1431,-81.03"/>
<polygon fill="midnightblue" stroke="midnightblue" points="1295.29,-117.3 1286.68,-123.48 1297.26,-124.01 1295.29,-117.3"/>
</g>
<!-- Node21&#45;&gt;Node12 -->
<g id="edge32" class="edge">
<title>Node21&#45;&gt;Node12</title>
<path fill="none" stroke="midnightblue" d="M1312.94,-122.85C1406.31,-105.64 1431.26,-102.86 1521,-87 1531.84,-85.08 1543.5,-82.99 1554.48,-81"/>
<polygon fill="midnightblue" stroke="midnightblue" points="1312.27,-119.42 1303.08,-124.68 1313.55,-126.3 1312.27,-119.42"/>
</g>
<!-- Node21&#45;&gt;Node13 -->
<g id="edge33" class="edge">
<title>Node21&#45;&gt;Node13</title>
<path fill="none" stroke="midnightblue" d="M1165.01,-126.41C1098.9,-116.41 999.42,-101.15 913,-87 901.46,-85.11 889.05,-83.01 877.39,-81"/>
<polygon fill="midnightblue" stroke="midnightblue" points="1164.51,-129.88 1174.93,-127.91 1165.56,-122.95 1164.51,-129.88"/>
</g>
<!-- Node22 -->
<g id="node22" class="node">
<title>Node22</title>
<g id="a_node22"><a xlink:href="network_8cpp.html" target="_top" xlink:title=" ">
<polygon fill="none" stroke="black" points="1220,-62 1220,-81 1390,-81 1390,-62 1220,-62"/>
<text text-anchor="middle" x="1305" y="-69" font-family="Helvetica,sans-Serif" font-size="10.00">src/nmbuflowtorch/network.cpp</text>
</a>
</g>
</g>
<!-- Node21&#45;&gt;Node22 -->
<g id="edge34" class="edge">
<title>Node21&#45;&gt;Node22</title>
<path fill="none" stroke="midnightblue" d="M1260.49,-116.34C1272.61,-104.4 1287.09,-90.14 1296.17,-81.19"/>
<polygon fill="midnightblue" stroke="midnightblue" points="1257.99,-113.89 1253.32,-123.4 1262.9,-118.87 1257.99,-113.89"/>
</g>
<!-- Node24 -->
<g id="node24" class="node">
<title>Node24</title>
<g id="a_node24"><a xlink:href="adam_8cpp.html" target="_top" xlink:title=" ">
<polygon fill="none" stroke="black" points="1619,-123.5 1619,-153.5 1775,-153.5 1775,-123.5 1619,-123.5"/>
<text text-anchor="start" x="1627" y="-141.5" font-family="Helvetica,sans-Serif" font-size="10.00">src/nmbuflowtorch/optimizer</text>
<text text-anchor="middle" x="1697" y="-130.5" font-family="Helvetica,sans-Serif" font-size="10.00">/adam.cpp</text>
</a>
</g>
</g>
<!-- Node23&#45;&gt;Node24 -->
<g id="edge41" class="edge">
<title>Node23&#45;&gt;Node24</title>
<path fill="none" stroke="midnightblue" d="M1692.6,-180.4C1693.57,-171.37 1694.64,-161.41 1695.48,-153.58"/>
<polygon fill="midnightblue" stroke="midnightblue" points="1689.11,-180.08 1691.52,-190.4 1696.07,-180.83 1689.11,-180.08"/>
</g>
<!-- Node25&#45;&gt;Node2 -->
<g id="edge43" class="edge">
<title>Node25&#45;&gt;Node2</title>
<path fill="none" stroke="midnightblue" d="M187.65,-180.12C188.06,-161.58 191.98,-136.96 208,-123 273.78,-65.68 512.65,-99.52 599,-87 601.94,-86.57 604.94,-86.11 607.97,-85.61"/>
<polygon fill="midnightblue" stroke="midnightblue" points="184.15,-180.24 187.75,-190.2 191.15,-180.17 184.15,-180.24"/>
</g>
<!-- Node26 -->
<g id="node26" class="node">
<title>Node26</title>
<g id="a_node26"><a xlink:href="nadam_8cpp.html" target="_top" xlink:title=" ">
<polygon fill="none" stroke="black" points="5,-123.5 5,-153.5 161,-153.5 161,-123.5 5,-123.5"/>
<text text-anchor="start" x="13" y="-141.5" font-family="Helvetica,sans-Serif" font-size="10.00">src/nmbuflowtorch/optimizer</text>
<text text-anchor="middle" x="83" y="-130.5" font-family="Helvetica,sans-Serif" font-size="10.00">/nadam.cpp</text>
</a>
</g>
</g>
<!-- Node25&#45;&gt;Node26 -->
<g id="edge44" class="edge">
<title>Node25&#45;&gt;Node26</title>
<path fill="none" stroke="midnightblue" d="M157.22,-185.02C140.73,-174.9 120.95,-162.77 105.96,-153.58"/>
<polygon fill="midnightblue" stroke="midnightblue" points="155.65,-188.15 166,-190.4 159.3,-182.18 155.65,-188.15"/>
</g>
<!-- Node27&#45;&gt;Node2 -->
<g id="edge46" class="edge">
<title>Node27&#45;&gt;Node2</title>
<path fill="none" stroke="midnightblue" d="M1310.83,-122.98C1059.84,-91.09 992.08,-119.24 745,-87 742.05,-86.62 739.05,-86.18 736.01,-85.71"/>
<polygon fill="midnightblue" stroke="midnightblue" points="1310.62,-126.48 1320.99,-124.29 1311.52,-119.54 1310.62,-126.48"/>
</g>
<!-- Node27&#45;&gt;Node9 -->
<g id="edge47" class="edge">
<title>Node27&#45;&gt;Node9</title>
<path fill="none" stroke="midnightblue" d="M1321.99,-120.92C1281.68,-110.31 1229.96,-96.7 1191.62,-86.61"/>
<polygon fill="midnightblue" stroke="midnightblue" points="1321.15,-124.32 1331.71,-123.48 1322.93,-117.55 1321.15,-124.32"/>
</g>
<!-- Node27&#45;&gt;Node11 -->
<g id="edge48" class="edge">
<title>Node27&#45;&gt;Node11</title>
<path fill="none" stroke="midnightblue" d="M1409.03,-116.67C1422.88,-104.67 1439.55,-90.22 1449.97,-81.19"/>
<polygon fill="midnightblue" stroke="midnightblue" points="1406.54,-114.2 1401.27,-123.4 1411.12,-119.49 1406.54,-114.2"/>
</g>
<!-- Node27&#45;&gt;Node12 -->
<g id="edge49" class="edge">
<title>Node27&#45;&gt;Node12</title>
<path fill="none" stroke="midnightblue" d="M1441.19,-120.59C1483.38,-107.9 1539.38,-91.04 1572.66,-81.03"/>
<polygon fill="midnightblue" stroke="midnightblue" points="1440.17,-117.24 1431.6,-123.48 1442.19,-123.95 1440.17,-117.24"/>
</g>
<!-- Node27&#45;&gt;Node13 -->
<g id="edge50" class="edge">
<title>Node27&#45;&gt;Node13</title>
<path fill="none" stroke="midnightblue" d="M1311.07,-122.97C1134.05,-98.06 1086.35,-109.74 913,-87 900.53,-85.36 887.08,-83.22 874.67,-81.08"/>
<polygon fill="midnightblue" stroke="midnightblue" points="1310.58,-126.44 1320.97,-124.38 1311.57,-119.51 1310.58,-126.44"/>
</g>
<!-- Node28 -->
<g id="node28" class="node">
<title>Node28</title>
<g id="a_node28"><a xlink:href="sgd_8cpp.html" target="_top" xlink:title=" ">
<polygon fill="none" stroke="black" points="1690,-56.5 1690,-86.5 1846,-86.5 1846,-56.5 1690,-56.5"/>
<text text-anchor="start" x="1698" y="-74.5" font-family="Helvetica,sans-Serif" font-size="10.00">src/nmbuflowtorch/optimizer</text>
<text text-anchor="middle" x="1768" y="-63.5" font-family="Helvetica,sans-Serif" font-size="10.00">/sgd.cpp</text>
</a>
</g>
</g>
<!-- Node27&#45;&gt;Node28 -->
<g id="edge51" class="edge">
<title>Node27&#45;&gt;Node28</title>
<path fill="none" stroke="midnightblue" d="M1459.06,-124.93C1525.36,-113.68 1622.23,-97.24 1689.77,-85.78"/>
<polygon fill="midnightblue" stroke="midnightblue" points="1458.38,-121.5 1449.11,-126.62 1459.55,-128.4 1458.38,-121.5"/>
</g>
</g>
</svg>
