<?xml version="1.0" encoding="UTF-8" standalone="no"?>
<!DOCTYPE svg PUBLIC "-//W3C//DTD SVG 1.1//EN"
 "http://www.w3.org/Graphics/SVG/1.1/DTD/svg11.dtd">
<!-- Generated by graphviz version 2.43.0 (0)
 -->
<!-- Title: include/nmbuflowtorch/optimizer.hpp Pages: 1 -->
<svg width="1983pt" height="296pt"
 viewBox="0.00 0.00 1983.00 296.00" xmlns="http://www.w3.org/2000/svg" xmlns:xlink="http://www.w3.org/1999/xlink">
<g id="graph0" class="graph" transform="scale(1 1) rotate(0) translate(4 292)">
<title>include/nmbuflowtorch/optimizer.hpp</title>
<!-- Node1 -->
<g id="node1" class="node">
<title>Node1</title>
<g id="a_node1"><a xlink:title=" ">
<polygon fill="#bfbfbf" stroke="black" points="1278,-257.5 1278,-287.5 1406,-287.5 1406,-257.5 1278,-257.5"/>
<text text-anchor="start" x="1286" y="-275.5" font-family="Helvetica,sans-Serif" font-size="10.00">include/nmbuflowtorch</text>
<text text-anchor="middle" x="1342" y="-264.5" font-family="Helvetica,sans-Serif" font-size="10.00">/optimizer.hpp</text>
</a>
</g>
</g>
<!-- Node2 -->
<g id="node2" class="node">
<title>Node2</title>
<g id="a_node2"><a xlink:href="layer_8hpp.html" target="_top" xlink:title=" ">
<polygon fill="none" stroke="black" points="868,-190.5 868,-220.5 996,-220.5 996,-190.5 868,-190.5"/>
<text text-anchor="start" x="876" y="-208.5" font-family="Helvetica,sans-Serif" font-size="10.00">include/nmbuflowtorch</text>
<text text-anchor="middle" x="932" y="-197.5" font-family="Helvetica,sans-Serif" font-size="10.00">/layer.hpp</text>
</a>
</g>
</g>
<!-- Node1&#45;&gt;Node2 -->
<g id="edge1" class="edge">
<title>Node1&#45;&gt;Node2</title>
<path fill="none" stroke="midnightblue" d="M1267.76,-259.73C1190.24,-247.44 1069.88,-228.36 996.29,-216.69"/>
<polygon fill="midnightblue" stroke="midnightblue" points="1267.51,-263.23 1277.94,-261.34 1268.61,-256.32 1267.51,-263.23"/>
</g>
<!-- Node3 -->
<g id="node3" class="node">
<title>Node3</title>
<g id="a_node3"><a xlink:href="autoencoder_8hpp.html" target="_top" xlink:title=" ">
<polygon fill="none" stroke="black" points="1718,-56.5 1718,-86.5 1846,-86.5 1846,-56.5 1718,-56.5"/>
<text text-anchor="start" x="1726" y="-74.5" font-family="Helvetica,sans-Serif" font-size="10.00">include/nmbuflowtorch</text>
<text text-anchor="middle" x="1782" y="-63.5" font-family="Helvetica,sans-Serif" font-size="10.00">/autoencoder.hpp</text>
</a>
</g>
</g>
<!-- Node1&#45;&gt;Node3 -->
<g id="edge39" class="edge">
<title>Node1&#45;&gt;Node3</title>
<path fill="none" stroke="midnightblue" d="M1416.02,-266.86C1507.35,-260.16 1656.61,-245.8 1706,-221 1743.35,-202.24 1753.82,-191.64 1772,-154 1782.54,-132.18 1783.49,-103.4 1782.94,-86.53"/>
<polygon fill="midnightblue" stroke="midnightblue" points="1415.73,-263.37 1406,-267.58 1416.23,-270.35 1415.73,-263.37"/>
</g>
<!-- Node7 -->
<g id="node7" class="node">
<title>Node7</title>
<g id="a_node7"><a xlink:href="xor_8hpp.html" target="_top" xlink:title=" ">
<polygon fill="none" stroke="black" points="1042,-56.5 1042,-86.5 1170,-86.5 1170,-56.5 1042,-56.5"/>
<text text-anchor="start" x="1050" y="-74.5" font-family="Helvetica,sans-Serif" font-size="10.00">include/nmbuflowtorch</text>
<text text-anchor="middle" x="1106" y="-63.5" font-family="Helvetica,sans-Serif" font-size="10.00">/xor.hpp</text>
</a>
</g>
</g>
<!-- Node1&#45;&gt;Node7 -->
<g id="edge52" class="edge">
<title>Node1&#45;&gt;Node7</title>
<path fill="none" stroke="midnightblue" d="M1301.02,-253.12C1260.05,-233.2 1197.1,-198.25 1154,-154 1134.29,-133.77 1119.4,-103.93 1111.75,-86.53"/>
<polygon fill="midnightblue" stroke="midnightblue" points="1299.65,-256.34 1310.18,-257.5 1302.67,-250.03 1299.65,-256.34"/>
</g>
<!-- Node9 -->
<g id="node9" class="node">
<title>Node9</title>
<g id="a_node9"><a xlink:href="main_01copy_8cpp.html" target="_top" xlink:title=" ">
<polygon fill="none" stroke="black" points="768,-62 768,-81 872,-81 872,-62 768,-62"/>
<text text-anchor="middle" x="820" y="-69" font-family="Helvetica,sans-Serif" font-size="10.00">src/main copy.cpp</text>
</a>
</g>
</g>
<!-- Node1&#45;&gt;Node9 -->
<g id="edge53" class="edge">
<title>Node1&#45;&gt;Node9</title>
<path fill="none" stroke="midnightblue" d="M1267.61,-268.91C1150.98,-263.99 930.96,-250.97 859,-221 815.55,-202.91 797.17,-196.52 777,-154 771.1,-141.55 772.24,-135.93 777,-123 783.36,-105.71 798.57,-90.31 809.08,-81.18"/>
<polygon fill="midnightblue" stroke="midnightblue" points="1267.75,-272.42 1277.88,-269.34 1268.03,-265.43 1267.75,-272.42"/>
</g>
<!-- Node10 -->
<g id="node10" class="node">
<title>Node10</title>
<g id="a_node10"><a xlink:href="main__multithread_8cpp.html" target="_top" xlink:title=" ">
<polygon fill="none" stroke="black" points="608.5,-62 608.5,-81 749.5,-81 749.5,-62 608.5,-62"/>
<text text-anchor="middle" x="679" y="-69" font-family="Helvetica,sans-Serif" font-size="10.00">src/main_multithread.cpp</text>
</a>
</g>
</g>
<!-- Node1&#45;&gt;Node10 -->
<g id="edge54" class="edge">
<title>Node1&#45;&gt;Node10</title>
<path fill="none" stroke="midnightblue" d="M1267.88,-266.58C1075.44,-253.01 571.64,-212.19 526,-154 517.5,-143.16 517.93,-134.17 526,-123 538.99,-105.04 594.54,-89.96 634.98,-81.08"/>
<polygon fill="midnightblue" stroke="midnightblue" points="1267.69,-270.07 1277.91,-267.28 1268.18,-263.09 1267.69,-270.07"/>
</g>
<!-- Node11 -->
<g id="node11" class="node">
<title>Node11</title>
<g id="a_node11"><a xlink:href="main__single__thread_8cpp.html" target="_top" xlink:title=" ">
<polygon fill="none" stroke="black" points="1376,-62 1376,-81 1526,-81 1526,-62 1376,-62"/>
<text text-anchor="middle" x="1451" y="-69" font-family="Helvetica,sans-Serif" font-size="10.00">src/main_single_thread.cpp</text>
</a>
</g>
</g>
<!-- Node1&#45;&gt;Node11 -->
<g id="edge55" class="edge">
<title>Node1&#45;&gt;Node11</title>
<path fill="none" stroke="midnightblue" d="M1380.01,-252.59C1414.35,-233.14 1462.68,-199.32 1484,-154 1496.22,-128.03 1472.69,-96.25 1459.33,-81.2"/>
<polygon fill="midnightblue" stroke="midnightblue" points="1378.24,-249.57 1371.17,-257.45 1381.61,-255.7 1378.24,-249.57"/>
</g>
<!-- Node15 -->
<g id="node15" class="node">
<title>Node15</title>
<g id="a_node15"><a xlink:href="network_8hpp.html" target="_top" xlink:title="Network class representing a sequence of layers. This class implements a network consisting of a sequ...">
<polygon fill="none" stroke="black" points="1163,-123.5 1163,-153.5 1291,-153.5 1291,-123.5 1163,-123.5"/>
<text text-anchor="start" x="1171" y="-141.5" font-family="Helvetica,sans-Serif" font-size="10.00">include/nmbuflowtorch</text>
<text text-anchor="middle" x="1227" y="-130.5" font-family="Helvetica,sans-Serif" font-size="10.00">/network.hpp</text>
</a>
</g>
</g>
<!-- Node1&#45;&gt;Node15 -->
<g id="edge38" class="edge">
<title>Node1&#45;&gt;Node15</title>
<path fill="none" stroke="midnightblue" d="M1322.87,-249.54C1299.1,-222.25 1259.22,-176.48 1239.22,-153.52"/>
<polygon fill="midnightblue" stroke="midnightblue" points="1320.49,-252.13 1329.69,-257.37 1325.76,-247.53 1320.49,-252.13"/>
</g>
<!-- Node23 -->
<g id="node23" class="node">
<title>Node23</title>
<g id="a_node23"><a xlink:href="nadam_8hpp.html" target="_top" xlink:title=" ">
<polygon fill="none" stroke="black" points="1569,-190.5 1569,-220.5 1697,-220.5 1697,-190.5 1569,-190.5"/>
<text text-anchor="start" x="1577" y="-208.5" font-family="Helvetica,sans-Serif" font-size="10.00">include/nmbuflowtorch</text>
<text text-anchor="middle" x="1633" y="-197.5" font-family="Helvetica,sans-Serif" font-size="10.00">/optimizer/nadam.hpp</text>
</a>
</g>
</g>
<!-- Node1&#45;&gt;Node23 -->
<g id="edge40" class="edge">
<title>Node1&#45;&gt;Node23</title>
<path fill="none" stroke="midnightblue" d="M1414.76,-255.25C1462.54,-244.58 1524.42,-230.75 1570.08,-220.55"/>
<polygon fill="midnightblue" stroke="midnightblue" points="1413.78,-251.88 1404.78,-257.48 1415.31,-258.71 1413.78,-251.88"/>
</g>
<!-- Node25 -->
<g id="node25" class="node">
<title>Node25</title>
<g id="a_node25"><a xlink:href="sgd_8hpp.html" target="_top" xlink:title=" ">
<polygon fill="none" stroke="black" points="1347,-123.5 1347,-153.5 1475,-153.5 1475,-123.5 1347,-123.5"/>
<text text-anchor="start" x="1355" y="-141.5" font-family="Helvetica,sans-Serif" font-size="10.00">include/nmbuflowtorch</text>
<text text-anchor="middle" x="1411" y="-130.5" font-family="Helvetica,sans-Serif" font-size="10.00">/optimizer/sgd.hpp</text>
</a>
</g>
</g>
<!-- Node1&#45;&gt;Node25 -->
<g id="edge43" class="edge">
<title>Node1&#45;&gt;Node25</title>
<path fill="none" stroke="midnightblue" d="M1354.04,-248.48C1368.36,-221.07 1391.82,-176.19 1403.67,-153.52"/>
<polygon fill="midnightblue" stroke="midnightblue" points="1350.92,-246.89 1349.38,-257.37 1357.12,-250.13 1350.92,-246.89"/>
</g>
<!-- Node27 -->
<g id="node27" class="node">
<title>Node27</title>
<g id="a_node27"><a xlink:href="adam_8hpp.html" target="_top" xlink:title=" ">
<polygon fill="none" stroke="black" points="1826,-190.5 1826,-220.5 1954,-220.5 1954,-190.5 1826,-190.5"/>
<text text-anchor="start" x="1834" y="-208.5" font-family="Helvetica,sans-Serif" font-size="10.00">include/nmbuflowtorch</text>
<text text-anchor="middle" x="1890" y="-197.5" font-family="Helvetica,sans-Serif" font-size="10.00">/optimizer/adam.hpp</text>
</a>
</g>
</g>
<!-- Node1&#45;&gt;Node27 -->
<g id="edge50" class="edge">
<title>Node1&#45;&gt;Node27</title>
<path fill="none" stroke="midnightblue" d="M1416.19,-264.8C1507.77,-256.21 1668.19,-240.11 1805,-221 1811.67,-220.07 1818.62,-219.02 1825.55,-217.91"/>
<polygon fill="midnightblue" stroke="midnightblue" points="1415.82,-261.32 1406.19,-265.73 1416.47,-268.29 1415.82,-261.32"/>
</g>
<!-- Node2&#45;&gt;Node3 -->
<g id="edge2" class="edge">
<title>Node2&#45;&gt;Node3</title>
<path fill="none" stroke="midnightblue" d="M1006.34,-202.37C1112.97,-198.27 1315.11,-186.56 1484,-154 1531.36,-144.87 1541.54,-135.97 1588,-123 1634.26,-110.09 1687.02,-96.42 1725.83,-86.57"/>
<polygon fill="midnightblue" stroke="midnightblue" points="1006.19,-198.88 996.33,-202.75 1006.45,-205.87 1006.19,-198.88"/>
</g>
<!-- Node6 -->
<g id="node6" class="node">
<title>Node6</title>
<g id="a_node6"><a xlink:href="dense_8hpp.html" target="_top" xlink:title=" ">
<polygon fill="none" stroke="black" points="795,-123.5 795,-153.5 923,-153.5 923,-123.5 795,-123.5"/>
<text text-anchor="start" x="803" y="-141.5" font-family="Helvetica,sans-Serif" font-size="10.00">include/nmbuflowtorch</text>
<text text-anchor="middle" x="859" y="-130.5" font-family="Helvetica,sans-Serif" font-size="10.00">/layer/dense.hpp</text>
</a>
</g>
</g>
<!-- Node2&#45;&gt;Node6 -->
<g id="edge5" class="edge">
<title>Node2&#45;&gt;Node6</title>
<path fill="none" stroke="midnightblue" d="M908.53,-183.6C897.5,-173.78 884.66,-162.34 874.81,-153.58"/>
<polygon fill="midnightblue" stroke="midnightblue" points="906.36,-186.36 916.16,-190.4 911.02,-181.13 906.36,-186.36"/>
</g>
<!-- Node2&#45;&gt;Node7 -->
<g id="edge34" class="edge">
<title>Node2&#45;&gt;Node7</title>
<path fill="none" stroke="midnightblue" d="M1005.98,-192.68C1031.59,-185.31 1058.68,-173.36 1078,-154 1096.39,-135.57 1102.72,-104.54 1104.88,-86.56"/>
<polygon fill="midnightblue" stroke="midnightblue" points="1005.01,-189.32 996.25,-195.29 1006.82,-196.08 1005.01,-189.32"/>
</g>
<!-- Node2&#45;&gt;Node9 -->
<g id="edge35" class="edge">
<title>Node2&#45;&gt;Node9</title>
<path fill="none" stroke="midnightblue" d="M858.02,-196.82C830.82,-190 802.63,-177.35 786,-154 769.1,-130.27 796.02,-96.87 811.02,-81.23"/>
<polygon fill="midnightblue" stroke="midnightblue" points="857.45,-200.28 867.97,-199.08 859,-193.46 857.45,-200.28"/>
</g>
<!-- Node2&#45;&gt;Node10 -->
<g id="edge36" class="edge">
<title>Node2&#45;&gt;Node10</title>
<path fill="none" stroke="midnightblue" d="M861.41,-187.63C834.08,-179.55 803.15,-168.43 777,-154 739.8,-133.47 703.28,-97.89 687.34,-81.38"/>
<polygon fill="midnightblue" stroke="midnightblue" points="860.72,-191.07 871.3,-190.47 862.65,-184.35 860.72,-191.07"/>
</g>
<!-- Node2&#45;&gt;Node11 -->
<g id="edge37" class="edge">
<title>Node2&#45;&gt;Node11</title>
<path fill="none" stroke="midnightblue" d="M1006.43,-199.07C1098.33,-191.54 1248.77,-176.29 1300,-154 1319.99,-145.31 1319.44,-134.43 1338,-123 1367.09,-105.08 1403.63,-89.94 1427.15,-81.04"/>
<polygon fill="midnightblue" stroke="midnightblue" points="1006.03,-195.59 996.35,-199.88 1006.6,-202.57 1006.03,-195.59"/>
</g>
<!-- Node13 -->
<g id="node13" class="node">
<title>Node13</title>
<g id="a_node13"><a xlink:href="sigmoid_8hpp.html" target="_top" xlink:title=" ">
<polygon fill="none" stroke="black" points="941,-123.5 941,-153.5 1069,-153.5 1069,-123.5 941,-123.5"/>
<text text-anchor="start" x="949" y="-141.5" font-family="Helvetica,sans-Serif" font-size="10.00">include/nmbuflowtorch</text>
<text text-anchor="middle" x="1005" y="-130.5" font-family="Helvetica,sans-Serif" font-size="10.00">/layer/sigmoid.hpp</text>
</a>
</g>
</g>
<!-- Node2&#45;&gt;Node13 -->
<g id="edge14" class="edge">
<title>Node2&#45;&gt;Node13</title>
<path fill="none" stroke="midnightblue" d="M955.47,-183.6C966.5,-173.78 979.34,-162.34 989.19,-153.58"/>
<polygon fill="midnightblue" stroke="midnightblue" points="952.98,-181.13 947.84,-190.4 957.64,-186.36 952.98,-181.13"/>
</g>
<!-- Node2&#45;&gt;Node15 -->
<g id="edge21" class="edge">
<title>Node2&#45;&gt;Node15</title>
<path fill="none" stroke="midnightblue" d="M1005.45,-188.32C1053.94,-177.63 1116.83,-163.77 1163.21,-153.55"/>
<polygon fill="midnightblue" stroke="midnightblue" points="1004.66,-184.91 995.65,-190.48 1006.17,-191.74 1004.66,-184.91"/>
</g>
<!-- Node17 -->
<g id="node17" class="node">
<title>Node17</title>
<g id="a_node17"><a xlink:href="conv_8hpp.html" target="_top" xlink:title=" ">
<polygon fill="none" stroke="black" points="104,-123.5 104,-153.5 232,-153.5 232,-123.5 104,-123.5"/>
<text text-anchor="start" x="112" y="-141.5" font-family="Helvetica,sans-Serif" font-size="10.00">include/nmbuflowtorch</text>
<text text-anchor="middle" x="168" y="-130.5" font-family="Helvetica,sans-Serif" font-size="10.00">/layer/conv.hpp</text>
</a>
</g>
</g>
<!-- Node2&#45;&gt;Node17 -->
<g id="edge28" class="edge">
<title>Node2&#45;&gt;Node17</title>
<path fill="none" stroke="midnightblue" d="M857.38,-201.84C730.78,-196.7 466.04,-183.23 244,-154 240.14,-153.49 236.18,-152.91 232.19,-152.28"/>
<polygon fill="midnightblue" stroke="midnightblue" points="857.59,-205.35 867.72,-202.26 857.87,-198.36 857.59,-205.35"/>
</g>
<!-- Node19 -->
<g id="node19" class="node">
<title>Node19</title>
<g id="a_node19"><a xlink:href="relu_8hpp.html" target="_top" xlink:title=" ">
<polygon fill="none" stroke="black" points="253,-123.5 253,-153.5 381,-153.5 381,-123.5 253,-123.5"/>
<text text-anchor="start" x="261" y="-141.5" font-family="Helvetica,sans-Serif" font-size="10.00">include/nmbuflowtorch</text>
<text text-anchor="middle" x="317" y="-130.5" font-family="Helvetica,sans-Serif" font-size="10.00">/layer/relu.hpp</text>
</a>
</g>
</g>
<!-- Node2&#45;&gt;Node19 -->
<g id="edge30" class="edge">
<title>Node2&#45;&gt;Node19</title>
<path fill="none" stroke="midnightblue" d="M857.95,-196.67C736.35,-183.82 496.38,-158.46 381.39,-146.31"/>
<polygon fill="midnightblue" stroke="midnightblue" points="857.61,-200.16 867.92,-197.73 858.35,-193.2 857.61,-200.16"/>
</g>
<!-- Node21 -->
<g id="node21" class="node">
<title>Node21</title>
<g id="a_node21"><a xlink:href="softmax_8hpp.html" target="_top" xlink:title=" ">
<polygon fill="none" stroke="black" points="535,-123.5 535,-153.5 663,-153.5 663,-123.5 535,-123.5"/>
<text text-anchor="start" x="543" y="-141.5" font-family="Helvetica,sans-Serif" font-size="10.00">include/nmbuflowtorch</text>
<text text-anchor="middle" x="599" y="-130.5" font-family="Helvetica,sans-Serif" font-size="10.00">/layer/softmax.hpp</text>
</a>
</g>
</g>
<!-- Node2&#45;&gt;Node21 -->
<g id="edge32" class="edge">
<title>Node2&#45;&gt;Node21</title>
<path fill="none" stroke="midnightblue" d="M857.88,-190.03C799.41,-178.62 718.69,-162.86 663.01,-151.99"/>
<polygon fill="midnightblue" stroke="midnightblue" points="857.31,-193.49 867.79,-191.97 858.65,-186.62 857.31,-193.49"/>
</g>
<!-- Node4 -->
<g id="node4" class="node">
<title>Node4</title>
<g id="a_node4"><a xlink:href="main_8cpp.html" target="_top" xlink:title=" ">
<polygon fill="none" stroke="black" points="1393.5,-0.5 1393.5,-19.5 1472.5,-19.5 1472.5,-0.5 1393.5,-0.5"/>
<text text-anchor="middle" x="1433" y="-7.5" font-family="Helvetica,sans-Serif" font-size="10.00">src/main.cpp</text>
</a>
</g>
</g>
<!-- Node3&#45;&gt;Node4 -->
<g id="edge3" class="edge">
<title>Node3&#45;&gt;Node4</title>
<path fill="none" stroke="midnightblue" d="M1707.85,-55.83C1618.09,-39.73 1524.62,-25.02 1472.84,-17.05"/>
<polygon fill="midnightblue" stroke="midnightblue" points="1707.47,-59.31 1717.93,-57.64 1708.71,-52.43 1707.47,-59.31"/>
</g>
<!-- Node5 -->
<g id="node5" class="node">
<title>Node5</title>
<g id="a_node5"><a xlink:href="autoencoder_8cpp.html" target="_top" xlink:title=" ">
<polygon fill="none" stroke="black" points="1687,-0.5 1687,-19.5 1877,-19.5 1877,-0.5 1687,-0.5"/>
<text text-anchor="middle" x="1782" y="-7.5" font-family="Helvetica,sans-Serif" font-size="10.00">src/nmbuflowtorch/autoencoder.cpp</text>
</a>
</g>
</g>
<!-- Node3&#45;&gt;Node5 -->
<g id="edge4" class="edge">
<title>Node3&#45;&gt;Node5</title>
<path fill="none" stroke="midnightblue" d="M1782,-46.29C1782,-36.86 1782,-26.65 1782,-19.66"/>
<polygon fill="midnightblue" stroke="midnightblue" points="1778.5,-46.4 1782,-56.4 1785.5,-46.4 1778.5,-46.4"/>
</g>
<!-- Node6&#45;&gt;Node3 -->
<g id="edge6" class="edge">
<title>Node6&#45;&gt;Node3</title>
<path fill="none" stroke="midnightblue" d="M933,-123.02C1276.92,-82.11 1369.1,-128.39 1709,-87 1711.95,-86.64 1714.96,-86.23 1717.99,-85.78"/>
<polygon fill="midnightblue" stroke="midnightblue" points="932.52,-119.55 923.01,-124.22 933.35,-126.5 932.52,-119.55"/>
</g>
<!-- Node6&#45;&gt;Node7 -->
<g id="edge7" class="edge">
<title>Node6&#45;&gt;Node7</title>
<path fill="none" stroke="midnightblue" d="M922.01,-120.92C962.32,-110.31 1014.04,-96.7 1052.38,-86.61"/>
<polygon fill="midnightblue" stroke="midnightblue" points="921.07,-117.55 912.29,-123.48 922.85,-124.32 921.07,-117.55"/>
</g>
<!-- Node6&#45;&gt;Node9 -->
<g id="edge10" class="edge">
<title>Node6&#45;&gt;Node9</title>
<path fill="none" stroke="midnightblue" d="M845.28,-114.63C838.34,-103.07 830.33,-89.71 825.22,-81.19"/>
<polygon fill="midnightblue" stroke="midnightblue" points="842.39,-116.62 850.54,-123.4 848.39,-113.02 842.39,-116.62"/>
</g>
<!-- Node6&#45;&gt;Node10 -->
<g id="edge11" class="edge">
<title>Node6&#45;&gt;Node10</title>
<path fill="none" stroke="midnightblue" d="M810.39,-119.95C775.43,-107.32 729.82,-90.85 702.56,-81.01"/>
<polygon fill="midnightblue" stroke="midnightblue" points="809.35,-123.29 819.94,-123.4 811.73,-116.71 809.35,-123.29"/>
</g>
<!-- Node6&#45;&gt;Node11 -->
<g id="edge12" class="edge">
<title>Node6&#45;&gt;Node11</title>
<path fill="none" stroke="midnightblue" d="M933.2,-122.94C1125.88,-96.58 1177.85,-111.1 1367,-87 1379.63,-85.39 1393.25,-83.23 1405.77,-81.06"/>
<polygon fill="midnightblue" stroke="midnightblue" points="932.45,-119.51 923.02,-124.36 933.41,-126.45 932.45,-119.51"/>
</g>
<!-- Node12 -->
<g id="node12" class="node">
<title>Node12</title>
<g id="a_node12"><a xlink:href="dense_8cpp.html" target="_top" xlink:title=" ">
<polygon fill="none" stroke="black" points="456,-56.5 456,-86.5 590,-86.5 590,-56.5 456,-56.5"/>
<text text-anchor="start" x="464" y="-74.5" font-family="Helvetica,sans-Serif" font-size="10.00">src/nmbuflowtorch/layer</text>
<text text-anchor="middle" x="523" y="-63.5" font-family="Helvetica,sans-Serif" font-size="10.00">/dense.cpp</text>
</a>
</g>
</g>
<!-- Node6&#45;&gt;Node12 -->
<g id="edge13" class="edge">
<title>Node6&#45;&gt;Node12</title>
<path fill="none" stroke="midnightblue" d="M784.75,-123.14C726.56,-111.88 646.3,-96.35 590.05,-85.47"/>
<polygon fill="midnightblue" stroke="midnightblue" points="784.13,-126.58 794.61,-125.04 785.46,-119.71 784.13,-126.58"/>
</g>
<!-- Node7&#45;&gt;Node4 -->
<g id="edge8" class="edge">
<title>Node7&#45;&gt;Node4</title>
<path fill="none" stroke="midnightblue" d="M1180.01,-55.83C1261.57,-40.58 1345.29,-26.02 1393.36,-17.76"/>
<polygon fill="midnightblue" stroke="midnightblue" points="1179.26,-52.41 1170.08,-57.69 1180.55,-59.29 1179.26,-52.41"/>
</g>
<!-- Node8 -->
<g id="node8" class="node">
<title>Node8</title>
<g id="a_node8"><a xlink:href="xor_8cpp.html" target="_top" xlink:title=" ">
<polygon fill="none" stroke="black" points="1034,-0.5 1034,-19.5 1178,-19.5 1178,-0.5 1034,-0.5"/>
<text text-anchor="middle" x="1106" y="-7.5" font-family="Helvetica,sans-Serif" font-size="10.00">src/nmbuflowtorch/xor.cpp</text>
</a>
</g>
</g>
<!-- Node7&#45;&gt;Node8 -->
<g id="edge9" class="edge">
<title>Node7&#45;&gt;Node8</title>
<path fill="none" stroke="midnightblue" d="M1106,-46.29C1106,-36.86 1106,-26.65 1106,-19.66"/>
<polygon fill="midnightblue" stroke="midnightblue" points="1102.5,-46.4 1106,-56.4 1109.5,-46.4 1102.5,-46.4"/>
</g>
<!-- Node13&#45;&gt;Node3 -->
<g id="edge15" class="edge">
<title>Node13&#45;&gt;Node3</title>
<path fill="none" stroke="midnightblue" d="M1079.18,-129.81C1103.06,-127.46 1129.63,-124.98 1154,-123 1400.38,-103.03 1463.91,-119.15 1709,-87 1711.95,-86.61 1714.95,-86.18 1717.98,-85.71"/>
<polygon fill="midnightblue" stroke="midnightblue" points="1078.74,-126.33 1069.13,-130.8 1079.43,-133.3 1078.74,-126.33"/>
</g>
<!-- Node13&#45;&gt;Node7 -->
<g id="edge16" class="edge">
<title>Node13&#45;&gt;Node7</title>
<path fill="none" stroke="midnightblue" d="M1035.71,-117.73C1051.34,-107.68 1069.97,-95.68 1084.13,-86.58"/>
<polygon fill="midnightblue" stroke="midnightblue" points="1033.43,-115.04 1026.92,-123.4 1037.22,-120.93 1033.43,-115.04"/>
</g>
<!-- Node13&#45;&gt;Node9 -->
<g id="edge17" class="edge">
<title>Node13&#45;&gt;Node9</title>
<path fill="none" stroke="midnightblue" d="M955.04,-119.95C919.11,-107.32 872.23,-90.85 844.21,-81.01"/>
<polygon fill="midnightblue" stroke="midnightblue" points="954.26,-123.38 964.86,-123.4 956.58,-116.78 954.26,-123.38"/>
</g>
<!-- Node13&#45;&gt;Node10 -->
<g id="edge18" class="edge">
<title>Node13&#45;&gt;Node10</title>
<path fill="none" stroke="midnightblue" d="M930.87,-122.72C866.4,-109.87 775.21,-91.68 722.07,-81.09"/>
<polygon fill="midnightblue" stroke="midnightblue" points="930.49,-126.21 940.98,-124.74 931.86,-119.35 930.49,-126.21"/>
</g>
<!-- Node13&#45;&gt;Node11 -->
<g id="edge19" class="edge">
<title>Node13&#45;&gt;Node11</title>
<path fill="none" stroke="midnightblue" d="M1079.23,-127.86C1152.47,-118.18 1267.6,-102.51 1367,-87 1378.7,-85.17 1391.29,-83.07 1403.07,-81.05"/>
<polygon fill="midnightblue" stroke="midnightblue" points="1078.63,-124.41 1069.18,-129.18 1079.55,-131.35 1078.63,-124.41"/>
</g>
<!-- Node14 -->
<g id="node14" class="node">
<title>Node14</title>
<g id="a_node14"><a xlink:href="sigmoid_8cpp.html" target="_top" xlink:title=" ">
<polygon fill="none" stroke="black" points="890,-56.5 890,-86.5 1024,-86.5 1024,-56.5 890,-56.5"/>
<text text-anchor="start" x="898" y="-74.5" font-family="Helvetica,sans-Serif" font-size="10.00">src/nmbuflowtorch/layer</text>
<text text-anchor="middle" x="957" y="-63.5" font-family="Helvetica,sans-Serif" font-size="10.00">/sigmoid.cpp</text>
</a>
</g>
</g>
<!-- Node13&#45;&gt;Node14 -->
<g id="edge20" class="edge">
<title>Node13&#45;&gt;Node14</title>
<path fill="none" stroke="midnightblue" d="M988.5,-115.16C981.5,-105.68 973.56,-94.92 967.39,-86.58"/>
<polygon fill="midnightblue" stroke="midnightblue" points="985.83,-117.43 994.58,-123.4 991.46,-113.27 985.83,-117.43"/>
</g>
<!-- Node15&#45;&gt;Node3 -->
<g id="edge22" class="edge">
<title>Node15&#45;&gt;Node3</title>
<path fill="none" stroke="midnightblue" d="M1301.4,-127.44C1313.62,-125.88 1326.16,-124.35 1338,-123 1502.6,-104.27 1545.11,-111.17 1709,-87 1711.94,-86.57 1714.94,-86.09 1717.97,-85.59"/>
<polygon fill="midnightblue" stroke="midnightblue" points="1300.7,-124 1291.23,-128.74 1301.59,-130.94 1300.7,-124"/>
</g>
<!-- Node15&#45;&gt;Node7 -->
<g id="edge23" class="edge">
<title>Node15&#45;&gt;Node7</title>
<path fill="none" stroke="midnightblue" d="M1191.77,-118.57C1172.74,-108.35 1149.63,-95.94 1132.2,-86.58"/>
<polygon fill="midnightblue" stroke="midnightblue" points="1190.28,-121.75 1200.74,-123.4 1193.59,-115.58 1190.28,-121.75"/>
</g>
<!-- Node15&#45;&gt;Node9 -->
<g id="edge24" class="edge">
<title>Node15&#45;&gt;Node9</title>
<path fill="none" stroke="midnightblue" d="M1152.86,-128.61C1082.58,-119.72 974.2,-104.84 881,-87 872.02,-85.28 862.36,-83.13 853.45,-81.01"/>
<polygon fill="midnightblue" stroke="midnightblue" points="1152.59,-132.1 1162.95,-129.87 1153.46,-125.16 1152.59,-132.1"/>
</g>
<!-- Node15&#45;&gt;Node10 -->
<g id="edge25" class="edge">
<title>Node15&#45;&gt;Node10</title>
<path fill="none" stroke="midnightblue" d="M1152.66,-130.14C1040.44,-118.91 833.02,-97.69 759,-87 747.26,-85.31 734.62,-83.16 722.92,-81.05"/>
<polygon fill="midnightblue" stroke="midnightblue" points="1152.58,-133.65 1162.88,-131.16 1153.28,-126.68 1152.58,-133.65"/>
</g>
<!-- Node15&#45;&gt;Node11 -->
<g id="edge26" class="edge">
<title>Node15&#45;&gt;Node11</title>
<path fill="none" stroke="midnightblue" d="M1285,-120.67C1328.78,-107.97 1387.03,-91.06 1421.61,-81.03"/>
<polygon fill="midnightblue" stroke="midnightblue" points="1283.96,-117.33 1275.33,-123.48 1285.91,-124.05 1283.96,-117.33"/>
</g>
<!-- Node16 -->
<g id="node16" class="node">
<title>Node16</title>
<g id="a_node16"><a xlink:href="network_8cpp.html" target="_top" xlink:title=" ">
<polygon fill="none" stroke="black" points="1188,-62 1188,-81 1358,-81 1358,-62 1188,-62"/>
<text text-anchor="middle" x="1273" y="-69" font-family="Helvetica,sans-Serif" font-size="10.00">src/nmbuflowtorch/network.cpp</text>
</a>
</g>
</g>
<!-- Node15&#45;&gt;Node16 -->
<g id="edge27" class="edge">
<title>Node15&#45;&gt;Node16</title>
<path fill="none" stroke="midnightblue" d="M1242.94,-114.97C1251.18,-103.33 1260.76,-89.8 1266.85,-81.19"/>
<polygon fill="midnightblue" stroke="midnightblue" points="1239.9,-113.21 1236.98,-123.4 1245.61,-117.26 1239.9,-113.21"/>
</g>
<!-- Node18 -->
<g id="node18" class="node">
<title>Node18</title>
<g id="a_node18"><a xlink:href="conv_8cpp.html" target="_top" xlink:title=" ">
<polygon fill="none" stroke="black" points="0,-56.5 0,-86.5 134,-86.5 134,-56.5 0,-56.5"/>
<text text-anchor="start" x="8" y="-74.5" font-family="Helvetica,sans-Serif" font-size="10.00">src/nmbuflowtorch/layer</text>
<text text-anchor="middle" x="67" y="-63.5" font-family="Helvetica,sans-Serif" font-size="10.00">/conv.cpp</text>
</a>
</g>
</g>
<!-- Node17&#45;&gt;Node18 -->
<g id="edge29" class="edge">
<title>Node17&#45;&gt;Node18</title>
<path fill="none" stroke="midnightblue" d="M137.29,-117.73C121.66,-107.68 103.03,-95.68 88.87,-86.58"/>
<polygon fill="midnightblue" stroke="midnightblue" points="135.78,-120.93 146.08,-123.4 139.57,-115.04 135.78,-120.93"/>
</g>
<!-- Node20 -->
<g id="node20" class="node">
<title>Node20</title>
<g id="a_node20"><a xlink:href="relu_8cpp.html" target="_top" xlink:title=" ">
<polygon fill="none" stroke="black" points="152,-56.5 152,-86.5 286,-86.5 286,-56.5 152,-56.5"/>
<text text-anchor="start" x="160" y="-74.5" font-family="Helvetica,sans-Serif" font-size="10.00">src/nmbuflowtorch/layer</text>
<text text-anchor="middle" x="219" y="-63.5" font-family="Helvetica,sans-Serif" font-size="10.00">/relu.cpp</text>
</a>
</g>
</g>
<!-- Node19&#45;&gt;Node20 -->
<g id="edge31" class="edge">
<title>Node19&#45;&gt;Node20</title>
<path fill="none" stroke="midnightblue" d="M287.2,-117.73C272.03,-107.68 253.96,-95.68 240.22,-86.58"/>
<polygon fill="midnightblue" stroke="midnightblue" points="285.47,-120.79 295.74,-123.4 289.34,-114.95 285.47,-120.79"/>
</g>
<!-- Node22 -->
<g id="node22" class="node">
<title>Node22</title>
<g id="a_node22"><a xlink:href="softmax_8cpp.html" target="_top" xlink:title=" ">
<polygon fill="none" stroke="black" points="304,-56.5 304,-86.5 438,-86.5 438,-56.5 304,-56.5"/>
<text text-anchor="start" x="312" y="-74.5" font-family="Helvetica,sans-Serif" font-size="10.00">src/nmbuflowtorch/layer</text>
<text text-anchor="middle" x="371" y="-63.5" font-family="Helvetica,sans-Serif" font-size="10.00">/softmax.cpp</text>
</a>
</g>
</g>
<!-- Node21&#45;&gt;Node22 -->
<g id="edge33" class="edge">
<title>Node21&#45;&gt;Node22</title>
<path fill="none" stroke="midnightblue" d="M540.12,-120.71C503.02,-110.14 455.66,-96.63 420.5,-86.61"/>
<polygon fill="midnightblue" stroke="midnightblue" points="539.23,-124.1 549.81,-123.48 541.15,-117.37 539.23,-124.1"/>
</g>
<!-- Node23&#45;&gt;Node3 -->
<g id="edge41" class="edge">
<title>Node23&#45;&gt;Node3</title>
<path fill="none" stroke="midnightblue" d="M1611.89,-182.53C1597.84,-165.19 1584.28,-140.99 1598,-123 1605.56,-113.09 1667.82,-97.38 1717.86,-86.11"/>
<polygon fill="midnightblue" stroke="midnightblue" points="1609.53,-185.15 1618.71,-190.44 1614.83,-180.58 1609.53,-185.15"/>
</g>
<!-- Node24 -->
<g id="node24" class="node">
<title>Node24</title>
<g id="a_node24"><a xlink:href="nadam_8cpp.html" target="_top" xlink:title=" ">
<polygon fill="none" stroke="black" points="1607,-123.5 1607,-153.5 1763,-153.5 1763,-123.5 1607,-123.5"/>
<text text-anchor="start" x="1615" y="-141.5" font-family="Helvetica,sans-Serif" font-size="10.00">src/nmbuflowtorch/optimizer</text>
<text text-anchor="middle" x="1685" y="-130.5" font-family="Helvetica,sans-Serif" font-size="10.00">/nadam.cpp</text>
</a>
</g>
</g>
<!-- Node23&#45;&gt;Node24 -->
<g id="edge42" class="edge">
<title>Node23&#45;&gt;Node24</title>
<path fill="none" stroke="midnightblue" d="M1650.64,-182.45C1658.28,-172.9 1667,-162 1673.74,-153.58"/>
<polygon fill="midnightblue" stroke="midnightblue" points="1647.8,-180.4 1644.28,-190.4 1653.26,-184.77 1647.8,-180.4"/>
</g>
<!-- Node25&#45;&gt;Node3 -->
<g id="edge44" class="edge">
<title>Node25&#45;&gt;Node3</title>
<path fill="none" stroke="midnightblue" d="M1485.19,-123.67C1486.47,-123.44 1487.74,-123.22 1489,-123 1586.6,-105.94 1611.51,-104.65 1709,-87 1711.92,-86.47 1714.91,-85.92 1717.93,-85.35"/>
<polygon fill="midnightblue" stroke="midnightblue" points="1484.48,-120.24 1475.25,-125.44 1485.71,-127.13 1484.48,-120.24"/>
</g>
<!-- Node25&#45;&gt;Node7 -->
<g id="edge45" class="edge">
<title>Node25&#45;&gt;Node7</title>
<path fill="none" stroke="midnightblue" d="M1336.72,-121.67C1285.78,-110.81 1218.86,-96.55 1170.22,-86.19"/>
<polygon fill="midnightblue" stroke="midnightblue" points="1336.18,-125.13 1346.69,-123.79 1337.64,-118.29 1336.18,-125.13"/>
</g>
<!-- Node25&#45;&gt;Node9 -->
<g id="edge46" class="edge">
<title>Node25&#45;&gt;Node9</title>
<path fill="none" stroke="midnightblue" d="M1336.62,-127.32C1324.39,-125.78 1311.85,-124.28 1300,-123 1114.18,-102.89 1065.53,-116.69 881,-87 871.54,-85.48 861.38,-83.29 852.11,-81.07"/>
<polygon fill="midnightblue" stroke="midnightblue" points="1336.42,-130.83 1346.79,-128.62 1337.31,-123.88 1336.42,-130.83"/>
</g>
<!-- Node25&#45;&gt;Node10 -->
<g id="edge47" class="edge">
<title>Node25&#45;&gt;Node10</title>
<path fill="none" stroke="midnightblue" d="M1336.64,-127.12C1324.41,-125.61 1311.86,-124.17 1300,-123 1060.18,-99.38 998.16,-116.54 759,-87 746.67,-85.48 733.37,-83.29 721.21,-81.07"/>
<polygon fill="midnightblue" stroke="midnightblue" points="1336.45,-130.63 1346.81,-128.41 1337.33,-123.68 1336.45,-130.63"/>
</g>
<!-- Node25&#45;&gt;Node11 -->
<g id="edge48" class="edge">
<title>Node25&#45;&gt;Node11</title>
<path fill="none" stroke="midnightblue" d="M1425.07,-114.63C1432.19,-103.07 1440.41,-89.71 1445.65,-81.19"/>
<polygon fill="midnightblue" stroke="midnightblue" points="1421.94,-113.05 1419.68,-123.4 1427.9,-116.71 1421.94,-113.05"/>
</g>
<!-- Node26 -->
<g id="node26" class="node">
<title>Node26</title>
<g id="a_node26"><a xlink:href="sgd_8cpp.html" target="_top" xlink:title=" ">
<polygon fill="none" stroke="black" points="1544,-56.5 1544,-86.5 1700,-86.5 1700,-56.5 1544,-56.5"/>
<text text-anchor="start" x="1552" y="-74.5" font-family="Helvetica,sans-Serif" font-size="10.00">src/nmbuflowtorch/optimizer</text>
<text text-anchor="middle" x="1622" y="-63.5" font-family="Helvetica,sans-Serif" font-size="10.00">/sgd.cpp</text>
</a>
</g>
</g>
<!-- Node25&#45;&gt;Node26 -->
<g id="edge49" class="edge">
<title>Node25&#45;&gt;Node26</title>
<path fill="none" stroke="midnightblue" d="M1466.37,-120.44C1500.57,-109.91 1543.93,-96.55 1576.19,-86.61"/>
<polygon fill="midnightblue" stroke="midnightblue" points="1465.05,-117.19 1456.52,-123.48 1467.11,-123.88 1465.05,-117.19"/>
</g>
<!-- Node28 -->
<g id="node28" class="node">
<title>Node28</title>
<g id="a_node28"><a xlink:href="adam_8cpp.html" target="_top" xlink:title=" ">
<polygon fill="none" stroke="black" points="1819,-123.5 1819,-153.5 1975,-153.5 1975,-123.5 1819,-123.5"/>
<text text-anchor="start" x="1827" y="-141.5" font-family="Helvetica,sans-Serif" font-size="10.00">src/nmbuflowtorch/optimizer</text>
<text text-anchor="middle" x="1897" y="-130.5" font-family="Helvetica,sans-Serif" font-size="10.00">/adam.cpp</text>
</a>
</g>
</g>
<!-- Node27&#45;&gt;Node28 -->
<g id="edge51" class="edge">
<title>Node27&#45;&gt;Node28</title>
<path fill="none" stroke="midnightblue" d="M1892.6,-180.4C1893.57,-171.37 1894.64,-161.41 1895.48,-153.58"/>
<polygon fill="midnightblue" stroke="midnightblue" points="1889.11,-180.08 1891.52,-190.4 1896.07,-180.83 1889.11,-180.08"/>
</g>
</g>
</svg>
