<?xml version="1.0" encoding="UTF-8" standalone="no"?>
<!DOCTYPE svg PUBLIC "-//W3C//DTD SVG 1.1//EN"
 "http://www.w3.org/Graphics/SVG/1.1/DTD/svg11.dtd">
<!-- Generated by graphviz version 2.43.0 (0)
 -->
<!-- Title: include/nmbuflowtorch/optimizer.hpp Pages: 1 -->
<svg width="1514pt" height="240pt"
 viewBox="0.00 0.00 1514.00 240.00" xmlns="http://www.w3.org/2000/svg" xmlns:xlink="http://www.w3.org/1999/xlink">
<g id="graph0" class="graph" transform="scale(1 1) rotate(0) translate(4 236)">
<title>include/nmbuflowtorch/optimizer.hpp</title>
<!-- Node1 -->
<g id="node1" class="node">
<title>Node1</title>
<g id="a_node1"><a xlink:title=" ">
<polygon fill="#bfbfbf" stroke="black" points="444.5,-201.5 444.5,-231.5 572.5,-231.5 572.5,-201.5 444.5,-201.5"/>
<text text-anchor="start" x="452.5" y="-219.5" font-family="Helvetica,sans-Serif" font-size="10.00">include/nmbuflowtorch</text>
<text text-anchor="middle" x="508.5" y="-208.5" font-family="Helvetica,sans-Serif" font-size="10.00">/optimizer.hpp</text>
</a>
</g>
</g>
<!-- Node2 -->
<g id="node2" class="node">
<title>Node2</title>
<g id="a_node2"><a xlink:href="layer_8hpp.html" target="_top" xlink:title=" ">
<polygon fill="none" stroke="black" points="663.5,-134.5 663.5,-164.5 791.5,-164.5 791.5,-134.5 663.5,-134.5"/>
<text text-anchor="start" x="671.5" y="-152.5" font-family="Helvetica,sans-Serif" font-size="10.00">include/nmbuflowtorch</text>
<text text-anchor="middle" x="727.5" y="-141.5" font-family="Helvetica,sans-Serif" font-size="10.00">/layer.hpp</text>
</a>
</g>
</g>
<!-- Node1&#45;&gt;Node2 -->
<g id="edge1" class="edge">
<title>Node1&#45;&gt;Node2</title>
<path fill="none" stroke="midnightblue" d="M565.51,-198.58C601.08,-188.02 646.33,-174.59 679.96,-164.61"/>
<polygon fill="midnightblue" stroke="midnightblue" points="564.34,-195.28 555.75,-201.48 566.33,-201.99 564.34,-195.28"/>
</g>
<!-- Node4 -->
<g id="node4" class="node">
<title>Node4</title>
<g id="a_node4"><a xlink:href="main_01copy_8cpp.html" target="_top" xlink:title=" ">
<polygon fill="none" stroke="black" points="175.5,-6 175.5,-25 279.5,-25 279.5,-6 175.5,-6"/>
<text text-anchor="middle" x="227.5" y="-13" font-family="Helvetica,sans-Serif" font-size="10.00">src/main copy.cpp</text>
</a>
</g>
</g>
<!-- Node1&#45;&gt;Node4 -->
<g id="edge35" class="edge">
<title>Node1&#45;&gt;Node4</title>
<path fill="none" stroke="midnightblue" d="M434.05,-211.74C359.38,-203.41 248.89,-177.47 201.5,-98 187.05,-73.76 208.37,-40.61 220.32,-25.13"/>
<polygon fill="midnightblue" stroke="midnightblue" points="434.03,-215.26 444.33,-212.81 434.75,-208.3 434.03,-215.26"/>
</g>
<!-- Node5 -->
<g id="node5" class="node">
<title>Node5</title>
<g id="a_node5"><a xlink:href="src_2main_8cpp.html" target="_top" xlink:title=" ">
<polygon fill="none" stroke="black" points="298,-6 298,-25 377,-25 377,-6 298,-6"/>
<text text-anchor="middle" x="337.5" y="-13" font-family="Helvetica,sans-Serif" font-size="10.00">src/main.cpp</text>
</a>
</g>
</g>
<!-- Node1&#45;&gt;Node5 -->
<g id="edge36" class="edge">
<title>Node1&#45;&gt;Node5</title>
<path fill="none" stroke="midnightblue" d="M485.56,-194.69C461.2,-172.05 422.17,-134.22 392.5,-98 372.16,-73.17 352.03,-40.86 342.78,-25.44"/>
<polygon fill="midnightblue" stroke="midnightblue" points="483.21,-197.28 492.93,-201.49 487.95,-192.14 483.21,-197.28"/>
</g>
<!-- Node6 -->
<g id="node6" class="node">
<title>Node6</title>
<g id="a_node6"><a xlink:href="main__multithread_8cpp.html" target="_top" xlink:title=" ">
<polygon fill="none" stroke="black" points="737,-6 737,-25 878,-25 878,-6 737,-6"/>
<text text-anchor="middle" x="807.5" y="-13" font-family="Helvetica,sans-Serif" font-size="10.00">src/main_multithread.cpp</text>
</a>
</g>
</g>
<!-- Node1&#45;&gt;Node6 -->
<g id="edge37" class="edge">
<title>Node1&#45;&gt;Node6</title>
<path fill="none" stroke="midnightblue" d="M582.98,-212.18C643.66,-207.26 730.45,-195.08 800.5,-165 846.32,-145.32 868.12,-142.56 890.5,-98 896.68,-85.69 897.25,-79.01 890.5,-67 878.68,-45.97 854.17,-32.68 834.83,-25.04"/>
<polygon fill="midnightblue" stroke="midnightblue" points="582.43,-208.71 572.72,-212.96 582.96,-215.69 582.43,-208.71"/>
</g>
<!-- Node7 -->
<g id="node7" class="node">
<title>Node7</title>
<g id="a_node7"><a xlink:href="main__single__thread_8cpp.html" target="_top" xlink:title=" ">
<polygon fill="none" stroke="black" points="896.5,-6 896.5,-25 1046.5,-25 1046.5,-6 896.5,-6"/>
<text text-anchor="middle" x="971.5" y="-13" font-family="Helvetica,sans-Serif" font-size="10.00">src/main_single_thread.cpp</text>
</a>
</g>
</g>
<!-- Node1&#45;&gt;Node7 -->
<g id="edge38" class="edge">
<title>Node1&#45;&gt;Node7</title>
<path fill="none" stroke="midnightblue" d="M582.75,-209.29C667.68,-201.35 800.88,-186.05 846.5,-165 911.68,-134.93 954.93,-52.1 967.62,-25.12"/>
<polygon fill="midnightblue" stroke="midnightblue" points="582.28,-205.82 572.65,-210.23 582.92,-212.79 582.28,-205.82"/>
</g>
<!-- Node15 -->
<g id="node15" class="node">
<title>Node15</title>
<g id="a_node15"><a xlink:href="network_8hpp.html" target="_top" xlink:title=" ">
<polygon fill="none" stroke="black" points="444.5,-67.5 444.5,-97.5 572.5,-97.5 572.5,-67.5 444.5,-67.5"/>
<text text-anchor="start" x="452.5" y="-85.5" font-family="Helvetica,sans-Serif" font-size="10.00">include/nmbuflowtorch</text>
<text text-anchor="middle" x="508.5" y="-74.5" font-family="Helvetica,sans-Serif" font-size="10.00">/network.hpp</text>
</a>
</g>
</g>
<!-- Node1&#45;&gt;Node15 -->
<g id="edge28" class="edge">
<title>Node1&#45;&gt;Node15</title>
<path fill="none" stroke="midnightblue" d="M508.5,-191.02C508.5,-163.51 508.5,-119.79 508.5,-97.52"/>
<polygon fill="midnightblue" stroke="midnightblue" points="505,-191.37 508.5,-201.37 512,-191.37 505,-191.37"/>
</g>
<!-- Node17 -->
<g id="node17" class="node">
<title>Node17</title>
<g id="a_node17"><a xlink:href="sgd_8hpp.html" target="_top" xlink:title=" ">
<polygon fill="none" stroke="black" points="222.5,-67.5 222.5,-97.5 350.5,-97.5 350.5,-67.5 222.5,-67.5"/>
<text text-anchor="start" x="230.5" y="-85.5" font-family="Helvetica,sans-Serif" font-size="10.00">include/nmbuflowtorch</text>
<text text-anchor="middle" x="286.5" y="-74.5" font-family="Helvetica,sans-Serif" font-size="10.00">/optimizer/sgd.hpp</text>
</a>
</g>
</g>
<!-- Node1&#45;&gt;Node17 -->
<g id="edge29" class="edge">
<title>Node1&#45;&gt;Node17</title>
<path fill="none" stroke="midnightblue" d="M439.18,-198.44C414.43,-190.52 387.11,-179.57 364.5,-165 335.85,-146.54 310.11,-115.53 296.56,-97.55"/>
<polygon fill="midnightblue" stroke="midnightblue" points="438.29,-201.83 448.88,-201.43 440.35,-195.14 438.29,-201.83"/>
</g>
<!-- Node3 -->
<g id="node3" class="node">
<title>Node3</title>
<g id="a_node3"><a xlink:href="dense_8hpp.html" target="_top" xlink:title=" ">
<polygon fill="none" stroke="black" points="736.5,-67.5 736.5,-97.5 864.5,-97.5 864.5,-67.5 736.5,-67.5"/>
<text text-anchor="start" x="744.5" y="-85.5" font-family="Helvetica,sans-Serif" font-size="10.00">include/nmbuflowtorch</text>
<text text-anchor="middle" x="800.5" y="-74.5" font-family="Helvetica,sans-Serif" font-size="10.00">/layer/dense.hpp</text>
</a>
</g>
</g>
<!-- Node2&#45;&gt;Node3 -->
<g id="edge2" class="edge">
<title>Node2&#45;&gt;Node3</title>
<path fill="none" stroke="midnightblue" d="M750.97,-127.6C762,-117.78 774.84,-106.34 784.69,-97.58"/>
<polygon fill="midnightblue" stroke="midnightblue" points="748.48,-125.13 743.34,-134.4 753.14,-130.36 748.48,-125.13"/>
</g>
<!-- Node2&#45;&gt;Node4 -->
<g id="edge24" class="edge">
<title>Node2&#45;&gt;Node4</title>
<path fill="none" stroke="midnightblue" d="M653.12,-146.6C517.77,-142.38 242.44,-129.93 213.5,-98 194.99,-77.58 212.12,-41.95 221.84,-25.41"/>
<polygon fill="midnightblue" stroke="midnightblue" points="653.3,-150.11 663.41,-146.92 653.52,-143.11 653.3,-150.11"/>
</g>
<!-- Node2&#45;&gt;Node5 -->
<g id="edge25" class="edge">
<title>Node2&#45;&gt;Node5</title>
<path fill="none" stroke="midnightblue" d="M653.15,-146.22C592.19,-141.91 504.93,-130.05 435.5,-98 415.41,-88.73 366.9,-44.2 346.63,-25.16"/>
<polygon fill="midnightblue" stroke="midnightblue" points="653.25,-149.73 663.46,-146.89 653.71,-142.75 653.25,-149.73"/>
</g>
<!-- Node2&#45;&gt;Node6 -->
<g id="edge26" class="edge">
<title>Node2&#45;&gt;Node6</title>
<path fill="none" stroke="midnightblue" d="M801.48,-140.82C828.68,-134 856.87,-121.35 873.5,-98 881.49,-86.78 879.6,-79.35 873.5,-67 863.85,-47.47 842.62,-33.41 826.83,-25.16"/>
<polygon fill="midnightblue" stroke="midnightblue" points="800.5,-137.46 791.53,-143.08 802.05,-144.28 800.5,-137.46"/>
</g>
<!-- Node2&#45;&gt;Node7 -->
<g id="edge27" class="edge">
<title>Node2&#45;&gt;Node7</title>
<path fill="none" stroke="midnightblue" d="M801.39,-133.76C830.51,-125.92 863.41,-114.41 890.5,-98 923.43,-78.06 952.75,-41.86 965.18,-25.25"/>
<polygon fill="midnightblue" stroke="midnightblue" points="800.47,-130.38 791.67,-136.28 802.23,-137.16 800.47,-130.38"/>
</g>
<!-- Node9 -->
<g id="node9" class="node">
<title>Node9</title>
<g id="a_node9"><a xlink:href="relu_8hpp.html" target="_top" xlink:title=" ">
<polygon fill="none" stroke="black" points="1129.5,-67.5 1129.5,-97.5 1257.5,-97.5 1257.5,-67.5 1129.5,-67.5"/>
<text text-anchor="start" x="1137.5" y="-85.5" font-family="Helvetica,sans-Serif" font-size="10.00">include/nmbuflowtorch</text>
<text text-anchor="middle" x="1193.5" y="-74.5" font-family="Helvetica,sans-Serif" font-size="10.00">/layer/relu.hpp</text>
</a>
</g>
</g>
<!-- Node2&#45;&gt;Node9 -->
<g id="edge8" class="edge">
<title>Node2&#45;&gt;Node9</title>
<path fill="none" stroke="midnightblue" d="M801.73,-138.15C892.27,-125.52 1043.83,-104.38 1129.48,-92.43"/>
<polygon fill="midnightblue" stroke="midnightblue" points="801.23,-134.68 791.81,-139.53 802.19,-141.62 801.23,-134.68"/>
</g>
<!-- Node11 -->
<g id="node11" class="node">
<title>Node11</title>
<g id="a_node11"><a xlink:href="sigmoid_8hpp.html" target="_top" xlink:title=" ">
<polygon fill="none" stroke="black" points="590.5,-67.5 590.5,-97.5 718.5,-97.5 718.5,-67.5 590.5,-67.5"/>
<text text-anchor="start" x="598.5" y="-85.5" font-family="Helvetica,sans-Serif" font-size="10.00">include/nmbuflowtorch</text>
<text text-anchor="middle" x="654.5" y="-74.5" font-family="Helvetica,sans-Serif" font-size="10.00">/layer/sigmoid.hpp</text>
</a>
</g>
</g>
<!-- Node2&#45;&gt;Node11 -->
<g id="edge10" class="edge">
<title>Node2&#45;&gt;Node11</title>
<path fill="none" stroke="midnightblue" d="M704.03,-127.6C693,-117.78 680.16,-106.34 670.31,-97.58"/>
<polygon fill="midnightblue" stroke="midnightblue" points="701.86,-130.36 711.66,-134.4 706.52,-125.13 701.86,-130.36"/>
</g>
<!-- Node13 -->
<g id="node13" class="node">
<title>Node13</title>
<g id="a_node13"><a xlink:href="softmax_8hpp.html" target="_top" xlink:title=" ">
<polygon fill="none" stroke="black" points="1326.5,-67.5 1326.5,-97.5 1454.5,-97.5 1454.5,-67.5 1326.5,-67.5"/>
<text text-anchor="start" x="1334.5" y="-85.5" font-family="Helvetica,sans-Serif" font-size="10.00">include/nmbuflowtorch</text>
<text text-anchor="middle" x="1390.5" y="-74.5" font-family="Helvetica,sans-Serif" font-size="10.00">/layer/softmax.hpp</text>
</a>
</g>
</g>
<!-- Node2&#45;&gt;Node13 -->
<g id="edge16" class="edge">
<title>Node2&#45;&gt;Node13</title>
<path fill="none" stroke="midnightblue" d="M801.94,-142.07C905.97,-132.96 1100.74,-115.45 1266.5,-98 1286.01,-95.95 1307.22,-93.53 1326.49,-91.27"/>
<polygon fill="midnightblue" stroke="midnightblue" points="801.51,-138.6 791.85,-142.95 802.12,-145.57 801.51,-138.6"/>
</g>
<!-- Node2&#45;&gt;Node15 -->
<g id="edge18" class="edge">
<title>Node2&#45;&gt;Node15</title>
<path fill="none" stroke="midnightblue" d="M670.49,-131.58C634.92,-121.02 589.67,-107.59 556.04,-97.61"/>
<polygon fill="midnightblue" stroke="midnightblue" points="669.67,-134.99 680.25,-134.48 671.66,-128.28 669.67,-134.99"/>
</g>
<!-- Node3&#45;&gt;Node4 -->
<g id="edge3" class="edge">
<title>Node3&#45;&gt;Node4</title>
<path fill="none" stroke="midnightblue" d="M726.5,-66.98C531.86,-40.6 478.63,-61.21 288.5,-31 278.93,-29.48 268.64,-27.26 259.29,-25.02"/>
<polygon fill="midnightblue" stroke="midnightblue" points="726.09,-70.45 736.48,-68.35 727.05,-63.52 726.09,-70.45"/>
</g>
<!-- Node3&#45;&gt;Node5 -->
<g id="edge4" class="edge">
<title>Node3&#45;&gt;Node5</title>
<path fill="none" stroke="midnightblue" d="M726.34,-66.93C575.02,-44.82 532.76,-60.11 386.5,-31 378.84,-29.48 370.66,-27.29 363.22,-25.07"/>
<polygon fill="midnightblue" stroke="midnightblue" points="726.06,-70.42 736.46,-68.44 727.09,-63.5 726.06,-70.42"/>
</g>
<!-- Node3&#45;&gt;Node6 -->
<g id="edge5" class="edge">
<title>Node3&#45;&gt;Node6</title>
<path fill="none" stroke="midnightblue" d="M803.11,-57.25C804.32,-46.02 805.68,-33.38 806.56,-25.19"/>
<polygon fill="midnightblue" stroke="midnightblue" points="799.61,-57.08 802.02,-67.4 806.57,-57.83 799.61,-57.08"/>
</g>
<!-- Node3&#45;&gt;Node7 -->
<g id="edge6" class="edge">
<title>Node3&#45;&gt;Node7</title>
<path fill="none" stroke="midnightblue" d="M847.11,-63.78C880.26,-51.18 923.34,-34.81 949.12,-25.01"/>
<polygon fill="midnightblue" stroke="midnightblue" points="845.71,-60.57 837.6,-67.4 848.2,-67.11 845.71,-60.57"/>
</g>
<!-- Node8 -->
<g id="node8" class="node">
<title>Node8</title>
<g id="a_node8"><a xlink:href="dense_8cpp.html" target="_top" xlink:title=" ">
<polygon fill="none" stroke="black" points="1065,-0.5 1065,-30.5 1200,-30.5 1200,-0.5 1065,-0.5"/>
<text text-anchor="start" x="1073" y="-18.5" font-family="Helvetica,sans-Serif" font-size="10.00">src/nmbuflowtorch/layer</text>
<text text-anchor="middle" x="1132.5" y="-7.5" font-family="Helvetica,sans-Serif" font-size="10.00">/dense.cpp</text>
</a>
</g>
</g>
<!-- Node3&#45;&gt;Node8 -->
<g id="edge7" class="edge">
<title>Node3&#45;&gt;Node8</title>
<path fill="none" stroke="midnightblue" d="M874.54,-67C931.54,-55.84 1009.68,-40.55 1064.98,-29.72"/>
<polygon fill="midnightblue" stroke="midnightblue" points="873.65,-63.61 864.51,-68.97 875,-70.48 873.65,-63.61"/>
</g>
<!-- Node10 -->
<g id="node10" class="node">
<title>Node10</title>
<g id="a_node10"><a xlink:href="relu_8cpp.html" target="_top" xlink:title=" ">
<polygon fill="none" stroke="black" points="1218,-0.5 1218,-30.5 1353,-30.5 1353,-0.5 1218,-0.5"/>
<text text-anchor="start" x="1226" y="-18.5" font-family="Helvetica,sans-Serif" font-size="10.00">src/nmbuflowtorch/layer</text>
<text text-anchor="middle" x="1285.5" y="-7.5" font-family="Helvetica,sans-Serif" font-size="10.00">/relu.cpp</text>
</a>
</g>
</g>
<!-- Node9&#45;&gt;Node10 -->
<g id="edge9" class="edge">
<title>Node9&#45;&gt;Node10</title>
<path fill="none" stroke="midnightblue" d="M1221.88,-61.45C1236.03,-51.45 1252.81,-39.6 1265.58,-30.58"/>
<polygon fill="midnightblue" stroke="midnightblue" points="1219.61,-58.77 1213.46,-67.4 1223.65,-64.48 1219.61,-58.77"/>
</g>
<!-- Node11&#45;&gt;Node4 -->
<g id="edge11" class="edge">
<title>Node11&#45;&gt;Node4</title>
<path fill="none" stroke="midnightblue" d="M580.49,-66.92C450.22,-46.58 414.48,-53.64 288.5,-31 279.39,-29.36 269.61,-27.22 260.6,-25.08"/>
<polygon fill="midnightblue" stroke="midnightblue" points="580.03,-70.39 590.45,-68.5 581.13,-63.48 580.03,-70.39"/>
</g>
<!-- Node11&#45;&gt;Node5 -->
<g id="edge12" class="edge">
<title>Node11&#45;&gt;Node5</title>
<path fill="none" stroke="midnightblue" d="M580.34,-66.81C493.22,-50.47 469.11,-50.79 386.5,-31 379.34,-29.28 371.67,-27.16 364.58,-25.07"/>
<polygon fill="midnightblue" stroke="midnightblue" points="579.94,-70.3 590.42,-68.72 581.24,-63.42 579.94,-70.3"/>
</g>
<!-- Node11&#45;&gt;Node6 -->
<g id="edge13" class="edge">
<title>Node11&#45;&gt;Node6</title>
<path fill="none" stroke="midnightblue" d="M696.97,-63.46C726.53,-50.9 764.6,-34.72 787.48,-25.01"/>
<polygon fill="midnightblue" stroke="midnightblue" points="695.53,-60.26 687.7,-67.4 698.27,-66.71 695.53,-60.26"/>
</g>
<!-- Node11&#45;&gt;Node7 -->
<g id="edge14" class="edge">
<title>Node11&#45;&gt;Node7</title>
<path fill="none" stroke="midnightblue" d="M728.47,-66.33C791.07,-53.5 878.53,-35.56 929.67,-25.08"/>
<polygon fill="midnightblue" stroke="midnightblue" points="727.74,-62.91 718.65,-68.35 729.15,-69.77 727.74,-62.91"/>
</g>
<!-- Node12 -->
<g id="node12" class="node">
<title>Node12</title>
<g id="a_node12"><a xlink:href="sigmoid_8cpp.html" target="_top" xlink:title=" ">
<polygon fill="none" stroke="black" points="584,-0.5 584,-30.5 719,-30.5 719,-0.5 584,-0.5"/>
<text text-anchor="start" x="592" y="-18.5" font-family="Helvetica,sans-Serif" font-size="10.00">src/nmbuflowtorch/layer</text>
<text text-anchor="middle" x="651.5" y="-7.5" font-family="Helvetica,sans-Serif" font-size="10.00">/sigmoid.cpp</text>
</a>
</g>
</g>
<!-- Node11&#45;&gt;Node12 -->
<g id="edge15" class="edge">
<title>Node11&#45;&gt;Node12</title>
<path fill="none" stroke="midnightblue" d="M653.39,-57.4C652.97,-48.37 652.51,-38.41 652.15,-30.58"/>
<polygon fill="midnightblue" stroke="midnightblue" points="649.89,-57.57 653.85,-67.4 656.88,-57.25 649.89,-57.57"/>
</g>
<!-- Node14 -->
<g id="node14" class="node">
<title>Node14</title>
<g id="a_node14"><a xlink:href="softmax_8cpp.html" target="_top" xlink:title=" ">
<polygon fill="none" stroke="black" points="1371,-0.5 1371,-30.5 1506,-30.5 1506,-0.5 1371,-0.5"/>
<text text-anchor="start" x="1379" y="-18.5" font-family="Helvetica,sans-Serif" font-size="10.00">src/nmbuflowtorch/layer</text>
<text text-anchor="middle" x="1438.5" y="-7.5" font-family="Helvetica,sans-Serif" font-size="10.00">/softmax.cpp</text>
</a>
</g>
</g>
<!-- Node13&#45;&gt;Node14 -->
<g id="edge17" class="edge">
<title>Node13&#45;&gt;Node14</title>
<path fill="none" stroke="midnightblue" d="M1407,-59.16C1414,-49.68 1421.94,-38.92 1428.11,-30.58"/>
<polygon fill="midnightblue" stroke="midnightblue" points="1404.04,-57.27 1400.92,-67.4 1409.67,-61.43 1404.04,-57.27"/>
</g>
<!-- Node15&#45;&gt;Node4 -->
<g id="edge19" class="edge">
<title>Node15&#45;&gt;Node4</title>
<path fill="none" stroke="midnightblue" d="M437.01,-65.24C393.96,-55.41 338.06,-42.58 288.5,-31 280.34,-29.09 271.57,-27.02 263.29,-25.06"/>
<polygon fill="midnightblue" stroke="midnightblue" points="436.3,-68.67 446.83,-67.48 437.86,-61.84 436.3,-68.67"/>
</g>
<!-- Node15&#45;&gt;Node5 -->
<g id="edge20" class="edge">
<title>Node15&#45;&gt;Node5</title>
<path fill="none" stroke="midnightblue" d="M461.89,-63.78C428.74,-51.18 385.66,-34.81 359.88,-25.01"/>
<polygon fill="midnightblue" stroke="midnightblue" points="460.8,-67.11 471.4,-67.4 463.29,-60.57 460.8,-67.11"/>
</g>
<!-- Node15&#45;&gt;Node6 -->
<g id="edge21" class="edge">
<title>Node15&#45;&gt;Node6</title>
<path fill="none" stroke="midnightblue" d="M582.62,-65.39C641.35,-52.62 721.12,-35.28 768.17,-25.05"/>
<polygon fill="midnightblue" stroke="midnightblue" points="581.67,-62.01 572.64,-67.56 583.16,-68.85 581.67,-62.01"/>
</g>
<!-- Node15&#45;&gt;Node7 -->
<g id="edge22" class="edge">
<title>Node15&#45;&gt;Node7</title>
<path fill="none" stroke="midnightblue" d="M582.48,-66.93C718.02,-45.9 754.57,-50.03 886.5,-31 898.65,-29.25 911.74,-27.13 923.91,-25.06"/>
<polygon fill="midnightblue" stroke="midnightblue" points="581.88,-63.48 572.54,-68.48 582.96,-70.39 581.88,-63.48"/>
</g>
<!-- Node16 -->
<g id="node16" class="node">
<title>Node16</title>
<g id="a_node16"><a xlink:href="network_8cpp.html" target="_top" xlink:title=" ">
<polygon fill="none" stroke="black" points="395.5,-6 395.5,-25 565.5,-25 565.5,-6 395.5,-6"/>
<text text-anchor="middle" x="480.5" y="-13" font-family="Helvetica,sans-Serif" font-size="10.00">src/nmbuflowtorch/network.cpp</text>
</a>
</g>
</g>
<!-- Node15&#45;&gt;Node16 -->
<g id="edge23" class="edge">
<title>Node15&#45;&gt;Node16</title>
<path fill="none" stroke="midnightblue" d="M498.35,-57.94C493.44,-46.54 487.84,-33.55 484.25,-25.19"/>
<polygon fill="midnightblue" stroke="midnightblue" points="495.25,-59.6 502.42,-67.4 501.68,-56.83 495.25,-59.6"/>
</g>
<!-- Node17&#45;&gt;Node4 -->
<g id="edge30" class="edge">
<title>Node17&#45;&gt;Node4</title>
<path fill="none" stroke="midnightblue" d="M266.67,-59.66C255.97,-47.86 243.35,-33.97 235.39,-25.19"/>
<polygon fill="midnightblue" stroke="midnightblue" points="264.39,-62.34 273.7,-67.4 269.57,-57.64 264.39,-62.34"/>
</g>
<!-- Node17&#45;&gt;Node5 -->
<g id="edge31" class="edge">
<title>Node17&#45;&gt;Node5</title>
<path fill="none" stroke="midnightblue" d="M303.91,-59.32C313.1,-47.6 323.86,-33.88 330.68,-25.19"/>
<polygon fill="midnightblue" stroke="midnightblue" points="300.99,-57.37 297.57,-67.4 306.49,-61.69 300.99,-57.37"/>
</g>
<!-- Node17&#45;&gt;Node6 -->
<g id="edge32" class="edge">
<title>Node17&#45;&gt;Node6</title>
<path fill="none" stroke="midnightblue" d="M360.7,-74.5C448.5,-65.86 598.99,-49.98 727.5,-31 739.09,-29.29 751.57,-27.16 763.15,-25.07"/>
<polygon fill="midnightblue" stroke="midnightblue" points="360.19,-71.03 350.57,-75.49 360.87,-78 360.19,-71.03"/>
</g>
<!-- Node17&#45;&gt;Node7 -->
<g id="edge33" class="edge">
<title>Node17&#45;&gt;Node7</title>
<path fill="none" stroke="midnightblue" d="M360.7,-74.02C384.58,-71.69 411.15,-69.16 435.5,-67 635.8,-49.26 686.97,-55.93 886.5,-31 899.42,-29.39 913.38,-27.19 926.17,-25"/>
<polygon fill="midnightblue" stroke="midnightblue" points="360.26,-70.55 350.65,-75.01 360.94,-77.52 360.26,-70.55"/>
</g>
<!-- Node18 -->
<g id="node18" class="node">
<title>Node18</title>
<g id="a_node18"><a xlink:href="sgd_8cpp.html" target="_top" xlink:title=" ">
<polygon fill="none" stroke="black" points="0,-0.5 0,-30.5 157,-30.5 157,-0.5 0,-0.5"/>
<text text-anchor="start" x="8" y="-18.5" font-family="Helvetica,sans-Serif" font-size="10.00">src/nmbuflowtorch/optimizer</text>
<text text-anchor="middle" x="78.5" y="-7.5" font-family="Helvetica,sans-Serif" font-size="10.00">/sgd.cpp</text>
</a>
</g>
</g>
<!-- Node17&#45;&gt;Node18 -->
<g id="edge34" class="edge">
<title>Node17&#45;&gt;Node18</title>
<path fill="none" stroke="midnightblue" d="M231.92,-64.44C198.2,-53.91 155.46,-40.55 123.65,-30.61"/>
<polygon fill="midnightblue" stroke="midnightblue" points="231.03,-67.83 241.62,-67.48 233.12,-61.15 231.03,-67.83"/>
</g>
</g>
</svg>
