<?xml version="1.0" encoding="UTF-8" standalone="no"?>
<!DOCTYPE svg PUBLIC "-//W3C//DTD SVG 1.1//EN"
 "http://www.w3.org/Graphics/SVG/1.1/DTD/svg11.dtd">
<!-- Generated by graphviz version 2.43.0 (0)
 -->
<!-- Title: include/nmbuflowtorch/optimizer.hpp Pages: 1 -->
<svg width="1796pt" height="240pt"
 viewBox="0.00 0.00 1796.06 240.00" xmlns="http://www.w3.org/2000/svg" xmlns:xlink="http://www.w3.org/1999/xlink">
<g id="graph0" class="graph" transform="scale(1 1) rotate(0) translate(4 236)">
<title>include/nmbuflowtorch/optimizer.hpp</title>
<!-- Node1 -->
<g id="node1" class="node">
<title>Node1</title>
<g id="a_node1"><a xlink:title=" ">
<polygon fill="#bfbfbf" stroke="black" points="1178.5,-201.5 1178.5,-231.5 1306.5,-231.5 1306.5,-201.5 1178.5,-201.5"/>
<text text-anchor="start" x="1186.5" y="-219.5" font-family="Helvetica,sans-Serif" font-size="10.00">include/nmbuflowtorch</text>
<text text-anchor="middle" x="1242.5" y="-208.5" font-family="Helvetica,sans-Serif" font-size="10.00">/optimizer.hpp</text>
</a>
</g>
</g>
<!-- Node2 -->
<g id="node2" class="node">
<title>Node2</title>
<g id="a_node2"><a xlink:href="layer_8hpp.html" target="_top" xlink:title=" ">
<polygon fill="none" stroke="black" points="718.5,-134.5 718.5,-164.5 846.5,-164.5 846.5,-134.5 718.5,-134.5"/>
<text text-anchor="start" x="726.5" y="-152.5" font-family="Helvetica,sans-Serif" font-size="10.00">include/nmbuflowtorch</text>
<text text-anchor="middle" x="782.5" y="-141.5" font-family="Helvetica,sans-Serif" font-size="10.00">/layer.hpp</text>
</a>
</g>
</g>
<!-- Node1&#45;&gt;Node2 -->
<g id="edge1" class="edge">
<title>Node1&#45;&gt;Node2</title>
<path fill="none" stroke="midnightblue" d="M1168.01,-204.97C1078.78,-192.37 930.81,-171.46 846.51,-159.54"/>
<polygon fill="midnightblue" stroke="midnightblue" points="1167.66,-208.46 1178.05,-206.39 1168.64,-201.53 1167.66,-208.46"/>
</g>
<!-- Node6 -->
<g id="node6" class="node">
<title>Node6</title>
<g id="a_node6"><a xlink:href="main_01copy_8cpp.html" target="_top" xlink:title=" ">
<polygon fill="none" stroke="black" points="612.5,-6 612.5,-25 716.5,-25 716.5,-6 612.5,-6"/>
<text text-anchor="middle" x="664.5" y="-13" font-family="Helvetica,sans-Serif" font-size="10.00">src/main copy.cpp</text>
</a>
</g>
</g>
<!-- Node1&#45;&gt;Node6 -->
<g id="edge42" class="edge">
<title>Node1&#45;&gt;Node6</title>
<path fill="none" stroke="midnightblue" d="M1168.06,-210.45C976.58,-196.66 478.75,-155.55 433.5,-98 354.2,2.86 399.28,-76.4 602.5,-31 610.91,-29.12 619.96,-27.04 628.46,-25.06"/>
<polygon fill="midnightblue" stroke="midnightblue" points="1168.09,-213.96 1178.31,-211.18 1168.59,-206.97 1168.09,-213.96"/>
</g>
<!-- Node7 -->
<g id="node7" class="node">
<title>Node7</title>
<g id="a_node7"><a xlink:href="src_2main_8cpp.html" target="_top" xlink:title=" ">
<polygon fill="none" stroke="black" points="1404,-6 1404,-25 1483,-25 1483,-6 1404,-6"/>
<text text-anchor="middle" x="1443.5" y="-13" font-family="Helvetica,sans-Serif" font-size="10.00">src/main.cpp</text>
</a>
</g>
</g>
<!-- Node1&#45;&gt;Node7 -->
<g id="edge43" class="edge">
<title>Node1&#45;&gt;Node7</title>
<path fill="none" stroke="midnightblue" d="M1317.02,-211.79C1395.43,-206.4 1512.05,-193.71 1545.5,-165 1579.37,-135.92 1592.41,-104.04 1567.5,-67 1561.68,-58.34 1503.06,-37 1468.54,-25.01"/>
<polygon fill="midnightblue" stroke="midnightblue" points="1316.45,-208.32 1306.7,-212.47 1316.91,-215.3 1316.45,-208.32"/>
</g>
<!-- Node8 -->
<g id="node8" class="node">
<title>Node8</title>
<g id="a_node8"><a xlink:href="main__multithread_8cpp.html" target="_top" xlink:title=" ">
<polygon fill="none" stroke="black" points="888,-6 888,-25 1029,-25 1029,-6 888,-6"/>
<text text-anchor="middle" x="958.5" y="-13" font-family="Helvetica,sans-Serif" font-size="10.00">src/main_multithread.cpp</text>
</a>
</g>
</g>
<!-- Node1&#45;&gt;Node8 -->
<g id="edge44" class="edge">
<title>Node1&#45;&gt;Node8</title>
<path fill="none" stroke="midnightblue" d="M1196.78,-197.49C1150.06,-177.66 1076.98,-142.59 1023.5,-98 996.81,-75.75 973.59,-41.03 963.65,-25.06"/>
<polygon fill="midnightblue" stroke="midnightblue" points="1195.47,-200.73 1206.05,-201.37 1198.18,-194.27 1195.47,-200.73"/>
</g>
<!-- Node9 -->
<g id="node9" class="node">
<title>Node9</title>
<g id="a_node9"><a xlink:href="main__single__thread_8cpp.html" target="_top" xlink:title=" ">
<polygon fill="none" stroke="black" points="1047.5,-6 1047.5,-25 1197.5,-25 1197.5,-6 1047.5,-6"/>
<text text-anchor="middle" x="1122.5" y="-13" font-family="Helvetica,sans-Serif" font-size="10.00">src/main_single_thread.cpp</text>
</a>
</g>
</g>
<!-- Node1&#45;&gt;Node9 -->
<g id="edge45" class="edge">
<title>Node1&#45;&gt;Node9</title>
<path fill="none" stroke="midnightblue" d="M1266.95,-194.25C1298.8,-163.99 1346.9,-107.67 1315.5,-67 1306.29,-55.07 1220.44,-36.03 1166.39,-25.05"/>
<polygon fill="midnightblue" stroke="midnightblue" points="1264.23,-191.99 1259.26,-201.35 1268.98,-197.13 1264.23,-191.99"/>
</g>
<!-- Node17 -->
<g id="node17" class="node">
<title>Node17</title>
<g id="a_node17"><a xlink:href="network_8hpp.html" target="_top" xlink:title="Network class representing a sequence of layers. This class implements a network consisting of a sequ...">
<polygon fill="none" stroke="black" points="1032.5,-67.5 1032.5,-97.5 1160.5,-97.5 1160.5,-67.5 1032.5,-67.5"/>
<text text-anchor="start" x="1040.5" y="-85.5" font-family="Helvetica,sans-Serif" font-size="10.00">include/nmbuflowtorch</text>
<text text-anchor="middle" x="1096.5" y="-74.5" font-family="Helvetica,sans-Serif" font-size="10.00">/network.hpp</text>
</a>
</g>
</g>
<!-- Node1&#45;&gt;Node17 -->
<g id="edge30" class="edge">
<title>Node1&#45;&gt;Node17</title>
<path fill="none" stroke="midnightblue" d="M1219.38,-194.59C1189.34,-167.44 1137.73,-120.78 1112.01,-97.52"/>
<polygon fill="midnightblue" stroke="midnightblue" points="1217.11,-197.26 1226.88,-201.37 1221.8,-192.07 1217.11,-197.26"/>
</g>
<!-- Node19 -->
<g id="node19" class="node">
<title>Node19</title>
<g id="a_node19"><a xlink:href="adam_8hpp.html" target="_top" xlink:title=" ">
<polygon fill="none" stroke="black" points="1408.5,-134.5 1408.5,-164.5 1536.5,-164.5 1536.5,-134.5 1408.5,-134.5"/>
<text text-anchor="start" x="1416.5" y="-152.5" font-family="Helvetica,sans-Serif" font-size="10.00">include/nmbuflowtorch</text>
<text text-anchor="middle" x="1472.5" y="-141.5" font-family="Helvetica,sans-Serif" font-size="10.00">/optimizer/adam.hpp</text>
</a>
</g>
</g>
<!-- Node1&#45;&gt;Node19 -->
<g id="edge31" class="edge">
<title>Node1&#45;&gt;Node19</title>
<path fill="none" stroke="midnightblue" d="M1301.89,-198.71C1339.32,-188.14 1387.1,-174.63 1422.57,-164.61"/>
<polygon fill="midnightblue" stroke="midnightblue" points="1300.79,-195.39 1292.12,-201.48 1302.7,-202.12 1300.79,-195.39"/>
</g>
<!-- Node21 -->
<g id="node21" class="node">
<title>Node21</title>
<g id="a_node21"><a xlink:href="nadam_8hpp.html" target="_top" xlink:title=" ">
<polygon fill="none" stroke="black" points="1629.5,-134.5 1629.5,-164.5 1757.5,-164.5 1757.5,-134.5 1629.5,-134.5"/>
<text text-anchor="start" x="1637.5" y="-152.5" font-family="Helvetica,sans-Serif" font-size="10.00">include/nmbuflowtorch</text>
<text text-anchor="middle" x="1693.5" y="-141.5" font-family="Helvetica,sans-Serif" font-size="10.00">/optimizer/nadam.hpp</text>
</a>
</g>
</g>
<!-- Node1&#45;&gt;Node21 -->
<g id="edge33" class="edge">
<title>Node1&#45;&gt;Node21</title>
<path fill="none" stroke="midnightblue" d="M1316.51,-205.38C1388.93,-195.4 1502.36,-179.57 1600.5,-165 1609.87,-163.61 1619.78,-162.1 1629.48,-160.61"/>
<polygon fill="midnightblue" stroke="midnightblue" points="1315.99,-201.92 1306.56,-206.75 1316.95,-208.85 1315.99,-201.92"/>
</g>
<!-- Node23 -->
<g id="node23" class="node">
<title>Node23</title>
<g id="a_node23"><a xlink:href="sgd_8hpp.html" target="_top" xlink:title=" ">
<polygon fill="none" stroke="black" points="1178.5,-67.5 1178.5,-97.5 1306.5,-97.5 1306.5,-67.5 1178.5,-67.5"/>
<text text-anchor="start" x="1186.5" y="-85.5" font-family="Helvetica,sans-Serif" font-size="10.00">include/nmbuflowtorch</text>
<text text-anchor="middle" x="1242.5" y="-74.5" font-family="Helvetica,sans-Serif" font-size="10.00">/optimizer/sgd.hpp</text>
</a>
</g>
</g>
<!-- Node1&#45;&gt;Node23 -->
<g id="edge36" class="edge">
<title>Node1&#45;&gt;Node23</title>
<path fill="none" stroke="midnightblue" d="M1242.5,-191.02C1242.5,-163.51 1242.5,-119.79 1242.5,-97.52"/>
<polygon fill="midnightblue" stroke="midnightblue" points="1239,-191.37 1242.5,-201.37 1246,-191.37 1239,-191.37"/>
</g>
<!-- Node3 -->
<g id="node3" class="node">
<title>Node3</title>
<g id="a_node3"><a xlink:href="conv_8hpp.html" target="_top" xlink:title=" ">
<polygon fill="none" stroke="black" points="194.5,-67.5 194.5,-97.5 322.5,-97.5 322.5,-67.5 194.5,-67.5"/>
<text text-anchor="start" x="202.5" y="-85.5" font-family="Helvetica,sans-Serif" font-size="10.00">include/nmbuflowtorch</text>
<text text-anchor="middle" x="258.5" y="-74.5" font-family="Helvetica,sans-Serif" font-size="10.00">/layer/conv.hpp</text>
</a>
</g>
</g>
<!-- Node2&#45;&gt;Node3 -->
<g id="edge2" class="edge">
<title>Node2&#45;&gt;Node3</title>
<path fill="none" stroke="midnightblue" d="M708.23,-139.29C605.14,-126.5 420.4,-103.58 322.87,-91.48"/>
<polygon fill="midnightblue" stroke="midnightblue" points="707.89,-142.77 718.25,-140.53 708.75,-135.83 707.89,-142.77"/>
</g>
<!-- Node5 -->
<g id="node5" class="node">
<title>Node5</title>
<g id="a_node5"><a xlink:href="dense_8hpp.html" target="_top" xlink:title=" ">
<polygon fill="none" stroke="black" points="626.5,-67.5 626.5,-97.5 754.5,-97.5 754.5,-67.5 626.5,-67.5"/>
<text text-anchor="start" x="634.5" y="-85.5" font-family="Helvetica,sans-Serif" font-size="10.00">include/nmbuflowtorch</text>
<text text-anchor="middle" x="690.5" y="-74.5" font-family="Helvetica,sans-Serif" font-size="10.00">/layer/dense.hpp</text>
</a>
</g>
</g>
<!-- Node2&#45;&gt;Node5 -->
<g id="edge4" class="edge">
<title>Node2&#45;&gt;Node5</title>
<path fill="none" stroke="midnightblue" d="M754.12,-128.45C739.97,-118.45 723.19,-106.6 710.42,-97.58"/>
<polygon fill="midnightblue" stroke="midnightblue" points="752.35,-131.48 762.54,-134.4 756.39,-125.77 752.35,-131.48"/>
</g>
<!-- Node2&#45;&gt;Node6 -->
<g id="edge26" class="edge">
<title>Node2&#45;&gt;Node6</title>
<path fill="none" stroke="midnightblue" d="M708.13,-144.98C674.82,-139.23 638.41,-126.27 617.5,-98 599.14,-73.18 633.51,-40.59 652.75,-25.23"/>
<polygon fill="midnightblue" stroke="midnightblue" points="707.94,-148.49 718.35,-146.54 708.99,-141.57 707.94,-148.49"/>
</g>
<!-- Node2&#45;&gt;Node7 -->
<g id="edge27" class="edge">
<title>Node2&#45;&gt;Node7</title>
<path fill="none" stroke="midnightblue" d="M856.94,-145.75C982.95,-140.37 1232.66,-126.44 1315.5,-98 1364.34,-81.23 1413.42,-42.37 1433.75,-25.07"/>
<polygon fill="midnightblue" stroke="midnightblue" points="856.46,-142.27 846.61,-146.18 856.75,-149.26 856.46,-142.27"/>
</g>
<!-- Node2&#45;&gt;Node8 -->
<g id="edge28" class="edge">
<title>Node2&#45;&gt;Node8</title>
<path fill="none" stroke="midnightblue" d="M782.07,-124.48C783.04,-106.51 787.25,-82.47 801.5,-67 817.21,-49.94 875.91,-34.25 916.9,-25.03"/>
<polygon fill="midnightblue" stroke="midnightblue" points="778.57,-124.41 781.83,-134.49 785.57,-124.58 778.57,-124.41"/>
</g>
<!-- Node2&#45;&gt;Node9 -->
<g id="edge29" class="edge">
<title>Node2&#45;&gt;Node9</title>
<path fill="none" stroke="midnightblue" d="M845.01,-131.59C876.15,-122.6 914.19,-110.78 947.5,-98 1007.26,-75.07 1075.26,-40.99 1105.94,-25.16"/>
<polygon fill="midnightblue" stroke="midnightblue" points="843.8,-128.29 835.15,-134.41 845.73,-135.02 843.8,-128.29"/>
</g>
<!-- Node11 -->
<g id="node11" class="node">
<title>Node11</title>
<g id="a_node11"><a xlink:href="relu_8hpp.html" target="_top" xlink:title=" ">
<polygon fill="none" stroke="black" points="442.5,-67.5 442.5,-97.5 570.5,-97.5 570.5,-67.5 442.5,-67.5"/>
<text text-anchor="start" x="450.5" y="-85.5" font-family="Helvetica,sans-Serif" font-size="10.00">include/nmbuflowtorch</text>
<text text-anchor="middle" x="506.5" y="-74.5" font-family="Helvetica,sans-Serif" font-size="10.00">/layer/relu.hpp</text>
</a>
</g>
</g>
<!-- Node2&#45;&gt;Node11 -->
<g id="edge10" class="edge">
<title>Node2&#45;&gt;Node11</title>
<path fill="none" stroke="midnightblue" d="M712.94,-132.12C667.78,-121.48 609.52,-107.76 566.42,-97.61"/>
<polygon fill="midnightblue" stroke="midnightblue" points="712.42,-135.59 722.95,-134.48 714.02,-128.78 712.42,-135.59"/>
</g>
<!-- Node13 -->
<g id="node13" class="node">
<title>Node13</title>
<g id="a_node13"><a xlink:href="sigmoid_8hpp.html" target="_top" xlink:title=" ">
<polygon fill="none" stroke="black" points="810.5,-67.5 810.5,-97.5 938.5,-97.5 938.5,-67.5 810.5,-67.5"/>
<text text-anchor="start" x="818.5" y="-85.5" font-family="Helvetica,sans-Serif" font-size="10.00">include/nmbuflowtorch</text>
<text text-anchor="middle" x="874.5" y="-74.5" font-family="Helvetica,sans-Serif" font-size="10.00">/layer/sigmoid.hpp</text>
</a>
</g>
</g>
<!-- Node2&#45;&gt;Node13 -->
<g id="edge12" class="edge">
<title>Node2&#45;&gt;Node13</title>
<path fill="none" stroke="midnightblue" d="M810.88,-128.45C825.03,-118.45 841.81,-106.6 854.58,-97.58"/>
<polygon fill="midnightblue" stroke="midnightblue" points="808.61,-125.77 802.46,-134.4 812.65,-131.48 808.61,-125.77"/>
</g>
<!-- Node15 -->
<g id="node15" class="node">
<title>Node15</title>
<g id="a_node15"><a xlink:href="softmax_8hpp.html" target="_top" xlink:title=" ">
<polygon fill="none" stroke="black" points="45.5,-67.5 45.5,-97.5 173.5,-97.5 173.5,-67.5 45.5,-67.5"/>
<text text-anchor="start" x="53.5" y="-85.5" font-family="Helvetica,sans-Serif" font-size="10.00">include/nmbuflowtorch</text>
<text text-anchor="middle" x="109.5" y="-74.5" font-family="Helvetica,sans-Serif" font-size="10.00">/layer/softmax.hpp</text>
</a>
</g>
</g>
<!-- Node2&#45;&gt;Node15 -->
<g id="edge18" class="edge">
<title>Node2&#45;&gt;Node15</title>
<path fill="none" stroke="midnightblue" d="M707.92,-144.69C594.65,-138.34 372.62,-123.69 185.5,-98 181.64,-97.47 177.68,-96.87 173.69,-96.23"/>
<polygon fill="midnightblue" stroke="midnightblue" points="708.03,-148.2 718.21,-145.26 708.42,-141.21 708.03,-148.2"/>
</g>
<!-- Node2&#45;&gt;Node17 -->
<g id="edge20" class="edge">
<title>Node2&#45;&gt;Node17</title>
<path fill="none" stroke="midnightblue" d="M856.88,-133.1C910.24,-122.06 981.4,-107.33 1032.29,-96.79"/>
<polygon fill="midnightblue" stroke="midnightblue" points="855.88,-129.73 846.8,-135.19 857.3,-136.59 855.88,-129.73"/>
</g>
<!-- Node4 -->
<g id="node4" class="node">
<title>Node4</title>
<g id="a_node4"><a xlink:href="conv_8cpp.html" target="_top" xlink:title=" ">
<polygon fill="none" stroke="black" points="153,-0.5 153,-30.5 288,-30.5 288,-0.5 153,-0.5"/>
<text text-anchor="start" x="161" y="-18.5" font-family="Helvetica,sans-Serif" font-size="10.00">src/nmbuflowtorch/layer</text>
<text text-anchor="middle" x="220.5" y="-7.5" font-family="Helvetica,sans-Serif" font-size="10.00">/conv.cpp</text>
</a>
</g>
</g>
<!-- Node3&#45;&gt;Node4 -->
<g id="edge3" class="edge">
<title>Node3&#45;&gt;Node4</title>
<path fill="none" stroke="midnightblue" d="M245.1,-58.58C239.64,-49.24 233.51,-38.75 228.73,-30.58"/>
<polygon fill="midnightblue" stroke="midnightblue" points="242.19,-60.53 250.25,-67.4 248.23,-57 242.19,-60.53"/>
</g>
<!-- Node5&#45;&gt;Node6 -->
<g id="edge5" class="edge">
<title>Node5&#45;&gt;Node6</title>
<path fill="none" stroke="midnightblue" d="M681.08,-57.94C676.52,-46.54 671.32,-33.55 667.98,-25.19"/>
<polygon fill="midnightblue" stroke="midnightblue" points="677.89,-59.41 684.86,-67.4 684.39,-56.81 677.89,-59.41"/>
</g>
<!-- Node5&#45;&gt;Node7 -->
<g id="edge6" class="edge">
<title>Node5&#45;&gt;Node7</title>
<path fill="none" stroke="midnightblue" d="M764.86,-71.06C777.08,-69.56 789.64,-68.13 801.5,-67 1064.34,-41.88 1134.45,-76.76 1394.5,-31 1402.45,-29.6 1410.94,-27.36 1418.58,-25.06"/>
<polygon fill="midnightblue" stroke="midnightblue" points="764.17,-67.62 754.69,-72.35 765.05,-74.57 764.17,-67.62"/>
</g>
<!-- Node5&#45;&gt;Node8 -->
<g id="edge7" class="edge">
<title>Node5&#45;&gt;Node8</title>
<path fill="none" stroke="midnightblue" d="M758.24,-65.07C810.8,-52.32 881.52,-35.17 923.34,-25.03"/>
<polygon fill="midnightblue" stroke="midnightblue" points="757.22,-61.72 748.32,-67.48 758.87,-68.52 757.22,-61.72"/>
</g>
<!-- Node5&#45;&gt;Node9 -->
<g id="edge8" class="edge">
<title>Node5&#45;&gt;Node9</title>
<path fill="none" stroke="midnightblue" d="M764.84,-71.3C835.36,-61.49 944.25,-45.97 1038.5,-31 1050.19,-29.14 1062.78,-27.03 1074.56,-25"/>
<polygon fill="midnightblue" stroke="midnightblue" points="764.14,-67.86 754.72,-72.71 765.1,-74.8 764.14,-67.86"/>
</g>
<!-- Node10 -->
<g id="node10" class="node">
<title>Node10</title>
<g id="a_node10"><a xlink:href="dense_8cpp.html" target="_top" xlink:title=" ">
<polygon fill="none" stroke="black" points="459,-0.5 459,-30.5 594,-30.5 594,-0.5 459,-0.5"/>
<text text-anchor="start" x="467" y="-18.5" font-family="Helvetica,sans-Serif" font-size="10.00">src/nmbuflowtorch/layer</text>
<text text-anchor="middle" x="526.5" y="-7.5" font-family="Helvetica,sans-Serif" font-size="10.00">/dense.cpp</text>
</a>
</g>
</g>
<!-- Node5&#45;&gt;Node10 -->
<g id="edge9" class="edge">
<title>Node5&#45;&gt;Node10</title>
<path fill="none" stroke="midnightblue" d="M645.54,-63.68C619.24,-53.26 586.5,-40.28 562.02,-30.58"/>
<polygon fill="midnightblue" stroke="midnightblue" points="644.33,-66.97 654.91,-67.4 646.91,-60.46 644.33,-66.97"/>
</g>
<!-- Node12 -->
<g id="node12" class="node">
<title>Node12</title>
<g id="a_node12"><a xlink:href="relu_8cpp.html" target="_top" xlink:title=" ">
<polygon fill="none" stroke="black" points="306,-0.5 306,-30.5 441,-30.5 441,-0.5 306,-0.5"/>
<text text-anchor="start" x="314" y="-18.5" font-family="Helvetica,sans-Serif" font-size="10.00">src/nmbuflowtorch/layer</text>
<text text-anchor="middle" x="373.5" y="-7.5" font-family="Helvetica,sans-Serif" font-size="10.00">/relu.cpp</text>
</a>
</g>
</g>
<!-- Node11&#45;&gt;Node12 -->
<g id="edge11" class="edge">
<title>Node11&#45;&gt;Node12</title>
<path fill="none" stroke="midnightblue" d="M468.63,-62.99C447.55,-52.69 421.72,-40.07 402.3,-30.58"/>
<polygon fill="midnightblue" stroke="midnightblue" points="467.12,-66.15 477.64,-67.4 470.19,-59.86 467.12,-66.15"/>
</g>
<!-- Node13&#45;&gt;Node6 -->
<g id="edge13" class="edge">
<title>Node13&#45;&gt;Node6</title>
<path fill="none" stroke="midnightblue" d="M819.61,-64.51C778.63,-51.83 724.34,-35.02 692.05,-25.03"/>
<polygon fill="midnightblue" stroke="midnightblue" points="818.6,-67.86 829.19,-67.48 820.67,-61.18 818.6,-67.86"/>
</g>
<!-- Node13&#45;&gt;Node7 -->
<g id="edge14" class="edge">
<title>Node13&#45;&gt;Node7</title>
<path fill="none" stroke="midnightblue" d="M948.73,-74.27C972.6,-71.95 999.17,-69.36 1023.5,-67 1188.39,-50.98 1231.89,-62.65 1394.5,-31 1402.25,-29.49 1410.53,-27.28 1418.04,-25.04"/>
<polygon fill="midnightblue" stroke="midnightblue" points="948.29,-70.8 938.67,-75.25 948.96,-77.77 948.29,-70.8"/>
</g>
<!-- Node13&#45;&gt;Node8 -->
<g id="edge15" class="edge">
<title>Node13&#45;&gt;Node8</title>
<path fill="none" stroke="midnightblue" d="M900.98,-61.01C916.58,-48.94 935.49,-34.3 947.26,-25.19"/>
<polygon fill="midnightblue" stroke="midnightblue" points="898.49,-58.51 892.73,-67.4 902.78,-64.04 898.49,-58.51"/>
</g>
<!-- Node13&#45;&gt;Node9 -->
<g id="edge16" class="edge">
<title>Node13&#45;&gt;Node9</title>
<path fill="none" stroke="midnightblue" d="M937.8,-64.91C986.37,-52.18 1051.43,-35.13 1089.96,-25.03"/>
<polygon fill="midnightblue" stroke="midnightblue" points="936.79,-61.55 928.01,-67.48 938.57,-68.33 936.79,-61.55"/>
</g>
<!-- Node14 -->
<g id="node14" class="node">
<title>Node14</title>
<g id="a_node14"><a xlink:href="sigmoid_8cpp.html" target="_top" xlink:title=" ">
<polygon fill="none" stroke="black" points="735,-0.5 735,-30.5 870,-30.5 870,-0.5 735,-0.5"/>
<text text-anchor="start" x="743" y="-18.5" font-family="Helvetica,sans-Serif" font-size="10.00">src/nmbuflowtorch/layer</text>
<text text-anchor="middle" x="802.5" y="-7.5" font-family="Helvetica,sans-Serif" font-size="10.00">/sigmoid.cpp</text>
</a>
</g>
</g>
<!-- Node13&#45;&gt;Node14 -->
<g id="edge17" class="edge">
<title>Node13&#45;&gt;Node14</title>
<path fill="none" stroke="midnightblue" d="M851.35,-60.6C840.48,-50.78 827.8,-39.34 818.09,-30.58"/>
<polygon fill="midnightblue" stroke="midnightblue" points="849.11,-63.29 858.88,-67.4 853.8,-58.1 849.11,-63.29"/>
</g>
<!-- Node16 -->
<g id="node16" class="node">
<title>Node16</title>
<g id="a_node16"><a xlink:href="softmax_8cpp.html" target="_top" xlink:title=" ">
<polygon fill="none" stroke="black" points="0,-0.5 0,-30.5 135,-30.5 135,-0.5 0,-0.5"/>
<text text-anchor="start" x="8" y="-18.5" font-family="Helvetica,sans-Serif" font-size="10.00">src/nmbuflowtorch/layer</text>
<text text-anchor="middle" x="67.5" y="-7.5" font-family="Helvetica,sans-Serif" font-size="10.00">/softmax.cpp</text>
</a>
</g>
</g>
<!-- Node15&#45;&gt;Node16 -->
<g id="edge19" class="edge">
<title>Node15&#45;&gt;Node16</title>
<path fill="none" stroke="midnightblue" d="M94.88,-58.87C88.8,-49.46 81.93,-38.83 76.6,-30.58"/>
<polygon fill="midnightblue" stroke="midnightblue" points="92.02,-60.9 100.39,-67.4 97.9,-57.1 92.02,-60.9"/>
</g>
<!-- Node17&#45;&gt;Node6 -->
<g id="edge21" class="edge">
<title>Node17&#45;&gt;Node6</title>
<path fill="none" stroke="midnightblue" d="M1021.88,-73.52C946.71,-64.97 827.58,-50.03 725.5,-31 716.51,-29.32 706.85,-27.19 697.93,-25.07"/>
<polygon fill="midnightblue" stroke="midnightblue" points="1021.85,-77.04 1032.18,-74.68 1022.64,-70.09 1021.85,-77.04"/>
</g>
<!-- Node17&#45;&gt;Node7 -->
<g id="edge22" class="edge">
<title>Node17&#45;&gt;Node7</title>
<path fill="none" stroke="midnightblue" d="M1170.52,-66.87C1270.91,-49.37 1298.83,-52.71 1394.5,-31 1401.85,-29.33 1409.73,-27.17 1416.96,-25.03"/>
<polygon fill="midnightblue" stroke="midnightblue" points="1169.81,-63.44 1160.57,-68.63 1171.03,-70.34 1169.81,-63.44"/>
</g>
<!-- Node17&#45;&gt;Node8 -->
<g id="edge23" class="edge">
<title>Node17&#45;&gt;Node8</title>
<path fill="none" stroke="midnightblue" d="M1057.5,-63.13C1030.94,-50.62 997.01,-34.64 976.56,-25.01"/>
<polygon fill="midnightblue" stroke="midnightblue" points="1056.02,-66.3 1066.56,-67.4 1059,-59.97 1056.02,-66.3"/>
</g>
<!-- Node17&#45;&gt;Node9 -->
<g id="edge24" class="edge">
<title>Node17&#45;&gt;Node9</title>
<path fill="none" stroke="midnightblue" d="M1105.92,-57.94C1110.48,-46.54 1115.68,-33.55 1119.02,-25.19"/>
<polygon fill="midnightblue" stroke="midnightblue" points="1102.61,-56.81 1102.14,-67.4 1109.11,-59.41 1102.61,-56.81"/>
</g>
<!-- Node18 -->
<g id="node18" class="node">
<title>Node18</title>
<g id="a_node18"><a xlink:href="network_8cpp.html" target="_top" xlink:title=" ">
<polygon fill="none" stroke="black" points="1215.5,-6 1215.5,-25 1385.5,-25 1385.5,-6 1215.5,-6"/>
<text text-anchor="middle" x="1300.5" y="-13" font-family="Helvetica,sans-Serif" font-size="10.00">src/nmbuflowtorch/network.cpp</text>
</a>
</g>
</g>
<!-- Node17&#45;&gt;Node18 -->
<g id="edge25" class="edge">
<title>Node17&#45;&gt;Node18</title>
<path fill="none" stroke="midnightblue" d="M1150.07,-64.43C1189.86,-51.75 1242.44,-35 1273.73,-25.03"/>
<polygon fill="midnightblue" stroke="midnightblue" points="1148.98,-61.11 1140.51,-67.48 1151.1,-67.77 1148.98,-61.11"/>
</g>
<!-- Node20 -->
<g id="node20" class="node">
<title>Node20</title>
<g id="a_node20"><a xlink:href="adam_8cpp.html" target="_top" xlink:title=" ">
<polygon fill="none" stroke="black" points="1401,-67.5 1401,-97.5 1558,-97.5 1558,-67.5 1401,-67.5"/>
<text text-anchor="start" x="1409" y="-85.5" font-family="Helvetica,sans-Serif" font-size="10.00">src/nmbuflowtorch/optimizer</text>
<text text-anchor="middle" x="1479.5" y="-74.5" font-family="Helvetica,sans-Serif" font-size="10.00">/adam.cpp</text>
</a>
</g>
</g>
<!-- Node19&#45;&gt;Node20 -->
<g id="edge32" class="edge">
<title>Node19&#45;&gt;Node20</title>
<path fill="none" stroke="midnightblue" d="M1475.1,-124.4C1476.07,-115.37 1477.14,-105.41 1477.98,-97.58"/>
<polygon fill="midnightblue" stroke="midnightblue" points="1471.61,-124.08 1474.02,-134.4 1478.57,-124.83 1471.61,-124.08"/>
</g>
<!-- Node21&#45;&gt;Node7 -->
<g id="edge34" class="edge">
<title>Node21&#45;&gt;Node7</title>
<path fill="none" stroke="midnightblue" d="M1737.37,-129.96C1768.74,-114.13 1802.08,-90.3 1781.5,-67 1738.66,-18.49 1555.85,-44.23 1492.5,-31 1484.94,-29.42 1476.87,-27.24 1469.49,-25.05"/>
<polygon fill="midnightblue" stroke="midnightblue" points="1735.66,-126.9 1728.19,-134.41 1738.71,-133.2 1735.66,-126.9"/>
</g>
<!-- Node22 -->
<g id="node22" class="node">
<title>Node22</title>
<g id="a_node22"><a xlink:href="nadam_8cpp.html" target="_top" xlink:title=" ">
<polygon fill="none" stroke="black" points="1615,-67.5 1615,-97.5 1772,-97.5 1772,-67.5 1615,-67.5"/>
<text text-anchor="start" x="1623" y="-85.5" font-family="Helvetica,sans-Serif" font-size="10.00">src/nmbuflowtorch/optimizer</text>
<text text-anchor="middle" x="1693.5" y="-74.5" font-family="Helvetica,sans-Serif" font-size="10.00">/nadam.cpp</text>
</a>
</g>
</g>
<!-- Node21&#45;&gt;Node22 -->
<g id="edge35" class="edge">
<title>Node21&#45;&gt;Node22</title>
<path fill="none" stroke="midnightblue" d="M1693.5,-124.11C1693.5,-115.15 1693.5,-105.32 1693.5,-97.58"/>
<polygon fill="midnightblue" stroke="midnightblue" points="1690,-124.4 1693.5,-134.4 1697,-124.4 1690,-124.4"/>
</g>
<!-- Node23&#45;&gt;Node6 -->
<g id="edge37" class="edge">
<title>Node23&#45;&gt;Node6</title>
<path fill="none" stroke="midnightblue" d="M1168.39,-66.96C971.64,-40.4 917.8,-61.47 725.5,-31 715.93,-29.48 705.64,-27.27 696.29,-25.03"/>
<polygon fill="midnightblue" stroke="midnightblue" points="1168.09,-70.46 1178.48,-68.35 1169.05,-63.52 1168.09,-70.46"/>
</g>
<!-- Node23&#45;&gt;Node7 -->
<g id="edge38" class="edge">
<title>Node23&#45;&gt;Node7</title>
<path fill="none" stroke="midnightblue" d="M1295.78,-64.27C1334.95,-51.6 1386.5,-34.93 1417.19,-25.01"/>
<polygon fill="midnightblue" stroke="midnightblue" points="1294.55,-60.99 1286.11,-67.4 1296.71,-67.65 1294.55,-60.99"/>
</g>
<!-- Node23&#45;&gt;Node8 -->
<g id="edge39" class="edge">
<title>Node23&#45;&gt;Node8</title>
<path fill="none" stroke="midnightblue" d="M1171.4,-65.23C1115.64,-52.47 1040.26,-35.21 995.76,-25.03"/>
<polygon fill="midnightblue" stroke="midnightblue" points="1170.7,-68.66 1181.23,-67.48 1172.26,-61.83 1170.7,-68.66"/>
</g>
<!-- Node23&#45;&gt;Node9 -->
<g id="edge40" class="edge">
<title>Node23&#45;&gt;Node9</title>
<path fill="none" stroke="midnightblue" d="M1207.37,-62.47C1184.46,-50.06 1155.68,-34.47 1138.21,-25.01"/>
<polygon fill="midnightblue" stroke="midnightblue" points="1206,-65.71 1216.46,-67.4 1209.34,-59.56 1206,-65.71"/>
</g>
<!-- Node24 -->
<g id="node24" class="node">
<title>Node24</title>
<g id="a_node24"><a xlink:href="sgd_8cpp.html" target="_top" xlink:title=" ">
<polygon fill="none" stroke="black" points="1501,-0.5 1501,-30.5 1658,-30.5 1658,-0.5 1501,-0.5"/>
<text text-anchor="start" x="1509" y="-18.5" font-family="Helvetica,sans-Serif" font-size="10.00">src/nmbuflowtorch/optimizer</text>
<text text-anchor="middle" x="1579.5" y="-7.5" font-family="Helvetica,sans-Serif" font-size="10.00">/sgd.cpp</text>
</a>
</g>
</g>
<!-- Node23&#45;&gt;Node24 -->
<g id="edge41" class="edge">
<title>Node23&#45;&gt;Node24</title>
<path fill="none" stroke="midnightblue" d="M1316.63,-67.2C1373.16,-56.3 1450.6,-41.36 1506.78,-30.53"/>
<polygon fill="midnightblue" stroke="midnightblue" points="1315.84,-63.79 1306.68,-69.12 1317.16,-70.66 1315.84,-63.79"/>
</g>
</g>
</svg>
