<?xml version="1.0" encoding="UTF-8" standalone="no"?>
<!DOCTYPE svg PUBLIC "-//W3C//DTD SVG 1.1//EN"
 "http://www.w3.org/Graphics/SVG/1.1/DTD/svg11.dtd">
<!-- Generated by graphviz version 2.43.0 (0)
 -->
<!-- Title: include/nmbuflowtorch/optimizer.hpp Pages: 1 -->
<svg width="1795pt" height="240pt"
 viewBox="0.00 0.00 1795.00 240.00" xmlns="http://www.w3.org/2000/svg" xmlns:xlink="http://www.w3.org/1999/xlink">
<g id="graph0" class="graph" transform="scale(1 1) rotate(0) translate(4 236)">
<title>include/nmbuflowtorch/optimizer.hpp</title>
<!-- Node1 -->
<g id="node1" class="node">
<title>Node1</title>
<g id="a_node1"><a xlink:title=" ">
<polygon fill="#bfbfbf" stroke="black" points="905,-201.5 905,-231.5 1033,-231.5 1033,-201.5 905,-201.5"/>
<text text-anchor="start" x="913" y="-219.5" font-family="Helvetica,sans-Serif" font-size="10.00">include/nmbuflowtorch</text>
<text text-anchor="middle" x="969" y="-208.5" font-family="Helvetica,sans-Serif" font-size="10.00">/optimizer.hpp</text>
</a>
</g>
</g>
<!-- Node2 -->
<g id="node2" class="node">
<title>Node2</title>
<g id="a_node2"><a xlink:href="layer_8hpp.html" target="_top" xlink:title=" ">
<polygon fill="none" stroke="black" points="721,-134.5 721,-164.5 849,-164.5 849,-134.5 721,-134.5"/>
<text text-anchor="start" x="729" y="-152.5" font-family="Helvetica,sans-Serif" font-size="10.00">include/nmbuflowtorch</text>
<text text-anchor="middle" x="785" y="-141.5" font-family="Helvetica,sans-Serif" font-size="10.00">/layer.hpp</text>
</a>
</g>
</g>
<!-- Node1&#45;&gt;Node2 -->
<g id="edge1" class="edge">
<title>Node1&#45;&gt;Node2</title>
<path fill="none" stroke="midnightblue" d="M919.33,-197.96C889.7,-187.48 852.56,-174.37 824.85,-164.58"/>
<polygon fill="midnightblue" stroke="midnightblue" points="918.48,-201.37 929.07,-201.4 920.81,-194.76 918.48,-201.37"/>
</g>
<!-- Node6 -->
<g id="node6" class="node">
<title>Node6</title>
<g id="a_node6"><a xlink:href="main_01copy_8cpp.html" target="_top" xlink:title=" ">
<polygon fill="none" stroke="black" points="340,-6 340,-25 444,-25 444,-6 340,-6"/>
<text text-anchor="middle" x="392" y="-13" font-family="Helvetica,sans-Serif" font-size="10.00">src/main copy.cpp</text>
</a>
</g>
</g>
<!-- Node1&#45;&gt;Node6 -->
<g id="edge41" class="edge">
<title>Node1&#45;&gt;Node6</title>
<path fill="none" stroke="midnightblue" d="M894.77,-215.33C766.04,-213.92 507.53,-205.92 428,-165 392.98,-146.98 383.76,-134.91 370,-98 360.38,-72.18 376.75,-40.33 386.13,-25.23"/>
<polygon fill="midnightblue" stroke="midnightblue" points="894.9,-218.83 904.94,-215.43 894.97,-211.83 894.9,-218.83"/>
</g>
<!-- Node7 -->
<g id="node7" class="node">
<title>Node7</title>
<g id="a_node7"><a xlink:href="main_8cpp.html" target="_top" xlink:title=" ">
<polygon fill="none" stroke="black" points="462.5,-6 462.5,-25 541.5,-25 541.5,-6 462.5,-6"/>
<text text-anchor="middle" x="502" y="-13" font-family="Helvetica,sans-Serif" font-size="10.00">src/main.cpp</text>
</a>
</g>
</g>
<!-- Node1&#45;&gt;Node7 -->
<g id="edge42" class="edge">
<title>Node1&#45;&gt;Node7</title>
<path fill="none" stroke="midnightblue" d="M894.78,-212.51C750.78,-204.93 442.26,-179.35 382,-98 373.8,-86.93 374.38,-78.48 382,-67 392.38,-51.37 439.75,-34.78 471.78,-25.04"/>
<polygon fill="midnightblue" stroke="midnightblue" points="894.7,-216.01 904.86,-213.03 895.05,-209.02 894.7,-216.01"/>
</g>
<!-- Node8 -->
<g id="node8" class="node">
<title>Node8</title>
<g id="a_node8"><a xlink:href="main__multithread_8cpp.html" target="_top" xlink:title=" ">
<polygon fill="none" stroke="black" points="864.5,-6 864.5,-25 1005.5,-25 1005.5,-6 864.5,-6"/>
<text text-anchor="middle" x="935" y="-13" font-family="Helvetica,sans-Serif" font-size="10.00">src/main_multithread.cpp</text>
</a>
</g>
</g>
<!-- Node1&#45;&gt;Node8 -->
<g id="edge43" class="edge">
<title>Node1&#45;&gt;Node8</title>
<path fill="none" stroke="midnightblue" d="M992.87,-194.53C1023.43,-165.07 1069.36,-110.17 1042,-67 1027.87,-44.71 1000.97,-32.07 977.67,-25.01"/>
<polygon fill="midnightblue" stroke="midnightblue" points="990.38,-192.06 985.48,-201.45 995.17,-197.17 990.38,-192.06"/>
</g>
<!-- Node9 -->
<g id="node9" class="node">
<title>Node9</title>
<g id="a_node9"><a xlink:href="main__single__thread_8cpp.html" target="_top" xlink:title=" ">
<polygon fill="none" stroke="black" points="1024,-6 1024,-25 1174,-25 1174,-6 1024,-6"/>
<text text-anchor="middle" x="1099" y="-13" font-family="Helvetica,sans-Serif" font-size="10.00">src/main_single_thread.cpp</text>
</a>
</g>
</g>
<!-- Node1&#45;&gt;Node9 -->
<g id="edge44" class="edge">
<title>Node1&#45;&gt;Node9</title>
<path fill="none" stroke="midnightblue" d="M1006.6,-196.19C1019.77,-187.99 1033.81,-177.42 1044,-165 1080.44,-120.58 1094.04,-49.71 1097.8,-25.19"/>
<polygon fill="midnightblue" stroke="midnightblue" points="1004.49,-193.37 997.67,-201.49 1008.06,-199.39 1004.49,-193.37"/>
</g>
<!-- Node17 -->
<g id="node17" class="node">
<title>Node17</title>
<g id="a_node17"><a xlink:href="network_8hpp.html" target="_top" xlink:title="Network class representing a sequence of layers. This class implements a network consisting of a sequ...">
<polygon fill="none" stroke="black" points="391,-67.5 391,-97.5 519,-97.5 519,-67.5 391,-67.5"/>
<text text-anchor="start" x="399" y="-85.5" font-family="Helvetica,sans-Serif" font-size="10.00">include/nmbuflowtorch</text>
<text text-anchor="middle" x="455" y="-74.5" font-family="Helvetica,sans-Serif" font-size="10.00">/network.hpp</text>
</a>
</g>
</g>
<!-- Node1&#45;&gt;Node17 -->
<g id="edge30" class="edge">
<title>Node1&#45;&gt;Node17</title>
<path fill="none" stroke="midnightblue" d="M894.85,-203.22C843.25,-194.12 773.02,-180.62 712,-165 634,-145.04 544.8,-115.11 494.66,-97.62"/>
<polygon fill="midnightblue" stroke="midnightblue" points="894.46,-206.71 904.92,-204.98 895.67,-199.81 894.46,-206.71"/>
</g>
<!-- Node19 -->
<g id="node19" class="node">
<title>Node19</title>
<g id="a_node19"><a xlink:href="adam_8hpp.html" target="_top" xlink:title=" ">
<polygon fill="none" stroke="black" points="1318,-134.5 1318,-164.5 1446,-164.5 1446,-134.5 1318,-134.5"/>
<text text-anchor="start" x="1326" y="-152.5" font-family="Helvetica,sans-Serif" font-size="10.00">include/nmbuflowtorch</text>
<text text-anchor="middle" x="1382" y="-141.5" font-family="Helvetica,sans-Serif" font-size="10.00">/optimizer/adam.hpp</text>
</a>
</g>
</g>
<!-- Node1&#45;&gt;Node19 -->
<g id="edge31" class="edge">
<title>Node1&#45;&gt;Node19</title>
<path fill="none" stroke="midnightblue" d="M1043.35,-203.8C1121.61,-191.48 1243.55,-172.29 1317.77,-160.61"/>
<polygon fill="midnightblue" stroke="midnightblue" points="1042.41,-200.4 1033.08,-205.42 1043.5,-207.32 1042.41,-200.4"/>
</g>
<!-- Node21 -->
<g id="node21" class="node">
<title>Node21</title>
<g id="a_node21"><a xlink:href="nadam_8hpp.html" target="_top" xlink:title=" ">
<polygon fill="none" stroke="black" points="1554,-134.5 1554,-164.5 1682,-164.5 1682,-134.5 1554,-134.5"/>
<text text-anchor="start" x="1562" y="-152.5" font-family="Helvetica,sans-Serif" font-size="10.00">include/nmbuflowtorch</text>
<text text-anchor="middle" x="1618" y="-141.5" font-family="Helvetica,sans-Serif" font-size="10.00">/optimizer/nadam.hpp</text>
</a>
</g>
</g>
<!-- Node1&#45;&gt;Node21 -->
<g id="edge33" class="edge">
<title>Node1&#45;&gt;Node21</title>
<path fill="none" stroke="midnightblue" d="M1043.14,-208.07C1171.51,-195.22 1433.03,-169.03 1554,-156.91"/>
<polygon fill="midnightblue" stroke="midnightblue" points="1042.61,-204.61 1033,-209.09 1043.3,-211.58 1042.61,-204.61"/>
</g>
<!-- Node23 -->
<g id="node23" class="node">
<title>Node23</title>
<g id="a_node23"><a xlink:href="sgd_8hpp.html" target="_top" xlink:title=" ">
<polygon fill="none" stroke="black" points="905,-67.5 905,-97.5 1033,-97.5 1033,-67.5 905,-67.5"/>
<text text-anchor="start" x="913" y="-85.5" font-family="Helvetica,sans-Serif" font-size="10.00">include/nmbuflowtorch</text>
<text text-anchor="middle" x="969" y="-74.5" font-family="Helvetica,sans-Serif" font-size="10.00">/optimizer/sgd.hpp</text>
</a>
</g>
</g>
<!-- Node1&#45;&gt;Node23 -->
<g id="edge35" class="edge">
<title>Node1&#45;&gt;Node23</title>
<path fill="none" stroke="midnightblue" d="M969,-191.02C969,-163.51 969,-119.79 969,-97.52"/>
<polygon fill="midnightblue" stroke="midnightblue" points="965.5,-191.37 969,-201.37 972.5,-191.37 965.5,-191.37"/>
</g>
<!-- Node3 -->
<g id="node3" class="node">
<title>Node3</title>
<g id="a_node3"><a xlink:href="conv_8hpp.html" target="_top" xlink:title=" ">
<polygon fill="none" stroke="black" points="67,-67.5 67,-97.5 195,-97.5 195,-67.5 67,-67.5"/>
<text text-anchor="start" x="75" y="-85.5" font-family="Helvetica,sans-Serif" font-size="10.00">include/nmbuflowtorch</text>
<text text-anchor="middle" x="131" y="-74.5" font-family="Helvetica,sans-Serif" font-size="10.00">/layer/conv.hpp</text>
</a>
</g>
</g>
<!-- Node2&#45;&gt;Node3 -->
<g id="edge2" class="edge">
<title>Node2&#45;&gt;Node3</title>
<path fill="none" stroke="midnightblue" d="M710.59,-141.1C581.19,-128.24 316.89,-101.98 195.09,-89.87"/>
<polygon fill="midnightblue" stroke="midnightblue" points="710.5,-144.61 720.8,-142.12 711.2,-137.65 710.5,-144.61"/>
</g>
<!-- Node5 -->
<g id="node5" class="node">
<title>Node5</title>
<g id="a_node5"><a xlink:href="dense_8hpp.html" target="_top" xlink:title=" ">
<polygon fill="none" stroke="black" points="721,-67.5 721,-97.5 849,-97.5 849,-67.5 721,-67.5"/>
<text text-anchor="start" x="729" y="-85.5" font-family="Helvetica,sans-Serif" font-size="10.00">include/nmbuflowtorch</text>
<text text-anchor="middle" x="785" y="-74.5" font-family="Helvetica,sans-Serif" font-size="10.00">/layer/dense.hpp</text>
</a>
</g>
</g>
<!-- Node2&#45;&gt;Node5 -->
<g id="edge4" class="edge">
<title>Node2&#45;&gt;Node5</title>
<path fill="none" stroke="midnightblue" d="M785,-124.11C785,-115.15 785,-105.32 785,-97.58"/>
<polygon fill="midnightblue" stroke="midnightblue" points="781.5,-124.4 785,-134.4 788.5,-124.4 781.5,-124.4"/>
</g>
<!-- Node2&#45;&gt;Node6 -->
<g id="edge26" class="edge">
<title>Node2&#45;&gt;Node6</title>
<path fill="none" stroke="midnightblue" d="M710.65,-144.43C600.18,-137.61 403.35,-122.19 382,-98 363.89,-77.48 378.57,-41.9 387.04,-25.39"/>
<polygon fill="midnightblue" stroke="midnightblue" points="710.54,-147.93 720.74,-145.04 710.97,-140.94 710.54,-147.93"/>
</g>
<!-- Node2&#45;&gt;Node7 -->
<g id="edge27" class="edge">
<title>Node2&#45;&gt;Node7</title>
<path fill="none" stroke="midnightblue" d="M710.77,-143.81C665.96,-138.09 609.33,-125.52 566,-98 536.54,-79.29 514.98,-42.13 506.26,-25.23"/>
<polygon fill="midnightblue" stroke="midnightblue" points="710.39,-147.29 720.73,-144.99 711.21,-140.34 710.39,-147.29"/>
</g>
<!-- Node2&#45;&gt;Node8 -->
<g id="edge28" class="edge">
<title>Node2&#45;&gt;Node8</title>
<path fill="none" stroke="midnightblue" d="M816.33,-128.91C829.65,-120.07 845.05,-109.12 858,-98 886.06,-73.91 914.88,-40.68 927.88,-25.15"/>
<polygon fill="midnightblue" stroke="midnightblue" points="814.39,-126 807.93,-134.4 818.22,-131.86 814.39,-126"/>
</g>
<!-- Node2&#45;&gt;Node9 -->
<g id="edge29" class="edge">
<title>Node2&#45;&gt;Node9</title>
<path fill="none" stroke="midnightblue" d="M859.41,-140.13C924.26,-131.72 1012.43,-117.26 1042,-98 1070.21,-79.63 1088.52,-41.96 1095.64,-25.05"/>
<polygon fill="midnightblue" stroke="midnightblue" points="858.69,-136.7 849.21,-141.43 859.57,-143.64 858.69,-136.7"/>
</g>
<!-- Node11 -->
<g id="node11" class="node">
<title>Node11</title>
<g id="a_node11"><a xlink:href="relu_8hpp.html" target="_top" xlink:title=" ">
<polygon fill="none" stroke="black" points="1165,-67.5 1165,-97.5 1293,-97.5 1293,-67.5 1165,-67.5"/>
<text text-anchor="start" x="1173" y="-85.5" font-family="Helvetica,sans-Serif" font-size="10.00">include/nmbuflowtorch</text>
<text text-anchor="middle" x="1229" y="-74.5" font-family="Helvetica,sans-Serif" font-size="10.00">/layer/relu.hpp</text>
</a>
</g>
</g>
<!-- Node2&#45;&gt;Node11 -->
<g id="edge10" class="edge">
<title>Node2&#45;&gt;Node11</title>
<path fill="none" stroke="midnightblue" d="M858.99,-137.67C944.51,-125.15 1083.86,-104.75 1164.93,-92.88"/>
<polygon fill="midnightblue" stroke="midnightblue" points="858.47,-134.21 849.09,-139.12 859.49,-141.13 858.47,-134.21"/>
</g>
<!-- Node13 -->
<g id="node13" class="node">
<title>Node13</title>
<g id="a_node13"><a xlink:href="sigmoid_8hpp.html" target="_top" xlink:title=" ">
<polygon fill="none" stroke="black" points="575,-67.5 575,-97.5 703,-97.5 703,-67.5 575,-67.5"/>
<text text-anchor="start" x="583" y="-85.5" font-family="Helvetica,sans-Serif" font-size="10.00">include/nmbuflowtorch</text>
<text text-anchor="middle" x="639" y="-74.5" font-family="Helvetica,sans-Serif" font-size="10.00">/layer/sigmoid.hpp</text>
</a>
</g>
</g>
<!-- Node2&#45;&gt;Node13 -->
<g id="edge12" class="edge">
<title>Node2&#45;&gt;Node13</title>
<path fill="none" stroke="midnightblue" d="M744.05,-130.27C720.8,-119.92 692.13,-107.15 670.62,-97.58"/>
<polygon fill="midnightblue" stroke="midnightblue" points="742.76,-133.53 753.32,-134.4 745.61,-127.13 742.76,-133.53"/>
</g>
<!-- Node15 -->
<g id="node15" class="node">
<title>Node15</title>
<g id="a_node15"><a xlink:href="softmax_8hpp.html" target="_top" xlink:title=" ">
<polygon fill="none" stroke="black" points="1311,-67.5 1311,-97.5 1439,-97.5 1439,-67.5 1311,-67.5"/>
<text text-anchor="start" x="1319" y="-85.5" font-family="Helvetica,sans-Serif" font-size="10.00">include/nmbuflowtorch</text>
<text text-anchor="middle" x="1375" y="-74.5" font-family="Helvetica,sans-Serif" font-size="10.00">/layer/softmax.hpp</text>
</a>
</g>
</g>
<!-- Node2&#45;&gt;Node15 -->
<g id="edge18" class="edge">
<title>Node2&#45;&gt;Node15</title>
<path fill="none" stroke="midnightblue" d="M859.4,-143.55C960.1,-136.32 1145.24,-121.17 1302,-98 1304.94,-97.57 1307.94,-97.09 1310.97,-96.59"/>
<polygon fill="midnightblue" stroke="midnightblue" points="859.05,-140.07 849.32,-144.27 859.55,-147.05 859.05,-140.07"/>
</g>
<!-- Node2&#45;&gt;Node17 -->
<g id="edge20" class="edge">
<title>Node2&#45;&gt;Node17</title>
<path fill="none" stroke="midnightblue" d="M710.84,-133.89C653.19,-122.54 574.05,-106.95 519.12,-96.13"/>
<polygon fill="midnightblue" stroke="midnightblue" points="710.49,-137.39 720.98,-135.89 711.85,-130.52 710.49,-137.39"/>
</g>
<!-- Node4 -->
<g id="node4" class="node">
<title>Node4</title>
<g id="a_node4"><a xlink:href="conv_8cpp.html" target="_top" xlink:title=" ">
<polygon fill="none" stroke="black" points="0,-0.5 0,-30.5 134,-30.5 134,-0.5 0,-0.5"/>
<text text-anchor="start" x="8" y="-18.5" font-family="Helvetica,sans-Serif" font-size="10.00">src/nmbuflowtorch/layer</text>
<text text-anchor="middle" x="67" y="-7.5" font-family="Helvetica,sans-Serif" font-size="10.00">/conv.cpp</text>
</a>
</g>
</g>
<!-- Node3&#45;&gt;Node4 -->
<g id="edge3" class="edge">
<title>Node3&#45;&gt;Node4</title>
<path fill="none" stroke="midnightblue" d="M109.85,-60.02C100.32,-50.34 89.33,-39.17 80.86,-30.58"/>
<polygon fill="midnightblue" stroke="midnightblue" points="107.6,-62.73 117.11,-67.4 112.59,-57.81 107.6,-62.73"/>
</g>
<!-- Node5&#45;&gt;Node6 -->
<g id="edge5" class="edge">
<title>Node5&#45;&gt;Node6</title>
<path fill="none" stroke="midnightblue" d="M711.02,-66.9C595.69,-47.91 564.1,-51.88 453,-31 444.01,-29.31 434.36,-27.17 425.44,-25.05"/>
<polygon fill="midnightblue" stroke="midnightblue" points="710.5,-70.36 720.94,-68.56 711.66,-63.46 710.5,-70.36"/>
</g>
<!-- Node5&#45;&gt;Node7 -->
<g id="edge6" class="edge">
<title>Node5&#45;&gt;Node7</title>
<path fill="none" stroke="midnightblue" d="M710.96,-66.15C654.22,-54.27 580.77,-38.61 551,-31 544.04,-29.22 536.58,-27.12 529.63,-25.07"/>
<polygon fill="midnightblue" stroke="midnightblue" points="710.48,-69.63 720.99,-68.25 711.91,-62.78 710.48,-69.63"/>
</g>
<!-- Node5&#45;&gt;Node8 -->
<g id="edge7" class="edge">
<title>Node5&#45;&gt;Node8</title>
<path fill="none" stroke="midnightblue" d="M827.01,-63.3C855.94,-50.76 893.04,-34.68 915.37,-25.01"/>
<polygon fill="midnightblue" stroke="midnightblue" points="825.33,-60.21 817.55,-67.4 828.11,-66.63 825.33,-60.21"/>
</g>
<!-- Node5&#45;&gt;Node9 -->
<g id="edge8" class="edge">
<title>Node5&#45;&gt;Node9</title>
<path fill="none" stroke="midnightblue" d="M859.42,-66.09C921.43,-53.26 1007.46,-35.45 1057.77,-25.03"/>
<polygon fill="midnightblue" stroke="midnightblue" points="858.38,-62.73 849.3,-68.19 859.8,-69.59 858.38,-62.73"/>
</g>
<!-- Node10 -->
<g id="node10" class="node">
<title>Node10</title>
<g id="a_node10"><a xlink:href="dense_8cpp.html" target="_top" xlink:title=" ">
<polygon fill="none" stroke="black" points="712,-0.5 712,-30.5 846,-30.5 846,-0.5 712,-0.5"/>
<text text-anchor="start" x="720" y="-18.5" font-family="Helvetica,sans-Serif" font-size="10.00">src/nmbuflowtorch/layer</text>
<text text-anchor="middle" x="779" y="-7.5" font-family="Helvetica,sans-Serif" font-size="10.00">/dense.cpp</text>
</a>
</g>
</g>
<!-- Node5&#45;&gt;Node10 -->
<g id="edge9" class="edge">
<title>Node5&#45;&gt;Node10</title>
<path fill="none" stroke="midnightblue" d="M782.78,-57.4C781.94,-48.37 781.02,-38.41 780.3,-30.58"/>
<polygon fill="midnightblue" stroke="midnightblue" points="779.29,-57.76 783.7,-67.4 786.26,-57.12 779.29,-57.76"/>
</g>
<!-- Node12 -->
<g id="node12" class="node">
<title>Node12</title>
<g id="a_node12"><a xlink:href="relu_8cpp.html" target="_top" xlink:title=" ">
<polygon fill="none" stroke="black" points="1366,-0.5 1366,-30.5 1500,-30.5 1500,-0.5 1366,-0.5"/>
<text text-anchor="start" x="1374" y="-18.5" font-family="Helvetica,sans-Serif" font-size="10.00">src/nmbuflowtorch/layer</text>
<text text-anchor="middle" x="1433" y="-7.5" font-family="Helvetica,sans-Serif" font-size="10.00">/relu.cpp</text>
</a>
</g>
</g>
<!-- Node11&#45;&gt;Node12 -->
<g id="edge11" class="edge">
<title>Node11&#45;&gt;Node12</title>
<path fill="none" stroke="midnightblue" d="M1282.96,-64.31C1315.96,-53.79 1357.66,-40.51 1388.71,-30.61"/>
<polygon fill="midnightblue" stroke="midnightblue" points="1281.48,-61.11 1273.01,-67.48 1283.6,-67.77 1281.48,-61.11"/>
</g>
<!-- Node13&#45;&gt;Node6 -->
<g id="edge13" class="edge">
<title>Node13&#45;&gt;Node6</title>
<path fill="none" stroke="midnightblue" d="M575.96,-64.91C527.59,-52.18 462.78,-35.13 424.41,-25.03"/>
<polygon fill="midnightblue" stroke="midnightblue" points="575.15,-68.32 585.71,-67.48 576.93,-61.55 575.15,-68.32"/>
</g>
<!-- Node13&#45;&gt;Node7 -->
<g id="edge14" class="edge">
<title>Node13&#45;&gt;Node7</title>
<path fill="none" stroke="midnightblue" d="M599.94,-62.97C573.62,-50.48 540.14,-34.6 519.93,-25.01"/>
<polygon fill="midnightblue" stroke="midnightblue" points="598.74,-66.27 609.27,-67.4 601.74,-59.95 598.74,-66.27"/>
</g>
<!-- Node13&#45;&gt;Node8 -->
<g id="edge15" class="edge">
<title>Node13&#45;&gt;Node8</title>
<path fill="none" stroke="midnightblue" d="M712.74,-65.31C770.89,-52.54 849.69,-35.23 896.16,-25.03"/>
<polygon fill="midnightblue" stroke="midnightblue" points="711.88,-61.91 702.86,-67.48 713.38,-68.75 711.88,-61.91"/>
</g>
<!-- Node13&#45;&gt;Node9 -->
<g id="edge16" class="edge">
<title>Node13&#45;&gt;Node9</title>
<path fill="none" stroke="midnightblue" d="M713.29,-66.87C847.26,-46.02 883.49,-49.9 1014,-31 1026.15,-29.24 1039.24,-27.12 1051.41,-25.05"/>
<polygon fill="midnightblue" stroke="midnightblue" points="712.38,-63.48 703.04,-68.49 713.47,-70.39 712.38,-63.48"/>
</g>
<!-- Node14 -->
<g id="node14" class="node">
<title>Node14</title>
<g id="a_node14"><a xlink:href="sigmoid_8cpp.html" target="_top" xlink:title=" ">
<polygon fill="none" stroke="black" points="560,-0.5 560,-30.5 694,-30.5 694,-0.5 560,-0.5"/>
<text text-anchor="start" x="568" y="-18.5" font-family="Helvetica,sans-Serif" font-size="10.00">src/nmbuflowtorch/layer</text>
<text text-anchor="middle" x="627" y="-7.5" font-family="Helvetica,sans-Serif" font-size="10.00">/sigmoid.cpp</text>
</a>
</g>
</g>
<!-- Node13&#45;&gt;Node14 -->
<g id="edge17" class="edge">
<title>Node13&#45;&gt;Node14</title>
<path fill="none" stroke="midnightblue" d="M634.55,-57.4C632.88,-48.37 631.04,-38.41 629.6,-30.58"/>
<polygon fill="midnightblue" stroke="midnightblue" points="631.14,-58.2 636.4,-67.4 638.02,-56.93 631.14,-58.2"/>
</g>
<!-- Node16 -->
<g id="node16" class="node">
<title>Node16</title>
<g id="a_node16"><a xlink:href="softmax_8cpp.html" target="_top" xlink:title=" ">
<polygon fill="none" stroke="black" points="1518,-0.5 1518,-30.5 1652,-30.5 1652,-0.5 1518,-0.5"/>
<text text-anchor="start" x="1526" y="-18.5" font-family="Helvetica,sans-Serif" font-size="10.00">src/nmbuflowtorch/layer</text>
<text text-anchor="middle" x="1585" y="-7.5" font-family="Helvetica,sans-Serif" font-size="10.00">/softmax.cpp</text>
</a>
</g>
</g>
<!-- Node15&#45;&gt;Node16 -->
<g id="edge19" class="edge">
<title>Node15&#45;&gt;Node16</title>
<path fill="none" stroke="midnightblue" d="M1430.1,-64.44C1464.14,-53.91 1507.3,-40.55 1539.41,-30.61"/>
<polygon fill="midnightblue" stroke="midnightblue" points="1428.83,-61.18 1420.31,-67.48 1430.9,-67.86 1428.83,-61.18"/>
</g>
<!-- Node17&#45;&gt;Node6 -->
<g id="edge21" class="edge">
<title>Node17&#45;&gt;Node6</title>
<path fill="none" stroke="midnightblue" d="M434.16,-60C422.66,-48.13 409.01,-34.05 400.43,-25.19"/>
<polygon fill="midnightblue" stroke="midnightblue" points="431.86,-62.65 441.33,-67.4 436.88,-57.78 431.86,-62.65"/>
</g>
<!-- Node17&#45;&gt;Node7 -->
<g id="edge22" class="edge">
<title>Node17&#45;&gt;Node7</title>
<path fill="none" stroke="midnightblue" d="M471.29,-58.97C479.71,-47.33 489.49,-33.8 495.71,-25.19"/>
<polygon fill="midnightblue" stroke="midnightblue" points="468.22,-57.24 465.2,-67.4 473.89,-61.34 468.22,-57.24"/>
</g>
<!-- Node17&#45;&gt;Node8 -->
<g id="edge23" class="edge">
<title>Node17&#45;&gt;Node8</title>
<path fill="none" stroke="midnightblue" d="M529.43,-71.71C541.65,-70.13 554.18,-68.51 566,-67 694.4,-50.62 727.05,-50.55 855,-31 866.44,-29.25 878.76,-27.14 890.22,-25.07"/>
<polygon fill="midnightblue" stroke="midnightblue" points="528.73,-68.28 519.26,-73.04 529.63,-75.22 528.73,-68.28"/>
</g>
<!-- Node17&#45;&gt;Node9 -->
<g id="edge24" class="edge">
<title>Node17&#45;&gt;Node9</title>
<path fill="none" stroke="midnightblue" d="M529.38,-71.27C541.6,-69.73 554.15,-68.25 566,-67 764.65,-46.06 815.79,-55.82 1014,-31 1026.77,-29.4 1040.56,-27.24 1053.23,-25.07"/>
<polygon fill="midnightblue" stroke="midnightblue" points="528.69,-67.83 519.21,-72.56 529.57,-74.77 528.69,-67.83"/>
</g>
<!-- Node18 -->
<g id="node18" class="node">
<title>Node18</title>
<g id="a_node18"><a xlink:href="network_8cpp.html" target="_top" xlink:title=" ">
<polygon fill="none" stroke="black" points="152,-6 152,-25 322,-25 322,-6 152,-6"/>
<text text-anchor="middle" x="237" y="-13" font-family="Helvetica,sans-Serif" font-size="10.00">src/nmbuflowtorch/network.cpp</text>
</a>
</g>
</g>
<!-- Node17&#45;&gt;Node18 -->
<g id="edge25" class="edge">
<title>Node17&#45;&gt;Node18</title>
<path fill="none" stroke="midnightblue" d="M398.29,-64.59C355.71,-51.9 299.19,-35.04 265.6,-25.03"/>
<polygon fill="midnightblue" stroke="midnightblue" points="397.38,-67.97 407.97,-67.48 399.38,-61.26 397.38,-67.97"/>
</g>
<!-- Node20 -->
<g id="node20" class="node">
<title>Node20</title>
<g id="a_node20"><a xlink:href="adam_8cpp.html" target="_top" xlink:title=" ">
<polygon fill="none" stroke="black" points="1457,-67.5 1457,-97.5 1613,-97.5 1613,-67.5 1457,-67.5"/>
<text text-anchor="start" x="1465" y="-85.5" font-family="Helvetica,sans-Serif" font-size="10.00">src/nmbuflowtorch/optimizer</text>
<text text-anchor="middle" x="1535" y="-74.5" font-family="Helvetica,sans-Serif" font-size="10.00">/adam.cpp</text>
</a>
</g>
</g>
<!-- Node19&#45;&gt;Node20 -->
<g id="edge32" class="edge">
<title>Node19&#45;&gt;Node20</title>
<path fill="none" stroke="midnightblue" d="M1424.59,-130.41C1449.02,-120.03 1479.22,-107.2 1501.87,-97.58"/>
<polygon fill="midnightblue" stroke="midnightblue" points="1423.03,-127.26 1415.2,-134.4 1425.77,-133.71 1423.03,-127.26"/>
</g>
<!-- Node22 -->
<g id="node22" class="node">
<title>Node22</title>
<g id="a_node22"><a xlink:href="nadam_8cpp.html" target="_top" xlink:title=" ">
<polygon fill="none" stroke="black" points="1631,-67.5 1631,-97.5 1787,-97.5 1787,-67.5 1631,-67.5"/>
<text text-anchor="start" x="1639" y="-85.5" font-family="Helvetica,sans-Serif" font-size="10.00">src/nmbuflowtorch/optimizer</text>
<text text-anchor="middle" x="1709" y="-74.5" font-family="Helvetica,sans-Serif" font-size="10.00">/nadam.cpp</text>
</a>
</g>
</g>
<!-- Node21&#45;&gt;Node22 -->
<g id="edge34" class="edge">
<title>Node21&#45;&gt;Node22</title>
<path fill="none" stroke="midnightblue" d="M1646.07,-128.45C1660.07,-118.45 1676.66,-106.6 1689.29,-97.58"/>
<polygon fill="midnightblue" stroke="midnightblue" points="1643.85,-125.74 1637.75,-134.4 1647.92,-131.43 1643.85,-125.74"/>
</g>
<!-- Node23&#45;&gt;Node6 -->
<g id="edge36" class="edge">
<title>Node23&#45;&gt;Node6</title>
<path fill="none" stroke="midnightblue" d="M894.61,-71.35C882.39,-69.81 869.85,-68.3 858,-67 678.37,-47.29 631.37,-59.97 453,-31 443.54,-29.46 433.38,-27.27 424.12,-25.05"/>
<polygon fill="midnightblue" stroke="midnightblue" points="894.42,-74.86 904.78,-72.65 895.31,-67.91 894.42,-74.86"/>
</g>
<!-- Node23&#45;&gt;Node7 -->
<g id="edge37" class="edge">
<title>Node23&#45;&gt;Node7</title>
<path fill="none" stroke="midnightblue" d="M894.58,-71.64C882.36,-70.06 869.83,-68.47 858,-67 721.66,-50.1 685.58,-58.59 551,-31 543.35,-29.43 535.17,-27.23 527.73,-25.01"/>
<polygon fill="midnightblue" stroke="midnightblue" points="894.38,-75.14 904.75,-72.96 895.28,-68.2 894.38,-75.14"/>
</g>
<!-- Node23&#45;&gt;Node8 -->
<g id="edge38" class="edge">
<title>Node23&#45;&gt;Node8</title>
<path fill="none" stroke="midnightblue" d="M956.86,-58.29C950.85,-46.8 943.96,-33.63 939.55,-25.19"/>
<polygon fill="midnightblue" stroke="midnightblue" points="953.89,-60.16 961.62,-67.4 960.09,-56.91 953.89,-60.16"/>
</g>
<!-- Node23&#45;&gt;Node9 -->
<g id="edge39" class="edge">
<title>Node23&#45;&gt;Node9</title>
<path fill="none" stroke="midnightblue" d="M1006.39,-62.8C1031.32,-50.34 1062.89,-34.56 1081.99,-25.01"/>
<polygon fill="midnightblue" stroke="midnightblue" points="1004.59,-59.79 997.21,-67.4 1007.72,-66.05 1004.59,-59.79"/>
</g>
<!-- Node24 -->
<g id="node24" class="node">
<title>Node24</title>
<g id="a_node24"><a xlink:href="sgd_8cpp.html" target="_top" xlink:title=" ">
<polygon fill="none" stroke="black" points="1192,-0.5 1192,-30.5 1348,-30.5 1348,-0.5 1192,-0.5"/>
<text text-anchor="start" x="1200" y="-18.5" font-family="Helvetica,sans-Serif" font-size="10.00">src/nmbuflowtorch/optimizer</text>
<text text-anchor="middle" x="1270" y="-7.5" font-family="Helvetica,sans-Serif" font-size="10.00">/sgd.cpp</text>
</a>
</g>
</g>
<!-- Node23&#45;&gt;Node24 -->
<g id="edge40" class="edge">
<title>Node23&#45;&gt;Node24</title>
<path fill="none" stroke="midnightblue" d="M1043.24,-65.47C1092.87,-54.75 1157.55,-40.78 1205.12,-30.51"/>
<polygon fill="midnightblue" stroke="midnightblue" points="1042.24,-62.1 1033.2,-67.64 1043.72,-68.95 1042.24,-62.1"/>
</g>
</g>
</svg>
