<?xml version="1.0" encoding="UTF-8" standalone="no"?>
<!DOCTYPE svg PUBLIC "-//W3C//DTD SVG 1.1//EN"
 "http://www.w3.org/Graphics/SVG/1.1/DTD/svg11.dtd">
<!-- Generated by graphviz version 2.43.0 (0)
 -->
<!-- Title: src/main.cpp Pages: 1 -->
<svg width="1465pt" height="330pt"
 viewBox="0.00 0.00 1465.00 330.00" xmlns="http://www.w3.org/2000/svg" xmlns:xlink="http://www.w3.org/1999/xlink">
<g id="graph0" class="graph" transform="scale(1 1) rotate(0) translate(4 326)">
<title>src/main.cpp</title>
<!-- Node1 -->
<g id="node1" class="node">
<title>Node1</title>
<g id="a_node1"><a xlink:title=" ">
<polygon fill="#bfbfbf" stroke="black" points="757,-302.5 757,-321.5 836,-321.5 836,-302.5 757,-302.5"/>
<text text-anchor="middle" x="796.5" y="-309.5" font-family="Helvetica,sans-Serif" font-size="10.00">src/main.cpp</text>
</a>
</g>
</g>
<!-- Node2 -->
<g id="node2" class="node">
<title>Node2</title>
<g id="a_node2"><a xlink:title=" ">
<polygon fill="none" stroke="#bfbfbf" points="0,-241 0,-260 47,-260 47,-241 0,-241"/>
<text text-anchor="middle" x="23.5" y="-248" font-family="Helvetica,sans-Serif" font-size="10.00">omp.h</text>
</a>
</g>
</g>
<!-- Node1&#45;&gt;Node2 -->
<g id="edge1" class="edge">
<title>Node1&#45;&gt;Node2</title>
<path fill="none" stroke="midnightblue" d="M756.78,-310.15C623.94,-307.07 195.99,-295.06 61.5,-266 58.42,-265.34 55.27,-264.46 52.15,-263.47"/>
<polygon fill="midnightblue" stroke="midnightblue" points="53.08,-260.09 42.49,-260.04 50.74,-266.69 53.08,-260.09"/>
</g>
<!-- Node3 -->
<g id="node3" class="node">
<title>Node3</title>
<g id="a_node3"><a xlink:title=" ">
<polygon fill="none" stroke="#bfbfbf" points="322,-0.5 322,-19.5 369,-19.5 369,-0.5 322,-0.5"/>
<text text-anchor="middle" x="345.5" y="-7.5" font-family="Helvetica,sans-Serif" font-size="10.00">cmath</text>
</a>
</g>
</g>
<!-- Node1&#45;&gt;Node3 -->
<g id="edge2" class="edge">
<title>Node1&#45;&gt;Node3</title>
<path fill="none" stroke="midnightblue" d="M756.82,-310.12C643.03,-307.25 317.25,-296.53 215.5,-266 146.54,-245.31 75.5,-256.5 75.5,-184.5 75.5,-184.5 75.5,-184.5 75.5,-121 75.5,-70.59 238.98,-32.03 311.53,-17.4"/>
<polygon fill="midnightblue" stroke="midnightblue" points="312.41,-20.79 321.54,-15.41 311.05,-13.92 312.41,-20.79"/>
</g>
<!-- Node4 -->
<g id="node4" class="node">
<title>Node4</title>
<g id="a_node4"><a xlink:title=" ">
<polygon fill="none" stroke="#bfbfbf" points="1248.5,-241 1248.5,-260 1304.5,-260 1304.5,-241 1248.5,-241"/>
<text text-anchor="middle" x="1276.5" y="-248" font-family="Helvetica,sans-Serif" font-size="10.00">iomanip</text>
</a>
</g>
</g>
<!-- Node1&#45;&gt;Node4 -->
<g id="edge3" class="edge">
<title>Node1&#45;&gt;Node4</title>
<path fill="none" stroke="midnightblue" d="M836.25,-309.97C913.74,-307.29 1090.07,-297.9 1234.5,-266 1237.92,-265.25 1241.44,-264.3 1244.93,-263.26"/>
<polygon fill="midnightblue" stroke="midnightblue" points="1246.11,-266.56 1254.54,-260.15 1243.95,-259.9 1246.11,-266.56"/>
</g>
<!-- Node5 -->
<g id="node5" class="node">
<title>Node5</title>
<g id="a_node5"><a xlink:title=" ">
<polygon fill="none" stroke="#bfbfbf" points="1115.5,-0.5 1115.5,-19.5 1175.5,-19.5 1175.5,-0.5 1115.5,-0.5"/>
<text text-anchor="middle" x="1145.5" y="-7.5" font-family="Helvetica,sans-Serif" font-size="10.00">iostream</text>
</a>
</g>
</g>
<!-- Node1&#45;&gt;Node5 -->
<g id="edge4" class="edge">
<title>Node1&#45;&gt;Node5</title>
<path fill="none" stroke="midnightblue" d="M836.17,-311.37C924.12,-311.41 1131.98,-307.04 1186.5,-266 1217.86,-242.4 1220.5,-223.75 1220.5,-184.5 1220.5,-184.5 1220.5,-184.5 1220.5,-121 1220.5,-81.44 1186.98,-45.62 1164.76,-26.21"/>
<polygon fill="midnightblue" stroke="midnightblue" points="1166.8,-23.35 1156.89,-19.6 1162.3,-28.71 1166.8,-23.35"/>
</g>
<!-- Node6 -->
<g id="node6" class="node">
<title>Node6</title>
<g id="a_node6"><a xlink:title=" ">
<polygon fill="none" stroke="#bfbfbf" points="1323,-241 1323,-260 1380,-260 1380,-241 1323,-241"/>
<text text-anchor="middle" x="1351.5" y="-248" font-family="Helvetica,sans-Serif" font-size="10.00">ostream</text>
</a>
</g>
</g>
<!-- Node1&#45;&gt;Node6 -->
<g id="edge5" class="edge">
<title>Node1&#45;&gt;Node6</title>
<path fill="none" stroke="midnightblue" d="M836.32,-311.27C923.82,-311.04 1138.97,-306.07 1313.5,-266 1316.5,-265.31 1319.58,-264.44 1322.63,-263.46"/>
<polygon fill="midnightblue" stroke="midnightblue" points="1323.85,-266.74 1332.1,-260.09 1321.51,-260.14 1323.85,-266.74"/>
</g>
<!-- Node7 -->
<g id="node7" class="node">
<title>Node7</title>
<g id="a_node7"><a xlink:title=" ">
<polygon fill="none" stroke="#bfbfbf" points="975,-0.5 975,-19.5 1022,-19.5 1022,-0.5 975,-0.5"/>
<text text-anchor="middle" x="998.5" y="-7.5" font-family="Helvetica,sans-Serif" font-size="10.00">vector</text>
</a>
</g>
</g>
<!-- Node1&#45;&gt;Node7 -->
<g id="edge6" class="edge">
<title>Node1&#45;&gt;Node7</title>
<path fill="none" stroke="midnightblue" d="M836.23,-311.65C921.07,-312.19 1116.04,-308.63 1163.5,-266 1191.17,-241.14 1182.5,-221.69 1182.5,-184.5 1182.5,-184.5 1182.5,-184.5 1182.5,-121 1182.5,-51.74 1085.27,-25.05 1032.17,-15.63"/>
<polygon fill="midnightblue" stroke="midnightblue" points="1032.62,-12.16 1022.18,-13.97 1031.47,-19.07 1032.62,-12.16"/>
</g>
<!-- Node8 -->
<g id="node8" class="node">
<title>Node8</title>
<g id="a_node8"><a xlink:href="definitions_8hpp.html" target="_top" xlink:title=" ">
<polygon fill="none" stroke="black" points="686.5,-56.5 686.5,-75.5 852.5,-75.5 852.5,-56.5 686.5,-56.5"/>
<text text-anchor="middle" x="769.5" y="-63.5" font-family="Helvetica,sans-Serif" font-size="10.00">nmbuflowtorch/definitions.hpp</text>
</a>
</g>
</g>
<!-- Node1&#45;&gt;Node8 -->
<g id="edge7" class="edge">
<title>Node1&#45;&gt;Node8</title>
<path fill="none" stroke="midnightblue" d="M795.54,-302.32C791.65,-267.18 777.04,-135.12 771.58,-85.76"/>
<polygon fill="midnightblue" stroke="midnightblue" points="775.03,-85.13 770.45,-75.58 768.07,-85.9 775.03,-85.13"/>
</g>
<!-- Node13 -->
<g id="node13" class="node">
<title>Node13</title>
<g id="a_node13"><a xlink:href="layer_8hpp.html" target="_top" xlink:title=" ">
<polygon fill="none" stroke="black" points="834,-174 834,-193 973,-193 973,-174 834,-174"/>
<text text-anchor="middle" x="903.5" y="-181" font-family="Helvetica,sans-Serif" font-size="10.00">nmbuflowtorch/layer.hpp</text>
</a>
</g>
</g>
<!-- Node1&#45;&gt;Node13 -->
<g id="edge15" class="edge">
<title>Node1&#45;&gt;Node13</title>
<path fill="none" stroke="midnightblue" d="M836.07,-304.99C877.24,-297.84 937.62,-284.49 951.5,-266 967.81,-244.29 943.01,-216.61 923.42,-199.75"/>
<polygon fill="midnightblue" stroke="midnightblue" points="925.42,-196.86 915.47,-193.23 920.98,-202.27 925.42,-196.86"/>
</g>
<!-- Node14 -->
<g id="node14" class="node">
<title>Node14</title>
<g id="a_node14"><a xlink:href="optimizer_8hpp.html" target="_top" xlink:title=" ">
<polygon fill="none" stroke="black" points="442.5,-112.5 442.5,-131.5 532.5,-131.5 532.5,-112.5 442.5,-112.5"/>
<text text-anchor="middle" x="487.5" y="-119.5" font-family="Helvetica,sans-Serif" font-size="10.00">./optimizer.hpp</text>
</a>
</g>
</g>
<!-- Node1&#45;&gt;Node14 -->
<g id="edge44" class="edge">
<title>Node1&#45;&gt;Node14</title>
<path fill="none" stroke="midnightblue" d="M756.66,-310.13C649.42,-307.39 360.79,-297.16 332.5,-266 323.24,-255.8 325.07,-246.61 332.5,-235 353.08,-202.84 379.11,-220.74 410.5,-199 435.22,-181.88 459.14,-156.45 473.59,-139.8"/>
<polygon fill="midnightblue" stroke="midnightblue" points="476.42,-141.87 480.23,-131.98 471.09,-137.33 476.42,-141.87"/>
</g>
<!-- Node16 -->
<g id="node16" class="node">
<title>Node16</title>
<g id="a_node16"><a xlink:href="dense_8hpp.html" target="_top" xlink:title=" ">
<polygon fill="none" stroke="black" points="1036.5,-235.5 1036.5,-265.5 1154.5,-265.5 1154.5,-235.5 1036.5,-235.5"/>
<text text-anchor="start" x="1044.5" y="-253.5" font-family="Helvetica,sans-Serif" font-size="10.00">nmbuflowtorch/layer</text>
<text text-anchor="middle" x="1095.5" y="-242.5" font-family="Helvetica,sans-Serif" font-size="10.00">/dense.hpp</text>
</a>
</g>
</g>
<!-- Node1&#45;&gt;Node16 -->
<g id="edge21" class="edge">
<title>Node1&#45;&gt;Node16</title>
<path fill="none" stroke="midnightblue" d="M836.2,-303.1C884.63,-293.46 967.32,-277.01 1026.3,-265.27"/>
<polygon fill="midnightblue" stroke="midnightblue" points="1027.16,-268.67 1036.29,-263.28 1025.8,-261.8 1027.16,-268.67"/>
</g>
<!-- Node17 -->
<g id="node17" class="node">
<title>Node17</title>
<g id="a_node17"><a xlink:href="math__m_8hpp.html" target="_top" xlink:title=" ">
<polygon fill="none" stroke="black" points="991,-174 991,-193 1078,-193 1078,-174 991,-174"/>
<text text-anchor="middle" x="1034.5" y="-181" font-family="Helvetica,sans-Serif" font-size="10.00">../math_m.hpp</text>
</a>
</g>
</g>
<!-- Node1&#45;&gt;Node17 -->
<g id="edge36" class="edge">
<title>Node1&#45;&gt;Node17</title>
<path fill="none" stroke="midnightblue" d="M836.29,-307.55C872.85,-302.83 927.31,-291.76 967.5,-266 992.98,-249.67 1013.47,-220.48 1024.81,-201.82"/>
<polygon fill="midnightblue" stroke="midnightblue" points="1027.85,-203.55 1029.88,-193.15 1021.81,-200.02 1027.85,-203.55"/>
</g>
<!-- Node19 -->
<g id="node19" class="node">
<title>Node19</title>
<g id="a_node19"><a xlink:href="sigmoid_8hpp.html" target="_top" xlink:title=" ">
<polygon fill="none" stroke="black" points="824.5,-235.5 824.5,-265.5 942.5,-265.5 942.5,-235.5 824.5,-235.5"/>
<text text-anchor="start" x="832.5" y="-253.5" font-family="Helvetica,sans-Serif" font-size="10.00">nmbuflowtorch/layer</text>
<text text-anchor="middle" x="883.5" y="-242.5" font-family="Helvetica,sans-Serif" font-size="10.00">/sigmoid.hpp</text>
</a>
</g>
</g>
<!-- Node1&#45;&gt;Node19 -->
<g id="edge28" class="edge">
<title>Node1&#45;&gt;Node19</title>
<path fill="none" stroke="midnightblue" d="M808.96,-302.48C820.86,-294.34 839.21,-281.79 854.73,-271.18"/>
<polygon fill="midnightblue" stroke="midnightblue" points="856.72,-274.06 863,-265.52 852.77,-268.28 856.72,-274.06"/>
</g>
<!-- Node20 -->
<g id="node20" class="node">
<title>Node20</title>
<g id="a_node20"><a xlink:href="loss_8hpp.html" target="_top" xlink:title=" ">
<polygon fill="none" stroke="black" points="457.5,-174 457.5,-193 591.5,-193 591.5,-174 457.5,-174"/>
<text text-anchor="middle" x="524.5" y="-181" font-family="Helvetica,sans-Serif" font-size="10.00">nmbuflowtorch/loss.hpp</text>
</a>
</g>
</g>
<!-- Node1&#45;&gt;Node20 -->
<g id="edge30" class="edge">
<title>Node1&#45;&gt;Node20</title>
<path fill="none" stroke="midnightblue" d="M756.85,-310.04C651.54,-307.08 371.02,-296.39 343.5,-266 334.25,-255.79 335.17,-245.97 343.5,-235 351.59,-224.34 423.65,-206.6 474.36,-195.24"/>
<polygon fill="midnightblue" stroke="midnightblue" points="475.19,-198.64 484.2,-193.05 473.68,-191.81 475.19,-198.64"/>
</g>
<!-- Node21 -->
<g id="node21" class="node">
<title>Node21</title>
<g id="a_node21"><a xlink:href="cross__entropy_8hpp.html" target="_top" xlink:title=" ">
<polygon fill="none" stroke="black" points="352,-235.5 352,-265.5 465,-265.5 465,-235.5 352,-235.5"/>
<text text-anchor="start" x="360" y="-253.5" font-family="Helvetica,sans-Serif" font-size="10.00">nmbuflowtorch/loss</text>
<text text-anchor="middle" x="408.5" y="-242.5" font-family="Helvetica,sans-Serif" font-size="10.00">/cross_entropy.hpp</text>
</a>
</g>
</g>
<!-- Node1&#45;&gt;Node21 -->
<g id="edge32" class="edge">
<title>Node1&#45;&gt;Node21</title>
<path fill="none" stroke="midnightblue" d="M756.69,-306.44C697.55,-299.45 582.83,-285.05 475.37,-266.07"/>
<polygon fill="midnightblue" stroke="midnightblue" points="475.78,-262.59 465.33,-264.28 474.56,-269.48 475.78,-262.59"/>
</g>
<!-- Node22 -->
<g id="node22" class="node">
<title>Node22</title>
<g id="a_node22"><a xlink:href="mse_8hpp.html" target="_top" xlink:title=" ">
<polygon fill="none" stroke="black" points="483,-235.5 483,-265.5 596,-265.5 596,-235.5 483,-235.5"/>
<text text-anchor="start" x="491" y="-253.5" font-family="Helvetica,sans-Serif" font-size="10.00">nmbuflowtorch/loss</text>
<text text-anchor="middle" x="539.5" y="-242.5" font-family="Helvetica,sans-Serif" font-size="10.00">/mse.hpp</text>
</a>
</g>
</g>
<!-- Node1&#45;&gt;Node22 -->
<g id="edge34" class="edge">
<title>Node1&#45;&gt;Node22</title>
<path fill="none" stroke="midnightblue" d="M759.68,-302.48C719.68,-293.22 654.97,-278.23 606.03,-266.9"/>
<polygon fill="midnightblue" stroke="midnightblue" points="606.68,-263.46 596.15,-264.62 605.1,-270.28 606.68,-263.46"/>
</g>
<!-- Node23 -->
<g id="node23" class="node">
<title>Node23</title>
<g id="a_node23"><a xlink:href="network_8hpp.html" target="_top" xlink:title="Network class representing a sequence of layers. This class implements a network consisting of a sequ...">
<polygon fill="none" stroke="black" points="614.5,-241 614.5,-260 768.5,-260 768.5,-241 614.5,-241"/>
<text text-anchor="middle" x="691.5" y="-248" font-family="Helvetica,sans-Serif" font-size="10.00">nmbuflowtorch/network.hpp</text>
</a>
</g>
</g>
<!-- Node1&#45;&gt;Node23 -->
<g id="edge37" class="edge">
<title>Node1&#45;&gt;Node23</title>
<path fill="none" stroke="midnightblue" d="M781.46,-302.48C764.22,-292.71 735.76,-276.58 715.47,-265.08"/>
<polygon fill="midnightblue" stroke="midnightblue" points="716.94,-261.89 706.52,-260.01 713.49,-267.98 716.94,-261.89"/>
</g>
<!-- Node25 -->
<g id="node25" class="node">
<title>Node25</title>
<g id="a_node25"><a xlink:href="nadam_8hpp.html" target="_top" xlink:title=" ">
<polygon fill="none" stroke="black" points="103.5,-168.5 103.5,-198.5 243.5,-198.5 243.5,-168.5 103.5,-168.5"/>
<text text-anchor="start" x="111.5" y="-186.5" font-family="Helvetica,sans-Serif" font-size="10.00">nmbuflowtorch/optimizer</text>
<text text-anchor="middle" x="173.5" y="-175.5" font-family="Helvetica,sans-Serif" font-size="10.00">/nadam.hpp</text>
</a>
</g>
</g>
<!-- Node1&#45;&gt;Node25 -->
<g id="edge45" class="edge">
<title>Node1&#45;&gt;Node25</title>
<path fill="none" stroke="midnightblue" d="M756.87,-310.98C648.66,-310.39 350.3,-305.18 261.5,-266 232.13,-253.04 206.21,-226.13 190.25,-206.77"/>
<polygon fill="midnightblue" stroke="midnightblue" points="192.81,-204.37 183.83,-198.74 187.34,-208.74 192.81,-204.37"/>
</g>
<!-- Node26 -->
<g id="node26" class="node">
<title>Node26</title>
<g id="a_node26"><a xlink:href="sgd_8hpp.html" target="_top" xlink:title=" ">
<polygon fill="none" stroke="black" points="261.5,-168.5 261.5,-198.5 401.5,-198.5 401.5,-168.5 261.5,-168.5"/>
<text text-anchor="start" x="269.5" y="-186.5" font-family="Helvetica,sans-Serif" font-size="10.00">nmbuflowtorch/optimizer</text>
<text text-anchor="middle" x="331.5" y="-175.5" font-family="Helvetica,sans-Serif" font-size="10.00">/sgd.hpp</text>
</a>
</g>
</g>
<!-- Node1&#45;&gt;Node26 -->
<g id="edge47" class="edge">
<title>Node1&#45;&gt;Node26</title>
<path fill="none" stroke="midnightblue" d="M756.98,-310.62C640.42,-309.09 304.17,-301.59 271.5,-266 253.62,-246.52 277.5,-221.77 300.22,-204.69"/>
<polygon fill="midnightblue" stroke="midnightblue" points="302.39,-207.44 308.46,-198.76 298.3,-201.76 302.39,-207.44"/>
</g>
<!-- Node27 -->
<g id="node27" class="node">
<title>Node27</title>
<g id="a_node27"><a xlink:title=" ">
<polygon fill="none" stroke="#bfbfbf" points="1398,-241 1398,-260 1457,-260 1457,-241 1398,-241"/>
<text text-anchor="middle" x="1427.5" y="-248" font-family="Helvetica,sans-Serif" font-size="10.00">complex</text>
</a>
</g>
</g>
<!-- Node1&#45;&gt;Node27 -->
<g id="edge49" class="edge">
<title>Node1&#45;&gt;Node27</title>
<path fill="none" stroke="midnightblue" d="M836.4,-309.47C951.65,-304.82 1283.58,-289.7 1389.5,-266 1392.5,-265.33 1395.59,-264.46 1398.63,-263.49"/>
<polygon fill="midnightblue" stroke="midnightblue" points="1399.86,-266.77 1408.11,-260.13 1397.52,-260.18 1399.86,-266.77"/>
</g>
<!-- Node8&#45;&gt;Node3 -->
<g id="edge10" class="edge">
<title>Node8&#45;&gt;Node3</title>
<path fill="none" stroke="midnightblue" d="M702.32,-56.44C610.36,-44.73 448.79,-24.15 379.08,-15.28"/>
<polygon fill="midnightblue" stroke="midnightblue" points="379.45,-11.8 369.09,-14 378.57,-18.74 379.45,-11.8"/>
</g>
<!-- Node8&#45;&gt;Node5 -->
<g id="edge12" class="edge">
<title>Node8&#45;&gt;Node5</title>
<path fill="none" stroke="midnightblue" d="M829.08,-56.44C906.33,-45.35 1038.98,-26.3 1105.3,-16.77"/>
<polygon fill="midnightblue" stroke="midnightblue" points="1105.95,-20.22 1115.35,-15.33 1104.96,-13.29 1105.95,-20.22"/>
</g>
<!-- Node8&#45;&gt;Node7 -->
<g id="edge14" class="edge">
<title>Node8&#45;&gt;Node7</title>
<path fill="none" stroke="midnightblue" d="M805.79,-56.44C849.59,-46.11 922.66,-28.88 965.12,-18.87"/>
<polygon fill="midnightblue" stroke="midnightblue" points="966.04,-22.25 974.97,-16.55 964.43,-15.44 966.04,-22.25"/>
</g>
<!-- Node9 -->
<g id="node9" class="node">
<title>Node9</title>
<g id="a_node9"><a xlink:title=" ">
<polygon fill="none" stroke="#bfbfbf" points="656.5,-0.5 656.5,-19.5 712.5,-19.5 712.5,-0.5 656.5,-0.5"/>
<text text-anchor="middle" x="684.5" y="-7.5" font-family="Helvetica,sans-Serif" font-size="10.00">unistd.h</text>
</a>
</g>
</g>
<!-- Node8&#45;&gt;Node9 -->
<g id="edge8" class="edge">
<title>Node8&#45;&gt;Node9</title>
<path fill="none" stroke="midnightblue" d="M755.84,-56.32C742.58,-47.9 722.23,-34.97 706.65,-25.07"/>
<polygon fill="midnightblue" stroke="midnightblue" points="708.44,-22.06 698.12,-19.65 704.69,-27.97 708.44,-22.06"/>
</g>
<!-- Node10 -->
<g id="node10" class="node">
<title>Node10</title>
<g id="a_node10"><a xlink:title=" ">
<polygon fill="none" stroke="#bfbfbf" points="731,-0.5 731,-19.5 808,-19.5 808,-0.5 731,-0.5"/>
<text text-anchor="middle" x="769.5" y="-7.5" font-family="Helvetica,sans-Serif" font-size="10.00">Eigen/Dense</text>
</a>
</g>
</g>
<!-- Node8&#45;&gt;Node10 -->
<g id="edge9" class="edge">
<title>Node8&#45;&gt;Node10</title>
<path fill="none" stroke="midnightblue" d="M769.5,-56.08C769.5,-49.01 769.5,-38.86 769.5,-29.99"/>
<polygon fill="midnightblue" stroke="midnightblue" points="773,-29.75 769.5,-19.75 766,-29.75 773,-29.75"/>
</g>
<!-- Node11 -->
<g id="node11" class="node">
<title>Node11</title>
<g id="a_node11"><a xlink:title=" ">
<polygon fill="none" stroke="#bfbfbf" points="826.5,-0.5 826.5,-19.5 872.5,-19.5 872.5,-0.5 826.5,-0.5"/>
<text text-anchor="middle" x="849.5" y="-7.5" font-family="Helvetica,sans-Serif" font-size="10.00">cstdio</text>
</a>
</g>
</g>
<!-- Node8&#45;&gt;Node11 -->
<g id="edge11" class="edge">
<title>Node8&#45;&gt;Node11</title>
<path fill="none" stroke="midnightblue" d="M782.35,-56.32C794.72,-47.98 813.63,-35.21 828.24,-25.35"/>
<polygon fill="midnightblue" stroke="midnightblue" points="830.35,-28.15 836.68,-19.65 826.43,-22.35 830.35,-28.15"/>
</g>
<!-- Node12 -->
<g id="node12" class="node">
<title>Node12</title>
<g id="a_node12"><a xlink:title=" ">
<polygon fill="none" stroke="#bfbfbf" points="901.5,-0.5 901.5,-19.5 945.5,-19.5 945.5,-0.5 901.5,-0.5"/>
<text text-anchor="middle" x="923.5" y="-7.5" font-family="Helvetica,sans-Serif" font-size="10.00">string</text>
</a>
</g>
</g>
<!-- Node8&#45;&gt;Node12 -->
<g id="edge13" class="edge">
<title>Node8&#45;&gt;Node12</title>
<path fill="none" stroke="midnightblue" d="M793.9,-56.44C820.3,-47.19 862.51,-32.39 891.54,-22.21"/>
<polygon fill="midnightblue" stroke="midnightblue" points="892.93,-25.43 901.21,-18.82 890.62,-18.82 892.93,-25.43"/>
</g>
<!-- Node13&#45;&gt;Node7 -->
<g id="edge16" class="edge">
<title>Node13&#45;&gt;Node7</title>
<path fill="none" stroke="midnightblue" d="M908.34,-173.76C923.27,-146.81 968.8,-64.62 988.85,-28.42"/>
<polygon fill="midnightblue" stroke="midnightblue" points="992,-29.96 993.78,-19.52 985.87,-26.57 992,-29.96"/>
</g>
<!-- Node13&#45;&gt;Node8 -->
<g id="edge17" class="edge">
<title>Node13&#45;&gt;Node8</title>
<path fill="none" stroke="midnightblue" d="M888.9,-173.91C873.44,-164.51 848.69,-148.57 829.5,-132 812.14,-117.02 794.62,-97.4 783.04,-83.66"/>
<polygon fill="midnightblue" stroke="midnightblue" points="785.41,-81.04 776.34,-75.58 780.03,-85.51 785.41,-81.04"/>
</g>
<!-- Node13&#45;&gt;Node14 -->
<g id="edge18" class="edge">
<title>Node13&#45;&gt;Node14</title>
<path fill="none" stroke="midnightblue" d="M843.9,-173.98C763.38,-162.46 620.94,-142.09 542.74,-130.9"/>
<polygon fill="midnightblue" stroke="midnightblue" points="543,-127.4 532.6,-129.45 542.01,-134.33 543,-127.4"/>
</g>
<!-- Node14&#45;&gt;Node8 -->
<g id="edge20" class="edge">
<title>Node14&#45;&gt;Node8</title>
<path fill="none" stroke="midnightblue" d="M532.18,-112.44C581.79,-102.94 661.86,-87.61 715.09,-77.42"/>
<polygon fill="midnightblue" stroke="midnightblue" points="715.86,-80.83 725.03,-75.52 714.55,-73.96 715.86,-80.83"/>
</g>
<!-- Node15 -->
<g id="node15" class="node">
<title>Node15</title>
<g id="a_node15"><a xlink:title=" ">
<polygon fill="none" stroke="#bfbfbf" points="441,-56.5 441,-75.5 534,-75.5 534,-56.5 441,-56.5"/>
<text text-anchor="middle" x="487.5" y="-63.5" font-family="Helvetica,sans-Serif" font-size="10.00">unordered_map</text>
</a>
</g>
</g>
<!-- Node14&#45;&gt;Node15 -->
<g id="edge19" class="edge">
<title>Node14&#45;&gt;Node15</title>
<path fill="none" stroke="midnightblue" d="M487.5,-112.08C487.5,-105.01 487.5,-94.86 487.5,-85.99"/>
<polygon fill="midnightblue" stroke="midnightblue" points="491,-85.75 487.5,-75.75 484,-85.75 491,-85.75"/>
</g>
<!-- Node16&#45;&gt;Node7 -->
<g id="edge23" class="edge">
<title>Node16&#45;&gt;Node7</title>
<path fill="none" stroke="midnightblue" d="M1104.83,-235.15C1110.6,-225.4 1117.47,-211.95 1120.5,-199 1129.31,-161.35 1136.96,-146.99 1120.5,-112 1101.07,-70.69 1055.53,-40.48 1025.91,-24.35"/>
<polygon fill="midnightblue" stroke="midnightblue" points="1027.39,-21.17 1016.91,-19.61 1024.13,-27.36 1027.39,-21.17"/>
</g>
<!-- Node16&#45;&gt;Node12 -->
<g id="edge22" class="edge">
<title>Node16&#45;&gt;Node12</title>
<path fill="none" stroke="midnightblue" d="M1098.66,-235.41C1103.77,-209.05 1111.04,-151.41 1087.5,-112 1057.99,-62.59 994.02,-33.96 955.28,-20.51"/>
<polygon fill="midnightblue" stroke="midnightblue" points="956.13,-17.11 945.54,-17.26 953.92,-23.75 956.13,-17.11"/>
</g>
<!-- Node16&#45;&gt;Node13 -->
<g id="edge24" class="edge">
<title>Node16&#45;&gt;Node13</title>
<path fill="none" stroke="midnightblue" d="M1053.84,-235.4C1019.26,-223.69 970.64,-207.23 938.16,-196.23"/>
<polygon fill="midnightblue" stroke="midnightblue" points="939.22,-192.9 928.63,-193.01 936.98,-199.53 939.22,-192.9"/>
</g>
<!-- Node16&#45;&gt;Node17 -->
<g id="edge25" class="edge">
<title>Node16&#45;&gt;Node17</title>
<path fill="none" stroke="midnightblue" d="M1082.26,-235.4C1072.66,-225.16 1059.65,-211.3 1049.63,-200.62"/>
<polygon fill="midnightblue" stroke="midnightblue" points="1052.05,-198.09 1042.66,-193.19 1046.95,-202.88 1052.05,-198.09"/>
</g>
<!-- Node17&#45;&gt;Node8 -->
<g id="edge27" class="edge">
<title>Node17&#45;&gt;Node8</title>
<path fill="none" stroke="midnightblue" d="M1014.58,-173.82C968.24,-153.62 852.99,-103.39 798.69,-79.72"/>
<polygon fill="midnightblue" stroke="midnightblue" points="799.85,-76.41 789.29,-75.62 797.06,-82.83 799.85,-76.41"/>
</g>
<!-- Node18 -->
<g id="node18" class="node">
<title>Node18</title>
<g id="a_node18"><a xlink:title=" ">
<polygon fill="none" stroke="#bfbfbf" points="1027,-112.5 1027,-131.5 1078,-131.5 1078,-112.5 1027,-112.5"/>
<text text-anchor="middle" x="1052.5" y="-119.5" font-family="Helvetica,sans-Serif" font-size="10.00">cblas.h</text>
</a>
</g>
</g>
<!-- Node17&#45;&gt;Node18 -->
<g id="edge26" class="edge">
<title>Node17&#45;&gt;Node18</title>
<path fill="none" stroke="midnightblue" d="M1037.08,-173.98C1039.65,-165.49 1043.67,-152.2 1046.96,-141.32"/>
<polygon fill="midnightblue" stroke="midnightblue" points="1050.38,-142.09 1049.93,-131.51 1043.68,-140.07 1050.38,-142.09"/>
</g>
<!-- Node19&#45;&gt;Node13 -->
<g id="edge29" class="edge">
<title>Node19&#45;&gt;Node13</title>
<path fill="none" stroke="midnightblue" d="M887.84,-235.4C890.77,-225.86 894.67,-213.18 897.85,-202.86"/>
<polygon fill="midnightblue" stroke="midnightblue" points="901.23,-203.78 900.82,-193.19 894.54,-201.72 901.23,-203.78"/>
</g>
<!-- Node20&#45;&gt;Node8 -->
<g id="edge31" class="edge">
<title>Node20&#45;&gt;Node8</title>
<path fill="none" stroke="midnightblue" d="M537.26,-173.83C558.57,-159.6 603.07,-130.98 643.5,-112 671.99,-98.62 705.63,-86.8 730.97,-78.63"/>
<polygon fill="midnightblue" stroke="midnightblue" points="732.13,-81.94 740.6,-75.58 730.01,-75.27 732.13,-81.94"/>
</g>
<!-- Node21&#45;&gt;Node20 -->
<g id="edge33" class="edge">
<title>Node21&#45;&gt;Node20</title>
<path fill="none" stroke="midnightblue" d="M433.67,-235.4C453.48,-224.29 480.92,-208.92 500.44,-197.98"/>
<polygon fill="midnightblue" stroke="midnightblue" points="502.31,-200.95 509.32,-193.01 498.88,-194.84 502.31,-200.95"/>
</g>
<!-- Node22&#45;&gt;Node20 -->
<g id="edge35" class="edge">
<title>Node22&#45;&gt;Node20</title>
<path fill="none" stroke="midnightblue" d="M536.25,-235.4C534.07,-225.96 531.18,-213.45 528.81,-203.19"/>
<polygon fill="midnightblue" stroke="midnightblue" points="532.17,-202.15 526.51,-193.19 525.34,-203.73 532.17,-202.15"/>
</g>
<!-- Node23&#45;&gt;Node7 -->
<g id="edge39" class="edge">
<title>Node23&#45;&gt;Node7</title>
<path fill="none" stroke="midnightblue" d="M702.79,-240.73C748.68,-205.08 921.53,-70.79 979.45,-25.8"/>
<polygon fill="midnightblue" stroke="midnightblue" points="981.68,-28.5 987.43,-19.6 977.39,-22.97 981.68,-28.5"/>
</g>
<!-- Node23&#45;&gt;Node8 -->
<g id="edge40" class="edge">
<title>Node23&#45;&gt;Node8</title>
<path fill="none" stroke="midnightblue" d="M687,-240.63C679.87,-225.32 667.75,-193.17 677.5,-168 691.79,-131.09 726.53,-99.39 749,-81.79"/>
<polygon fill="midnightblue" stroke="midnightblue" points="751.37,-84.38 757.22,-75.54 747.14,-78.8 751.37,-84.38"/>
</g>
<!-- Node23&#45;&gt;Node13 -->
<g id="edge41" class="edge">
<title>Node23&#45;&gt;Node13</title>
<path fill="none" stroke="midnightblue" d="M719.65,-240.87C757.29,-229.33 824.13,-208.84 866.01,-196"/>
<polygon fill="midnightblue" stroke="midnightblue" points="867.03,-199.34 875.57,-193.06 864.98,-192.65 867.03,-199.34"/>
</g>
<!-- Node23&#45;&gt;Node14 -->
<g id="edge43" class="edge">
<title>Node23&#45;&gt;Node14</title>
<path fill="none" stroke="midnightblue" d="M683.77,-240.79C669,-224.57 635.12,-189.45 600.5,-168 577.51,-153.76 549.25,-142.51 526.74,-134.81"/>
<polygon fill="midnightblue" stroke="midnightblue" points="527.75,-131.46 517.16,-131.64 525.55,-138.11 527.75,-131.46"/>
</g>
<!-- Node23&#45;&gt;Node20 -->
<g id="edge42" class="edge">
<title>Node23&#45;&gt;Node20</title>
<path fill="none" stroke="midnightblue" d="M669.32,-240.87C640.3,-229.57 589.23,-209.7 556.15,-196.82"/>
<polygon fill="midnightblue" stroke="midnightblue" points="557.09,-193.43 546.5,-193.06 554.55,-199.95 557.09,-193.43"/>
</g>
<!-- Node24 -->
<g id="node24" class="node">
<title>Node24</title>
<g id="a_node24"><a xlink:title=" ">
<polygon fill="none" stroke="#bfbfbf" points="686,-174 686,-193 739,-193 739,-174 686,-174"/>
<text text-anchor="middle" x="712.5" y="-181" font-family="Helvetica,sans-Serif" font-size="10.00">stdlib.h</text>
</a>
</g>
</g>
<!-- Node23&#45;&gt;Node24 -->
<g id="edge38" class="edge">
<title>Node23&#45;&gt;Node24</title>
<path fill="none" stroke="midnightblue" d="M694.33,-240.73C697.45,-231.09 702.55,-215.3 706.55,-202.91"/>
<polygon fill="midnightblue" stroke="midnightblue" points="709.97,-203.72 709.71,-193.13 703.31,-201.57 709.97,-203.72"/>
</g>
<!-- Node25&#45;&gt;Node14 -->
<g id="edge46" class="edge">
<title>Node25&#45;&gt;Node14</title>
<path fill="none" stroke="midnightblue" d="M243.58,-169.22C300.51,-158.43 379.72,-143.42 432.24,-133.47"/>
<polygon fill="midnightblue" stroke="midnightblue" points="433.2,-136.85 442.38,-131.55 431.9,-129.97 433.2,-136.85"/>
</g>
<!-- Node26&#45;&gt;Node14 -->
<g id="edge48" class="edge">
<title>Node26&#45;&gt;Node14</title>
<path fill="none" stroke="midnightblue" d="M368.47,-168.4C394.88,-158.33 430.06,-144.91 455.31,-135.28"/>
<polygon fill="midnightblue" stroke="midnightblue" points="456.7,-138.49 464.8,-131.66 454.21,-131.95 456.7,-138.49"/>
</g>
</g>
</svg>
