<?xml version="1.0" encoding="UTF-8" standalone="no"?>
<!DOCTYPE svg PUBLIC "-//W3C//DTD SVG 1.1//EN"
 "http://www.w3.org/Graphics/SVG/1.1/DTD/svg11.dtd">
<!-- Generated by graphviz version 2.43.0 (0)
 -->
<!-- Title: mio::basic_mmap::map Pages: 1 -->
<svg width="611pt" height="83pt"
 viewBox="0.00 0.00 611.00 83.00" xmlns="http://www.w3.org/2000/svg" xmlns:xlink="http://www.w3.org/1999/xlink">
<g id="graph0" class="graph" transform="scale(1 1) rotate(0) translate(4 79)">
<title>mio::basic_mmap::map</title>
<!-- Node1 -->
<g id="node1" class="node">
<title>Node1</title>
<g id="a_node1"><a xlink:title=" ">
<polygon fill="#bfbfbf" stroke="black" points="0,-28 0,-47 131,-47 131,-28 0,-28"/>
<text text-anchor="middle" x="65.5" y="-35" font-family="Helvetica,sans-Serif" font-size="10.00">mio::basic_mmap::map</text>
</a>
</g>
</g>
<!-- Node2 -->
<g id="node2" class="node">
<title>Node2</title>
<g id="a_node2"><a xlink:href="namespacemio_1_1detail.html#aa159ecab09520ac639e4a6e3b75a582a" target="_top" xlink:title=" ">
<polygon fill="none" stroke="black" points="167,-6 167,-25 310,-25 310,-6 167,-6"/>
<text text-anchor="middle" x="238.5" y="-13" font-family="Helvetica,sans-Serif" font-size="10.00">mio::detail::memory_map</text>
</a>
</g>
</g>
<!-- Node1&#45;&gt;Node2 -->
<g id="edge1" class="edge">
<title>Node1&#45;&gt;Node2</title>
<path fill="none" stroke="midnightblue" d="M131.15,-29.18C139.51,-28.11 148.15,-26.99 156.73,-25.89"/>
<polygon fill="midnightblue" stroke="midnightblue" points="157.29,-29.35 166.76,-24.6 156.39,-22.41 157.29,-29.35"/>
</g>
<!-- Node6 -->
<g id="node6" class="node">
<title>Node6</title>
<g id="a_node6"><a xlink:href="namespacemio_1_1detail.html#a098bba98e9ca578a687cbb5d9ca1bc31" target="_top" xlink:title=" ">
<polygon fill="none" stroke="black" points="187,-44.5 187,-74.5 290,-74.5 290,-44.5 187,-44.5"/>
<text text-anchor="start" x="195" y="-62.5" font-family="Helvetica,sans-Serif" font-size="10.00">mio::detail::query</text>
<text text-anchor="middle" x="238.5" y="-51.5" font-family="Helvetica,sans-Serif" font-size="10.00">_file_size</text>
</a>
</g>
</g>
<!-- Node1&#45;&gt;Node6 -->
<g id="edge5" class="edge">
<title>Node1&#45;&gt;Node6</title>
<path fill="none" stroke="midnightblue" d="M131.15,-45.82C146.13,-47.75 162.03,-49.79 176.83,-51.7"/>
<polygon fill="midnightblue" stroke="midnightblue" points="176.52,-55.18 186.89,-52.99 177.42,-48.24 176.52,-55.18"/>
</g>
<!-- Node3 -->
<g id="node3" class="node">
<title>Node3</title>
<g id="a_node3"><a xlink:href="namespacemio_1_1detail.html#a7674417addb84255c50356e6125cb81a" target="_top" xlink:title=" ">
<polygon fill="none" stroke="black" points="350.5,-50 350.5,-69 472.5,-69 472.5,-50 350.5,-50"/>
<text text-anchor="middle" x="411.5" y="-57" font-family="Helvetica,sans-Serif" font-size="10.00">mio::detail::last_error</text>
</a>
</g>
</g>
<!-- Node2&#45;&gt;Node3 -->
<g id="edge2" class="edge">
<title>Node2&#45;&gt;Node3</title>
<path fill="none" stroke="midnightblue" d="M276.6,-25.05C302.15,-31.62 336.29,-40.4 363.7,-47.46"/>
<polygon fill="midnightblue" stroke="midnightblue" points="362.91,-50.87 373.47,-49.97 364.66,-44.09 362.91,-50.87"/>
</g>
<!-- Node4 -->
<g id="node4" class="node">
<title>Node4</title>
<g id="a_node4"><a xlink:href="namespacemio.html#a8241a662aa47c5f64086830e3f913c99" target="_top" xlink:title=" ">
<polygon fill="none" stroke="black" points="346,-0.5 346,-30.5 477,-30.5 477,-0.5 346,-0.5"/>
<text text-anchor="start" x="354" y="-18.5" font-family="Helvetica,sans-Serif" font-size="10.00">mio::make_offset_page</text>
<text text-anchor="middle" x="411.5" y="-7.5" font-family="Helvetica,sans-Serif" font-size="10.00">_aligned</text>
</a>
</g>
</g>
<!-- Node2&#45;&gt;Node4 -->
<g id="edge3" class="edge">
<title>Node2&#45;&gt;Node4</title>
<path fill="none" stroke="midnightblue" d="M310.04,-15.5C318.48,-15.5 327.11,-15.5 335.61,-15.5"/>
<polygon fill="midnightblue" stroke="midnightblue" points="335.88,-19 345.88,-15.5 335.88,-12 335.88,-19"/>
</g>
<!-- Node5 -->
<g id="node5" class="node">
<title>Node5</title>
<g id="a_node5"><a xlink:href="namespacemio.html#a5fa19e76f930339fbeb51ad691b0bfd3" target="_top" xlink:title=" ">
<polygon fill="none" stroke="black" points="513,-6 513,-25 603,-25 603,-6 513,-6"/>
<text text-anchor="middle" x="558" y="-13" font-family="Helvetica,sans-Serif" font-size="10.00">mio::page_size</text>
</a>
</g>
</g>
<!-- Node4&#45;&gt;Node5 -->
<g id="edge4" class="edge">
<title>Node4&#45;&gt;Node5</title>
<path fill="none" stroke="midnightblue" d="M477.14,-15.5C485.6,-15.5 494.19,-15.5 502.46,-15.5"/>
<polygon fill="midnightblue" stroke="midnightblue" points="502.71,-19 512.71,-15.5 502.71,-12 502.71,-19"/>
</g>
<!-- Node6&#45;&gt;Node3 -->
<g id="edge6" class="edge">
<title>Node6&#45;&gt;Node3</title>
<path fill="none" stroke="midnightblue" d="M290.34,-59.5C305.91,-59.5 323.33,-59.5 339.97,-59.5"/>
<polygon fill="midnightblue" stroke="midnightblue" points="340.21,-63 350.21,-59.5 340.21,-56 340.21,-63"/>
</g>
</g>
</svg>
