<?xml version="1.0" encoding="UTF-8" standalone="no"?>
<!DOCTYPE svg PUBLIC "-//W3C//DTD SVG 1.1//EN"
 "http://www.w3.org/Graphics/SVG/1.1/DTD/svg11.dtd">
<!-- Generated by graphviz version 2.43.0 (0)
 -->
<!-- Title: mio::basic_mmap::basic_mmap Pages: 1 -->
<svg width="669pt" height="123pt"
 viewBox="0.00 0.00 669.00 123.00" xmlns="http://www.w3.org/2000/svg" xmlns:xlink="http://www.w3.org/1999/xlink">
<g id="graph0" class="graph" transform="scale(1 1) rotate(0) translate(4 119)">
<title>mio::basic_mmap::basic_mmap</title>
<!-- Node1 -->
<g id="node1" class="node">
<title>Node1</title>
<g id="a_node1"><a xlink:title=" ">
<polygon fill="#bfbfbf" stroke="black" points="0,-76.5 0,-95.5 172,-95.5 172,-76.5 0,-76.5"/>
<text text-anchor="middle" x="86" y="-83.5" font-family="Helvetica,sans-Serif" font-size="10.00">mio::basic_mmap::basic_mmap</text>
</a>
</g>
</g>
<!-- Node2 -->
<g id="node2" class="node">
<title>Node2</title>
<g id="a_node2"><a xlink:href="structmio_1_1basic__mmap.html#a26b3b48db65d974be3eeba9be82ed5d7" target="_top" xlink:title=" ">
<polygon fill="none" stroke="black" points="208,-95.5 208,-114.5 348,-114.5 348,-95.5 208,-95.5"/>
<text text-anchor="middle" x="278" y="-102.5" font-family="Helvetica,sans-Serif" font-size="10.00">mio::basic_mmap::length</text>
</a>
</g>
</g>
<!-- Node1&#45;&gt;Node2 -->
<g id="edge1" class="edge">
<title>Node1&#45;&gt;Node2</title>
<path fill="none" stroke="midnightblue" d="M172.27,-94.53C180.76,-95.38 189.35,-96.24 197.77,-97.08"/>
<polygon fill="midnightblue" stroke="midnightblue" points="197.64,-100.58 207.94,-98.09 198.34,-93.62 197.64,-100.58"/>
</g>
<!-- Node3 -->
<g id="node3" class="node">
<title>Node3</title>
<g id="a_node3"><a xlink:href="structmio_1_1basic__mmap.html#a4deacf96c37eb6e303fa45da23d72ba8" target="_top" xlink:title=" ">
<polygon fill="none" stroke="black" points="212.5,-57.5 212.5,-76.5 343.5,-76.5 343.5,-57.5 212.5,-57.5"/>
<text text-anchor="middle" x="278" y="-64.5" font-family="Helvetica,sans-Serif" font-size="10.00">mio::basic_mmap::map</text>
</a>
</g>
</g>
<!-- Node1&#45;&gt;Node3 -->
<g id="edge2" class="edge">
<title>Node1&#45;&gt;Node3</title>
<path fill="none" stroke="midnightblue" d="M172.27,-77.47C182.23,-76.48 192.33,-75.47 202.14,-74.49"/>
<polygon fill="midnightblue" stroke="midnightblue" points="202.62,-77.96 212.22,-73.48 201.92,-70.99 202.62,-77.96"/>
</g>
<!-- Node4 -->
<g id="node4" class="node">
<title>Node4</title>
<g id="a_node4"><a xlink:href="namespacemio_1_1detail.html#afdbd6eb65958d1555831926500365f2d" target="_top" xlink:title=" ">
<polygon fill="none" stroke="black" points="546.5,-76.5 546.5,-95.5 653.5,-95.5 653.5,-76.5 546.5,-76.5"/>
<text text-anchor="middle" x="600" y="-83.5" font-family="Helvetica,sans-Serif" font-size="10.00">mio::detail::empty</text>
</a>
</g>
</g>
<!-- Node3&#45;&gt;Node4 -->
<g id="edge3" class="edge">
<title>Node3&#45;&gt;Node4</title>
<path fill="none" stroke="midnightblue" d="M343.76,-70.84C399.89,-74.18 480.62,-78.97 536.18,-82.27"/>
<polygon fill="midnightblue" stroke="midnightblue" points="536.06,-85.77 546.25,-82.87 536.47,-78.78 536.06,-85.77"/>
</g>
<!-- Node5 -->
<g id="node5" class="node">
<title>Node5</title>
<g id="a_node5"><a xlink:href="namespacemio_1_1detail.html#a7e8d3c41d6aaab767ff383d601e550e9" target="_top" xlink:title=" ">
<polygon fill="none" stroke="black" points="384,-38.5 384,-57.5 503,-57.5 503,-38.5 384,-38.5"/>
<text text-anchor="middle" x="443.5" y="-45.5" font-family="Helvetica,sans-Serif" font-size="10.00">mio::detail::open_file</text>
</a>
</g>
</g>
<!-- Node3&#45;&gt;Node5 -->
<g id="edge4" class="edge">
<title>Node3&#45;&gt;Node5</title>
<path fill="none" stroke="midnightblue" d="M343.62,-59.49C353.59,-58.33 363.93,-57.13 373.98,-55.96"/>
<polygon fill="midnightblue" stroke="midnightblue" points="374.39,-59.44 383.92,-54.81 373.59,-52.48 374.39,-59.44"/>
</g>
<!-- Node5&#45;&gt;Node4 -->
<g id="edge6" class="edge">
<title>Node5&#45;&gt;Node4</title>
<path fill="none" stroke="midnightblue" d="M483.49,-57.59C503.78,-62.58 528.79,-68.73 550.35,-74.03"/>
<polygon fill="midnightblue" stroke="midnightblue" points="549.75,-77.49 560.29,-76.48 551.42,-70.69 549.75,-77.49"/>
</g>
<!-- Node6 -->
<g id="node6" class="node">
<title>Node6</title>
<g id="a_node6"><a xlink:href="namespacemio_1_1detail.html#aaf2266c48f50763f422ba1377f9a0e1f" target="_top" xlink:title=" ">
<polygon fill="none" stroke="black" points="551,-38.5 551,-57.5 649,-57.5 649,-38.5 551,-38.5"/>
<text text-anchor="middle" x="600" y="-45.5" font-family="Helvetica,sans-Serif" font-size="10.00">mio::detail::c_str</text>
</a>
</g>
</g>
<!-- Node5&#45;&gt;Node6 -->
<g id="edge5" class="edge">
<title>Node5&#45;&gt;Node6</title>
<path fill="none" stroke="midnightblue" d="M503.35,-48C515.61,-48 528.52,-48 540.76,-48"/>
<polygon fill="midnightblue" stroke="midnightblue" points="540.85,-51.5 550.85,-48 540.85,-44.5 540.85,-51.5"/>
</g>
<!-- Node7 -->
<g id="node7" class="node">
<title>Node7</title>
<g id="a_node7"><a xlink:href="namespacemio_1_1detail.html#a7674417addb84255c50356e6125cb81a" target="_top" xlink:title=" ">
<polygon fill="none" stroke="black" points="539,-0.5 539,-19.5 661,-19.5 661,-0.5 539,-0.5"/>
<text text-anchor="middle" x="600" y="-7.5" font-family="Helvetica,sans-Serif" font-size="10.00">mio::detail::last_error</text>
</a>
</g>
</g>
<!-- Node5&#45;&gt;Node7 -->
<g id="edge7" class="edge">
<title>Node5&#45;&gt;Node7</title>
<path fill="none" stroke="midnightblue" d="M483.49,-38.41C503.78,-33.42 528.79,-27.27 550.35,-21.97"/>
<polygon fill="midnightblue" stroke="midnightblue" points="551.42,-25.31 560.29,-19.52 549.75,-18.51 551.42,-25.31"/>
</g>
</g>
</svg>
