<?xml version="1.0" encoding="UTF-8" standalone="no"?>
<!DOCTYPE svg PUBLIC "-//W3C//DTD SVG 1.1//EN"
 "http://www.w3.org/Graphics/SVG/1.1/DTD/svg11.dtd">
<!-- Generated by graphviz version 2.43.0 (0)
 -->
<!-- Title: mio::basic_mmap::map Pages: 1 -->
<svg width="452pt" height="104pt"
 viewBox="0.00 0.00 452.00 104.00" xmlns="http://www.w3.org/2000/svg" xmlns:xlink="http://www.w3.org/1999/xlink">
<g id="graph0" class="graph" transform="scale(1 1) rotate(0) translate(4 100)">
<title>mio::basic_mmap::map</title>
<!-- Node1 -->
<g id="node1" class="node">
<title>Node1</title>
<g id="a_node1"><a xlink:title=" ">
<polygon fill="#bfbfbf" stroke="black" points="0,-57.5 0,-76.5 131,-76.5 131,-57.5 0,-57.5"/>
<text text-anchor="middle" x="65.5" y="-64.5" font-family="Helvetica,sans-Serif" font-size="10.00">mio::basic_mmap::map</text>
</a>
</g>
</g>
<!-- Node2 -->
<g id="node2" class="node">
<title>Node2</title>
<g id="a_node2"><a xlink:href="namespacemio_1_1detail.html#afdbd6eb65958d1555831926500365f2d" target="_top" xlink:title=" ">
<polygon fill="none" stroke="black" points="329.5,-76.5 329.5,-95.5 436.5,-95.5 436.5,-76.5 329.5,-76.5"/>
<text text-anchor="middle" x="383" y="-83.5" font-family="Helvetica,sans-Serif" font-size="10.00">mio::detail::empty</text>
</a>
</g>
</g>
<!-- Node1&#45;&gt;Node2 -->
<g id="edge1" class="edge">
<title>Node1&#45;&gt;Node2</title>
<path fill="none" stroke="midnightblue" d="M131.11,-70.89C186.15,-74.21 264.77,-78.94 319.27,-82.22"/>
<polygon fill="midnightblue" stroke="midnightblue" points="319.3,-85.73 329.49,-82.84 319.72,-78.74 319.3,-85.73"/>
</g>
<!-- Node3 -->
<g id="node3" class="node">
<title>Node3</title>
<g id="a_node3"><a xlink:href="namespacemio_1_1detail.html#a7e8d3c41d6aaab767ff383d601e550e9" target="_top" xlink:title=" ">
<polygon fill="none" stroke="black" points="167,-38.5 167,-57.5 286,-57.5 286,-38.5 167,-38.5"/>
<text text-anchor="middle" x="226.5" y="-45.5" font-family="Helvetica,sans-Serif" font-size="10.00">mio::detail::open_file</text>
</a>
</g>
</g>
<!-- Node1&#45;&gt;Node3 -->
<g id="edge2" class="edge">
<title>Node1&#45;&gt;Node3</title>
<path fill="none" stroke="midnightblue" d="M131.17,-59.27C139.55,-58.27 148.15,-57.24 156.59,-56.23"/>
<polygon fill="midnightblue" stroke="midnightblue" points="157.26,-59.68 166.77,-55.02 156.43,-52.73 157.26,-59.68"/>
</g>
<!-- Node3&#45;&gt;Node2 -->
<g id="edge4" class="edge">
<title>Node3&#45;&gt;Node2</title>
<path fill="none" stroke="midnightblue" d="M266.49,-57.59C286.78,-62.58 311.79,-68.73 333.35,-74.03"/>
<polygon fill="midnightblue" stroke="midnightblue" points="332.75,-77.49 343.29,-76.48 334.42,-70.69 332.75,-77.49"/>
</g>
<!-- Node4 -->
<g id="node4" class="node">
<title>Node4</title>
<g id="a_node4"><a xlink:href="namespacemio_1_1detail.html#aaf2266c48f50763f422ba1377f9a0e1f" target="_top" xlink:title=" ">
<polygon fill="none" stroke="black" points="334,-38.5 334,-57.5 432,-57.5 432,-38.5 334,-38.5"/>
<text text-anchor="middle" x="383" y="-45.5" font-family="Helvetica,sans-Serif" font-size="10.00">mio::detail::c_str</text>
</a>
</g>
</g>
<!-- Node3&#45;&gt;Node4 -->
<g id="edge3" class="edge">
<title>Node3&#45;&gt;Node4</title>
<path fill="none" stroke="midnightblue" d="M286.35,-48C298.61,-48 311.52,-48 323.76,-48"/>
<polygon fill="midnightblue" stroke="midnightblue" points="323.85,-51.5 333.85,-48 323.85,-44.5 323.85,-51.5"/>
</g>
<!-- Node5 -->
<g id="node5" class="node">
<title>Node5</title>
<g id="a_node5"><a xlink:href="namespacemio_1_1detail.html#a7674417addb84255c50356e6125cb81a" target="_top" xlink:title=" ">
<polygon fill="none" stroke="black" points="322,-0.5 322,-19.5 444,-19.5 444,-0.5 322,-0.5"/>
<text text-anchor="middle" x="383" y="-7.5" font-family="Helvetica,sans-Serif" font-size="10.00">mio::detail::last_error</text>
</a>
</g>
</g>
<!-- Node3&#45;&gt;Node5 -->
<g id="edge5" class="edge">
<title>Node3&#45;&gt;Node5</title>
<path fill="none" stroke="midnightblue" d="M266.49,-38.41C286.78,-33.42 311.79,-27.27 333.35,-21.97"/>
<polygon fill="midnightblue" stroke="midnightblue" points="334.42,-25.31 343.29,-19.52 332.75,-18.51 334.42,-25.31"/>
</g>
</g>
</svg>
