<?xml version="1.0" encoding="UTF-8" standalone="no"?>
<!DOCTYPE svg PUBLIC "-//W3C//DTD SVG 1.1//EN"
 "http://www.w3.org/Graphics/SVG/1.1/DTD/svg11.dtd">
<!-- Generated by graphviz version 2.43.0 (0)
 -->
<!-- Title: mio::basic_mmap::end Pages: 1 -->
<svg width="312pt" height="66pt"
 viewBox="0.00 0.00 312.00 66.00" xmlns="http://www.w3.org/2000/svg" xmlns:xlink="http://www.w3.org/1999/xlink">
<g id="graph0" class="graph" transform="scale(1 1) rotate(0) translate(4 62)">
<title>mio::basic_mmap::end</title>
<!-- Node1 -->
<g id="node1" class="node">
<title>Node1</title>
<g id="a_node1"><a xlink:title=" ">
<polygon fill="#bfbfbf" stroke="black" points="0,-19.5 0,-38.5 128,-38.5 128,-19.5 0,-19.5"/>
<text text-anchor="middle" x="64" y="-26.5" font-family="Helvetica,sans-Serif" font-size="10.00">mio::basic_mmap::end</text>
</a>
</g>
</g>
<!-- Node2 -->
<g id="node2" class="node">
<title>Node2</title>
<g id="a_node2"><a xlink:href="structmio_1_1basic__mmap.html#a2d1d8693d67e97222293e98c3c6d553e" target="_top" xlink:title=" ">
<polygon fill="none" stroke="black" points="168.5,-38.5 168.5,-57.5 299.5,-57.5 299.5,-38.5 168.5,-38.5"/>
<text text-anchor="middle" x="234" y="-45.5" font-family="Helvetica,sans-Serif" font-size="10.00">mio::basic_mmap::data</text>
</a>
</g>
</g>
<!-- Node1&#45;&gt;Node2 -->
<g id="edge1" class="edge">
<title>Node1&#45;&gt;Node2</title>
<path fill="none" stroke="midnightblue" d="M128.03,-36.13C137.95,-37.25 148.28,-38.42 158.43,-39.57"/>
<polygon fill="midnightblue" stroke="midnightblue" points="158.16,-43.06 168.49,-40.7 158.95,-36.1 158.16,-43.06"/>
</g>
<!-- Node3 -->
<g id="node3" class="node">
<title>Node3</title>
<g id="a_node3"><a xlink:href="structmio_1_1basic__mmap.html#a26b3b48db65d974be3eeba9be82ed5d7" target="_top" xlink:title=" ">
<polygon fill="none" stroke="black" points="164,-0.5 164,-19.5 304,-19.5 304,-0.5 164,-0.5"/>
<text text-anchor="middle" x="234" y="-7.5" font-family="Helvetica,sans-Serif" font-size="10.00">mio::basic_mmap::length</text>
</a>
</g>
</g>
<!-- Node1&#45;&gt;Node3 -->
<g id="edge2" class="edge">
<title>Node1&#45;&gt;Node3</title>
<path fill="none" stroke="midnightblue" d="M128.03,-21.87C136.47,-20.92 145.2,-19.93 153.86,-18.95"/>
<polygon fill="midnightblue" stroke="midnightblue" points="154.44,-22.41 163.98,-17.81 153.65,-15.45 154.44,-22.41"/>
</g>
</g>
</svg>
