<?xml version="1.0" encoding="UTF-8" standalone="no"?>
<!DOCTYPE svg PUBLIC "-//W3C//DTD SVG 1.1//EN"
 "http://www.w3.org/Graphics/SVG/1.1/DTD/svg11.dtd">
<!-- Generated by graphviz version 2.43.0 (0)
 -->
<!-- Title: mio::basic_mmap::crbegin Pages: 1 -->
<svg width="494pt" height="66pt"
 viewBox="0.00 0.00 494.00 66.00" xmlns="http://www.w3.org/2000/svg" xmlns:xlink="http://www.w3.org/1999/xlink">
<g id="graph0" class="graph" transform="scale(1 1) rotate(0) translate(4 62)">
<title>mio::basic_mmap::crbegin</title>
<!-- Node1 -->
<g id="node1" class="node">
<title>Node1</title>
<g id="a_node1"><a xlink:title=" ">
<polygon fill="#bfbfbf" stroke="black" points="0,-19.5 0,-38.5 146,-38.5 146,-19.5 0,-19.5"/>
<text text-anchor="middle" x="73" y="-26.5" font-family="Helvetica,sans-Serif" font-size="10.00">mio::basic_mmap::crbegin</text>
</a>
</g>
</g>
<!-- Node2 -->
<g id="node2" class="node">
<title>Node2</title>
<g id="a_node2"><a xlink:href="structmio_1_1basic__mmap.html#a0e1f53d27ffb84277897a1d1039c5708" target="_top" xlink:title=" ">
<polygon fill="none" stroke="black" points="182,-19.5 182,-38.5 310,-38.5 310,-19.5 182,-19.5"/>
<text text-anchor="middle" x="246" y="-26.5" font-family="Helvetica,sans-Serif" font-size="10.00">mio::basic_mmap::end</text>
</a>
</g>
</g>
<!-- Node1&#45;&gt;Node2 -->
<g id="edge1" class="edge">
<title>Node1&#45;&gt;Node2</title>
<path fill="none" stroke="midnightblue" d="M146.02,-29C154.46,-29 163.08,-29 171.53,-29"/>
<polygon fill="midnightblue" stroke="midnightblue" points="171.74,-32.5 181.74,-29 171.74,-25.5 171.74,-32.5"/>
</g>
<!-- Node3 -->
<g id="node3" class="node">
<title>Node3</title>
<g id="a_node3"><a xlink:href="structmio_1_1basic__mmap.html#a2d1d8693d67e97222293e98c3c6d553e" target="_top" xlink:title=" ">
<polygon fill="none" stroke="black" points="350.5,-38.5 350.5,-57.5 481.5,-57.5 481.5,-38.5 350.5,-38.5"/>
<text text-anchor="middle" x="416" y="-45.5" font-family="Helvetica,sans-Serif" font-size="10.00">mio::basic_mmap::data</text>
</a>
</g>
</g>
<!-- Node2&#45;&gt;Node3 -->
<g id="edge2" class="edge">
<title>Node2&#45;&gt;Node3</title>
<path fill="none" stroke="midnightblue" d="M310.03,-36.13C319.95,-37.25 330.28,-38.42 340.43,-39.57"/>
<polygon fill="midnightblue" stroke="midnightblue" points="340.16,-43.06 350.49,-40.7 340.95,-36.1 340.16,-43.06"/>
</g>
<!-- Node4 -->
<g id="node4" class="node">
<title>Node4</title>
<g id="a_node4"><a xlink:href="structmio_1_1basic__mmap.html#a26b3b48db65d974be3eeba9be82ed5d7" target="_top" xlink:title=" ">
<polygon fill="none" stroke="black" points="346,-0.5 346,-19.5 486,-19.5 486,-0.5 346,-0.5"/>
<text text-anchor="middle" x="416" y="-7.5" font-family="Helvetica,sans-Serif" font-size="10.00">mio::basic_mmap::length</text>
</a>
</g>
</g>
<!-- Node2&#45;&gt;Node4 -->
<g id="edge3" class="edge">
<title>Node2&#45;&gt;Node4</title>
<path fill="none" stroke="midnightblue" d="M310.03,-21.87C318.47,-20.92 327.2,-19.93 335.86,-18.95"/>
<polygon fill="midnightblue" stroke="midnightblue" points="336.44,-22.41 345.98,-17.81 335.65,-15.45 336.44,-22.41"/>
</g>
</g>
</svg>
