<?xml version="1.0" encoding="UTF-8" standalone="no"?>
<!DOCTYPE svg PUBLIC "-//W3C//DTD SVG 1.1//EN"
 "http://www.w3.org/Graphics/SVG/1.1/DTD/svg11.dtd">
<!-- Generated by graphviz version 2.43.0 (0)
 -->
<!-- Title: mio::basic_mmap::map Pages: 1 -->
<svg width="619pt" height="104pt"
 viewBox="0.00 0.00 619.00 104.00" xmlns="http://www.w3.org/2000/svg" xmlns:xlink="http://www.w3.org/1999/xlink">
<g id="graph0" class="graph" transform="scale(1 1) rotate(0) translate(4 100)">
<title>mio::basic_mmap::map</title>
<!-- Node1 -->
<g id="node1" class="node">
<title>Node1</title>
<g id="a_node1"><a xlink:title=" ">
<polygon fill="#bfbfbf" stroke="black" points="0,-57.5 0,-76.5 131,-76.5 131,-57.5 0,-57.5"/>
<text text-anchor="middle" x="65.5" y="-64.5" font-family="Helvetica,sans-Serif" font-size="10.00">mio::basic_mmap::map</text>
</a>
</g>
</g>
<!-- Node2 -->
<g id="node2" class="node">
<title>Node2</title>
<g id="a_node2"><a xlink:href="structmio_1_1basic__mmap.html#a4deacf96c37eb6e303fa45da23d72ba8" target="_top" xlink:title=" ">
<polygon fill="none" stroke="black" points="167,-57.5 167,-76.5 298,-76.5 298,-57.5 167,-57.5"/>
<text text-anchor="middle" x="232.5" y="-64.5" font-family="Helvetica,sans-Serif" font-size="10.00">mio::basic_mmap::map</text>
</a>
</g>
</g>
<!-- Node1&#45;&gt;Node2 -->
<g id="edge1" class="edge">
<title>Node1&#45;&gt;Node2</title>
<path fill="none" stroke="midnightblue" d="M131.24,-67C139.58,-67 148.18,-67 156.67,-67"/>
<polygon fill="midnightblue" stroke="midnightblue" points="156.95,-70.5 166.95,-67 156.95,-63.5 156.95,-70.5"/>
</g>
<!-- Node3 -->
<g id="node3" class="node">
<title>Node3</title>
<g id="a_node3"><a xlink:href="namespacemio_1_1detail.html#afdbd6eb65958d1555831926500365f2d" target="_top" xlink:title=" ">
<polygon fill="none" stroke="black" points="496.5,-76.5 496.5,-95.5 603.5,-95.5 603.5,-76.5 496.5,-76.5"/>
<text text-anchor="middle" x="550" y="-83.5" font-family="Helvetica,sans-Serif" font-size="10.00">mio::detail::empty</text>
</a>
</g>
</g>
<!-- Node2&#45;&gt;Node3 -->
<g id="edge2" class="edge">
<title>Node2&#45;&gt;Node3</title>
<path fill="none" stroke="midnightblue" d="M298.11,-70.89C353.15,-74.21 431.77,-78.94 486.27,-82.22"/>
<polygon fill="midnightblue" stroke="midnightblue" points="486.3,-85.73 496.49,-82.84 486.72,-78.74 486.3,-85.73"/>
</g>
<!-- Node4 -->
<g id="node4" class="node">
<title>Node4</title>
<g id="a_node4"><a xlink:href="namespacemio_1_1detail.html#a7e8d3c41d6aaab767ff383d601e550e9" target="_top" xlink:title=" ">
<polygon fill="none" stroke="black" points="334,-38.5 334,-57.5 453,-57.5 453,-38.5 334,-38.5"/>
<text text-anchor="middle" x="393.5" y="-45.5" font-family="Helvetica,sans-Serif" font-size="10.00">mio::detail::open_file</text>
</a>
</g>
</g>
<!-- Node2&#45;&gt;Node4 -->
<g id="edge3" class="edge">
<title>Node2&#45;&gt;Node4</title>
<path fill="none" stroke="midnightblue" d="M298.17,-59.27C306.55,-58.27 315.15,-57.24 323.59,-56.23"/>
<polygon fill="midnightblue" stroke="midnightblue" points="324.26,-59.68 333.77,-55.02 323.43,-52.73 324.26,-59.68"/>
</g>
<!-- Node4&#45;&gt;Node3 -->
<g id="edge5" class="edge">
<title>Node4&#45;&gt;Node3</title>
<path fill="none" stroke="midnightblue" d="M433.49,-57.59C453.78,-62.58 478.79,-68.73 500.35,-74.03"/>
<polygon fill="midnightblue" stroke="midnightblue" points="499.75,-77.49 510.29,-76.48 501.42,-70.69 499.75,-77.49"/>
</g>
<!-- Node5 -->
<g id="node5" class="node">
<title>Node5</title>
<g id="a_node5"><a xlink:href="namespacemio_1_1detail.html#aaf2266c48f50763f422ba1377f9a0e1f" target="_top" xlink:title=" ">
<polygon fill="none" stroke="black" points="501,-38.5 501,-57.5 599,-57.5 599,-38.5 501,-38.5"/>
<text text-anchor="middle" x="550" y="-45.5" font-family="Helvetica,sans-Serif" font-size="10.00">mio::detail::c_str</text>
</a>
</g>
</g>
<!-- Node4&#45;&gt;Node5 -->
<g id="edge4" class="edge">
<title>Node4&#45;&gt;Node5</title>
<path fill="none" stroke="midnightblue" d="M453.35,-48C465.61,-48 478.52,-48 490.76,-48"/>
<polygon fill="midnightblue" stroke="midnightblue" points="490.85,-51.5 500.85,-48 490.85,-44.5 490.85,-51.5"/>
</g>
<!-- Node6 -->
<g id="node6" class="node">
<title>Node6</title>
<g id="a_node6"><a xlink:href="namespacemio_1_1detail.html#a7674417addb84255c50356e6125cb81a" target="_top" xlink:title=" ">
<polygon fill="none" stroke="black" points="489,-0.5 489,-19.5 611,-19.5 611,-0.5 489,-0.5"/>
<text text-anchor="middle" x="550" y="-7.5" font-family="Helvetica,sans-Serif" font-size="10.00">mio::detail::last_error</text>
</a>
</g>
</g>
<!-- Node4&#45;&gt;Node6 -->
<g id="edge6" class="edge">
<title>Node4&#45;&gt;Node6</title>
<path fill="none" stroke="midnightblue" d="M433.49,-38.41C453.78,-33.42 478.79,-27.27 500.35,-21.97"/>
<polygon fill="midnightblue" stroke="midnightblue" points="501.42,-25.31 510.29,-19.52 499.75,-18.51 501.42,-25.31"/>
</g>
</g>
</svg>
