<?xml version="1.0" encoding="UTF-8" standalone="no"?>
<!DOCTYPE svg PUBLIC "-//W3C//DTD SVG 1.1//EN"
 "http://www.w3.org/Graphics/SVG/1.1/DTD/svg11.dtd">
<!-- Generated by graphviz version 2.43.0 (0)
 -->
<!-- Title: mio::basic_mmap::rend Pages: 1 -->
<svg width="479pt" height="28pt"
 viewBox="0.00 0.00 479.00 28.00" xmlns="http://www.w3.org/2000/svg" xmlns:xlink="http://www.w3.org/1999/xlink">
<g id="graph0" class="graph" transform="scale(1 1) rotate(0) translate(4 24)">
<title>mio::basic_mmap::rend</title>
<!-- Node1 -->
<g id="node1" class="node">
<title>Node1</title>
<g id="a_node1"><a xlink:title=" ">
<polygon fill="#bfbfbf" stroke="black" points="0,-0.5 0,-19.5 131,-19.5 131,-0.5 0,-0.5"/>
<text text-anchor="middle" x="65.5" y="-7.5" font-family="Helvetica,sans-Serif" font-size="10.00">mio::basic_mmap::rend</text>
</a>
</g>
</g>
<!-- Node2 -->
<g id="node2" class="node">
<title>Node2</title>
<g id="a_node2"><a xlink:href="structmio_1_1basic__mmap.html#a84ebe9e1875ad27851748a9674defcda" target="_top" xlink:title=" ">
<polygon fill="none" stroke="black" points="167,-0.5 167,-19.5 304,-19.5 304,-0.5 167,-0.5"/>
<text text-anchor="middle" x="235.5" y="-7.5" font-family="Helvetica,sans-Serif" font-size="10.00">mio::basic_mmap::begin</text>
</a>
</g>
</g>
<!-- Node1&#45;&gt;Node2 -->
<g id="edge1" class="edge">
<title>Node1&#45;&gt;Node2</title>
<path fill="none" stroke="midnightblue" d="M131.45,-10C139.72,-10 148.26,-10 156.7,-10"/>
<polygon fill="midnightblue" stroke="midnightblue" points="156.94,-13.5 166.94,-10 156.94,-6.5 156.94,-13.5"/>
</g>
<!-- Node3 -->
<g id="node3" class="node">
<title>Node3</title>
<g id="a_node3"><a xlink:href="structmio_1_1basic__mmap.html#a2d1d8693d67e97222293e98c3c6d553e" target="_top" xlink:title=" ">
<polygon fill="none" stroke="black" points="340,-0.5 340,-19.5 471,-19.5 471,-0.5 340,-0.5"/>
<text text-anchor="middle" x="405.5" y="-7.5" font-family="Helvetica,sans-Serif" font-size="10.00">mio::basic_mmap::data</text>
</a>
</g>
</g>
<!-- Node2&#45;&gt;Node3 -->
<g id="edge2" class="edge">
<title>Node2&#45;&gt;Node3</title>
<path fill="none" stroke="midnightblue" d="M304.35,-10C312.7,-10 321.27,-10 329.72,-10"/>
<polygon fill="midnightblue" stroke="midnightblue" points="329.94,-13.5 339.94,-10 329.94,-6.5 329.94,-13.5"/>
</g>
</g>
</svg>
