<?xml version="1.0" encoding="UTF-8" standalone="no"?>
<!DOCTYPE svg PUBLIC "-//W3C//DTD SVG 1.1//EN"
 "http://www.w3.org/Graphics/SVG/1.1/DTD/svg11.dtd">
<!-- Generated by graphviz version 2.43.0 (0)
 -->
<!-- Title: include/nmbuflowtorch/xor.hpp Pages: 1 -->
<svg width="1334pt" height="319pt"
 viewBox="0.00 0.00 1333.50 319.00" xmlns="http://www.w3.org/2000/svg" xmlns:xlink="http://www.w3.org/1999/xlink">
<g id="graph0" class="graph" transform="scale(1 1) rotate(0) translate(4 315)">
<title>include/nmbuflowtorch/xor.hpp</title>
<!-- Node1 -->
<g id="node1" class="node">
<title>Node1</title>
<g id="a_node1"><a xlink:title=" ">
<polygon fill="#bfbfbf" stroke="black" points="544.5,-280.5 544.5,-310.5 672.5,-310.5 672.5,-280.5 544.5,-280.5"/>
<text text-anchor="start" x="552.5" y="-298.5" font-family="Helvetica,sans-Serif" font-size="10.00">include/nmbuflowtorch</text>
<text text-anchor="middle" x="608.5" y="-287.5" font-family="Helvetica,sans-Serif" font-size="10.00">/xor.hpp</text>
</a>
</g>
</g>
<!-- Node2 -->
<g id="node2" class="node">
<title>Node2</title>
<g id="a_node2"><a xlink:title=" ">
<polygon fill="none" stroke="#bfbfbf" points="0,-224.5 0,-243.5 47,-243.5 47,-224.5 0,-224.5"/>
<text text-anchor="middle" x="23.5" y="-231.5" font-family="Helvetica,sans-Serif" font-size="10.00">omp.h</text>
</a>
</g>
</g>
<!-- Node1&#45;&gt;Node2 -->
<g id="edge1" class="edge">
<title>Node1&#45;&gt;Node2</title>
<path fill="none" stroke="midnightblue" d="M544.13,-291.49C441.49,-286.04 234.67,-272.36 61.5,-244 60.04,-243.76 58.55,-243.5 57.04,-243.21"/>
<polygon fill="midnightblue" stroke="midnightblue" points="57.62,-239.76 47.11,-241.13 56.18,-246.61 57.62,-239.76"/>
</g>
<!-- Node3 -->
<g id="node3" class="node">
<title>Node3</title>
<g id="a_node3"><a xlink:title=" ">
<polygon fill="none" stroke="#bfbfbf" points="154,-0.5 154,-19.5 201,-19.5 201,-0.5 154,-0.5"/>
<text text-anchor="middle" x="177.5" y="-7.5" font-family="Helvetica,sans-Serif" font-size="10.00">cmath</text>
</a>
</g>
</g>
<!-- Node1&#45;&gt;Node3 -->
<g id="edge2" class="edge">
<title>Node1&#45;&gt;Node3</title>
<path fill="none" stroke="midnightblue" d="M544.1,-292.16C413.82,-286.86 128.45,-272.15 94.5,-244 71.33,-224.79 75.5,-209.1 75.5,-179 75.5,-179 75.5,-179 75.5,-121 75.5,-76.39 121.16,-42.23 151.38,-24.51"/>
<polygon fill="midnightblue" stroke="midnightblue" points="153.2,-27.5 160.2,-19.55 149.77,-21.4 153.2,-27.5"/>
</g>
<!-- Node4 -->
<g id="node4" class="node">
<title>Node4</title>
<g id="a_node4"><a xlink:title=" ">
<polygon fill="none" stroke="#bfbfbf" points="103.5,-224.5 103.5,-243.5 159.5,-243.5 159.5,-224.5 103.5,-224.5"/>
<text text-anchor="middle" x="131.5" y="-231.5" font-family="Helvetica,sans-Serif" font-size="10.00">iomanip</text>
</a>
</g>
</g>
<!-- Node1&#45;&gt;Node4 -->
<g id="edge3" class="edge">
<title>Node1&#45;&gt;Node4</title>
<path fill="none" stroke="midnightblue" d="M544.47,-289C459.41,-281.24 304.59,-265.6 173.5,-244 172.26,-243.8 171,-243.58 169.73,-243.35"/>
<polygon fill="midnightblue" stroke="midnightblue" points="170.38,-239.91 159.9,-241.47 169.06,-246.79 170.38,-239.91"/>
</g>
<!-- Node5 -->
<g id="node5" class="node">
<title>Node5</title>
<g id="a_node5"><a xlink:title=" ">
<polygon fill="none" stroke="#bfbfbf" points="386.5,-0.5 386.5,-19.5 446.5,-19.5 446.5,-0.5 386.5,-0.5"/>
<text text-anchor="middle" x="416.5" y="-7.5" font-family="Helvetica,sans-Serif" font-size="10.00">iostream</text>
</a>
</g>
</g>
<!-- Node1&#45;&gt;Node5 -->
<g id="edge4" class="edge">
<title>Node1&#45;&gt;Node5</title>
<path fill="none" stroke="midnightblue" d="M544.32,-294.74C443.91,-293.78 256.02,-286.2 206.5,-244 183.59,-224.48 187.5,-209.1 187.5,-179 187.5,-179 187.5,-179 187.5,-121 187.5,-38.31 310.31,-17.74 376.06,-12.65"/>
<polygon fill="midnightblue" stroke="midnightblue" points="376.35,-16.14 386.09,-11.96 375.87,-9.16 376.35,-16.14"/>
</g>
<!-- Node6 -->
<g id="node6" class="node">
<title>Node6</title>
<g id="a_node6"><a xlink:title=" ">
<polygon fill="none" stroke="#bfbfbf" points="216,-224.5 216,-243.5 273,-243.5 273,-224.5 216,-224.5"/>
<text text-anchor="middle" x="244.5" y="-231.5" font-family="Helvetica,sans-Serif" font-size="10.00">ostream</text>
</a>
</g>
</g>
<!-- Node1&#45;&gt;Node6 -->
<g id="edge5" class="edge">
<title>Node1&#45;&gt;Node6</title>
<path fill="none" stroke="midnightblue" d="M544.39,-285.38C479.48,-275.93 376.29,-260.26 287.5,-244 286.05,-243.73 284.57,-243.46 283.07,-243.17"/>
<polygon fill="midnightblue" stroke="midnightblue" points="283.63,-239.71 273.14,-241.2 282.27,-246.58 283.63,-239.71"/>
</g>
<!-- Node7 -->
<g id="node7" class="node">
<title>Node7</title>
<g id="a_node7"><a xlink:title=" ">
<polygon fill="none" stroke="#bfbfbf" points="888,-0.5 888,-19.5 935,-19.5 935,-0.5 888,-0.5"/>
<text text-anchor="middle" x="911.5" y="-7.5" font-family="Helvetica,sans-Serif" font-size="10.00">vector</text>
</a>
</g>
</g>
<!-- Node1&#45;&gt;Node7 -->
<g id="edge6" class="edge">
<title>Node1&#45;&gt;Node7</title>
<path fill="none" stroke="midnightblue" d="M672.68,-293.45C810.2,-290.52 1129.02,-279.96 1230.5,-244 1278.72,-226.91 1325.5,-230.16 1325.5,-179 1325.5,-179 1325.5,-179 1325.5,-121 1325.5,-42.52 1044.1,-18.68 945.3,-12.72"/>
<polygon fill="midnightblue" stroke="midnightblue" points="945.43,-9.23 935.25,-12.14 945.03,-16.21 945.43,-9.23"/>
</g>
<!-- Node8 -->
<g id="node8" class="node">
<title>Node8</title>
<g id="a_node8"><a xlink:title=" ">
<polygon fill="none" stroke="#bfbfbf" points="330,-224.5 330,-243.5 445,-243.5 445,-224.5 330,-224.5"/>
<text text-anchor="middle" x="387.5" y="-231.5" font-family="Helvetica,sans-Serif" font-size="10.00">./csv_parser/csv.hpp</text>
</a>
</g>
</g>
<!-- Node1&#45;&gt;Node8 -->
<g id="edge7" class="edge">
<title>Node1&#45;&gt;Node8</title>
<path fill="none" stroke="midnightblue" d="M556.41,-280.47C517.45,-269.99 464.89,-255.84 428.81,-246.12"/>
<polygon fill="midnightblue" stroke="midnightblue" points="429.66,-242.73 419.1,-243.51 427.84,-249.49 429.66,-242.73"/>
</g>
<!-- Node9 -->
<g id="node9" class="node">
<title>Node9</title>
<g id="a_node9"><a xlink:href="definitions_8hpp.html" target="_top" xlink:title=" ">
<polygon fill="none" stroke="black" points="687,-56.5 687,-75.5 782,-75.5 782,-56.5 687,-56.5"/>
<text text-anchor="middle" x="734.5" y="-63.5" font-family="Helvetica,sans-Serif" font-size="10.00">./definitions.hpp</text>
</a>
</g>
</g>
<!-- Node1&#45;&gt;Node9 -->
<g id="edge8" class="edge">
<title>Node1&#45;&gt;Node9</title>
<path fill="none" stroke="midnightblue" d="M544.45,-292.49C468.72,-288.6 349.39,-277.23 321.5,-244 315.79,-237.19 316.57,-231.4 321.5,-224 400.67,-105.28 582.86,-76.2 676.54,-69.17"/>
<polygon fill="midnightblue" stroke="midnightblue" points="676.96,-72.65 686.7,-68.47 676.48,-65.66 676.96,-72.65"/>
</g>
<!-- Node14 -->
<g id="node14" class="node">
<title>Node14</title>
<g id="a_node14"><a xlink:href="layer_8hpp.html" target="_top" xlink:title=" ">
<polygon fill="none" stroke="black" points="877.5,-168.5 877.5,-187.5 945.5,-187.5 945.5,-168.5 877.5,-168.5"/>
<text text-anchor="middle" x="911.5" y="-175.5" font-family="Helvetica,sans-Serif" font-size="10.00">./layer.hpp</text>
</a>
</g>
</g>
<!-- Node1&#45;&gt;Node14 -->
<g id="edge16" class="edge">
<title>Node1&#45;&gt;Node14</title>
<path fill="none" stroke="midnightblue" d="M672.53,-291.54C785.78,-285.64 1011.82,-270.64 1035.5,-244 1041.4,-237.36 1040.6,-231.28 1035.5,-224 1025.95,-210.38 987.31,-197.72 955.66,-189.33"/>
<polygon fill="midnightblue" stroke="midnightblue" points="956.24,-185.86 945.68,-186.75 954.49,-192.64 956.24,-185.86"/>
</g>
<!-- Node15 -->
<g id="node15" class="node">
<title>Node15</title>
<g id="a_node15"><a xlink:href="optimizer_8hpp.html" target="_top" xlink:title=" ">
<polygon fill="none" stroke="black" points="967,-112.5 967,-131.5 1056,-131.5 1056,-112.5 967,-112.5"/>
<text text-anchor="middle" x="1011.5" y="-119.5" font-family="Helvetica,sans-Serif" font-size="10.00">./optimizer.hpp</text>
</a>
</g>
</g>
<!-- Node1&#45;&gt;Node15 -->
<g id="edge45" class="edge">
<title>Node1&#45;&gt;Node15</title>
<path fill="none" stroke="midnightblue" d="M672.71,-293.55C814.02,-290.8 1142.1,-280.5 1175.5,-244 1219.73,-195.65 1114.15,-153.94 1052.35,-134.55"/>
<polygon fill="midnightblue" stroke="midnightblue" points="1053.06,-131.11 1042.47,-131.53 1051.01,-137.8 1053.06,-131.11"/>
</g>
<!-- Node17 -->
<g id="node17" class="node">
<title>Node17</title>
<g id="a_node17"><a xlink:href="dense_8hpp.html" target="_top" xlink:title=" ">
<polygon fill="none" stroke="black" points="502,-224.5 502,-243.5 603,-243.5 603,-224.5 502,-224.5"/>
<text text-anchor="middle" x="552.5" y="-231.5" font-family="Helvetica,sans-Serif" font-size="10.00">./layer/dense.hpp</text>
</a>
</g>
</g>
<!-- Node1&#45;&gt;Node17 -->
<g id="edge22" class="edge">
<title>Node1&#45;&gt;Node17</title>
<path fill="none" stroke="midnightblue" d="M595.23,-280.4C586.92,-271.58 576.2,-260.18 567.58,-251.02"/>
<polygon fill="midnightblue" stroke="midnightblue" points="570.05,-248.54 560.65,-243.66 564.95,-253.34 570.05,-248.54"/>
</g>
<!-- Node18 -->
<g id="node18" class="node">
<title>Node18</title>
<g id="a_node18"><a xlink:href="math__m_8hpp.html" target="_top" xlink:title=" ">
<polygon fill="none" stroke="black" points="581,-168.5 581,-187.5 668,-187.5 668,-168.5 581,-168.5"/>
<text text-anchor="middle" x="624.5" y="-175.5" font-family="Helvetica,sans-Serif" font-size="10.00">../math_m.hpp</text>
</a>
</g>
</g>
<!-- Node1&#45;&gt;Node18 -->
<g id="edge37" class="edge">
<title>Node1&#45;&gt;Node18</title>
<path fill="none" stroke="midnightblue" d="M546.54,-280.38C510.12,-269 474.59,-250.49 493.5,-224 511.05,-199.42 542.9,-188.13 570.8,-183"/>
<polygon fill="midnightblue" stroke="midnightblue" points="571.56,-186.42 580.87,-181.38 570.44,-179.51 571.56,-186.42"/>
</g>
<!-- Node20 -->
<g id="node20" class="node">
<title>Node20</title>
<g id="a_node20"><a xlink:href="sigmoid_8hpp.html" target="_top" xlink:title=" ">
<polygon fill="none" stroke="black" points="916.5,-224.5 916.5,-243.5 1026.5,-243.5 1026.5,-224.5 916.5,-224.5"/>
<text text-anchor="middle" x="971.5" y="-231.5" font-family="Helvetica,sans-Serif" font-size="10.00">./layer/sigmoid.hpp</text>
</a>
</g>
</g>
<!-- Node1&#45;&gt;Node20 -->
<g id="edge29" class="edge">
<title>Node1&#45;&gt;Node20</title>
<path fill="none" stroke="midnightblue" d="M672.56,-284C739.31,-273.06 843.2,-256.03 909.26,-245.2"/>
<polygon fill="midnightblue" stroke="midnightblue" points="910.23,-248.59 919.53,-243.52 909.1,-241.68 910.23,-248.59"/>
</g>
<!-- Node21 -->
<g id="node21" class="node">
<title>Node21</title>
<g id="a_node21"><a xlink:href="loss_8hpp.html" target="_top" xlink:title=" ">
<polygon fill="none" stroke="black" points="796,-168.5 796,-187.5 859,-187.5 859,-168.5 796,-168.5"/>
<text text-anchor="middle" x="827.5" y="-175.5" font-family="Helvetica,sans-Serif" font-size="10.00">./loss.hpp</text>
</a>
</g>
</g>
<!-- Node1&#45;&gt;Node21 -->
<g id="edge31" class="edge">
<title>Node1&#45;&gt;Node21</title>
<path fill="none" stroke="midnightblue" d="M641.35,-280.31C663.2,-270.62 692.39,-257.19 717.5,-244 748.6,-227.66 783.32,-206.66 805.28,-193.02"/>
<polygon fill="midnightblue" stroke="midnightblue" points="807.23,-195.93 813.86,-187.66 803.52,-189.99 807.23,-195.93"/>
</g>
<!-- Node22 -->
<g id="node22" class="node">
<title>Node22</title>
<g id="a_node22"><a xlink:href="cross__entropy_8hpp.html" target="_top" xlink:title=" ">
<polygon fill="none" stroke="black" points="765,-224.5 765,-243.5 898,-243.5 898,-224.5 765,-224.5"/>
<text text-anchor="middle" x="831.5" y="-231.5" font-family="Helvetica,sans-Serif" font-size="10.00">./loss/cross_entropy.hpp</text>
</a>
</g>
</g>
<!-- Node1&#45;&gt;Node22 -->
<g id="edge33" class="edge">
<title>Node1&#45;&gt;Node22</title>
<path fill="none" stroke="midnightblue" d="M661.07,-280.47C700.38,-269.99 753.41,-255.84 789.82,-246.12"/>
<polygon fill="midnightblue" stroke="midnightblue" points="790.86,-249.47 799.62,-243.51 789.05,-242.7 790.86,-249.47"/>
</g>
<!-- Node23 -->
<g id="node23" class="node">
<title>Node23</title>
<g id="a_node23"><a xlink:href="mse_8hpp.html" target="_top" xlink:title=" ">
<polygon fill="none" stroke="black" points="621,-224.5 621,-243.5 708,-243.5 708,-224.5 621,-224.5"/>
<text text-anchor="middle" x="664.5" y="-231.5" font-family="Helvetica,sans-Serif" font-size="10.00">./loss/mse.hpp</text>
</a>
</g>
</g>
<!-- Node1&#45;&gt;Node23 -->
<g id="edge35" class="edge">
<title>Node1&#45;&gt;Node23</title>
<path fill="none" stroke="midnightblue" d="M621.77,-280.4C630.08,-271.58 640.8,-260.18 649.42,-251.02"/>
<polygon fill="midnightblue" stroke="midnightblue" points="652.05,-253.34 656.35,-243.66 646.95,-248.54 652.05,-253.34"/>
</g>
<!-- Node24 -->
<g id="node24" class="node">
<title>Node24</title>
<g id="a_node24"><a xlink:href="network_8hpp.html" target="_top" xlink:title="Network class representing a sequence of layers. This class implements a network consisting of a sequ...">
<polygon fill="none" stroke="black" points="1083,-224.5 1083,-243.5 1166,-243.5 1166,-224.5 1083,-224.5"/>
<text text-anchor="middle" x="1124.5" y="-231.5" font-family="Helvetica,sans-Serif" font-size="10.00">./network.hpp</text>
</a>
</g>
</g>
<!-- Node1&#45;&gt;Node24 -->
<g id="edge38" class="edge">
<title>Node1&#45;&gt;Node24</title>
<path fill="none" stroke="midnightblue" d="M672.62,-288.48C761.63,-279.9 927.58,-263.05 1068.5,-244 1069.96,-243.8 1071.45,-243.6 1072.95,-243.38"/>
<polygon fill="midnightblue" stroke="midnightblue" points="1073.56,-246.83 1082.94,-241.92 1072.54,-239.91 1073.56,-246.83"/>
</g>
<!-- Node26 -->
<g id="node26" class="node">
<title>Node26</title>
<g id="a_node26"><a xlink:href="sgd_8hpp.html" target="_top" xlink:title=" ">
<polygon fill="none" stroke="black" points="1187.5,-168.5 1187.5,-187.5 1297.5,-187.5 1297.5,-168.5 1187.5,-168.5"/>
<text text-anchor="middle" x="1242.5" y="-175.5" font-family="Helvetica,sans-Serif" font-size="10.00">./optimizer/sgd.hpp</text>
</a>
</g>
</g>
<!-- Node1&#45;&gt;Node26 -->
<g id="edge46" class="edge">
<title>Node1&#45;&gt;Node26</title>
<path fill="none" stroke="midnightblue" d="M672.54,-292.57C818.1,-287.69 1164.64,-273.14 1208.5,-244 1224.55,-233.34 1233.5,-212.58 1238.14,-197.38"/>
<polygon fill="midnightblue" stroke="midnightblue" points="1241.58,-198.08 1240.8,-187.52 1234.82,-196.26 1241.58,-198.08"/>
</g>
<!-- Node9&#45;&gt;Node3 -->
<g id="edge11" class="edge">
<title>Node9&#45;&gt;Node3</title>
<path fill="none" stroke="midnightblue" d="M686.53,-60.35C576.13,-49.65 306.26,-23.48 211.26,-14.27"/>
<polygon fill="midnightblue" stroke="midnightblue" points="211.37,-10.77 201.08,-13.29 210.69,-17.73 211.37,-10.77"/>
</g>
<!-- Node9&#45;&gt;Node5 -->
<g id="edge13" class="edge">
<title>Node9&#45;&gt;Node5</title>
<path fill="none" stroke="midnightblue" d="M686.89,-56.92C624.29,-46.29 515.39,-27.79 456.71,-17.83"/>
<polygon fill="midnightblue" stroke="midnightblue" points="457.15,-14.35 446.71,-16.13 455.98,-21.25 457.15,-14.35"/>
</g>
<!-- Node9&#45;&gt;Node7 -->
<g id="edge15" class="edge">
<title>Node9&#45;&gt;Node7</title>
<path fill="none" stroke="midnightblue" d="M762.55,-56.44C793.91,-46.88 844.67,-31.39 878.07,-21.2"/>
<polygon fill="midnightblue" stroke="midnightblue" points="879.29,-24.49 887.83,-18.22 877.25,-17.79 879.29,-24.49"/>
</g>
<!-- Node10 -->
<g id="node10" class="node">
<title>Node10</title>
<g id="a_node10"><a xlink:title=" ">
<polygon fill="none" stroke="#bfbfbf" points="621.5,-0.5 621.5,-19.5 677.5,-19.5 677.5,-0.5 621.5,-0.5"/>
<text text-anchor="middle" x="649.5" y="-7.5" font-family="Helvetica,sans-Serif" font-size="10.00">unistd.h</text>
</a>
</g>
</g>
<!-- Node9&#45;&gt;Node10 -->
<g id="edge9" class="edge">
<title>Node9&#45;&gt;Node10</title>
<path fill="none" stroke="midnightblue" d="M720.84,-56.32C707.58,-47.9 687.23,-34.97 671.65,-25.07"/>
<polygon fill="midnightblue" stroke="midnightblue" points="673.44,-22.06 663.12,-19.65 669.69,-27.97 673.44,-22.06"/>
</g>
<!-- Node11 -->
<g id="node11" class="node">
<title>Node11</title>
<g id="a_node11"><a xlink:title=" ">
<polygon fill="none" stroke="#bfbfbf" points="696,-0.5 696,-19.5 773,-19.5 773,-0.5 696,-0.5"/>
<text text-anchor="middle" x="734.5" y="-7.5" font-family="Helvetica,sans-Serif" font-size="10.00">Eigen/Dense</text>
</a>
</g>
</g>
<!-- Node9&#45;&gt;Node11 -->
<g id="edge10" class="edge">
<title>Node9&#45;&gt;Node11</title>
<path fill="none" stroke="midnightblue" d="M734.5,-56.08C734.5,-49.01 734.5,-38.86 734.5,-29.99"/>
<polygon fill="midnightblue" stroke="midnightblue" points="738,-29.75 734.5,-19.75 731,-29.75 738,-29.75"/>
</g>
<!-- Node12 -->
<g id="node12" class="node">
<title>Node12</title>
<g id="a_node12"><a xlink:title=" ">
<polygon fill="none" stroke="#bfbfbf" points="791.5,-0.5 791.5,-19.5 837.5,-19.5 837.5,-0.5 791.5,-0.5"/>
<text text-anchor="middle" x="814.5" y="-7.5" font-family="Helvetica,sans-Serif" font-size="10.00">cstdio</text>
</a>
</g>
</g>
<!-- Node9&#45;&gt;Node12 -->
<g id="edge12" class="edge">
<title>Node9&#45;&gt;Node12</title>
<path fill="none" stroke="midnightblue" d="M747.35,-56.32C759.72,-47.98 778.63,-35.21 793.24,-25.35"/>
<polygon fill="midnightblue" stroke="midnightblue" points="795.35,-28.15 801.68,-19.65 791.43,-22.35 795.35,-28.15"/>
</g>
<!-- Node13 -->
<g id="node13" class="node">
<title>Node13</title>
<g id="a_node13"><a xlink:title=" ">
<polygon fill="none" stroke="#bfbfbf" points="548.5,-0.5 548.5,-19.5 592.5,-19.5 592.5,-0.5 548.5,-0.5"/>
<text text-anchor="middle" x="570.5" y="-7.5" font-family="Helvetica,sans-Serif" font-size="10.00">string</text>
</a>
</g>
</g>
<!-- Node9&#45;&gt;Node13 -->
<g id="edge14" class="edge">
<title>Node9&#45;&gt;Node13</title>
<path fill="none" stroke="midnightblue" d="M708.51,-56.44C679.79,-46.99 633.49,-31.74 602.54,-21.55"/>
<polygon fill="midnightblue" stroke="midnightblue" points="603.28,-18.11 592.68,-18.3 601.09,-24.76 603.28,-18.11"/>
</g>
<!-- Node14&#45;&gt;Node7 -->
<g id="edge17" class="edge">
<title>Node14&#45;&gt;Node7</title>
<path fill="none" stroke="midnightblue" d="M911.5,-168.08C911.5,-141.95 911.5,-65.21 911.5,-29.58"/>
<polygon fill="midnightblue" stroke="midnightblue" points="915,-29.57 911.5,-19.57 908,-29.57 915,-29.57"/>
</g>
<!-- Node14&#45;&gt;Node9 -->
<g id="edge18" class="edge">
<title>Node14&#45;&gt;Node9</title>
<path fill="none" stroke="midnightblue" d="M891.15,-168.44C872.09,-160.11 843.09,-146.59 819.5,-132 795.01,-116.86 769.02,-96.22 752.32,-82.3"/>
<polygon fill="midnightblue" stroke="midnightblue" points="754.39,-79.47 744.49,-75.7 749.88,-84.82 754.39,-79.47"/>
</g>
<!-- Node14&#45;&gt;Node15 -->
<g id="edge19" class="edge">
<title>Node14&#45;&gt;Node15</title>
<path fill="none" stroke="midnightblue" d="M927.57,-168.32C943.46,-159.74 968.01,-146.49 986.46,-136.52"/>
<polygon fill="midnightblue" stroke="midnightblue" points="988.34,-139.49 995.47,-131.65 985.01,-133.33 988.34,-139.49"/>
</g>
<!-- Node15&#45;&gt;Node9 -->
<g id="edge21" class="edge">
<title>Node15&#45;&gt;Node9</title>
<path fill="none" stroke="midnightblue" d="M967.61,-112.44C918.98,-102.96 840.55,-87.67 788.28,-77.48"/>
<polygon fill="midnightblue" stroke="midnightblue" points="788.67,-73.99 778.19,-75.52 787.33,-80.87 788.67,-73.99"/>
</g>
<!-- Node16 -->
<g id="node16" class="node">
<title>Node16</title>
<g id="a_node16"><a xlink:title=" ">
<polygon fill="none" stroke="#bfbfbf" points="965,-56.5 965,-75.5 1058,-75.5 1058,-56.5 965,-56.5"/>
<text text-anchor="middle" x="1011.5" y="-63.5" font-family="Helvetica,sans-Serif" font-size="10.00">unordered_map</text>
</a>
</g>
</g>
<!-- Node15&#45;&gt;Node16 -->
<g id="edge20" class="edge">
<title>Node15&#45;&gt;Node16</title>
<path fill="none" stroke="midnightblue" d="M1011.5,-112.08C1011.5,-105.01 1011.5,-94.86 1011.5,-85.99"/>
<polygon fill="midnightblue" stroke="midnightblue" points="1015,-85.75 1011.5,-75.75 1008,-85.75 1015,-85.75"/>
</g>
<!-- Node17&#45;&gt;Node7 -->
<g id="edge24" class="edge">
<title>Node17&#45;&gt;Node7</title>
<path fill="none" stroke="midnightblue" d="M584.18,-224.49C610.15,-216.85 647.39,-204.32 677.5,-188 766.23,-139.92 857.77,-60.25 894.63,-26.68"/>
<polygon fill="midnightblue" stroke="midnightblue" points="897.41,-28.88 902.41,-19.54 892.68,-23.72 897.41,-28.88"/>
</g>
<!-- Node17&#45;&gt;Node13 -->
<g id="edge23" class="edge">
<title>Node17&#45;&gt;Node13</title>
<path fill="none" stroke="midnightblue" d="M553.21,-224.3C555.85,-191.63 565.24,-75.87 568.96,-29.96"/>
<polygon fill="midnightblue" stroke="midnightblue" points="572.46,-30.13 569.78,-19.88 565.48,-29.57 572.46,-30.13"/>
</g>
<!-- Node17&#45;&gt;Node14 -->
<g id="edge25" class="edge">
<title>Node17&#45;&gt;Node14</title>
<path fill="none" stroke="midnightblue" d="M603.23,-225.36C606.37,-224.89 609.48,-224.44 612.5,-224 722.98,-207.95 753.6,-207.78 867.13,-188.15"/>
<polygon fill="midnightblue" stroke="midnightblue" points="868.02,-191.54 877.27,-186.38 866.82,-184.65 868.02,-191.54"/>
</g>
<!-- Node17&#45;&gt;Node18 -->
<g id="edge26" class="edge">
<title>Node17&#45;&gt;Node18</title>
<path fill="none" stroke="midnightblue" d="M564.07,-224.32C574.92,-216.18 591.38,-203.84 604.38,-194.09"/>
<polygon fill="midnightblue" stroke="midnightblue" points="606.82,-196.63 612.72,-187.83 602.62,-191.03 606.82,-196.63"/>
</g>
<!-- Node18&#45;&gt;Node9 -->
<g id="edge28" class="edge">
<title>Node18&#45;&gt;Node9</title>
<path fill="none" stroke="midnightblue" d="M633.13,-168.37C651.61,-149.89 695.21,-106.29 718.76,-82.74"/>
<polygon fill="midnightblue" stroke="midnightblue" points="721.31,-85.14 725.91,-75.59 716.36,-80.19 721.31,-85.14"/>
</g>
<!-- Node19 -->
<g id="node19" class="node">
<title>Node19</title>
<g id="a_node19"><a xlink:title=" ">
<polygon fill="none" stroke="#bfbfbf" points="599,-112.5 599,-131.5 650,-131.5 650,-112.5 599,-112.5"/>
<text text-anchor="middle" x="624.5" y="-119.5" font-family="Helvetica,sans-Serif" font-size="10.00">cblas.h</text>
</a>
</g>
</g>
<!-- Node18&#45;&gt;Node19 -->
<g id="edge27" class="edge">
<title>Node18&#45;&gt;Node19</title>
<path fill="none" stroke="midnightblue" d="M624.5,-168.08C624.5,-161.01 624.5,-150.86 624.5,-141.99"/>
<polygon fill="midnightblue" stroke="midnightblue" points="628,-141.75 624.5,-131.75 621,-141.75 628,-141.75"/>
</g>
<!-- Node20&#45;&gt;Node14 -->
<g id="edge30" class="edge">
<title>Node20&#45;&gt;Node14</title>
<path fill="none" stroke="midnightblue" d="M961.86,-224.32C952.99,-216.34 939.63,-204.31 928.89,-194.65"/>
<polygon fill="midnightblue" stroke="midnightblue" points="931.09,-191.92 921.32,-187.83 926.41,-197.13 931.09,-191.92"/>
</g>
<!-- Node21&#45;&gt;Node9 -->
<g id="edge32" class="edge">
<title>Node21&#45;&gt;Node9</title>
<path fill="none" stroke="midnightblue" d="M816.42,-168.41C805.77,-159.84 789.54,-145.98 777.5,-132 764.71,-117.15 752.63,-98.3 744.55,-84.72"/>
<polygon fill="midnightblue" stroke="midnightblue" points="747.47,-82.79 739.42,-75.91 741.42,-86.31 747.47,-82.79"/>
</g>
<!-- Node22&#45;&gt;Node21 -->
<g id="edge34" class="edge">
<title>Node22&#45;&gt;Node21</title>
<path fill="none" stroke="midnightblue" d="M830.84,-224.08C830.32,-217.01 829.56,-206.86 828.91,-197.99"/>
<polygon fill="midnightblue" stroke="midnightblue" points="832.38,-197.47 828.15,-187.75 825.4,-197.98 832.38,-197.47"/>
</g>
<!-- Node23&#45;&gt;Node21 -->
<g id="edge36" class="edge">
<title>Node23&#45;&gt;Node21</title>
<path fill="none" stroke="midnightblue" d="M690.33,-224.44C717.75,-215.36 761.28,-200.94 791.93,-190.78"/>
<polygon fill="midnightblue" stroke="midnightblue" points="793.4,-193.98 801.79,-187.52 791.2,-187.34 793.4,-193.98"/>
</g>
<!-- Node24&#45;&gt;Node7 -->
<g id="edge40" class="edge">
<title>Node24&#45;&gt;Node7</title>
<path fill="none" stroke="midnightblue" d="M1124.41,-224.15C1123.6,-195.47 1117.1,-104.1 1067.5,-56 1034.58,-24.08 980.51,-14.56 945.46,-11.85"/>
<polygon fill="midnightblue" stroke="midnightblue" points="945.43,-8.35 935.24,-11.22 945,-15.33 945.43,-8.35"/>
</g>
<!-- Node24&#45;&gt;Node9 -->
<g id="edge41" class="edge">
<title>Node24&#45;&gt;Node9</title>
<path fill="none" stroke="midnightblue" d="M1103.57,-224.47C1081.59,-215.48 1046.06,-200.89 1015.5,-188 923.28,-149.11 814.57,-101.91 763.61,-79.71"/>
<polygon fill="midnightblue" stroke="midnightblue" points="764.78,-76.4 754.22,-75.61 761.98,-82.82 764.78,-76.4"/>
</g>
<!-- Node24&#45;&gt;Node14 -->
<g id="edge42" class="edge">
<title>Node24&#45;&gt;Node14</title>
<path fill="none" stroke="midnightblue" d="M1090.75,-224.44C1053.98,-215.12 995.05,-200.18 954.88,-190"/>
<polygon fill="midnightblue" stroke="midnightblue" points="955.65,-186.58 945.09,-187.52 953.93,-193.37 955.65,-186.58"/>
</g>
<!-- Node24&#45;&gt;Node15 -->
<g id="edge44" class="edge">
<title>Node24&#45;&gt;Node15</title>
<path fill="none" stroke="midnightblue" d="M1091.48,-224.35C1071.53,-217.54 1047.04,-206.1 1031.5,-188 1020.34,-174.99 1015.4,-155.83 1013.22,-141.68"/>
<polygon fill="midnightblue" stroke="midnightblue" points="1016.68,-141.12 1012,-131.62 1009.73,-141.97 1016.68,-141.12"/>
</g>
<!-- Node24&#45;&gt;Node21 -->
<g id="edge43" class="edge">
<title>Node24&#45;&gt;Node21</title>
<path fill="none" stroke="midnightblue" d="M1082.72,-226.21C1033.94,-218.16 950.59,-204.03 869.17,-188.06"/>
<polygon fill="midnightblue" stroke="midnightblue" points="869.74,-184.61 859.26,-186.11 868.39,-191.48 869.74,-184.61"/>
</g>
<!-- Node25 -->
<g id="node25" class="node">
<title>Node25</title>
<g id="a_node25"><a xlink:title=" ">
<polygon fill="none" stroke="#bfbfbf" points="1040,-168.5 1040,-187.5 1093,-187.5 1093,-168.5 1040,-168.5"/>
<text text-anchor="middle" x="1066.5" y="-175.5" font-family="Helvetica,sans-Serif" font-size="10.00">stdlib.h</text>
</a>
</g>
</g>
<!-- Node24&#45;&gt;Node25 -->
<g id="edge39" class="edge">
<title>Node24&#45;&gt;Node25</title>
<path fill="none" stroke="midnightblue" d="M1115.18,-224.32C1106.61,-216.34 1093.69,-204.31 1083.31,-194.65"/>
<polygon fill="midnightblue" stroke="midnightblue" points="1085.69,-192.09 1075.99,-187.83 1080.92,-197.21 1085.69,-192.09"/>
</g>
<!-- Node26&#45;&gt;Node15 -->
<g id="edge47" class="edge">
<title>Node26&#45;&gt;Node15</title>
<path fill="none" stroke="midnightblue" d="M1205.9,-168.44C1165.77,-159.06 1101.3,-143.99 1057.72,-133.8"/>
<polygon fill="midnightblue" stroke="midnightblue" points="1058.47,-130.38 1047.93,-131.52 1056.87,-137.2 1058.47,-130.38"/>
</g>
</g>
</svg>
